<svg xmlns="http://www.w3.org/2000/svg" data-name="Layer 1" viewBox="0 0 24 24"><path d="M22 20.5c0-1.378-1.122-2.5-2.5-2.5H15v-2.5c0-.827.673-1.5 1.5-1.5h4c1.93 0 3.5-1.57 3.5-3.5S22.43 7 20.5 7h-3.357C16.387 6.811 8.136 4.659 5.104.218L4.955 0H4v15h.955l.149-.218C8.134 10.345 16.388 8.19 17.144 8h3.357c1.378 0 2.5 1.122 2.5 2.5s-1.122 2.5-2.5 2.5h-4a2.503 2.503 0 0 0-2.5 2.5V18H4.5A2.503 2.503 0 0 0 2 20.5V23H0v1h24v-1h-2v-2.5ZM5 13.292V1.708C7.747 4.83 12.638 6.687 15.24 7.5c-2.602.813-7.493 2.669-10.24 5.792ZM3 20.5c0-.827.673-1.5 1.5-1.5h15c.827 0 1.5.673 1.5 1.5V23H3v-2.5Z"/></svg>