<svg xmlns="http://www.w3.org/2000/svg" width="512" height="512" data-name="Layer 1" viewBox="0 0 24 24"><path d="M16 0v9.448c0 .601.337 1.136.878 1.397.542.26 1.17.188 1.641-.187L20 9.472l1.481 1.186a1.54 1.54 0 0 0 1.641.186A1.54 1.54 0 0 0 24 9.447V0h-8Zm7 9.448a.539.539 0 0 1-.312.496.542.542 0 0 1-.582-.066L20 8.193l-2.106 1.685a.537.537 0 0 1-.582.066.54.54 0 0 1-.312-.496V1h6v8.448ZM23 13h1v11H0V6.5C0 5.122 1.122 4 2.5 4H14v1H2.5a1.5 1.5 0 0 0-1.268.701l8.274 8.275a3.505 3.505 0 0 0 4.95 0l1.41-1.41c.049.027.095.059.146.083.292.14.596.225.903.282l-1.752 1.752c-.877.877-2.03 1.316-3.182 1.316s-2.305-.438-3.182-1.316L1 6.883V23h22V13Z"/></svg>