<svg xmlns="http://www.w3.org/2000/svg" width="512" height="512" data-name="Layer 1" viewBox="0 0 24 24"><path d="m19.959.446-.354-.354L.093 19.605l.354.354c2.69 2.689 6.223 4.034 9.756 4.034s7.067-1.345 9.756-4.034c5.379-5.38 5.379-14.133 0-19.513ZM14.522 6.59A5.573 5.573 0 0 1 16 10.386a5.577 5.577 0 0 1-1.644 3.969 5.617 5.617 0 0 1-7.765.166l7.931-7.931Zm4.73 12.661c-4.87 4.87-12.725 4.986-17.738.347l4.37-4.37a6.593 6.593 0 0 0 4.503 1.767 6.594 6.594 0 0 0 4.676-1.934A6.569 6.569 0 0 0 17 10.385a6.567 6.567 0 0 0-1.771-4.504l4.37-4.367c4.64 5.013 4.524 12.867-.347 17.738Z"/></svg>