<svg xmlns="http://www.w3.org/2000/svg" width="512" height="512" data-name="Layer 1" viewBox="0 0 24 24"><path d="M24 4.5v5.528a5.25 5.25 0 0 0-1-.594V4.5c0-.827-.673-1.5-1.5-1.5h-19C1.673 3 1 3.673 1 4.5V21h8v1H0V4.5C0 3.122 1.121 2 2.5 2h19C22.879 2 24 3.122 24 4.5ZM21 7h-8v1h8V7Zm2.268 4.732c.473.472.732 1.1.732 1.768s-.26 1.296-.732 1.768L14.536 24h-3.535v-3.536l8.732-8.732a2.502 2.502 0 0 1 3.535 0ZM23 13.5a1.501 1.501 0 0 0-2.56-1.061l-8.439 8.439V23h2.121l8.439-8.439A1.49 1.49 0 0 0 23 13.5ZM13 12h3.637l1-1H13v1Zm-6.5 5h2c1.379 0 2.5-1.122 2.5-2.5h-1c0 .827-.673 1.5-1.5 1.5h-2c-.827 0-1.5-.673-1.5-1.5v-2h3v-1H5v-2C5 8.673 5.673 8 6.5 8h2c.827 0 1.5.673 1.5 1.5h1C11 8.122 9.879 7 8.5 7h-2A2.503 2.503 0 0 0 4 9.5v2H2.5v1H4v2C4 15.878 5.121 17 6.5 17Z"/></svg>