<svg xmlns="http://www.w3.org/2000/svg" width="512" height="512" data-name="Layer 1" viewBox="0 0 24 24"><path d="M12 24C5.383 24 0 18.617 0 12S5.383 0 12 0c2.011 0 4.013.521 5.79 1.508l.821.456-.836.427c-2.799 1.428-5.774 5.106-5.774 9.109 0 4.142 2.734 8.054 6.648 9.512l.903.337-.795.544a11.917 11.917 0 0 1-6.756 2.106Zm0-23C5.935 1 1 5.935 1 12s4.935 11 11 11c1.896 0 3.744-.494 5.397-1.435C13.587 19.732 11 15.725 11 11.5c0-4.008 2.701-7.713 5.497-9.523A10.924 10.924 0 0 0 12 1Zm7.5 13.118-1.499-2.998-2.998-1.499 2.998-1.499L19.5 5.124l1.499 2.998 2.998 1.499-2.998 1.499-1.499 2.998Zm-2.26-4.497 1.507.754.753 1.506.753-1.506 1.507-.754-1.507-.753-.753-1.506-.753 1.506-1.507.753ZM23 17.999a1 1 0 1 0 0 2 1 1 0 0 0 0-2Zm-6-3a1 1 0 1 0 0 2 1 1 0 0 0 0-2Z"/></svg>