<svg xmlns="http://www.w3.org/2000/svg" width="512" height="512" data-name="Layer 1" viewBox="0 0 24 24"><path d="m15.16 8.162 7.096-7.124A.91.91 0 0 0 22 1.001h-5V0h5c1.087 0 1.971.897 1.971 2L24 6.997l-1 .006-.029-5c0-.081-.01-.16-.029-.236l-7.073 7.101-.709-.706Zm2.367 5.675 5.68 5.68-2.88 2.879C19.295 23.43 17.895 24 16.387 24 9.188 24 0 14.812 0 7.614c0-1.509.57-2.909 1.604-3.941L4.483.793l5.68 5.679-3.372 3.373c1.489 3.51 3.964 5.987 7.359 7.369l3.377-3.377Zm4.266 5.68-4.266-4.266-3.131 3.131-.303-.116c-3.92-1.496-6.731-4.307-8.356-8.352l-.123-.307 3.135-3.135-4.266-4.264L2.311 4.38C1.465 5.224.999 6.373.999 7.614.999 14.229 9.77 23 16.386 23c1.241 0 2.389-.466 3.233-1.312l2.173-2.172Z"/></svg>