<svg xmlns="http://www.w3.org/2000/svg" width="512" height="512" data-name="Layer 1" viewBox="0 0 24 24"><path d="M24 17V3.5C24 1.57 22.43 0 20.5 0h-17C1.57 0 0 1.57 0 3.5V17h4.559L5 20.531V24h1v-3h3v3h1v-3h4.009l.003 3h1l-.003-3H18v3h1v-3.257L19.456 17H24ZM1 16V3.5C1 2.122 2.122 1 3.5 1h17C21.878 1 23 2.122 23 3.5V16h-3.423l.487-4H3.934l.5 4H1Zm4.066-3H9v3H5.441l-.375-3ZM10 13h4.001l.003 3H10v-3Zm5.001 0h3.935l-.365 3h-3.566l-.003-3Zm-9.059 7-.375-3h3.434v3H5.942Zm4.059 0v-3h4.005l.003 3h-4.008Zm8.083 0h-3.075l-.003-3h3.443l-.365 3ZM7 10H6V5h12v5h-1V6H7v4Z"/></svg>