<svg xmlns="http://www.w3.org/2000/svg" width="512" height="512" data-name="Layer 1" viewBox="0 0 24 24"><path d="M12 0C5.383 0 0 5.383 0 12s5.383 12 12 12 12-5.383 12-12S18.617 0 12 0Zm0 23C5.935 23 1 18.065 1 12S5.935 1 12 1s11 4.935 11 11-4.935 11-11 11Z"/><path d="m8.967 5.508-.832-.555c-.911 1.365-2.137 2.383-3.544 2.945l.371.929c1.596-.637 2.981-1.785 4.005-3.319ZM6.277 11.053l4-2 .447.894-4 2zM14.5 18c-.299 0-.794-.477-1.191-.86-.582-.56-1.185-1.14-1.886-1.14-.651 0-1.117.31-1.527.584-.335.223-.624.416-.973.416-.488 0-1.754-.962-2.646-1.854l-.707.707c.358.358 2.205 2.146 3.354 2.146.651 0 1.117-.31 1.527-.584.335-.223.624-.416.973-.416.299 0 .794.477 1.191.86.582.56 1.185 1.14 1.886 1.14 1.926 0 3.664-2.917 3.856-3.25l-.866-.5c-.413.713-1.848 2.75-2.99 2.75ZM16 13.5c1.29 0 2.3-1.538 2.3-3.5S17.29 6.5 16 6.5s-2.3 1.538-2.3 3.5 1.01 3.5 2.3 3.5Zm0-6c.615 0 1.3 1.027 1.3 2.5s-.685 2.5-1.3 2.5-1.3-1.027-1.3-2.5.685-2.5 1.3-2.5Z"/></svg>