<svg xmlns="http://www.w3.org/2000/svg" width="512" height="512" data-name="Layer 1" viewBox="0 0 24 24"><path d="M15.5 6C14.122 6 13 7.122 13 8.5s1.122 2.5 2.5 2.5S18 9.878 18 8.5 16.878 6 15.5 6Zm0 4c-.827 0-1.5-.673-1.5-1.5S14.673 7 15.5 7s1.5.673 1.5 1.5-.673 1.5-1.5 1.5ZM24 2.5C24 1.122 22.878 0 21.486 0c-4.942.141-9.444 2.552-13.111 7.001A10.553 10.553 0 0 0 3.79 8.116C1.488 9.271 0 11.777 0 14.5v.5h5c1.068 0 2.073.416 2.829 1.171A3.977 3.977 0 0 1 9 19v5h.5c2.723 0 5.229-1.487 6.384-3.789.712-1.417 1.096-3 1.115-4.586C21.447 11.958 23.859 7.455 24 2.5ZM4.238 9.01a9.546 9.546 0 0 1 3.317-.961 31.77 31.77 0 0 0-.293.4C5.709 10.616 4.55 13.133 4.17 14H1.019c.166-2.15 1.393-4.074 3.219-4.99ZM14.99 19.762c-.917 1.826-2.84 3.053-4.99 3.219V19.83c.868-.38 3.384-1.539 5.552-3.092.135-.097.268-.194.4-.292a9.546 9.546 0 0 1-.961 3.317Zm-.021-3.837c-1.803 1.292-3.914 2.325-4.976 2.811a4.967 4.967 0 0 0-1.457-3.271 4.963 4.963 0 0 0-3.271-1.457c.486-1.062 1.519-3.173 2.811-4.976C10.629 5.469 15.033 1.184 21.5 1c.827 0 1.5.673 1.5 1.486-.184 6.481-4.469 10.885-8.031 13.439ZM1.732 18.732c-.85.849-1.419 3.881-1.524 4.48l-.124.703.703-.124c.599-.105 3.631-.674 4.48-1.524.472-.472.732-1.1.732-1.768s-.26-1.296-.732-1.768c-.943-.944-2.592-.944-3.535 0ZM4.56 21.56c-.386.386-1.934.831-3.227 1.106.275-1.293.72-2.841 1.106-3.227.283-.283.66-.439 1.061-.439s.777.156 1.061.439S5 20.099 5 20.5s-.156.777-.439 1.061Z"/></svg>