<svg xmlns="http://www.w3.org/2000/svg" width="512" height="512" data-name="Layer 1" viewBox="0 0 24 24"><path d="M21 16.5c0-2.48-2.02-4.5-4.5-4.5S12 14.02 12 16.5s2.02 4.5 4.5 4.5c1.06 0 2.04-.37 2.81-.99l3.79 3.79.71-.71-3.79-3.79c.62-.77.99-1.75.99-2.81ZM16.5 20c-1.93 0-3.5-1.57-3.5-3.5s1.57-3.5 3.5-3.5 3.5 1.57 3.5 3.5-1.57 3.5-3.5 3.5Zm5-14H19V0H5v6H2.5A2.5 2.5 0 0 0 0 8.5V21h5v3h11v-1H6v-8h4v-1H5v6H1V8.5C1 7.67 1.67 7 2.5 7h19c.83 0 1.5.67 1.5 1.5V15h1V8.5A2.5 2.5 0 0 0 21.5 6ZM6 1h12v5H6V1Z"/></svg>