<svg xmlns="http://www.w3.org/2000/svg" width="512" height="512" data-name="Layer 1" viewBox="0 0 24 24"><path d="M9 15a1 1 0 1 1-2 0 1 1 0 0 1 2 0Zm2 3a1 1 0 1 0 0 2 1 1 0 0 0 0-2Zm-1 4a1 1 0 1 0 0 2 1 1 0 0 0 0-2Zm-3-4a1 1 0 1 0 0 2 1 1 0 0 0 0-2Zm-1 4a1 1 0 1 0 0 2 1 1 0 0 0 0-2Zm10-8a1 1 0 1 0 0 2 1 1 0 0 0 0-2Zm-1 4a1 1 0 1 0 0 2 1 1 0 0 0 0-2Zm-3-4a1 1 0 1 0 0 2 1 1 0 0 0 0-2Zm5.002-8.977A7.727 7.727 0 0 0 9.75 0C5.477 0 2 3.477 2 7.75c0 .763.116 1.523.345 2.266A5.439 5.439 0 0 0 0 14.5c0 2.558 1.758 4.708 4.128 5.32A2.965 2.965 0 0 1 4 19c0-.092.019-.178.027-.268C2.271 18.118 1 16.463 1 14.5c0-1.583.822-3.021 2.2-3.847l.354-.212-.141-.388a6.736 6.736 0 0 1-.412-2.304 6.758 6.758 0 0 1 6.75-6.75 6.733 6.733 0 0 1 6.417 4.662l.11.338.355.007c3.512.071 6.368 2.983 6.368 6.493 0 3.091-2.248 5.836-5.012 6.378.002.041.012.08.012.122 0 .322-.064.626-.158.916 3.365-.476 6.158-3.734 6.158-7.416 0-3.933-3.108-7.216-6.998-7.477ZM14 22a1 1 0 1 0 0 2 1 1 0 0 0 0-2Z"/></svg>