<svg xmlns="http://www.w3.org/2000/svg" width="512" height="512" data-name="Layer 1" viewBox="0 0 24 24"><path d="M9 16h6v-2h2v-4c0-2.726-2.273-4.944-5-4.944S7 7.282 7 10v4h2v2Zm-1-3v-3c0-2.175 1.825-3.944 4-3.944s4 1.77 4 3.944c0 .913-.017 2.269 0 3h-2v2h-4v-2H8ZM20.5 0h-16A2.503 2.503 0 0 0 2 2.5v19C2 22.878 3.121 24 4.5 24H22V1.5c0-.827-.673-1.5-1.5-1.5Zm-16 1h16a.5.5 0 0 1 .5.5V19H4.5c-.562 0-1.082.187-1.5.501V2.5C3 1.673 3.673 1 4.5 1Zm0 22c-.827 0-1.5-.673-1.5-1.5S3.673 20 4.5 20H21v3H4.5ZM10 11a1 1 0 1 1 0-2 1 1 0 0 1 0 2Zm3-1a1 1 0 1 1 2 0 1 1 0 0 1-2 0Z"/></svg>