<svg xmlns="http://www.w3.org/2000/svg" width="512" height="512" data-name="Layer 1" viewBox="0 0 24 24"><path d="m23.388 14.701-1.443-4.042A2.505 2.505 0 0 0 19.591 9h-.92l-.216-.864A1.5 1.5 0 0 0 16.999 7h-2.998a1.5 1.5 0 0 0-1.456 1.136L12.329 9h-.92a2.506 2.506 0 0 0-2.354 1.659l-1.443 4.042A10.464 10.464 0 0 0 7 18.232V22h2v2h3v-2h7v2h3v-2h2v-3.768a10.46 10.46 0 0 0-.612-3.531Zm-9.872-6.323A.499.499 0 0 1 14.001 8h2.998c.23 0 .43.155.485.378l.155.622h-4.28l.156-.622Zm-3.519 2.617c.213-.595.78-.995 1.412-.995h8.182c.632 0 1.199.4 1.412.995L22.433 15H8.567l1.43-4.005ZM11 23h-1v-1h1v1Zm10 0h-1v-1h1v1Zm2-2H8v-2.768c0-.755.089-1.503.266-2.232H11v1.5a.5.5 0 0 0 1 0V16h7v1.5a.5.5 0 0 0 1 0V16h2.734c.177.73.266 1.477.266 2.232V21ZM3 5h7v2.23c.32-.106.657-.167 1-.198V5h8V3.811a2.478 2.478 0 0 0-1.565-2.32C15.718.811 13.122.001 10.5.001S5.282.811 3.565 1.49A2.478 2.478 0 0 0 2 3.81v4.189H0v2.5c0 1.208.86 2.218 2 2.45v6.05h2v2h1v-3H3v-5h3.096l.357-1H3V5Zm0-1.189c0-.619.367-1.165.935-1.391C5.274 1.89 7.907 1 10.5 1s5.227.89 6.565 1.42c.567.226.935.771.935 1.391V4H3v-.189Zm-1 8.103c-.582-.206-1-.762-1-1.414V9h1v2.914Z"/></svg>