<svg xmlns="http://www.w3.org/2000/svg" width="512" height="512" data-name="Layer 1" viewBox="0 0 24 24"><path d="M12 1c-.684 0-1.35.071-2 .191V.181C10.652.071 11.317 0 12 0s1.348.071 2 .181v1.01C13.35 1.071 12.684 1 12 1Zm1 4.395c0 1.176.841 2.169 2.001 2.362l2.833.473A1.39 1.39 0 0 1 19 9.605c0 .769-.626 1.395-1.395 1.395h-2.21A1.397 1.397 0 0 1 14 9.605V9h-1v.605A2.397 2.397 0 0 0 15.395 12H16v1h1v-1h.605A2.397 2.397 0 0 0 20 9.605a2.387 2.387 0 0 0-2.001-2.362l-2.833-.473a1.39 1.39 0 0 1-1.165-1.375c0-.769.625-1.395 1.395-1.395h2.21c.769 0 1.395.626 1.395 1.395V6h1v-.605A2.397 2.397 0 0 0 17.606 3h-.605V2h-1v1h-.605a2.398 2.398 0 0 0-2.395 2.395ZM6.395 12H7v1h1v-1h.605A2.397 2.397 0 0 0 11 9.605a2.387 2.387 0 0 0-2.001-2.362L6.166 6.77a1.39 1.39 0 0 1-1.165-1.375C5.001 4.626 5.626 4 6.396 4h2.21c.769 0 1.395.626 1.395 1.395V6h1v-.605A2.397 2.397 0 0 0 8.606 3h-.605V2h-1v1h-.605a2.398 2.398 0 0 0-2.395 2.395c0 1.176.841 2.169 2.001 2.362l2.833.473a1.39 1.39 0 0 1 1.166 1.375c0 .769-.626 1.395-1.395 1.395h-2.21a1.397 1.397 0 0 1-1.395-1.395V9h-1v.605A2.397 2.397 0 0 0 6.396 12ZM24 12c0-2.446-.74-4.722-2.002-6.621l.002.016v2.049c.636 1.39 1 2.93 1 4.556 0 6.065-4.935 11-11 11S1 18.065 1 12c0-1.845.462-3.583 1.268-5.111A4.386 4.386 0 0 1 2 5.395l.002-.016A11.918 11.918 0 0 0 0 12c0 6.616 5.383 11.999 12 11.999s12-5.383 12-12ZM9 16.5V16H7v-1h10v1h-2v.5c0 1.683-1.147 3.5-3 3.5s-3-1.817-3-3.5Zm5-.5h-4v.5c0 1.202.765 2.5 2 2.5s2-1.298 2-2.5V16Z"/></svg>