<svg xmlns="http://www.w3.org/2000/svg" width="512" height="512" data-name="Layer 1" viewBox="0 0 24 24"><path d="M17.518 7.02C17.664 5.052 18.721 2 22 2V1c-1.693 0-2.901.644-3.746 1.563C17.769 2.182 14.778 0 10 0 4.878 0 1.808 2.509 1.68 2.616L1.219 3l.461.384c.091.076 1.655 1.355 4.378 2.096-1.703.676-3.277 2.037-4.43 3.861-2.576 4.07-2.079 8.564 1.18 10.685a5.874 5.874 0 0 0 3.232.962c1.559 0 3.167-.598 4.597-1.758 1.077 2.899 3.428 4.77 6.362 4.77 4.056 0 7-3.575 7-8.5 0-4.712-2.695-8.189-6.482-8.48Zm-1.002-.002a6.28 6.28 0 0 0-2.894.935 5.972 5.972 0 0 0-1.909-1.979l-.093-.059c2.589-.275 4.514-1.157 5.621-1.804a8.416 8.416 0 0 0-.725 2.907ZM10 1c3.554 0 6.078 1.325 7.132 2-1.055.675-3.579 2-7.132 2S3.922 3.675 2.868 3C3.923 2.325 6.447 1 10 1ZM3.354 19.188c-2.78-1.81-3.151-5.726-.882-9.312 1.253-1.981 3.032-3.349 4.88-3.752a4.915 4.915 0 0 1 3.815.688 4.987 4.987 0 0 1 1.645 1.738C11.071 10.05 10 12.529 10 15.5c0 .953.111 1.854.318 2.69-2.211 1.983-4.855 2.371-6.964.999ZM17 23c-3.477 0-6-3.154-6-7.5S13.523 8 17 8s6 3.154 6 7.5-2.523 7.5-6 7.5Zm0-4v1c-1.767 0-3-1.645-3-4h1c0 1.767.822 3 2 3ZM5.908 12.319c-.98 1.18-1.196 2.529-.502 3.141l-.661.75c-1.127-.992-.962-2.897.394-4.529l.77.639Z"/></svg>