<svg xmlns="http://www.w3.org/2000/svg" width="512" height="512" data-name="Layer 1" viewBox="0 0 24 24"><path d="M16.5 6h-9A2.503 2.503 0 0 0 5 8.5l.007 8.506h14L19 8.499c0-1.378-1.122-2.5-2.5-2.5Zm0 1c.361 0 .693.128.952.341l-4.102 4.102c-.717.717-1.966.717-2.683 0L6.558 7.334C6.816 7.125 7.144 7 7.5 7h9ZM6.007 16.007 6 8.5c0-.097.01-.191.027-.283L9.96 12.15c.548.547 1.275.849 2.049.849s1.501-.301 2.048-.849l3.919-3.919c.016.087.025.177.025.268l.007 7.507H6.007ZM12 0C5.383 0 0 5.383 0 12s5.383 12 12 12 12-5.383 12-12S18.617 0 12 0Zm0 23C5.935 23 1 18.065 1 12S5.935 1 12 1s11 4.935 11 11-4.935 11-11 11Z"/></svg>