<svg xmlns="http://www.w3.org/2000/svg" width="512" height="512" data-name="Layer 1" viewBox="0 0 24 24"><path d="M23.7 18.73 13.87 2.08C13.48 1.41 12.78 1 12 1s-1.47.4-1.86 1.08L.3 18.73c-.4.69-.4 1.5 0 2.18a2.13 2.13 0 0 0 1.87 1.08h19.67c.78 0 1.48-.41 1.87-1.08.39-.68.39-1.5 0-2.18Zm-.86 1.69c-.21.36-.58.58-1 .58H2.16c-.42 0-.79-.22-1-.58-.21-.37-.21-.81 0-1.18L11 2.58c.42-.73 1.58-.73 2 0l9.84 16.65c.21.37.21.81 0 1.18ZM12.5 14h-1V8h1v6Zm.5 3c0 .55-.45 1-1 1s-1-.45-1-1 .45-1 1-1 1 .45 1 1Z"/></svg>