<svg xmlns="http://www.w3.org/2000/svg" width="512" height="512" data-name="Layer 1" viewBox="0 0 24 24"><path d="M12 24C5.383 24 0 18.617 0 12S5.383 0 12 0s12 5.383 12 12-5.383 12-12 12Zm0-23C5.935 1 1 5.935 1 12s4.935 11 11 11 11-4.935 11-11S18.065 1 12 1Zm8 14h-5v-2.747c-.471-.245-1.613-.753-3-.753s-2.529.504-3 .749V15H4v-2.523c0-.997.397-1.945 1.12-2.667 1.433-1.433 4.004-2.296 6.877-2.31 2.864 0 5.436.863 6.882 2.31a3.748 3.748 0 0 1 1.12 2.668V15Zm-4-1h3v-1.522c0-.73-.293-1.427-.827-1.961C16.929 9.273 14.563 8.5 12 8.5c-2.614.012-4.922.766-6.173 2.017A2.757 2.757 0 0 0 5 12.477V14h3v-2.319l.231-.147C8.297 11.492 9.878 10.5 12 10.5s3.704.998 3.77 1.041l.23.147V14Z"/></svg>