<svg xmlns="http://www.w3.org/2000/svg" width="512" height="512" data-name="Layer 1" viewBox="0 0 24 24"><path d="M17.987 2.28a9.032 9.032 0 0 0-7.05-2.218C6.943.52 3.644 3.736 3.091 7.708c-.414 2.964.593 5.827 2.764 7.854 1.363 1.273 2.146 3.029 2.146 4.816V24h8v-3.853c0-1.686.752-3.309 2.118-4.571A8.99 8.99 0 0 0 21.001 9a9.014 9.014 0 0 0-3.013-6.72ZM15 23H9v-2.622c0-.464-.052-.924-.14-1.378h6.249c-.066.378-.109.76-.109 1.147V23Zm2.439-8.158c-.987.912-1.695 1.993-2.086 3.158H8.594a7.816 7.816 0 0 0-2.058-3.169c-1.929-1.802-2.823-4.347-2.455-6.985.491-3.528 3.422-6.384 6.969-6.792 2.32-.266 4.547.434 6.272 1.972A8.016 8.016 0 0 1 20 8.999c0 2.24-.909 4.315-2.561 5.842ZM16 7.5V8h-1v-.5c0-.827-.673-1.5-1.5-1.5h-3C9.673 6 9 6.673 9 7.5c0 .876.628 1.612 1.492 1.751l3.174.51A2.762 2.762 0 0 1 16 12.5c0 1.378-1.121 2.5-2.5 2.5h-1v2h-1v-2h-1A2.503 2.503 0 0 1 8 12.5V12h1v.5c0 .827.673 1.5 1.5 1.5h3c.827 0 1.5-.673 1.5-1.5 0-.876-.628-1.612-1.492-1.751l-3.174-.51A2.762 2.762 0 0 1 8 7.5C8 6.122 9.121 5 10.5 5h1V3h1v2h1C14.879 5 16 6.122 16 7.5Z"/></svg>