<svg xmlns="http://www.w3.org/2000/svg" width="512" height="512" data-name="Layer 1" viewBox="0 0 24 24"><path d="M24 12c0 6.617-5.383 12-12 12S0 18.617 0 12c0-2.297.66-4.437 1.784-6.263.293.112.616.22.973.323a10.93 10.93 0 0 0-1.756 5.941c0 6.065 4.935 11 11 11s11-4.935 11-11c0-2.189-.65-4.225-1.756-5.941.357-.102.68-.21.973-.323A11.906 11.906 0 0 1 24.002 12ZM9 12h1c0-1.888-1.069-4-2.5-4S5 10.112 5 12h1c0-1.43.785-3 1.5-3S9 10.57 9 12Zm10 0c0-1.888-1.069-4-2.5-4S14 10.112 14 12h1c0-1.43.785-3 1.5-3s1.5 1.57 1.5 3h1Zm-1.667 3.873-.666-.746C16.646 15.146 14.53 17 12 17s-4.646-1.854-4.667-1.873l-.666.746C6.764 15.959 9.081 18 12 18s5.236-2.041 5.333-2.127ZM.962 2.5C.962.028 11.549 0 12 0s11.038.028 11.038 2.5S12.451 5 12 5 .962 4.972.962 2.5Zm.994.033C2.206 3.018 5.775 4 12 4c6.103 0 9.653-.945 10.025-1.5C21.653 1.945 18.102 1 12 1c-6.225 0-9.794.982-10.044 1.533Z"/></svg>