<svg xmlns="http://www.w3.org/2000/svg" width="512" height="512" data-name="Layer 1" viewBox="0 0 24 24"><path d="M24 20h-3V2.5C21 1.121 19.878 0 18.5 0h-16A2.503 2.503 0 0 0 0 2.5v16C0 19.879 1.122 21 2.5 21h1.536c.243 1.694 1.704 3 3.464 3s3.221-1.306 3.464-3H24v-1ZM2.5 1h16c.827 0 1.5.673 1.5 1.5V13h-3V3.5h-1V13h-3V3.5h-1V13H9V3.5H8V13H5V3.5H4V13H1V2.5C1 1.673 1.673 1 2.5 1ZM1 18.5V14h19v6h-9.036c-.243-1.694-1.704-3-3.464-3s-3.221 1.306-3.464 3H2.5c-.827 0-1.5-.673-1.5-1.5ZM7.5 23C6.122 23 5 21.879 5 20.5S6.122 18 7.5 18s2.5 1.121 2.5 2.5S8.878 23 7.5 23Z"/></svg>