<svg xmlns="http://www.w3.org/2000/svg" width="512" height="512" data-name="Layer 1" viewBox="0 0 24 24"><path d="M24 5h-3.137l1.561 2.722-.867.497-1.556-2.714-1.556 2.714-.867-.497L19.139 5h-3.137V4h3.137l-1.561-2.722.867-.497 1.556 2.714L21.557.781l.867.497L20.863 4H24v1Zm-7.793 9.5 2.227 2.227-.707.707L15.293 15H11.95a2.496 2.496 0 0 1-.753 1.334l1.735 2.861 3.343.819-.238.972-3.051-.754-.758 3.063-.972-.238.82-3.343-1.734-2.859a2.5 2.5 0 0 1-1.684 0l-1.734 2.859.82 3.343-.972.238-.723-3.054-3.086.745-.238-.972 3.343-.819 1.735-2.861A2.496 2.496 0 0 1 7.05 15H3.707l-2.434 2.434-.707-.707L2.793 14.5.566 12.273l.707-.707L3.707 14H7.05c.106-.522.376-.985.753-1.334L6.068 9.805l-3.343-.819.238-.972 3.078.766.731-3.075.972.238-.82 3.343 1.734 2.859a2.5 2.5 0 0 1 1.684 0l1.734-2.859-.82-3.343.972-.238.743 3.058 3.066-.75.238.972-3.343.819-1.735 2.861c.377.349.647.812.753 1.334h3.343l2.434-2.434.707.707-2.227 2.227ZM11 14.5c0-.827-.673-1.5-1.5-1.5S8 13.673 8 14.5 8.673 16 9.5 16s1.5-.673 1.5-1.5Z"/></svg>