<svg xmlns="http://www.w3.org/2000/svg" width="512" height="512" data-name="Layer 1" viewBox="0 0 24 24"><path d="M22.369 11.487a2.966 2.966 0 0 0-1.826-.861 2.845 2.845 0 0 0-.361-3.525l-.01-.01a2.828 2.828 0 0 0-2.485-.759 2.821 2.821 0 0 0-4.283-2.895 2.858 2.858 0 0 0-.827-1.87c-.469-.468-1.862-1.571-1.862-1.571l-.314.315c-4.57 4.57-5.976 9.431-7.107 14.425l-2.123 2.123a4.004 4.004 0 0 0 0 5.657l.313.313c.78.78 1.804 1.169 2.829 1.169s2.048-.39 2.828-1.169l2.123-2.123c5.183-1.173 9.843-2.525 14.361-7.043l.314-.314s-1.102-1.393-1.57-1.861Zm-5.461-3.668a1.825 1.825 0 0 1 2.568-.01c.338.343.523.796.523 1.278 0 .487-.17.965-.534 1.289-2.62 2.332-5.608 4.318-6.395 4.817l-1.778-1.778 5.615-5.597Zm-3.285-3.285a1.826 1.826 0 0 1 2.578 0c.71.71.711 1.864.003 2.575l-5.619 5.6-1.799-1.799c.599-.934 2.886-4.425 4.837-6.376Zm-2.83-3.195c.33.269.811.671 1.076.936.341.34.537.824.539 1.327.002.51-.186.98-.529 1.323-1.621 1.891-3.193 4.294-3.817 5.261L6.228 8.352c.991-2.406 2.387-4.753 4.565-7.013ZM6.434 22.122a3.007 3.007 0 0 1-4.243 0l-.313-.313a3.005 3.005 0 0 1 0-4.243l1.914-1.914 4.556 4.556-1.914 1.914Zm2.806-2.436L4.314 14.76c.415-1.819.873-3.619 1.519-5.39l8.807 8.808c-1.741.629-3.536 1.082-5.4 1.508Zm6.422-1.9-1.867-1.867c2.743-1.662 5.373-3.908 5.406-3.936.704-.559 1.767-.481 2.461.211.265.265.667.747.936 1.076a21.4 21.4 0 0 1-6.936 4.515Z"/></svg>