<svg xmlns="http://www.w3.org/2000/svg" width="512" height="512" data-name="Layer 1" viewBox="0 0 24 24"><path d="M12 10c-1.654 0-3-1.346-3-3s1.346-3 3-3 3 1.346 3 3-1.346 3-3 3Zm0-5c-1.103 0-2 .897-2 2s.897 2 2 2 2-.897 2-2-.897-2-2-2Zm5 9.5c0-1.379-1.121-2.5-2.5-2.5h-5A2.503 2.503 0 0 0 7 14.5V17h1v-2.5c0-.827.673-1.5 1.5-1.5h5c.827 0 1.5.673 1.5 1.5V17h1v-2.5Zm-4.996 9.163c-.356 0-.715-.126-1.001-.38L7.106 20H0V2.5C0 1.121 1.122 0 2.5 0h19C22.879 0 24 1.121 24 2.5V20h-7.032l-3.985 3.295a1.468 1.468 0 0 1-.979.368ZM1 19h6.471l4.187 3.526a.502.502 0 0 0 .675.009L16.609 19h6.392V2.5c0-.827-.673-1.5-1.5-1.5H2.5C1.673 1 1 1.673 1 2.5V19Z"/></svg>