<svg xmlns="http://www.w3.org/2000/svg" width="512" height="512" data-name="Layer 1" viewBox="0 0 24 24"><path d="M23.38 4H6.49l-.26-1.84A2.51 2.51 0 0 0 3.75 0H1.99v1h1.76c.75 0 1.38.56 1.49 1.29l2.02 14.55A2.51 2.51 0 0 0 9.74 19H21v-1H9.74c-.75 0-1.38-.56-1.49-1.29L8.01 15h13.16l2.2-11ZM7.88 14 6.63 5h15.53l-1.8 9H7.88ZM9 20c-1.1 0-2 .9-2 2s.9 2 2 2 2-.9 2-2-.9-2-2-2Zm0 3c-.55 0-1-.45-1-1s.45-1 1-1 1 .45 1 1-.45 1-1 1Zm9-3c-1.1 0-2 .9-2 2s.9 2 2 2 2-.9 2-2-.9-2-2-2Zm0 3c-.55 0-1-.45-1-1s.45-1 1-1 1 .45 1 1-.45 1-1 1ZM3.74 6H0V5h3.6l.14 1Zm.56 4H0V9h4.16l.14 1Zm.42 3 .14 1H0v-1h4.71Z"/></svg>