<svg xmlns="http://www.w3.org/2000/svg" width="512" height="512" data-name="Layer 1" viewBox="0 0 24 24"><path d="M8 18h2v1H8v-1Zm0-3h2v-1H8v1Zm-4 0h2v-1H4v1Zm0 4h2v-1H4v1ZM18.5 9h-1v2.5H15v1h2.5V15h1v-2.5H21v-1h-2.5V9ZM24 7.5V24H0V2.5C0 1.122 1.121 0 2.5 0h9C12.879 0 14 1.122 14 2.5V5h7.5C22.879 5 24 6.122 24 7.5Zm-11-5c0-.827-.673-1.5-1.5-1.5h-9C1.673 1 1 1.673 1 2.5V23h12V2.5Zm10 5c0-.827-.673-1.5-1.5-1.5H14v17h9V7.5ZM19 19h2v-1h-2v1Zm-4 0h2v-1h-2v1ZM7.5 4h-1v2.5H4v1h2.5V10h1V7.5H10v-1H7.5V4Z"/></svg>