<svg xmlns="http://www.w3.org/2000/svg" width="512" height="512" data-name="Layer 1" viewBox="0 0 24 24"><path d="M21.5 9H12V3c0-1.103-.897-2-2-2s-2 .897-2 2a2.002 2.002 0 0 0 3 1.731V9H2.5A2.503 2.503 0 0 0 0 11.5V24h24V11.5c0-1.378-1.122-2.5-2.5-2.5ZM10 4c-.551 0-1-.449-1-1s.449-1 1-1 1 .449 1 1-.449 1-1 1Zm13 7.5V16h-6v-6h4.5c.827 0 1.5.673 1.5 1.5ZM8 16v-6h8v6H8Zm-5.5-6H7v6H1v-4.5c0-.827.673-1.5 1.5-1.5ZM1 23v-6h22v6H1ZM15 4c1.103 0 2-.897 2-2s-.897-2-2-2-2 .897-2 2 .897 2 2 2Zm0-3c.551 0 1 .449 1 1s-.449 1-1 1-1-.449-1-1 .449-1 1-1ZM6.275 4.427 0 5.634V4.615l6.046-1.163c.039.339.111.667.229.975ZM24 0v1.019l-5.002.962a4.006 4.006 0 0 0-.143-.991L24 .001Z"/></svg>