<svg xmlns="http://www.w3.org/2000/svg" width="512" height="512" data-name="Layer 1" viewBox="0 0 24 24"><path d="m22.592 8.54-2.144-5.895A2.507 2.507 0 0 0 18.099.999H5.901a2.506 2.506 0 0 0-2.349 1.646L1.408 8.54A23.298 23.298 0 0 0 0 16.532V19h2v4h5v-4h10v4h5v-4h2v-2.468c0-2.734-.474-5.422-1.408-7.992ZM6 22H3v-3h3v3Zm15 0h-3v-3h3v3Zm2-4H1v-1.468c0-1.53.156-3.045.463-4.532H4v3h1v-3h2v-1H1.694c.182-.714.4-1.421.654-2.118l2.143-5.895A1.504 1.504 0 0 1 5.901 2h12.198c.628 0 1.195.396 1.41.987l2.144 5.895c.254.697.472 1.404.654 2.118h-5.306v1h2v3h1v-3h2.537a22.31 22.31 0 0 1 .463 4.532V18Zm-8.156-7.333c.225.419.204.923-.055 1.313l-1.901 4.053-.905-.426 1.937-4.117c.119-.188.062-.315.042-.351-.022-.042-.089-.14-.218-.14h-3.475c-.414 0-.788-.186-1.028-.509a1.226 1.226 0 0 1-.186-1.096l2.097-4.369.901.434-2.069 4.297a.315.315 0 0 0 .06.138.272.272 0 0 0 .225.105h3.475c.458 0 .879.255 1.1.667Z"/></svg>