<svg xmlns="http://www.w3.org/2000/svg" width="512" height="512" data-name="Layer 1" viewBox="0 0 24 24"><path d="M10.5 3C4.71 3 0 7.71 0 13.5S4.71 24 10.5 24 21 19.29 21 13.5 16.29 3 10.5 3Zm-.413 1.01L8.791 5.429l1.37 2.284-1.858-.929-2.717 2.717.5.5h-1.66L2.642 8.168a9.5 9.5 0 0 1 7.445-4.158ZM10.5 23C5.262 23 1 18.738 1 13.5c0-1.606.401-3.12 1.108-4.448L4.004 11H7l1 1v2l2 2v3h2l3-5.5-4-2.5H8.5L7 9.5 8.5 8l2 1 1-1-1.469-2.447 1.379-1.509C16.223 4.504 20 8.569 20 13.5c0 5.238-4.262 9.5-9.5 9.5ZM9 13.586V12h1.713l2.957 1.849L11.406 18H11v-2.414l-2-2ZM21.5 0C20.121 0 19 1.122 19 2.5S20.121 5 21.5 5 24 3.878 24 2.5 22.879 0 21.5 0Zm0 4c-.827 0-1.5-.673-1.5-1.5S20.673 1 21.5 1s1.5.673 1.5 1.5S22.327 4 21.5 4Z"/></svg>