<svg xmlns="http://www.w3.org/2000/svg" data-name="Layer 1" viewBox="0 0 24 24"><path d="m4.975 22.268-3.243-3.243 6.935-6.935-.707-.707L0 19.343V24h4.658l7.959-7.96-.707-.707-6.935 6.935ZM1 23v-3.243l.025-.025 3.243 3.243-.025.025H1ZM23.035 5.622a3.297 3.297 0 0 0 0-4.657 3.3 3.3 0 0 0-4.658 0l-8.353 8.353L.753.047.046.754l23.2 23.199.707-.707-9.271-9.271 8.353-8.353Zm-3.951-3.95a2.295 2.295 0 0 1 3.244 0 2.296 2.296 0 0 1 0 3.243l-2.864 2.864-3.243-3.243 2.864-2.864Zm-3.571 3.571 3.243 3.243-4.782 4.782-3.243-3.243 4.782-4.782Z"/></svg>