<svg xmlns="http://www.w3.org/2000/svg" width="512" height="512" data-name="Layer 1" viewBox="0 0 24 24"><path d="M11.276 23c.126.353.28.693.485 1H3.5A2.502 2.502 0 0 1 1 21.5V10.947A3.49 3.49 0 0 1 0 8.5L2.633 0h18.734L24 8.5c0 .829-.302 1.582-.786 2.182a5.519 5.519 0 0 0-.616-.837c.238-.37.388-.803.401-1.271l-2.366-7.573H17V5h-1V1H8v4H7V1H3.367L1.001 8.573A2.503 2.503 0 0 0 3.5 11h1C5.879 11 7 9.879 7 8.5V8h1v.5C8 9.879 9.121 11 10.5 11l3.113-.011c-.165.32-.299.659-.4 1.011H10.5a3.501 3.501 0 0 1-3-1.699A3.501 3.501 0 0 1 4.5 12h-1a3.49 3.49 0 0 1-1.5-.338V21.5c0 .827.673 1.5 1.5 1.5h7.776ZM19 18.5h-1v2h1v-2Zm3-3.5h2v6.5c0 1.379-1.121 2.5-2.5 2.5h-6a2.502 2.502 0 0 1-2.5-2.5V15h2v-1.5c0-1.93 1.57-3.5 3.5-3.5s3.5 1.57 3.5 3.5V15Zm-6 0h5v-1.5c0-1.379-1.121-2.5-2.5-2.5S16 12.121 16 13.5V15Zm7 1h-9v5.5c0 .827.673 1.5 1.5 1.5h6c.827 0 1.5-.673 1.5-1.5V16Z"/></svg>