<svg xmlns="http://www.w3.org/2000/svg" width="512" height="512" data-name="Layer 1" viewBox="0 0 24 24"><path d="M21.5 2H6.949A2.503 2.503 0 0 0 4.5 0h-2A2.502 2.502 0 0 0 0 2.5V24h24V4.5C24 3.121 22.879 2 21.5 2ZM23 4.5V6h-8V3h6.5c.827 0 1.5.673 1.5 1.5Zm-22-2C1 1.673 1.673 1 2.5 1h2C5.327 1 6 1.673 6 2.5V19H1V2.5ZM1 23v-3h6V3h7v4h9v16H1Zm15-12a1 1 0 1 1-2 0 1 1 0 0 1 2 0Zm-4 0a1 1 0 1 1-2 0 1 1 0 0 1 2 0Zm8 0a1 1 0 1 1-2 0 1 1 0 0 1 2 0Zm-4 4a1 1 0 1 1-2 0 1 1 0 0 1 2 0Zm-4 0a1 1 0 1 1-2 0 1 1 0 0 1 2 0Zm8 0a1 1 0 1 1-2 0 1 1 0 0 1 2 0Zm-4 4a1 1 0 1 1-2 0 1 1 0 0 1 2 0Zm-4 0a1 1 0 1 1-2 0 1 1 0 0 1 2 0Zm8 0a1 1 0 1 1-2 0 1 1 0 0 1 2 0Z"/></svg>