<svg xmlns="http://www.w3.org/2000/svg" width="512" height="512" data-name="Layer 1" viewBox="0 0 24 24"><path d="M24 5v1H12.008c0 .781-.252 1.521-.729 2.139a1.445 1.445 0 0 0 0 1.723c.477.617.729 1.357.729 2.139s-.252 1.521-.729 2.139a1.445 1.445 0 0 0 0 1.723c.477.617.729 1.357.729 2.139s-.252 1.521-.729 2.139a1.445 1.445 0 0 0 0 1.723c.477.617.729 1.357.729 2.139h-1a2.47 2.47 0 0 0-.521-1.527 2.438 2.438 0 0 1 0-2.945c.34-.44.521-.969.521-1.527s-.18-1.087-.521-1.527a2.438 2.438 0 0 1 0-2.945c.34-.44.521-.969.521-1.527s-.18-1.087-.521-1.527a2.438 2.438 0 0 1 0-2.945c.34-.44.521-.969.521-1.527H8.023c0 .782-.252 1.522-.729 2.139a1.445 1.445 0 0 0 0 1.723c.477.616.729 1.356.729 2.139s-.252 1.522-.729 2.139a1.445 1.445 0 0 0 0 1.723c.477.616.729 1.356.729 2.139s-.252 1.522-.729 2.139a1.445 1.445 0 0 0 0 1.723c.477.616.729 1.356.729 2.139h-1a2.47 2.47 0 0 0-.521-1.527 2.438 2.438 0 0 1 0-2.945c.34-.44.521-.969.521-1.527s-.18-1.087-.521-1.527a2.438 2.438 0 0 1 0-2.945c.34-.44.521-.969.521-1.527s-.18-1.087-.521-1.527a2.438 2.438 0 0 1 0-2.945c.34-.44.521-.969.521-1.527H4.008c0 .781-.252 1.521-.729 2.139a1.445 1.445 0 0 0 0 1.723c.477.617.729 1.357.729 2.139s-.252 1.521-.729 2.139a1.445 1.445 0 0 0 0 1.723c.477.617.729 1.357.729 2.139s-.252 1.521-.729 2.139a1.445 1.445 0 0 0 0 1.723c.477.617.729 1.357.729 2.139h-1a2.47 2.47 0 0 0-.521-1.527 2.438 2.438 0 0 1 0-2.945c.34-.44.521-.969.521-1.527s-.18-1.087-.521-1.527a2.438 2.438 0 0 1 0-2.945c.34-.44.521-.969.521-1.527s-.18-1.087-.521-1.527a2.438 2.438 0 0 1 0-2.945c.34-.44.521-.969.521-1.527H0v-1h24ZM23.98.998l-.084-.996-23.894 2 .083.996 23.895-2Z"/></svg>