<svg xmlns="http://www.w3.org/2000/svg" width="512" height="512" data-name="Layer 1" viewBox="0 0 24 24"><path d="M12 15c3.309 0 6-2.691 6-6V0H6v9c0 3.309 2.691 6 6 6Zm5-6c0 2.757-2.243 5-5 5a5.006 5.006 0 0 1-4.899-6H16.9c.066.328.101.662.101 1ZM7 1h10v6H7V1Zm13.989 19.756V24h-1v-3.244a3.76 3.76 0 0 0-3.535-3.749l-4.452 5.078-4.477-5.078a3.76 3.76 0 0 0-3.536 3.749V24h-1v-3.244A4.762 4.762 0 0 1 7.745 16h.226L12 20.571 16.007 16h.227a4.762 4.762 0 0 1 4.756 4.756ZM12.5 3.5H14v1h-1.5V6h-1V4.5H10v-1h1.5V2h1v1.5Z"/></svg>