<svg xmlns="http://www.w3.org/2000/svg" width="512" height="512" data-name="Layer 1" viewBox="0 0 24 24"><path d="M12 19a1 1 0 1 1-2 0 1 1 0 0 1 2 0Zm1-5a1 1 0 1 0 0 2 1 1 0 0 0 0-2Zm5 0a1 1 0 1 0 0 2 1 1 0 0 0 0-2Zm-2 4a1 1 0 1 0 0 2 1 1 0 0 0 0-2Zm7-12.5V24H7.712L.786 17.322a2.505 2.505 0 0 1-.111-3.53 2.499 2.499 0 0 1 3.529-.119L6 15.101V4.5c0-.734.321-1.429.881-1.905s1.305-.677 2.035-.562c.403.066.772.236 1.084.483V2.5C10 1.122 11.121 0 12.5 0c1.073 0 1.989.679 2.344 1.63A2.49 2.49 0 0 1 16.5 1C17.879 1 19 2.122 19 3.5v.016a2.356 2.356 0 0 1 1.084-.482A2.5 2.5 0 0 1 23 5.501Zm-1 0a1.499 1.499 0 0 0-1.756-1.479C19.535 4.136 19 4.818 19 5.607V11h-1V3.5c0-.827-.673-1.5-1.5-1.5S15 2.673 15 3.5V11h-1V2.5c0-.827-.673-1.5-1.5-1.5S11 1.673 11 2.5V11h-1V4.607c0-.789-.535-1.471-1.244-1.586A1.499 1.499 0 0 0 7 4.5v12.675l-3.449-2.746c-.631-.589-1.582-.558-2.146.045a1.506 1.506 0 0 0 .069 2.123l6.642 6.402H22V5.5Z"/></svg>