<svg xmlns="http://www.w3.org/2000/svg" width="512" height="512" data-name="Layer 1" viewBox="0 0 24 24"><path d="M12 2C5.383 2 0 7.383 0 14v8h24v-8c0-6.617-5.383-12-12-12Zm0 1a10.98 10.98 0 0 1 8.479 4H3.521C5.54 4.558 8.592 3 12 3Zm6 18h-3v-5c0-1.654-1.346-3-3-3s-3 1.346-3 3v5H6v-6.478c0-2.728.541-5.103 1.484-6.518l-.007-.005h9.046l-.007.005C17.459 9.419 18 11.794 18 14.522V21Zm-4 0h-4v-5c0-1.103.897-2 2-2s2 .897 2 2v5ZM1 14c0-2.212.657-4.273 1.785-6h3.541C5.479 9.591 5 11.92 5 14.522V21H1v-7Zm22 7h-4v-6.478C19 11.92 18.521 9.59 17.674 8h3.541A10.937 10.937 0 0 1 23 14v7Z"/></svg>