<svg xmlns="http://www.w3.org/2000/svg" width="512" height="512" data-name="Layer 1" viewBox="0 0 24 24"><path d="M17 6.579V1h2V0H5v1h2v5.537c-4.264 1.867-7 5.911-7 10.392 0 2.495.838 4.875 2.423 6.881l.15.19h18.854l.15-.19C23.162 21.803 24 19.424 24 16.929c0-4.417-2.736-8.445-7-10.35ZM20.939 23H3.061C1.712 21.212 1 19.119 1 16.929c0-4.181 2.625-7.948 6.688-9.597L8 7.205V1h8v6.241l.308.128C20.373 9.059 23 12.811 23 16.929c0 2.19-.712 4.284-2.061 6.071ZM15 14a1 1 0 1 1-2 0 1 1 0 0 1 2 0Zm-4 0a1 1 0 1 1-2 0 1 1 0 0 1 2 0Zm1-5c-2.757 0-5 2.243-5 5v4h2v2h6v-2h2v-4c0-2.757-2.243-5-5-5Zm4 8h-2v2h-4v-2H8v-3c0-2.206 1.794-4 4-4s4 1.794 4 4v3Z"/></svg>