<svg xmlns="http://www.w3.org/2000/svg" width="512" height="512" data-name="Layer 1" viewBox="0 0 24 24"><path d="M7 11a1 1 0 1 1 2 0 1 1 0 0 1-2 0Zm9-1a1 1 0 1 0 0 2 1 1 0 0 0 0-2Zm.262 3.916c-.045.045-.968.98-1.206 2.084H8.945c-.238-1.104-1.161-2.039-1.206-2.084l-.708.706c.27.271.969 1.139.969 1.878s-.7 1.606-.969 1.878l.708.706c.045-.045.968-.98 1.206-2.084h6.111c.238 1.104 1.161 2.039 1.206 2.084l.708-.706c-.27-.271-.969-1.139-.969-1.878s.7-1.606.969-1.878l-.708-.706ZM24 12c0 6.617-5.383 12-12 12S0 18.617 0 12 5.383 0 12 0s12 5.383 12 12Zm-1 0c0-6.065-4.935-11-11-11S1 5.935 1 12s4.935 11 11 11 11-4.935 11-11ZM9.168 6.768l-.845-.535c-.83 1.309-2.137 2.393-3.68 3.05l.393.92c1.751-.747 3.181-1.935 4.132-3.435Zm6.499-.543-.834.551c.985 1.49 2.437 2.675 4.197 3.427l.393-.92c-1.58-.674-2.879-1.731-3.756-3.058Z"/></svg>