<svg xmlns="http://www.w3.org/2000/svg" width="512" height="512" data-name="Layer 1" viewBox="0 0 24 24"><path d="M12 17c1.965 0 3.533 1.149 3.598 1.198l-.596.803C14.989 18.991 13.627 18 12 18s-2.989.991-3.002 1.001l-.596-.803C8.467 18.149 10.035 17 12 17Zm0-17C6.187 0 1.329 4.156.234 9.653c.203-.229.387-.425.509-.545l.962-.948C3.268 3.985 7.287 1 12 1c6.065 0 11 4.935 11 11s-4.935 11-11 11c-3.46 0-6.548-1.609-8.566-4.115-.302.064-.614.1-.934.1-.088 0-.17-.021-.257-.026C4.422 22.004 7.979 24 12 24c6.617 0 12-5.383 12-12S18.617 0 12 0ZM4.644 9.282l.393.92c1.751-.747 3.181-1.935 4.132-3.435l-.845-.535c-.83 1.309-2.137 2.393-3.68 3.05Zm14.779 0c-1.58-.674-2.879-1.731-3.756-3.058l-.834.551c.985 1.49 2.437 2.675 4.197 3.427l.393-.92ZM8 11a1 1 0 1 0 0 2 1 1 0 0 0 0-2Zm7 1a1 1 0 1 0 2 0 1 1 0 0 0-2 0ZM2.5 16.985a2.503 2.503 0 0 1-2.5-2.5c0-1.819 2.062-3.869 2.149-3.956l.354-.349.351.353C3.074 10.754 5 12.739 5 14.485c0 1.379-1.122 2.5-2.5 2.5Zm0-1c.827 0 1.5-.673 1.5-1.5 0-.925-.895-2.16-1.503-2.864C1.89 12.314 1 13.537 1 14.485c0 .827.673 1.5 1.5 1.5Z"/></svg>