<svg xmlns="http://www.w3.org/2000/svg" width="512" height="512" data-name="Layer 1" viewBox="0 0 24 24"><path d="M24 2.5v13.022a5.997 5.997 0 0 0-1-.705V2.5c0-.827-.673-1.5-1.5-1.5h-19C1.673 1 1 1.673 1 2.5V23h6.43c.161.356.361.691.595 1H0V2.5C0 1.122 1.122 0 2.5 0h19C22.878 0 24 1.122 24 2.5ZM3 4a1 1 0 1 0 2 0 1 1 0 0 0-2 0Zm5-1a1 1 0 1 0 0 2 1 1 0 0 0 0-2Zm16 17c0 2.206-1.794 4-4 4h-8c-1.654 0-3-1.346-3-3 0-1.353.881-2.499 2.128-2.872A5.003 5.003 0 0 1 16 12a4.985 4.985 0 0 1 4.921 4.106A4.016 4.016 0 0 1 24 20Zm-1 0a3.01 3.01 0 0 0-2.591-2.973l-.39-.053-.041-.391a3.987 3.987 0 0 0-3.979-3.584 4.004 4.004 0 0 0-3.769 5.344l.216.605-.64.061a1.99 1.99 0 0 0-1.808 1.99c0 1.103.897 2 2 2h8c1.654 0 3-1.346 3-3Z"/></svg>