<svg xmlns="http://www.w3.org/2000/svg" width="512" height="512" data-name="Layer 1" viewBox="0 0 24 24"><path d="m.057.763 23.18 23.181.707-.707-6.963-6.963 5.102-5.109a6.5 6.5 0 0 0 1.916-4.625c0-1.747-.681-3.39-1.916-4.625S19.207 0 17.46 0s-3.39.68-4.625 1.916L7.726 7.018.764.056.057.763Zm8.376 6.963 5.109-5.103C14.589 1.576 15.98 1 17.46 1s2.871.576 3.917 1.623A5.502 5.502 0 0 1 23 6.541a5.501 5.501 0 0 1-1.623 3.917l-5.102 5.109-3.568-3.568 3.713-3.712-.707-.707L12 11.292 8.434 7.726Zm-6.517 5.091L5.62 9.12l.707.708-3.704 3.697A5.502 5.502 0 0 0 1 17.443c0 1.479.576 2.871 1.623 3.917A5.56 5.56 0 0 0 6.543 23a5.432 5.432 0 0 0 3.915-1.605l3.715-3.722.707.706-3.715 3.722A6.531 6.531 0 0 1 6.537 24a6.549 6.549 0 0 1-4.621-1.933C.681 20.832 0 19.189 0 17.443s.681-3.39 1.916-4.625Zm6.372 3.6-.707-.707 2.308-2.307.707.707-2.308 2.307Z"/></svg>