<svg xmlns="http://www.w3.org/2000/svg" width="512" height="512" data-name="Layer 1" viewBox="0 0 24 24"><path d="M8 3a1 1 0 1 1-2 0 1 1 0 0 1 2 0Zm10 0a1 1 0 1 0-2 0 1 1 0 0 0 2 0Zm1.525 9.25c.529.512.833.896.871.946l.234.305-.234.305c-.05.065-.536.684-1.396 1.427v2.768c0 1.103.897 2 2 2s2-.897 2-2v-.5h1v.5c0 1.654-1.346 3-3 3s-3-1.346-3-3v-1.99a11.277 11.277 0 0 1-3 1.506v1.984c0 1.93 1.57 3.5 3.5 3.5h.5v1h-.5a4.505 4.505 0 0 1-4.5-4.5v-1.715c-.629.133-1.294.215-2 .215s-1.371-.082-2-.215v1.715c0 2.481-2.019 4.5-4.5 4.5H5v-1h.5c1.93 0 3.5-1.57 3.5-3.5v-1.984a11.277 11.277 0 0 1-3-1.506v1.99c0 1.654-1.346 3-3 3s-3-1.346-3-3v-1h1v1c0 1.103.897 2 2 2s2-.897 2-2v-2.768c-.86-.743-1.346-1.362-1.396-1.427l-.234-.305.234-.305c.039-.05.342-.434.871-.946C4.344 10.439 2.844 9 1 9H0V8h1c2.123 0 3.897 1.482 4.368 3.463.89-.712 2.099-1.475 3.576-1.961l-1.74-3.523C7.135 5.984 7.07 6 7 6 5.346 6 4 4.654 4 3s1.346-3 3-3 3 1.346 3 3a3 3 0 0 1-1.797 2.744l1.723 3.489C10.577 9.09 11.266 9 12 9s1.424.09 2.074.233l1.74-3.48A3.002 3.002 0 0 1 14 3c0-1.654 1.346-3 3-3s3 1.346 3 3-1.346 3-3 3c-.062 0-.12-.015-.182-.018l-1.76 3.521a11.553 11.553 0 0 1 3.575 1.961c.471-1.981 2.245-3.463 4.368-3.463h1v1h-1c-1.844 0-3.344 1.439-3.475 3.25ZM17 5c1.103 0 2-.897 2-2s-.897-2-2-2-2 .897-2 2 .897 2 2 2ZM7 5c1.103 0 2-.897 2-2s-.897-2-2-2-2 .897-2 2 .897 2 2 2Zm12.341 8.5C18.52 12.596 15.825 10 12 10s-6.52 2.596-7.341 3.5C5.48 14.404 8.175 17 12 17s6.52-2.596 7.341-3.5Z"/></svg>