<svg xmlns="http://www.w3.org/2000/svg" width="512" height="512" data-name="Layer 1" viewBox="0 0 24 24"><path d="M7 15v-1c1.138 0 4.601 0 6.916 3.473l-.832.555C11.066 15.001 8.006 15.001 7 15.001Zm9-6a1 1 0 1 0 0 2 1 1 0 0 0 0-2ZM8 8a1 1 0 1 0-2 0 1 1 0 0 0 2 0Zm12 2v14h-1V12.643A3.99 3.99 0 0 1 16 14c-2.206 0-4-1.794-4-4s1.794-4 4-4 4 1.794 4 4Zm-1 0c0-1.654-1.346-3-3-3s-3 1.346-3 3 1.346 3 3 3 3-1.346 3-3Zm3 8.619c1.261-1.899 2-4.173 2-6.619 0-6.617-5.383-12-12-12S0 5.383 0 12s5.383 12 12 12c1.786 0 3.476-.403 5-1.105v-1.109A10.916 10.916 0 0 1 12 23C5.935 23 1 18.065 1 12S5.935 1 12 1s11 4.935 11 11c0 1.626-.364 3.166-1 4.556v2.063Z"/></svg>