<svg xmlns="http://www.w3.org/2000/svg" width="512" height="512" data-name="Layer 1" viewBox="0 0 24 24"><path d="M20.238 4.5 24 8.262l-.707.707-3.762-3.762-3.762 3.762-.707-.707L18.824 4.5 15.062.738l.707-.707 3.762 3.762L23.293.031 24 .738 20.238 4.5Zm-2.68 9.337 5.679 5.679-2.879 2.879C19.325 23.43 17.926 24 16.417 24 9.22 24 .031 14.812.031 7.613c0-1.508.57-2.908 1.605-3.941L4.515.793l5.679 5.679-3.373 3.373c1.506 3.559 3.919 5.974 7.36 7.369l3.377-3.377Zm4.265 5.679-4.265-4.265-3.13 3.131-.303-.116c-3.92-1.496-6.732-4.307-8.357-8.353l-.123-.307L8.78 6.471 4.515 2.207 2.343 4.379c-.846.845-1.312 1.993-1.312 3.234C1.031 14.228 9.803 23 16.418 23c1.241 0 2.389-.466 3.233-1.312l2.172-2.172Z"/></svg>