<svg xmlns="http://www.w3.org/2000/svg" width="512" height="512" data-name="Layer 1" viewBox="0 0 24 24"><path d="M19.865 4.078 12.5 2.171V0h-1v1.912L4.209.023.04 9.804.029 10H0v.5C0 12.981 2.019 15 4.5 15S9 12.981 9 10.5V10L5.407 1.367 11.5 2.945V23H4v1h16v-1h-7.5V3.203l6.315 1.635-3.776 8.967-.011.194H15v.5c0 2.481 2.019 4.5 4.5 4.5s4.5-2.019 4.5-4.5v-.5l-4.135-9.922ZM4.5 14a3.505 3.505 0 0 1-3.464-3h6.928A3.505 3.505 0 0 1 4.5 14Zm-3.456-4 3.479-8.164L7.958 10H1.044ZM19.5 5.788 22.957 14h-6.915L19.5 5.788ZM19.5 18a3.505 3.505 0 0 1-3.464-3h6.929a3.505 3.505 0 0 1-3.464 3Z"/></svg>