<svg xmlns="http://www.w3.org/2000/svg" width="512" height="512" data-name="Layer 1" viewBox="0 0 24 24"><path d="M24 1V0H0v1h2v22H0v1h24v-1h-2V1h2Zm-3 22H3V1h18v22ZM6 7h5.5v2H7v1h4.5v2H8v1h3.5v2H8.56c-.843.014-1.567.52-1.892 1.32a2.245 2.245 0 0 0 .48 2.435L8.393 20h7.213l1.245-1.245a2.243 2.243 0 0 0 .48-2.435A2.07 2.07 0 0 0 15.398 15h-2.899v-2h3.5v-1h-3.5v-2h4.5V9h-4.5V7h5.5V6h-5.5V4h-1v2h-5.5v1Zm9.425 9c.44.007.807.268.979.695.146.359.164.928-.26 1.353l-.952.952H8.807l-.952-.952c-.424-.425-.405-.993-.26-1.353A1.066 1.066 0 0 1 8.6 16h6.824Z"/></svg>