<svg xmlns="http://www.w3.org/2000/svg" width="512" height="512" data-name="Layer 1" viewBox="0 0 24 24"><path d="m9.17 13.83-2.734-2.734C6.155 10.815 6 10.441 6 10.044s.155-.771.436-1.053l2.778-2.777.707.707-2.778 2.777a.486.486 0 0 0 0 .691l2.734 2.734-.707.707Zm7.734-3.441-2.757 2.757.707.707 2.757-2.757a1.49 1.49 0 0 0 0-2.105L14.81 6.19l-.707.707 2.801 2.801c.191.19.191.5 0 .691ZM24 16v2.5c0 1.378-1.122 2.5-2.5 2.5h-19A2.503 2.503 0 0 1 0 18.5V16h2V3h20v13h2ZM3 16h5.707l1 1h4.586l1-1H21V4H3v12Zm20 1h-7.293l-1 1H9.293l-1-1H1v1.5c0 .827.673 1.5 1.5 1.5h19c.827 0 1.5-.673 1.5-1.5V17Z"/></svg>