<svg xmlns="http://www.w3.org/2000/svg" width="512" height="512" data-name="Layer 1" viewBox="0 0 24 24"><path d="M9.5 12h-1v-.619c0-1.005.657-2.184 1.464-2.628a2.003 2.003 0 0 0-.598-3.721 1.997 1.997 0 0 0-1.652.436A1.994 1.994 0 0 0 7 7H6c0-.889.391-1.727 1.071-2.298s1.58-.812 2.468-.654a3.017 3.017 0 0 1 2.413 2.413 3.018 3.018 0 0 1-1.506 3.168c-.496.273-.947 1.107-.947 1.752V12Zm.5 2a1 1 0 0 0-2 0 1 1 0 0 0 2 0Zm9.996-4.92c-.003.382-.025.759-.066 1.131A6.996 6.996 0 0 1 23 16v7h-7a6.999 6.999 0 0 1-5.789-3.07c-.372.041-.749.064-1.131.066C10.465 22.385 13.045 24 16 24h8v-8c0-2.955-1.615-5.535-4.004-6.92ZM18 9c0-4.963-4.037-9-9-9S0 4.037 0 9v9h9c4.963 0 9-4.037 9-9ZM1 9c0-4.411 3.589-8 8-8s8 3.589 8 8-3.589 8-8 8H1V9Z"/></svg>