<svg xmlns="http://www.w3.org/2000/svg" width="512" height="512" data-name="Layer 1" viewBox="0 0 24 24"><path d="M11.5 6A2.5 2.5 0 0 0 9 8.5c0 1.26.79 2.87 1.97 4.07C10.09 13.4 8.93 14 7.5 14c-.98 0-1.92-.5-2.77-1.29C6.82 10.43 8 6.86 8 4c0-2.21-1.79-4-4-4S0 1.79 0 4c0 2.72 1.32 6.35 3.32 8.68C2.37 13.5 1.25 14 0 14v1c1.53 0 2.88-.61 4.01-1.59C5.05 14.39 6.24 15 7.5 15c4.21 0 6.5-4.29 6.5-6.5A2.5 2.5 0 0 0 11.5 6ZM1 4c0-1.65 1.35-3 3-3s3 1.35 3 3c0 2.57-1.09 5.88-2.96 7.97C2.24 9.82 1 6.41 1 4Zm10.64 7.83C10.56 10.72 10 9.36 10 8.5S10.67 7 11.5 7s1.5.67 1.5 1.5-.46 2.17-1.36 3.33ZM0 17h11v1H0v-1Zm22-2v-1.5c0-1.93-1.57-3.5-3.5-3.5S15 11.57 15 13.5V15h-2v6.5a2.5 2.5 0 0 0 2.5 2.5h6a2.5 2.5 0 0 0 2.5-2.5V15h-2Zm-6-1.5a2.5 2.5 0 0 1 5 0V15h-5v-1.5Zm7 8c0 .83-.67 1.5-1.5 1.5h-6c-.83 0-1.5-.67-1.5-1.5V16h9v5.5Zm-4-1h-1v-2h1v2ZM16.5 8.38c-.03-1.12-.43-2.2-1.14-3.06l.77-.64c.8.97 1.27 2.17 1.36 3.41-.34.06-.67.16-.99.28Z"/></svg>