<svg xmlns="http://www.w3.org/2000/svg" width="512" height="512" data-name="Layer 1" viewBox="0 0 24 24"><path d="M3 12c0 .462.078.913.231 1.344l.217.605-.641.061A1.99 1.99 0 0 0 .999 16c0 1.103.897 2 2 2h.997a4.925 4.925 0 0 0-.579 1h-.419c-1.654 0-3-1.346-3-3 0-1.353.882-2.499 2.128-2.872a5.003 5.003 0 0 1 8.203-4.856l.002.002a4.98 4.98 0 0 1 1.242 1.748c-.35.021-.694.062-1.029.132a3.987 3.987 0 0 0-.88-1.134h-.001A3.992 3.992 0 0 0 6.997 8c-2.206 0-4 1.794-4 4Zm17 8c0 2.206-1.794 4-4 4H8c-1.654 0-3-1.346-3-3 0-1.353.882-2.499 2.128-2.872A5.003 5.003 0 0 1 12 12a4.983 4.983 0 0 1 4.92 4.106A4.016 4.016 0 0 1 20 20Zm-1 0a3.01 3.01 0 0 0-2.592-2.973l-.39-.053-.04-.392a3.987 3.987 0 0 0-3.979-3.583 4.004 4.004 0 0 0-3.769 5.344l.217.605-.641.061a1.99 1.99 0 0 0-1.808 1.99c0 1.103.897 2 2 2h8c1.654 0 3-1.346 3-3Zm3.806-10.342A4.973 4.973 0 0 1 21 10c-2.757 0-5-2.243-5-5 0-1.579.729-3.034 1.998-3.991l.923-.695-1.139-.197A7.509 7.509 0 0 0 16.5.001a7.54 7.54 0 0 0-6.778 4.285 7.53 7.53 0 0 0-.414 1.119c.317.111.627.242.926.398.1-.371.225-.735.392-1.087A6.532 6.532 0 0 1 16.5 1.001h.032a5.937 5.937 0 0 0-1.532 4c0 3.309 2.691 6 6 6 .347 0 .691-.03 1.031-.091a6.495 6.495 0 0 1-2.746 2.465 6.476 6.476 0 0 1-1.084.392c.136.262.266.528.37.809.051.024.096.057.146.082.339-.105.674-.226.998-.381a7.5 7.5 0 0 0 3.735-3.965l.434-1.072-1.078.419Z"/></svg>