<svg xmlns="http://www.w3.org/2000/svg" width="512" height="512" data-name="Layer 1" viewBox="0 0 24 24"><path d="M2 15a1 1 0 1 1-2 0 1 1 0 0 1 2 0Zm-1 3a1 1 0 1 0 0 2 1 1 0 0 0 0-2Zm0 4a1 1 0 1 0 0 2 1 1 0 0 0 0-2Zm4-6a1 1 0 1 0 0 2 1 1 0 0 0 0-2Zm0 4a1 1 0 1 0 0 2 1 1 0 0 0 0-2ZM23.983 2.357l-3.369 18.589A2.499 2.499 0 0 1 18.154 23H9v-8h4.687l2.377-12.951A2.5 2.5 0 0 1 18.522 0h3.493a1.998 1.998 0 0 1 1.969 2.357ZM21.762 9h-5.958l-1.285 7h-4.52v6h8.154a1.5 1.5 0 0 0 1.476-1.232L21.761 9Zm1.02-7.641A.994.994 0 0 0 22.014 1h-3.493a1.5 1.5 0 0 0-1.475 1.229L15.987 8h5.956l1.055-5.822a.995.995 0 0 0-.216-.819Z"/></svg>