<svg xmlns="http://www.w3.org/2000/svg" data-name="Layer 1" viewBox="0 0 24 24"><path d="M11 2a1 1 0 1 1 2 0 1 1 0 0 1-2 0Zm8 11c0 3.86-3.14 7-7 7s-7-3.14-7-7 3.14-7 7-7 7 3.14 7 7Zm-1 0c0-3.309-2.691-6-6-6a6.008 6.008 0 0 0-5.979 5.5H12v1H6.021A6.008 6.008 0 0 0 12 19c3.309 0 6-2.691 6-6ZM1 12a1 1 0 1 0 0 2 1 1 0 0 0 0-2Zm22 0a1 1 0 1 0 0 2 1 1 0 0 0 0-2ZM4 6a1 1 0 1 0 0-2 1 1 0 0 0 0 2Zm16 14a1 1 0 1 0 0 2 1 1 0 0 0 0-2ZM4 20a1 1 0 1 0 0 2 1 1 0 0 0 0-2ZM20 4a1 1 0 1 0 0 2 1 1 0 0 0 0-2Z"/></svg>