<svg xmlns="http://www.w3.org/2000/svg" width="512" height="512" data-name="Layer 1" viewBox="0 0 24 24"><path d="M12 0C5.383 0 0 5.383 0 12s5.383 12 12 12 12-5.383 12-12S18.617 0 12 0Zm0 23C5.935 23 1 18.065 1 12S5.935 1 12 1s11 4.935 11 11-4.935 11-11 11ZM9 10a1 1 0 1 1-2 0 1 1 0 0 1 2 0Zm8 0a1 1 0 1 1-2 0 1 1 0 0 1 2 0Zm-2.527 6c.325.318.527.761.527 1.25 0 .965-.785 1.75-1.75 1.75H11v-1h2.25a.75.75 0 0 0 0-1.5H12v-1h1.25a.75.75 0 0 0 0-1.5H11v-1h2.25c.965 0 1.75.785 1.75 1.75 0 .489-.202.932-.527 1.25Z"/></svg>