<svg xmlns="http://www.w3.org/2000/svg" width="512" height="512" data-name="Layer 1" viewBox="0 0 24 24"><path d="M12 15c2.918 0 5.236 2.04 5.333 2.127l-.666.747C16.646 17.855 14.529 16 12 16s-4.646 1.854-4.667 1.874l-.666-.747C6.764 17.04 9.082 15 12 15Zm-3.324-4.946a1 1 0 1 0 1.324.953V11c0-.731-.548-3-4-3v1c1.571 0 2.319.535 2.676 1.054ZM24 12c0 6.617-5.383 12-12 12S0 18.617 0 12 5.383 0 12 0s12 5.383 12 12Zm-1 0c0-6.065-4.935-11-11-11S1 5.935 1 12s4.935 11 11 11 11-4.935 11-11Zm-5-3V8c-3.954 0-4 2.97-4 3a1 1 0 1 0 1.314-.95C15.666 9.535 16.414 9 18 9Z"/></svg>