<svg xmlns="http://www.w3.org/2000/svg" width="512" height="512" data-name="Layer 1" viewBox="0 0 24 24"><path d="M23.118 10H22.5c-.658 0-1.273.059-1.847.164-1.025-1.668-3.125-4.217-6.642-4.953A2.98 2.98 0 0 0 15.001 3c0-1.654-1.346-3-3-3s-3 1.346-3 3c0 .879.386 1.662.99 2.212-3.556.751-5.664 3.367-6.642 4.953a10.266 10.266 0 0 0-1.849-.164H.882l2.782 13H2v1h20v-1h-1.664l2.782-13ZM10 3c0-1.103.897-2 2-2s2 .897 2 2-.897 2-2 2-2-.897-2-2Zm2 3c4.055 0 6.461 2.625 7.631 4.417-1.459.468-2.542 1.312-3.129 2.447C15.698 11.177 13.99 10 12 10s-3.698 1.177-4.502 2.864c-.586-1.134-1.669-1.978-3.126-2.446C5.503 8.694 7.921 6 12.001 6Zm-9.877 5.02C4.584 11.175 7 12.281 7 15h1c0-2.206 1.794-4 4-4s4 1.794 4 4h1c0-2.72 2.416-3.825 4.878-3.98L19.313 23H4.686L2.123 11.02Z"/></svg>