<svg xmlns="http://www.w3.org/2000/svg" width="512" height="512" data-name="Layer 1" viewBox="0 0 24 24"><path d="M10.5 5C11.878 5 13 3.878 13 2.5S11.878 0 10.5 0 8 1.122 8 2.5 9.122 5 10.5 5Zm0-4c.827 0 1.5.673 1.5 1.5S11.327 4 10.5 4 9 3.327 9 2.5 9.673 1 10.5 1Zm10.687 17.271L24 14.672v-3.287l-9.095-7.276-.625.781 1.542 1.234c.166.391 1.178 2.85 1.177 4.564C16.98 12.514 15.425 14 13.532 14H11v1h2.532c2.439 0 4.443-1.93 4.468-4.365 0-1.042-.33-2.302-.655-3.293L23 11.866v2.461l-2.601 3.328A3.48 3.48 0 0 1 17.641 19H7.719l1.103-1.976a1.49 1.49 0 0 0 .109-1.16 1.468 1.468 0 0 0-.726-.873L4.83 13.009a1.491 1.491 0 0 1-.752-.867 1.476 1.476 0 0 1 .057-1.102l2.024-3.211c.179-.358.487-.625.867-.752a1.49 1.49 0 0 1 1.145.081c.177.089.74.389 1.454.773l-2.32 3.795.854.521 2.348-3.841c1.685.91 3.646 1.976 3.678 1.994l.478-.879c-.22-.12-5.408-2.94-6.044-3.258a2.484 2.484 0 0 0-1.909-.135 2.443 2.443 0 0 0-1.421 1.21l-2.024 3.211a2.483 2.483 0 0 0-.135 1.909 2.456 2.456 0 0 0 1.224 1.429l3.373 1.981c.122.061.21.167.251.296a.491.491 0 0 1-.032.379l-1.371 2.456H2.998l-1.942-4h1.436a4.373 4.373 0 0 1-.832-1H0v1.115l1.92 3.954A2.505 2.505 0 0 0 0 21.499c0 1.378 1.122 2.5 2.5 2.5h7c1.378 0 2.5-1.122 2.5-2.5 0-.562-.187-1.082-.501-1.5h5.692l1.5 3H15v1h5.5c1.93 0 3.5-1.57 3.5-3.5v-.5h-1v.5c0 1.378-1.122 2.5-2.5 2.5h-.691l-1.523-3.046a4.47 4.47 0 0 0 2.901-1.683ZM11 21.5c0 .827-.673 1.5-1.5 1.5h-7c-.827 0-1.5-.673-1.5-1.5S1.673 20 2.5 20h7c.827 0 1.5.673 1.5 1.5Z"/></svg>