<svg xmlns="http://www.w3.org/2000/svg" width="512" height="512" data-name="Layer 1" viewBox="0 0 24 24"><path d="M16.784 6c-.593 0-1.077.194-1.43.408-.879-.439-1.668-.561-2.479-.199a2.269 2.269 0 0 0-.366-.137C12.714 1.142 16.461 1 16.5 1c.692 0 1.5.322 1.5 1.231 0 .31-.318.769-1 .769v1c1.252 0 2-.899 2-1.769C19 .918 17.972 0 16.5 0c-.989 0-3.375.694-4.454 3.374C11.534 1.849 10.591.736 9.224.053l-.447.895c1.738.869 2.628 2.548 2.716 5.124-.13.036-.259.084-.388.147-.816-.374-1.611-.253-2.497.189A2.745 2.745 0 0 0 7.178 6C4.409 6 0 10.119 0 15s4.419 9 7.195 9c.448 0 .868-.116 1.251-.346.483.229.957.346 1.411.346.354 0 .81-.12 1.17-.256.672.357 1.376.333 2.024-.037.333.153.726.293 1.053.293.454 0 .928-.116 1.411-.346.383.23.803.346 1.25.346 2.776 0 7.195-4.119 7.195-9s-4.409-9-7.177-9Zm-.018 17c-.333 0-1.17-.526-1.17-.526s-.903.526-1.491.526c-.374 0-1.133-.455-1.133-.455l-.251.186c-.456.336-.888.366-1.374.04l-.234-.156s-.843.386-1.255.386c-.645 0-1.492-.526-1.492-.526s-.836.526-1.17.526c-2.093 0-6.195-3.622-6.195-8S5.09 7 7.177 7c.823 0 1.361.591 1.361.591S9.5 7 10.162 7c.216 0 .962.371.962.371l.257-.164c.434-.274.785-.28 1.223-.009l.253.156s.678-.355.942-.355c.701 0 1.624.591 1.624.591s.577-.591 1.361-.591c2.087 0 6.177 3.622 6.177 8s-4.102 8-6.195 8ZM15.5 8.992 12.638 14h5.724L15.5 8.992Zm0 2.016L16.638 13h-2.276l1.138-1.992Zm-7-2.016L5.638 14h5.724L8.5 8.992Zm0 2.016L9.638 13H7.362L8.5 11.008ZM12 17c4.5 0 7-1 7-1s-1.593 2.114-4 3.267V18h-2v1.908A6.095 6.095 0 0 1 12 20c-4 0-7-4-7-4s1.404.561 4 .843V18h2v-1.019c.323.011.653.019 1 .019Z"/></svg>