<svg xmlns="http://www.w3.org/2000/svg" width="512" height="512" data-name="Layer 1" viewBox="0 0 24 24"><path d="M24 12h-3v-1.5c0-.83-.67-1.5-1.5-1.5h-3c-.83 0-1.5.67-1.5 1.5V12h-3v1h1v8.5a2.5 2.5 0 0 0 2.5 2.5h5a2.5 2.5 0 0 0 2.5-2.5V13h1v-1Zm-8-1.5c0-.28.22-.5.5-.5h3c.28 0 .5.22.5.5V12h-4v-1.5Zm6 11c0 .83-.67 1.5-1.5 1.5h-5c-.83 0-1.5-.67-1.5-1.5V13h8v8.5ZM1 21h10v1H0V2.5A2.5 2.5 0 0 1 2.5 0h17A2.5 2.5 0 0 1 22 2.5v5.55c-.29-.29-.63-.54-1-.72V2.5c0-.83-.67-1.5-1.5-1.5h-17C1.67 1 1 1.67 1 2.5V21ZM5 8.21 9.21 4H4v14h7v-1H5V8.21ZM5 5h1.79L5 6.79V5Zm12 2V5h-3.79L9 9.21V14H8V8.79L12.79 4H18v3h-1Z"/></svg>