<svg xmlns="http://www.w3.org/2000/svg" width="512" height="512" data-name="Layer 1" viewBox="0 0 24 24"><path d="M15.5 0H14v9H5.207L3.768 7.561A5.294 5.294 0 0 0 0 6v1a4.3 4.3 0 0 1 3.061 1.268L4 9.207V12.5C4 13.878 5.122 15 6.5 15h6.445l-3.444 4.21A2.503 2.503 0 0 0 6 21.5C6 22.878 7.122 24 8.5 24s2.5-1.122 2.5-2.5a2.49 2.49 0 0 0-.681-1.712L14 15.289l3.681 4.499A2.49 2.49 0 0 0 17 21.5c0 1.378 1.122 2.5 2.5 2.5s2.5-1.122 2.5-2.5a2.503 2.503 0 0 0-3.501-2.29L15.055 15H21.5c1.378 0 2.5-1.122 2.5-2.5v-3C24 .108 15.585 0 15.5 0Zm-7 23c-.827 0-1.5-.673-1.5-1.5S7.673 20 8.5 20s1.5.673 1.5 1.5S9.327 23 8.5 23ZM21 21.5c0 .827-.673 1.5-1.5 1.5s-1.5-.673-1.5-1.5.673-1.5 1.5-1.5 1.5.673 1.5 1.5ZM15 1h.499c.3 0 7.211.118 7.492 8H15V1Zm8 11.5c0 .827-.673 1.5-1.5 1.5h-15c-.827 0-1.5-.673-1.5-1.5V10h18v2.5Z"/></svg>