<svg xmlns="http://www.w3.org/2000/svg" width="512" height="512" data-name="Layer 1" viewBox="0 0 24 24"><path d="M21.5 3h-16A2.5 2.5 0 0 0 3 5.5V18h21V5.5A2.5 2.5 0 0 0 21.5 3ZM23 17H4V5.5C4 4.67 4.67 4 5.5 4h16c.83 0 1.5.67 1.5 1.5V17ZM1 20h20v1H0V8.5c0-.81.4-1.53 1-1.99V20ZM13.5 7C11.57 7 10 8.57 10 10.5s1.57 3.5 3.5 3.5 3.5-1.57 3.5-3.5S15.43 7 13.5 7Zm0 6a2.5 2.5 0 0 1 0-5 2.5 2.5 0 0 1 0 5ZM8 7c0 .55-.45 1-1 1s-1-.45-1-1 .45-1 1-1 1 .45 1 1Zm0 7c0 .55-.45 1-1 1s-1-.45-1-1 .45-1 1-1 1 .45 1 1Zm13-7c0 .55-.45 1-1 1s-1-.45-1-1 .45-1 1-1 1 .45 1 1Zm0 7c0 .55-.45 1-1 1s-1-.45-1-1 .45-1 1-1 1 .45 1 1Z"/></svg>