<svg xmlns="http://www.w3.org/2000/svg" width="512" height="512" data-name="Layer 1" viewBox="0 0 24 24"><path d="M4.378 17.921C1.742 16.168 0 13.174 0 9.777 0 4.386 4.386 0 9.777 0c1.639 0 3.271.425 4.717 1.229l.821.456-.836.427c-2.05 1.046-4.141 3.783-4.423 6.733a7.492 7.492 0 0 0-1.055.669v-.013c0-3.3 2.045-6.293 4.21-7.791a8.577 8.577 0 0 0-3.434-.709C4.938 1 1 4.938 1 9.777a8.772 8.772 0 0 0 3.803 7.224 6.04 6.04 0 0 0-.425.92ZM24 19c0-2.757-2.243-5-5-5-.069 0-.138.003-.211.009A5.5 5.5 0 0 0 13.5 10 5.506 5.506 0 0 0 8 15.5c0 .316.033.635.103.982A3.98 3.98 0 0 0 6 20c0 2.206 1.794 4 4 4h9c2.757 0 5-2.243 5-5Zm-6.086-4.347.089.465S18.855 15 19 15c2.206 0 4 1.794 4 4s-1.794 4-4 4h-9c-1.654 0-3-1.346-3-3 0-1.223.734-2.312 1.87-2.775l.406-.166-.112-.424A4.406 4.406 0 0 1 9 15.5c0-2.481 2.019-4.5 4.5-4.5a4.498 4.498 0 0 1 4.414 3.653Z"/></svg>