<svg xmlns="http://www.w3.org/2000/svg" width="512" height="512" data-name="Layer 1" viewBox="0 0 24 24"><path d="M21.5 0h-19A2.503 2.503 0 0 0 0 2.5V11h24V2.5C24 1.121 22.878 0 21.5 0ZM17 6.5c0-.827.673-1.5 1.5-1.5s1.5.673 1.5 1.5V10h-3V6.5ZM16 10h-3.5V5.75c0-.965.785-1.75 1.75-1.75S16 4.785 16 5.75V10Zm-4.5 0H8V5.75C8 4.785 8.785 4 9.75 4s1.75.785 1.75 1.75V10ZM7 10H4V6.5C4 5.673 4.673 5 5.5 5S7 5.673 7 6.5V10Zm16 0h-2V6.5C21 5.121 19.878 4 18.5 4c-.664 0-1.267.26-1.715.684A2.747 2.747 0 0 0 12 4.172a2.747 2.747 0 0 0-4.785.512A2.493 2.493 0 0 0 5.5 4 2.503 2.503 0 0 0 3 6.5V10H1V2.5C1 1.673 1.673 1 2.5 1h19c.827 0 1.5.673 1.5 1.5V10ZM0 13v8.5C0 22.879 1.122 24 2.5 24h19c1.378 0 2.5-1.121 2.5-2.5V13H0Zm17 1h3v3.5c0 .827-.673 1.5-1.5 1.5s-1.5-.673-1.5-1.5V14Zm-1 3.25c0 .965-.785 1.75-1.75 1.75s-1.75-.785-1.75-1.75V14H16v3.25Zm-8.988.25H7c0 .827-.673 1.5-1.5 1.5S4 18.327 4 17.5V14h3l.012 3.5ZM8 14h3.5v3.25c0 .965-.785 1.75-1.75 1.75S8 18.215 8 17.25V14Zm15 7.5c0 .827-.673 1.5-1.5 1.5h-19c-.827 0-1.5-.673-1.5-1.5V14h2v3.5a2.498 2.498 0 0 0 4.561 1.413A2.748 2.748 0 0 0 12 18.828a2.747 2.747 0 0 0 4.439.085A2.5 2.5 0 0 0 21 17.5V14h2v7.5Z"/></svg>