<svg xmlns="http://www.w3.org/2000/svg" width="512" height="512" data-name="Layer 1" viewBox="0 0 24 24"><path d="M23.981 12c0 6.617-5.383 12-12 12-4.015 0-7.568-1.989-9.747-5.027.09.005.175.027.266.027.318 0 .628-.035.928-.098C5.446 21.398 8.529 23 11.981 23c6.065 0 11-4.935 11-11s-4.935-11-11-11C7.248 1 3.216 4.01 1.667 8.212l-.924.91c-.128.126-.321.331-.535.574C1.286 4.178 6.152 0 11.981 0c6.617 0 12 5.383 12 12Zm-16 0a1 1 0 1 0 0-2 1 1 0 0 0 0 2Zm7-1a1 1 0 1 0 2 0 1 1 0 0 0-2 0Zm-3 3a4.983 4.983 0 0 1 4.946 4.444l.062.556H6.972l.062-.556A4.984 4.984 0 0 1 11.981 14Zm0 1a3.98 3.98 0 0 0-3.851 3h7.702a3.98 3.98 0 0 0-3.851-3ZM2.5 17A2.503 2.503 0 0 1 0 14.5c0-1.819 2.062-3.869 2.149-3.956l.354-.349.351.353C3.074 10.769 5 12.754 5 14.5 5 15.879 3.878 17 2.5 17Zm0-1c.827 0 1.5-.673 1.5-1.5 0-.925-.895-2.16-1.503-2.864C1.89 12.329 1 13.552 1 14.5c0 .827.673 1.5 1.5 1.5Zm2.144-7.718.393.92c1.751-.747 3.181-1.935 4.132-3.435l-.845-.535c-.83 1.309-2.137 2.393-3.68 3.05Zm14.779 0c-1.58-.674-2.879-1.731-3.756-3.058l-.834.551c.985 1.49 2.437 2.675 4.197 3.427l.393-.92Z"/></svg>