<svg xmlns="http://www.w3.org/2000/svg" width="512" height="512" data-name="Layer 1" viewBox="0 0 24 24"><path d="M24 18.232c0-1.206-.206-2.394-.612-3.531l-1.443-4.042A2.503 2.503 0 0 0 19.591 9H11.41c-1.054 0-2 .667-2.354 1.659l-1.443 4.042a10.472 10.472 0 0 0-.612 3.531V22h2v2h3v-2h7v2h3v-2h2v-3.768ZM9.997 10.995A1.504 1.504 0 0 1 11.41 10h8.181c.632 0 1.2.4 1.413.995L22.434 15H8.566l1.43-4.005ZM11 23h-1v-1h1v1Zm10 0h-1v-1h1v1Zm2-2H8v-2.768c0-.755.089-1.502.266-2.232H11v1.5a.5.5 0 0 0 1 0V16h7v1.5a.5.5 0 0 0 1 0V16h2.734c.177.73.266 1.477.266 2.232V21ZM3 5h7v2.23c.32-.106.657-.167 1-.198V5h7v2h1V3.81a2.477 2.477 0 0 0-1.566-2.319C16.03.934 13.262 0 10.5 0S4.97.934 3.566 1.491A2.476 2.476 0 0 0 2 3.81V8H0v2.5c0 1.207.86 2.217 2 2.45V19h2v2h1v-3H3v-5h3.096l.357-1H3V5Zm.935-2.58C5.273 1.89 7.905 1 10.5 1s5.228.89 6.565 1.42c.568.225.935.771.935 1.39V4H3v-.19c0-.619.367-1.165.935-1.39ZM1 10.5V9h1v2.914c-.582-.206-1-.762-1-1.414Z"/></svg>