<svg xmlns="http://www.w3.org/2000/svg" width="512" height="512" data-name="Layer 1" viewBox="0 0 24 24"><path d="M8 5H4V4h4V0h1v4h4v1H9v4H8V5Zm15.363 8.182L13.724 24H2.5A2.503 2.503 0 0 1 0 21.5v-7C0 13.122 1.122 12 2.5 12h10.858c1.208 0 2.229.814 2.542 1.922l3.732-4.102a2.492 2.492 0 0 1 1.739-.818c.67-.022 1.312.2 1.809.652a2.52 2.52 0 0 1 .182 3.527Zm-.856-2.788a1.526 1.526 0 0 0-1.088-.393 1.505 1.505 0 0 0-1.047.492l-4.495 4.94a2.66 2.66 0 0 1-2.146 1.824l-5.667.738-.129-.991 5.661-.737A1.65 1.65 0 0 0 15 14.642c0-.905-.737-1.642-1.642-1.642H2.5c-.827 0-1.5.673-1.5 1.5v7c0 .827.673 1.5 1.5 1.5h10.776l9.34-10.483c.549-.615.5-1.567-.109-2.123Z"/></svg>