<svg xmlns="http://www.w3.org/2000/svg" width="512" height="512" data-name="Layer 1" viewBox="0 0 24 24"><path d="M22.947 9.222 21 7.326V2.5C21 1.122 19.878 0 18.5 0h-13A2.503 2.503 0 0 0 3 2.5v4.828L1.053 9.222A3.523 3.523 0 0 0 0 11.725V24h24V11.724c0-.936-.383-1.848-1.053-2.502Zm-.698.716c.044.044.087.089.128.136l-1.376 1.376V8.722l1.249 1.216ZM5.5 1h6v2h-1A2.503 2.503 0 0 0 8 5.5c0 1.37.981 2.521 2.334 2.739l3.173.51A1.766 1.766 0 0 1 15 10.5c0 .827-.673 1.5-1.5 1.5h-3c-.827 0-1.5-.673-1.5-1.5V10H8v.5c0 1.378 1.122 2.5 2.5 2.5h1v2h1v-2h1c1.378 0 2.5-1.122 2.5-2.5 0-1.37-.981-2.521-2.334-2.739l-3.173-.51A1.766 1.766 0 0 1 9 5.5c0-.827.673-1.5 1.5-1.5h3c.827 0 1.5.673 1.5 1.5V6h1v-.5C16 4.122 14.878 3 13.5 3h-1V1h6c.827 0 1.5.673 1.5 1.5v9.95l-5.525 5.526a3.505 3.505 0 0 1-4.95 0L4 12.45V2.5C4 1.673 4.673 1 5.5 1ZM3 8.723v2.726l-1.376-1.376c.041-.047.083-.092.127-.135L3 8.723ZM23 23H1V11.725c0-.254.04-.506.115-.746l7.702 7.703c.877.877 2.03 1.315 3.182 1.315s2.305-.438 3.182-1.315l7.703-7.704a2.5 2.5 0 0 1 .115.746V23Z"/></svg>