<svg xmlns="http://www.w3.org/2000/svg" data-name="Layer 1" viewBox="0 0 24 24"><path d="m23.861 21-4-7h2.326l-3.935-6h2.237L15.984.801c-.803-1.019-2.599-1.06-3.46.042l-.523.829-.516-.871C10.684-.218 8.881-.251 8.031.832L3.246 7.999h2.3l-3.704 6h2.296L.138 21H9v3h1v-3h4v3h1v-3h8.861Zm-22-1 4-7H3.634l3.704-6H5.115l3.724-5.58c.415-.527 1.484-.471 1.821-.056l.741 1.256-3.397 5.379h2.272l-3.704 6h2.296l-3.429 6H1.862Zm8.731-7H8.365l3.704-6H9.818l3.521-5.58c.417-.53 1.471-.487 1.828-.044L18.685 7h-2.284l3.935 6h-2.197l4 7H6.593l4-7Z"/></svg>