<svg xmlns="http://www.w3.org/2000/svg" width="512" height="512" data-name="Layer 1" viewBox="0 0 24 24"><path d="M23.459 10c.354.609.541 1.294.541 2 0 2.206-1.794 4-4 4a3.921 3.921 0 0 1-2-.545v8.583h-1V13.197l.858.884A2.968 2.968 0 0 0 20 15c1.654 0 3-1.346 3-3 0-.613-.188-1.206-.543-1.713L22.256 10l.201-.287C22.812 9.206 23 8.613 23 8a3.01 3.01 0 0 0-1.744-2.717l-.317-.146S21 4.547 21 4.5C21 2.57 19.43 1 17.5 1S14 2.57 14 4.5c0 .047.061.637.061.637l-.317.146A3.01 3.01 0 0 0 12 8c0 .352.072.686.184 1h-1.042A3.939 3.939 0 0 1 11 8c0-1.426.774-2.746 2.001-3.456C13.001 2.063 15.019 0 17.5 0s4.499 2.062 4.499 4.544A4.008 4.008 0 0 1 24 8c0 .706-.186 1.391-.541 2ZM15 13.5V17h-2v3h2v1h-2v3h-1v-3H3v3H2v-3H0v-1h2v-3H0v-3.5C0 12.121 1.122 11 2.5 11h10c1.378 0 2.5 1.121 2.5 2.5ZM12 17H3v3h9v-3Zm2-3.5c0-.827-.673-1.5-1.5-1.5h-10c-.827 0-1.5.673-1.5 1.5V16h13v-2.5Z"/></svg>