<svg xmlns="http://www.w3.org/2000/svg" width="512" height="512" data-name="Layer 1" viewBox="0 0 24 24"><path d="M24 8a4.004 4.004 0 0 0-5.171-3.826A3.987 3.987 0 0 0 16 3c-.048 0-.095 0-.142.004C15.41 1.261 13.831 0 12 0S8.59 1.261 8.142 3.004a3.99 3.99 0 0 0-2.971 1.17A4.004 4.004 0 0 0 0 8c0 1 .386 1.965 1.071 2.703A4.945 4.945 0 0 0 .5 13c0 1.586.748 3.06 2.015 4.003a2.229 2.229 0 0 0-.015.247A4.756 4.756 0 0 0 7.25 22c.747 0 1.473-.175 2.124-.501L11.25 24h1.5l1.876-2.501A4.742 4.742 0 0 0 16.75 22a4.756 4.756 0 0 0 4.75-4.75c0-.084-.006-.166-.015-.246A4.982 4.982 0 0 0 23.5 13c0-.795-.196-1.582-.571-2.297A3.98 3.98 0 0 0 24 8ZM8 4c.16 0 .313.024.467.049l.508.08.066-.511C9.232 2.126 10.504 1 12 1s2.768 1.126 2.959 2.618l.066.511.508-.08C15.686 4.025 15.84 4 16 4c1.654 0 3 1.346 3 3a2.997 2.997 0 0 1-1.826 2.761l-.67.284.506.523c.639.659.99 1.523.99 2.432a3.479 3.479 0 0 1-2.207 3.245l-.297.119-.017.319a3.495 3.495 0 0 1-2.979 3.28V8h-1v11.964a3.494 3.494 0 0 1-2.979-3.28l-.017-.319-.297-.119a3.486 3.486 0 0 1-1.217-5.677l.506-.523-.67-.284A2.997 2.997 0 0 1 5 7.001c0-1.654 1.346-3 3-3ZM3.5 17.25c0-.097.014-.189.027-.282l.054-.451-.259-.169A3.986 3.986 0 0 1 1.5 13c0-.74.214-1.472.62-2.118l.226-.359-.319-.281A2.955 2.955 0 0 1 1 8.001a3.004 3.004 0 0 1 3.512-2.957A3.975 3.975 0 0 0 4 7.001c0 1.385.709 2.648 1.851 3.374A4.466 4.466 0 0 0 5 13.001c0 1.743.991 3.301 2.549 4.049a4.503 4.503 0 0 0 1.961 3.194 3.74 3.74 0 0 1-2.26.757 3.755 3.755 0 0 1-3.75-3.75Zm6.718 3.708c.089-.071.175-.146.26-.224a4.41 4.41 0 0 0 1.022.238v1.695l-1.282-1.708Zm2.282 1.708v-1.695c.354-.04.697-.12 1.022-.238.084.078.171.153.26.224L12.5 22.665Zm8.178-6.319-.259.169.054.453c.013.092.027.185.027.28a3.755 3.755 0 0 1-3.75 3.75c-.825 0-1.615-.27-2.26-.757a4.5 4.5 0 0 0 1.961-3.194A4.474 4.474 0 0 0 19 12.999c0-.951-.299-1.863-.851-2.626A3.992 3.992 0 0 0 20 6.999c0-.71-.186-1.378-.512-1.957A3.007 3.007 0 0 1 23 7.999c0 .861-.365 1.657-1.027 2.241l-.319.281.226.359a3.98 3.98 0 0 1 .62 2.118 3.987 3.987 0 0 1-1.822 3.348Z"/></svg>