<svg xmlns="http://www.w3.org/2000/svg" width="512" height="512" data-name="Layer 1" viewBox="0 0 24 24"><path d="M20.5 8H19V2.5C19 1.121 17.878 0 16.5 0h-9A2.503 2.503 0 0 0 5 2.5V8H3.5A2.503 2.503 0 0 0 1 10.5V19h10.5v4H6v1h12v-1h-5.5v-4H23v-8.5C23 9.121 21.878 8 20.5 8Zm0 1c.827 0 1.5.673 1.5 1.5v4.001A2.485 2.485 0 0 0 20.5 14H19V9h1.5Zm-13-8h9c.827 0 1.5.673 1.5 1.5V14H6V2.5C6 1.673 6.673 1 7.5 1Zm-4 8H5v5H3.5c-.562 0-1.082.187-1.5.501V10.5C2 9.673 2.673 9 3.5 9ZM22 18H2v-1.5c0-.827.673-1.5 1.5-1.5h17c.827 0 1.5.673 1.5 1.5V18Z"/></svg>