<svg xmlns="http://www.w3.org/2000/svg" width="512" height="512" data-name="Layer 1" viewBox="0 0 24 24"><path d="M24 20h-4v4h-1v-4h-4v-1h4v-4h1v4h4v1Zm-9.78 2h1.22A3.98 3.98 0 0 1 12 24c-2.21 0-4-1.79-4-4H.69L3.03 6.88C3.33 5.21 4.78 4 6.48 4h1.03a2.5 2.5 0 0 1 2-4h5a2.5 2.5 0 0 1 2 4h1.03c1.7 0 3.15 1.21 3.45 2.88L22.08 13h-1.02L20 7.06A2.5 2.5 0 0 0 17.54 5H6.48a2.5 2.5 0 0 0-2.46 2.06L1.88 19H13v1H9c0 1.65 1.35 3 3 3 .88 0 1.67-.39 2.22-1ZM9.5 4h5c.83 0 1.5-.67 1.5-1.5S15.33 1 14.5 1h-5C8.67 1 8 1.67 8 2.5S8.67 4 9.5 4Z"/></svg>