<svg xmlns="http://www.w3.org/2000/svg" width="512" height="512" data-name="Layer 1" viewBox="0 0 24 24"><path d="M17.987 2.28A9.053 9.053 0 0 0 10.936.061c-3.992.46-7.292 3.676-7.845 7.647-.414 2.965.593 5.827 2.764 7.854 1.363 1.273 2.146 3.029 2.146 4.816V24h8v-3.853c0-1.686.752-3.309 2.118-4.571A8.869 8.869 0 0 0 21.001 9a9.012 9.012 0 0 0-3.013-6.72ZM15 23H9v-2.622c0-.463-.046-.925-.134-1.378h6.233c-.066.378-.1.761-.1 1.147V23Zm2.438-8.158c-.986.912-1.695 1.993-2.086 3.158H8.598a7.818 7.818 0 0 0-2.063-3.169C4.606 13.03 3.712 10.484 4.08 7.847c.491-3.528 3.422-6.384 6.969-6.792 2.33-.265 4.548.435 6.272 1.973a8.01 8.01 0 0 1 2.678 5.973c0 2.24-.909 4.314-2.562 5.842ZM14.952 6.46a3.016 3.016 0 0 1-1.506 3.169c-.495.272-.946 1.107-.946 1.752V12h-1v-.619c0-1.005.657-2.184 1.464-2.628a1.992 1.992 0 0 0 1.004-2.119 2.008 2.008 0 0 0-1.602-1.602 1.995 1.995 0 0 0-1.651.436A1.997 1.997 0 0 0 10 7H9c0-.889.391-1.727 1.071-2.298s1.576-.81 2.469-.654a3.018 3.018 0 0 1 2.412 2.412ZM13 15a1 1 0 1 1-2 0 1 1 0 0 1 2 0Z"/></svg>