<svg xmlns="http://www.w3.org/2000/svg" width="512" height="512" data-name="Layer 1" viewBox="0 0 24 24"><path d="M18.928 23a6.971 6.971 0 0 0-.85-2.469l4.97-2.9-.504-.863-5.025 2.932a7.039 7.039 0 0 0-1.787-1.619l2.987-5.133-.865-.503-3.004 5.163a6.952 6.952 0 0 0-2.35-.589v-6.018h-1v6.018a6.955 6.955 0 0 0-2.337.583l-3.038-5.148-.861.508 3.016 5.112a7.052 7.052 0 0 0-1.809 1.639l-5.03-2.921-.502.864 4.975 2.889a6.968 6.968 0 0 0-.843 2.456H0v1h24v-1h-5.072ZM6.084 23c.477-2.834 2.948-5 5.916-5s5.439 2.166 5.916 5H6.084Zm4.523-14.571L7.404 5.226l.707-.707 3.203 3.203c.057.057.12.106.187.146V0h1v7.868a.985.985 0 0 0 .187-.146l3.202-3.203.707.707-3.202 3.203c-.384.384-.889.576-1.394.576s-1.009-.192-1.394-.576Z"/></svg>