<svg xmlns="http://www.w3.org/2000/svg" width="512" height="512" data-name="Layer 1" viewBox="0 0 24 24"><path d="M23.561 16.439a1.501 1.501 0 0 1 0 2.121l-3.293 3.293-.707-.707L22.707 18H17.5a2.502 2.502 0 0 0-2.5 2.5V24h-1v-3.5c0-1.93 1.57-3.5 3.5-3.5h5.207l-3.146-3.146.707-.707 3.293 3.293ZM15.25 1a2.752 2.752 0 0 0-2.75 2.75v15.045A5.21 5.21 0 0 1 7.296 24a5.175 5.175 0 0 1-5.008-3.815A4.667 4.667 0 0 1 0 16.182c0-.936.281-1.831.818-2.613A4.582 4.582 0 0 1 0 10.955c0-1.562.799-3.022 2.105-3.887a3.183 3.183 0 0 1-.015-.295c0-1.96 1.286-3.527 2.996-3.746C5.427 1.298 6.959.001 8.749.001c1.398 0 2.605.778 3.25 1.915.645-1.137 1.852-1.915 3.25-1.915 1.79 0 3.322 1.298 3.663 3.026 1.71.219 2.996 1.786 2.996 3.746 0 .1-.006.198-.015.295a4.675 4.675 0 0 1 2.105 3.887c0 .854-.245 1.67-.694 2.402l-.73-.73a3.57 3.57 0 0 0 .424-1.672 3.68 3.68 0 0 0-1.892-3.196l-.31-.174s.11-.654.11-.812c0-1.363-.901-2.772-2.435-2.772h-.463l-.035-.461c-.11-1.423-1.309-2.539-2.727-2.539ZM11.5 3.75A2.752 2.752 0 0 0 8.75 1C7.332 1 6.134 2.115 6.023 3.539L5.988 4h-.463C3.992 4 3.09 5.41 3.09 6.772c0 .158.11.812.11.812l-.31.174a3.68 3.68 0 0 0-1.892 3.196c0 .832.287 1.627.83 2.299l.254.314-.254.314a3.63 3.63 0 0 0-.83 2.299c0 1.347.75 2.585 1.957 3.232l.2.106.051.222a4.18 4.18 0 0 0 4.088 3.258 4.21 4.21 0 0 0 4.204-4.205V3.75Z"/></svg>