<svg xmlns="http://www.w3.org/2000/svg" width="512" height="512" data-name="Layer 1" viewBox="0 0 24 24"><path d="M21.5 0h-19A2.503 2.503 0 0 0 0 2.5V24h24V2.5C24 1.122 22.879 0 21.5 0ZM17 1h2v2h-2V1ZM9 1h2v2H9V1ZM2.5 1H3v2H1v-.5C1 1.673 1.673 1 2.5 1ZM1 9h2v2H1V9Zm0 8h2v2H1v-2Zm0 3h3v-4H1v-4h3V8H1V4h3V1h4v3h4V1h4v3h4V1h1.5c.827 0 1.5.673 1.5 1.5V4h-3v4h3v4h-3v4h3v4h-3v3h-4v-3h-4v3H8v-3H4v3H1v-3ZM23 5v2h-2V5h2Zm0 8v2h-2v-2h2Zm-8 10h-2v-2h2v2Zm-8 0H5v-2h2v2Zm14 0v-2h2v2h-2ZM8 4H4v4h4V4ZM7 7H5V5h2v2Zm9 1V4h-4v4h4Zm-3-3h2v2h-2V5Zm-1 3H8v4h4V8Zm-1 3H9V9h2v2Zm-3 1H4v4h4v-4Zm-1 3H5v-2h2v2Zm5 1h4v-4h-4v4Zm1-3h2v2h-2v-2Zm3-1h4V8h-4v4Zm1-3h2v2h-2V9Zm-9 7v4h4v-4H8Zm3 3H9v-2h2v2Zm5 1h4v-4h-4v4Zm1-3h2v2h-2v-2Z"/></svg>