<svg xmlns="http://www.w3.org/2000/svg" width="512" height="512" data-name="Layer 1" viewBox="0 0 24 24"><path d="m2.677 11.546 18.052 8.614 1.054-2.408c.28-.639.295-1.349.041-1.999a2.596 2.596 0 0 0-1.376-1.437l-3.382-1.652-1.501-8.96a2.61 2.61 0 0 0-1.557-2.168L11 .24v9.462l-3.829-1.87-1.343-3.569a1.994 1.994 0 0 0-1.051-1.094 1.963 1.963 0 0 0-1.967.217 1.962 1.962 0 0 0-.799 1.808l.665 6.352ZM12 1.76l1.609.693c.541.237.908.749.964 1.376l1.388 8.295L12 10.189V1.76ZM3.401 4.192a.975.975 0 0 1 .975-.108.987.987 0 0 1 .519.536l1.479 3.935 13.663 6.673a1.6 1.6 0 0 1 .854.89c.156.401.147.838-.025 1.233l-.64 1.461-16.614-7.927-.606-5.796a.972.972 0 0 1 .396-.896ZM24 23.013v1H0v-1h24Z"/></svg>