<svg xmlns="http://www.w3.org/2000/svg" width="512" height="512" data-name="Layer 1" viewBox="0 0 24 24"><path d="M22 21.29V10.95c.62-.63 1-1.5 1-2.45L20.35 1H3.65l-.51 1.43L.75.05l-.7.7 23.2 23.2.71-.71-1.95-1.95Zm-8-8-1.3-1.3c.46-.03.9-.14 1.3-.33v1.63Zm1-2.35c.19-.19.36-.41.5-.65.61 1.02 1.73 1.7 3 1.7h1c.54 0 1.05-.12 1.5-.34v8.63l-6-6v-3.35ZM4.35 2H8v3h1V2h6v3h1V2h3.65L22 8.58A2.505 2.505 0 0 1 19.5 11h-1A2.5 2.5 0 0 1 16 8.5V8h-1v.5a2.5 2.5 0 0 1-2.5 2.5h-.79L3.92 3.21 4.35 2ZM14 17.54l1 1v1.96a2.5 2.5 0 0 1-2.5 2.5h-8A2.5 2.5 0 0 1 2 20.5v-9.55c-.62-.63-1-1.5-1-2.45l1.02-2.94.78.78L2 8.58A2.505 2.505 0 0 0 4.5 11h1c.55 0 1.06-.18 1.48-.49l.71.71c-.6.48-1.36.77-2.19.77h-1c-.54 0-1.05-.12-1.5-.34v4.34h9.46l1 1H3v3.5c0 .83.67 1.5 1.5 1.5h8c.83 0 1.5-.67 1.5-1.5v-2.96Z"/></svg>