<svg xmlns="http://www.w3.org/2000/svg" width="512" height="512" data-name="Layer 1" viewBox="0 0 24 24"><path d="M20.5 0h-16A2.5 2.5 0 0 0 2 2.5v19A2.5 2.5 0 0 0 4.5 24H22V1.5c0-.83-.67-1.5-1.5-1.5Zm.5 1.5V19H7V1h13.5c.28 0 .5.22.5.5ZM4.5 1H6v18H4.5c-.56 0-1.08.19-1.5.5v-17C3 1.67 3.67 1 4.5 1Zm0 22c-.83 0-1.5-.67-1.5-1.5S3.67 20 4.5 20H21v3H4.5Zm5.68-8 .98-3h5.58l1.1 3h1.06l-3.17-8.67C15.44 5.53 14.7 5 13.85 5s-1.59.52-1.88 1.33L9.12 15h1.07Zm2.73-8.34c.14-.4.51-.66.94-.66s.8.26.94.66L16.38 11h-4.89l1.42-4.34Z"/></svg>