<svg xmlns="http://www.w3.org/2000/svg" width="512" height="512" data-name="Layer 1" viewBox="0 0 24 24"><path d="M24 10.95c0-1.56-.8-3.02-2.11-3.89 0-.1.02-.2.02-.29 0-1.95-1.28-3.51-3-3.74C18.57 1.3 17.04 0 15.25 0c-1.39 0-2.6.76-3.25 1.88A3.757 3.757 0 0 0 8.75 0C6.96 0 5.43 1.3 5.09 3.03c-1.71.22-3 1.79-3 3.75 0 .1 0 .2.01.29a4.687 4.687 0 0 0-2.11 3.89c0 .94.28 1.83.82 2.61-.54.78-.82 1.68-.82 2.61 0 1.64.87 3.16 2.29 4A5.174 5.174 0 0 0 7.29 24c2.07 0 3.87-1.22 4.7-2.98a5.214 5.214 0 0 0 4.7 2.98c2.36 0 4.38-1.56 5.01-3.82a4.663 4.663 0 0 0 2.29-4c0-.93-.28-1.83-.82-2.61.54-.78.82-1.68.82-2.61ZM7.3 23c-1.96 0-3.64-1.34-4.09-3.26l-.05-.22-.2-.11C1.75 18.76 1 17.53 1 16.18c0-.83.29-1.63.83-2.3l.25-.31-.25-.31a3.65 3.65 0 0 1-.83-2.3c0-1.32.72-2.54 1.89-3.2l.31-.17s-.11-.65-.11-.81c0-1.36.9-2.77 2.43-2.77h.46l.04-.46c.11-1.42 1.31-2.54 2.73-2.54 1.52 0 2.75 1.23 2.75 2.75v15.05c0 2.32-1.89 4.2-4.2 4.2Zm14.87-9.12c.54.67.83 1.47.83 2.3 0 1.35-.75 2.58-1.96 3.23l-.2.11-.05.22A4.175 4.175 0 0 1 16.7 23c-2.32 0-4.2-1.89-4.2-4.2V3.75C12.5 2.23 13.73 1 15.25 1c1.42 0 2.62 1.12 2.73 2.54l.06.46h.46c1.51 0 2.41 1.41 2.41 2.77 0 .16-.11.81-.11.81l.31.17a3.68 3.68 0 0 1 1.89 3.2c0 .83-.29 1.63-.83 2.3l-.25.31.25.31Z"/></svg>