<svg xmlns="http://www.w3.org/2000/svg" width="512" height="512" data-name="Layer 1" viewBox="0 0 24 24"><path d="M23 6v8h-7.003C15.931 8.021 14.683 0 12 0S8.069 8.021 8.003 14H1V6H0v15h1v-2.854L7.304 24H9v-2h6v2h1.749L23 18.153V21h1V6h-1ZM12 1c.733 0 1.547 1.751 2.143 4.538C13.487 5.18 12.77 5 12 5s-1.487.18-2.143.538C10.452 2.751 11.267 1 12 1ZM8 23h-.304L1 16.782V15h7v8Zm1-2v-6.5c0-2.801.23-5.397.59-7.549C10.291 6.32 11.101 6 12 6s1.709.32 2.41.951c.359 2.152.59 4.749.59 7.549V21H9Zm7.354 2H16v-8h7v1.783L16.354 23Z"/></svg>