<svg xmlns="http://www.w3.org/2000/svg" width="512" height="512" data-name="Layer 1" viewBox="0 0 24 24"><path d="M20.194 1C20.768 2.161 23 7.06 23 13h1C24 5.954 20.922.229 20.797 0H2.269l2.124 5.45C3.677 6.647.465 12.481.003 21.37a2.475 2.475 0 0 0 .685 1.848A2.517 2.517 0 0 0 2.505 24h16.016c.69 0 1.333-.276 1.811-.776.477-.5.723-1.153.691-1.84-.42-9.168-3.506-15.085-4.022-16.015V1h3.194ZM3.731 1H16v4H5.29L3.731 1Zm16.292 20.43c.019.412-.128.803-.415 1.104a1.493 1.493 0 0 1-1.088.467H2.505c-.416 0-.804-.167-1.092-.471a1.483 1.483 0 0 1-.411-1.108c.168-3.24.724-6.081 1.385-8.421H17a31.499 31.499 0 0 0-.306-1H2.684c1.009-3.223 2.157-5.331 2.547-6h10.972c.649 1.233 3.433 6.973 3.82 15.43Z"/></svg>