<svg xmlns="http://www.w3.org/2000/svg" width="512" height="512" data-name="Layer 1" viewBox="0 0 24 24"><path d="M18.5 11.854A3.507 3.507 0 0 0 21 8.5a3.504 3.504 0 0 0-6-2.455V1.5c0-.827-.673-1.5-1.5-1.5H7v1h2v7c0 .895-1.194 1.898-2.46 2.961C4.881 12.357 3 13.937 3 16c0 2.419 1.473 3.801 3.033 5.266.614.578.967 1.393.967 2.234v.5h10v-.5c0-.842.353-1.656.967-2.234C19.528 19.801 21 18.419 21 16c0-1.636-1.183-2.969-2.5-4.146Zm-3.466-3.771A2.49 2.49 0 0 1 17.5 6C18.879 6 20 7.121 20 8.5s-1.118 2.496-2.494 2.5l-.046-.039c-1.229-1.032-2.391-2.008-2.457-2.883l.031.005Zm-7.851 3.644C8.631 10.51 9.999 9.361 9.999 8V1h3.5c.275 0 .5.225.5.5V8c0 1.36 1.368 2.51 2.816 3.727.872.733 1.76 1.48 2.376 2.273H4.807c.616-.794 1.504-1.541 2.376-2.273ZM19.999 16c0 1.986-1.214 3.125-2.719 4.537A4.094 4.094 0 0 0 16.03 23H7.969a4.094 4.094 0 0 0-1.25-2.463C5.214 19.125 4 17.986 4 16c0-.344.075-.676.208-1h15.584c.133.324.208.656.208 1Z"/></svg>