<svg xmlns="http://www.w3.org/2000/svg" width="512" height="512" data-name="Layer 1" viewBox="0 0 24 24"><path d="M22 19.293V9.707l1.969-1.969-.707-.707L21 9.293V14h-3v-.5a2.503 2.503 0 0 0-2.229-2.485L10.929 4.07A2.5 2.5 0 0 0 8.878 3H4v8H2.5A2.503 2.503 0 0 0 0 13.5V18h1v1c0 1.654 1.346 3 3 3s3-1.346 3-3v-1h4v1c0 1.654 1.346 3 3 3s3-1.346 3-3v-1h1v-3h3v4.707l2.281 2.281.707-.707L22 19.293ZM5 4h3.879c.49 0 .95.24 1.23.643L14.541 11H5V4Zm1 15c0 1.103-.897 2-2 2s-2-.897-2-2v-1h4v1Zm10 0c0 1.103-.897 2-2 2s-2-.897-2-2v-1h4v1Zm1-2H1v-3.5c0-.827.673-1.5 1.5-1.5h13c.827 0 1.5.673 1.5 1.5V17Z"/></svg>