<svg xmlns="http://www.w3.org/2000/svg" width="512" height="512" data-name="Layer 1" viewBox="0 0 24 24"><path d="M14.041 13.641 8.593 9.377a1.768 1.768 0 0 0-2.185 0L.959 13.641A2.482 2.482 0 0 0 0 15.61v8.391h15v-8.392c0-.774-.35-1.492-.959-1.969ZM14 23H1v-7.391c0-.465.21-.896.576-1.182l5.448-4.264a.772.772 0 0 1 .952 0l5.448 4.264c.366.286.576.717.576 1.182V23Zm-9-3h5v-5H5v5Zm1-4h3v3H6v-3Zm11 7h5.302l-3.726-7h2.212l-4.206-7h2.795l-4.038-7.594c-.339-.474-1.295-.528-1.708.033l-3.509 6.595-.295-.231a3.806 3.806 0 0 0-.53-.348L12.796.886a2.068 2.068 0 0 1 3.394 0L21.044 10h-2.693l4.206 7h-2.315l3.726 7h-6.967v-1Z"/></svg>