<svg xmlns="http://www.w3.org/2000/svg" width="512" height="512" data-name="Layer 1" viewBox="0 0 24 24"><path d="M4 23h16v1H4v-1Zm19.884-5.51-2.6 1.301-1.3 2.6-1.3-2.6-2.6-1.301 2.6-1.301 1.3-2.6 1.3 2.6 2.6 1.301Zm-2.235 0-1.11-.555-.555-1.109-.555 1.109-1.109.555 1.109.555.555 1.109.555-1.109 1.11-.555ZM4.606 4.63 3.483 6.875 2.36 4.63.116 3.507l2.246-1.123L3.484.139l1.123 2.245 2.246 1.123L4.607 4.63Zm-.745-.746.754-.377-.754-.377-.377-.755-.377.755-.754.377.754.377.377.755.377-.755ZM18 9H6v1h12V9Zm-1 6v-1H7v1h10ZM15 0H9v1h6V0Z"/></svg>