<svg xmlns="http://www.w3.org/2000/svg" width="512" height="512" data-name="Layer 1" viewBox="0 0 24 24"><path d="M12.5 20h-1v-.545c0-2.207 1.271-4.174 3.238-5.011 3.073-1.308 4.77-4.537 4.125-7.854-.531-2.731-2.723-4.923-5.454-5.453-2.103-.408-4.238.123-5.859 1.458A6.98 6.98 0 0 0 5 7.999H4a7.98 7.98 0 0 1 2.914-6.176C8.765.298 11.202-.312 13.6.156c3.127.607 5.637 3.117 6.245 6.244.736 3.784-1.203 7.47-4.715 8.964-1.597.68-2.629 2.285-2.629 4.091V20Zm-1.538 3a1 1 0 1 0 2 0 1 1 0 0 0-2 0Z"/></svg>