<svg xmlns="http://www.w3.org/2000/svg" width="512" height="512" data-name="Layer 1" viewBox="0 0 24 24"><path d="M12 5c-3.859 0-7 3.141-7 7s3.141 7 7 7 7-3.141 7-7-3.141-7-7-7Zm0 13c-3.309 0-6-2.691-6-6s2.691-6 6-6 6 2.691 6 6-2.691 6-6 6Zm1-9a1 1 0 1 1-2 0 1 1 0 0 1 2 0Zm3 3a1 1 0 1 1-2 0 1 1 0 0 1 2 0Zm-6 0a1 1 0 1 1-2 0 1 1 0 0 1 2 0Zm3 3a1 1 0 1 1-2 0 1 1 0 0 1 2 0Zm9.579-5.998a10.928 10.928 0 0 0-.982-2.358 1.502 1.502 0 0 0-.051-2.068l-2.121-2.121a1.49 1.49 0 0 0-1.061-.439c-.379 0-.736.14-1.012.394a10.964 10.964 0 0 0-2.354-.981A1.502 1.502 0 0 0 13.5.002h-3c-.803 0-1.46.634-1.498 1.427-.81.23-1.599.56-2.354.981a1.486 1.486 0 0 0-1.012-.394c-.4 0-.777.156-1.061.439L2.454 4.576a1.503 1.503 0 0 0-.051 2.068c-.421.75-.75 1.54-.982 2.358A1.502 1.502 0 0 0 0 10.5v3c0 .801.631 1.457 1.421 1.498.232.817.562 1.608.982 2.358a1.497 1.497 0 0 0 .05 2.069l2.121 2.121c.283.283.66.439 1.061.439.379 0 .736-.14 1.012-.394.755.422 1.544.751 2.354.981a1.502 1.502 0 0 0 1.498 1.427h3c.803 0 1.46-.634 1.498-1.427.81-.23 1.599-.56 2.354-.981.276.254.633.394 1.012.394.4 0 .777-.156 1.061-.439l2.121-2.121c.283-.283.439-.661.439-1.062 0-.377-.138-.731-.389-1.007.421-.75.75-1.541.982-2.358a1.502 1.502 0 0 0 1.421-1.498v-3c0-.801-.631-1.457-1.421-1.498ZM23 13.5c0 .275-.225.5-.5.5h-.699l-.093.381a9.883 9.883 0 0 1-1.164 2.795l-.205.335.5.5a.498.498 0 0 1 0 .707l-2.121 2.121a.5.5 0 0 1-.708-.001l-.504-.501-.334.202a9.93 9.93 0 0 1-2.79 1.163l-.382.093v.705c0 .275-.225.5-.5.5h-3a.501.501 0 0 1-.5-.5v-.705l-.382-.093a9.93 9.93 0 0 1-2.79-1.163l-.334-.202-.505.502a.5.5 0 0 1-.707 0l-2.121-2.121a.497.497 0 0 1 0-.707l.5-.5-.205-.335a9.871 9.871 0 0 1-1.164-2.795L2.199 14H1.5a.501.501 0 0 1-.5-.5v-3c0-.275.225-.5.5-.5h.699l.093-.381a9.883 9.883 0 0 1 1.164-2.795l.205-.335-.5-.5a.5.5 0 0 1 0-.707l2.121-2.121a.5.5 0 0 1 .708.001l.504.501.334-.202a9.93 9.93 0 0 1 2.79-1.163L10 2.205V1.5c0-.275.225-.5.5-.5h3c.275 0 .5.225.5.5v.705l.382.093a9.93 9.93 0 0 1 2.79 1.163l.334.202.505-.502a.5.5 0 0 1 .707 0l2.121 2.121a.5.5 0 0 1 0 .707l-.5.5.205.335a9.871 9.871 0 0 1 1.164 2.795l.093.381h.699c.275 0 .5.225.5.5v3Z"/></svg>