<svg xmlns="http://www.w3.org/2000/svg" width="512" height="512" data-name="Layer 1" viewBox="0 0 24 24"><path d="M12 19h-1V8h1v11Zm-.5 2a1 1 0 1 0 0 2 1 1 0 0 0 0-2Zm5.502-13.978A7.726 7.726 0 0 0 9.75 2C5.477 2 2 5.477 2 9.75c0 .763.116 1.523.345 2.267A5.437 5.437 0 0 0 0 16.5C0 19.532 2.467 22 5.5 22H8v-1H5.5A4.505 4.505 0 0 1 1 16.5c0-1.582.822-3.021 2.2-3.847l.354-.212-.141-.388a6.736 6.736 0 0 1-.412-2.304 6.758 6.758 0 0 1 6.75-6.75 6.732 6.732 0 0 1 6.417 4.661l.11.339.355.007c3.511.071 6.368 2.984 6.368 6.493 0 3.584-2.916 6.5-6.5 6.5h-1.5v1h1.5c4.136 0 7.5-3.364 7.5-7.5 0-3.933-3.108-7.216-6.998-7.478Z"/></svg>