<svg xmlns="http://www.w3.org/2000/svg" width="512" height="512" data-name="Layer 1" viewBox="0 0 24 24"><path d="M21.5 1H24V0h-2.5A2.503 2.503 0 0 0 19 2.5v14.632l-3.894 1.21-3.125-9.831L.079 12.296l2.978 9.79-3.013.936.297.955 17.201-5.345A3.478 3.478 0 0 0 17 20.5c0 1.93 1.57 3.5 3.5 3.5s3.5-1.57 3.5-3.5a3.504 3.504 0 0 0-4-3.464V2.5c0-.827.673-1.5 1.5-1.5ZM1.323 12.95 11.33 9.767l2.82 8.872L4.011 21.79l-2.688-8.84ZM23 20.5c0 1.378-1.121 2.5-2.5 2.5S18 21.878 18 20.5s1.121-2.5 2.5-2.5 2.5 1.122 2.5 2.5ZM8.856 13.325l.303.953-3.623 1.153-.303-.953 3.623-1.153Z"/></svg>