<svg xmlns="http://www.w3.org/2000/svg" width="512" height="512" data-name="Layer 1" viewBox="0 0 24 24"><path d="M20.5 8a3.505 3.505 0 0 0-3.464 3H5.5C4.673 11 4 10.327 4 9.5V6.964A3.505 3.505 0 0 0 7 3.5C7 1.57 5.43 0 3.5 0S0 1.57 0 3.5a3.505 3.505 0 0 0 3 3.464v10.072A3.505 3.505 0 0 0 0 20.5C0 22.43 1.57 24 3.5 24S7 22.43 7 20.5a3.505 3.505 0 0 0-3-3.464v-5.537c.418.314.937.501 1.5.501h11.536a3.505 3.505 0 0 0 3.464 3c1.93 0 3.5-1.57 3.5-3.5S22.43 8 20.5 8ZM1 3.5C1 2.122 2.121 1 3.5 1S6 2.122 6 3.5 4.879 6 3.5 6 1 4.878 1 3.5Zm5 17C6 21.878 4.879 23 3.5 23S1 21.878 1 20.5 2.121 18 3.5 18 6 19.122 6 20.5ZM20.5 14c-1.379 0-2.5-1.122-2.5-2.5S19.121 9 20.5 9s2.5 1.122 2.5 2.5-1.121 2.5-2.5 2.5Z"/></svg>