<svg xmlns="http://www.w3.org/2000/svg" width="512" height="512" data-name="Layer 1" viewBox="0 0 24 24"><path d="m24.001 23.294-6.597-6.597A9.949 9.949 0 0 0 20 10c0-5.514-4.486-10-10-10S0 4.486 0 10s4.486 10 10 10a9.949 9.949 0 0 0 6.697-2.596l6.597 6.597.707-.707ZM1 10c0-4.963 4.038-9 9-9s9 4.037 9 9-4.037 9-9 9-9-4.037-9-9Zm13-2.5V8h-1v-.5c0-.827-.673-1.5-1.5-1.5h-3C7.673 6 7 6.673 7 7.5c0 .875.628 1.612 1.493 1.752l3.173.509A2.764 2.764 0 0 1 14 12.5c0 1.379-1.122 2.5-2.5 2.5h-1v2h-1v-2h-1A2.503 2.503 0 0 1 6 12.5V12h1v.5c0 .827.673 1.5 1.5 1.5h3c.827 0 1.5-.673 1.5-1.5 0-.875-.628-1.612-1.493-1.752l-3.173-.509A2.764 2.764 0 0 1 6 7.5C6 6.121 7.122 5 8.5 5h1V3h1v2h1C12.878 5 14 6.121 14 7.5Z"/></svg>