<svg xmlns="http://www.w3.org/2000/svg" width="512" height="512" data-name="Layer 1" viewBox="0 0 24 24"><path d="M17.5 11c-3.584 0-6.5 2.916-6.5 6.5s2.917 6.5 6.5 6.5 6.5-2.916 6.5-6.5-2.916-6.5-6.5-6.5Zm0 12c-3.033 0-5.5-2.467-5.5-5.5s2.467-5.5 5.5-5.5 5.5 2.467 5.5 5.5-2.468 5.5-5.5 5.5Zm-8.475-5H1v-1.468c0-1.53.155-3.046.463-4.532H4v3h1v-3h6.026c.306-.36.641-.695 1.003-1H1.694c.182-.714.4-1.421.654-2.118l2.143-5.895A1.504 1.504 0 0 1 5.901 2h12.198c.629 0 1.195.396 1.41.987l2.142 5.889.002.005c.179.493.335.993.479 1.496.466.303.899.65 1.296 1.036a23.376 23.376 0 0 0-.836-2.874l-2.144-5.895a2.508 2.508 0 0 0-2.35-1.646H5.901a2.505 2.505 0 0 0-2.349 1.646L1.408 8.54A23.294 23.294 0 0 0 0 16.532V19h2v4h5v-4h2.14a8.64 8.64 0 0 1-.115-1ZM6 22H3v-3h3v3Zm13.864-4.399c.197.368.18.81-.048 1.153l-1.892 3.012-.848-.532 1.898-3.022a.132.132 0 0 0 .008-.138c-.015-.027-.042-.059-.087-.059h-2.78a1.11 1.11 0 0 1-.902-.447 1.078 1.078 0 0 1-.165-.965l.051-.115 1.974-3.248.855.52-1.917 3.154c.021.079.051.102.104.102h2.78c.402 0 .773.225.968.585Z"/></svg>