<svg xmlns="http://www.w3.org/2000/svg" width="512" height="512" data-name="Layer 1" viewBox="0 0 24 24"><path d="M12 0C5.38 0 0 5.38 0 12s5.38 12 12 12 12-5.38 12-12S18.62 0 12 0Zm0 23C5.93 23 1 18.07 1 12S5.93 1 12 1s11 4.93 11 11-4.93 11-11 11Zm0-15c1.1 0 2-.9 2-2s-.9-2-2-2-2 .9-2 2 .9 2 2 2Zm0-3c.55 0 1 .45 1 1s-.45 1-1 1-1-.45-1-1 .45-1 1-1Zm6.19 2.96-.37-.93-4.91 1.96H11.1L6.19 7.03l-.37.93 4.2 1.68v4.72l-2.45 4.39.87.49 2.08-3.74h2.97l2.08 3.74.87-.49-2.45-4.41V9.63l4.2-1.67Zm-5.2 6.54H11V10h2v4.5Z"/></svg>