<svg xmlns="http://www.w3.org/2000/svg" width="512" height="512" data-name="Layer 1" viewBox="0 0 24 24"><path d="M17.5 11c-3.584 0-6.5 2.916-6.5 6.5s2.916 6.5 6.5 6.5 6.5-2.916 6.5-6.5-2.916-6.5-6.5-6.5Zm0 12c-3.032 0-5.5-2.467-5.5-5.5s2.468-5.5 5.5-5.5 5.5 2.467 5.5 5.5-2.468 5.5-5.5 5.5Zm.5-5.707 1.854 1.854-.707.707-2.146-2.146v-3.207h1v2.793ZM21.5 4H18V1.5c0-.827-.673-1.5-1.5-1.5h-9C6.673 0 6 .673 6 1.5V4H2.5A2.503 2.503 0 0 0 0 6.5V24h12.023a8.62 8.62 0 0 1-1.004-1H1V13h9.288c.22-.351.464-.685.732-1H1V6.5C1 5.673 1.673 5 2.5 5h19c.827 0 1.5.673 1.5 1.5v4.52c.36.306.695.642 1 1.004V6.5C24 5.122 22.879 4 21.5 4ZM7 4V1.5a.5.5 0 0 1 .5-.5h9a.5.5 0 0 1 .5.5V4H7Z"/></svg>