<svg xmlns="http://www.w3.org/2000/svg" width="512" height="512" data-name="Layer 1" viewBox="0 0 24 24"><path d="M20.97 6.88A3.498 3.498 0 0 0 17.52 4h-1.03a2.5 2.5 0 0 0-2-4h-5a2.5 2.5 0 0 0-2 4H6.46c-1.7 0-3.15 1.21-3.45 2.88L.69 20H8c0 2.21 1.79 4 4 4s4-1.79 4-4h7.31L20.97 6.88ZM8 2.5C8 1.67 8.67 1 9.5 1h5c.83 0 1.5.67 1.5 1.5S15.33 4 14.5 4h-5C8.67 4 8 3.33 8 2.5ZM1.88 19 4.02 7.06A2.5 2.5 0 0 1 6.48 5h11.05a2.5 2.5 0 0 1 2.46 2.06L22.12 19H1.88ZM12 23c-1.65 0-3-1.35-3-3h6c0 1.65-1.35 3-3 3Z"/></svg>