<svg xmlns="http://www.w3.org/2000/svg" width="512" height="512" data-name="Layer 1" viewBox="0 0 24 24"><path d="M7 14c2.21 0 4-1.79 4-4S9.21 6 7 6s-4 1.79-4 4 1.79 4 4 4Zm0-7c1.65 0 3 1.35 3 3s-1.35 3-3 3-3-1.35-3-3 1.35-3 3-3Zm7 11.5V24h-1v-5.5c0-.83-.67-1.5-1.5-1.5h-9c-.83 0-1.5.67-1.5 1.5V24H0v-5.5A2.5 2.5 0 0 1 2.5 16h9a2.5 2.5 0 0 1 2.5 2.5Zm6-11.79-5.5 5.5-1.54-1.54c.02-.22.04-.44.04-.67 0-.26-.02-.51-.05-.75l1.55 1.55 4.79-4.79H15v-1h4.5c.83 0 1.5.67 1.5 1.5v4.5h-1v-4.3Zm4-4.21V18h-8.1c-.07-.35-.18-.68-.33-1H23V2.5c0-.83-.67-1.5-1.5-1.5h-14C6.67 1 6 1.67 6 2.5v1.59c-.34.06-.68.15-1 .26V2.5A2.5 2.5 0 0 1 7.5 0h14A2.5 2.5 0 0 1 24 2.5Z"/></svg>