<svg xmlns="http://www.w3.org/2000/svg" width="512" height="512" data-name="Layer 1" viewBox="0 0 24 24"><path d="M18.5 20c3.033 0 5.5-2.691 5.5-6s-2.467-6-5.5-6c-.427 0-.835.059-1.226.162C17.686 7.427 18 6.54 18 5.5 18 2.468 15.308 0 12 0S6 2.468 6 5.5c0 1.04.313 1.927.726 2.662A4.791 4.791 0 0 0 5.5 8C2.467 8 0 10.691 0 14s2.467 6 5.5 6 4.922-2.369 5.998-4.119C11.474 20.603 9.962 23 7 23H5v1h14v-1h-2c-2.962 0-4.474-2.397-4.498-7.119C13.578 17.63 15.472 20 18.5 20Zm-13-1C3.019 19 1 16.757 1 14s2.019-5 4.5-5c2 0 2.995 1.245 2.995 1.245s1.945 2.06 2.917 3.769C11.206 14.718 8.681 19 5.501 19Zm8.414 4h-3.828c.794-.627 1.479-1.603 1.914-3.101.435 1.498 1.12 2.474 1.914 3.101ZM12 13.031c-.591-.984-1.629-2.598-3.076-3.733C8.223 8.688 7 7.36 7 5.499c0-2.481 2.243-4.5 5-4.5s5 2.019 5 4.5c0 1.861-1.223 3.188-1.924 3.799-1.447 1.134-2.484 2.748-3.076 3.733Zm3.503-2.789S16.5 9 18.5 9c2.481 0 4.5 2.243 4.5 5s-2.021 4.879-4.5 5c-3.09.151-5.035-3.525-5.911-4.986 0 0 1.437-2.424 2.915-3.772Z"/></svg>