<svg xmlns="http://www.w3.org/2000/svg" width="512" height="512" data-name="Layer 1" viewBox="0 0 24 24"><path d="M21.5 0h-19A2.503 2.503 0 0 0 0 2.5V20h7.105l3.898 3.284c.285.253.645.379 1.001.379.352 0 .702-.123.978-.368L16.967 20h7.032V2.5c0-1.378-1.121-2.5-2.5-2.5ZM23 19h-6.392l-4.276 3.536a.503.503 0 0 1-.674-.008L7.47 19.001H1V2.5C1 1.673 1.673 1 2.5 1h19c.827 0 1.5.673 1.5 1.5V19Zm-7.111-8.481.707.707-3.202 3.203c-.384.384-.889.576-1.394.576s-1.01-.192-1.394-.576l-3.202-3.203.707-.707 3.202 3.203c.057.057.12.106.187.146V5h1v8.868a.985.985 0 0 0 .187-.146l3.202-3.203Z"/></svg>