<svg xmlns="http://www.w3.org/2000/svg" data-name="Layer 1" viewBox="0 0 24 24"><path d="M12.5 15.051V11h-1v4.051c-1.14.232-2 1.242-2 2.449 0 1.379 1.122 2.5 2.5 2.5s2.5-1.121 2.5-2.5c0-1.208-.86-2.217-2-2.449ZM12 19c-.827 0-1.5-.673-1.5-1.5S11.173 16 12 16s1.5.673 1.5 1.5S12.827 19 12 19Zm4.5-6.181V4.5C16.5 2.019 14.481 0 12 0S7.5 2.019 7.5 4.5v8.319c-1.626 1.561-2.32 3.805-1.859 6.049.508 2.472 2.506 4.476 4.971 4.987.459.096.92.143 1.376.143A6.494 6.494 0 0 0 16.5 12.819Zm-1.031 8.949c-1.291 1.051-2.988 1.454-4.654 1.108-2.08-.432-3.766-2.124-4.195-4.21-.404-1.968.236-3.933 1.714-5.258l.166-.148V4.5C8.5 2.57 10.07 1 12 1s3.5 1.57 3.5 3.5v8.761l.166.148A5.507 5.507 0 0 1 17.5 17.5c0 1.662-.74 3.218-2.031 4.269Z"/></svg>