<svg xmlns="http://www.w3.org/2000/svg" width="512" height="512" data-name="Layer 1" viewBox="0 0 24 24"><path d="M21.5 6H20V2.5C20 1.122 18.879 0 17.5 0h-11A2.503 2.503 0 0 0 4 2.5V6H2.5A2.503 2.503 0 0 0 0 8.5V24h24V8.5C24 7.122 22.879 6 21.5 6ZM1 23V8.5C1 7.673 1.673 7 2.5 7H4v16H1Zm18 0H5V2.5C5 1.673 5.673 1 6.5 1h11c.827 0 1.5.673 1.5 1.5V23Zm4 0h-3V7h1.5c.827 0 1.5.673 1.5 1.5V23ZM8 14h3v1H8v-1Zm5 0h3v1h-3v-1Zm-5 4h3v1H8v-1Zm5 0h3v1h-3v-1Zm-.5-10.5V10h-1V7.5H9v-1h2.5V4h1v2.5H15v1h-2.5Z"/></svg>