<svg xmlns="http://www.w3.org/2000/svg" width="512" height="512" data-name="Layer 1" viewBox="0 0 24 24"><path d="M8.006 7.062 6.84 9.86l-.923-.385 1.166-2.798.923.385ZM24 12c0 6.617-5.383 12-12 12S0 18.617 0 12 5.383 0 12 0s12 5.383 12 12ZM13.145 1.059l-1.456 2.812 3.312-.552v2.84l-3.738 1.603-1.129 2.635.386.579 1.873-2.498 1.07 1.07-.228-.683 2.03-.667L16.385 6h3.616v4h-2.338l2.338.779v2.135l-.329.329 2.983 1.499A10.97 10.97 0 0 0 23.001 12c0-5.679-4.326-10.366-9.855-10.941ZM12 23v-3.5l-2-.5-2-2v-2l2.5-2H13l3 2h1.5l1.51 1.51 2.798.468c.208-.408.391-.831.548-1.267l-4.369-2.197 1.014-1.014v-1l-3-1V9h3V7h-2.002L15.97 9.02l-1.468.482.499 1.498-1 .5-1.5-1.5-1.5 2h-1l-1-1.5 1.5-3.5 3.5-1.5v-1l-3 .5-.502-1.004 1.551-2.995h-.049C5.935 1 1 5.935 1 12s4.935 11 11 11Zm9.278-5.097-2.749-.46L17.086 16h-1.389l-3-2H10.85l-1.851 1.48v1.105l1.511 1.511 2.489.622v4.235a11.011 11.011 0 0 0 8.278-5.051Z"/></svg>