<svg xmlns="http://www.w3.org/2000/svg" width="512" height="512" data-name="Layer 1" viewBox="0 0 24 24"><path d="M24 15.5c0-2.721-1.683-5.054-4.061-6.021a8.4 8.4 0 0 1-.184 1.01A5.505 5.505 0 0 1 23 15.5a5.489 5.489 0 0 1-2.317 4.476l-5.884-5.884A6.492 6.492 0 0 0 18 8.5C18 4.916 15.084 2 11.5 2h-5c-1.062 0-2.107.26-3.039.754L.754.047.047.754l23.199 23.199.707-.707-2.553-2.553A6.489 6.489 0 0 0 24 15.5Zm-13.064-5.271A5.463 5.463 0 0 1 12.5 10h2.149c.149-.311.249-.646.301-1h-2.449c-.829 0-1.62.159-2.348.445L4.207 3.5A5.51 5.51 0 0 1 6.5 3h5C14.532 3 17 5.468 17 8.5a5.502 5.502 0 0 1-2.933 4.86l-3.131-3.131ZM10.457 14l1 1H9.051c.051-.354.151-.689.301-1h1.106Zm-6.212-.489a8.4 8.4 0 0 0-.184 1.01C1.683 13.554 0 11.221 0 8.5a6.5 6.5 0 0 1 1.207-3.749l.719.719A5.498 5.498 0 0 0 .999 8.5a5.506 5.506 0 0 0 3.245 5.011ZM17.457 21l.932.932c-.291.04-.586.068-.889.068h-5A6.508 6.508 0 0 1 6 15.5c0-1.654.626-3.161 1.647-4.309l.707.707A5.469 5.469 0 0 0 7 15.501c0 3.032 2.468 5.5 5.5 5.5h4.957Z"/></svg>