<svg xmlns="http://www.w3.org/2000/svg" width="512" height="512" data-name="Layer 1" viewBox="0 0 24 24"><path d="M12 0C5.383 0 0 5.383 0 12s5.383 12 12 12h12V12c0-6.617-5.383-12-12-12Zm11 23H12C5.935 23 1 18.065 1 12S5.935 1 12 1s11 4.935 11 11v11ZM14.75 7c-1.199 0-2.189.546-2.75 1.421C11.439 7.546 10.449 7 9.25 7 7.458 7 6 8.557 6 10.47c0 3.334 5.481 7.18 5.715 7.342l.285.197.285-.197C12.518 17.65 18 13.804 18 10.47 18 8.557 16.542 7 14.75 7ZM12 16.786c-1.625-1.191-5-4.121-5-6.316C7 9.109 8.009 8 9.25 8c1.325 0 2.25.904 2.25 2.2v.8h1v-.8c0-1.296.925-2.2 2.25-2.2C15.991 8 17 9.108 17 10.47c0 2.195-3.375 5.125-5 6.316Z"/></svg>