<svg xmlns="http://www.w3.org/2000/svg" width="512" height="512" data-name="Layer 1" viewBox="0 0 24 24"><path d="M8.5 7C9.878 7 11 5.878 11 4.5 11 3.284 9.245.995 8.893.548L8.5.05l-.393.498C7.755.995 6 3.283 6 4.5 6 5.878 7.122 7 8.5 7Zm0-5.312C9.217 2.676 10 3.96 10 4.5 10 5.327 9.327 6 8.5 6S7 5.327 7 4.5c0-.54.783-1.824 1.5-2.812ZM20.5 17c-.862 0-1.691.316-2.333.892l.667.745A2.492 2.492 0 0 1 20.501 18c1.378 0 2.5 1.122 2.5 2.5s-1.122 2.5-2.5 2.5h-6.5V10.5c0-1.378-1.122-2.5-2.5-2.5h-6a2.503 2.503 0 0 0-2.5 2.5V23H0v1h20.5c1.93 0 3.5-1.57 3.5-3.5S22.43 17 20.5 17ZM4 10.5C4 9.673 4.673 9 5.5 9h6c.827 0 1.5.673 1.5 1.5V23H4V10.5Z"/></svg>