<svg xmlns="http://www.w3.org/2000/svg" width="512" height="512" data-name="Layer 1" viewBox="0 0 24 24"><path d="M9.696 7.96c-1.606.686-2.912 1.767-3.774 3.128l-.845-.535C6.049 9.02 7.511 7.805 9.304 7.04l.393.92Zm5-.92-.393.92c1.606.686 2.912 1.767 3.774 3.128l.845-.535c-.972-1.533-2.434-2.748-4.227-3.513Zm2.509 7.416C17.184 14.471 15.056 16 12.5 16c-2.781 0-5.165-1.872-5.188-1.891l-.625.781c.108.086 2.673 2.109 5.813 2.109.17 0 .335-.012.5-.023v3.523a.5.5 0 0 0 1 0v-3.648a10.26 10.26 0 0 0 3-1.096v7.743a.5.5 0 0 0 1 0v-9.621l-.795.579ZM12 0C5.383 0 0 5.383 0 12s5.383 12 12 12c1.037 0 2.039-.146 3-.395v-1.032c-.955.271-1.959.426-3 .426-6.065 0-11-4.935-11-11S5.935 1 12 1s11 4.935 11 11c0 2.912-1.146 5.557-3 7.526v1.392c2.448-2.198 4-5.377 4-8.919C24 5.383 18.617 0 12 0Z"/></svg>