<svg xmlns="http://www.w3.org/2000/svg" width="512" height="512" data-name="Layer 1" viewBox="0 0 24 24"><path d="M24 24H0V2.5A2.5 2.5 0 0 1 2.5 0h19A2.5 2.5 0 0 1 24 2.5V24ZM1 23h22V2.5c0-.83-.67-1.5-1.5-1.5h-19C1.67 1 1 1.67 1 2.5V23Zm17-12c-.55 0-1 .45-1 1s.45 1 1 1 1-.45 1-1-.45-1-1-1Zm-6 0c-.55 0-1 .45-1 1s.45 1 1 1 1-.45 1-1-.45-1-1-1Zm-6 0c-.55 0-1 .45-1 1s.45 1 1 1 1-.45 1-1-.45-1-1-1Zm7 7c0-.55-.45-1-1-1s-1 .45-1 1 .45 1 1 1 1-.45 1-1Zm0-12c0-.55-.45-1-1-1s-1 .45-1 1 .45 1 1 1 1-.45 1-1Z"/></svg>