<svg xmlns="http://www.w3.org/2000/svg" width="512" height="512" data-name="Layer 1" viewBox="0 0 24 24"><path d="m1.755 13.77 4.271-4.253.705.709-4.27 4.252a5.006 5.006 0 0 0 0 7.072 4.994 4.994 0 0 0 7.056 0l.003.003 1.595-1.595c.288.031.579.05.873.05.173 0 .344-.014.515-.025l-2.278 2.278c-.012.012-.028.016-.041.027a5.97 5.97 0 0 1-4.197 1.721 5.973 5.973 0 0 1-4.235-1.751 6.008 6.008 0 0 1 0-8.487Zm10.234 4.233c.718 0 1.434-.14 2.115-.397l-.8-.801c-1.672.456-3.532.049-4.842-1.261a4.941 4.941 0 0 1-1.39-2.815l-.838.838c.263.982.753 1.915 1.522 2.684h.001a5.97 5.97 0 0 0 4.234 1.751ZM.062.763l23.18 23.181.707-.707-7.355-7.355 5.657-5.641a6.008 6.008 0 0 0 0-8.487 5.993 5.993 0 0 0-8.434-.029c-.012.01-.027.014-.039.026L11.5 4.029c.171-.011.342-.025.515-.025.294 0 .585.019.873.05l1.595-1.595.003.003a4.998 4.998 0 0 1 7.056 0 5.006 5.006 0 0 1 0 7.072l-5.658 5.641-7.018-7.018c1.958-1.605 4.848-1.515 6.675.31a4.935 4.935 0 0 1 1.39 2.815l.838-.838c-.263-.982-.753-1.915-1.522-2.684-2.217-2.217-5.737-2.303-8.089-.31L.769.056.062.763Z"/></svg>