<svg xmlns="http://www.w3.org/2000/svg" width="512" height="512" data-name="Layer 1" viewBox="0 0 24 24"><path d="M24 12c0 3.542-1.552 6.721-4 8.919v-1.392a10.95 10.95 0 0 0 3-7.526c0-6.065-4.935-11-11-11S1 5.935 1 12c0 3.896 2.042 7.317 5.106 9.272.094.494.256.969.473 1.42C2.682 20.707 0 16.665 0 12 0 5.383 5.383 0 12 0s12 5.383 12 12ZM9 11h1c0-1.889-1.069-4-2.5-4S5 9.111 5 11h1c0-1.43.785-3 1.5-3S9 9.57 9 11Zm7.5-4C15.069 7 14 9.111 14 11h1c0-1.43.785-3 1.5-3S18 9.57 18 11h1c0-1.889-1.069-4-2.5-4Zm-2.663 15.17a2.837 2.837 0 0 1-4.007 0A2.816 2.816 0 0 1 9 20.166v-.786l6.322-6.323-.707-.707L9 17.966V15H8v5.166a3.81 3.81 0 0 0 1.123 2.711c.748.747 1.729 1.121 2.71 1.121s1.963-.374 2.71-1.121l3.917-3.916-.707-.707-3.917 3.916Zm-1.823-4.18.707.707 4.859-4.86-.707-.707-4.859 4.86Zm2.18 2.18 4.093-4.094-.707-.707-4.093 4.094.707.707Z"/></svg>