<svg xmlns="http://www.w3.org/2000/svg" data-name="Layer 1" viewBox="0 0 24 24"><path d="M24 8.059C24 3.636 18.617.037 12 .037S0 3.651 0 8.095v7.714C0 20.326 5.383 24 12 24s12-3.675 12-8.191v-7.75Zm-1 0c0 1.042-.367 2.031-1.022 2.919-.275.019-1.5-.004-1.535-.005-1.374-.099-3.192-.499-4.018-1.843-.841-1.788-.326-3.311 1.408-7.023 3.101 1.243 5.168 3.445 5.168 5.951ZM8.916 6.696C9.734 7.565 10.666 8 12 8s2.271-.438 3.09-1.311c-.138 1.015-.008 1.933.456 2.917a4.212 4.212 0 0 0 1.422 1.39c-1.361.065-2.53.224-3.194.558-.901.454-1.446 1.153-1.775 1.846-.329-.692-.874-1.392-1.775-1.846-.667-.337-1.848-.495-3.22-.559a4.303 4.303 0 0 0 1.473-1.438 4.86 4.86 0 0 0 .438-2.861Zm-5.401 5.279c1.315-.028 5.119-.103 6.26.472 1.174.592 1.549 1.806 1.669 2.545-3.529-.111-6.625-1.271-8.511-2.991.181-.003.376-.011.582-.025Zm10.71.472c1.124-.566 4.837-.503 6.203-.473.22.016.428.024.621.028-1.888 1.721-4.975 2.879-8.493 2.99.12-.739.495-1.953 1.669-2.545Zm2.65-10.681c-1.903 3.803-2.667 5.235-4.874 5.235S9.033 5.576 7.14 1.792a15.756 15.756 0 0 1 4.861-.754c1.749 0 3.404.262 4.874.728Zm-10.691.376c1.72 3.688 2.23 5.204 1.417 6.94-1.262 2.055-4.743 1.954-5.596 1.894C1.36 10.098 1 9.122 1 8.094c0-2.467 2.096-4.687 5.183-5.953Zm16.817 13.667c0 3.966-4.935 7.191-11 7.191S1 19.774 1 15.809v-4.556C2.854 14.045 7.086 16 12 16s9.146-1.965 11-4.769v4.578Z"/></svg>