<svg xmlns="http://www.w3.org/2000/svg" width="512" height="512" data-name="Layer 1" viewBox="0 0 24 24"><path d="M13 12a1 1 0 1 1-2 0 1 1 0 0 1 2 0Zm11 5.579-.875-.992a10.427 10.427 0 0 0-4.698-3.049c.181 1.303.151 2.587-.163 3.857-.959 3.887-4.538 6.603-8.703 6.604h-3.14l.992-.875a10.427 10.427 0 0 0 3.049-4.698c-1.304.18-2.587.15-3.857-.163C2.717 17.304.001 13.726 0 9.561v-3.14l.875.992a10.427 10.427 0 0 0 4.698 3.049c-.181-1.303-.151-2.587.163-3.857C6.696 2.717 10.274.001 14.439 0h3.14l-.992.875a10.427 10.427 0 0 0-3.049 4.698c1.302-.182 2.586-.152 3.857.163 3.887.959 6.603 4.538 6.604 8.703v3.14Zm-1-3.14c0-3.645-2.458-6.896-5.844-7.732a7.644 7.644 0 0 0-3.38-.079 1.025 1.025 0 0 1-.97-.32 1.073 1.073 0 0 1-.222-1.035A11.429 11.429 0 0 1 15.037 1h-.598c-3.645 0-6.896 2.458-7.732 5.844a7.66 7.66 0 0 0-.079 3.38c.073.362-.047.724-.32.97-.279.25-.676.335-1.035.222A11.429 11.429 0 0 1 1 8.963v.598c0 3.645 2.458 6.896 5.844 7.732a7.615 7.615 0 0 0 3.38.079 1.022 1.022 0 0 1 .97.32c.25.278.335.675.222 1.035A11.429 11.429 0 0 1 8.963 23h.598c3.645 0 6.896-2.458 7.732-5.844a7.66 7.66 0 0 0 .079-3.38 1.021 1.021 0 0 1 .32-.97c.278-.25.675-.334 1.035-.222A11.429 11.429 0 0 1 23 15.037v-.598Z"/></svg>