<svg xmlns="http://www.w3.org/2000/svg" width="512" height="512" data-name="Layer 1" viewBox="0 0 24 24"><path d="M21.5 9h-11A2.502 2.502 0 0 0 8 11.5v.266A2.987 2.987 0 0 0 6 11c-1.654 0-3 1.346-3 3 0 .768.29 1.469.766 2H1V4H0v20h1v-3h22v3h1V11.5c0-1.379-1.121-2.5-2.5-2.5ZM9 11.5c0-.827.673-1.5 1.5-1.5h11c.827 0 1.5.673 1.5 1.5V16H9v-4.5ZM4 14c0-1.103.897-2 2-2s2 .897 2 2-.897 2-2 2-2-.897-2-2Zm-3 6v-3h22v3H1ZM24 4v1h-4.266l-2.879 3.454-2.458-5.899L12.767 5H5.999V4h6.232L14.603.445l2.542 6.101L19.266 4H24Z"/></svg>