<svg xmlns="http://www.w3.org/2000/svg" width="512" height="512" data-name="Layer 1" viewBox="0 0 24 24"><path d="M1 21h10v1H0V2.5A2.5 2.5 0 0 1 2.5 0h17A2.5 2.5 0 0 1 22 2.5v6.76c-.31-.25-.64-.48-1-.66V2.5c0-.83-.67-1.5-1.5-1.5h-17C1.67 1 1 1.67 1 2.5V21Zm4-4h6v1H4V4h5.21L5 8.21V17ZM5 6.79 6.79 5H5v1.79ZM9 9.2l4.21-4.21H17V8.2c.32-.09.66-.15 1-.18V4h-5.21L8 8.79V14h3v-1H9V9.21Zm15 5.79v6.5a2.5 2.5 0 0 1-2.5 2.5h-6a2.5 2.5 0 0 1-2.5-2.5v-6.5h2v-1.5c0-1.93 1.57-3.5 3.5-3.5s3.5 1.57 3.5 3.5v1.5h2Zm-8 0h5v-1.5a2.5 2.5 0 0 0-5 0v1.5Zm7 1h-9v5.5c0 .83.67 1.5 1.5 1.5h6c.83 0 1.5-.67 1.5-1.5v-5.5Zm-4 2.5h-1v2h1v-2Z"/></svg>