<svg xmlns="http://www.w3.org/2000/svg" width="512" height="512" data-name="Layer 1" viewBox="0 0 24 24"><path d="M20.5 0h-16A2.502 2.502 0 0 0 2 2.5v19C2 22.879 3.121 24 4.5 24H22V1.5c0-.827-.673-1.5-1.5-1.5Zm.5 23H4.5c-.827 0-1.5-.673-1.5-1.5S3.673 20 4.5 20H21v3Zm0-4H4.5c-.562 0-1.082.187-1.5.501V2.5C3 1.673 3.673 1 4.5 1h16c.275 0 .5.225.5.5V19ZM12 4c-3.309 0-6 2.691-6 6s2.691 6 6 6 6-2.691 6-6-2.691-6-6-6Zm0 1c.888 0 1.875 1.893 1.989 4.5h-3.978C10.125 6.893 11.112 5 12 5Zm-1.972.406c-.58.986-.956 2.424-1.018 4.094H7.026a5.013 5.013 0 0 1 3.003-4.094ZM7.025 10.5h1.984c.063 1.671.439 3.108 1.018 4.094A5.014 5.014 0 0 1 7.024 10.5ZM12 15c-.888 0-1.875-1.893-1.989-4.5h3.978C13.875 13.107 12.888 15 12 15Zm1.972-.406c.58-.986.956-2.424 1.018-4.094h1.984a5.013 5.013 0 0 1-3.003 4.094ZM14.99 9.5c-.063-1.671-.439-3.108-1.018-4.094A5.014 5.014 0 0 1 16.975 9.5h-1.984Z"/></svg>