<svg xmlns="http://www.w3.org/2000/svg" width="512" height="512" data-name="Layer 1" viewBox="0 0 24 24"><path d="M18.5 5C19.878 5 21 3.878 21 2.5S19.878 0 18.5 0 16 1.122 16 2.5 17.122 5 18.5 5Zm0-4c.827 0 1.5.673 1.5 1.5S19.327 4 18.5 4 17 3.327 17 2.5 17.673 1 18.5 1Zm5.544 21.013a3.476 3.476 0 0 1-1.995 1.788 3.489 3.489 0 0 1-2.675-.146L.121 14.606l.426-.905 10.064 4.73 2.364-4.057-1.609-.756c-.586-.276-1.033-.789-1.226-1.407s-.115-1.294.212-1.854l.82-1.314-5.81-2.769-.959 2.021-.903-.429.96-2.023-1.916-.913.43-.902 1.915.912.984-2.075.903.429-.985 2.076 5.914 2.818 1.2-1.923a2.606 2.606 0 0 1 1.634-1.166 2.6 2.6 0 0 1 1.979.333l1.482.93v4.625l3.93 1.841-.424.905L17 11.623V6.918l-1.014-.636a1.598 1.598 0 0 0-1.224-.206c-.421.097-.78.353-1.009.72l-1.14 1.826L15 9.759v1.107l-2.92-1.391-.873 1.399a1.29 1.29 0 0 0-.113 1.04c.111.356.358.64.695.799l2.599 1.221-2.869 4.924 8.285 3.893a2.49 2.49 0 0 0 1.914.106 2.486 2.486 0 0 0 1.425-1.277l.901.433Z"/></svg>