<svg xmlns="http://www.w3.org/2000/svg" width="512" height="512" data-name="Layer 1" viewBox="0 0 24 24"><path d="M18.302 7.121A8.451 8.451 0 0 0 10.5 2C5.813 2 2 5.813 2 10.5c0 .591.061 1.18.181 1.754A4.746 4.746 0 0 0 0 16.25 4.756 4.756 0 0 0 4.75 21H17c3.86 0 7-3.141 7-7 0-3.355-2.43-6.263-5.698-6.879ZM17 20H4.75A3.755 3.755 0 0 1 1 16.25c0-1.387.761-2.656 1.987-3.311l.346-.186-.098-.38a7.508 7.508 0 0 1 7.264-9.374 7.46 7.46 0 0 1 6.98 4.752l.106.27.287.042c2.923.426 5.126 2.978 5.126 5.937 0 3.309-2.691 6-6 6Zm-1.854-7.439.707.707-3.293 3.293c-.292.292-.676.438-1.061.438s-.768-.146-1.061-.438l-3.293-3.293.707-.707 3.146 3.146V8h1v7.707l3.146-3.146Z"/></svg>