<svg xmlns="http://www.w3.org/2000/svg" data-name="Layer 1" viewBox="0 0 24 24"><path d="M10.834 22.764A3.004 3.004 0 0 1 9 20v-1H1.883L4.015 7.061A2.497 2.497 0 0 1 6.476 5h11.048c1.213 0 2.248.866 2.461 2.061l.441 2.467c.38.139.751.297 1.103.487l-.559-3.13A3.496 3.496 0 0 0 17.525 4H16.5c.315-.418.501-.938.501-1.5 0-1.379-1.122-2.5-2.5-2.5h-5a2.503 2.503 0 0 0-2.5 2.5c0 .562.187 1.082.501 1.5H6.477a3.495 3.495 0 0 0-3.445 2.885L.688 20H8c0 2.206 1.794 4 4 4 .009 0 .017-.003.025-.003a8.52 8.52 0 0 1-1.191-1.233ZM8 2.5C8 1.673 8.673 1 9.5 1h5c.827 0 1.5.673 1.5 1.5S15.327 4 14.5 4h-5C8.673 4 8 3.327 8 2.5Zm9.5 8.5c-3.584 0-6.5 2.916-6.5 6.5s2.916 6.5 6.5 6.5 6.5-2.916 6.5-6.5-2.916-6.5-6.5-6.5Zm0 12c-3.033 0-5.5-2.468-5.5-5.5s2.467-5.5 5.5-5.5 5.5 2.468 5.5 5.5-2.467 5.5-5.5 5.5Zm.5-6h3v1h-3v3h-1v-3h-3v-1h3v-3h1v3Z"/></svg>