<svg xmlns="http://www.w3.org/2000/svg" width="512" height="512" data-name="Layer 1" viewBox="0 0 24 24"><path d="M12.007 20C8.433 20 6.062 16.751 6 14.514v-.515h12v.501c0 2.189-2.39 5.5-5.993 5.5ZM7.06 14.999C7.42 16.748 9.335 19 12.007 19c2.64 0 4.615-2.232 4.944-4-3.201-.002-8.229 0-9.892 0ZM12 24C5.383 24 0 18.617 0 12S5.383 0 12 0s12 5.383 12 12-5.383 12-12 12Zm0-23C5.935 1 1 5.935 1 12s4.935 11 11 11 11-4.935 11-11S18.065 1 12 1Zm5.979 10.643L15.3 9.5l2.679-2.143-.625-.781L13.7 9.5l3.654 2.924.625-.781ZM10.3 9.5 6.646 6.576l-.625.781L8.7 9.5l-2.679 2.143.625.781L10.3 9.5Z"/></svg>