<svg xmlns="http://www.w3.org/2000/svg" width="512" height="512" data-name="Layer 1" viewBox="0 0 24 24"><path d="M12 20c1.103 0 2-.897 2-2s-.897-2-2-2-2 .897-2 2 .897 2 2 2Zm0-3a1.001 1.001 0 1 1-1 1c0-.551.448-1 1-1ZM24 1.25 20.333 4H24v1h-5V3.75L22.667 1H19V0h5v1.25ZM10.784 11.765c-.878.887-1.896 1.257-2.874 1.257-1.116 0-2.183-.481-2.937-1.227l.703-.711c1.07 1.061 2.977 1.413 4.396-.022l.711.703ZM22.894 7a11.9 11.9 0 0 1 1.105 5c0 6.617-5.383 12-12 12S0 18.617 0 12 5.383 0 12 0c1.786 0 3.476.403 5 1.105v1.109A10.916 10.916 0 0 0 12 1C5.935 1 1 5.935 1 12s4.935 11 11 11 11-4.935 11-11c0-1.801-.444-3.498-1.214-5h1.109Zm-10.895.75L15.666 5h-3.667V4h5v1.25L13.332 8h3.667v1h-5V7.75Zm4.134 5.267c-.979 0-1.995-.37-2.871-1.257l.711-.703c1.416 1.434 3.317 1.082 4.387.026l.703.712c-.753.743-1.817 1.222-2.93 1.222Z"/></svg>