<svg xmlns="http://www.w3.org/2000/svg" width="512" height="512" data-name="Layer 1" viewBox="0 0 24 24"><path d="M11.952 6.46a3.016 3.016 0 0 1-1.506 3.169c-.495.272-.946 1.107-.946 1.752V12h-1v-.619c0-1.005.657-2.184 1.464-2.628a1.992 1.992 0 0 0 1.004-2.119 2.008 2.008 0 0 0-1.602-1.602 1.995 1.995 0 0 0-1.651.436A1.997 1.997 0 0 0 7 7H6c0-.889.391-1.727 1.071-2.298a3.01 3.01 0 0 1 2.469-.654 3.018 3.018 0 0 1 2.412 2.412ZM9 13a1 1 0 1 0 0 2 1 1 0 0 0 0-2Zm10.996-3.92c-.003.382-.025.759-.066 1.131A6.996 6.996 0 0 1 23 16v7h-7a6.999 6.999 0 0 1-5.789-3.07c-.372.041-.749.064-1.131.066C10.465 22.385 13.045 24 16 24h8v-8c0-2.955-1.615-5.535-4.004-6.92Zm-7.431 8.183A8.944 8.944 0 0 1 9 18H0V9c0-4.963 4.037-9 9-9s9 4.037 9 9a9.004 9.004 0 0 1-4.49 7.786l2.131 2.061a.501.501 0 0 0 .713.006l4.066-3.98.699.715-4.062 3.977a1.498 1.498 0 0 1-2.118-.003l-2.375-2.297ZM9 17c4.411 0 8-3.589 8-8s-3.589-8-8-8-8 3.589-8 8v8h8Z"/></svg>