<svg xmlns="http://www.w3.org/2000/svg" width="512" height="512" data-name="Layer 1" viewBox="0 0 24 24"><path d="m22.451 7.586-.67 1.34A9.99 9.99 0 0 1 22 11a9.92 9.92 0 0 1-2.859 7H4.859A9.92 9.92 0 0 1 2 11C2 5.486 6.486 1 12 1c1.403 0 2.739.293 3.952.818l.561-.281.225-.449A10.912 10.912 0 0 0 12 0C5.935 0 1 4.935 1 11a10.91 10.91 0 0 0 2.91 7.454L1 22.333V24h22v-1.667l-2.91-3.879A10.912 10.912 0 0 0 23 11c0-1.192-.197-2.338-.549-3.414ZM22 23H2v-.333L4.75 19h14.5L22 22.667V23ZM18.003 6.022 19.5 9.015l1.497-2.993 2.993-1.497-2.993-1.497L19.5.037l-1.497 2.991-2.993 1.497 2.993 1.497Zm.746-2.248.751-1.503.751 1.503 1.503.751-1.503.751-.751 1.503-.751-1.503-1.503-.751 1.503-.751Zm-5.226 3.197-1.168 2.335-2.335 1.168 2.335 1.168 1.168 2.335 1.168-2.335 2.333-1.168-2.333-1.168-1.168-2.335Zm.422 3.925-.422.845-.422-.845-.845-.422.845-.422.422-.845.422.845.845.422-.845.422Z"/></svg>