<svg xmlns="http://www.w3.org/2000/svg" width="512" height="512" data-name="Layer 1" viewBox="0 0 24 24"><path d="M12 11c-.37 0-.717.102-1.015.278L6.354 6.646l-.707.707 4.631 4.631A2.002 2.002 0 0 0 12 14.999c1.103 0 2-.897 2-2s-.897-2-2-2Zm0 3a1 1 0 1 1 0-2 1 1 0 0 1 0 2Zm12-1c0 3.897-1.911 7.568-5.113 9.818l-.319.225-2.713-2.347.654-.756 2.117 1.831A11.017 11.017 0 0 0 23 13c0-6.065-4.935-11-11-11S1 6.935 1 13c0 3.443 1.628 6.693 4.374 8.771l2.117-1.831.654.756-2.713 2.347-.319-.225A12.019 12.019 0 0 1 0 13C0 6.383 5.383 1 12 1s12 5.383 12 12Z"/></svg>