<svg xmlns="http://www.w3.org/2000/svg" width="512" height="512" data-name="Layer 1" viewBox="0 0 24 24"><path d="m23.686 10.737-4.445-8.362A2.587 2.587 0 0 0 16.955 1H7.067c-.956 0-1.832.525-2.284 1.372L.316 10.738a2.69 2.69 0 0 0 0 2.535l4.466 8.356A2.585 2.585 0 0 0 7.065 23h9.888c.958 0 1.834-.527 2.286-1.375l4.445-8.362c.42-.791.42-1.735 0-2.525Zm-.883 2.056-4.445 8.362a1.589 1.589 0 0 1-1.403.845H7.066a1.583 1.583 0 0 1-1.4-.842L1.2 12.801a1.681 1.681 0 0 1 0-1.593l4.466-8.365C5.943 2.323 6.48 2 7.067 2h9.887c.588 0 1.125.324 1.403.846l4.445 8.361c.264.497.264 1.09 0 1.587ZM7 11.5h10v1H7v-1Z"/></svg>