<svg xmlns="http://www.w3.org/2000/svg" width="512" height="512" data-name="Layer 1" viewBox="0 0 24 24"><path d="m12 16.511.987.276V8.205a38.454 38.454 0 0 1-1.196-.288l-2.313 2.376.717.698 1.806-1.842v7.362ZM6 8a1 1 0 1 1-2 0 1 1 0 0 1 2 0Zm13 1a1 1 0 1 1 0 2 1 1 0 0 1 0-2ZM6 14a1 1 0 1 1-2 0 1 1 0 0 1 2 0Zm13 1a1 1 0 1 1 0 2 1 1 0 0 1 0-2Zm-1.772 6c-1.635 0-3.528-.518-5.358-1.018C10.103 19.499 8.276 19 6.775 19 3.786 19 .733 20.328.702 20.341l-.701.309V6.802c0-.974.534-1.855 1.394-2.299C2.725 3.817 4.738 3 6.776 3c1.646 0 3.277.521 4.854 1.023 1.575.502 3.062.977 4.553.977 1.622 0 2.891-.376 3.91-.679.242-.072.468-.139.676-.194a2.545 2.545 0 0 1 2.218.448 2.581 2.581 0 0 1 1.015 2.061v12.765l-.294.133c-.132.06-3.271 1.466-6.479 1.466ZM6.775 18c1.635 0 3.528.518 5.358 1.018 1.767.483 3.594.982 5.095.982 2.447 0 4.937-.915 5.772-1.253V6.636c0-.5-.228-.963-.624-1.268a1.555 1.555 0 0 0-1.353-.274c-.199.053-.415.117-.647.186-1.024.304-2.427.72-4.194.72-1.646 0-3.278-.521-4.856-1.024C9.752 4.474 8.265 4 6.775 4c-1.837 0-3.69.757-4.922 1.392A1.578 1.578 0 0 0 1 6.802v12.345C2.123 18.731 4.432 18 6.774 18Z"/></svg>