<svg xmlns="http://www.w3.org/2000/svg" width="512" height="512" data-name="Layer 1" viewBox="0 0 24 24"><path d="M21.5 0h-19A2.503 2.503 0 0 0 0 2.5V24h24V2.5C24 1.122 22.879 0 21.5 0ZM23 23H1V2.5C1 1.673 1.673 1 2.5 1h19c.827 0 1.5.673 1.5 1.5V23Zm-9.246-12.577A2.993 2.993 0 0 0 15 8c0-1.654-1.346-3-3-3S9 6.346 9 8c0 .998.495 1.877 1.246 2.423C8.921 11.076 8 12.427 8 14c0 2.206 1.794 4 4 4s4-1.794 4-4c0-1.574-.921-2.925-2.246-3.577ZM10 8c0-1.103.897-2 2-2s2 .897 2 2-.897 2-2 2-2-.897-2-2Zm2 9c-1.654 0-3-1.346-3-3s1.346-3 3-3 3 1.346 3 3-1.346 3-3 3Z"/></svg>