<svg xmlns="http://www.w3.org/2000/svg" width="512" height="512" viewBox="0 0 24 24"><path d="m20 4.707 4 4V1.5c0-.827-.673-1.5-1.5-1.5h-7.207l4 4L12 11.293 4.707 4l4-4H1.5C.673 0 0 .673 0 1.5v7.207l4-4L11.293 12 4 19.293l-4-4V22.5c0 .827.673 1.5 1.5 1.5h7.207l-4-4L12 12.707 19.293 20l-4 4H22.5c.827 0 1.5-.673 1.5-1.5v-7.207l-4 4L12.707 12 20 4.707ZM22.5 1a.5.5 0 0 1 .5.5v4.793L17.707 1H22.5ZM1 1.5a.5.5 0 0 1 .5-.5h4.793L1 6.293V1.5ZM1.5 23a.5.5 0 0 1-.5-.5v-4.793L6.293 23H1.5Zm21.5-.5a.5.5 0 0 1-.5.5h-4.793L23 17.707V22.5Z"/></svg>