<svg xmlns="http://www.w3.org/2000/svg" width="512" height="512" data-name="Layer 1" viewBox="0 0 24 24"><path d="m23.686 10.737-4.445-8.362A2.587 2.587 0 0 0 16.955 1H7.067c-.956 0-1.832.525-2.284 1.372L.316 10.738a2.69 2.69 0 0 0 0 2.535l4.466 8.356A2.585 2.585 0 0 0 7.065 23h9.888c.958 0 1.834-.527 2.286-1.375l4.445-8.362c.42-.791.42-1.735 0-2.525Zm-.883 2.056-4.445 8.36a1.588 1.588 0 0 1-1.403.846H7.066a1.585 1.585 0 0 1-1.4-.843l-4.467-8.355a1.685 1.685 0 0 1 0-1.592l4.467-8.366C5.943 2.323 6.48 2 7.067 2h9.887c.588 0 1.125.324 1.403.846l4.445 8.361c.264.497.264 1.09 0 1.587ZM16.051 8.64 12.706 12l3.345 3.36-.709.706L12 12.709l-3.342 3.357-.709-.706L11.294 12 7.949 8.64l.709-.706L12 11.291l3.342-3.357.709.706Z"/></svg>