<svg xmlns="http://www.w3.org/2000/svg" width="512" height="512" data-name="Layer 1" viewBox="0 0 24 24"><path d="M21.5 2h-19A2.5 2.5 0 0 0 0 4.5v15A2.5 2.5 0 0 0 2.5 22h19a2.5 2.5 0 0 0 2.5-2.5v-15A2.5 2.5 0 0 0 21.5 2ZM17 21H7v-2.5c0-.83.67-1.5 1.5-1.5h7c.83 0 1.5.67 1.5 1.5V21Zm6-1.5c0 .83-.67 1.5-1.5 1.5H18v-2.5a2.5 2.5 0 0 0-2.5-2.5h-7A2.5 2.5 0 0 0 6 18.5V21H2.5c-.83 0-1.5-.67-1.5-1.5v-15C1 3.67 1.67 3 2.5 3h19c.83 0 1.5.67 1.5 1.5v15ZM12 6c-2.21 0-4 1.79-4 4s1.79 4 4 4 4-1.79 4-4-1.79-4-4-4Zm0 7c-1.65 0-3-1.35-3-3s1.35-3 3-3 3 1.35 3 3-1.35 3-3 3Z"/></svg>