<svg xmlns="http://www.w3.org/2000/svg" width="512" height="512" data-name="Layer 1" viewBox="0 0 24 24"><path d="M20.496 8.481V3.504h-4.977L12-.015 8.481 3.504H3.504v4.978L-.015 12l3.519 3.519v4.978h4.977L12 24.016l3.519-3.519h4.977v-4.978L24.015 12l-3.519-3.519Zm-1 6.623v4.392h-4.391L12 22.6l-3.105-3.104H4.504v-4.392L1.399 12l3.105-3.104V4.504h4.391L12 1.4l3.105 3.104h4.391v4.392L22.601 12l-3.105 3.104ZM13 17a1 1 0 1 1-2 0 1 1 0 0 1 2 0Zm1.953-7.539a3.018 3.018 0 0 1-1.506 3.168c-.496.273-.947 1.107-.947 1.752V15h-1v-.619c0-1.005.657-2.184 1.464-2.628a2.003 2.003 0 0 0-.598-3.721A2 2 0 0 0 10 10H9c0-.889.391-1.727 1.071-2.298a3.011 3.011 0 0 1 2.468-.654 3.017 3.017 0 0 1 2.413 2.413Z"/></svg>