<svg xmlns="http://www.w3.org/2000/svg" width="512" height="512" data-name="Layer 1" viewBox="0 0 24 24"><path d="M12 0C5.383 0 0 5.383 0 12s5.383 12 12 12 12-5.383 12-12S18.617 0 12 0Zm0 23C5.935 23 1 18.065 1 12S5.935 1 12 1s11 4.935 11 11-4.935 11-11 11Zm6-15.771V18h-1V7.229c0-.179-.093-.209-.124-.219a.26.26 0 0 0-.284.108l-4.593 7.463-4.612-7.492a.252.252 0 0 0-.265-.079c-.03.01-.124.04-.124.219V18h-1V7.229c0-.552.321-1.012.819-1.171a1.255 1.255 0 0 1 1.402.479l3.779 6.137 3.76-6.107c.341-.481.905-.673 1.421-.508.498.159.819.619.819 1.171Z"/></svg>