<svg xmlns="http://www.w3.org/2000/svg" width="512" height="512" data-name="Layer 1" viewBox="0 0 24 24"><path d="M23.813 13.918a2.984 2.984 0 0 1-1.583 1.667l-18.489 8.23-.406-.913 12.57-5.596-1.784-4.211-3.94 1.705a2.496 2.496 0 0 1-3.244-1.129L5.254 9.566c-.602-1.157-.137-2.644 1.056-3.275a2.454 2.454 0 0 1 1.89-.173 2.451 2.451 0 0 1 1.452 1.218l1.656 3.985-.924.384-1.639-3.947a1.445 1.445 0 0 0-.845-.686 1.453 1.453 0 0 0-1.124.103 1.47 1.47 0 0 0-.615 1.971l1.683 4.105c.348.667 1.202.962 1.932.635l4.873-2.109 2.169 5.123 5.007-2.229a1.994 1.994 0 0 0 1.056-1.112 1.99 1.99 0 0 0-.04-1.534l.914-.406c.326.733.348 1.549.06 2.298ZM6.83 18.591l.359-.934a5.498 5.498 0 0 1-2.907-2.588L1.051 7.371l-.922.386 3.256 7.753a6.512 6.512 0 0 0 3.445 3.081ZM14 0h-1v9h1V0ZM3 2.5C3 1.122 4.121 0 5.5 0S8 1.122 8 2.5 6.879 5 5.5 5 3 3.878 3 2.5Zm1 0C4 3.327 4.673 4 5.5 4S7 3.327 7 2.5 6.327 1 5.5 1 4 1.673 4 2.5Z"/></svg>