<svg xmlns="http://www.w3.org/2000/svg" width="512" height="512" data-name="Layer 1" viewBox="0 0 24 24"><path d="M21.092 19.83C22.967 17.74 24 14.96 24 12c0-6.617-5.383-12-12-12S0 5.383 0 12c0 2.962 1.034 5.744 2.912 7.834l.018.021A2.078 2.078 0 0 0 1 21.925C1 23.07 1.931 24 3.075 24h17.85A2.077 2.077 0 0 0 23 21.925c0-1.099-.857-2-1.908-2.095ZM20.925 23H3.075a1.076 1.076 0 0 1 0-2.15l.119-.015c.102-.024.62-.175.77-.659.07-.227.073-.585-.308-1.01C1.943 17.26 1 14.715 1 12 1 5.935 5.935 1 12 1s11 4.935 11 11c0 2.715-.943 5.26-2.656 7.166-.381.424-.378.783-.308 1.01.149.484.667.635.77.659l.119.015a1.076 1.076 0 0 1 0 2.15ZM12 4.007c-4.411 0-8 3.589-8 8s3.589 8 8 8 8-3.589 8-8-3.589-8-8-8Zm6.294 4.939s-3.503 1.409-3.561 1.437l-.002-.006a1.602 1.602 0 0 1-1.516-.164 1.6 1.6 0 0 1-.715-1.347V5.025a7.013 7.013 0 0 1 5.794 3.921Zm-5.191 3.371c-.08.286-.118.576-.115.863-.31-.12-.643-.183-.988-.183s-.679.063-.988.183a3.077 3.077 0 0 0-.534-1.765 2.624 2.624 0 0 0 1.519-1.011 2.633 2.633 0 0 0 1.52 1.017c-.183.27-.324.571-.415.896Zm-1.604-7.292v3.834c0 .549-.261 1.039-.715 1.347a1.604 1.604 0 0 1-1.516.164l-.004.011c-.057-.027-3.559-1.435-3.559-1.435a7.013 7.013 0 0 1 5.794-3.921Zm-6.5 6.982c0-.744.117-1.46.333-2.133l3.384 1.359c.599.24 1.042.733 1.216 1.354s.052 1.272-.334 1.788l-2.19 2.913a6.985 6.985 0 0 1-2.41-5.281Zm3.209 5.882 2.406-3.199c.661-.879 2.109-.879 2.77 0l2.406 3.199c-1.093.707-2.395 1.118-3.791 1.118s-2.698-.411-3.791-1.118Zm8.381-.601-2.19-2.912h.001c-.387-.517-.509-1.168-.335-1.789s.617-1.114 1.217-1.354l3.384-1.359a6.987 6.987 0 0 1-2.077 7.414Z"/></svg>