<svg xmlns="http://www.w3.org/2000/svg" width="512" height="512" data-name="Layer 1" viewBox="0 0 24 24"><path d="M21.5 7h-19A2.503 2.503 0 0 0 0 9.5V24h24V9.5C24 8.122 22.879 7 21.5 7ZM10 23H5v-3.5c0-.827.673-1.5 1.5-1.5h2c.827 0 1.5.673 1.5 1.5V23Zm9 0h-5v-3.5c0-.827.673-1.5 1.5-1.5h2c.827 0 1.5.673 1.5 1.5V23Zm4 0h-3v-3.5c0-1.378-1.121-2.5-2.5-2.5h-2a2.503 2.503 0 0 0-2.5 2.5V23h-2v-3.5c0-1.378-1.121-2.5-2.5-2.5h-2A2.503 2.503 0 0 0 4 19.5V23H1V9.5C1 8.673 1.673 8 2.5 8h19c.827 0 1.5.673 1.5 1.5V23ZM7.5-.059 3.073 5h8.854L7.5-.059Zm0 1.519 2.224 2.541H5.277L7.501 1.46ZM20.927.001h-8.854L16.5 5.06 20.927 0Zm-2.203 1L16.5 3.542l-2.224-2.541h4.447ZM7.5 10C6.121 10 5 11.122 5 12.5S6.121 15 7.5 15s2.5-1.122 2.5-2.5S8.879 10 7.5 10Zm0 4c-.827 0-1.5-.673-1.5-1.5S6.673 11 7.5 11s1.5.673 1.5 1.5S8.327 14 7.5 14Zm9-4c-1.379 0-2.5 1.122-2.5 2.5s1.121 2.5 2.5 2.5 2.5-1.122 2.5-2.5-1.121-2.5-2.5-2.5Zm0 4c-.827 0-1.5-.673-1.5-1.5s.673-1.5 1.5-1.5 1.5.673 1.5 1.5-.673 1.5-1.5 1.5Z"/></svg>