<svg xmlns="http://www.w3.org/2000/svg" width="512" height="512" data-name="Layer 1" viewBox="0 0 24 24"><path d="M24 4.5C24 1.977 20.267 0 15.5 0S7 1.977 7 4.5v1.567c-4.027.365-7 2.181-7 4.433v8.75C0 21.913 3.733 24 8.5 24s8.5-2.087 8.5-4.75v-1.322c4.083-.393 7-2.32 7-4.678V4.5ZM15.5 1C19.565 1 23 2.603 23 4.5c0 1.881-3.375 3.471-7.393 3.499-1.462-1.177-3.949-1.952-6.841-1.997C8.258 5.522 8 5.017 8 4.5 8 2.603 11.435 1 15.5 1Zm-7 6c4.065 0 7.5 1.603 7.5 3.5S12.565 14 8.5 14 1 12.397 1 10.5 4.435 7 8.5 7Zm0 16C4.435 23 1 21.282 1 19.25v-6.6C2.419 14.06 5.214 15 8.5 15s6.081-.939 7.5-2.35v6.6C16 21.282 12.565 23 8.5 23ZM23 13.25c0 1.752-2.595 3.315-6 3.672V10.5c0-.54-.171-1.055-.487-1.531C19.355 8.798 21.729 7.913 23 6.65v6.6ZM15.5 6c2.632 0 4.092-.829 4.477-1.083l.632-.417-.632-.417C19.592 3.829 18.132 3 15.5 3s-4.092.829-4.477 1.083l-.632.417.632.417C11.408 5.171 12.868 6 15.5 6Zm0-2c1.409 0 2.422.252 3.077.5-.655.248-1.668.5-3.077.5s-2.422-.252-3.077-.5c.655-.248 1.668-.5 3.077-.5Zm-7 8c2.632 0 4.092-.829 4.477-1.083l.632-.417-.632-.417C12.592 9.829 11.132 9 8.5 9s-4.092.829-4.477 1.083l-.632.417.632.417C4.408 11.171 5.868 12 8.5 12Zm0-2c1.409 0 2.422.252 3.077.5-.655.248-1.668.5-3.077.5s-2.422-.252-3.077-.5c.655-.248 1.668-.5 3.077-.5Z"/></svg>