<svg xmlns="http://www.w3.org/2000/svg" width="512" height="512" data-name="Layer 1" viewBox="0 0 24 24"><path d="M23.315.705C23.282.718 20.006 2 17 2c-1.501 0-3.34-.499-5.119-.982C10.039.518 8.135 0 6.5 0 3.238 0 .327 2.098.204 2.187L0 2.337V24h1v-9.145C1.692 14.401 4.032 13 6.5 13c1.501 0 3.34.499 5.119.982C13.461 14.482 15.365 15 17 15c3.195 0 6.542-1.31 6.683-1.365l.316-.125V.435l-.684.271Zm-.316 8.117C22.105 9.14 19.462 10 17 10c-1.501 0-3.34-.499-5.119-.982-.292-.079-.587-.159-.881-.237V5.815l.62.168c1.841.5 3.746 1.018 5.38 1.018 2.376 0 4.836-.724 5.999-1.118v2.94ZM17 3c2.376 0 4.836-.724 5.999-1.118v2.94C22.105 5.14 19.462 6 17 6c-1.501 0-3.34-.499-5.118-.982-.294-.08-.589-.16-.882-.238V1.815l.619.168c1.842.5 3.746 1.018 5.381 1.018ZM6.5 1c1.047 0 2.259.243 3.5.554v6.97C8.779 8.226 7.581 8 6.5 8 4.215 8 2.102 9.029.999 9.676V2.855C1.691 2.402 4.031 1 6.5 1ZM17 14c-1.501 0-3.34-.499-5.119-.982C10.039 12.518 8.135 12 6.5 12c-2.285 0-4.397 1.029-5.5 1.677v-2.822C1.692 10.401 4.032 9 6.5 9c1.501 0 3.34.499 5.119.982C13.461 10.482 15.365 11 17 11c2.376 0 4.836-.724 5.999-1.118v2.94c-.895.319-3.537 1.179-5.999 1.179Z"/></svg>