<svg xmlns="http://www.w3.org/2000/svg" width="512" height="512" data-name="Layer 1" viewBox="0 0 24 24"><path d="M8 13a1 1 0 1 1 2 0 1 1 0 0 1-2 0Zm7 1a1 1 0 1 0 0-2 1 1 0 0 0 0 2Zm-3 4c-2.53 0-4.646-1.854-4.667-1.873l-.666.746C6.764 16.96 9.082 19 12 19s5.236-2.04 5.333-2.127l-.666-.746C16.646 16.146 14.529 18 12 18Zm12 1c0 2.757-2.243 5-5 5H5c-2.757 0-5-2.243-5-5 0-1.781.955-3.417 2.474-4.308A4.212 4.212 0 0 1 2 12.75c0-1.564.845-2.971 2.192-3.713A2.943 2.943 0 0 1 4 8c0-1.654 1.346-3 3-3h2.101C9.997 4.245 11 2.871 11 .5V0h.5c.942 0 2.056.586 3.054 1.606C15.569 2.644 16.263 3.921 16.421 5H17c1.654 0 3 1.346 3 3 0 .352-.065.702-.192 1.037A4.221 4.221 0 0 1 22 12.75c0 .681-.163 1.342-.474 1.942A5.002 5.002 0 0 1 24 19Zm-1 0a4.003 4.003 0 0 0-2.381-3.651l-.554-.246.348-.497a3.233 3.233 0 0 0-1.458-4.868l-.544-.217.3-.503C18.902 8.697 19 8.354 19 8c0-1.103-.897-2-2-2h-4V5h2.409c-.165-.835-.751-1.857-1.57-2.694-.618-.632-1.281-1.067-1.857-1.232-.175 2.678-1.688 4.265-2.53 4.927H7.001c-1.103 0-2 .897-2 2 0 .354.097.696.289 1.018l.3.503-.543.217a3.233 3.233 0 0 0-1.458 4.868l.348.497-.554.246a4.004 4.004 0 0 0-2.381 3.651c0 2.206 1.794 4 4 4h14c2.206 0 4-1.794 4-4Z"/></svg>