<svg xmlns="http://www.w3.org/2000/svg" width="512" height="512" data-name="Layer 1" viewBox="0 0 24 24"><path d="M12 0C5.935 0 1 4.653 1 10.374 1 15.734 5.724 24 12 24s11-8.266 11-13.626C23 4.653 18.065 0 12 0Zm0 23C6.294 23 2 15.34 2 10.374 2 5.205 6.486 1 12 1s10 4.205 10 9.374C22 15.341 17.706 23 12 23Zm5-15c-1.654 0-3 1.122-3 2.5s1.346 2.5 3 2.5 3-1.122 3-2.5S18.654 8 17 8Zm0 4c-1.103 0-2-.673-2-1.5S15.897 9 17 9s2 .673 2 1.5-.897 1.5-2 1.5Zm-7-1.5C10 9.122 8.654 8 7 8s-3 1.122-3 2.5S5.346 13 7 13s3-1.122 3-2.5ZM7 12c-1.103 0-2-.673-2-1.5S5.897 9 7 9s2 .673 2 1.5S8.103 12 7 12Zm4 4a1 1 0 1 1-2 0 1 1 0 0 1 2 0Zm4 0a1 1 0 1 1-2 0 1 1 0 0 1 2 0ZM9 4a1 1 0 1 1 2 0 1 1 0 0 1-2 0Zm4 3a1 1 0 1 1-2 0 1 1 0 0 1 2 0Zm0-3a1 1 0 1 1 2 0 1 1 0 0 1-2 0Zm-2 15a1 1 0 1 1-2 0 1 1 0 0 1 2 0Zm4 0a1 1 0 1 1-2 0 1 1 0 0 1 2 0Z"/></svg>