<svg xmlns="http://www.w3.org/2000/svg" width="512" height="512" data-name="Layer 1" viewBox="0 0 24 24"><path d="M6.146 9.604a.5.5 0 0 0 0 .707l3.75 3.75-.707.707-3.75-3.75a1.501 1.501 0 0 1 0-2.121l3.75-3.75.707.707-3.75 3.75Zm8.665-4.458-.707.707 3.75 3.75a.5.5 0 0 1 0 .707l-3.75 3.75.707.707 3.75-3.75a1.501 1.501 0 0 0 0-2.121l-3.75-3.75ZM24 2.5V20h-7.032l-3.985 3.295a1.467 1.467 0 0 1-.978.368c-.357 0-.715-.126-1.001-.38L7.106 20H0V2.5C0 1.121 1.122 0 2.5 0h19C22.878 0 24 1.121 24 2.5Zm-1 0c0-.827-.673-1.5-1.5-1.5h-19C1.673 1 1 1.673 1 2.5V19h6.471l4.187 3.526a.505.505 0 0 0 .674.009L16.608 19H23V2.5Z"/></svg>