<svg xmlns="http://www.w3.org/2000/svg" width="512" height="512" data-name="Layer 1" viewBox="0 0 24 24"><path d="M12.001 20h-.012c-4.3 0-5.9-4.92-5.966-5.129l-.276-.875.885.243c.028.007 2.805.762 5.363.762s5.345-.754 5.373-.762l.886-.242-.278.876c-.066.209-1.676 5.128-5.975 5.128Zm-4.663-4.563C7.961 16.727 9.423 19 11.989 19h.012c2.565 0 4.033-2.273 4.658-3.564-1.079.236-2.898.564-4.664.564s-3.581-.328-4.657-.563ZM12 24C5.383 24 0 18.617 0 12S5.383 0 12 0s12 5.383 12 12-5.383 12-12 12Zm0-23C5.935 1 1 5.935 1 12s4.935 11 11 11 11-4.935 11-11S18.065 1 12 1Zm7 10h-5V9.5C14 8.122 15.122 7 16.5 7S19 8.122 19 9.5V11Zm-4-1h3v-.5c0-.827-.673-1.5-1.5-1.5S15 8.673 15 9.5v.5Zm-5 0H5v1h5v-1Z"/></svg>