<svg xmlns="http://www.w3.org/2000/svg" width="512" height="512" data-name="Layer 1" viewBox="0 0 24 24"><path d="M20.714 15.188A3.48 3.48 0 0 0 22 12.5c0-1.623-1.116-2.979-2.617-3.373A2.48 2.48 0 0 0 20 7.5C20 6.121 18.878 5 17.5 5h-1.082c-.158-1.078-.849-2.355-1.864-3.394C13.556.585 12.443 0 11.5 0H11v.5C11 2.869 9.997 4.244 9.101 5H6.5A2.503 2.503 0 0 0 4 7.5c0 .624.238 1.188.617 1.627C3.116 9.521 2 10.877 2 12.5c0 1.086.507 2.045 1.286 2.688C1.397 15.722 0 17.443 0 19.5 0 21.981 2.019 24 4.5 24h15c2.481 0 4.5-2.019 4.5-4.5 0-2.058-1.396-3.779-3.286-4.312ZM19.5 23h-15C2.57 23 1 21.43 1 19.5S2.57 16 4.5 16H14v-1H5.5C4.122 15 3 13.879 3 12.5S4.122 10 5.5 10H14V9H6.5C5.673 9 5 8.327 5 7.5S5.673 6 6.5 6h3c.842-.663 2.307-2.252 2.481-4.927.577.165 1.239.601 1.857 1.232.819.837 1.399 1.858 1.564 2.694H13v1h4.5c.827 0 1.5.673 1.5 1.5s-.673 1.5-1.5 1.5H17v1h1.5c1.378 0 2.5 1.121 2.5 2.5s-1.122 2.5-2.5 2.5H17v1h2.5c1.93 0 3.5 1.57 3.5 3.5s-1.57 3.5-3.5 3.5Z"/></svg>