<svg xmlns="http://www.w3.org/2000/svg" width="512" height="512" data-name="Layer 1" viewBox="0 0 24 24"><path d="M7 15a1 1 0 1 1-2 0 1 1 0 0 1 2 0Zm11-1a1 1 0 1 0 0 2 1 1 0 0 0 0-2Zm-6 1a1 1 0 1 0 0 2 1 1 0 0 0 0-2Zm12-.442C24 17.61 18.729 20 12 20S0 17.609 0 14.558c0-1.766 1.726-3.23 5-4.25v-.307c0-3.859 3.14-7 7-7s7 3.141 7 7v.307c3.274 1.021 5 2.484 5 4.25ZM6 10.812C6.466 11.124 8.12 12 12 12s5.526-.872 6-1.189V10c0-3.309-2.691-6-6-6s-6 2.691-6 6v.812Zm17 3.746c0-1.236-1.438-2.368-4.071-3.224C18.864 11.399 17.203 13 12 13s-6.864-1.601-6.929-1.666C2.438 12.19 1 13.322 1 14.558 1 16.704 5.42 19 12 19s11-2.297 11-4.442Z"/></svg>