<svg xmlns="http://www.w3.org/2000/svg" data-name="Layer 1" viewBox="0 0 24 24"><path d="M17.5 11c1.378 0 2.5-1.121 2.5-2.5S18.878 6 17.5 6 15 7.121 15 8.5s1.122 2.5 2.5 2.5Zm0-4c.827 0 1.5.673 1.5 1.5s-.673 1.5-1.5 1.5S16 9.327 16 8.5 16.673 7 17.5 7ZM23.296.352C23.237.378 17.302 3 12 3S.763.378.704.352L0 .037v23.897l.702-.311c.06-.026 5.995-2.624 11.298-2.624s11.238 2.598 11.298 2.624l.702.311V.037l-.704.314ZM12 4c4.481 0 9.236-1.729 11-2.44v20.509L10.692 9.76a2.598 2.598 0 0 0-3.67 0L1 15.783V1.56C2.764 2.271 7.519 4 12 4ZM1 22.418v-5.221l6.729-6.73a1.599 1.599 0 0 1 2.256 0l11.324 11.325C19.023 21.005 15.431 20 12 20c-4.481 0-9.237 1.714-11 2.418Z"/></svg>