<svg xmlns="http://www.w3.org/2000/svg" width="512" height="512" data-name="Layer 1" viewBox="0 0 24 24"><path d="M24 4v1h-4v4h-1V5h-4V4h4V0h1v4h4Zm-6.473 9.837 5.68 5.679-2.88 2.879c-1.032 1.035-2.432 1.604-3.94 1.604C9.188 24 0 14.812 0 7.614c0-1.509.57-2.909 1.604-3.941L4.483.793l5.68 5.679-3.372 3.373c1.49 3.511 3.964 5.988 7.359 7.369l3.377-3.376Zm4.266 5.679-4.266-4.265-3.131 3.13c-3.896-1.382-7.05-4.255-8.782-8.774l3.135-3.135-4.266-4.264L2.311 4.38C1.465 5.224.999 6.373.999 7.614.999 14.229 9.77 23 16.386 23c1.241 0 2.389-.466 3.233-1.311l2.173-2.173Z"/></svg>