<svg xmlns="http://www.w3.org/2000/svg" data-name="Layer 1" viewBox="0 0 24 24"><path d="m18.404 21.94 1.023 1.024c-.143.012-.284.037-.427.037-2.757 0-5-2.243-5-5 0-.144.024-.285.037-.428l1.023 1.024a3.987 3.987 0 0 0 3.344 3.344ZM9 12.536l1 1v4.465c0 2.757-2.243 5-5 5S0 20.757 0 18s2.243-5 5-5c1.634 0 3.087.788 4 2.003v-2.468Zm0 5.465c0-2.206-1.794-4-4-4s-4 1.794-4 4 1.794 4 4 4 4-1.794 4-4Zm15-.5h-.025a4.977 4.977 0 0 1-1.59 4.179l1.568 1.568-.707.707L.047.753.754.046 9 8.292V3.5C9 2.122 10.121 1 11.5 1h10C22.879 1 24 2.122 24 3.5v14Zm-1 .5c0-2.206-1.794-4-4-4a3.982 3.982 0 0 0-2.971 1.322l5.649 5.649A3.982 3.982 0 0 0 23 18.001Zm0-2.997V3.5c0-.827-.673-1.5-1.5-1.5h-10c-.827 0-1.5.673-1.5 1.5v5.793l5.321 5.321a4.997 4.997 0 0 1 7.679.389Z"/></svg>