<svg xmlns="http://www.w3.org/2000/svg" width="512" height="512" data-name="Layer 1" viewBox="0 0 24 24"><path d="m19.855 15.102-2.828 2.857-2.504-2.504L12 17.953l-2.525-2.5-2.531 2.506L4.143 15.1l.715-.699 2.098 2.141 2.52-2.494 2.525 2.5 2.527-2.502 2.496 2.496 2.121-2.143.711.703ZM24 12c0 6.617-5.383 12-12 12S0 18.617 0 12 5.383 0 12 0s12 5.383 12 12Zm-1 0c0-6.065-4.935-11-11-11S1 5.935 1 12s4.935 11 11 11 11-4.935 11-11Zm-5.021-.357L15.3 9.5l2.679-2.143-.625-.781L13.699 9.5l3.655 2.924.625-.781Zm-11.334.781L10.3 9.5 6.645 6.576l-.625.781L8.699 9.5 6.02 11.643l.625.781Z"/></svg>