<svg xmlns="http://www.w3.org/2000/svg" width="512" height="512" data-name="Layer 1" viewBox="0 0 24 24"><path d="M22 2.5C22 1.122 20.878 0 19.5 0h-15A2.503 2.503 0 0 0 2 2.5V20h6.008a6.153 6.153 0 0 0-1.997 3.4l-.123.6h12.225l-.123-.6a6.15 6.15 0 0 0-1.997-3.4h6.008V2.5ZM16.848 23H7.152a5.169 5.169 0 0 1 2.572-2.955L9.702 20H14.3l-.022.045A5.169 5.169 0 0 1 16.85 23ZM21 19H3V2.5C3 1.673 3.673 1 4.5 1h15c.827 0 1.5.673 1.5 1.5V19ZM12 4c-3.309 0-6 2.691-6 6s2.691 6 6 6 6-2.691 6-6-2.691-6-6-6Zm0 11c-2.757 0-5-2.243-5-5s2.243-5 5-5 5 2.243 5 5-2.243 5-5 5Z"/></svg>