<svg xmlns="http://www.w3.org/2000/svg" data-name="Layer 1" viewBox="0 0 24 24"><path d="M19.138 2.831a2.84 2.84 0 0 0-4.012.003l-3.1 3.15-8.964-1.919c-.716-.166-1.464-.008-2.054.431S.052 5.611.003 6.353c-.078 1.201.798 2.322 2.053 2.611L7.213 10l-5.171 1.04c-1.24.286-2.117 1.407-2.039 2.608.048.742.414 1.419 1.004 1.857s1.337.595 2.037.434l6.578-1.28 1.468 7.34H24V7.7l-4.862-4.87ZM23 21H11.91l-1.502-7.512-7.571 1.474a1.49 1.49 0 0 1-1.232-.258 1.495 1.495 0 0 1-.603-1.121c-.047-.717.498-1.391 1.252-1.565L12.288 10 2.268 7.986c-.769-.177-1.313-.852-1.266-1.568.03-.456.244-.854.603-1.121.354-.263.8-.359 1.24-.257l14.128 3.025.209-.978-3.998-.856 2.651-2.695a1.835 1.835 0 0 1 2.595 0L23 8.113v12.886Z"/></svg>