<svg xmlns="http://www.w3.org/2000/svg" width="512" height="512" data-name="Layer 1" viewBox="0 0 24 24"><path d="M19.5 9.382A2.485 2.485 0 0 0 17.264 8H6.736c-.953 0-1.81.529-2.236 1.382l-2.286 4.572A11.557 11.557 0 0 0 1 19.097V22h2v2h4v-2h10v2h4v-2h2v-2.903c0-1.776-.42-3.555-1.214-5.143L19.5 9.382ZM3.108 14.401l2.286-4.572A1.49 1.49 0 0 1 6.735 9h10.528a1.49 1.49 0 0 1 1.341.829l2.286 4.572c.098.196.19.396.276.599H2.833c.086-.202.177-.402.276-.599ZM6 23H4v-1h2v1Zm14 0h-2v-1h2v1Zm2-2H2v-1.903c0-1.047.161-2.095.469-3.097H5v2h1v-2h12v2h1v-2h2.531c.309 1.002.469 2.05.469 3.097V21Zm1.719-15.448-.441.896-10.616-5.22a1.514 1.514 0 0 0-1.325 0L.722 6.448l-.441-.896L10.896.331a2.519 2.519 0 0 1 2.207 0l10.616 5.222Z"/></svg>