<svg xmlns="http://www.w3.org/2000/svg" data-name="Layer 1" viewBox="0 0 24 24"><path d="M24 12c0-6.617-5.383-12-12-12-3.03 0-5.896 1.131-8.116 3.176L.754.046.047.753l23.199 23.2.707-.707-3.129-3.129A11.93 11.93 0 0 0 24 12ZM12 1c6.065 0 11 4.935 11 11 0 2.763-1.027 5.377-2.884 7.409l-5.354-5.354 4.305-9.147-8.968 4.484-5.508-5.508A10.933 10.933 0 0 1 12 1Zm-1.156 9.137 6.089-3.045-2.923 6.211-3.167-3.167Zm6.957 11.2.726.726A11.895 11.895 0 0 1 12 24C5.383 24 0 18.617 0 12c0-2.36.682-4.602 1.937-6.528l.726.726a10.898 10.898 0 0 0-1.664 5.801c0 6.065 4.935 11 11 11 2.09 0 4.077-.587 5.801-1.663ZM9.194 12.73l-2.13 4.259 4.444-1.944.759.759-7.332 3.208 3.513-7.027.745.745Z"/></svg>