<svg xmlns="http://www.w3.org/2000/svg" width="512" height="512" data-name="Layer 1" viewBox="0 0 24 24"><path d="m16.83 15.062.869 2.129 3.897-1.548-.869-2.129 1.973-.784-1.128-2.842a12.277 12.277 0 0 0-3.213-4.597l-4.057-3.623a2.616 2.616 0 0 0-2.721-.482L2.158 4.929A2.613 2.613 0 0 0 .51 7.148l-.465 5.419a12.282 12.282 0 0 0 .817 5.549l1.128 2.841 1.983-.788.869 2.129 3.896-1.548-.869-2.129 8.96-3.559Zm3.458.025-2.038.81-.491-1.203 2.038-.81.491 1.203ZM1.505 7.232a1.62 1.62 0 0 1 1.021-1.374l9.424-3.743a1.618 1.618 0 0 1 1.686.299l4.057 3.624c.187.167.368.34.543.52L3.689 12.336h-.004l-.004.003-2.678 1.064c.004-.251.017-.502.038-.751l.464-5.419Zm.287 10.514a11.236 11.236 0 0 1-.758-3.28l2.555-1.015.625 1.574a.5.5 0 0 0 .93-.369l-.625-1.574 10.938-4.346.631 1.588a.5.5 0 0 0 .93-.369l-.631-1.588 2.555-1.015a11.257 11.257 0 0 1 1.7 2.905l.759 1.912-18.85 7.489-.759-1.912Zm5.64 2.448-2.037.81-.492-1.204 2.038-.809.491 1.204ZM24 24h-1c0-2.206-1.794-4-4-4s-4 1.794-4 4h-1c0-2.757 2.243-5 5-5s5 2.243 5 5Z"/></svg>