<svg xmlns="http://www.w3.org/2000/svg" width="512" height="512" data-name="Layer 1" viewBox="0 0 24 24"><path d="m22.731 6.633 1.246-6.641-4.98 2.264C17.026.837 14.609 0 12.001 0S6.975.837 5.004 2.256L.023-.008l1.246 6.641A11.933 11.933 0 0 0 0 12c0 6.617 5.383 12 12 12s12-5.383 12-12c0-1.928-.458-3.751-1.269-5.367Zm-.092-4.934-.678 3.616a12.114 12.114 0 0 0-2.084-2.361l2.762-1.255Zm-21.278 0 2.762 1.255a12.085 12.085 0 0 0-2.084 2.361l-.678-3.616ZM12 23C5.935 23 1 18.065 1 12S5.935 1 12 1s11 4.935 11 11-4.935 11-11 11Zm0-8c2.918 0 5.236 2.04 5.333 2.127l-.666.746C16.646 17.854 14.529 16 12 16s-4.646 1.854-4.667 1.873l-.666-.746C6.764 17.04 9.082 15 12 15Zm5.711-6.091.577.816-2.449 1.731a1 1 0 1 1-1.161-.404l3.033-2.144Zm-9.569 2.577L5.707 9.722l.587-.811 2.913 2.109a1 1 0 1 1-1.064.465Z"/></svg>