<svg xmlns="http://www.w3.org/2000/svg" width="512" height="512" data-name="Layer 1" viewBox="0 0 24 24"><path d="M13.5 1h-11C1.673 1 1 1.673 1 2.5V23h11v1H0V2.5C0 1.122 1.121 0 2.5 0h11C14.879 0 16 1.122 16 2.5v8.523a5.105 5.105 0 0 0-1 1.013V2.5c0-.827-.673-1.5-1.5-1.5ZM7 14H4v1h3v-1Zm2 1h3v-1H9v1Zm-5 4h3v-1H4v1Zm5 0h3v-1H9v1Zm12.5 0h-5a2.503 2.503 0 0 0-2.5 2.5V24h1v-2.5c0-.827.673-1.5 1.5-1.5h5c.827 0 1.5.673 1.5 1.5V24h1v-2.5c0-1.378-1.121-2.5-2.5-2.5ZM16 15c0-1.654 1.346-3 3-3s3 1.346 3 3-1.346 3-3 3-3-1.346-3-3Zm1 0c0 1.103.897 2 2 2s2-.897 2-2-.897-2-2-2-2 .897-2 2Zm-8.5-5V7.5H11v-1H8.5V4h-1v2.5H5v1h2.5V10h1Z"/></svg>