<svg xmlns="http://www.w3.org/2000/svg" width="512" height="512" data-name="Layer 1" viewBox="0 0 24 24"><path d="M21.5 5H20V3c0-1.654-1.346-3-3-3s-3 1.346-3 3v2h-4V3c0-1.654-1.346-3-3-3S4 1.346 4 3v2H2.5A2.503 2.503 0 0 0 0 7.5V19c0 2.757 2.243 5 5 5 2.716 0 4.923-2.18 4.988-4.881H10V12h4v7.119h.012C14.077 21.82 16.284 24 19 24c2.757 0 5-2.243 5-5V7.5C24 6.122 22.878 5 21.5 5ZM15 3c0-1.103.897-2 2-2s2 .897 2 2v2h-4V3ZM5 3c0-1.103.897-2 2-2s2 .897 2 2v2H5V3Zm0 20c-2.206 0-4-1.794-4-4s1.794-4 4-4 4 1.794 4 4-1.794 4-4 4Zm14 0c-2.206 0-4-1.794-4-4s1.794-4 4-4 4 1.794 4 4-1.794 4-4 4Zm0-9c-1.641 0-3.088.806-4 2.031V11H9v5.031C8.088 14.806 6.641 14 5 14s-3.088.806-4 2.031V7.5C1 6.673 1.673 6 2.5 6h19c.827 0 1.5.673 1.5 1.5v8.531C22.088 14.806 20.641 14 19 14Z"/></svg>