<svg xmlns="http://www.w3.org/2000/svg" width="512" height="512" data-name="Layer 1" viewBox="0 0 24 24"><path d="m10.55 9.91 1.77 1.02.5-.87-1.76-1.02c.28-.63.45-1.32.45-2.05s-.17-1.42-.45-2.05l1.76-1.02-.5-.87-1.77 1.02A5 5 0 0 0 7 2.03V0H6v2.05a5 5 0 0 0-3.55 2.04L.68 3.07l-.5.87 1.76 1.02c-.28.63-.45 1.32-.45 2.05s.17 1.42.45 2.05l-1.75 1 .5.87 1.77-1.02a5 5 0 0 0 3.55 2.04V14h1v-2.05a5 5 0 0 0 3.55-2.04ZM6.5 11c-2.21 0-4-1.79-4-4s1.79-4 4-4 4 1.79 4 4-1.79 4-4 4Zm16 6c0-.73-.17-1.42-.45-2.05l1.76-1.02-.5-.87-1.77 1.02a5 5 0 0 0-3.55-2.04V9.99h-1v2.05a5 5 0 0 0-3.55 2.04l-1.77-1.02-.5.87 1.76 1.02c-.28.63-.45 1.32-.45 2.05s.17 1.42.45 2.05l-1.76 1.02.5.87 1.77-1.02a5 5 0 0 0 3.55 2.04v2.05h1v-2.05a5 5 0 0 0 3.55-2.04l1.77 1.02.5-.87-1.76-1.02c.28-.63.45-1.32.45-2.05Zm-5 4c-2.21 0-4-1.79-4-4s1.79-4 4-4 4 1.79 4 4-1.79 4-4 4Z"/></svg>