<svg xmlns="http://www.w3.org/2000/svg" width="512" height="512" data-name="Layer 1" viewBox="0 0 24 24"><path d="M18.928 23a6.971 6.971 0 0 0-.85-2.469l4.97-2.9-.504-.863-5.025 2.932a7.026 7.026 0 0 0-1.788-1.619l2.987-5.134-.865-.502-3.004 5.163a6.952 6.952 0 0 0-2.35-.589v-6.018h-1v6.018a6.955 6.955 0 0 0-2.337.583l-3.038-5.148-.861.508 3.016 5.112a7.066 7.066 0 0 0-1.809 1.638L1.44 16.79l-.502.865 4.975 2.89a6.948 6.948 0 0 0-.843 2.456H0v1h24v-1h-5.072ZM6.084 23c.477-2.834 2.948-5 5.916-5s5.439 2.166 5.916 5H6.084ZM8.111 4.48l-.707-.707L10.606.571a1.972 1.972 0 0 1 2.787 0l3.202 3.202-.707.707-3.202-3.202a.963.963 0 0 0-.187-.146v7.867h-1V1.133a.985.985 0 0 0-.187.146L8.109 4.481Z"/></svg>