<svg xmlns="http://www.w3.org/2000/svg" width="512" height="512" data-name="Layer 1" viewBox="0 0 24 24"><path d="m11.617 18.117.707.707-4.717 4.717c-.295.296-.688.459-1.106.459s-.812-.163-1.107-.459L.676 18.824l.707-.707L6 22.733V0h1v22.734l4.617-4.617Zm5.241-14.268-.717-.697L19.209.001h.711l.079.5V10h-1V1.649l-2.142 2.199ZM19 14c-1.654 0-3 1.346-3 3s1.346 3 3 3c.744 0 1.425-.273 1.95-.723C20.66 21.504 19.117 23 17 23v1c2.897 0 5-2.313 5-5.5V17c0-1.654-1.346-3-3-3Zm0 5c-1.103 0-2-.897-2-2s.897-2 2-2 2 .897 2 2-.897 2-2 2Z"/></svg>