<svg xmlns="http://www.w3.org/2000/svg" width="512" height="512" data-name="Layer 1" viewBox="0 0 24 24"><path d="M12 0C5.383 0 0 5.383 0 12s5.383 12 12 12 12-5.383 12-12S18.617 0 12 0Zm.707 12 7.413-7.413C21.908 6.544 23 9.147 23 12s-1.092 5.456-2.88 7.413L12.707 12Zm6.706-8.12L12 11.293 4.587 3.88C6.544 2.092 9.147 1 12 1s5.456 1.092 7.413 2.88ZM3.88 4.587 11.293 12 3.88 19.413C2.092 17.456 1 14.853 1 12s1.092-5.456 2.88-7.413Zm.707 15.533L12 12.707l7.413 7.413C17.456 21.908 14.853 23 12 23s-5.456-1.092-7.413-2.88Z"/></svg>