<svg xmlns="http://www.w3.org/2000/svg" width="512" height="512" data-name="Layer 1" viewBox="0 0 24 24"><path d="m16.34 19.875.841.841c-.71.177-1.44.284-2.181.284h-1v-1h1c.452 0 .899-.05 1.34-.125ZM11 21.35 5.679 17H2.5c-.827 0-1.5-.673-1.5-1.5v-7C1 7.673 1.673 7 2.5 7h.964l-.997-.997A2.5 2.5 0 0 0-.001 8.5v7c0 1.378 1.121 2.5 2.5 2.5H5.32l6.679 5.458v-7.923l-1-1v6.814Zm13.004 1.947-.707.707L-.004.704l.707-.707 5.384 5.384L12 .585v10.708l4.44 4.44A4.008 4.008 0 0 0 19 12c0-2.206-1.794-4-4-4h-1V7h1c2.757 0 5 2.243 5 5a5.013 5.013 0 0 1-2.801 4.492l2.195 2.195a7.958 7.958 0 0 0 3.607-6.686c0-4.411-3.589-8-8-8h-1v-1h1c4.963 0 9 4.038 9 9a8.951 8.951 0 0 1-3.886 7.407l3.89 3.89ZM6.798 6.091 11 10.293V2.684L6.798 6.091Z"/></svg>