<svg xmlns="http://www.w3.org/2000/svg" width="512" height="512" data-name="Layer 1" viewBox="0 0 24 24"><path d="M7.5 18c-.827 0-1.5-.673-1.5-1.5v-14C6 1.122 4.879 0 3.5 0H0v1h3.5C4.327 1 5 1.673 5 2.5v14C5 17.878 6.121 19 7.5 19h.266A2.987 2.987 0 0 0 7 21c0 1.654 1.346 3 3 3s3-1.346 3-3c0-.768-.29-1.469-.766-2h6.532A2.987 2.987 0 0 0 18 21c0 1.654 1.346 3 3 3s3-1.346 3-3c0-.768-.29-1.469-.766-2H24v-1H7.5Zm4.5 3c0 1.103-.897 2-2 2s-2-.897-2-2 .897-2 2-2 2 .897 2 2Zm11 0c0 1.103-.897 2-2 2s-2-.897-2-2 .897-2 2-2 2 .897 2 2ZM21.5 4H20V1.5c0-.827-.673-1.5-1.5-1.5h-5c-.827 0-1.5.673-1.5 1.5V4h-1.5A2.503 2.503 0 0 0 8 6.5V16h16V6.5C24 5.122 22.879 4 21.5 4ZM13 1.5a.5.5 0 0 1 .5-.5h5a.5.5 0 0 1 .5.5V4h-6V1.5ZM19 5v10h-6V5h6ZM9 6.5c0-.827.673-1.5 1.5-1.5H12v10H9V6.5ZM23 15h-3V5h1.5c.827 0 1.5.673 1.5 1.5V15Z"/></svg>