<svg xmlns="http://www.w3.org/2000/svg" width="512" height="512" data-name="Layer 1" viewBox="0 0 24 24"><path d="M6 18v-4h1v4H6Zm4-4H9v4h1v-4Zm2 4h1v-4h-1v4Zm3 0h1v-4h-1v4Zm7.394-.536a2.07 2.07 0 0 1-1.465 3.534c-.53 0-1.061-.202-1.464-.605-.467-.466-1.087-2.206-1.433-3.606a.778.778 0 0 1 .256-.788.775.775 0 0 1 .817-.117l.836.36c1.461.624 2.179.948 2.452 1.221Zm-.706.709c-.199-.182-2.573-1.197-2.573-1.197.402 1.47.895 2.545 1.058 2.71a1.071 1.071 0 0 0 1.515-1.513ZM12 0C5.383 0 0 5.383 0 12s5.383 12 12 12c2.365 0 4.566-.697 6.427-1.883-.127-.1-.26-.193-.376-.309a2.698 2.698 0 0 1-.35-.418A10.915 10.915 0 0 1 12 23.001c-6.065 0-11-4.935-11-11S5.935 1 12 1s11 4.935 11 11c0 1.111-.169 2.182-.476 3.193.362.186.648.354.881.521.382-1.171.595-2.418.595-3.715C24 5.383 18.617 0 12 0Zm5 10a1 1 0 1 0-2 0 1 1 0 0 0 2 0ZM8 9a1 1 0 1 0 0 2 1 1 0 0 0 0-2Z"/></svg>