<svg xmlns="http://www.w3.org/2000/svg" width="512" height="512" data-name="Layer 1" viewBox="0 0 24 24"><path d="M23.025 23 16.49 7.58 20.208.144 12.01 1.591a4.767 4.767 0 0 0-3.614 2.932L.969 23H0v1h24v-1h-.975ZM9.323 4.896a3.774 3.774 0 0 1 2.86-2.321l6.241-1.101-3.036 6.071L21.937 23H2.046L9.323 4.896ZM15.8 17.2l-1.3-2.601-1.3 2.601-2.601 1.3 2.601 1.3 1.3 2.601 1.3-2.601 2.601-1.3-2.601-1.3Zm-.745 1.854-.555 1.109-.555-1.109-1.109-.555 1.109-.555.555-1.109.555 1.109 1.109.555-1.109.555Zm-2.382-6.482 2.346-1.173-2.346-1.172-1.172-2.346-1.172 2.346-2.346 1.172 2.346 1.173 1.172 2.345 1.172-2.345Zm-2.454-1.173.854-.427.427-.854.427.854.854.427-.854.428-.427.854-.427-.854-.854-.428Z"/></svg>