<svg xmlns="http://www.w3.org/2000/svg" width="512" height="512" data-name="Layer 1" viewBox="0 0 24 24"><path d="M9.5 18C7.57 18 6 16.43 6 14.5S7.57 11 9.5 11s3.5 1.57 3.5 3.5S11.43 18 9.5 18Zm0-6C8.122 12 7 13.121 7 14.5S8.122 17 9.5 17s2.5-1.121 2.5-2.5S10.878 12 9.5 12Zm-.326 11.995a9.143 9.143 0 0 1-6.487-2.683c-3.577-3.577-3.577-9.397 0-12.975 3.418-3.417 12.246-7.142 12.62-7.298L16 .748v2.967l8.035-3.749L20.285 8h2.947l-.289.692c-.156.374-3.863 9.202-7.281 12.62a9.145 9.145 0 0 1-6.488 2.683ZM15 2.262c-2.173.959-8.865 4.042-11.606 6.783-3.186 3.187-3.186 8.373 0 11.56 3.188 3.189 8.375 3.188 11.561 0 2.741-2.741 5.812-9.434 6.766-11.605h-3.006l3.25-6.966L15 5.285V2.262Z"/></svg>