<svg xmlns="http://www.w3.org/2000/svg" width="512" height="512" data-name="Layer 1" viewBox="0 0 24 24"><path d="M21.934 18.044c-.392-2.966-1.12-5.668-2.154-8.066.074.004.144.022.22.022 2.206 0 4-1.794 4-4s-1.794-4-4-4c-.236 0-.463.03-.688.07C18.127.941 15.512 0 13.5 0 8.941 0 3.669 5.592 2.061 18.044A2.5 2.5 0 0 0 0 20.5V24h24v-3.5c0-1.23-.894-2.249-2.066-2.456ZM23 6c0 1.654-1.346 3-3 3s-3-1.346-3-3 1.346-3 3-3 3 1.346 3 3Zm-9.5-5c1.69 0 3.624.703 4.697 1.449C16.9 3.111 16 4.446 16 6a3.996 3.996 0 0 0 2.598 3.733c1.127 2.415 1.897 5.201 2.319 8.267H3.077C4.628 6.335 9.531 1 13.5 1ZM23 23H1v-2.5c0-.827.673-1.5 1.5-1.5h19c.827 0 1.5.673 1.5 1.5V23Z"/></svg>