<svg xmlns="http://www.w3.org/2000/svg" width="512" height="512" data-name="Layer 1" viewBox="0 0 24 24"><path d="M24 8.5 21.367 0H2.632L0 8.5c0 .951.382 1.815 1 2.447V21.5C1 22.878 2.122 24 3.5 24h9c1.379 0 2.5-1.122 2.5-2.5v-9.838a3.525 3.525 0 0 0 1.5-1.361 3.501 3.501 0 0 0 3 1.699h1a3.49 3.49 0 0 0 1.5-.338V24h1V10.947A3.49 3.49 0 0 0 24 8.5ZM12.5 23h-9c-.827 0-1.5-.673-1.5-1.5V18h12v3.5c0 .827-.673 1.5-1.5 1.5Zm1.5-6H2v-5.338c.455.217.964.338 1.5.338h1a3.501 3.501 0 0 0 3-1.699 3.501 3.501 0 0 0 3 1.699h3c.17 0 .337-.012.5-.036V17Zm5.5-6A2.503 2.503 0 0 1 17 8.5V8h-1v.5c0 1.378-1.121 2.5-2.5 2.5h-3A2.503 2.503 0 0 1 8 8.5V8H7v.5C7 9.878 5.878 11 4.5 11h-1a2.503 2.503 0 0 1-2.499-2.427L3.368 1H7v4h1V1h8v4h1V1h3.633l2.366 7.573A2.503 2.503 0 0 1 20.5 11h-1Z"/></svg>