<svg xmlns="http://www.w3.org/2000/svg" width="512" height="512" data-name="Layer 1" viewBox="0 0 24 24"><path d="M21.5 0h-19A2.503 2.503 0 0 0 0 2.5V24h24V2.5C24 1.121 22.878 0 21.5 0ZM23 23H1V2.5C1 1.673 1.673 1 2.5 1h19c.827 0 1.5.673 1.5 1.5V23ZM19 7.782V8h-1v-.218A2.785 2.785 0 0 0 15.218 5h-6.44a2.78 2.78 0 0 0-2.777 2.777c0 1.236.83 2.335 2.019 2.671l8.231 2.13a3.805 3.805 0 0 1 2.75 3.64A3.786 3.786 0 0 1 15.219 20H8.783a3.786 3.786 0 0 1-3.782-3.782V16h1v.218A2.785 2.785 0 0 0 8.783 19h6.436a2.785 2.785 0 0 0 2.782-2.782 2.798 2.798 0 0 0-2.014-2.675l-8.229-2.129a3.795 3.795 0 0 1-2.757-3.637A3.78 3.78 0 0 1 8.778 4h6.44A3.786 3.786 0 0 1 19 7.782Z"/></svg>