<svg xmlns="http://www.w3.org/2000/svg" width="512" height="512" data-name="Layer 1" viewBox="0 0 24 24"><path d="M17.924 5.068C17.471 2.194 14.946 0 12 0S6.529 2.194 6.076 5.068C2.637 5.523 0 8.491 0 12c0 3.859 3.14 7 7 7h4.5v5h1v-5H17c3.86 0 7-3.141 7-7 0-3.509-2.637-6.477-6.076-6.932ZM17 18h-4.5v-2.793l3.854-3.854-.707-.707-3.146 3.146V8.999h-1v4.793l-3.146-3.146-.707.707 3.854 3.854V18H7c-3.309 0-6-2.691-6-6 0-3.125 2.442-5.751 5.56-5.977l.425-.031.037-.425C7.242 3.005 9.429 1 12 1s4.758 2.006 4.978 4.567l.037.425.425.031C20.558 6.249 23 8.875 23 12c0 3.309-2.691 6-6 6Z"/></svg>