<svg xmlns="http://www.w3.org/2000/svg" data-name="Layer 1" viewBox="0 0 24 24"><path d="M23.356.09C20.529.4 11.927 1.341 5.223 8.064a7.643 7.643 0 0 0-2.214 5.752 7.527 7.527 0 0 0 1.843 4.602L.016 23.277l.709.705 4.828-4.853c.077.068.147.142.227.208 1.348 1.114 3.008 1.659 4.689 1.659a8.102 8.102 0 0 0 5.838-2.521c4.249-4.437 6.877-10.604 7.601-17.839l.062-.614-.613.067Zm-7.771 17.694c-2.506 2.616-6.533 2.96-9.167.781-.056-.046-.105-.098-.159-.145L9.662 15h8.179a23.654 23.654 0 0 1-2.255 2.784ZM10.657 14l4.956-4.981 5.36-.017A27.219 27.219 0 0 1 18.515 14h-7.858Zm10.681-5.999-6.142.02-9.638 9.687a6.544 6.544 0 0 1-1.55-3.94A6.646 6.646 0 0 1 5.931 8.77c6.026-6.043 13.693-7.241 16.915-7.617A33.89 33.89 0 0 1 21.337 8Z"/></svg>