<svg xmlns="http://www.w3.org/2000/svg" width="512" height="512" data-name="Layer 1" viewBox="0 0 24 24"><path d="M24 8.686 4.098 4.421C4.649 3.962 5 3.271 5 2.5 5 1.122 3.878 0 2.5 0S0 1.122 0 2.5c0 1.207.86 2.217 2 2.45V24h1v-5.086l21-4V8.686ZM11 6.923l3 .643v8.235l-3 .571V6.923Zm-1 9.64-3 .571V6.065l3 .643v9.854Zm5-8.783 3 .643v6.616l-3 .571V7.78ZM1 2.5C1 1.673 1.673 1 2.5 1S4 1.673 4 2.5 3.327 4 2.5 4 1 3.327 1 2.5Zm2 2.708 3 .643v11.473l-3 .571V5.208Zm20 8.878-4 .762V8.637l4 .857v4.592Z"/></svg>