<svg xmlns="http://www.w3.org/2000/svg" width="512" height="512" data-name="Layer 1" viewBox="0 0 24 24"><path d="M6 16a1 1 0 1 1-2 0 1 1 0 0 1 2 0Zm13-1a1 1 0 1 0 0 2 1 1 0 0 0 0-2Zm5 5h-2v3h-5v-3H7v3H2v-3H0V8h1.592c.905-1.949 1.885-3.641 2.93-5.054a3.4 3.4 0 0 1 1.846-1.245C7.553 1.382 9.491 1 12.001 1s4.448.381 5.632.701a3.4 3.4 0 0 1 1.847 1.246c1.045 1.413 2.025 3.105 2.93 5.054h1.592v12ZM1.064 11.913C2.834 11.664 7.934 11 12 11s9.166.664 10.936.913c-1.246-3.417-2.679-6.232-4.263-8.372a2.388 2.388 0 0 0-1.303-.874C16.245 2.363 14.399 2 11.999 2s-4.246.362-5.372.667a2.392 2.392 0 0 0-1.302.874c-1.584 2.141-3.017 4.956-4.263 8.373ZM6 20H3v2h3v-2Zm15 0h-3v2h3v-2Zm2-1v-6.068C21.48 12.714 16.177 12 12 12s-9.48.714-11 .932V19h22Z"/></svg>