<svg xmlns="http://www.w3.org/2000/svg" width="512" height="512" data-name="Layer 1" viewBox="0 0 24 24"><path d="m12.561 8.439 3.293 3.293-.707.707-3.146-3.146V17h-1V9.293l-3.146 3.146-.707-.707 3.293-3.293a1.503 1.503 0 0 1 2.121 0ZM24 14c0 3.859-3.141 7-7 7H4.75A4.756 4.756 0 0 1 0 16.25c0-1.627.827-3.125 2.181-3.996A8.58 8.58 0 0 1 2 10.5C2 5.813 5.813 2 10.5 2a8.456 8.456 0 0 1 7.803 5.121C21.571 7.737 24 10.644 24 14Zm-1 0c0-2.959-2.204-5.511-5.126-5.937l-.287-.042-.105-.27a7.464 7.464 0 0 0-6.981-4.752 7.508 7.508 0 0 0-7.264 9.374l.098.38-.346.186a3.747 3.747 0 0 0-1.987 3.311A3.755 3.755 0 0 0 4.752 20h12.25c3.309 0 6-2.691 6-6Z"/></svg>