<svg xmlns="http://www.w3.org/2000/svg" width="512" height="512" data-name="Layer 1" viewBox="0 0 24 24"><path d="M22 4h-5V2.5C17 1.122 15.878 0 14.5 0h-5A2.503 2.503 0 0 0 7 2.5V4H2v1h2v16.5C4 22.878 5.122 24 6.5 24h11c1.378 0 2.5-1.122 2.5-2.5V5h2V4ZM8 2.5C8 1.673 8.673 1 9.5 1h5c.827 0 1.5.673 1.5 1.5V4H8V2.5Zm11 19c0 .827-.673 1.5-1.5 1.5h-11c-.827 0-1.5-.673-1.5-1.5V5h14v16.5ZM8.111 13.481l-.707-.707 3.203-3.203a1.972 1.972 0 0 1 2.787 0l3.203 3.203-.707.707-3.203-3.203a.963.963 0 0 0-.187-.146V18h-1v-7.868a.985.985 0 0 0-.187.146L8.11 13.481Z"/></svg>