<svg xmlns="http://www.w3.org/2000/svg" width="512" height="512" data-name="Layer 1" viewBox="0 0 24 24"><path d="M24 20h-3V2.5C21 1.121 19.878 0 18.5 0h-16A2.503 2.503 0 0 0 0 2.5V21h4.036c.243 1.694 1.704 3 3.464 3s3.221-1.306 3.464-3H24v-1ZM1 7h6v4H1V7Zm0 5h7V6H1V2.5C1 1.673 1.673 1 2.5 1h16c.827 0 1.5.673 1.5 1.5V20h-9.036c-.243-1.694-1.704-3-3.464-3s-3.221 1.306-3.464 3H1v-8Zm6.5 11C6.122 23 5 21.879 5 20.5S6.122 18 7.5 18s2.5 1.121 2.5 2.5S8.878 23 7.5 23ZM17 6h-6v6h6V6Zm-1 5h-4V7h4v4Z"/></svg>