<svg xmlns="http://www.w3.org/2000/svg" width="512" height="512" data-name="Layer 1" viewBox="0 0 24 24"><path d="m18.417 17.71.654-.639c3.899-3.899 3.899-10.243 0-14.142C17.182 1.04 14.671 0 12 0S6.817 1.04 4.929 2.929c-.216.216-.422.442-.617.675L.753.046.046.753l23.201 23.201.707-.707-5.536-5.536ZM5.636 3.636C7.336 1.936 9.596 1 12 1s4.664.936 6.364 2.636c3.509 3.509 3.509 9.219.004 12.724l-.658.643L5.022 4.315c.192-.235.398-.463.614-.679Zm9.929 15.465.707.707-4.273 4.179-7.067-6.912A10.02 10.02 0 0 1 2.723 6.259l.783.783c-1.104 3.179-.367 6.826 2.129 9.322l6.364 6.225 3.566-3.488Z"/></svg>