<svg xmlns="http://www.w3.org/2000/svg" width="512" height="512" data-name="Layer 1" viewBox="0 0 24 24"><path d="M19.5 0h-16C2.673 0 2 .673 2 1.5V24h17.5c1.378 0 2.5-1.122 2.5-2.5v-19C22 1.122 20.878 0 19.5 0Zm-16 1h16c.827 0 1.5.673 1.5 1.5v17.013A2.477 2.477 0 0 0 19.5 19H3V1.5a.5.5 0 0 1 .5-.5Zm16 22H3v-3h16.5c.827 0 1.5.673 1.5 1.5s-.673 1.5-1.5 1.5Z"/><path d="m7.758 9.993-2.133 3.502h4.268L12 16.95l2.107-3.455h4.268l-2.133-3.502 2.133-3.498h-4.264l-2.112-3.467-2.112 3.467H5.623l2.133 3.498Zm-.352 2.502.938-1.541.94 1.541H7.406ZM8.93 9.993l1.521-2.498h3.099l1.521 2.498-1.526 2.502h-3.091L8.928 9.993Zm3.071 5.036-.936-1.534h1.871L12 15.029Zm4.595-2.534h-1.878l.94-1.541.938 1.541Zm0-5-.937 1.537-.936-1.537h1.874Zm-4.594-2.544.94 1.544h-1.881l.94-1.544ZM8.345 9.032l-.937-1.537h1.874l-.936 1.537Z"/></svg>