<svg xmlns="http://www.w3.org/2000/svg" width="512" height="512" data-name="Layer 1" viewBox="0 0 24 24"><path d="M21.677 19.02C22.592 18.034 24 16.301 24 14c0-3.401-3.031-6.247-3.16-6.367l-.34-.314-.34.314C20.031 7.753 17 10.599 17 14c0 2.286 1.391 4.011 2.327 5.023-.714.744-1.597 1.999-1.723 3.161l-.189 1.758 3.085-1.193 3.085 1.193-.189-1.758c-.123-1.142-.98-2.406-1.719-3.165ZM18 14c0-2.333 1.747-4.472 2.5-5.286.754.813 2.5 2.947 2.5 5.286 0 2.187-1.536 3.798-2.362 4.663l-.138.146-.138-.146C19.536 17.798 18 16.186 18 14Zm2.5 7.677-1.915.74c.109-1.011 1.26-2.583 1.909-3.154.665.552 1.812 2.141 1.921 3.154l-1.915-.74ZM4.5 11a2.49 2.49 0 0 0-1.664.636C4.1 6.322 9.068 1.156 20 1.004V6h1V0h-.5C7.641 0 1.741 6.99 1.508 14.062A2.003 2.003 0 0 0 0 16v6c0 1.103.897 2 2 2s2-.897 2-2v-6l-.001-.05A2.503 2.503 0 0 0 7 13.5C7 12.121 5.878 11 4.5 11ZM3 22a1.001 1.001 0 0 1-2 0v-6a1.001 1.001 0 0 1 2 0v6Zm1.5-7c-.827 0-1.5-.673-1.5-1.5S3.673 12 4.5 12s1.5.673 1.5 1.5S5.327 15 4.5 15Z"/></svg>