<svg xmlns="http://www.w3.org/2000/svg" width="512" height="512" data-name="Layer 1" viewBox="0 0 24 24"><path d="M7 23c0 .55-.45 1-1 1s-1-.45-1-1 .45-1 1-1 1 .45 1 1Zm-5-1c-.55 0-1 .45-1 1s.45 1 1 1 1-.45 1-1-.45-1-1-1Zm8 0c-.55 0-1 .45-1 1s.45 1 1 1 1-.45 1-1-.45-1-1-1Zm4 0c-.55 0-1 .45-1 1s.45 1 1 1 1-.45 1-1-.45-1-1-1Zm8 0c-.55 0-1 .45-1 1s.45 1 1 1 1-.45 1-1-.45-1-1-1Zm-4 0c-.55 0-1 .45-1 1s.45 1 1 1 1-.45 1-1-.45-1-1-1Zm-.15-15.35.71-.71-5.5-5.5c-.58-.58-1.54-.58-2.12 0l-5.5 5.5.71.71 5.35-5.36V20h1V1.29l5.35 5.35Z"/></svg>