<svg xmlns="http://www.w3.org/2000/svg" width="512" height="512" data-name="Layer 1" viewBox="0 0 24 24"><path d="M23.959 11.5c-.231-1.421-1.557-2.492-3.084-2.492l-6.041.006L13.727 4H16v2h1V1h-1v2h-2.494l-.226-1.023A2.48 2.48 0 0 0 10.845.015L9-.006V3H7v1h2v5.02l-4.014.004-1.202-1.815A2.693 2.693 0 0 0 1.533 6H0v12h1.547a2.69 2.69 0 0 0 2.257-1.219l1.165-1.775L9 15.002V20H7v1h2v2.994l1.839.021c1.164 0 2.19-.824 2.441-1.961L13.513 21H16v2h1v-5h-1v2h-2.266l1.105-5.004 6.171-.006c.878 0 1.709-.384 2.279-1.054s.814-1.558.671-2.436Zm-1.433 1.787a1.988 1.988 0 0 1-1.518.702l-6.954.007-1.751 7.843a1.49 1.49 0 0 1-1.459 1.176l-.845-.009V14l-5.571.006-1.461 2.227c-.315.48-.847.768-1.421.768H.999V7h.533c.572 0 1.102.284 1.417.762l1.499 2.263 5.551-.006V1.006l.839.009a1.49 1.49 0 0 1 1.464 1.177l1.752 7.823 6.82-.007c1.042 0 1.943.71 2.096 1.652a1.98 1.98 0 0 1-.446 1.627Z"/></svg>