<svg xmlns="http://www.w3.org/2000/svg" width="512" height="512" data-name="Layer 1" viewBox="0 0 24 24"><path d="M8.974 12.026C12.297 12.026 15 9.323 15 6S12.297-.026 8.974-.026 2.949 2.677 2.949 6s2.703 6.026 6.025 6.026Zm0-11.052C11.745.974 14 3.228 14 6s-2.254 5.026-5.026 5.026S3.949 8.771 3.949 6 6.203.974 8.974.974ZM4.5 14H9v1H4.5C2.57 15 1 16.57 1 18.5V24H0v-5.5C0 16.019 2.019 14 4.5 14Zm18 3c0-.73-.157-1.424-.44-2.05l1.755-1.011-.499-.866-1.756 1.012a5.003 5.003 0 0 0-3.559-2.06V10h-1v2.025a5 5 0 0 0-3.559 2.06l-1.756-1.012-.499.866 1.755 1.011c-.283.626-.44 1.32-.44 2.05s.157 1.424.44 2.05l-1.755 1.011.499.866 1.756-1.012a5.003 5.003 0 0 0 3.559 2.06V24h1v-2.025a5 5 0 0 0 3.559-2.06l1.756 1.012.499-.866-1.755-1.011c.283-.626.44-1.32.44-2.05Zm-5 4c-2.206 0-4-1.794-4-4s1.794-4 4-4 4 1.794 4 4-1.794 4-4 4Z"/></svg>