<svg xmlns="http://www.w3.org/2000/svg" width="512" height="512" data-name="Layer 1" viewBox="0 0 24 24"><path d="M12 0C5.383 0 0 5.383 0 12s5.383 12 12 12 12-5.383 12-12S18.617 0 12 0Zm0 23C5.935 23 1 18.065 1 12c0-2.853 1.101-5.447 2.889-7.404l15.515 15.516A10.944 10.944 0 0 1 12 23.001Zm1.707-10H19v2h-3.293l-2-2Zm6.404 6.404L16.707 16H20v-4h-7.293L4.596 3.889A10.944 10.944 0 0 1 12 1c6.065 0 11 4.935 11 11 0 2.853-1.101 5.448-2.889 7.404ZM12 3h1c0 1.03.684 1.964 1.784 2.435l2.826 1.212c1.474.632 2.39 1.917 2.39 3.354h-1c0-1.03-.684-1.963-1.784-2.434L14.39 6.355C12.916 5.723 12 4.438 12 3.001Zm-.535 12H10v-1.465L8.464 12H4v4h8.465l-1-1ZM9 15H5v-2h4v2Z"/></svg>