<svg xmlns="http://www.w3.org/2000/svg" width="512" height="512" data-name="Layer 1" viewBox="0 0 24 24"><path d="M24 24H12C5.383 24 0 18.617 0 12S5.383 0 12 0s12 5.383 12 12v12ZM12 1C5.935 1 1 5.935 1 12s4.935 11 11 11h11V12c0-6.065-4.935-11-11-11ZM9.976 16.178l-3.825-3.825a.5.5 0 0 1 0-.707l3.825-3.825-.707-.707-3.825 3.825a1.501 1.501 0 0 0 0 2.121l3.825 3.825.707-.707Zm8.585-3.118a1.501 1.501 0 0 0 0-2.121l-3.825-3.825-.707.707 3.825 3.825a.5.5 0 0 1 0 .707l-3.825 3.825.707.707 3.825-3.825Z"/></svg>