<svg xmlns="http://www.w3.org/2000/svg" data-name="Layer 1" viewBox="0 0 24 24"><path d="M2.5 23H8v1H2.5A2.502 2.502 0 0 1 0 21.5V16h1v5.5c0 .827.673 1.5 1.5 1.5ZM23 21.5c0 .827-.673 1.5-1.5 1.5H16v1h5.5c1.379 0 2.5-1.121 2.5-2.5V16h-1v5.5ZM21.5 0H16v1h5.5c.827 0 1.5.673 1.5 1.5V8h1V2.5C24 1.121 22.879 0 21.5 0ZM1 2.5C1 1.673 1.673 1 2.5 1H8V0H2.5A2.502 2.502 0 0 0 0 2.5V8h1V2.5ZM9 12c0-1.654 1.346-3 3-3s3 1.346 3 3-1.346 3-3 3-3-1.346-3-3Zm1 0c0 1.103.897 2 2 2s2-.897 2-2-.897-2-2-2-2 .897-2 2ZM8.902 6l1.33-2h3.535l1.33 2h1.902c1.103 0 2 .897 2 2v10H5V8c0-1.103.897-2 2-2h1.902ZM17 7H7a1 1 0 0 0-1 1v9h12V8a1 1 0 0 0-1-1Zm-6.897-1h3.795l-.665-1h-2.465l-.665 1Z"/></svg>