<svg xmlns="http://www.w3.org/2000/svg" width="512" height="512" data-name="Layer 1" viewBox="0 0 24 24"><path d="M12 20c-2.28 0-4-1.666-4-3.875C8 13.148 10.056 10 12 10s4 3.148 4 6.125C16 18.334 14.28 20 12 20Zm0-9c-1.128 0-3 2.482-3 5.125C9 17.791 10.262 19 12 19s3-1.209 3-2.875C15 13.482 13.129 11 12 11Zm0 13c-5.514 0-10-4.049-10-9.025C2 5.286 8.606 0 12 0c2.591 0 4.598 1.529 5.367 4.089.553 1.84 1.452 3.588 2.675 5.196C21.506 11.211 22 12.647 22 14.974c0 4.977-4.486 9.025-10 9.025Zm0-23C9.309 1 3 5.754 3 14.975 3 19.4 7.038 23 12 23s9-3.6 9-8.025c0-2.102-.427-3.337-1.755-5.084-1.295-1.704-2.249-3.559-2.835-5.514C15.764 2.231 14.157 1 12 1Z"/></svg>