<svg xmlns="http://www.w3.org/2000/svg" width="512" height="512" data-name="Layer 1" viewBox="0 0 24 24"><path d="M24 5.5v13.23c0 .62-.23 1.21-.64 1.68L20.16 24h-1.34l3.8-4.26c.25-.28.39-.63.39-1.01V5.5c0-.83-.67-1.5-1.5-1.5s-1.5.67-1.5 1.5v9c0 .57-.19 1.14-.58 1.6l-3.1 3.21-.72-.7 3.08-3.18a1.505 1.505 0 0 0-.05-1.94c-.27-.3-.63-.47-1.03-.5-.39-.01-.78.11-1.08.38l-3.86 3.55c.22.38.35.81.35 1.25v5.81h-1v-5.81c0-.42-.18-.82-.48-1.1l-4.03-3.7c-.29-.26-.67-.39-1.08-.38-.4.02-.77.2-1.03.5-.49.55-.51 1.39-.03 1.96l3.05 3.15-.72.7-3.08-3.18c-.4-.47-.59-1.05-.6-1.63h-.01V5.5c0-.83-.67-1.5-1.5-1.5s-1.5.67-1.5 1.5v13.23c0 .37.14.73.39 1.01L5.2 24H3.86l-3.2-3.59c-.42-.46-.64-1.06-.64-1.68V5.5a2.5 2.5 0 0 1 5 0v7c.39-.29.86-.47 1.36-.49.67-.04 1.31.19 1.8.63l3.84 3.53 3.83-3.53c.5-.45 1.14-.68 1.81-.64.5.03.97.2 1.36.49V5.5a2.5 2.5 0 0 1 5 0ZM10.89 10h.61v1h1v-1h.61a2.39 2.39 0 0 0 2.39-2.39c0-1.18-.84-2.17-2-2.36l-2.83-.47a1.393 1.393 0 0 1 .22-2.77h2.21c.77 0 1.39.63 1.39 1.39v.61h1V3.4a2.39 2.39 0 0 0-2.39-2.39h-.61V0h-1v1h-.61a2.39 2.39 0 0 0-2.39 2.39c0 1.18.84 2.17 2 2.36l2.83.47a1.393 1.393 0 0 1-.22 2.77h-2.21c-.77 0-1.39-.63-1.39-1.39v-.61h-1v.61a2.39 2.39 0 0 0 2.39 2.39Z"/></svg>