<svg xmlns="http://www.w3.org/2000/svg" width="512" height="512" data-name="Layer 1" viewBox="0 0 24 24"><path d="m22.068 5.475-.729.729c2.632 4.242 2.077 9.942-1.601 13.621-4.294 4.237-11.237 4.226-15.508-.047C-.06 15.489-.06 8.511 4.229 4.222c4.17-4.17 10.884-4.285 15.195-.346l-2.129 2.127a7.967 7.967 0 0 0-10.689.091A2.002 2.002 0 0 0 4.001 8c0 .49.178.94.472 1.288a8.014 8.014 0 0 0 1.871 8.369 7.958 7.958 0 0 0 3.673 2.094c.124.984.966 1.748 1.984 1.748s1.859-.764 1.984-1.748a7.98 7.98 0 0 0 3.673-2.094c2.5-2.5 2.991-6.255 1.483-9.255l-.752.752c1.141 2.571.666 5.691-1.438 7.795a6.987 6.987 0 0 1-3.096 1.801c-.297-.733-1.016-1.251-1.854-1.251s-1.557.518-1.854 1.251a6.967 6.967 0 0 1-3.096-1.801 7.01 7.01 0 0 1-1.724-7.067A2.002 2.002 0 0 0 8 7.999c0-.517-.197-.989-.521-1.345a6.97 6.97 0 0 1 9.106.055l-2.133 2.13a4.004 4.004 0 0 0-5.282.331c-.755.755-1.171 1.76-1.171 2.828s.416 2.073 1.171 2.828a4.002 4.002 0 0 0 5.657 0 3.974 3.974 0 0 0 1.171-2.828c0-.142-.026-.278-.041-.417l-1.021 1.021a2.98 2.98 0 0 1-.816 1.517 3.004 3.004 0 0 1-4.243 0c-.566-.566-.878-1.319-.878-2.121s.312-1.555.878-2.121a3.003 3.003 0 0 1 4.243 0l.354.354 6.372-6.364-.354-.354C18.226 1.248 15.212 0 12.007 0S5.789 1.248 3.522 3.515c-4.678 4.678-4.678 12.292 0 16.97C5.789 22.752 8.802 24 12.007 24s6.219-1.248 8.485-3.515c4.067-4.071 4.587-10.363 1.575-15.01ZM12 18.5a1.001 1.001 0 1 1-1 1c0-.552.449-1 1-1ZM6 9a1.001 1.001 0 0 1 0-2 1.001 1.001 0 0 1 0 2Z"/></svg>