<svg xmlns="http://www.w3.org/2000/svg" width="512" height="512" data-name="Layer 1" viewBox="0 0 24 24"><path d="M1.5 18a3.996 3.996 0 0 1-1.471-.279l.367-.93A3.004 3.004 0 0 0 4.5 14h1c0 1.654 1.346 3 3 3s3-1.346 3-3h1c0 1.654 1.346 3 3 3s3-1.346 3-3h1a3.004 3.004 0 0 0 4.111 2.788l.369.93A4.004 4.004 0 0 1 19 15.935C18.317 17.166 17.004 18 15.5 18s-2.817-.835-3.5-2.065C11.317 17.166 10.004 18 8.5 18s-2.817-.835-3.5-2.065A4.002 4.002 0 0 1 1.5 18Zm21 5c-1.654 0-3-1.346-3-3h-1c0 1.654-1.346 3-3 3s-3-1.346-3-3h-1c0 1.654-1.346 3-3 3s-3-1.346-3-3h-1a3.004 3.004 0 0 1-4.107 2.789l-.37.93A4.004 4.004 0 0 0 5 21.935C5.683 23.166 6.996 24 8.5 24s2.817-.835 3.5-2.065C12.683 23.166 13.996 24 15.5 24s2.817-.835 3.5-2.065a4.002 4.002 0 0 0 4.977 1.784l-.37-.93c-.351.14-.724.211-1.107.211ZM11.313 1.278a.963.963 0 0 1 .187-.146V11h1V1.133c.066.04.129.088.187.146l3.203 3.202.707-.707L13.394.571a1.972 1.972 0 0 0-2.787 0L7.404 3.773l.707.707 3.203-3.202Z"/></svg>