<svg xmlns="http://www.w3.org/2000/svg" width="512" height="512" data-name="Layer 1" viewBox="0 0 24 24"><path d="M12 0C5.383 0 0 5.383 0 12s5.383 12 12 12 12-5.383 12-12S18.617 0 12 0Zm0 23C5.935 23 1 18.065 1 12S5.935 1 12 1s11 4.935 11 11-4.935 11-11 11Zm4-17h1v10.924c0 .474-.303.874-.771 1.021a1.142 1.142 0 0 1-1.286-.424L8.315 7.045c-.04-.056-.134-.029-.154-.023l-.16 10.981-1-.008.089-10.911c0-.469.303-.869.771-1.017a1.141 1.141 0 0 1 1.286.424l6.628 10.476c.039.057.135.029.154.023L16 5.999Z"/></svg>