<svg xmlns="http://www.w3.org/2000/svg" width="512" height="512" data-name="Layer 1" viewBox="0 0 24 24"><path d="m10 13.555 1 .998v9.446H7v-11.5a1.5 1.5 0 0 1 .683-1.257l.762.76a.5.5 0 0 0-.445.497v10.5h2v-9.445ZM16 23h-2v-5.452l-1-.998V24h4v-3.457l-1-.998v3.456Zm8.028.32-.706.707L-.021.728.686.021 13 12.312V6.5c0-.827.673-1.5 1.5-1.5h1c.827 0 1.5.673 1.5 1.5v9.805l2 1.996V1.5c0-.827.673-1.5 1.5-1.5h1c.827 0 1.5.673 1.5 1.5v20.794l1.028 1.026ZM14 13.31l2 1.996V6.5a.5.5 0 0 0-.5-.5h-1a.5.5 0 0 0-.5.5v6.81ZM22 1.5a.5.5 0 0 0-.5-.5h-1a.5.5 0 0 0-.5.5v17.799l2 1.997V1.5Zm-17 17V24H1v-5.5c0-.827.673-1.5 1.5-1.5h1c.827 0 1.5.673 1.5 1.5Zm-1 0a.5.5 0 0 0-.5-.5h-1a.5.5 0 0 0-.5.5V23h2v-4.5Z"/></svg>