<svg xmlns="http://www.w3.org/2000/svg" width="512" height="512" data-name="Layer 1" viewBox="0 0 24 24"><path d="M24 18.5V5.914c0-.395-.16-.781-.439-1.061L18.854.146l-.707.707 1.854 1.854V6.5c0 .827.673 1.5 1.5 1.5h1.5v10.5c0 .827-.673 1.5-1.5 1.5h-.793l-5.707-5.707V2.5c0-1.379-1.121-2.5-2.5-2.5H2.5c-.494 0-.973.147-1.378.415L.738.031.031.738l23.231 23.231.707-.707-2.27-2.27a2.503 2.503 0 0 0 2.302-2.491Zm-10-5.207L10.707 10H14v3.293ZM2.5 1h10c.827 0 1.5.673 1.5 1.5V9H9.707L1.854 1.147c.2-.095.42-.147.646-.147Zm19 6a.501.501 0 0 1-.5-.5V3.707l1.854 1.854a.504.504 0 0 1 .146.354v1.086h-1.5ZM14 17.587l1 1V24H0V3.587l1 1V9h4.413l1 1H1v13h13v-5.413Z"/></svg>