<svg xmlns="http://www.w3.org/2000/svg" width="512" height="512" data-name="Layer 1" viewBox="0 0 24 24"><path d="M22.5 17c0-.73-.157-1.424-.44-2.05l1.755-1.011-.499-.866-1.756 1.012a5.003 5.003 0 0 0-3.559-2.06V10h-1v2.025a5 5 0 0 0-3.559 2.06l-1.756-1.012-.499.866 1.755 1.011c-.283.626-.44 1.32-.44 2.05s.157 1.424.44 2.05l-1.755 1.011.499.866 1.756-1.012a5.003 5.003 0 0 0 3.559 2.06V24h1v-2.025a5 5 0 0 0 3.559-2.06l1.756 1.012.499-.866-1.755-1.011c.283-.626.44-1.32.44-2.05Zm-5 4c-2.206 0-4-1.794-4-4s1.794-4 4-4 4 1.794 4 4-1.794 4-4 4Zm-11-3H10v1H6.5c-.827 0-1.5.673-1.5 1.5V24H4v-3.5C4 19.122 5.122 18 6.5 18Zm-.473-9H2.5C1.673 9 1 9.673 1 10.5V14H0v-3.5C0 9.122 1.122 8 2.5 8h5c.22 0 .431.033.634.087A4.942 4.942 0 0 0 6.028 9ZM9 10c.772 0 1.471.301 2.003.783-.229.24-.443.493-.646.757A1.988 1.988 0 0 0 9 11c-1.103 0-2 .897-2 2 0 1.013.759 1.843 1.738 1.973a8.852 8.852 0 0 0-.172.983A2.996 2.996 0 0 1 6.001 13c0-1.654 1.346-3 3-3ZM5 6c1.654 0 3-1.346 3-3S6.654 0 5 0 2 1.346 2 3s1.346 3 3 3Zm0-5c1.103 0 2 .897 2 2s-.897 2-2 2-2-.897-2-2 .897-2 2-2Zm8 5c1.654 0 3-1.346 3-3s-1.346-3-3-3-3 1.346-3 3 1.346 3 3 3Zm0-5c1.103 0 2 .897 2 2s-.897 2-2 2-2-.897-2-2 .897-2 2-2Zm-1.027 8a4.94 4.94 0 0 0-2.407-.943c.154-.033.311-.057.475-.057H16v1h-4.027Z"/></svg>