<svg xmlns="http://www.w3.org/2000/svg" width="512" height="512" data-name="Layer 1" viewBox="0 0 24 24"><path d="M12 0C5.383 0 0 5.383 0 12s5.383 12 12 12a11.91 11.91 0 0 0 7.091-2.318l-.592-.807a10.913 10.913 0 0 1-6.5 2.125C5.935 23 1 18.065 1 12S5.935 1 12 1s11 4.935 11 11v2.5c0 1.378-1.122 2.5-2.5 2.5S18 15.878 18 14.5V12c0-3.309-2.691-6-6-6s-6 2.691-6 6 2.691 6 6 6a6.002 6.002 0 0 0 5.071-2.796A3.506 3.506 0 0 0 20.5 18c1.93 0 3.5-1.57 3.5-3.5V12c0-6.617-5.383-12-12-12Zm0 17c-2.757 0-5-2.243-5-5s2.243-5 5-5 5 2.243 5 5-2.243 5-5 5Z"/></svg>