<svg xmlns="http://www.w3.org/2000/svg" width="512" height="512" data-name="Layer 1" viewBox="0 0 24 24"><path d="m9.083 12.785 3.198-3.198.935.935.707-.707-.942-.942A4.13 4.13 0 0 0 13.911 7H16V6h-2.005a4.134 4.134 0 0 0-.879-2.41l1.487-1.487-.707-.707-1.486 1.486a4.112 4.112 0 0 0-2.41-.88V0H9v2.088a4.11 4.11 0 0 0-1.872.931L5.582 1.473l-.707.707 1.539 1.539-2.695 2.695L2.18 4.875l-.707.707 1.546 1.546A4.11 4.11 0 0 0 2.088 9H0v1h2.003c.031.885.338 1.722.88 2.411l-1.487 1.486.707.707 1.487-1.486a4.13 4.13 0 0 0 2.409.878V16h1v-2.089a4.125 4.125 0 0 0 2.083-1.126ZM3 9.851c0-.841.328-1.632.922-2.227l3.702-3.702C8.219 3.327 9.01 3 9.851 3s1.632.328 2.227.922a3.152 3.152 0 0 1 0 4.453l-3.702 3.702a3.152 3.152 0 0 1-4.453 0 3.128 3.128 0 0 1-.922-2.227Zm21 5.148v-1h-2.005a4.14 4.14 0 0 0-.878-2.41l1.468-1.467-.707-.707-1.467 1.467a4.112 4.112 0 0 0-2.41-.88V7.999h-1v2.088a4.123 4.123 0 0 0-2.083 1.128l-3.198 3.198-.951-.951-.707.707.958.958a4.11 4.11 0 0 0-.931 1.872H8.001v1h2.003c.031.885.338 1.722.88 2.411l-1.525 1.525.707.707 1.525-1.525a4.13 4.13 0 0 0 2.409.878v2.004h1V21.91a4.12 4.12 0 0 0 1.873-.93l1.55 1.55.707-.707-1.543-1.543 2.694-2.694 1.543 1.543.707-.707-1.55-1.55a4.13 4.13 0 0 0 .93-1.873H24Zm-3.922 1.376-3.702 3.702a3.152 3.152 0 0 1-4.453 0c-.595-.595-.922-1.386-.922-2.227s.328-1.632.922-2.227l3.702-3.702c.595-.595 1.386-.922 2.227-.922s1.632.328 2.227.922a3.152 3.152 0 0 1 0 4.453ZM9 6a1 1 0 1 1 2 0 1 1 0 0 1-2 0Zm6 12a1 1 0 1 1-2 0 1 1 0 0 1 2 0Z"/></svg>