<svg xmlns="http://www.w3.org/2000/svg" width="512" height="512" data-name="Layer 1" viewBox="0 0 24 24"><path d="m18.19 10.34.31.24.31-.24c.21-.17 5.19-4.12 5.19-7.16C24 1.43 22.65 0 21 0c-1 0-1.95.53-2.5 1.28C17.97.56 17.07 0 16 0c-1.65 0-3 1.43-3 3.18 0 3.04 4.98 6.99 5.19 7.16ZM16 1c1.11 0 2 .93 2 1.7V3h1v-.3c0-.79.87-1.7 2-1.7s2 .98 2 2.18c0 1.97-3 4.88-4.5 6.12C17 8.05 14 5.15 14 3.18c0-1.2.9-2.18 2-2.18ZM8.5 0h-6A2.5 2.5 0 0 0 0 2.5V11h11V2.5A2.5 2.5 0 0 0 8.5 0ZM10 10H1V2.5C1 1.67 1.67 1 2.5 1h6c.83 0 1.5.67 1.5 1.5V10Zm11.5 3h-6a2.5 2.5 0 0 0-2.5 2.5V24h11v-8.5a2.5 2.5 0 0 0-2.5-2.5ZM23 23h-9v-7.5c0-.83.67-1.5 1.5-1.5h6c.83 0 1.5.67 1.5 1.5V23ZM8.5 13h-6A2.5 2.5 0 0 0 0 15.5V24h11v-8.5A2.5 2.5 0 0 0 8.5 13ZM10 23H1v-7.5c0-.83.67-1.5 1.5-1.5h6c.83 0 1.5.67 1.5 1.5V23Z"/></svg>