<svg xmlns="http://www.w3.org/2000/svg" width="512" height="512" data-name="Layer 1" viewBox="0 0 24 24"><path d="M21 15c0-4.869-5.068-8.676-7.507-10.507A2.49 2.49 0 0 0 14.5 2.5C14.5 1.122 13.379 0 12 0S9.5 1.122 9.5 2.5c0 .782.369 1.473.933 1.932C7.851 6.243 3 10.275 3 15c0 3.484 1.993 6.505 4.896 8H3v1h18v-1h-4.895C19.007 21.505 21 18.484 21 15ZM12 1c.827 0 1.5.673 1.5 1.5S12.827 4 12 4s-1.5-.673-1.5-1.5S11.173 1 12 1ZM4 15c0-4.675 5.67-8.857 7.462-10.062.174.038.353.062.538.062.152 0 .3-.019.445-.045l.444.336c.897.673 2.169 1.632 3.391 2.805l-4.457 5.528.778.627 4.387-5.439C18.621 10.543 20 12.66 20 15c0 4.411-3.589 8-8 8s-8-3.589-8-8Z"/></svg>