<svg xmlns="http://www.w3.org/2000/svg" width="512" height="512" data-name="Layer 1" viewBox="0 0 24 24"><path d="M24.047 22.013a3.474 3.474 0 0 1-1.994 1.788 3.489 3.489 0 0 1-2.675-.146L.242 14.314l.438-.898 19.133 9.339a2.48 2.48 0 0 0 1.907.103 2.481 2.481 0 0 0 1.424-1.277l.902.433ZM16 2.5C16 1.122 17.121 0 18.5 0S21 1.122 21 2.5 19.879 5 18.5 5 16 3.878 16 2.5Zm1 0c0 .827.673 1.5 1.5 1.5S20 3.327 20 2.5 19.327 1 18.5 1 17 1.673 17 2.5Zm-7.5 9.434c-.585.892-.661 1.977-.199 2.832.417.773 1.219 1.235 2.143 1.235h5.672l.985 3.693 1.19.581-1.407-5.274h-6.44c-.567 0-1.016-.252-1.263-.71-.287-.531-.228-1.224.164-1.821l3.714-6.083 1.526.967c.641.61.473 1.583-.011 2.189-.013.017-2.107 3.459-2.107 3.459h1.171l1.744-2.869c.74-.955.951-2.495-.182-3.562l-2.456-1.569H4v1h9.122L9.5 11.936Z"/></svg>