<svg xmlns="http://www.w3.org/2000/svg" data-name="Layer 1" viewBox="0 0 24 24"><path d="M16 9.822V2.607c0-1.273-.896-2.379-2.084-2.573a2.532 2.532 0 0 0-2.035.562A2.496 2.496 0 0 0 11 2.501v6.262l-.491-.104a2.888 2.888 0 0 0-2.432.585 2.89 2.89 0 0 0-1.069 2.041l-4.275 4.207c-.473.472-.732 1.1-.732 1.768s.26 1.296.732 1.768l4.975 4.975h14.293V11.098l-6-1.273ZM21 23H8.121l-4.682-4.682c-.283-.283-.439-.66-.439-1.061s.156-.777.437-1.058L7 12.693V17h1v-5.5a1.9 1.9 0 0 1 .706-1.481 1.89 1.89 0 0 1 1.596-.383l1.698.36V2.5a1.499 1.499 0 0 1 1.756-1.479c.709.115 1.244.797 1.244 1.586v8.025l6 1.273V23Z"/></svg>