<svg xmlns="http://www.w3.org/2000/svg" width="512" height="512" data-name="Layer 1" viewBox="0 0 24 24"><path d="M14 13h2v1h-2v-1Zm4 1h2v-1h-2v1Zm-4 4h2v-1h-2v1Zm4 0h2v-1h-2v1ZM14 6h2V5h-2v1Zm4 0h2V5h-2v1Zm-4 4h2V9h-2v1Zm4 0h2V9h-2v1Zm6-7.5V24H0V8.329c0-.668.26-1.296.732-1.768l2.707-2.707c1.085-1.085 3.036-1.085 4.121 0l2.439 2.439V2.5c0-1.378 1.122-2.5 2.5-2.5h9c1.378 0 2.5 1.122 2.5 2.5ZM10 8.329c0-.401-.156-.777-.439-1.061L6.854 4.561c-.713-.713-1.994-.713-2.707 0L1.439 7.268C1.156 7.552 1 7.928 1 8.329V23h9V8.329ZM23 2.5c0-.827-.673-1.5-1.5-1.5h-9c-.827 0-1.5.673-1.5 1.5V23h12V2.5ZM4 14h3v-1H4v1Zm0-4h3V9H4v1Zm0 8h3v-1H4v1Z"/></svg>