<svg xmlns="http://www.w3.org/2000/svg" width="512" height="512" data-name="Layer 1" viewBox="0 0 24 24"><path d="M12.5 12h-1V4h1v8Zm-.5 2a1 1 0 1 0 0 2 1 1 0 0 0 0-2Z"/><path d="M17.987 2.28a9.043 9.043 0 0 0-7.05-2.218C6.944.52 3.644 3.736 3.091 7.708c-.414 2.964.593 5.827 2.764 7.854 1.363 1.273 2.146 3.029 2.146 4.816V24h8v-3.853c0-1.686.752-3.309 2.118-4.571A8.99 8.99 0 0 0 21.001 9a9.014 9.014 0 0 0-3.013-6.72ZM15 23H9v-2.622c0-.463-.046-.925-.134-1.378h6.233c-.066.377-.1.76-.1 1.147V23Zm2.439-8.158c-.987.912-1.695 1.993-2.087 3.158H8.598a7.811 7.811 0 0 0-2.063-3.169c-1.929-1.802-2.823-4.347-2.455-6.985.491-3.528 3.422-6.384 6.969-6.792 2.32-.267 4.547.434 6.272 1.972a8.016 8.016 0 0 1 2.678 5.973c0 2.24-.909 4.315-2.561 5.842Z"/></svg>