<svg xmlns="http://www.w3.org/2000/svg" width="512" height="512" data-name="Layer 1" viewBox="0 0 24 24"><path d="M16.827 0 8.256 24H7.161l8.572-24h1.095ZM7.586 17.675 11.855 6h-1.058L6.645 17.337c-.145.403-.514.663-.94.663s-.796-.261-.939-.661L1.057 6H-.019l3.842 11.674C4.112 18.48 4.85 19 5.705 19s1.593-.521 1.882-1.325ZM21.477 15H14.51l-1.308 4h-1.077l3.842-11.674C16.256 6.52 16.994 6 17.849 6s1.593.521 1.882 1.325L23.999 19h-1.058l-1.465-4Zm-.366-1L18.79 7.663C18.645 7.26 18.276 7 17.85 7s-.796.261-.939.661L14.838 14h6.273Z"/></svg>