<svg xmlns="http://www.w3.org/2000/svg" width="512" height="512" data-name="Layer 1" viewBox="0 0 24 24"><path d="m23.096 16.193-2.909-2.909a.963.963 0 0 0-.187-.146V24h-1V13.138a.985.985 0 0 0-.187.146l-2.871 2.871-.707-.707 2.871-2.871a1.972 1.972 0 0 1 2.787 0l2.909 2.909-.707.707ZM7 19h10v1H4.5c-.827 0-1.5.673-1.5 1.5S3.673 23 4.5 23H17v1H4.5A2.503 2.503 0 0 1 2 21.5v-19C2 1.122 3.121 0 4.5 0h16c.827 0 1.5.673 1.5 1.5v10.062l-.045-.045a3.42 3.42 0 0 0-.955-.651V1.5a.5.5 0 0 0-.5-.5H7v18ZM6 1H4.5C3.673 1 3 1.673 3 2.5v17.001A2.485 2.485 0 0 1 4.5 19H6V1Z"/></svg>