<svg xmlns="http://www.w3.org/2000/svg" width="512" height="512" data-name="Layer 1" viewBox="0 0 24 24"><path d="M12 5c1.379 0 2.5-1.121 2.5-2.5S13.379 0 12 0 9.5 1.121 9.5 2.5 10.621 5 12 5Zm0-4c.827 0 1.5.673 1.5 1.5S12.827 4 12 4s-1.5-.673-1.5-1.5S11.173 1 12 1Zm3 6.518c.202.156.382.343.531.558l3.605 5.208.822-.568-3.605-5.209A3.504 3.504 0 0 0 13.475 6h-2.951a3.501 3.501 0 0 0-2.878 1.508l-3.605 5.208.822.568 3.605-5.207c.149-.215.329-.403.531-.559v15.481h-5v1h16v-1h-5V7.518ZM10.524 7h2.951c.178 0 .354.019.524.056V15h-4V7.056c.171-.037.346-.056.524-.056ZM10 23v-7h4v7h-4ZM21.3 2.481 20-.118l-1.301 2.6-2.6 1.301 2.6 1.3L20 7.684l1.3-2.601 2.601-1.3L21.3 2.482Zm-.746 1.854L20 5.445l-.555-1.11-1.109-.554 1.109-.555L20 2.117l.554 1.109 1.11.555-1.11.554ZM6.868 5.399 4.623 4.276 3.5 2.031 2.377 4.276.132 5.4l2.245 1.123L3.5 8.768l1.123-2.245L6.868 5.4ZM3.5 6.531l-.377-.755-.755-.377.755-.377.377-.755.377.755.755.377-.755.377-.377.755Z"/></svg>