<svg xmlns="http://www.w3.org/2000/svg" width="512" height="512" data-name="Layer 1" viewBox="0 0 24 24"><path d="m23.948 12.247-.879-4.253A2.51 2.51 0 0 0 20.621 6h-1.267a2.51 2.51 0 0 0-2.15 1.226L16.152 9H7.848L6.796 7.226A2.512 2.512 0 0 0 4.646 6H3.379A2.51 2.51 0 0 0 .931 7.994l-.879 4.253a2.513 2.513 0 0 0 1.112 2.619L5 17.292V24h1v-7.259l-1.307-.827 1.585-7.602L8 11.216v5.783h8v-5.784l1.722-2.904 1.586 7.602L18 16.74v7.259h1v-6.708l3.836-2.426a2.51 2.51 0 0 0 1.112-2.619ZM3.86 15.388l-2.162-1.367a1.504 1.504 0 0 1-.667-1.57l.879-4.253a1.505 1.505 0 0 1 1.469-1.197h1.267c.33 0 .639.12.896.314L3.86 15.389ZM15 16H9v-6h6v6Zm7.302-1.979-2.161 1.367-1.683-8.073c.257-.194.567-.314.896-.314h1.267c.708 0 1.326.503 1.469 1.197l.879 4.253a1.504 1.504 0 0 1-.667 1.57ZM18.5 5C19.878 5 21 3.879 21 2.5S19.878 0 18.5 0 16 1.121 16 2.5 17.122 5 18.5 5Zm0-4c.827 0 1.5.673 1.5 1.5S19.327 4 18.5 4 17 3.327 17 2.5 17.673 1 18.5 1Zm-13 4C6.878 5 8 3.879 8 2.5S6.879 0 5.5 0 3 1.121 3 2.5 4.122 5 5.5 5Zm0-4C6.327 1 7 1.673 7 2.5S6.327 4 5.5 4 4 3.327 4 2.5 4.673 1 5.5 1ZM24 24h-1.026l-1.317-6.021.898-.568L24 24.001ZM1.445 17.411l.898.568L1.026 24H0l1.445-6.59Z"/></svg>