<svg xmlns="http://www.w3.org/2000/svg" width="512" height="512" data-name="Layer 1" viewBox="0 0 24 24"><path d="M12.475 8H15V7h-2.525a4.983 4.983 0 0 0-1.105-2.663l.591-.591A2.002 2.002 0 0 0 15 2.038c0-1.103-.897-2-2-2a2.002 2.002 0 0 0-1.736 2.991l-.601.601A4.975 4.975 0 0 0 8 2.525V0H7v2.525A4.983 4.983 0 0 0 4.337 3.63l-.577-.577A2.001 2.001 0 0 0 2.039.038c-1.103 0-2 .898-2 2s.897 2 2 2c.37 0 .717-.102 1.015-.278l.577.577A4.975 4.975 0 0 0 2.526 7H0v1h2.525a4.983 4.983 0 0 0 1.105 2.663l-.615.615A2.002 2.002 0 0 0 0 13c0 1.103.897 2 2 2a2.002 2.002 0 0 0 1.722-3.015l.615-.615A4.975 4.975 0 0 0 7 12.475V15h1v-2.525A5.009 5.009 0 0 0 12.475 8ZM13 1.038a1.001 1.001 0 1 1-1 1c0-.552.449-1 1-1Zm-11.961 1a1.001 1.001 0 1 1 1 1c-.551 0-1-.448-1-1ZM2 14a1.001 1.001 0 0 1 0-2 1.001 1.001 0 0 1 0 2Zm5.5-2.5c-2.206 0-4-1.794-4-4s1.794-4 4-4 4 1.794 4 4-1.794 4-4 4Zm13.659 4.049.695-.695A1.502 1.502 0 0 0 24 13.5c0-.827-.673-1.5-1.5-1.5a1.502 1.502 0 0 0-1.353 2.147l-.695.695a3.979 3.979 0 0 0-1.952-.81v-2.031h-1v2.031a3.987 3.987 0 0 0-1.952.81l-.695-.695A1.502 1.502 0 0 0 13.5 12c-.827 0-1.5.673-1.5 1.5a1.502 1.502 0 0 0 2.146 1.354l.695.695a3.98 3.98 0 0 0-.81 1.951H12v1h2.031a3.98 3.98 0 0 0 .81 1.951l-.695.695A1.502 1.502 0 0 0 12 22.5c0 .827.673 1.5 1.5 1.5a1.502 1.502 0 0 0 1.353-2.147l.695-.695c.553.43 1.222.719 1.952.81v2.031h1v-2.031a3.987 3.987 0 0 0 1.952-.81l.695.695A1.502 1.502 0 0 0 22.5 24c.827 0 1.5-.673 1.5-1.5a1.502 1.502 0 0 0-2.146-1.354l-.695-.695a3.98 3.98 0 0 0 .81-1.951H24v-1h-2.031a3.98 3.98 0 0 0-.81-1.951ZM21 18c0 1.654-1.346 3-3 3s-3-1.346-3-3 1.346-3 3-3 3 1.346 3 3Zm1.5-5a.5.5 0 1 1-.002 1.002A.5.5 0 0 1 22.5 13Zm-9 1a.5.5 0 1 1 .002-1.002A.5.5 0 0 1 13.5 14Zm0 9a.5.5 0 1 1 .002-1.002A.5.5 0 0 1 13.5 23Zm9-1a.5.5 0 1 1-.002 1.002A.5.5 0 0 1 22.5 22Z"/></svg>