<svg xmlns="http://www.w3.org/2000/svg" width="512" height="512" data-name="Layer 1" viewBox="0 0 24 24"><path d="M17.505.002c-3.067 0-5.638 2.138-6.318 5H0l1.864 16.777a2.497 2.497 0 0 0 2.485 2.224h11.47a2.51 2.51 0 0 0 2.476-2.156l2.34-16.845h-8.416c.655-2.305 2.775-4 5.287-4 3.033 0 5.5 2.467 5.5 5.5a5.48 5.48 0 0 1-1.291 3.523l-.196 1.566a6.482 6.482 0 0 0 2.487-5.09A6.508 6.508 0 0 0 17.505.002Zm-.201 21.708a1.507 1.507 0 0 1-1.486 1.293H4.349a1.5 1.5 0 0 1-1.491-1.334l-1.074-9.666h9.259A8.681 8.681 0 0 1 10.302 11h-8.63l-.555-4.998h9.914a6.363 6.363 0 0 0-.025.5c0 3.584 2.916 6.5 6.5 6.5.343 0 .683-.036 1.021-.09l-1.222 8.797Zm2.182-15.708-.815 5.867a5.558 5.558 0 0 1-1.166.133 5.506 5.506 0 0 1-5.5-5.5c0-.169.01-.335.025-.5h7.455Z"/></svg>