<svg xmlns="http://www.w3.org/2000/svg" width="512" height="512" data-name="Layer 1" viewBox="0 0 24 24"><path d="m23.829 4.555-.705-.709c-.023.023-1.321 1.289-3.635 2.417a372.402 372.402 0 0 0-1.67-3.964C17.187.86 15.965 0 14.548 0c-.915 0-1.954.489-2.553 1.222C11.385.489 10.326 0 9.394 0 7.931 0 6.85.773 6.18 2.299c-.354.809-1.302 3.08-1.672 3.968C2.173 5.137.85 3.866.827 3.844l-.701.713C.311 4.739 4.727 9 12.001 9s11.646-4.264 11.828-4.445ZM7.097 2.701C7.606 1.54 8.336 1 9.395 1c.899 0 2.105.741 2.105 1.5V3h1v-.5c0-.759 1.173-1.5 2.048-1.5 1.022 0 1.881.62 2.355 1.701.356.812 1.314 3.108 1.674 3.974C16.82 7.41 14.6 8 12 8s-4.814-.589-6.579-1.323c.36-.865 1.319-3.163 1.675-3.976ZM20.654 9.01a9.931 9.931 0 0 1 1.347 4.989c0 5.514-4.486 10-10 10S2 19.514 2 14c0-1.815.494-3.513 1.342-4.982.292.142.597.279.916.415A8.933 8.933 0 0 0 3 14c0 4.963 4.037 9 9 9s9-4.037 9-9c0-1.67-.466-3.231-1.262-4.573.319-.136.624-.274.915-.417ZM8.001 12.999a1 1 0 1 1 0-2 1 1 0 0 1 0 2Zm8 0a1 1 0 1 1 0-2 1 1 0 0 1 0 2Zm-8.727 2.957c.052.165 1.313 4.043 4.719 4.043h.009c3.405 0 4.673-3.877 4.726-4.042l.291-.917-.918.289c-.021.007-2.149.67-4.1.67s-4.078-.663-4.1-.67l-.916-.289.289.916Zm4.727 1.043c1.243 0 2.52-.239 3.375-.441-.525.99-1.6 2.441-3.374 2.441h-.009c-1.767 0-2.84-1.45-3.366-2.441.856.202 2.131.441 3.374.441Z"/></svg>