<svg xmlns="http://www.w3.org/2000/svg" width="512" height="512" data-name="Layer 1" viewBox="0 0 24 24"><path d="M24 20h-4v4h-1v-4h-4v-1h4v-4h1v4h4v1ZM8.134 8.087A2.456 2.456 0 0 0 7.5 8h-5A2.503 2.503 0 0 0 0 10.5V14h1v-3.5C1 9.673 1.673 9 2.5 9h3.527a4.954 4.954 0 0 1 2.106-.913ZM15.5 9c.827 0 1.5.673 1.5 1.5V13h1v-2.5C18 9.122 16.878 8 15.5 8h-5c-.22 0-.431.033-.634.087A4.942 4.942 0 0 1 11.972 9h3.527ZM2 3c0-1.654 1.346-3 3-3s3 1.346 3 3-1.346 3-3 3-3-1.346-3-3Zm1 0c0 1.103.897 2 2 2s2-.897 2-2-.897-2-2-2-2 .897-2 2Zm7 0c0-1.654 1.346-3 3-3s3 1.346 3 3-1.346 3-3 3-3-1.346-3-3Zm1 0c0 1.103.897 2 2 2s2-.897 2-2-.897-2-2-2-2 .897-2 2Zm-2 7c1.654 0 3 1.346 3 3s-1.346 3-3 3-3-1.346-3-3 1.346-3 3-3Zm-2 3c0 1.103.897 2 2 2s2-.897 2-2-.897-2-2-2-2 .897-2 2Zm-.5 5A2.503 2.503 0 0 0 4 20.5V24h1v-3.5c0-.827.673-1.5 1.5-1.5h5c.827 0 1.5.673 1.5 1.5v-1.987A2.477 2.477 0 0 0 11.5 18h-5Z"/></svg>