<svg xmlns="http://www.w3.org/2000/svg" width="512" height="512" data-name="Layer 1" viewBox="0 0 24 24"><path d="M9 15h1v3H9v-3Zm-3 9h1v-3H6v3Zm6 0h1v-3h-1v3Zm5.002-18.977A7.727 7.727 0 0 0 9.75 0C5.477 0 2 3.477 2 7.75c0 .763.116 1.523.345 2.266A5.439 5.439 0 0 0 0 14.5a5.507 5.507 0 0 0 4 5.288v-1.082c-1.741-.618-3-2.254-3-4.206 0-1.583.822-3.021 2.2-3.847l.354-.212-.141-.388a6.736 6.736 0 0 1-.412-2.304 6.758 6.758 0 0 1 6.75-6.75 6.733 6.733 0 0 1 6.417 4.662l.11.338.355.007c3.512.071 6.368 2.983 6.368 6.493 0 2.29-1.237 4.388-3 5.545v1.151c2.32-1.249 4-3.843 4-6.697 0-3.933-3.108-7.216-6.998-7.477ZM15 18h1v-3h-1v3Zm3 6h1v-3h-1v3Z"/></svg>