<svg xmlns="http://www.w3.org/2000/svg" width="512" height="512" data-name="Layer 1" viewBox="0 0 24 24"><path d="M23 7.26V19.3l-5-5-4 4-9-9.01-4 4V2.5C1 1.67 1.67 1 2.5 1h14.28l.5-1H2.5A2.5 2.5 0 0 0 0 2.5V24h24V6.76l-1 .5ZM23 23H1v-8.29l4-4 9 9 4-4 5 5V23ZM18 6.02l1.5 3 1.5-3 3-1.5-3-1.5L19.5.03l-1.5 3-3 1.5 3 1.5Zm.75-2.25.75-1.5.75 1.5 1.5.75-1.5.75-.75 1.5-.75-1.5-1.5-.75 1.5-.75ZM7 4c.55 0 1 .45 1 1s-.45 1-1 1-1-.45-1-1 .45-1 1-1Zm7.6 2.98-1.17 2.35-2.35 1.17 2.35 1.17 1.17 2.35 1.17-2.35 2.35-1.17-2.35-1.17-1.17-2.35Zm.43 3.95-.43.85-.43-.85-.85-.43.85-.43.43-.85.43.85.85.43-.85.43Z"/></svg>