<svg xmlns="http://www.w3.org/2000/svg" width="512" height="512" data-name="Layer 1" viewBox="0 0 24 24"><path d="M17.816 12H6.134l-3.855 8.221a2.596 2.596 0 0 0 .114 2.54A2.594 2.594 0 0 0 4.615 24h14.771c.912 0 1.742-.463 2.222-1.239a2.59 2.59 0 0 0 .118-2.531L17.817 12Zm2.94 10.235a1.602 1.602 0 0 1-1.371.765H4.614a1.602 1.602 0 0 1-1.371-.765 1.602 1.602 0 0 1-.064-1.578L6.769 13h10.415l3.644 7.668a1.598 1.598 0 0 1-.07 1.567ZM21.999 2.5v13.646l-1-2.106V2.5c0-.827-.673-1.5-1.5-1.5H4.5C3.673 1 3 1.673 3 2.5v11.472l-1 2.133V2.5C2 1.122 3.121 0 4.5 0h15C20.879 0 22 1.122 22 2.5Z"/></svg>