<svg xmlns="http://www.w3.org/2000/svg" width="512" height="512" data-name="Layer 1" viewBox="0 0 24 24"><path d="M8 15a1 1 0 1 1 0-2 1 1 0 0 1 0 2Zm8-2a1 1 0 1 0 0 2 1 1 0 0 0 0-2Zm-.5 6.5v.5h-7v-.5c0-1.93 1.57-3.5 3.5-3.5s3.5 1.57 3.5 3.5Zm-1.05-.5c-.232-1.14-1.242-2-2.45-2s-2.217.86-2.45 2h4.899ZM24 8v4c0 6.617-5.383 12-12 12S0 18.617 0 12V8h1c0 1.978 1.439 2 1.5 2H9c.551 0 1-.448 1-1v-.5c0-1.132-.679-1.411-1.055-1.479A3.447 3.447 0 0 1 6.5 8C4.57 8 3 6.43 3 4.5S4.57 1 6.5 1c.209 0 .419.022.647.07 1.27-1.238 3.37-1.391 4.795-.351 1.426-1.041 3.525-.889 4.795.351.228-.048.438-.07.647-.07 1.93 0 3.5 1.57 3.5 3.5s-1.57 3.5-3.5 3.5a3.448 3.448 0 0 1-2.446-.979c-.373.067-1.054.346-1.054 1.479V9c0 .552.449 1 1 1h6.615c.149-.003 1.5-.083 1.5-2h1Zm-1 2.452a2.47 2.47 0 0 1-1.5.548h-6.615c-1.103 0-2-.897-2-2v-.5c0-1.978 1.476-2.5 2.256-2.5h.251l.15.201c.022.03.629.799 1.842.799 1.378 0 2.5-1.121 2.5-2.5S18.762 2 17.384 2c-.203 0-.417.034-.674.106l-.305.086-.208-.239C15.21.82 13.384.717 12.28 1.734l-.339.312-.339-.312C10.498.716 8.672.82 7.685 1.953l-.208.239-.305-.086A2.473 2.473 0 0 0 6.498 2c-1.378 0-2.5 1.121-2.5 2.5S5.12 7 6.498 7c1.213 0 1.82-.769 1.845-.802l.15-.194L8.742 6c.78 0 2.256.522 2.256 2.5V9c0 1.103-.897 2-2 2H2.5a2.47 2.47 0 0 1-1.5-.548V12c0 6.065 4.935 11 11 11s11-4.935 11-11v-1.548Z"/></svg>