<svg xmlns="http://www.w3.org/2000/svg" width="512" height="512" data-name="Layer 1" viewBox="0 0 24 24"><path d="M23 19h1v3H0v-3h1v2h22v-2ZM21.5 2h-19A2.5 2.5 0 0 0 0 4.5V5h1v-.5C1 3.67 1.67 3 2.5 3h19c.83 0 1.5.67 1.5 1.5V5h1v-.5A2.5 2.5 0 0 0 21.5 2ZM1 17H0V8.5C0 7.67.67 7 1.5 7H4c1.65 0 3 1.35 3 3s-1.35 3-3 3H1v4Zm0-5h3c1.1 0 2-.9 2-2s-.9-2-2-2H1.5c-.28 0-.5.22-.5.5V12Zm12.45.62L16 17h-1.23l-2.35-4.03c-.14.02-.28.03-.42.03H9v4H8V8.5C8 7.67 8.67 7 9.5 7H12c1.65 0 3 1.35 3 3 0 1.13-.63 2.11-1.55 2.62ZM14 10c0-1.1-.9-2-2-2H9.5c-.28 0-.5.22-.5.5V12h3c1.1 0 2-.9 2-2Zm10 .5v3c0 1.93-1.57 3.5-3.5 3.5S17 15.43 17 13.5v-3C17 8.57 18.57 7 20.5 7S24 8.57 24 10.5Zm-1 0a2.5 2.5 0 0 0-5 0v3a2.5 2.5 0 0 0 5 0v-3Z"/></svg>