<svg xmlns="http://www.w3.org/2000/svg" width="512" height="512" data-name="Layer 1" viewBox="0 0 24 24"><path d="m23.561 10.094-8.486-8.486a5.506 5.506 0 0 0-7.777 0l-.354.354 5.779 5.779L0 20.465 3.535 24l12.724-12.723 3.059 3.06c.292.292.677.438 1.061.438s.769-.146 1.061-.438l2.121-2.122c.283-.282.439-.658.439-1.06s-.156-.778-.439-1.062ZM3.535 22.586l-2.121-2.121L13.43 8.448l2.122 2.122L3.535 22.586ZM8.378 1.981a4.505 4.505 0 0 1 5.99.334l6.011 6.011-2.828 2.828-9.173-9.173Zm14.476 9.526-2.121 2.122a.5.5 0 0 1-.707 0l-1.768-1.768 2.829-2.829 1.768 1.768a.497.497 0 0 1 0 .707Z"/></svg>