<svg xmlns="http://www.w3.org/2000/svg" width="512" height="512" data-name="Layer 1" viewBox="0 0 24 24"><path d="M18 24c-.55 0-1-.45-1-1s.45-1 1-1 1 .45 1 1-.45 1-1 1ZM7 23c0-.55-.45-1-1-1s-1 .45-1 1 .45 1 1 1 1-.45 1-1Zm17 0c0-.55-.45-1-1-1s-1 .45-1 1 .45 1 1 1 1-.45 1-1Zm0-5c0-.55-.45-1-1-1s-1 .45-1 1 .45 1 1 1 1-.45 1-1Zm0-6c0-.55-.45-1-1-1s-1 .45-1 1 .45 1 1 1 1-.45 1-1Zm0-6c0-.55-.45-1-1-1s-1 .45-1 1 .45 1 1 1 1-.45 1-1ZM13 23c0-.55-.45-1-1-1s-1 .45-1 1 .45 1 1 1 1-.45 1-1ZM1 2.5C1 1.67 1.67 1 2.5 1H24V0H2.5A2.5 2.5 0 0 0 0 2.5V24h1V2.5Z"/></svg>