<svg xmlns="http://www.w3.org/2000/svg" width="512" height="512" data-name="Layer 1" viewBox="0 0 24 24"><path d="M23.95.758 12.69 12.017l-.707-.707L23.243.051l.707.707Zm-10 2-.707-.707-6.26 6.259.707.707 6.26-6.259Zm1.033 13.552.707.707 6.26-6.259-.707-.707-6.26 6.259Zm-7.309-.29H12v.916l-3.3 1.91 1.325 4.027-.749.525-3.261-2.522-3.274 2.532-.722-.542 1.303-4.076L0 16.941v-.922h4.35l1.177-4.5h.971l1.176 4.5Zm2.185 1H6.901l-.889-3.402-.89 3.402H2.196l2.328 1.296-1.041 3.254 2.532-1.957 2.528 1.954-1.047-3.18 2.363-1.367Z"/></svg>