<svg xmlns="http://www.w3.org/2000/svg" width="512" height="512" data-name="Layer 1" viewBox="0 0 24 24"><path d="m22.925 8.754-7.743-7.436C14.332.468 13.203 0 12 0S9.668.468 8.825 1.311l-7.75 7.443A3.516 3.516 0 0 0 0 11.278V24h24V11.278c0-.948-.392-1.868-1.075-2.524Zm-13.4-6.729c1.322-1.322 3.62-1.33 4.956.007L22.1 9.349l-7.625 7.626c-1.322 1.322-3.627 1.322-4.949 0L1.9 9.349l7.626-7.325ZM23 23H1V11.278c0-.398.097-.788.276-1.138l7.542 7.542C9.668 18.532 10.797 19 12 19s2.332-.468 3.182-1.318l7.542-7.542c.179.35.276.74.276 1.139v11.722Z"/></svg>