<svg xmlns="http://www.w3.org/2000/svg" data-name="Layer 1" viewBox="0 0 24 24"><path d="M12 0C5.383 0 0 5.383 0 12s5.383 12 12 12 12-5.383 12-12S18.617 0 12 0Zm2.743 17H9.245L6.34 11.84 9.29 7h5.458l3.04 5.005L14.744 17Zm1.175-10h5.878a10.936 10.936 0 0 1 1.203 5c0 1.729-.401 3.365-1.115 4.823L15.918 7Zm5.296-1H9.899l3.024-4.961A11.01 11.01 0 0 1 21.215 6Zm-9.439-4.997-5.997 9.839L2.93 5.783a10.999 10.999 0 0 1 8.845-4.78ZM2.332 6.757 8.098 17H2.203A10.936 10.936 0 0 1 1 12c0-1.897.483-3.684 1.332-5.243ZM2.785 18h11.349l-3.026 4.964A11.007 11.007 0 0 1 2.785 18Zm9.473 4.997 6.114-10.03 2.953 4.861c-1.904 3.035-5.247 5.08-9.067 5.168Z"/></svg>