<svg xmlns="http://www.w3.org/2000/svg" width="512" height="512" data-name="Layer 1" viewBox="0 0 24 24"><path d="M8 20v-1h8v1H8Zm9-6H7v1h10v-1Zm1-5H6v1h12V9ZM4 7.894 2.699 5.293.1 3.993l2.6-1.301L4 .094l1.301 2.599 2.6 1.301-2.6 1.3L4 7.895Zm-.555-3.347L4 5.657l.555-1.11 1.109-.554-1.109-.555L4 2.328l-.555 1.11-1.109.555 1.109.554ZM23.868 17.5l-2.245 1.123-1.123 2.245-1.123-2.245-2.245-1.123 2.245-1.123 1.123-2.245 1.123 2.245 2.245 1.123Zm-2.236 0-.755-.377-.377-.755-.377.755-.755.377.755.377.377.755.377-.755.755-.377ZM9.5 2.5C9.5 1.121 10.621 0 12 0s2.5 1.121 2.5 2.5S13.379 5 12 5 9.5 3.879 9.5 2.5Zm1 0c0 .827.673 1.5 1.5 1.5s1.5-.673 1.5-1.5S12.827 1 12 1s-1.5.673-1.5 1.5ZM4 24h16v-1H4v1Z"/></svg>