<svg xmlns="http://www.w3.org/2000/svg" width="512" height="512" data-name="Layer 1" viewBox="0 0 24 24"><path d="m17.678 6 .721.43C18.839 6.692 21.08 8 22 8c1.103 0 2-.897 2-2s-.897-2-2-2c-.92 0-3.161 1.308-3.601 1.57l-.721.43ZM22 5c.551 0 1 .449 1 1s-.449 1-1 1c-.337 0-1.354-.465-2.335-1 .981-.535 1.998-1 2.335-1ZM2.435 17.435c.225.395.477.772.747 1.133-.192.363-.35.685-.484.98a11.976 11.976 0 0 1-1.132-1.617 12.002 12.002 0 0 1-1.565-5.93C0 5.383 5.383 0 12 0c2.081 0 4.132.542 5.93 1.565.577.329 1.109.717 1.617 1.132a18.13 18.13 0 0 0-.98.484c-.361-.27-.737-.522-1.133-.747A11.004 11.004 0 0 0 11.999.999C5.935 1 1 5.935 1 12c0 1.908.496 3.787 1.435 5.435Zm10.01-12.91-.379 3.409 3.409-.379.11.994-4.651.517.517-4.651.994.11ZM6 17.678l-.43.721C5.308 18.839 4 21.08 4 22c0 1.103.897 2 2 2s2-.897 2-2c0-.92-1.308-3.161-1.57-3.601L6 17.678ZM6 23c-.551 0-1-.449-1-1 0-.337.465-1.354 1-2.335.535.981 1 1.998 1 2.335 0 .551-.449 1-1 1Zm7.53-3.991c1.308 0 2.731-.367 3.917-1.552l.009-.009c3.041-3.04.699-7.656.598-7.851l-.423-.816-.456.798c-.014.025-1.451 2.529-3.26 4.338s-4.306 3.239-4.331 3.253l-.798.454.814.424c.119.062 1.882.96 3.929.96Zm1.092-4.384c1.249-1.249 2.303-2.768 2.899-3.697.47 1.355 1.041 4-.773 5.813l-.009.009c-1.814 1.814-4.456 1.24-5.809.769.928-.594 2.443-1.646 3.691-2.894Zm9.276-4.189c.067.516.102 1.042.102 1.564 0 6.617-5.383 12-12 12a12 12 0 0 1-1.564-.102c-.287-.037-.567-.104-.849-.162a3.94 3.94 0 0 0 .334-.952c.215.041.426.095.644.123.474.062.957.093 1.436.093 6.065 0 11-4.935 11-11 0-.479-.031-.962-.093-1.436-.028-.218-.082-.429-.123-.644a3.94 3.94 0 0 0 .952-.334c.058.282.125.562.162.849Zm-14.833.499-.517 4.651-.994-.11.379-3.409-3.409.379-.11-.994 4.651-.517Z"/></svg>