<svg xmlns="http://www.w3.org/2000/svg" width="512" height="512" data-name="Layer 1" viewBox="0 0 24 24"><path d="M15 21h1v3H3c-1.654 0-3-1.346-3-3V8c0-1.654 1.346-3 3-3h3v1H3c-1.103 0-2 .897-2 2v10.766A2.987 2.987 0 0 1 3 18h3.418c.156.357.353.692.585 1H3c-1.103 0-2 .897-2 2s.897 2 2 2h12v-2Zm9-19.5V19H11c-1.654 0-3-1.346-3-3V3c0-1.654 1.346-3 3-3h11.5c.827 0 1.5.673 1.5 1.5ZM9 3v10.766A2.987 2.987 0 0 1 11 13h12V1.5a.5.5 0 0 0-.5-.5H11c-1.103 0-2 .897-2 2Zm14 15v-4H11c-1.103 0-2 .897-2 2s.897 2 2 2h12Z"/></svg>