<svg xmlns="http://www.w3.org/2000/svg" width="512" height="512" data-name="Layer 1" viewBox="0 0 24 24"><path d="M24 12c0 1.433-.266 2.802-.729 4.078a7.954 7.954 0 0 0-.79-.747c.335-1.051.518-2.169.518-3.33 0-6.065-4.935-11-11-11S1 5.935 1 12s4.935 11 11 11c1.53 0 2.988-.316 4.313-.883.122.314.268.615.453.89a11.915 11.915 0 0 1-4.766.992C5.383 24 0 18.617 0 12S5.383 0 12 0s12 5.383 12 12Zm-12 5c1.626 0 2.988.992 3.002 1.002l.597-.803C15.533 17.15 13.966 16 12 16s-3.532 1.15-3.599 1.199l.598.802C9.013 17.991 10.362 17 12 17Zm-4.243-6.006a3.257 3.257 0 0 1-2.041-.923l-.703.711A4.264 4.264 0 0 0 7.957 12c.799 0 1.87-.242 2.866-1.249l-.711-.703c-.846.855-1.74.98-2.354.945Zm11.307-.228-.703-.712c-1.07 1.058-2.971 1.406-4.387-.026l-.711.703c.876.886 1.893 1.257 2.871 1.257 1.112 0 2.177-.479 2.93-1.222Zm3.937 9.734c0 1.378-1.121 2.5-2.5 2.5s-2.5-1.122-2.5-2.5c0-3.217-1.343-4.635-1.356-4.649l-1.089-1.12 1.535.277c.241.043 5.91 1.125 5.91 5.492Zm-1 0c0-2.415-2.356-3.631-3.862-4.161.425.868.862 2.231.862 4.161 0 .827.673 1.5 1.5 1.5s1.5-.673 1.5-1.5Z"/></svg>