<svg xmlns="http://www.w3.org/2000/svg" width="512" height="512" data-name="Layer 1" viewBox="0 0 24 24"><path d="m18.414 9 4.693-3.879c.566-.566.879-1.32.879-2.121s-.312-1.555-.879-2.121c-1.134-1.135-3.078-1.168-4.274.035L12.153 9H0v.5c0 4.22 1.854 8.145 4.877 10.266C5.42 20.08 6 20.815 6 21.409 6 22.286 5.286 23 4.409 23H4v1h16v-1h-.409A1.593 1.593 0 0 1 18 21.409c0-.594.58-1.329 1.159-1.667C22.145 17.644 24 13.719 24 9.499v-.5h-5.586Zm1.158-7.414c.756-.756 2.072-.756 2.828 0 .378.378.586.88.586 1.414s-.208 1.036-.551 1.382L16.845 9h-3.396l6.122-7.414ZM6.452 23c.343-.439.548-.991.548-1.591 0-.489-.193-.982-.475-1.409h10.953c-.286.43-.478.921-.478 1.409 0 .599.205 1.151.548 1.591H6.452Zm12.169-4.099c-.053.03-.105.064-.158.099H5.538a2.73 2.73 0 0 0-.123-.076C2.809 17.092 1.147 13.706 1.01 10h21.98c-.138 3.706-1.798 7.092-4.369 8.901Z"/></svg>