<svg xmlns="http://www.w3.org/2000/svg" width="512" height="512" data-name="Layer 1" viewBox="0 0 24 24"><path d="M1.414 10.471A4.975 4.975 0 0 1 0 7c0-3.203 3.063-5.761 6.361-4.798A6.02 6.02 0 0 1 11 0a5.96 5.96 0 0 1 4.52 2.061c1.86-.301 3.571.492 4.6 1.961A3.504 3.504 0 0 1 24 7.501c0 .191-.027.375-.056.558a6.981 6.981 0 0 0-.761-.674c-.068-.051-.14-.094-.209-.142A2.495 2.495 0 0 0 20.5 5.001c-.171 0-.345.019-.517.056l-.349.074-.184-.306a3.715 3.715 0 0 0-3.2-1.824 3.66 3.66 0 0 0-.816.096l-.308.07-.195-.249A4.974 4.974 0 0 0 11 1.001a5.011 5.011 0 0 0-4.053 2.081l-.222.307-.355-.13C3.565 2.229 1 4.346 1 7c0 .932.333 1.779.869 2.46-.177.32-.328.657-.455 1.012ZM24 19.5c0 1.93-1.57 3.5-3.5 3.5a3.463 3.463 0 0 1-1.545-.367 4.648 4.648 0 0 1-4.706.406A5.941 5.941 0 0 1 11 24a5.951 5.951 0 0 1-3.163-.906A4.903 4.903 0 0 1 5 24c-2.757 0-5-2.243-5-5 0-3.203 3.063-5.761 6.361-4.798A6.018 6.018 0 0 1 11 12a5.96 5.96 0 0 1 4.52 2.061c1.86-.299 3.571.492 4.6 1.961 2.06-.242 3.88 1.422 3.88 3.479Zm-1 0c0-1.55-1.461-2.778-3.017-2.444l-.349.074-.184-.306A3.715 3.715 0 0 0 16.25 15a3.66 3.66 0 0 0-.816.096l-.308.07-.195-.249A4.974 4.974 0 0 0 11 13a5.011 5.011 0 0 0-4.053 2.081l-.222.307-.355-.13C3.566 14.229 1 16.346 1 19c0 2.206 1.794 4 4 4 .906 0 1.772-.313 2.504-.907l.295-.239.31.221c1.717 1.219 4.108 1.212 5.811-.021l.257-.186.277.153c1.377.76 2.963.59 4.145-.372l.277-.225.303.189c.403.253.86.387 1.321.387 1.378 0 2.5-1.121 2.5-2.5ZM17.639 8.202A6.018 6.018 0 0 0 13 6a5.96 5.96 0 0 0-4.52 2.061c-2.429-.393-4.585 1.058-5.271 3.293a4.778 4.778 0 0 0-.174.919 6.752 6.752 0 0 1 1.036-.213c.026-.139.052-.278.094-.413a3.73 3.73 0 0 1 4.401-2.55l.308.07.195-.249A4.974 4.974 0 0 1 13 7.001c1.598 0 3.113.777 4.053 2.081l.222.307.355-.13C20.436 8.23 23 10.347 23 13.001c0 .519-.107 1.012-.287 1.468.308.136.599.31.88.503a4.963 4.963 0 0 0 .408-1.97c0-3.202-3.062-5.757-6.361-4.798Z"/></svg>