<svg xmlns="http://www.w3.org/2000/svg" width="512" height="512" data-name="Layer 1" viewBox="0 0 24 24"><path d="M22 9h-9v6h9c1.1 0 2-.9 2-2v-2c0-1.1-.9-2-2-2Zm1 4c0 .55-.45 1-1 1h-8v-4h8c.55 0 1 .45 1 1v2ZM22 0h-9v6h9c1.1 0 2-.9 2-2V2c0-1.1-.9-2-2-2Zm1 4c0 .55-.45 1-1 1h-8V1h8c.55 0 1 .45 1 1v2Zm-1 14h-9v6h9c1.1 0 2-.9 2-2v-2c0-1.1-.9-2-2-2Zm1 4c0 .55-.45 1-1 1h-8v-4h8c.55 0 1 .45 1 1v2ZM8.5 13h-6A2.5 2.5 0 0 0 0 15.5V24h11v-8.5A2.5 2.5 0 0 0 8.5 13ZM10 23H1v-7.5c0-.83.67-1.5 1.5-1.5h6c.83 0 1.5.67 1.5 1.5V23ZM8.5 0h-6A2.5 2.5 0 0 0 0 2.5V11h11V2.5A2.5 2.5 0 0 0 8.5 0ZM10 10H1V2.5C1 1.67 1.67 1 2.5 1h6c.83 0 1.5.67 1.5 1.5V10Z"/></svg>