<svg xmlns="http://www.w3.org/2000/svg" width="512" height="512" data-name="Layer 1" viewBox="0 0 24 24"><path d="M22.86 10.71c-1.07-2.57-2.08-5-3.14-6.31C17.11.92 12.83-.66 8.53.26 4.14 1.21.84 4.71.14 9.18c-.51 3.27.33 6.52 2.3 8.9.36.43.56.99.56 1.56v4.35h9.54l-.28-1H4v-3.35c0-.81-.28-1.59-.79-2.2-1.79-2.16-2.55-5.11-2.08-8.1.15-.97.44-1.88.84-2.73l10.09 8.18L14.62 24h4.88c2.48 0 4.5-2.02 4.5-4.5v-6s-.77-1.91-1.14-2.79ZM8.74 1.24c3.91-.84 7.81.6 10.19 3.78.98 1.21 2.01 3.69 3.01 6.08l.06.15-.33.25c-2.15 1.61-4.81 2.5-7.5 2.5h-1.49L2.44 5.72a9.734 9.734 0 0 1 6.3-4.48ZM23 19.5c0 1.93-1.57 3.5-3.5 3.5h-4.12l-2.22-8h1.01c2.9 0 5.78-.96 8.1-2.7l.13-.1c.2.48.4.95.6 1.4v5.89Z"/></svg>