<svg xmlns="http://www.w3.org/2000/svg" width="512" height="512" data-name="Layer 1" viewBox="0 0 24 24"><path d="M3.682 7.697.439 10.939a1.501 1.501 0 0 0 0 2.121l3.243 3.243.707-.707-3.096-3.097H11.5v10.242l-3.096-3.096-.707.707 3.243 3.242c.292.292.676.438 1.061.438s.768-.146 1.061-.438l3.243-3.242-.707-.707-3.096 3.096V12.5h10.207l-3.096 3.097.707.707 3.243-3.243a1.501 1.501 0 0 0 0-2.121L20.32 7.697l-.707.707 3.096 3.096H12.5V1.293l3.096 3.096.707-.707L13.061.439a1.501 1.501 0 0 0-2.121 0L7.697 3.682l.707.707L11.5 1.293V11.5H1.293l3.096-3.096-.707-.707Z"/></svg>