<svg xmlns="http://www.w3.org/2000/svg" width="512" height="512" data-name="Layer 1" viewBox="0 0 24 24"><path d="M8.5 9c.935 0 1.814-.364 2.475-1.025C11.636 7.314 12 6.435 12 5.5s-.364-1.814-1.006-2.454L8.5.249 6.025 3.025C5.364 3.685 5 4.564 5 5.5s.364 1.814 1.025 2.475A3.477 3.477 0 0 0 8.5 9ZM6.751 3.712 8.5 1.751l1.768 1.981c.472.472.732 1.1.732 1.768s-.26 1.296-.732 1.768c-.944.945-2.591.945-3.536 0a2.504 2.504 0 0 1 .019-3.556ZM23.18 9.654a2.507 2.507 0 0 0-1.809-.651 2.49 2.49 0 0 0-1.739.817L15.9 13.923A2.647 2.647 0 0 0 13.358 12H2.5A2.503 2.503 0 0 0 0 14.5v7C0 22.879 1.122 24 2.5 24h11.224l9.639-10.817a2.521 2.521 0 0 0-.183-3.528Zm-.564 2.862-9.34 10.483H2.5c-.827 0-1.5-.673-1.5-1.5v-7c0-.827.673-1.5 1.5-1.5h10.858c.905 0 1.642.737 1.642 1.643 0 .812-.606 1.511-1.404 1.624l-5.661.737.129.992 5.667-.738a2.658 2.658 0 0 0 2.146-1.823l4.495-4.94a1.497 1.497 0 0 1 1.047-.492c.397-.017.79.12 1.088.392.609.556.658 1.508.109 2.123Z"/></svg>