<svg xmlns="http://www.w3.org/2000/svg" width="512" height="512" data-name="Layer 1" viewBox="0 0 24 24"><path d="M23.92 16.97 22.1 8.19a8.445 8.445 0 0 0-6.52-6.03C14.03.77 12.07 0 9.99 0c-3.96 0-7.34 2.72-8.2 6.63L.06 15.07A2.404 2.404 0 0 0 2.4 18h1.65c.07.4.22.77.48 1.1.46.57 1.14.9 1.87.9H10c0 2.21 1.79 4 4 4s4-1.79 4-4h3.6c.73 0 1.41-.32 1.87-.89l.05-.06c.46-.6.6-1.37.41-2.07ZM4.07 17H2.4c-.43 0-.82-.19-1.09-.53-.27-.34-.37-.77-.27-1.2l1.73-8.43C3.53 3.4 6.5 1 10 1c1.32 0 2.58.36 3.7 1.01-3.84.13-7.07 2.81-7.91 6.62L4.07 17ZM14 23c-1.65 0-3-1.35-3-3h6c0 1.65-1.35 3-3 3Zm8.74-4.59-.03.03c-.27.35-.67.56-1.11.56H6.4c-.43 0-.82-.19-1.09-.53-.27-.34-.37-.77-.27-1.2l1.73-8.44C7.53 5.39 10.5 2.99 14 2.99c.39 0 .76.04 1.14.1l.01.01h.01c2.82.44 5.19 2.52 5.97 5.32l1.82 8.78c.11.42.04.85-.21 1.2Z"/></svg>