<svg xmlns="http://www.w3.org/2000/svg" width="512" height="512" data-name="Layer 1" viewBox="0 0 24 24"><path d="M4.146 6.354A3.889 3.889 0 0 1 3 3.586V2h1v1.586c0 .779.303 1.51.854 2.061A3.889 3.889 0 0 1 6 8.415v1.586H5V8.415c0-.779-.303-1.51-.854-2.061ZM9 7.415v1.586h1V7.415a3.889 3.889 0 0 0-1.146-2.768A2.892 2.892 0 0 1 8 2.586V1H7v1.586c0 1.046.407 2.029 1.146 2.768.551.55.854 1.282.854 2.061Zm15 3.541v1.045c0 6.617-5.383 12-12 12S0 18.617 0 12c0-1.5.283-3 .283-3H1.29l.064.425C1.982 13.542 4.092 16 7 16c3.037 0 5-1.962 5-5 0-3.343 2.211-5.732 5.442-5.979C17.12 2.402 15.517 1 14 1V0c1.99 0 4.093 1.75 4.448 5.014C22.096 5.232 24 8.11 24 10.955Zm-6-4.955c-1.381 0-2.456.402-3.25 1.042l.022-.011c.642 1.215 1.879 1.969 3.229 1.969s2.58-.75 3.223-1.96c-.793-.636-1.861-1.04-3.223-1.04Zm5 4.955c0-1.111-.339-2.262-1.049-3.174-.851 1.377-2.337 2.219-3.951 2.219s-3.109-.848-3.959-2.233C13.335 8.68 13 9.843 13 11.001c0 3.589-2.411 6-6 6-2.753 0-4.89-1.773-5.999-4.858.076 6 4.981 10.858 10.999 10.858 6.065 0 11-4.935 11-11v-1.045Z"/></svg>