<svg xmlns="http://www.w3.org/2000/svg" width="512" height="512" data-name="Layer 1" viewBox="0 0 24 24"><path d="M16 5.742V0H8v5.742C6.673 6.712 0 11.938 0 19c0 2.206 1.794 4 4 4a4.002 4.002 0 0 0 3.437-1.956C8.22 22.785 9.971 24 12 24s3.78-1.215 4.563-2.956A4.001 4.001 0 0 0 20 23c2.206 0 4-1.794 4-4 0-7.062-6.673-12.288-8-13.258ZM15 1v4.829c-.197.268-.605.891-1.099 2.017-.798-1.334-1.455-2.096-1.525-2.175l-.375-.428-.375.428c-.07.08-.727.841-1.525 2.175-.494-1.126-.903-1.749-1.099-2.016V1h6ZM4 22c-1.654 0-3-1.346-3-3C1 12.802 6.8 7.924 8.387 6.706c.245.388.641 1.102 1.091 2.252C8.269 11.282 7 14.736 7 19c0 1.654-1.346 3-3 3Zm8 1c-2.206 0-4-1.794-4-4 0-6.245 2.94-10.766 4-12.192 1.062 1.425 4 5.935 4 12.192 0 2.206-1.794 4-4 4Zm8-1c-1.654 0-3-1.346-3-3 0-4.264-1.269-7.718-2.478-10.042.451-1.15.846-1.864 1.091-2.252C17.2 7.924 23 12.802 23 19c0 1.654-1.346 3-3 3Z"/></svg>