<svg xmlns="http://www.w3.org/2000/svg" width="512" height="512" data-name="Layer 1" viewBox="0 0 24 24"><path d="M20.237 15.081A5.966 5.966 0 0 0 15 12a5.97 5.97 0 0 0-3 .807A5.97 5.97 0 0 0 9 12a5.967 5.967 0 0 0-5.237 3.081A4.475 4.475 0 0 0 0 19.5C0 21.981 2.019 24 4.5 24h15c2.481 0 4.5-2.019 4.5-4.5 0-2.209-1.6-4.063-3.763-4.419ZM19.5 23h-15C2.57 23 1 21.43 1 19.5a3.482 3.482 0 0 1 3.137-3.461l.272-.028.123-.245A4.975 4.975 0 0 1 9 13c.969 0 1.912.281 2.727.812l.273.178.273-.178A4.977 4.977 0 0 1 15 13a4.975 4.975 0 0 1 4.468 2.766l.123.245.272.028A3.482 3.482 0 0 1 23 19.5c0 1.93-1.57 3.5-3.5 3.5ZM5.272 10.929A6.98 6.98 0 0 1 5 9c0-3.271 1.963-5.04 3.133-5.804l1.333-.87-.597 1.476c-.242.598-.37 1.099-.37 1.447 0 .807.461 1.75 1.759 1.75 1.285 0 1.741-.943 1.741-1.75 0-.45-.197-.78-.425-1.162-.27-.453-.575-.966-.575-1.792 0-.628.386-1.363.71-1.869l.274-.425 2.341 1.541c.779.513 4.666 3.283 4.675 7.457a7.02 7.02 0 0 1-.273 1.93 7.94 7.94 0 0 0-.925-.42c.126-.487.197-.992.197-1.508-.009-3.662-3.521-6.16-4.225-6.624l-1.477-.972c-.188.362-.298.684-.298.891 0 .55.192.873.435 1.28.252.422.565.949.565 1.674 0 1.325-.857 2.75-2.741 2.75-1.896 0-2.759-1.425-2.759-2.75 0-.077.004-.158.011-.241C6.684 5.892 5.998 7.175 5.998 9c0 .517.071 1.021.197 1.509a8.017 8.017 0 0 0-.925.42Z"/></svg>