<svg xmlns="http://www.w3.org/2000/svg" width="512" height="512" data-name="Layer 1" viewBox="0 0 24 24"><path d="M24 4.5C24 2.57 22.43 1 20.5 1h-17C1.57 1 0 2.57 0 4.5v11.207l3 3V20c0 1.654 1.346 3 3 3s3-1.346 3-3v-1h7v1c0 1.654 1.346 3 3 3s3-1.346 3-3v-1h2v-4.892c0-.815-.222-1.616-.641-2.315l-3.476-5.792H24v-1.5ZM1 6h7v3H1V6Zm7 14c0 1.103-.897 2-2 2s-2-.897-2-2v-1h4v1Zm13 0c0 1.103-.897 2-2 2s-2-.897-2-2v-1h4v1Zm2-2h-8v-5h7.82c.119.356.18.73.18 1.108V18Zm-.683-6H15V7.5c0-.827.673-1.5 1.5-1.5h2.217l3.601 6ZM23 5h-6.5A2.503 2.503 0 0 0 14 7.5V18H3.707L1 15.293V10h8V5H1v-.5C1 3.122 2.122 2 3.5 2h17C21.878 2 23 3.122 23 4.5V5Z"/></svg>