<svg xmlns="http://www.w3.org/2000/svg" width="512" height="512" data-name="Layer 1" viewBox="0 0 24 24"><path d="M24 19V3.5C24 2.121 22.878 1 21.5 1h-19A2.503 2.503 0 0 0 0 3.5V19h11.5v3H6v1h12v-1h-5.5v-3H24ZM1 3.5C1 2.673 1.673 2 2.5 2h19c.827 0 1.5.673 1.5 1.5V18H1V3.5Zm5.146 6.146a.5.5 0 0 0 0 .707l3.75 3.75-.707.707-3.75-3.75a1.501 1.501 0 0 1 0-2.121l3.75-3.75.707.707-3.75 3.75Zm12.414-.707a1.501 1.501 0 0 1 0 2.121l-3.75 3.75-.707-.707 3.75-3.75a.5.5 0 0 0 0-.707l-3.75-3.75.707-.707 3.75 3.75Z"/></svg>