<svg xmlns="http://www.w3.org/2000/svg" width="512" height="512" data-name="Layer 1" viewBox="0 0 24 24"><path d="M21.5 2h-19A2.503 2.503 0 0 0 0 4.5V22h24V4.5C24 3.122 22.878 2 21.5 2ZM23 21H1V4.5C1 3.673 1.673 3 2.5 3h19c.827 0 1.5.673 1.5 1.5V21Zm-4-8.947A3.488 3.488 0 0 0 16.5 11c-1.93 0-3.5 1.57-3.5 3.5s1.57 3.5 3.5 3.5c.978 0 1.864-.404 2.5-1.053V18h1V6h-1v6.053ZM16.5 17c-1.378 0-2.5-1.122-2.5-2.5s1.122-2.5 2.5-2.5 2.5 1.122 2.5 2.5-1.122 2.5-2.5 2.5Zm-13 1h1.062l1.083-3h4.753l1.102 3h1.062L8 5.5 3.5 18Zm2.505-4L8 8.474 10.03 14H6.005Z"/></svg>