<svg xmlns="http://www.w3.org/2000/svg" width="512" height="512" data-name="Layer 1" viewBox="0 0 24 24"><path d="M17.25 16.54c.26-.34.55-.66.87-.96C19.95 13.89 21 11.49 21 9s-1.1-5.01-3.01-6.72A9.028 9.028 0 0 0 10.94.06C8.42.35 6.08 1.77 4.6 3.88L.75.04l-.7.71 23.2 23.2.71-.71-6.7-6.7Zm-6.2-15.49c2.32-.27 4.55.43 6.27 1.97C19.02 4.54 20 6.71 20 8.99s-.91 4.31-2.56 5.84c-.33.3-.63.63-.9.98L5.32 4.6c1.3-1.96 3.43-3.29 5.73-3.55ZM8.6 18a7.846 7.846 0 0 0-2.06-3.17c-1.93-1.8-2.82-4.35-2.46-6.98 0-.07.02-.14.03-.21l-.84-.84c-.07.3-.13.6-.18.91-.41 2.96.59 5.83 2.76 7.85C7.21 16.83 8 18.59 8 20.38V24h8v-3.85c0-.2.01-.39.03-.59L14.47 18H8.6Zm6.4 2.15V23H9v-2.62c0-.46-.05-.92-.13-1.38h6.23c-.07.38-.1.76-.1 1.15Z"/></svg>