<svg xmlns="http://www.w3.org/2000/svg" width="512" height="512" data-name="Layer 1" viewBox="0 0 24 24"><path d="M15.286 9.038 10.207 1H12.5V0H7v9H4.769L3.523 7.12A2.493 2.493 0 0 0 1.439 6H0v12h1.452c.84 0 1.62-.418 2.085-1.121L4.77 15H7v9h5.5v-1h-2.292l5.077-8.011c2.354-.156 8.714-.782 8.714-2.989s-6.359-2.814-8.714-2.962Zm-.315 4.97-.255.015-5.691 8.978H8.001V14h-3.77l-1.528 2.328a1.496 1.496 0 0 1-1.25.672h-.452V7h.438c.505 0 .972.251 1.25.671L4.231 10H8V1h1.024l5.691 9.006.257.014c4.277.242 8.028 1.167 8.028 1.979s-3.752 1.752-8.03 2.007Z"/></svg>