<svg xmlns="http://www.w3.org/2000/svg" data-name="Layer 1" viewBox="0 0 24 24"><path d="M22 4a1 1 0 1 1 2 0 1 1 0 0 1-2 0ZM3.762 11.41A2.996 2.996 0 0 0 4.977 9c0-1.654-1.346-3-3-3H0v1h1.977c1.103 0 2 .897 2 2s-.897 2-2 2H0v1h2c1.654 0 3 1.346 3 3s-1.346 3-3 3H0v1h2c2.206 0 4-1.794 4-4a4.004 4.004 0 0 0-2.238-3.59ZM15 15c0 2.206-1.794 4-4 4s-4-1.794-4-4v-4.417A4.588 4.588 0 0 1 11.583 6H14v1h-2.417A3.587 3.587 0 0 0 8 10.583v1.774A3.99 3.99 0 0 1 11 11c2.206 0 4 1.794 4 4Zm-1 0c0-1.654-1.346-3-3-3s-3 1.346-3 3 1.346 3 3 3 3-1.346 3-3Zm10-5v5c0 2.206-1.794 4-4 4s-4-1.794-4-4v-5c0-2.206 1.794-4 4-4s4 1.794 4 4Zm-1 0c0-1.654-1.346-3-3-3s-3 1.346-3 3v5c0 1.654 1.346 3 3 3s3-1.346 3-3v-5Z"/></svg>