<svg xmlns="http://www.w3.org/2000/svg" width="512" height="512" data-name="Layer 1" viewBox="0 0 24 24"><path d="M23.045 8.035 21 6.428V2h-1v3.641L13.545.567a2.494 2.494 0 0 0-3.09 0l-9.5 7.468A2.484 2.484 0 0 0 0 10v14h9.447l2.528-6H8.316a.306.306 0 0 1-.277-.166.31.31 0 0 1 .017-.325L12.991 10h.138l-1.8 6h4.339c.105 0 .202.049.266.134a.328.328 0 0 1 .059.27l-2.699 7.597h10.708V10c0-.772-.348-1.489-.955-1.965ZM23 23h-8.292l2.232-6.285a1.32 1.32 0 0 0-.205-1.178 1.32 1.32 0 0 0-1.068-.538h-2.995l1.8-6h-2.021l-5.23 7.958a1.313 1.313 0 0 0-.062 1.349c.229.427.673.693 1.158.693h2.153l-1.687 4H1V10c0-.463.209-.893.572-1.179l9.5-7.468a1.498 1.498 0 0 1 1.855 0l9.5 7.468c.363.286.572.716.572 1.179v13Z"/></svg>