<svg xmlns="http://www.w3.org/2000/svg" width="512" height="512" data-name="Layer 1" viewBox="0 0 24 24"><path d="M3.539.26 3.501.24A2.489 2.489 0 0 0 .738.671c-.697.652-.92 1.602-.551 2.546l4.933 8.785-4.873 8.851c-.337.879-.111 1.829.587 2.479a2.449 2.449 0 0 0 1.68.661c.374 0 .755-.083 1.121-.254l20.368-11.74L3.539.26ZM1.09 2.792c-.192-.498-.068-1.018.331-1.391.229-.214.594-.4 1.018-.4.197 0 .407.041.622.138L21.124 11.5H5.985L1.09 2.792Zm2.084 20.061a1.494 1.494 0 0 1-1.658-.252c-.4-.373-.525-.893-.364-1.328l4.837-8.772h15.144L3.174 22.853Z"/></svg>