<svg xmlns="http://www.w3.org/2000/svg" width="512" height="512" data-name="Layer 1" viewBox="0 0 24 24"><path d="M19.938 9.191 18.89 5H6.013l.628-2.826A1.49 1.49 0 0 1 8.105 1h8.896V0H8.104a2.483 2.483 0 0 0-2.44 1.958L4.056 9.193A5.51 5.51 0 0 0 0 14.5v4C0 21.533 2.468 24 5.5 24h13c3.032 0 5.5-2.467 5.5-5.5v-4a5.51 5.51 0 0 0-4.062-5.309ZM5.79 6h12.319l.753 3.012A5.448 5.448 0 0 0 18.5 9h-13a5.92 5.92 0 0 0-.379.013L5.791 6Zm-.29 4h13c2.481 0 4.5 2.019 4.5 4.5V16H1v-1.5C1 12.019 3.019 10 5.5 10Zm13 13h-13A4.505 4.505 0 0 1 1 18.5V17h22v1.5c0 2.481-2.019 4.5-4.5 4.5Z"/></svg>