<svg xmlns="http://www.w3.org/2000/svg" width="512" height="512" data-name="Layer 1" viewBox="0 0 24 24"><path d="M14.85 7.85c.2.09.42.15.65.15.83 0 1.5-.67 1.5-1.5S16.33 5 15.5 5a1.498 1.498 0 0 0-1.35 2.15l-.7.7c-.55-.43-1.22-.72-1.95-.81V5.01h-1v2.03c-.73.09-1.4.38-1.95.81l-.7-.7c.09-.2.15-.42.15-.65C8 5.67 7.33 5 6.5 5S5 5.67 5 6.5a1.498 1.498 0 0 0 2.15 1.35l.7.7c-.43.55-.72 1.22-.81 1.95H5.01v1h2.03c.09.73.38 1.4.81 1.95l-.7.7c-.2-.09-.42-.15-.65-.15-.83 0-1.5.67-1.5 1.5S5.67 17 6.5 17a1.498 1.498 0 0 0 1.35-2.15l.7-.7c.55.43 1.22.72 1.95.81v2.03h1v-2.03c.73-.09 1.4-.38 1.95-.81l.7.7c-.09.2-.15.42-.15.65 0 .83.67 1.5 1.5 1.5s1.5-.67 1.5-1.5a1.498 1.498 0 0 0-2.15-1.35l-.7-.7c.43-.55.72-1.22.81-1.95h2.03v-1h-2.03c-.09-.73-.38-1.4-.81-1.95l.7-.7ZM15.5 6c.28 0 .5.22.5.5s-.22.5-.5.5-.5-.22-.5-.5.22-.5.5-.5ZM14 11c0 1.65-1.35 3-3 3s-3-1.35-3-3 1.35-3 3-3 3 1.35 3 3ZM6.5 7c-.28 0-.5-.22-.5-.5s.22-.5.5-.5.5.22.5.5-.22.5-.5.5Zm0 9c-.28 0-.5-.22-.5-.5s.22-.5.5-.5.5.22.5.5-.22.5-.5.5Zm9-1c.28 0 .5.22.5.5s-.22.5-.5.5-.5-.22-.5-.5.22-.5.5-.5Zm7.36-4.28c-1.07-2.57-2.08-5.01-3.14-6.32C17.11.92 12.83-.66 8.53.26 4.14 1.21.84 4.71.14 9.19c-.51 3.27.33 6.51 2.31 8.9.36.43.56.99.56 1.56V24h13v-3h2.36c1.19 0 2.22-.85 2.45-2.01l.79-3.99h2.4v-1.5s-.77-1.9-1.14-2.78ZM23 14h-2.22l-.95 4.79c-.14.7-.76 1.21-1.47 1.21H15v3H4v-3.35c0-.81-.28-1.59-.79-2.2-1.79-2.17-2.55-5.12-2.08-8.11.64-4.06 3.63-7.24 7.61-8.1 3.91-.84 7.81.6 10.19 3.78.98 1.21 2.01 3.69 3.01 6.09.35.85.71 1.7 1.06 2.5V14Z"/></svg>