<svg xmlns="http://www.w3.org/2000/svg" data-name="Layer 1" viewBox="0 0 24 24"><path d="M24 0v1h-9V0h9Zm-9 5h9V4h-9v1Zm0 4h9V8h-9v1Zm2 4h7v-1h-7v1Zm-7 4.5c0 1.379-1.121 2.5-2.5 2.5S5 18.879 5 17.5c0-1.208.86-2.217 2-2.449V7h1v8.051c1.14.232 2 1.242 2 2.449Zm-1 0c0-.827-.673-1.5-1.5-1.5S6 16.673 6 17.5 6.673 19 7.5 19 9 18.327 9 17.5Zm3-4.681a6.509 6.509 0 0 1 2 4.681 6.493 6.493 0 0 1-6.511 6.498 6.72 6.72 0 0 1-1.376-.143c-2.466-.512-4.464-2.516-4.972-4.987C.68 16.624 1.373 14.38 3 12.819V4.5C3 2.019 5.019 0 7.5 0S12 2.019 12 4.5v8.319Zm-.834.59L11 13.261V4.5C11 2.57 9.43 1 7.5 1S4 2.57 4 4.5v8.761l-.166.148c-1.478 1.325-2.118 3.29-1.713 5.258.428 2.086 2.113 3.778 4.194 4.21 1.664.346 3.362-.058 4.653-1.108s2.031-2.606 2.031-4.269a5.507 5.507 0 0 0-1.834-4.091Z"/></svg>