<svg xmlns="http://www.w3.org/2000/svg" width="512" height="512" data-name="Layer 1" viewBox="0 0 24 24"><path d="m23.23 14.731-5.578-10.48A6.267 6.267 0 0 0 9.883 1.43 5.976 5.976 0 0 0 5.999 0 6.006 6.006 0 0 0 0 6v12c0 3.309 2.691 6 6 6a6.01 6.01 0 0 0 5.719-4.184l.528.932a6.267 6.267 0 0 0 8.501 2.479 6.218 6.218 0 0 0 3-3.737 6.22 6.22 0 0 0-.518-4.759ZM16.772 4.727l2.636 4.952-7.409 4.063V6a5.969 5.969 0 0 0-1.344-3.78 5.266 5.266 0 0 1 6.117 2.507ZM6 1c2.757 0 5 2.243 5 5v5.5H1V6c0-2.757 2.243-5 5-5Zm0 22c-2.757 0-5-2.243-5-5v-5.5h10V18c0 2.757-2.243 5-5 5Zm16.789-3.79a5.23 5.23 0 0 1-2.521 3.141 5.229 5.229 0 0 1-4.003.438 5.232 5.232 0 0 1-3.144-2.527l-1.127-1.991c.004-.09.006-.18.006-.271v-3.118l7.878-4.32 2.472 4.645a5.224 5.224 0 0 1 .438 4.003Z"/></svg>