<svg xmlns="http://www.w3.org/2000/svg" width="512" height="512" data-name="Layer 1" viewBox="0 0 24 24"><path d="M12 0C5.38 0 0 5.38 0 12s5.38 12 12 12 12-5.38 12-12S18.62 0 12 0Zm0 23C5.93 23 1 18.07 1 12S5.93 1 12 1s11 4.93 11 11-4.93 11-11 11ZM3.97 13l.03.53C4.22 17.12 7.35 21 12 21s7.78-3.86 8.09-7.44l.05-.54H3.97Zm8.17 6.98A3.977 3.977 0 0 1 16 16.99c.52 0 1.03.1 1.5.29-1.23 1.53-3.09 2.65-5.36 2.7Zm5.94-3.53c-.65-.3-1.36-.46-2.08-.46-2.38 0-4.37 1.66-4.87 3.94-3.28-.42-5.65-3.19-6.08-5.94h13.96a7.12 7.12 0 0 1-.94 2.46ZM7.5 6C5.57 6 4 7.57 4 9.5V11h1V9.5c0-1.3 1-2.35 2.26-2.48C7.1 7.31 7 7.65 7 8c0 1.1.9 2 2 2 .36 0 .7-.1 1-.27V11h1V9.5C11 7.57 9.43 6 7.5 6ZM9 9c-.55 0-1-.45-1-1 0-.33.17-.63.43-.82.63.25 1.13.75 1.38 1.38-.19.27-.48.44-.81.44Zm7.5-3C14.57 6 13 7.57 13 9.5V11h1V9.5c0-1.3 1-2.35 2.26-2.48-.16.29-.26.63-.26.98 0 1.1.9 2 2 2 .36 0 .7-.1 1-.27V11h1V9.5C20 7.57 18.43 6 16.5 6ZM18 9c-.55 0-1-.45-1-1 0-.33.17-.63.43-.82.63.25 1.13.75 1.38 1.38-.19.27-.48.44-.81.44Z"/></svg>