<svg xmlns="http://www.w3.org/2000/svg" data-name="Layer 1" viewBox="0 0 24 24"><path d="M23 4h-6V2.5C17 1.121 15.879 0 14.5 0h-5A2.503 2.503 0 0 0 7 2.5V4H1v1h1.551L4.35 21.767A2.495 2.495 0 0 0 6.836 24H17.13a2.497 2.497 0 0 0 2.485-2.228L21.448 5H23V4ZM8 2.5C8 1.673 8.673 1 9.5 1h5c.827 0 1.5.673 1.5 1.5V4H8V2.5Zm10.621 19.163A1.498 1.498 0 0 1 17.13 23H6.835c-.769 0-1.41-.576-1.492-1.341L3.556 5h16.886l-1.821 16.663ZM9.286 16.56l-2.42-2.334.694-.721 2.427 2.341a.501.501 0 0 0 .713.007l5.488-5.402.701.713-5.485 5.399a1.498 1.498 0 0 1-2.119-.002Z"/></svg>