<svg xmlns="http://www.w3.org/2000/svg" width="512" height="512" data-name="Layer 1" viewBox="0 0 24 24"><path d="M22.494 16.46c-2.187-2.187-6.115-3.486-10.496-3.46-4.424.021-8.347 1.313-10.492 3.46-.972.972-1.507 2.241-1.506 3.574V24h7v-4.045c1.483-.61 3.261-.955 4.937-.955h.06c1.665.009 3.469.357 5.003.962V24h7v-3.966c0-1.333-.534-2.603-1.506-3.574ZM23 23h-5v-3.703l-.304-.13c-1.714-.731-3.789-1.157-5.693-1.167-1.931.017-4.025.417-5.707 1.17L6 19.302V23H1v-2.966c0-1.066.43-2.084 1.213-2.867 1.935-1.935 5.686-3.148 9.789-3.167h.096c4.086 0 7.703 1.181 9.689 3.167.783.783 1.214 1.801 1.213 2.867V23ZM4 6.5H3V1.971C3 .885 3.897 0 5 0h4.5v1H5c-.081 0-.16.01-.235.029l7.227 7.25a.72.72 0 0 0 1.021.001l7.134-7.133.707.707-7.134 7.133a1.713 1.713 0 0 1-1.218.505H12.5c-.46 0-.893-.18-1.218-.507L4.037 1.716A.904.904 0 0 0 4 1.971V6.5Z"/></svg>