<svg xmlns="http://www.w3.org/2000/svg" width="512" height="512" data-name="Layer 1" viewBox="0 0 24 24"><path d="M2.41 21.601c0 .017 0 .009 0 0ZM23.949 8.932l-.072.617-.588-.202a6.22 6.22 0 0 0-2.031-.344 6.257 6.257 0 0 0-6.25 6.25c0 .218.083 1.114.083 1.114l-.465.078c-3.223.54-6.91.558-6.91.558L5.25 19.469a2.302 2.302 0 0 1 1.758 2.235c0 1.268-1.031 2.3-2.3 2.3s-2.298-.953-2.298-2.402c0-.017 0-.009 0 0a2.308 2.308 0 0 1-2.402-2.297 2.302 2.302 0 0 1 4.536-.542l2.466-2.466s-.017-10.59 3.343-13.949c3.119-3.119 8.194-3.12 11.313 0a7.965 7.965 0 0 1 2.284 6.585ZM3.502 19.802c.071-.164.107-.332.107-.499a1.301 1.301 0 0 0-2.601 0c0 .884.931 1.563 1.801 1.192l.693-.693Zm.705.709-.692.692a1.26 1.26 0 0 0-.107.5 1.301 1.301 0 0 0 2.6 0c0-.884-.93-1.563-1.801-1.193ZM20.958 3.054c-2.729-2.73-7.172-2.729-9.899 0-2.82 2.82-3.034 11.404-3.05 12.835l.113.114a44.867 44.867 0 0 0 5.891-.473 8.48 8.48 0 0 1-.005-.277c0-3.998 3.252-7.25 7.25-7.25.585 0 1.168.073 1.742.216a6.953 6.953 0 0 0-2.042-5.165Z"/></svg>