<svg xmlns="http://www.w3.org/2000/svg" width="512" height="512" data-name="Layer 1" viewBox="0 0 24 24"><path d="M16 13a1 1 0 1 1-2 0 1 1 0 0 1 2 0Zm-5-1a1 1 0 1 0 0 2 1 1 0 0 0 0-2Zm2-3a1 1 0 1 0 0 2 1 1 0 0 0 0-2Zm2-1a1 1 0 1 0 0-2 1 1 0 0 0 0 2Zm2 1a1 1 0 1 0 0 2 1 1 0 0 0 0-2Zm-1 8.059v.569c0 .692-.291 1.36-.798 1.832L12.5 21.969v2.032h-1v-2.032L8.799 19.46A2.506 2.506 0 0 1 8 17.628v-.569A8.959 8.959 0 0 1 3 9c0-4.962 4.038-9 9-9s9 4.038 9 9a8.959 8.959 0 0 1-5 8.059ZM15 17H9v.628c0 .416.175.816.479 1.099L12 21.068l2.521-2.341c.304-.283.479-.684.479-1.099V17Zm5-8c0-4.411-3.589-8-8-8S4 4.589 4 9a7.96 7.96 0 0 0 4.133 7h7.735A7.962 7.962 0 0 0 20 9Z"/></svg>