<svg xmlns="http://www.w3.org/2000/svg" width="512" height="512" data-name="Layer 1" viewBox="0 0 24 24"><path d="M7 10a1 1 0 1 1 2 0 1 1 0 0 1-2 0Zm8 0a1 1 0 1 0 2 0 1 1 0 0 0-2 0ZM4.644 8.282l.393.92c1.752-.747 3.181-1.935 4.132-3.434l-.845-.535C7.482 6.56 6.21 7.615 4.644 8.282Zm14.779 0c-1.58-.674-2.879-1.731-3.756-3.058l-.834.552c.985 1.49 2.437 2.675 4.197 3.426l.393-.92ZM24 12c0-6.617-5.383-12-12-12C6.172 0 1.305 4.179.227 9.696c.214-.243.408-.448.535-.574l.924-.91C3.235 4.01 7.267 1 12 1c6.065 0 11 4.935 11 11s-4.935 11-11 11c-3.453 0-6.535-1.602-8.553-4.098-.3.063-.609.098-.928.098-.091 0-.176-.022-.266-.027C4.432 22.01 7.985 24 12 24c6.617 0 12-5.383 12-12ZM2.519 17a2.503 2.503 0 0 1-2.5-2.5c0-1.819 2.062-3.87 2.149-3.957l.354-.349.351.353c.22.221 2.146 2.207 2.146 3.953 0 1.378-1.122 2.5-2.5 2.5Zm0-1c.827 0 1.5-.673 1.5-1.5 0-.925-.895-2.161-1.503-2.865-.607.694-1.497 1.916-1.497 2.865 0 .827.673 1.5 1.5 1.5ZM12 13a4.985 4.985 0 0 1 4.947 4.444l.062.556h-2.042c-.2 1.524-1.296 3-2.967 3s-2.767-1.476-2.967-3H6.991l.062-.556A4.984 4.984 0 0 1 12 13Zm2 4.5v-2.957a3.952 3.952 0 0 0-4 0V17.5c0 1.202.765 2.5 2 2.5s2-1.298 2-2.5Z"/></svg>