<svg xmlns="http://www.w3.org/2000/svg" width="512" height="512" data-name="Layer 1" viewBox="0 0 24 24"><path d="M21.799 9.145C20.468 8.396 18.881 8 17.209 8h-4.434L9.046 1.303A2.497 2.497 0 0 0 6.851 0H2v6h1V1h3.851c.549 0 1.054.3 1.319.786L11.631 8H0v8h11.631l-3.463 6.218A1.5 1.5 0 0 1 6.851 23H3v-5H2v6h4.851a2.5 2.5 0 0 0 2.193-1.299L12.776 16h4.434c1.672 0 3.259-.396 4.59-1.144 1.461-.822 2.201-1.783 2.201-2.856s-.74-2.034-2.201-2.855ZM16.038 15H5V9h11.038c.405.237 1.962 1.262 1.962 3s-1.557 2.763-1.962 3ZM1 9h3v6H1V9Zm20.309 4.984c-1.057.595-2.302.938-3.627 1.004.657-.654 1.319-1.645 1.319-2.987s-.661-2.334-1.319-2.987c1.325.066 2.57.409 3.627 1.004.771.434 1.691 1.13 1.691 1.984s-.92 1.55-1.691 1.984Z"/></svg>