<svg xmlns="http://www.w3.org/2000/svg" width="512" height="512" data-name="Layer 1" viewBox="0 0 24 24"><path d="M19.5 17c2.481 0 4.5-2.019 4.5-4.5V6h-5v1.5c0 .827-.673 1.5-1.5 1.5h-5.815a1.498 1.498 0 0 1-1.455-1.136l-.863-3.455A4.495 4.495 0 0 0 5.001 1H0v11.5C0 14.981 2.019 17 4.5 17H6v5H0v1h20.5c1.93 0 3.5-1.57 3.5-3.5V19h-1v.5c0 1.378-1.121 2.5-2.5 2.5H17v-5h2.5ZM1 12.5V2h4a3.495 3.495 0 0 1 3.396 2.651l.863 3.455A2.497 2.497 0 0 0 11.685 10H17.5c1.379 0 2.5-1.122 2.5-2.5V7h3v5.5c0 1.93-1.57 3.5-3.5 3.5h-15C2.57 16 1 14.43 1 12.5ZM16 22H7v-5h9v5Z"/></svg>