<svg xmlns="http://www.w3.org/2000/svg" width="512" height="512" data-name="Layer 1" viewBox="0 0 24 24"><path d="M12.5 12.5H16v1h-3.5V17h-1v-3.5H8v-1h3.5V9h1v3.5Zm7.231 8.314 2.138 2.35-.739.673-2.139-2.35c-1.902 1.57-4.338 2.514-6.991 2.514s-5.089-.944-6.991-2.514l-2.139 2.35-.739-.673 2.138-2.35A10.964 10.964 0 0 1 1 13C1 7.103 5.667 2.289 11.5 2.025V0h1v2.025C18.333 2.289 23 7.103 23 13c0 3.054-1.253 5.819-3.269 7.814ZM12 23c5.514 0 10-4.486 10-10S17.514 3 12 3 2 7.486 2 13s4.486 10 10 10ZM22.733 4.812l.795-.607A14.476 14.476 0 0 0 19.3.471l-.504.863a13.486 13.486 0 0 1 3.937 3.479ZM5.196 1.337 4.691.474A14.487 14.487 0 0 0 .453 4.229l.796.605a13.507 13.507 0 0 1 3.948-3.497Z"/></svg>