<svg xmlns="http://www.w3.org/2000/svg" width="512" height="512" data-name="Layer 1" viewBox="0 0 24 24"><path d="M9 5a1 1 0 1 1 2 0 1 1 0 0 1-2 0ZM7 5a1 1 0 1 0-2 0 1 1 0 0 0 2 0Zm16.362 8.182L13.724 24H2.5A2.503 2.503 0 0 1 0 21.5v-7C0 13.122 1.121 12 2.5 12h10.857c1.208 0 2.229.814 2.543 1.922l3.732-4.102a2.492 2.492 0 0 1 1.739-.818 2.55 2.55 0 0 1 1.809.652 2.518 2.518 0 0 1 .182 3.527Zm-.855-2.788a1.507 1.507 0 0 0-2.134.099l-4.496 4.94a2.661 2.661 0 0 1-2.145 1.824l-5.668.738-.129-.991 5.661-.737a1.649 1.649 0 0 0 1.403-1.625c0-.905-.737-1.642-1.643-1.642H2.5c-.827 0-1.5.673-1.5 1.5v7c0 .827.673 1.5 1.5 1.5h10.775l9.341-10.483c.549-.615.5-1.567-.109-2.123ZM5 8H3V5c0-2.757 2.243-5 5-5s5 2.243 5 5v3h-2v2H5V8Zm1-1v2h4V7h2V5c0-2.206-1.794-4-4-4S4 2.794 4 5v2h2Z"/></svg>