<svg xmlns="http://www.w3.org/2000/svg" width="512" height="512" data-name="Layer 1" viewBox="0 0 24 24"><path d="M24.01 22.882 19.858 2.014A2.504 2.504 0 0 0 16.921.046L15.94.24c-1.012.2-1.76.988-1.962 1.937A2.503 2.503 0 0 0 11.5 0h-6A2.503 2.503 0 0 0 3 2.5V6h5v4h1V6h4v12H9v-4H8v4H3v6h11V3.323l3.935 20.682 6.075-1.123ZM4 19h4v4H4v-4Zm9 4H9v-4h4v4ZM4 5V2.5C4 1.673 4.673 1 5.5 1H8v4H4Zm9 0H9V1h2.5c.827 0 1.5.673 1.5 1.5V5Zm5.731 17.841-.698-3.667 4.06-.802.738 3.711-4.101.758Zm-.885-4.65L15.64 6.599l3.955-.782 2.303 11.574-4.052.801Zm-1.713-16.97.981-.194a1.505 1.505 0 0 1 1.763 1.181l.523 2.628-3.947.78-.501-2.632a1.503 1.503 0 0 1 1.181-1.763ZM3 12.5H0v-1h3v-3h1v3h3v1H4v3H3v-3Z"/></svg>