<svg xmlns="http://www.w3.org/2000/svg" width="512" height="512" data-name="Layer 1" viewBox="0 0 24 24"><path d="m1.753 13.765 6.028-6.011a5.996 5.996 0 0 1 8.47 0c.769.769 1.259 1.702 1.522 2.684l-.838.838a4.948 4.948 0 0 0-1.39-2.815 4.996 4.996 0 0 0-7.056 0L2.46 14.473c-.942.942-1.461 2.198-1.461 3.536s.519 2.594 1.461 3.536a4.994 4.994 0 0 0 7.056 0l.003.003 1.595-1.595c.288.031.579.05.873.05.173 0 .344-.014.515-.025l-2.278 2.278c-.012.012-.028.017-.041.027a5.968 5.968 0 0 1-4.197 1.72 5.97 5.97 0 0 1-4.234-1.751A5.962 5.962 0 0 1 0 18.009c0-1.605.623-3.112 1.754-4.244Zm10.235 4.232a5.965 5.965 0 0 0 4.234-1.751l6.028-6.011a6.007 6.007 0 0 0 0-8.486c-2.322-2.322-6.09-2.331-8.429-.033-.014.011-.031.016-.044.029L11.5 4.023c.171-.011.342-.025.515-.025.294 0 .585.019.873.05l1.595-1.595.004.004a4.995 4.995 0 0 1 7.055 0 5.006 5.006 0 0 1 0 7.072l-6.028 6.011a4.994 4.994 0 0 1-7.055 0 4.935 4.935 0 0 1-1.39-2.815l-.838.838c.263.982.753 1.915 1.522 2.684a5.967 5.967 0 0 0 4.235 1.751Z"/></svg>