<svg xmlns="http://www.w3.org/2000/svg" width="512" height="512" data-name="Layer 1" viewBox="0 0 24 24"><path d="M12 0C5.383 0 0 5.383 0 12s5.383 12 12 12 12-5.383 12-12S18.617 0 12 0Zm0 23C5.935 23 1 18.065 1 12S5.935 1 12 1s11 4.935 11 11-4.935 11-11 11ZM7.175 10a4.31 4.31 0 0 1-2.226-.62l.521-.854c.657.4 1.467.558 2.22.431.606-.102 1.461-.44 2.093-1.477l.854.521c-.828 1.359-1.97 1.807-2.781 1.943a4.07 4.07 0 0 1-.68.056Zm11.374-1.473.521.854a4.31 4.31 0 0 1-2.906.564c-.812-.136-1.953-.584-2.781-1.943l.854-.521c.632 1.037 1.487 1.375 2.093 1.477a3.27 3.27 0 0 0 2.22-.431ZM12 13h-.012c-4.3 0-5.9 4.92-5.966 5.129l-.275.875.885-.243c.028-.007 2.805-.762 5.363-.762s5.345.754 5.373.762l.886.242-.278-.876c-.066-.209-1.676-5.128-5.975-5.128Zm-.006 4c-1.765 0-3.581.328-4.657.563C7.96 16.273 9.422 14 11.988 14H12c2.565 0 4.033 2.273 4.658 3.564-1.079-.236-2.898-.564-4.664-.564Z"/></svg>