<svg xmlns="http://www.w3.org/2000/svg" width="512" height="512" data-name="Layer 1" viewBox="0 0 24 24"><path d="M12.514 24h-7.9a4.624 4.624 0 0 1-4.619-4.619v-4.804a4.6 4.6 0 0 1 1.709-3.587 4.593 4.593 0 0 1 3.861-.933l15.331 3.029L23.011.011l.986.159-2.595 16.046c-.135.96-.335 1.725-.63 2.395A9.022 9.022 0 0 1 12.513 24ZM4.609 10.957a3.6 3.6 0 0 0-2.275.809 3.604 3.604 0 0 0-1.339 2.811v4.804A3.623 3.623 0 0 0 4.614 23h7.899a8.02 8.02 0 0 0 7.343-4.791c.257-.584.435-1.265.558-2.142l.322-1.994-15.37-3.037a3.682 3.682 0 0 0-.757-.08Z"/><path d="m4.865 14.536.206-.979 10.527 2.217-.206.979zM3.896 18.49l.208-.98 6.98 1.484-.21.98z"/></svg>