<svg xmlns="http://www.w3.org/2000/svg" width="512" height="512" data-name="Layer 1" viewBox="0 0 24 24"><path d="M21.5 0h-19A2.5 2.5 0 0 0 0 2.5V9h5.35l.87-1h-1.4l7-7h3.59l-2.23 2.23c.33.12.63.29.9.51L16.82 1h3.59L15.8 5.61l.66.76 5.33-5.34c.69.14 1.21.74 1.21 1.47v.91L18.41 8h-.63l.86 1H24V2.5A2.5 2.5 0 0 0 21.5 0Zm-19 1h2.91L1 5.41V2.5C1 1.67 1.67 1 2.5 1Zm.91 7H1V6.82L6.82 1h3.59l-7 7Zm16.41 0L23 4.82V8h-3.18ZM12.5 9h3.58L13 5.44a1.337 1.337 0 0 0-1.99.01L7.91 9h3.58v6H0v6.5A2.5 2.5 0 0 0 2.5 24h19a2.5 2.5 0 0 0 2.5-2.5V15H12.5V9Zm-2.39-1 1.65-1.89c.09-.1.19-.11.25-.11s.16.01.24.1L13.89 8h-3.78ZM23 16v5.5c0 .83-.67 1.5-1.5 1.5h-19c-.83 0-1.5-.67-1.5-1.5V16h22Z"/></svg>