<svg xmlns="http://www.w3.org/2000/svg" width="512" height="512" data-name="Layer 1" viewBox="0 0 24 24"><path d="M16.911 3.436c-1.031-.725-2.472-.54-3.368.355L12 5.334l-1.543-1.543c-.896-.896-2.345-1.092-3.368-.355C2.923 6.436 0 11.903 0 11.903v.262S4.475 20 12 20s12-7.846 12-7.846v-.259s-2.897-5.51-7.089-8.459Zm-9.275.837a1.693 1.693 0 0 1 2.114.226L12 6.749l2.25-2.25a1.696 1.696 0 0 1 2.114-.226c1.654 1.08 4.143 3.662 6.204 7.129-1.589-.38-6.266-1.401-10.568-1.401-4.326 0-8.974 1.006-10.563 1.383 2.122-3.485 4.647-6.097 6.199-7.111Zm13.152 7.757c-2.138.435-5.592 1.016-8.788 1.016s-6.665-.586-8.802-1.022c2.138-.437 5.601-1.023 8.802-1.023s6.656.587 8.788 1.029ZM12 19.001c-5.436 0-9.125-4.39-10.484-6.319 1.659.39 6.228 1.365 10.484 1.365s8.832-.973 10.488-1.361C21.133 14.61 17.442 19.002 12 19.002Z"/></svg>