<svg xmlns="http://www.w3.org/2000/svg" width="512" height="512" data-name="Layer 1" viewBox="0 0 24 24"><path d="M15.791 12C19.286 9.073 21.038 5.877 21 2.495A2.51 2.51 0 0 0 18.499.022L5.497.026A2.506 2.506 0 0 0 3 2.494C2.961 5.89 4.712 9.085 8.207 12 4.751 14.882 3 18.045 3 21.409V24h18v-2.591c0-3.351-1.752-6.514-5.209-9.409ZM20 23H4v-1.591c0-3.196 1.787-6.229 5.31-9.017L9.806 12l-.496-.392C5.749 8.791 3.963 5.729 4 2.506a1.502 1.502 0 0 1 1.496-1.48l13.002-.004c.819 0 1.492.666 1.501 1.484.036 3.21-1.751 6.272-5.311 9.103l-.492.392.492.392c3.524 2.802 5.311 5.835 5.311 9.018v1.591ZM17.426 3.599l.091-.578H6.64l.093.579c.529 3.308 3.413 5.64 5.085 6.736l.273.18.274-.179c1.665-1.087 4.537-3.408 5.061-6.738Zm-5.333 5.718c-1.445-.992-3.596-2.828-4.25-5.296h8.475c-.646 2.484-2.787 4.312-4.225 5.296Z"/></svg>