<svg xmlns="http://www.w3.org/2000/svg" width="512" height="512" data-name="Layer 1" viewBox="0 0 24 24"><path d="M21.5 4H18V2.5C18 1.121 16.878 0 15.5 0h-13A2.503 2.503 0 0 0 0 2.5v15.854a1.645 1.645 0 0 0 1.649 1.648c.319 0 .637-.093.913-.276L6 17.434V21h11.349l4.089 2.727a1.643 1.643 0 0 0 1.692.081c.537-.287.87-.845.87-1.453V6.5C24 5.121 22.878 4 21.5 4ZM2.007 18.895a.633.633 0 0 1-.665.031.638.638 0 0 1-.342-.571V2.5C1 1.673 1.673 1 2.5 1h13c.827 0 1.5.673 1.5 1.5V16H6.349l-4.341 2.895ZM23 22.355a.638.638 0 0 1-.342.571.637.637 0 0 1-.665-.031L17.652 20H7v-3h11V5h3.5c.827 0 1.5.673 1.5 1.5v15.854Z"/></svg>