<svg xmlns="http://www.w3.org/2000/svg" width="512" height="512" data-name="Layer 1" viewBox="0 0 24 24"><path d="m23.984 9.287-2.577-2.413A2.491 2.491 0 0 0 19.509 6h-8.833L9 4.743V1h-.5a2.506 2.506 0 0 0-2.455 2.023l-.093-.011A2.504 2.504 0 0 0 3.5.999H3v3.537L.839 7.146a2.834 2.834 0 0 0 0 4.004c.54.54 1.285.825 2.155.825.634 0 1.563-.412 2.172-.72l.844 3.8L5.999 22h5.002l-.01-3h6l.01 3h4.998l.01-13.192 1.291 1.209.684-.729Zm-18.135.435-.592.346c-.6.351-1.744.907-2.264.907-.418 0-1.008-.092-1.448-.532-.714-.714-.714-1.875.031-2.624l2.423-2.922V2.086c.582.207 1 .767 1 1.434v.538L5.679 4c.218 0 .439.038.656.114L7 4.345V3.5c0-.652.418-1.208 1-1.415v3.157l2.343 1.757h9.167a1.5 1.5 0 0 1 1.156.543c.225.272.344.603.344.956l-.004 5.5H6.79L5.849 9.72ZM17.998 21l-.01-3H9.989l.01 3H7.001l.009-5.999h13.995L21.001 21h-3.002Zm-4.999-10a1 1 0 1 1 2 0 1 1 0 0 1-2 0Zm4 0a1 1 0 1 1 2 0 1 1 0 0 1-2 0Zm-8 0a1 1 0 1 1 2 0 1 1 0 0 1-2 0Z"/></svg>