<svg xmlns="http://www.w3.org/2000/svg" width="512" height="512" data-name="Layer 1" viewBox="0 0 24 24"><path d="M22 15v-1.5c0-1.93-1.57-3.5-3.5-3.5S15 11.57 15 13.5V15h-2v6.5a2.5 2.5 0 0 0 2.5 2.5h6a2.5 2.5 0 0 0 2.5-2.5V15h-2Zm-6-1.5a2.5 2.5 0 0 1 5 0V15h-5v-1.5Zm7 8c0 .83-.67 1.5-1.5 1.5h-6c-.83 0-1.5-.67-1.5-1.5V16h9v5.5Zm-4-1h-1v-2h1v2ZM4 13v11H3v-9.36L.74 16.96l-.71-.69L3.21 13h.8Zm4-9c0-2.21-1.79-4-4-4S0 1.79 0 4v3c0 2.21 1.79 4 4 4s4-1.79 4-4V4ZM7 7c0 1.65-1.35 3-3 3S1 8.65 1 7V4c0-1.65 1.35-3 3-3s3 1.35 3 3v3Zm4.24 15.89c.13.38.29.75.51 1.08C9.66 23.84 8 22.11 8 20v-3c0-1.86 1.28-3.41 3-3.86v1.04c-1.16.41-2 1.51-2 2.82v3c0 1.39.96 2.55 2.24 2.89Zm.5-18.93-.72-.7L14.2 0h.8v9.28c-.38.32-.72.68-1 1.08V1.64l-2.26 2.32Z"/></svg>