<svg xmlns="http://www.w3.org/2000/svg" width="512" height="512" data-name="Layer 1" viewBox="0 0 24 24"><path d="m.017 23.982 18.024-7.993L8.011 5.958.017 23.982Zm6.257-11.639 5.383 5.383-9.674 4.292 4.291-9.675Zm10.031 3.322-3.668 1.627-5.928-5.929 1.626-3.667 7.97 7.969Zm-2.843-8.019c1.065-1.065 1.582-2.171 1.536-3.285-.073-1.748-1.491-2.968-1.505-2.979l.646-.764c.072.062 1.768 1.52 1.858 3.701.059 1.405-.556 2.763-1.828 4.034l-.707-.707Zm10.119 4.661-.762.647c-.008-.009-.797-.912-1.891-.954-.676-.026-1.395.305-2.074.983l-.707-.707c.887-.888 1.841-1.321 2.831-1.274 1.535.063 2.56 1.254 2.603 1.305Zm.42-11.308a1 1 0 1 1-2 0 1 1 0 0 1 2 0Zm-4 5a1 1 0 1 1 2 0 1 1 0 0 1-2 0ZM8 2a1 1 0 1 1 2 0 1 1 0 0 1-2 0Zm15 16a1 1 0 1 1-2 0 1 1 0 0 1 2 0ZM1 3a1 1 0 1 1 2 0 1 1 0 0 1-2 0Zm17 20a1 1 0 1 1-2 0 1 1 0 0 1 2 0Z"/></svg>