<svg xmlns="http://www.w3.org/2000/svg" width="512" height="512" data-name="Layer 1" viewBox="0 0 24 24"><path d="M12.5 5C13.879 5 15 3.878 15 2.5S13.879 0 12.5 0 10 1.122 10 2.5 11.121 5 12.5 5Zm0-4c.827 0 1.5.673 1.5 1.5S13.327 4 12.5 4 11 3.327 11 2.5 11.673 1 12.5 1ZM19 6v5h-2.217l-2.271-3.787A2.513 2.513 0 0 0 12.367 6H9.433C6.28 6 3.019 8.057 3.019 11.5c0 2.405 1.539 3.5 2.97 3.5.916 0 1.584-.364 2.049-.834.172.387.441.732.793.992L13 18.251V24h1v-6.251l-4.573-3.393a1.506 1.506 0 0 1-.578-1.491L9.99 7h2.377c.182 0 .361.035.528.098l-1.343 6.814.884.575 1.333-6.567L16.217 12H19v12h1V6h-1ZM5.989 14c-.731 0-1.97-.526-1.97-2.5 0-2.652 2.441-4.299 4.947-4.483L7.92 12.392h-.002c-.014.065-.371 1.607-1.93 1.607Zm1.749 2.505L8.5 17l-1.218 7H6.261l1.323-7.612c.053.038.1.082.155.118Z"/></svg>