<svg xmlns="http://www.w3.org/2000/svg" width="512" height="512" data-name="Layer 1" viewBox="0 0 24 24"><path d="M21 6.603V0h-1c0 3.807-5.415 4-6.5 4h-11A2.503 2.503 0 0 0 0 6.5v6a2.502 2.502 0 0 0 2.367 2.496L5.65 24h2.099c.765 0 1.47-.383 1.887-1.024a2.23 2.23 0 0 0 .181-2.114L7.618 15h5.883c1.085 0 6.5.193 6.5 4h1v-6.397c1.654 0 3-1.346 3-3s-1.346-3-3-3ZM8.891 21.241a1.25 1.25 0 0 1-1.143 1.76H6.35l-2.917-8h3.116l2.342 6.24ZM8 14.001H2.5c-.827 0-1.5-.673-1.5-1.5v-6c0-.827.673-1.5 1.5-1.5H8v9Zm12 2.254c-1.415-1.622-4.097-2.254-6.5-2.254H9V5h4.5c2.403 0 5.085-.632 6.5-2.254v13.508Zm1-4.652v-4c1.103 0 2 .897 2 2s-.897 2-2 2Z"/></svg>