<svg xmlns="http://www.w3.org/2000/svg" width="512" height="512" data-name="Layer 1" viewBox="0 0 24 24"><path d="M24 5h-3.85a7.408 7.408 0 0 0-.431-.599C17.113.922 12.825-.66 8.532.261 4.138 1.208.844 4.711.139 9.186c-.514 3.269.326 6.515 2.306 8.904.358.432.556.986.556 1.561v4.35h13v-3h2.358c1.188 0 2.22-.847 2.452-2.013l.793-3.987H24v-1.5s-.416-1.058-.603-1.5H24V5Zm-1 6h-8.5C13.121 11 12 9.879 12 8.5S13.121 6 14.5 6H23v5ZM8.743 1.239C12.646.398 16.538 1.835 18.918 5H14.5a3.505 3.505 0 0 0-3.464 3H1.432a9.736 9.736 0 0 1 7.311-6.761ZM23 13.605V14h-2.217l-.953 4.792c-.14.7-.759 1.208-1.472 1.208H15v3H4v-3.35c0-.807-.279-1.588-.786-2.199-1.796-2.168-2.557-5.125-2.087-8.11.018-.114.038-.228.06-.341h9.849a3.505 3.505 0 0 0 3.464 3h7.813c.229.547.458 1.086.687 1.605Z"/></svg>