<svg xmlns="http://www.w3.org/2000/svg" width="512" height="512" data-name="Layer 1" viewBox="0 0 24 24"><path d="M21.5 3h-19A2.502 2.502 0 0 0 0 5.5v3C0 9.879 1.121 11 2.5 11h19c1.379 0 2.5-1.121 2.5-2.5v-3C24 4.121 22.879 3 21.5 3ZM1 8.5v-3C1 4.673 1.673 4 2.5 4H14v6H2.5C1.673 10 1 9.327 1 8.5Zm22 0c0 .827-.673 1.5-1.5 1.5H15V4h6.5c.827 0 1.5.673 1.5 1.5v3ZM21.5 13h-19A2.502 2.502 0 0 0 0 15.5v3C0 19.879 1.121 21 2.5 21h19c1.379 0 2.5-1.121 2.5-2.5v-3c0-1.379-1.121-2.5-2.5-2.5ZM1 18.5v-3c0-.827.673-1.5 1.5-1.5H8v6H2.5c-.827 0-1.5-.673-1.5-1.5Zm22 0c0 .827-.673 1.5-1.5 1.5H9v-6h12.5c.827 0 1.5.673 1.5 1.5v3Z"/></svg>