<svg xmlns="http://www.w3.org/2000/svg" width="512" height="512" data-name="Layer 1" viewBox="0 0 24 24"><path d="M24 4.5C24 2.57 22.43 1 20.5 1S17 2.57 17 4.5a3.505 3.505 0 0 0 3 3.464V17.5c0 .827-.673 1.5-1.5 1.5h-6.157l3.056-3.056-.707-.707-3.256 3.256c-.281.281-.436.655-.436 1.053s.155.771.436 1.052l3.256 3.256.707-.707-3.146-3.146H18.5c1.378 0 2.5-1.122 2.5-2.5V7.964A3.505 3.505 0 0 0 24 4.5ZM20.5 7C19.122 7 18 5.878 18 4.5S19.122 2 20.5 2 23 3.122 23 4.5 21.878 7 20.5 7Zm-7.936-3.553L9.308.192l-.707.707L11.703 4H5.5A2.503 2.503 0 0 0 3 6.5v9.536A3.505 3.505 0 0 0 0 19.5C0 21.43 1.57 23 3.5 23S7 21.43 7 19.5a3.505 3.505 0 0 0-3-3.464V6.5C4 5.673 4.673 5 5.5 5h6.203L8.601 8.101l.707.707 3.256-3.255a1.489 1.489 0 0 0 0-2.105ZM6 19.5C6 20.878 4.878 22 3.5 22S1 20.878 1 19.5 2.122 17 3.5 17 6 18.122 6 19.5Z"/></svg>