<svg xmlns="http://www.w3.org/2000/svg" width="512" height="512" data-name="Layer 1" viewBox="0 0 24 24"><path d="M17.5 20c3.084 0 5.5-2.8 5.5-6.375C23 8.468 15.829 2.332 13.632.574a2.599 2.599 0 0 0-3.263 0C8.171 2.332 1 8.466 1 13.625 1 17.2 3.416 20 6.5 20c2.232 0 3.935-1.473 4.935-2.629C11.119 21.106 9.633 23 7 23H5v1h14v-1h-2c-2.633 0-4.119-1.893-4.435-5.629 1 1.156 2.702 2.629 4.935 2.629Zm-11-1C3.977 19 2 16.639 2 13.625c0-3.745 4.646-8.794 8.993-12.27a1.601 1.601 0 0 1 2.014 0C17.355 4.832 22 9.881 22 13.625 22 16.639 20.023 19 17.5 19c-3.008 0-5.047-3.446-5.067-3.481L12 14.776l-.432.743c-.02.035-2.06 3.481-5.067 3.481Zm7.414 4h-3.828c.794-.627 1.479-1.603 1.914-3.101.435 1.498 1.12 2.474 1.914 3.101Z"/></svg>