<svg xmlns="http://www.w3.org/2000/svg" width="512" height="512" data-name="Layer 1" viewBox="0 0 24 24"><path d="M20.802 6.199a4.482 4.482 0 0 0-4.814-3.169A5.727 5.727 0 0 0 10.955 0C7.854 0 5.3 2.201 5.026 5h-.025v.023A5.507 5.507 0 0 0 0 10.5a5.506 5.506 0 0 0 5.687 5.497C6.228 17.309 7 19.825 7 23.5v.5h10v-.5c0-4.974 1.419-7.847 1.815-8.552.171.026.636.052.685.052 2.481 0 4.5-2.019 4.5-4.5a4.473 4.473 0 0 0-3.198-4.301ZM16.005 23h-8.01c-.062-3.342-.741-5.733-1.276-7.116a6.494 6.494 0 0 0 3.324-1.74c.428.466.92.852 1.457 1.149V20h1v-4.273c.557.18 1.146.273 1.75.273a5.712 5.712 0 0 0 3.503-1.189c-.568 1.122-1.669 3.842-1.748 8.189Zm3.495-9c-.618.022-1.3-.205-1.823-.526l-.006.009A3.501 3.501 0 0 1 16 10.5V10h-1v.5c0 1.521.758 2.867 1.916 3.682A4.726 4.726 0 0 1 14.25 15c-1.493 0-2.873-.697-3.786-1.912l-.375-.499-.405.475A5.494 5.494 0 0 1 5.5 15 4.505 4.505 0 0 1 1 10.5a4.506 4.506 0 0 1 4.278-4.495c2.808.113 4.28 1.942 4.635 3.995h1.011c-.376-2.658-2.249-4.544-4.901-4.928C6.261 2.79 8.382 1 10.955 1a4.732 4.732 0 0 1 4.293 2.787l.164.363.391-.079c1.855-.377 3.684.82 4.104 2.649l.07.306.306.07a3.48 3.48 0 0 1 2.719 3.405c0 1.93-1.57 3.5-3.5 3.5Zm0 0c-.038 0 .004 0 0 0Z"/></svg>