<svg xmlns="http://www.w3.org/2000/svg" width="512" height="512" data-name="Layer 1" viewBox="0 0 24 24"><path d="M21 23V5.438a2.63 2.63 0 0 0-2.3-2.605l-6.2-.775V0h-1v2.059l-6.201.775A2.63 2.63 0 0 0 3 5.439v17.562H1v1h22v-1h-2ZM5.423 3.826 12 3.004l6.576.822c.661.083 1.19.558 1.363 1.174H4.06a1.627 1.627 0 0 1 1.362-1.174ZM4 6h16v17H4V6Zm3 4H6V8h1v2Zm2 0H8V8h1v2Zm6-2h1v2h-1V8Zm3 0v2h-1V8h1ZM7 13H6v-2h1v2Zm2 0H8v-2h1v2Zm6-2h1v2h-1v-2Zm-2-3h1v2h-1V8Zm0 3h1v2h-1v-2Zm-3-3h1v2h-1V8Zm0 3h1v2h-1v-2Zm7 0h1v2h-1v-2ZM6 19h4v-4H6v4Zm1-3h2v2H7v-2Z"/></svg>