<svg xmlns="http://www.w3.org/2000/svg" width="512" height="512" data-name="Layer 1" viewBox="0 0 24 24"><path d="M22.35 3.05 19.39.09l-5.84 5.84 3.48 3.48c-1.54 3.64-4.1 6.2-7.62 7.63l-3.48-3.48-5.84 5.83 2.96 2.96C4.11 23.41 5.55 24 7.1 24c7.42 0 16.89-9.47 16.89-16.89 0-1.55-.59-2.99-1.65-4.06ZM7.11 23c-1.29 0-2.47-.48-3.35-1.36l-2.25-2.25 4.42-4.42 3.23 3.23.3-.12c4.04-1.54 6.94-4.44 8.61-8.61l.12-.31-3.24-3.24 4.44-4.41 2.25 2.25c.88.87 1.36 2.06 1.36 3.35C23 13.94 13.94 23 7.11 23Z"/></svg>