<svg xmlns="http://www.w3.org/2000/svg" width="512" height="512" data-name="Layer 1" viewBox="0 0 24 24"><path d="M22.859 6.65C23.595 5.914 24 4.936 24 3.896s-.405-2.019-1.141-2.754c-1.471-1.472-4.037-1.472-5.509 0l-3.176 3.176a33.36 33.36 0 0 0-4.796 6.056c-.956 1.546-2.175 2.986-2.719 3.53l-5.024 5.024-.9-.9-.708.706 5.238 5.238.707-.707-.862-.862 4.947-4.947c.59-.59 2.229-1.927 3.772-2.904a33.21 33.21 0 0 0 5.707-4.581l3.321-3.321ZM9.351 16.75l-4.947 4.947-2.062-2.062 5.024-5.024c.217-.216.519-.549.865-.961l2.17 2.17c-.436.359-.802.684-1.049.931Zm3.944-3.042c-.7.443-1.441.973-2.107 1.485L8.86 12.865a23.62 23.62 0 0 0 1.368-1.966 32.389 32.389 0 0 1 4.653-5.874l3.176-3.176c1.094-1.094 3.001-1.094 4.095 0 .547.547.848 1.274.848 2.047s-.301 1.5-.848 2.047l-3.321 3.321a32.257 32.257 0 0 1-5.535 4.443ZM21 18c-1.654 0-3 1.346-3 3s1.346 3 3 3 3-1.346 3-3-1.346-3-3-3Zm0 5c-1.103 0-2-.897-2-2s.897-2 2-2 2 .897 2 2-.897 2-2 2Z"/></svg>