<svg xmlns="http://www.w3.org/2000/svg" width="512" height="512" data-name="Layer 1" viewBox="0 0 24 24"><path d="M24 5.056a3.493 3.493 0 0 0-1.464-2.849C21.114 1.2 18.857 0 16.182 0H7.818C5.143 0 2.886 1.2 1.464 2.207A3.492 3.492 0 0 0 0 5.056V21h4v3h16v-3h4V5.056ZM15.327 1 12.03 6.862 8.68 1h6.647ZM1 20V5.056c0-.811.39-1.57 1.042-2.032 1.251-.887 3.2-1.936 5.489-2.019l3.927 6.873L7.452 15H5V6H4v14H1Zm4 3v-7h6.155C10.458 16.987 9 19.26 9 21h1c0-1.414 1.272-3.418 1.925-4.354C12.736 17.724 14 19.683 14 21h1c0-1.74-1.556-4.005-2.311-5H19v7H5Zm18-3h-3V6h-1v9H8.599l7.872-13.995c2.289.083 4.236 1.133 5.487 2.019A2.49 2.49 0 0 1 23 5.056V20Z"/></svg>