<svg xmlns="http://www.w3.org/2000/svg" width="512" height="512" data-name="Layer 1" viewBox="0 0 24 24"><path d="M13.676 3.946c1.039-.979 2.668-1.217 3.94-.579L20.882 5H24V4h-2.882l-3.055-1.527c-1.637-.82-3.733-.516-5.074.746l-.951.902-1.045-.953a4.499 4.499 0 0 0-3.054-1.167c-.693 0-1.386.163-2.003.473L2.881 4.001H0v1h3.118l3.266-1.633c1.204-.604 2.869-.431 3.936.539l.992.904-3.519 3.336c-.901.9-1.051 2.316-.347 3.293a2.52 2.52 0 0 0 2.039 1.051 2.49 2.49 0 0 0 1.76-.726l1.804-1.738 7.208 5.406L12 21.632 3.167 15H0v1h2.833L12 22.882 21.167 16H24v-1h-2.653l-7.568-5.676 2.107-2.029-.693-.721-4.648 4.477a1.524 1.524 0 0 1-1.183.435 1.491 1.491 0 0 1-1.104-.63c-.42-.584-.316-1.444.232-1.992l5.186-4.918Z"/></svg>