<svg xmlns="http://www.w3.org/2000/svg" width="512" height="512" data-name="Layer 1" viewBox="0 0 24 24"><circle cx="12" cy="6" r="1"/><path d="M12 0C5.37 0 0 5.37 0 12s5.37 12 12 12 12-5.37 12-12S18.63 0 12 0ZM1 12C1 5.98 5.87 1.07 11.88 1 14.72 1.07 17 3.4 17 6.25c0 2.65-2.26 5-5.04 5.25C8.68 11.8 6 14.6 6 17.75c0 1.73.71 3.3 1.85 4.44C3.83 20.55 1 16.6 1 12Zm11.12 11A5.256 5.256 0 0 1 7 17.75c0-2.65 2.26-5 5.04-5.25C15.32 12.2 18 9.4 18 6.25c0-1.73-.71-3.3-1.85-4.44C20.17 3.45 23 7.4 23 12c0 6.02-4.87 10.93-10.88 11Z"/><circle cx="12" cy="18" r="1"/></svg>