<svg xmlns="http://www.w3.org/2000/svg" width="512" height="512" data-name="Layer 1" viewBox="0 0 24 24"><path d="m18.417 17.71.653-.639c3.899-3.899 3.899-10.243 0-14.143-1.889-1.889-4.4-2.929-7.071-2.929s-5.181 1.041-7.07 2.93c-.216.216-.422.442-.617.676L.753.047.046.754l23.201 23.199.707-.707-5.536-5.536Zm-9.1-9.1A3.02 3.02 0 0 1 11.985 7 3.019 3.019 0 0 1 15 10.015a3.024 3.024 0 0 1-1.61 2.668L9.318 8.611Zm8.393 8.393-3.589-3.589A4.024 4.024 0 0 0 16 10.015 4.02 4.02 0 0 0 11.985 6a4.022 4.022 0 0 0-3.399 1.879L5.022 4.315c.193-.236.398-.463.614-.679C7.336 1.937 9.596 1 12 1s4.664.937 6.364 2.636c3.509 3.51 3.509 9.219.004 12.725l-.657.643Zm-2.145 2.098.707.707-4.273 4.179-7.067-6.911A9.961 9.961 0 0 1 2.726 6.264l.772.772a8.97 8.97 0 0 0 2.137 9.33l6.364 6.224 3.566-3.487Z"/></svg>