<svg xmlns="http://www.w3.org/2000/svg" width="512" height="512" data-name="Layer 1" viewBox="0 0 24 24"><path d="M8 11a1 1 0 1 1 0-2 1 1 0 0 1 0 2Zm9-1a1 1 0 1 0-2 0 1 1 0 0 0 2 0Zm6.331-1.295a2.23 2.23 0 0 1-.114 3.145l-6.49 6.102-.343-.308C16.365 17.628 14.526 16 12 16s-4.646 1.854-4.667 1.873l-.666-.746C6.764 17.041 9.081 15 12 15c.393 0 .77.033 1.128.09l7.06-6.501a2.232 2.232 0 0 1 3.144.116Zm-2.465.619-6.57 6.05a8.57 8.57 0 0 1 2.396 1.237l.807-.759-.872-.969.744-.669.857.952 1.317-1.238-.791-.87.74-.673.78.858 1.274-1.198-.765-.842.74-.673.754.829.255-.24a1.226 1.226 0 0 0 .065-1.733 1.227 1.227 0 0 0-1.732-.062Zm1.919 5.448-.202.191C21.285 19.592 17.038 23 12 23 5.935 23 1 18.065 1 12S5.935 1 12 1c3.888 0 7.304 2.034 9.261 5.087a3.99 3.99 0 0 1 1.144-.041C20.333 2.44 16.45 0 12 0 5.383 0 0 5.383 0 12s5.383 12 12 12c6.018 0 11.001-4.457 11.856-10.241l-1.07 1.013Z"/></svg>