<svg xmlns="http://www.w3.org/2000/svg" width="512" height="512" data-name="Layer 1" viewBox="0 0 24 24"><path d="M11.55 11.43c-.24.24-.47.49-.69.76A2.006 2.006 0 0 0 8 14c0 .81.48 1.5 1.17 1.82-.07.33-.11.67-.14 1.02A3.007 3.007 0 0 1 7 14c0-1.65 1.35-3 3-3 .57 0 1.1.16 1.55.43ZM9.38 20c.11.34.23.68.38 1H0V3c0-1.65 1.35-3 3-3h12.83L21 5.16v4.59c-.32-.15-.66-.27-1-.38v-3.8L15.42 1H15v7H4V1H3c-1.1 0-2 .9-2 2v17h8.37ZM14 1H5v6h9V1Zm10 16.5c0 3.58-2.92 6.5-6.5 6.5S11 21.08 11 17.5s2.92-6.5 6.5-6.5 6.5 2.92 6.5 6.5Zm-1 0c0-3.03-2.47-5.5-5.5-5.5S12 14.47 12 17.5s2.47 5.5 5.5 5.5 5.5-2.47 5.5-5.5Zm-3.51-2.7-1.99 1.99-1.99-1.99-.71.71 1.99 1.99-1.99 1.99.71.71 1.99-1.99 1.99 1.99.71-.71-1.99-1.99 1.99-1.99-.71-.71Z"/></svg>