<svg xmlns="http://www.w3.org/2000/svg" width="512" height="512" data-name="Layer 1" viewBox="0 0 24 24"><path d="M22 19.05V2.5C22 1.122 20.879 0 19.5 0h-17A2.503 2.503 0 0 0 0 2.5V21h17.05c.039-.347.112-.681.225-1H1v-3h17v1.703c.288-.36.616-.686 1-.944V1h.5c.827 0 1.5.673 1.5 1.5v16.55c-1.14.232-2 1.242-2 2.45 0 1.379 1.121 2.5 2.5 2.5s2.5-1.121 2.5-2.5c0-1.208-.86-2.218-2-2.45ZM18 12H1V9h17v3Zm0-4H1V5h17v3ZM1 13h17v3H1v-3Zm17-9H1V2.5C1 1.673 1.673 1 2.5 1H18v3Zm3.5 19c-.827 0-1.5-.673-1.5-1.5s.673-1.5 1.5-1.5 1.5.673 1.5 1.5-.673 1.5-1.5 1.5Z"/></svg>