<svg xmlns="http://www.w3.org/2000/svg" width="512" height="512" data-name="Layer 1" viewBox="0 0 24 24"><path d="M20 5.499V20h-1V5.499c0-.246-.105-.415-.297-.476a.529.529 0 0 0-.588.215L12 14.902 5.87 5.216a.521.521 0 0 0-.573-.193c-.191.061-.297.23-.297.476V20H4V5.499c0-.686.38-1.233.993-1.429a1.527 1.527 0 0 1 1.707.589l5.301 8.374 5.286-8.352c.408-.575 1.094-.812 1.722-.611.612.196.993.743.993 1.429ZM24 2.5V24H0V2.5C0 1.122 1.122 0 2.5 0h19C22.878 0 24 1.122 24 2.5Zm-1 0c0-.827-.673-1.5-1.5-1.5h-19C1.673 1 1 1.673 1 2.5V23h22V2.5Z"/></svg>