<svg xmlns="http://www.w3.org/2000/svg" width="512" height="512" data-name="Layer 1" viewBox="0 0 24 24"><path d="M12 24a9.934 9.934 0 0 1-7.071-2.929c-3.899-3.899-3.899-10.243 0-14.142L12 .013l7.067 6.912c3.903 3.903 3.903 10.247.004 14.146A9.934 9.934 0 0 1 12 24Zm0-22.588L5.632 7.64c-3.505 3.505-3.505 9.215.004 12.724C7.336 22.063 9.596 23 12 23s4.664-.937 6.364-2.636c3.509-3.509 3.509-9.219 0-12.728L12 1.412ZM9 10a1 1 0 1 0 0 2 1 1 0 0 0 0-2Zm6 6a1 1 0 1 0 0 2 1 1 0 0 0 0-2Zm-5.949 2H10.2l4.8-8h-1.149l-4.8 8Z"/></svg>