<svg xmlns="http://www.w3.org/2000/svg" width="512" height="512" data-name="Layer 1" viewBox="0 0 24 24"><path d="M7 16h2v.5c0 1.683 1.147 3.5 3 3.5s3-1.817 3-3.5V16h2v-1H7v1Zm7 .5c0 1.202-.765 2.5-2 2.5s-2-1.298-2-2.5V16h4v.5ZM12 0C5.383 0 0 5.383 0 12s5.383 12 12 12 12-5.383 12-12S18.617 0 12 0Zm0 23C5.935 23 1 18.065 1 12S5.935 1 12 1s11 4.935 11 11-4.935 11-11 11Zm4.5-16A2.503 2.503 0 0 0 14 9.5V11h5V9.5C19 8.122 17.878 7 16.5 7Zm1.5 3h-3v-.5c0-.827.673-1.5 1.5-1.5s1.5.673 1.5 1.5v.5Zm-8 1H5v-1h5v1Z"/></svg>