<svg xmlns="http://www.w3.org/2000/svg" width="512" height="512" data-name="Layer 1" viewBox="0 0 24 24"><path d="M19.329.555C17.312-.587 14.726.101 13.565 2.09a4.094 4.094 0 0 0-.422 3.156 4.15 4.15 0 0 0 1.979 2.544l.146.079-.949.949A4.472 4.472 0 0 0 13.001 12v12h1V12c0-.935.364-1.814 1.025-2.475l.688-.688-.009.018c-1.042 1.979-.313 4.483 1.704 5.625a4.33 4.33 0 0 0 2.055.523 4.155 4.155 0 0 0 3.607-2.063c.791-1.355.93-2.66.93-4.901 0-2.338-1.227-5.531-4.671-7.484Zm2.877 11.881c-.871 1.492-2.771 2.002-4.385 1.13-1.473-.835-2.026-2.739-1.233-4.246.777-1.475-.39-2.091-.83-2.323l-.145-.078a3.153 3.153 0 0 1-1.506-1.934 3.112 3.112 0 0 1 .32-2.392A3.237 3.237 0 0 1 17.228 1c.546 0 1.1.137 1.606.424 3.07 1.74 4.164 4.558 4.164 6.614 0 2.101-.115 3.234-.793 4.397ZM8.732 7.869l.146-.079a4.152 4.152 0 0 0 1.979-2.544 4.1 4.1 0 0 0-.423-3.156C9.273.101 6.687-.587 4.671.555 1.227 2.507 0 5.701 0 8.039c0 2.241.139 3.546.93 4.901a4.124 4.124 0 0 0 3.593 2.05c.716 0 1.453-.178 2.148-.553 1.938-1.099 2.667-3.603 1.625-5.582l-.009-.018.688.688A3.479 3.479 0 0 1 10 12v12h1V12a4.47 4.47 0 0 0-1.318-3.182l-.949-.949ZM6.117 13.6c-1.555.838-3.454.326-4.324-1.164C1.114 11.272 1 10.139 1 8.039c0-2.056 1.094-4.874 4.164-6.614a3.242 3.242 0 0 1 1.606-.424c1.118 0 2.206.572 2.801 1.593.426.729.54 1.579.32 2.392a3.16 3.16 0 0 1-1.506 1.935l-.145.078c-.439.232-1.606.848-.83 2.323.793 1.506.24 3.411-1.293 4.279Z"/></svg>