<svg xmlns="http://www.w3.org/2000/svg" width="512" height="512" data-name="Layer 1" viewBox="0 0 24 24"><path d="M12 24C5.383 24 0 18.617 0 12S5.383 0 12 0s12 5.383 12 12-5.383 12-12 12Zm0-23C5.935 1 1 5.935 1 12s4.935 11 11 11 11-4.935 11-11S18.065 1 12 1Zm7 10h-5V9.5C14 8.122 15.121 7 16.5 7S19 8.122 19 9.5V11Zm-4-1h3v-.5c0-.827-.673-1.5-1.5-1.5S15 8.673 15 9.5v.5Zm-5 0H5v1h5v-1Zm2.007 10C8.433 20 6.062 16.751 6 14.514v-.515h12v.501c0 2.189-2.39 5.5-5.993 5.5ZM7.06 14.999C7.42 16.748 9.335 19 12.007 19c2.639 0 4.615-2.232 4.944-4-3.201-.002-8.229 0-9.891 0Z"/></svg>