<svg xmlns="http://www.w3.org/2000/svg" width="512" height="512" data-name="Layer 1" viewBox="0 0 24 24"><path d="M20.5 0h-16A2.503 2.503 0 0 0 2 2.5v19C2 22.878 3.122 24 4.5 24H22V1.5c0-.827-.673-1.5-1.5-1.5Zm-16 1h16a.5.5 0 0 1 .5.5V19H4.5c-.562 0-1.082.187-1.5.501V2.5C3 1.673 3.673 1 4.5 1Zm0 22c-.827 0-1.5-.673-1.5-1.5S3.673 20 4.5 20H21v3H4.5Zm9.644-9.152 1.373 2.746 1.373-2.746 2.746-1.373-2.746-1.373-1.373-2.746-1.373 2.746-2.746 1.373 2.746 1.373Zm.745-2 .627-1.254.627 1.254 1.254.627-1.254.627-.627 1.254-.627-1.254-1.254-.627 1.254-.627Zm-6.35-1.33 1.172-2.346L12.057 7 9.711 5.828 8.539 3.482 7.366 5.828 5.021 7l2.345 1.172 1.173 2.346Zm-.428-3.945.428-.854.427.854L9.82 7l-.854.427-.427.854-.428-.854L7.257 7l.854-.427Z"/></svg>