<svg xmlns="http://www.w3.org/2000/svg" width="512" height="512" data-name="Layer 1" viewBox="0 0 24 24"><path d="M12 1C5.383 1 0 6.383 0 13c0 3.911 1.949 7.616 5.212 9.909l.129.091h13.316l.129-.091c3.265-2.293 5.213-5.997 5.213-9.909 0-6.617-5.383-12-12-12Zm6.34 21H5.66C2.782 19.915 1 16.481 1 13 1 6.935 5.935 2 12 2s11 4.935 11 11c0 3.481-1.782 6.916-4.66 9ZM6.343 7.343A7.953 7.953 0 0 1 9 5.584v1.1A6.968 6.968 0 0 0 7.05 8.05c-2.729 2.729-2.729 7.171 0 9.9l-.707.707c-3.119-3.119-3.119-8.195 0-11.314Zm11.314 11.314-.707-.707c2.729-2.729 2.729-7.171 0-9.9A6.954 6.954 0 0 0 15 6.684v-1.1c.968.39 1.874.976 2.657 1.759 3.118 3.119 3.118 8.195 0 11.314ZM12.5 11.063V5h-1v6.063A2.004 2.004 0 0 0 10 13c0 1.103.897 2 2 2s2-.897 2-2c0-.93-.638-1.714-1.5-1.937ZM12 14a1.001 1.001 0 0 1 0-2 1.001 1.001 0 0 1 0 2Z"/></svg>