<svg xmlns="http://www.w3.org/2000/svg" width="512" height="512" data-name="Layer 1" viewBox="0 0 24 24"><path d="M4.5 5a2.5 2.5 0 0 0 0-5 2.5 2.5 0 0 0 0 5Zm0-4C5.33 1 6 1.67 6 2.5S5.33 4 4.5 4 3 3.33 3 2.5 3.67 1 4.5 1ZM1 16h6v8H6v-7H3v7H2v-7H0V8.5A2.5 2.5 0 0 1 2.5 6h4c.39 0 .76.09 1.1.25l-.78.78C6.72 7.01 6.61 7 6.5 7h-4C1.67 7 1 7.67 1 8.5V16ZM19.5 5a2.5 2.5 0 0 0 0-5 2.5 2.5 0 0 0 0 5Zm0-4c.83 0 1.5.67 1.5 1.5S20.33 4 19.5 4 18 3.33 18 2.5 18.67 1 19.5 1ZM24 17h-2v7h-1v-7h-3v7h-1v-8h6V8.5c0-.83-.67-1.5-1.5-1.5h-4c-.11 0-.22.01-.32.03l-.78-.78c.33-.16.71-.26 1.1-.26h4a2.5 2.5 0 0 1 2.5 2.5v8.5Zm-6.58-4.11-2.52 2.52-.71-.71 2.52-2.52c.06-.06.11-.12.15-.19H7.13c.04.07.09.13.15.19L9.8 14.7l-.71.71-2.52-2.52c-.77-.77-.77-2.02 0-2.79l2.52-2.52.71.71-2.52 2.52c-.06.06-.11.12-.15.19h9.73a.896.896 0 0 0-.15-.19l-2.52-2.52.71-.71 2.52 2.52c.77.77.77 2.02 0 2.79Z"/></svg>