<svg xmlns="http://www.w3.org/2000/svg" width="512" height="512" data-name="Layer 1" viewBox="0 0 24 24"><path d="M18 15.05V9h-1v6.05c-1.14.232-2 1.242-2 2.45 0 1.379 1.121 2.5 2.5 2.5s2.5-1.121 2.5-2.5c0-1.208-.86-2.218-2-2.45ZM17.5 19c-.827 0-1.5-.673-1.5-1.5s.673-1.5 1.5-1.5 1.5.673 1.5 1.5-.673 1.5-1.5 1.5Zm4.5-6.181V4.5C22 2.019 19.981 0 17.5 0S13 2.019 13 4.5v8.319c-1.627 1.561-2.32 3.805-1.859 6.049.508 2.472 2.506 4.476 4.972 4.987.459.096.92.143 1.376.143A6.493 6.493 0 0 0 22 12.819Zm-1.031 8.949c-1.291 1.05-2.988 1.454-4.653 1.108-2.081-.432-3.767-2.124-4.194-4.21-.405-1.968.235-3.933 1.713-5.258l.166-.148V4.5c0-1.93 1.57-3.5 3.5-3.5s3.5 1.57 3.5 3.5v8.761l.166.148a5.507 5.507 0 0 1 1.834 4.091c0 1.662-.74 3.218-2.031 4.269ZM8 6.651l3-1.729v1.154l-2.499 1.44L11 8.956v1.154L8 8.381v3.418l1.994 1.994-.707.707L7.5 12.713 5.713 14.5l-.707-.707L7 11.799V8.381l-2.962 1.707-.732 2.723-.965-.26.656-2.44-2.441-.656.26-.966 2.723.732 2.959-1.705-2.981-1.718-2.689.724-.26-.966 2.407-.647-.646-2.407.965-.26.723 2.69L7 6.651V3.208l-1.97-1.97.707-.707L7.5 2.294 9.263.531l.707.707L8 3.208v3.443Z"/></svg>