<svg xmlns="http://www.w3.org/2000/svg" width="512" height="512" data-name="Layer 1" viewBox="0 0 24 24"><path d="M19 6.379V11.5h-6.5V5h5.121L13.061.439c-.566-.566-1.555-.566-2.121 0L6.379 5H11.5v6.5H5V6.379l-4.561 4.56C.156 11.222 0 11.599 0 12s.156.777.439 1.061L5 17.622v-5.121h6.5v6.5H6.379l4.561 4.561c.283.283.66.439 1.061.439s.777-.156 1.061-.439l4.561-4.561h-5.121v-6.5h6.5v5.121l4.561-4.561c.283-.283.439-.66.439-1.061s-.156-.777-.439-1.061l-4.561-4.561Zm-7.354-5.233a.514.514 0 0 1 .707 0L15.207 4H8.793l2.854-2.854ZM4 15.207l-2.854-2.854a.5.5 0 0 1 0-.708L4 8.791v6.414Zm8.354 7.646a.512.512 0 0 1-.707 0l-2.854-2.854h6.414l-2.854 2.854Zm10.5-10.5L20 15.207V8.793l2.854 2.854a.5.5 0 0 1 0 .708Z"/></svg>