<svg xmlns="http://www.w3.org/2000/svg" data-name="Layer 1" viewBox="0 0 24 24"><path d="M24 17c0-.621-.233-1.211-.649-1.668a2.41 2.41 0 0 0 .149-.832c0-1.223-.882-2.244-2.103-2.454A2.741 2.741 0 0 0 20 10.307V8c0-4.411-3.589-8-8-8S4 3.589 4 8v2.307a2.743 2.743 0 0 0-1.394 1.724A2.504 2.504 0 0 0 .5 14.5c0 .283.05.562.149.832A2.472 2.472 0 0 0 0 17a2.5 2.5 0 0 0 .712 1.742c-.14.315-.212.657-.212 1.008 0 1.248.919 2.285 2.178 2.466A2.73 2.73 0 0 0 5.25 24 2.752 2.752 0 0 0 8 21.25v-8.5A2.752 2.752 0 0 0 5.25 10c-.085 0-.167.013-.25.021V8c0-3.86 3.14-7 7-7s7 3.14 7 7v2.021c-.083-.008-.165-.021-.25-.021A2.752 2.752 0 0 0 16 12.75v8.5A2.752 2.752 0 0 0 18.75 24a2.73 2.73 0 0 0 2.567-1.77 2.504 2.504 0 0 0 1.971-3.488A2.5 2.5 0 0 0 24 17ZM7 12.75v8.5C7 22.215 6.215 23 5.25 23a1.74 1.74 0 0 1-1.704-1.365l-.126-.405-.42.021a1.502 1.502 0 0 1-1.242-2.342l.275-.404-.399-.283A1.503 1.503 0 0 1 1 17.001c0-.448.206-.871.564-1.16l.325-.263-.2-.366a1.482 1.482 0 0 1-.189-.711c0-.827.673-1.5 1.466-1.501l.5.059.056-.5a1.742 1.742 0 0 1 1.728-1.558c.965 0 1.75.785 1.75 1.75Zm15.366 5.471-.399.283.275.404c.169.25.258.541.258.842 0 .824-.667 1.495-1.524 1.495h-.01l-.42-.021-.092.41a1.737 1.737 0 0 1-1.704 1.365c-.965 0-1.75-.785-1.75-1.75v-8.5c0-.965.785-1.75 1.75-1.75.887 0 1.63.669 1.728 1.558l.022.501.5-.059c.827 0 1.5.673 1.5 1.5 0 .241-.064.48-.189.711l-.2.366.325.263c.359.289.564.712.564 1.16 0 .481-.237.938-.634 1.221Z"/></svg>