<svg xmlns="http://www.w3.org/2000/svg" width="512" height="512" data-name="Layer 1" viewBox="0 0 24 24"><path d="M19.98 11a6.521 6.521 0 0 1-.618 2.311l3.474 2.045-.508.861-4.312-2.538.249-.43a5.495 5.495 0 0 0 .735-2.75c0-3.033-2.468-5.5-5.5-5.5a5.5 5.5 0 0 0-2.75.735l-.43.249-2.524-4.309.863-.505 2.03 3.469c.72-.345 1.5-.554 2.298-.617V0h1v4.018c.826.062 1.61.278 2.323.621l2.017-3.469.865.503-2.017 3.469a6.558 6.558 0 0 1 1.672 1.667l3.483-2.027.504.864-3.482 2.027c.346.713.566 1.499.629 2.328H24v1h-4.02Zm.02 9c0 2.206-1.794 4-4 4H8c-1.654 0-3-1.346-3-3 0-1.352.882-2.499 2.128-2.872A5.006 5.006 0 0 1 12 12a4.984 4.984 0 0 1 4.92 4.107A4.015 4.015 0 0 1 20 20Zm-1 0a3.008 3.008 0 0 0-2.592-2.972l-.39-.053-.04-.391a3.986 3.986 0 0 0-3.979-3.583 4.004 4.004 0 0 0-3.769 5.343l.217.605-.641.061a1.991 1.991 0 0 0-1.808 1.991c0 1.103.897 2 2 2h8c1.654 0 3-1.346 3-3ZM7 8c.982 0 1.925.359 2.659 1.011l.008.008a4 4 0 0 1 .88 1.134 6.958 6.958 0 0 1 1.029-.132 4.992 4.992 0 0 0-1.242-1.748A4.99 4.99 0 0 0 7.001 7a5.006 5.006 0 0 0-4.872 6.128A2.986 2.986 0 0 0 .001 16c0 1.654 1.346 3 3 3h.419c.154-.357.348-.691.579-1h-.997c-1.103 0-2-.897-2-2a1.99 1.99 0 0 1 1.808-1.991l.641-.061-.217-.605A4.004 4.004 0 0 1 7.003 8Z"/></svg>