<svg xmlns="http://www.w3.org/2000/svg" width="512" height="512" data-name="Layer 1" viewBox="0 0 24 24"><path d="M23.045 10.604a2.556 2.556 0 0 0-2.1-.562l-6.46 1.174A3.632 3.632 0 0 0 12 12.952a3.631 3.631 0 0 0-2.486-1.736l-6.46-1.175a2.574 2.574 0 0 0-2.123.56A2.584 2.584 0 0 0 0 12.59v9.235l12 2.182 12-2.182v-9.188c0-.785-.348-1.526-.955-2.033ZM11.5 22.9 1 20.991v-8.4c0-.473.208-.918.572-1.221a1.585 1.585 0 0 1 1.304-.344l6.46 1.175a2.635 2.635 0 0 1 2.165 2.593V22.9ZM23 20.991 12.5 22.9v-8.106c0-1.275.91-2.366 2.165-2.594l6.46-1.175c.448-.081.917.044 1.279.347.379.316.596.777.596 1.265v8.354ZM12 10c2.757 0 5-2.243 5-5s-2.243-5-5-5-5 2.243-5 5 2.243 5 5 5Zm0-9c2.206 0 4 1.794 4 4s-1.794 4-4 4-4-1.794-4-4 1.794-4 4-4Z"/></svg>