<svg xmlns="http://www.w3.org/2000/svg" data-name="Layer 1" viewBox="0 0 24 24"><path d="M24 12c0 4.411-3.589 8-8 8s-8-3.589-8-8h1c0 3.859 3.14 7 7 7s7-3.141 7-7c0-1.377-.266-2.691-.73-3.907l.777-.777A11.93 11.93 0 0 1 24 12ZM1 12C1 5.935 5.935 1 12 1c1.377 0 2.691.266 3.907.73l.777-.777A11.93 11.93 0 0 0 12 0C5.383 0 0 5.383 0 12c0 4.981 2.688 9.333 7.376 11.938l.485-.875C3.5 20.64.999 16.608.999 12.001Zm11-3.535L19.732.732c.943-.945 2.592-.945 3.535 0a2.502 2.502 0 0 1 0 3.535l-7.732 7.732h-3.536V8.464ZM13 11h2.122l7.439-7.439a1.501 1.501 0 0 0 0-2.121c-.566-.566-1.555-.566-2.121 0l-7.439 7.439V11Z"/></svg>