<svg xmlns="http://www.w3.org/2000/svg" width="512" height="512" data-name="Layer 1" viewBox="0 0 24 24"><path d="M21.12 8.6a2.5 2.5 0 0 0-2.04-.56c-.64.1-1.19.47-1.57.99-.4-.54-1.01-.91-1.7-1l1.12-4.96c.17-.72 0-1.46-.43-2.05-.43-.6-1.11-.97-1.85-1.02-1.19-.08-2.32.8-2.61 2.04L11 6.53 9.96 2.04C9.67.8 8.54-.08 7.35 0c-.74.05-1.42.41-1.86 1-.44.59-.6 1.34-.43 2.05l1.62 7.09c-.36.12-.7.33-.99.63L2.7 14.52c-.93 1.11-.92 2.56.03 3.5l6.06 5.97H22V10.5c0-.73-.32-1.43-.88-1.9ZM17 10.5v2c0 .83-.67 1.5-1.5 1.5s-1.5-.67-1.5-1.5v-2c0-.83.67-1.5 1.5-1.5s1.5.67 1.5 1.5ZM9.21 23l-5.77-5.68c-.58-.58-.56-1.44.04-2.16l2.96-3.72c.58-.58 1.54-.58 2.12 0 .28.28.44.66.44 1.06s-.16.78-.48 1.11L6.11 16.7l.79.62 2.37-3.04c.47-.47.73-1.1.73-1.77a2.488 2.488 0 0 0-2.31-2.49L6.04 2.84a1.498 1.498 0 0 1 1.38-1.83c.72-.04 1.39.5 1.57 1.27l2.01 8.7 2.01-8.71c.18-.77.85-1.32 1.57-1.27.46.03.85.24 1.12.6.26.35.36.8.26 1.23L14.77 8.1A2.509 2.509 0 0 0 13 10.49v2a2.5 2.5 0 0 0 4.5 1.5c.46.61 1.18 1 2 1 .56 0 1.08-.19 1.5-.5v8.5H9.21Zm10.29-9c-.83 0-1.5-.67-1.5-1.5v-1.89c0-.79.54-1.47 1.24-1.59A1.513 1.513 0 0 1 21 10.5v2c0 .83-.67 1.5-1.5 1.5Z"/></svg>