<svg xmlns="http://www.w3.org/2000/svg" width="512" height="512" data-name="Layer 1" viewBox="0 0 24 24"><path d="M24 11v1h-3.783l-2.572-4.273a1.423 1.423 0 0 0-.089-.13l-3.057 7.147-.864-.547L16.7 7.04a1.494 1.494 0 0 0-.341-.041h-2.582l-2.613 6.244a1.496 1.496 0 0 0 .587 1.833l5.248 3.14v5.783h-1v-5.217l-4.772-2.854a2.498 2.498 0 0 1-.987-3.067L12.692 7H9.808l-1.862 3.724-.895-.447 2.138-4.276h7.169c.872 0 1.692.464 2.142 1.211l2.281 3.789h3.217ZM14 2.5C14 1.121 15.122 0 16.5 0S19 1.121 19 2.5 17.878 5 16.5 5 14 3.879 14 2.5Zm1 0c0 .827.673 1.5 1.5 1.5S18 3.327 18 2.5 17.327 1 16.5 1 15 1.673 15 2.5ZM9.862 17.387 9.171 19H4.48c-.445 2.614-1.075 4-1.479 4-.679 0-2-3.883-2-11S2.321 1 3 1s2 3.883 2 11c0 1.905-.096 3.571-.248 5h.99A51.01 51.01 0 0 0 6 12C6 7.85 5.373 0 3 0S0 7.85 0 12s.627 12 3 12c1.114 0 1.841-1.734 2.3-4h4.529l.879-2.051-.507-.303c-.123-.077-.227-.172-.34-.258Z"/></svg>