<svg xmlns="http://www.w3.org/2000/svg" width="512" height="512" data-name="Layer 1" viewBox="0 0 24 24"><path d="M15.95 2a2.504 2.504 0 0 0-2.45-2h-3C9.292 0 8.283.86 8.05 2H3v19.5C3 22.878 4.122 24 5.5 24h13c1.378 0 2.5-1.122 2.5-2.5V2h-5.05ZM20 21.5c0 .827-.673 1.5-1.5 1.5h-13c-.827 0-1.5-.673-1.5-1.5V3h5v-.5c0-.827.673-1.5 1.5-1.5h3c.827 0 1.5.673 1.5 1.5V3h5v18.5Zm-8.487-9.715A2.504 2.504 0 0 0 13 9.5C13 8.122 11.878 7 10.5 7h-2C7.673 7 7 7.673 7 8.5V16h1v-4h2.454l2.944 4.409L11 20h1.203L14 17.309 15.797 20H17l-2.398-3.591L16.878 13h-1.203L14 15.508l-2.487-3.723ZM8 8.5a.5.5 0 0 1 .5-.5h2c.827 0 1.5.673 1.5 1.5s-.673 1.5-1.5 1.5H8V8.5Z"/></svg>