<svg xmlns="http://www.w3.org/2000/svg" width="512" height="512" data-name="Layer 1" viewBox="0 0 24 24"><path d="M21.5 0h-19A2.503 2.503 0 0 0 0 2.5V24h24V2.5C24 1.122 22.878 0 21.5 0ZM23 23H1V2.5C1 1.673 1.673 1 2.5 1h19c.827 0 1.5.673 1.5 1.5V23Zm-8.359-11.999A3.989 3.989 0 0 0 16 8c0-2.206-1.794-4-4-4H7c-1.103 0-2 .897-2 2v11.999c0 1.103.897 2 2 2h7.499a4.505 4.505 0 0 0 4.501-4.5 4.506 4.506 0 0 0-4.359-4.498ZM6 6c0-.551.449-1 1-1h5c1.654 0 3 1.346 3 3a3.004 3.004 0 0 1-2.954 3H6V6.001Zm8.499 13H7c-.551 0-1-.45-1-1.001v-6h8.5c1.93 0 3.5 1.57 3.5 3.5S16.429 19 14.499 19Z"/></svg>