<svg xmlns="http://www.w3.org/2000/svg" width="512" height="512" data-name="Layer 1" viewBox="0 0 24 24"><path d="M18.879 13a9.485 9.485 0 0 0-2.81-5.362l1.349-1.349a6.97 6.97 0 0 0 4.581 1.712v-1c-3.309 0-6-2.691-6-6h-1c0 1.75.646 3.353 1.712 4.581l-1.402 1.402a9.46 9.46 0 0 0-5.31-1.971V3.002h-1v2.011C3.993 5.273 0 9.443 0 14.53V23h24V13h-5.121ZM1 22v-7.47c0-4.705 3.813-8.532 8.5-8.532A8.496 8.496 0 0 1 17.864 13H15.5a4.505 4.505 0 0 0-4.5 4.5V22H1Zm22 0H12v-4.5c0-1.93 1.57-3.5 3.5-3.5H23v8ZM4 19h4v-4H4v4Zm1-3h2v2H5v-2Z"/></svg>