<svg xmlns="http://www.w3.org/2000/svg" width="512" height="512" data-name="Layer 1" viewBox="0 0 24 24"><path d="M7.5 10.955v2.091c0 2.318 1.864 4.205 4.155 4.205h.523a4.192 4.192 0 0 0 3.737-2.277l.889.459a5.19 5.19 0 0 1-4.626 2.818h-.523c-2.843 0-5.155-2.335-5.155-5.205v-2.091c0-2.87 2.312-5.205 5.155-5.205h.523a5.179 5.179 0 0 1 4.663 2.891l-.896.445a4.182 4.182 0 0 0-3.767-2.336h-.523C9.364 6.75 7.5 8.636 7.5 10.955ZM24 12c0 6.617-5.383 12-12 12S0 18.617 0 12 5.383 0 12 0s12 5.383 12 12Zm-1 0c0-6.065-4.935-11-11-11S1 5.935 1 12s4.935 11 11 11 11-4.935 11-11Z"/></svg>