<svg xmlns="http://www.w3.org/2000/svg" width="512" height="512" data-name="Layer 1" viewBox="0 0 24 24"><path d="M10 13a1 1 0 1 1 0-2 1 1 0 0 1 0 2Zm-4-2a1 1 0 1 0 0 2 1 1 0 0 0 0-2Zm8 2a1 1 0 1 0 0-2 1 1 0 0 0 0 2ZM2 11a1 1 0 1 0 0 2 1 1 0 0 0 0-2Zm20 0a1 1 0 1 0 0 2 1 1 0 0 0 0-2Zm-4 0a1 1 0 1 0 0 2 1 1 0 0 0 0-2Zm-5.5-3.223V0h-1v7.777L7.734 4.011l-.707.707 3.792 3.792c.315.315.735.489 1.181.489s.865-.174 1.18-.489l3.792-3.792-.707-.707-3.766 3.765Zm-1.681 7.712-3.792 3.792.707.707 3.766-3.766v7.777h1v-7.777l3.766 3.765.707-.707-3.792-3.792c-.63-.631-1.73-.631-2.361 0Z"/></svg>