<svg xmlns="http://www.w3.org/2000/svg" width="512" height="512" data-name="Layer 1" viewBox="0 0 24 24"><path d="M7 4.5C7 2.57 5.43 1 3.5 1S0 2.57 0 4.5a3.505 3.505 0 0 0 3 3.464v9.072A3.505 3.505 0 0 0 0 20.5C0 22.43 1.57 24 3.5 24S7 22.43 7 20.5a3.505 3.505 0 0 0-3-3.464V7.964A3.505 3.505 0 0 0 7 4.5Zm-6 0C1 3.122 2.121 2 3.5 2S6 3.122 6 4.5 4.879 7 3.5 7 1 5.878 1 4.5Zm5 16C6 21.878 4.879 23 3.5 23S1 21.878 1 20.5 2.121 18 3.5 18 6 19.122 6 20.5Zm15-3.464V6.5C21 5.122 19.879 4 18.5 4h-6.293L15.354.854l-.707-.707-3.256 3.256a1.49 1.49 0 0 0 0 2.105l3.256 3.256.707-.707-3.056-3.056h6.203c.827 0 1.5.673 1.5 1.5v10.536a3.505 3.505 0 0 0-3 3.464c0 1.93 1.57 3.5 3.5 3.5s3.5-1.57 3.5-3.5a3.505 3.505 0 0 0-3-3.464ZM20.5 23c-1.379 0-2.5-1.122-2.5-2.5s1.121-2.5 2.5-2.5 2.5 1.122 2.5 2.5-1.121 2.5-2.5 2.5Z"/></svg>