<svg xmlns="http://www.w3.org/2000/svg" data-name="Layer 1" viewBox="0 0 24 24"><path d="M13 10.298V9h1v.76c-.347.157-.68.338-1 .538Zm-2.5 2.385V9h-1v5.65a8.452 8.452 0 0 1 1-1.967ZM24 17.5c0 3.584-2.916 6.5-6.5 6.5S11 21.084 11 17.5s2.916-6.5 6.5-6.5 6.5 2.916 6.5 6.5Zm-1 0c0-3.032-2.468-5.5-5.5-5.5S12 14.468 12 17.5s2.468 5.5 5.5 5.5 5.5-2.468 5.5-5.5Zm-5-3h-1v3.207l2.146 2.146.707-.707-1.854-1.854v-2.793ZM12.028 24H4.5A2.502 2.502 0 0 1 2 21.5V5H0V4h5V2.5C5 1.121 6.121 0 7.5 0h5C13.879 0 15 1.121 15 2.5V4h5v1h-2v4h-1V5H3v16.5c0 .827.673 1.5 1.5 1.5h6.526c.306.36.641.695 1.003 1ZM6 4h8V2.5c0-.827-.673-1.5-1.5-1.5h-5C6.673 1 6 1.673 6 2.5V4Zm1 15V9H6v10h1Z"/></svg>