<svg xmlns="http://www.w3.org/2000/svg" width="512" height="512" data-name="Layer 1" viewBox="0 0 24 24"><path d="M2.999 5.007H24v1H2.999v-1Zm20.964-3.001-.048-.998-20.936 1 .048.998 20.937-1Zm.008 10.901c-.76 4.71-3.949 9.256-7.754 11.053l-.101.048-8.326-.048C3.984 22.163.795 17.617.036 12.907a2.507 2.507 0 0 1 2.476-2.9h18.983a2.508 2.508 0 0 1 2.476 2.9Zm-1.327-1.368a1.507 1.507 0 0 0-1.149-.531H2.512a1.504 1.504 0 0 0-1.488 1.739c.704 4.363 3.613 8.563 7.094 10.261h7.772c3.481-1.697 6.391-5.897 7.094-10.261a1.494 1.494 0 0 0-.339-1.208Z"/></svg>