<svg xmlns="http://www.w3.org/2000/svg" width="512" height="512" data-name="Layer 1" viewBox="0 0 24 24"><path d="M17.5 15c-2.923 0-4.5 2.37-4.5 4.6 0 2.478 2.476 4.4 4.605 4.4h6.282l-.208-.827C22.964 20.317 21.634 15 17.499 15Zm.105 8C15.982 23 14 21.431 14 19.6c0-1.789 1.202-3.6 3.5-3.6 3.183 0 4.432 4.342 5.105 7h-5ZM24 3.241c0-.868-.336-1.682-.948-2.292l-.354.354.352-.355c-1.223-1.223-3.363-1.222-4.584 0L0 19.415V24h4.585L23.052 5.534A3.22 3.22 0 0 0 24 3.242ZM4.171 23H1v-3.171l14.39-14.39 3.171 3.171L4.171 23ZM22.345 4.827l-3.077 3.077-3.171-3.171 3.077-3.077c.844-.844 2.325-.846 3.17 0h.001c.422.423.655.986.655 1.586s-.233 1.163-.655 1.585ZM.796 5.383a3.226 3.226 0 0 1-.794-2.367A3.224 3.224 0 0 1 1.11.797 3.221 3.221 0 0 1 3.467.015a3.217 3.217 0 0 1 2.218 1.109l4.457 5.32-.71.71-4.509-5.382a2.217 2.217 0 0 0-1.528-.761A2.236 2.236 0 0 0 .999 3.087a2.225 2.225 0 0 0 .541 1.628l4.979 5.353-.707.707L.796 5.383Z"/></svg>