<svg xmlns="http://www.w3.org/2000/svg" data-name="Layer 1" viewBox="0 0 24 24"><path d="M8.031 17.262 11.293 14l-3.262-3.262.707-.707L12 13.293l3.262-3.262.707.707L12.707 14l3.262 3.262-.707.707L12 14.707l-3.262 3.262-.707-.707ZM23 5h-1.552l-1.833 16.772A2.498 2.498 0 0 1 17.13 24H6.835c-1.281 0-2.35-.96-2.486-2.233L2.551 5H1V4h6V2.5C7 1.121 8.122 0 9.5 0h5C15.878 0 17 1.121 17 2.5V4h6v1ZM8 4h8V2.5c0-.827-.673-1.5-1.5-1.5h-5C8.673 1 8 1.673 8 2.5V4Zm12.442 1H3.556l1.787 16.659A1.497 1.497 0 0 0 6.835 23h10.294c.767 0 1.408-.574 1.491-1.337L20.441 5Z"/></svg>