<svg xmlns="http://www.w3.org/2000/svg" width="512" height="512" data-name="Layer 1" viewBox="0 0 24 24"><path d="M12 5c-1.379 0-2.5-1.122-2.5-2.5S10.621 0 12 0s2.5 1.122 2.5 2.5S13.379 5 12 5Zm0-4c-.827 0-1.5.673-1.5 1.5S11.173 4 12 4s1.5-.673 1.5-1.5S12.827 1 12 1Zm3 14h2V8.5C17 7.122 15.879 6 14.5 6h-5A2.503 2.503 0 0 0 7 8.5V15h2v6h1v-7H8V8.5C8 7.673 8.673 7 9.5 7h5c.827 0 1.5.673 1.5 1.5V14h-2v7h1v-6Zm2 1.354v1.001c3.798.575 6 1.738 6 2.645 0 1.253-4.185 3-11 3S1 21.253 1 20c0-.907 2.202-2.07 6-2.645v-1.001C3.115 16.92 0 18.157 0 20c0 2.598 6.183 4 12 4s12-1.402 12-4c0-1.843-3.115-3.081-7-3.646Z"/></svg>