<svg xmlns="http://www.w3.org/2000/svg" width="512" height="512" data-name="Layer 1" viewBox="0 0 24 24"><path d="M12 5c-1.103 0-2 .897-2 2s.897 2 2 2 2-.897 2-2-.897-2-2-2Zm0 3a1.001 1.001 0 0 1 0-2 1.001 1.001 0 0 1 0 2Zm11.045.034L21 6.427V2h-1v3.641L13.545.567a2.49 2.49 0 0 0-3.09 0l-9.5 7.467A2.486 2.486 0 0 0 0 10v14h9V12h6v12h9V10c0-.772-.348-1.488-.955-1.966ZM1 16h7v3H1v-3Zm0 7v-3h7v3H1Zm7-8H1v-3h7v3Zm15 8h-7v-3h7v3Zm0-4h-7v-3h7v3Zm0-4h-7v-3h7v3Zm0-4H1v-1c0-.463.209-.893.573-1.179l9.5-7.468a1.498 1.498 0 0 1 1.854 0l9.5 7.468c.364.286.573.716.573 1.179v1Z"/></svg>