<svg xmlns="http://www.w3.org/2000/svg" width="512" height="512" data-name="Layer 1" viewBox="0 0 24 24"><path d="M16.151 20.4c.288-1.178 1.476-6.537.427-10.995a36.03 36.03 0 0 0-1.084-3.71c.136.101.275.2.419.296C18.877 7.97 22.288 8 22.482 8h.665l-.181-.637c-.042-.146-1.059-3.613-4.072-5.625C16.368.052 12.981-.023 11.999 0c-1.018.019-4.354.224-6.854 1.892-3.008 2.008-4.063 5.32-4.107 5.46l-.201.647h.681c.171.001 2.837-.022 5.496-1.38-.15 2.22.754 4.106.798 4.198l.212.436.442-.199c.128-.057 2.94-1.346 4.21-3.905.184 1.106.323 2.194.323 3.074 0 3.947-1.87 8.346-2.561 9.836-5.59.414-9.987 2.892-10.187 3.007l.496.868C.796 23.906 6.037 21 11.999 21c6.039 0 11.201 2.905 11.252 2.934l.496-.868c-.168-.096-3.292-1.857-7.597-2.666ZM7.532 5.159C5.598 6.451 3.397 6.836 2.27 6.951c.457-1.023 1.513-2.947 3.431-4.228 1.926-1.286 4.255-1.616 5.483-1.699-.546 1.005-1.736 2.855-3.652 4.134Zm4.463 1.052C11.277 8.15 9.393 9.404 8.517 9.9c-.277-.76-.719-2.32-.414-3.92 1.945-1.304 3.185-3.105 3.828-4.234.328 1.082.663 2.847.065 4.464ZM12.798.99c1.196.031 3.581.272 5.539 1.58 1.941 1.296 2.981 3.33 3.416 4.384-1.121-.112-3.338-.494-5.285-1.794-1.932-1.29-3.13-3.17-3.67-4.169Zm2.363 19.245a21.915 21.915 0 0 0-3.595-.23C12.4 18.134 14 14.047 14 10.223c0-1.471-.337-3.344-.682-5.138.062-.526.023-1.035-.016-1.523.163.204.339.411.526.617.493 1.138 1.201 3.008 1.777 5.456 1.01 4.291-.217 9.679-.443 10.6Z"/></svg>