<svg xmlns="http://www.w3.org/2000/svg" width="512" height="512" data-name="Layer 1" viewBox="0 0 24 24"><path d="M21.5 0h-19A2.503 2.503 0 0 0 0 2.5V24h24V2.5C24 1.121 22.878 0 21.5 0ZM13 18.207 18.207 13h3.586L13 21.793v-3.586Zm0-1.414V13h3.793L13 16.793Zm10-3.586v3.086L16.293 23h-3.086L23 13.207ZM11 5.793 5.793 11H2.207L11 2.207v3.586Zm0 1.414V11H7.207L11 7.207Zm-10 .5L7.707 1h3.086L1 10.793V7.707ZM2.5 1h3.793L1 6.293V2.5C1 1.673 1.673 1 2.5 1ZM1 12h11V1h9.5c.827 0 1.5.673 1.5 1.5V12H12v11H1V12Zm16.707 11L23 17.707V23h-5.293Z"/></svg>