<svg xmlns="http://www.w3.org/2000/svg" data-name="Layer 1" viewBox="0 0 24 24"><path d="M20.295 19.587a9.966 9.966 0 0 0-1.228-12.663L12 .014 6.298 5.591.753.047.046.754l23.2 23.199.707-.707-3.659-3.659ZM12 1.412l6.364 6.224a8.966 8.966 0 0 1 1.209 11.23L7.005 6.298 12 1.412Zm5.546 19.668.714.714A9.922 9.922 0 0 1 12 23.999a9.934 9.934 0 0 1-7.071-2.929c-3.64-3.64-3.879-9.408-.724-13.331l.714.714c-2.767 3.525-2.533 8.66.717 11.91A8.945 8.945 0 0 0 12 22.999a8.932 8.932 0 0 0 5.546-1.919Z"/></svg>