<svg xmlns="http://www.w3.org/2000/svg" width="512" height="512" data-name="Layer 1" viewBox="0 0 24 24"><path d="M17 7c-1.654 0-3 1.57-3 3.5s1.346 3.5 3 3.5 3-1.57 3-3.5S18.654 7 17 7Zm0 6c-1.103 0-2-1.122-2-2.5 0-1.354.866-2.459 1.941-2.498a1 1 0 1 0 .118 0C18.134 8.041 19 9.146 19 10.5c0 1.378-.897 2.5-2 2.5Zm-7-2.5C10 8.57 8.654 7 7 7s-3 1.57-3 3.5S5.346 14 7 14s3-1.57 3-3.5ZM7 13c-1.103 0-2-1.122-2-2.5 0-1.354.866-2.459 1.941-2.498a1 1 0 1 0 .118 0C8.134 8.041 9 9.146 9 10.5c0 1.378-.897 2.5-2 2.5Zm1 4h8v1H8v-1Zm4-17C5.383 0 0 5.383 0 12s5.383 12 12 12 12-5.383 12-12S18.617 0 12 0Zm0 23C5.935 23 1 18.065 1 12S5.935 1 12 1s11 4.935 11 11-4.935 11-11 11Z"/></svg>