<svg xmlns="http://www.w3.org/2000/svg" width="512" height="512" data-name="Layer 1" viewBox="0 0 24 24"><path d="M21.5 0h-19A2.503 2.503 0 0 0 0 2.5V24h24V2.5C24 1.122 22.879 0 21.5 0ZM23 23H1V2.5C1 1.673 1.673 1 2.5 1h19c.827 0 1.5.673 1.5 1.5V23Zm-4-10v-2c0-3.86-3.141-7-7-7s-7 3.14-7 7v2c0 3.859 3.141 7 7 7 1.75 0 3.353-.646 4.581-1.712l2.065 2.065.707-.707-2.065-2.065A6.97 6.97 0 0 0 19 13Zm-7 6c-3.309 0-6-2.691-6-6v-2c0-3.309 2.691-6 6-6s6 2.691 6 6v2a5.969 5.969 0 0 1-1.421 3.872l-3.226-3.226-.707.707 3.226 3.226A5.973 5.973 0 0 1 12 19Z"/></svg>