<svg xmlns="http://www.w3.org/2000/svg" width="512" height="512" data-name="Layer 1" viewBox="0 0 24 24"><path d="M23.5 9.5h.5v-4C24 4.121 22.879 3 21.5 3h-19A2.502 2.502 0 0 0 0 5.5v13C0 19.879 1.121 21 2.5 21h19c1.379 0 2.5-1.121 2.5-2.5v-4h-.5c-1.379 0-2.5-1.121-2.5-2.5s1.121-2.5 2.5-2.5ZM20 12a3.507 3.507 0 0 0 3 3.465V18.5c0 .827-.673 1.5-1.5 1.5h-19c-.827 0-1.5-.673-1.5-1.5v-13C1 4.673 1.673 4 2.5 4h19c.827 0 1.5.673 1.5 1.5v3.035A3.507 3.507 0 0 0 20 12Zm-4.75-1.5h-1.01l-1.729-2.16a1.61 1.61 0 0 0-1.415-.84h-1.83l1.184 3h-.352l-.911-.624c-.562-.567-1.611-.431-2.013.262-.231.398-.233.876.048 1.352l1.695 2.011h1.519l-1.167 3h1.845c.59 0 1.132-.321 1.368-.77l1.761-2.23h2.758v-1.5c0-.883-.72-1.5-1.75-1.5Zm.75 2h-2.242l-2.107 2.681a.61.61 0 0 1-.537.319h-.382l1.167-3H9.381l-1.343-1.581a.279.279 0 0 1 0-.279c.037-.063.15-.326.508 0l1.239.861h2.132l-1.184-3h.361c.225 0 .43.122.585.391l2.078 2.609h1.491c.362 0 .75.132.75.5v.5ZM4 5h1v2H4V5Zm0 4h1v2H4V9Zm0 4h1v2H4v-2Zm0 4h1v2H4v-2Z"/></svg>