<svg xmlns="http://www.w3.org/2000/svg" data-name="Layer 1" viewBox="0 0 24 24"><path d="M20 16h-3V8h3c2.206 0 4-1.794 4-4s-1.794-4-4-4-4 1.794-4 4v3H8V4c0-2.206-1.794-4-4-4S0 1.794 0 4s1.794 4 4 4h3v8H4c-2.206 0-4 1.794-4 4s1.794 4 4 4 4-1.794 4-4v-3h8v3c0 2.206 1.794 4 4 4s4-1.794 4-4-1.794-4-4-4ZM17 4c0-1.654 1.346-3 3-3s3 1.346 3 3-1.346 3-3 3h-3V4ZM7 20c0 1.654-1.346 3-3 3s-3-1.346-3-3 1.346-3 3-3h3v3ZM7 7H4C2.346 7 1 5.654 1 4s1.346-3 3-3 3 1.346 3 3v3Zm9 9H8V8h8v8Zm4 7c-1.654 0-3-1.346-3-3v-3h3c1.654 0 3 1.346 3 3s-1.346 3-3 3Z"/></svg>