<svg xmlns="http://www.w3.org/2000/svg" width="512" height="512" data-name="Layer 1" viewBox="0 0 24 24"><path d="M23.5 7.981h.5V4.5C24 3.121 22.878 2 21.5 2h-16A2.503 2.503 0 0 0 3 4.5v12C3 17.879 4.122 19 5.5 19h16c1.378 0 2.5-1.121 2.5-2.5v-3.519h-.5c-1.378 0-2.5-1.121-2.5-2.5s1.122-2.5 2.5-2.5Zm-3.5 2.5a3.507 3.507 0 0 0 3 3.465V16.5c0 .827-.673 1.5-1.5 1.5h-16c-.827 0-1.5-.673-1.5-1.5v-12C4 3.673 4.673 3 5.5 3h16c.827 0 1.5.673 1.5 1.5v2.517a3.507 3.507 0 0 0-3 3.465ZM15.25 9h-1.01l-1.729-2.16A1.61 1.61 0 0 0 11.096 6H9.221l1.376 3h-.66l-.751-.625c-.568-.569-1.608-.434-2.012.263-.231.398-.233.876.048 1.352l1.695 2.011h1.667l-1.359 3h1.889c.591 0 1.132-.322 1.368-.77l1.761-2.23h2.758v-1.5c0-.883-.72-1.5-1.75-1.5Zm.75 2h-2.242l-2.109 2.682a.609.609 0 0 1-.536.318h-.338l1.359-3H9.381L8.038 9.419a.278.278 0 0 1 0-.279c.036-.063.219-.273.473-.027l1.063.888h2.58l-1.376-3h.317c.224 0 .429.122.584.391l2.079 2.609h1.491c.363 0 .75.132.75.5v.5ZM5.5 21H19v1H5.5A5.506 5.506 0 0 1 0 16.5V6h1v10.5C1 18.981 3.019 21 5.5 21Z"/></svg>