<svg xmlns="http://www.w3.org/2000/svg" width="512" height="512" data-name="Layer 1" viewBox="0 0 24 24"><path d="M21.5 0h-19A2.503 2.503 0 0 0 0 2.5V24h24V2.5C24 1.122 22.878 0 21.5 0ZM23 23H1V2.5C1 1.673 1.673 1 2.5 1h19c.827 0 1.5.673 1.5 1.5V23ZM18 4h1v14.633c0 .611-.394 1.138-.98 1.31a1.351 1.351 0 0 1-1.534-.571L6.683 5.183a.363.363 0 0 0-.42-.167.353.353 0 0 0-.263.351V20H5V5.367c0-.611.394-1.138.981-1.31a1.354 1.354 0 0 1 1.533.571l9.803 14.188a.36.36 0 0 0 .42.167.353.353 0 0 0 .262-.351V4Z"/></svg>