<svg xmlns="http://www.w3.org/2000/svg" width="512" height="512" data-name="Layer 1" viewBox="0 0 24 24"><path d="M5.5 5a2.5 2.5 0 0 0 0-5 2.5 2.5 0 0 0 0 5Zm0-4C6.33 1 7 1.67 7 2.5S6.33 4 5.5 4 4 3.33 4 2.5 4.67 1 5.5 1Zm3.29 7.05A2.498 2.498 0 0 0 6.33 6h-1.7a2.5 2.5 0 0 0-2.46 2.06L.04 20H3v4h1v-4h3v4h1v-4h2.95L8.79 8.05Zm-5.63.18c.13-.72.75-1.24 1.48-1.24h1.7c.73 0 1.35.52 1.48 1.23l1.95 10.77H1.23L3.15 8.23Zm15.35-3.24a2.5 2.5 0 0 0 0-5 2.5 2.5 0 0 0 0 5Zm0-4c.83 0 1.5.67 1.5 1.5s-.67 1.5-1.5 1.5-1.5-.67-1.5-1.5.67-1.5 1.5-1.5Zm5.47 19L21.8 8.04a2.498 2.498 0 0 0-2.46-2.05h-1.66a2.5 2.5 0 0 0-2.46 2.06l-2.14 11.94h2.93v4h1v-4h3v4h1v-4h2.97ZM16.21 8.23c.13-.72.75-1.24 1.48-1.24h1.66c.73 0 1.35.52 1.48 1.23l1.96 10.77h-8.52L16.2 8.23Z"/></svg>