<svg xmlns="http://www.w3.org/2000/svg" data-name="Layer 1" viewBox="0 0 24 24"><path d="M23 22.293V7.5C23 6.121 21.879 5 20.5 5h-2.782l-2.726-4H9.008L6.282 5h-.575L.703-.004l-.707.707 23.301 23.301.707-.707L23 22.293Zm-7.166-7.166-4.961-4.961A3.919 3.919 0 0 1 12 10a4 4 0 0 1 4 4c0 .392-.059.77-.166 1.127ZM9.537 2h4.926l2.045 3H7.492l2.045-3ZM20.5 6c.827 0 1.5.673 1.5 1.5v13.793l-5.454-5.454.09.036a5.006 5.006 0 0 0-6.511-6.511l.036.09L6.707 6H20.5ZM8.287 12.53C8.106 12.986 8 13.48 8 14a4 4 0 0 0 4 4c.52 0 1.014-.107 1.47-.287l.764.764a5.006 5.006 0 0 1-6.712-6.712l.764.764ZM18.464 22l1 1H1V7.5c0-.808.391-1.52.988-1.977l.713.713c-.42.266-.7.732-.7 1.264V22h16.465Z"/></svg>