<svg xmlns="http://www.w3.org/2000/svg" width="512" height="512" data-name="Layer 1" viewBox="0 0 24 24"><path d="M15 3.5C15 2.122 13.879 1 12.5 1h-10A2.503 2.503 0 0 0 0 3.5V16h15V3.5ZM14 15H1V3.5C1 2.673 1.673 2 2.5 2h10c.827 0 1.5.673 1.5 1.5V15ZM4 4h1v9H4V4Zm6 0h1v9h-1V4ZM7 4h1v9H7V4Zm17 9.149c0-.484-.077-.963-.23-1.423l-1.339-4.017A2.5 2.5 0 0 0 20.059 6H17v12H0v2a3 3 0 0 0 5.5 1.656A3 3 0 0 0 11 20v-1h6v1c0 1.654 1.346 3 3 3s3-1.346 3-3v-1h1v-5.851ZM20.059 7c.646 0 1.219.412 1.423 1.026L22.807 12h-4.806V7h2.059ZM3 22c-1.103 0-2-.897-2-2v-1h4v1c0 1.103-.897 2-2 2Zm7-2c0 1.103-.897 2-2 2s-2-.897-2-2v-1h4v1Zm12 0c0 1.103-.897 2-2 2s-2-.897-2-2v-1h4v1Zm1-2h-5v-5h4.997c.002.05.003.099.003.149V18Z"/></svg>