<svg xmlns="http://www.w3.org/2000/svg" width="512" height="512" data-name="Layer 1" viewBox="0 0 24 24"><path d="m23.61 15.788.37.929A4.004 4.004 0 0 1 19 14.935C18.317 16.166 17.004 17 15.5 17s-2.817-.835-3.5-2.065C11.317 16.166 10.004 17 8.5 17s-2.817-.835-3.5-2.065a4.002 4.002 0 0 1-4.971 1.786l.368-.93A3.004 3.004 0 0 0 4.5 13h1c0 1.654 1.346 3 3 3s3-1.346 3-3h1c0 1.654 1.346 3 3 3s3-1.346 3-3h1a3.004 3.004 0 0 0 4.11 2.788ZM22.5 22c-1.654 0-3-1.346-3-3h-1c0 1.654-1.346 3-3 3s-3-1.346-3-3h-1c0 1.654-1.346 3-3 3s-3-1.346-3-3h-1a3.004 3.004 0 0 1-4.107 2.789l-.369.93a4.004 4.004 0 0 0 4.977-1.784C5.684 22.166 6.997 23 8.501 23s2.817-.835 3.5-2.065c.683 1.231 1.996 2.065 3.5 2.065s2.817-.835 3.5-2.065a4.002 4.002 0 0 0 4.977 1.784l-.369-.93c-.353.14-.725.211-1.107.211ZM5 2.935C5.683 4.166 6.996 5 8.5 5s2.817-.835 3.5-2.065C12.683 4.166 13.996 5 15.5 5s2.817-.835 3.5-2.065a4.002 4.002 0 0 0 4.98 1.782l-.37-.929A3.004 3.004 0 0 1 19.5 1h-1c0 1.654-1.346 3-3 3s-3-1.346-3-3h-1c0 1.654-1.346 3-3 3s-3-1.346-3-3h-1A3.004 3.004 0 0 1 .397 3.791l-.368.93A4.004 4.004 0 0 0 5 2.935Zm0 6C5.683 10.166 6.996 11 8.5 11s2.817-.835 3.5-2.065C12.683 10.166 13.996 11 15.5 11s2.817-.835 3.5-2.065a4.002 4.002 0 0 0 4.977 1.784l-.369-.93A3.004 3.004 0 0 1 19.501 7h-1c0 1.654-1.346 3-3 3s-3-1.346-3-3h-1c0 1.654-1.346 3-3 3s-3-1.346-3-3h-1A3.004 3.004 0 0 1 .394 9.789l-.371.93A4.004 4.004 0 0 0 5 8.935Z"/></svg>