<svg xmlns="http://www.w3.org/2000/svg" width="512" height="512" data-name="Layer 1" viewBox="0 0 24 24"><path d="M4 4.036V0H3v4.036C1.306 4.279 0 5.74 0 7.5s1.306 3.221 3 3.464V24h1V10.964C5.694 10.721 7 9.26 7 7.5S5.694 4.279 4 4.036ZM3.5 10C2.121 10 1 8.879 1 7.5S2.121 5 3.5 5 6 6.121 6 7.5 4.879 10 3.5 10Zm9 3.036V0h-1v13.036c-1.694.243-3 1.704-3 3.464s1.306 3.221 3 3.464V24h1v-4.036c1.694-.243 3-1.704 3-3.464s-1.306-3.221-3-3.464ZM12 19c-1.379 0-2.5-1.121-2.5-2.5S10.621 14 12 14s2.5 1.121 2.5 2.5S13.379 19 12 19ZM24 7.5a3.505 3.505 0 0 0-3-3.464V0h-1v4.036c-1.694.243-3 1.704-3 3.464s1.306 3.221 3 3.464V24h1V10.964A3.505 3.505 0 0 0 24 7.5ZM20.5 10C19.121 10 18 8.879 18 7.5S19.121 5 20.5 5 23 6.121 23 7.5 21.879 10 20.5 10Z"/></svg>