<svg xmlns="http://www.w3.org/2000/svg" width="512" height="512" data-name="Layer 1" viewBox="0 0 24 24"><path d="M22.119 1.595a2.528 2.528 0 0 0-2.035-.562C18.896 1.226 18 2.332 18 3.606V8.5a2.497 2.497 0 0 0-3.5.501A2.497 2.497 0 0 0 11 8.5V2.607C11 1.333 10.104.228 8.916.034a2.518 2.518 0 0 0-2.035.562A2.496 2.496 0 0 0 6 2.501v12.6l-1.796-1.428a2.503 2.503 0 0 0-3.53.119 2.505 2.505 0 0 0 .112 3.53L7.712 24H23V3.5c0-.734-.321-1.429-.881-1.905ZM15 10.5c0-.827.673-1.5 1.5-1.5s1.5.673 1.5 1.5v2c0 .827-.673 1.5-1.5 1.5s-1.5-.673-1.5-1.5v-2Zm-4 0c0-.827.673-1.5 1.5-1.5s1.5.673 1.5 1.5v2c0 .827-.673 1.5-1.5 1.5s-1.5-.673-1.5-1.5v-2ZM22 23H8.116l-6.641-6.402a1.505 1.505 0 0 1-.07-2.123c.563-.603 1.514-.635 2.146-.045L7 17.176V2.5a1.498 1.498 0 0 1 1.756-1.479c.709.115 1.245.797 1.245 1.586V12.5c0 1.378 1.122 2.5 2.5 2.5.817 0 1.544-.394 2-1.002a2.497 2.497 0 0 0 2 1.002c1.378 0 2.5-1.122 2.5-2.5V3.607c0-.789.535-1.471 1.244-1.586A1.5 1.5 0 0 1 22.001 3.5V23Z"/></svg>