<svg xmlns="http://www.w3.org/2000/svg" width="512" height="512" data-name="Layer 1" viewBox="0 0 24 24"><path d="M24 12.5c0-1.378-1.122-2.5-2.5-2.5h-.739L15.93 3.07A2.502 2.502 0 0 0 13.879 2H5.881a2.513 2.513 0 0 0-2.338 1.614l-2.639 6.96h.002A2.5 2.5 0 0 0-.001 12.5V18H2v1c0 1.654 1.346 3 3 3s3-1.346 3-3v-1h8v1c0 1.654 1.346 3 3 3s3-1.346 3-3v-1h2v-5.5ZM7 19c0 1.103-.897 2-2 2s-2-.897-2-2v-1h4v1Zm14 0c0 1.103-.897 2-2 2s-2-.897-2-2v-1h4v1Zm2-2H1v-4.5c0-.827.673-1.5 1.5-1.5H6v-1H2.5a2.54 2.54 0 0 0-.316.021l2.295-6.053A1.507 1.507 0 0 1 5.881 3h7.999c.49 0 .95.24 1.23.643L19.542 10H16v1h5.5c.827 0 1.5.673 1.5 1.5V17Zm-9.156-6.333c.225.419.204.923-.055 1.313l-1.901 4.053-.905-.426 1.937-4.117c.119-.188.062-.315.042-.351-.022-.042-.089-.14-.218-.14H9.269c-.414 0-.788-.186-1.028-.509a1.226 1.226 0 0 1-.186-1.096l2.097-4.369.901.434-2.069 4.297a.315.315 0 0 0 .06.138.272.272 0 0 0 .225.105h3.475c.458 0 .879.255 1.1.667Z"/></svg>