<svg xmlns="http://www.w3.org/2000/svg" width="512" height="512" data-name="Layer 1" viewBox="0 0 24 24"><path d="M12.5 11.063V5h-1v6.063A2.004 2.004 0 0 0 10 13c0 1.103.897 2 2 2s2-.897 2-2c0-.93-.638-1.714-1.5-1.937ZM12 14a1.001 1.001 0 0 1 0-2 1.001 1.001 0 0 1 0 2Zm12-1a12.02 12.02 0 0 1-5.113 9.818l-.319.225-2.713-2.347.654-.756 2.117 1.831A11.018 11.018 0 0 0 23 13c0-6.065-4.935-11-11-11S1 6.935 1 13c0 3.442 1.628 6.693 4.374 8.771l2.117-1.831.654.756-2.713 2.347-.319-.225A12.02 12.02 0 0 1 0 13C0 6.383 5.383 1 12 1s12 5.383 12 12Z"/></svg>