<svg xmlns="http://www.w3.org/2000/svg" data-name="Layer 1" viewBox="0 0 24 24"><path d="M19.528 14.265A4.323 4.323 0 0 0 20.166 12c0-2.461-2.056-4.468-4.471-4.367a4.322 4.322 0 0 0 .638-2.264C16.333 2.96 14.389 1 12 1S7.667 2.96 7.667 5.369c0 .821.23 1.599.652 2.279-.051-.002-.101-.017-.152-.017-2.389 0-4.333 1.96-4.333 4.369 0 .821.229 1.6.652 2.279-.051-.002-.101-.017-.152-.017-2.39 0-4.333 1.96-4.333 4.369s1.944 4.368 4.333 4.368c1.673 0 3.111-.972 3.833-2.375.722 1.403 2.16 2.375 3.833 2.375s3.112-.972 3.833-2.375c.722 1.403 2.16 2.375 3.833 2.375 2.39 0 4.333-1.96 4.333-4.368 0-2.461-2.055-4.468-4.472-4.367ZM12 2a3.365 3.365 0 1 1 0 6.73A3.365 3.365 0 0 1 12 2ZM4.333 21.992a3.365 3.365 0 1 1 0-6.73 3.365 3.365 0 0 1 0 6.73Zm.468-9.996a3.365 3.365 0 1 1 6.73 0 3.365 3.365 0 0 1-6.73 0Zm7.198 9.996a3.365 3.365 0 1 1 0-6.73 3.365 3.365 0 0 1 0 6.73Zm.469-9.996a3.365 3.365 0 1 1 6.73 0 3.365 3.365 0 0 1-6.73 0Zm7.198 9.996a3.365 3.365 0 1 1 0-6.73 3.365 3.365 0 0 1 0 6.73Z"/></svg>