<svg xmlns="http://www.w3.org/2000/svg" width="512" height="512" data-name="Layer 1" viewBox="0 0 24 24"><path d="M12.011 6.121 8.739 4.158l.515-.857 2.757 1.654 2.757-1.654.515.857-3.272 1.963Zm-6 .167-2-1.5V2.169L10.166.27A7.523 7.523 0 0 1 13.83.262l.026.008 6.155 1.899v2.619l-2 1.5v2.75c0 3.309-2.691 6-6 6s-6-2.691-6-6v-2.75Zm11 2.75v-.721c-.848.315-2.437.721-5 .721s-4.152-.406-5-.721v.721c0 2.757 2.243 5 5 5s5-2.243 5-5Zm-10-3.25v1.448c.534.246 2.067.802 5 .802s4.462-.555 5-.802V5.788l2-1.5V2.907l-5.437-1.679a6.54 6.54 0 0 0-3.14.004L5.011 2.907v1.381l2 1.5Zm8.987 10.25H8.011c-2.757 0-5 2.243-5 5v3h1v-3c0-2.206 1.794-4 4-4h3.5v7h1v-7h3.487c2.206 0 4 1.794 4 4v3h1v-3c0-2.757-2.243-5-5-5Z"/></svg>