<svg xmlns="http://www.w3.org/2000/svg" width="512" height="512" data-name="Layer 1" viewBox="0 0 24 24"><path d="M.59 13.912a12.39 12.39 0 0 0 1.862 5.346l1.656 2.6 1.811-1.154 1.297 2.048 3.562-2.269-1.297-2.049 8.22-5.235 1.297 2.048 3.562-2.269-1.297-2.049 1.813-1.155-1.655-2.6a12.38 12.38 0 0 0-4.058-3.949L12.576.356a2.484 2.484 0 0 0-2.628.035L1.157 5.99A2.487 2.487 0 0 0 .014 8.357l.576 5.555Zm8.811 6.264L7.526 21.37l-.762-1.204 1.875-1.194.762 1.203Zm11.783-7.504-1.875 1.194-.762-1.204 1.875-1.194.762 1.204Zm-.604-4.959 1.118 1.756L4.415 20.477l-1.119-1.756a11.403 11.403 0 0 1-1.375-3.114l2.349-1.496.995 1.563a.5.5 0 0 0 .691.153.5.5 0 0 0 .153-.69l-.995-1.563 9.977-6.355.987 1.549a.5.5 0 0 0 .691.153.499.499 0 0 0 .153-.69l-.987-1.55 2.404-1.531a11.397 11.397 0 0 1 2.241 2.563Zm-18.886-.88 8.791-5.598a1.491 1.491 0 0 1 1.577-.021l4.79 2.872c.219.131.434.271.643.417L1.69 14.569a11.473 11.473 0 0 1-.106-.76l-.576-5.555a1.492 1.492 0 0 1 .687-1.42ZM24 23v1H0v-1h24Z"/></svg>