<svg xmlns="http://www.w3.org/2000/svg" width="512" height="512" data-name="Layer 1" viewBox="0 0 24 24"><path d="M15.5 3h-8C6.673 3 6 2.327 6 1.5V0H5v1.5C5 2.879 6.121 4 7.5 4H9v10c0 2.398-3.061 3.778-3.596 4.001H4.5a2.502 2.502 0 0 0-2.5 2.5V24h1v-3.499c0-.827.673-1.5 1.5-1.5h.862c2.468 1.47 5.051 2.97 10.14 2.999h.037a6.392 6.392 0 0 0 4.533-1.884A6.469 6.469 0 0 0 22 15.501V9.5C22 5.916 19.084 3 15.5 3Zm0 1C18.532 4 21 6.468 21 9.5v2.098c-.602-.293-1.527-.598-2.772-.598-1.176 0-1.941.269-2.682.528-.691.242-1.345.472-2.351.472A6.987 6.987 0 0 1 10 11.211V4h5.5Zm3.867 15.407A5.402 5.402 0 0 1 15.538 21h-.03c-4.353-.024-6.695-1.142-8.936-2.446C7.841 17.882 10 16.387 10 14v-1.677a7.98 7.98 0 0 0 3.195.677c1.176 0 1.941-.269 2.682-.528.691-.242 1.345-.472 2.351-.472 1.507 0 2.423.505 2.772.745v2.756c0 1.472-.58 2.859-1.633 3.906Z"/></svg>