<svg xmlns="http://www.w3.org/2000/svg" width="512" height="512" data-name="Layer 1" viewBox="0 0 24 24"><path d="M22.985 11.501c0-1.378-1.122-2.5-2.5-2.5h-2.5v-3H15.76l.612-.612a1.502 1.502 0 0 0 0-2.122L13.543.439c-.567-.567-1.556-.566-2.121 0L9.983 1.878V1.5c0-.827-.673-1.5-1.5-1.5h-4c-.827 0-1.5.673-1.5 1.5v4c0 .177.036.344.092.501H.985v15.5c0 1.378 1.122 2.5 2.5 2.5h12c1.378 0 2.5-1.122 2.5-2.5v-2.5h5v-7.5ZM12.13 1.146a.513.513 0 0 1 .707 0l2.829 2.829a.502.502 0 0 1 0 .708l-1.319 1.319H10.62L9.301 4.683a.502.502 0 0 1 0-.708l2.83-2.829ZM3.982 5.5v-4a.5.5 0 0 1 .5-.5h4a.5.5 0 0 1 .5.5v1.378l-.39.39a1.504 1.504 0 0 0 0 2.122l.612.612H4.481a.501.501 0 0 1-.5-.501Zm13.002 16.001c0 .827-.673 1.5-1.5 1.5H3.485c-.827 0-1.5-.673-1.5-1.5v-14.5h15v14.5Zm5-3.5h-4v-8h2.5c.827 0 1.5.673 1.5 1.5v6.5Z"/></svg>