<svg xmlns="http://www.w3.org/2000/svg" width="512" height="512" data-name="Layer 1" viewBox="0 0 24 24"><path d="M21.5 10H7V6h6V2.5C13 1.122 11.879 0 10.5 0h-8A2.503 2.503 0 0 0 0 2.5V6h6v4H2.5A2.503 2.503 0 0 0 0 12.5V24h24V12.5c0-1.378-1.121-2.5-2.5-2.5ZM1 2.5C1 1.673 1.673 1 2.5 1h8c.827 0 1.5.673 1.5 1.5V5H1V2.5ZM2.5 11h19c.827 0 1.5.673 1.5 1.5V19H1v-6.5c0-.827.673-1.5 1.5-1.5ZM1 23v-3h22v3H1Zm8-8a1 1 0 1 1 2 0 1 1 0 0 1-2 0Zm-4 0a1 1 0 1 1 2 0 1 1 0 0 1-2 0Zm8 0a1 1 0 1 1 2 0 1 1 0 0 1-2 0Zm4 0a1 1 0 1 1 2 0 1 1 0 0 1-2 0Z"/></svg>