<svg xmlns="http://www.w3.org/2000/svg" width="512" height="512" data-name="Layer 1" viewBox="0 0 24 24"><path d="m3.976 23.969-.741-.561L6.08 15.82 0 11.97V11h7.739l2.227-8h1.068l2.227 8H21v.97l-6.079 3.851 2.852 7.604-.787.544-6.486-4.928-6.523 4.929Zm6.525-6.183 5.718 4.344-2.521-6.72L19.083 12h-6.582L10.5 4.811 8.499 12H1.917l5.384 3.41-2.507 6.687 5.707-4.311Zm11.533-9.073L19.501 7.07l-2.533 1.643-.637-.485.809-2.702-2.137-1.722v-.739l.5-.064h2.544l1.052-3h.709l.214.334.935 2.666h3.044v.803l-2.137 1.722.808 2.702-.637.485Zm-2.533-2.835 1.767 1.146-.555-1.856L22.162 4h-1.915l-.745-2.126L18.756 4h-1.915l1.449 1.168-.555 1.855 1.766-1.146Z"/></svg>