<svg xmlns="http://www.w3.org/2000/svg" width="512" height="512" data-name="Layer 1" viewBox="0 0 24 24"><path d="M14.707 0H4.5A2.503 2.503 0 0 0 2 2.5V24h20V7.293L14.707 0ZM15 1.707 20.293 7H15V1.707ZM3 23V2.5C3 1.673 3.673 1 4.5 1H14v7h7v15H3Zm11.878-9h-1.203L12 16.508l-2.487-3.723A2.504 2.504 0 0 0 11 10.5C11 9.122 9.878 8 8.5 8h-2C5.673 8 5 8.673 5 9.5V17h1v-4h2.454l2.944 4.409L9 21h1.203L12 18.309 13.797 21H15l-2.398-3.591L14.878 14ZM6 9.5a.5.5 0 0 1 .5-.5h2c.827 0 1.5.673 1.5 1.5S9.327 12 8.5 12H6V9.5Z"/></svg>