<svg xmlns="http://www.w3.org/2000/svg" width="512" height="512" data-name="Layer 1" viewBox="0 0 24 24"><path d="M17.562 14.621 23.929 12l-6.367-2.621 4.392-7.332-7.332 4.392L12 .071 9.407 6.37 2.108 2.109l4.261 7.298L.071 12l6.367 2.621-4.392 7.332 7.332-4.392 2.621 6.367 2.621-6.367 7.332 4.392-4.392-7.332Zm1.485-9.668-2.42 4.041-1.148-.473-.473-1.148 4.041-2.42ZM4.892 4.891l4.131 2.412-.501 1.218-1.218.502-2.411-4.132Zm.062 14.156 2.42-4.041 1.148.473.473 1.148-4.041 2.42Zm4.334-4.333-6.589-2.713 6.589-2.713L12.001 2.7l2.713 6.588 6.589 2.713-6.589 2.713-2.713 6.588-2.713-6.588Zm6.191.766 1.148-.473 2.42 4.041-4.041-2.42.473-1.148Z"/></svg>