<svg xmlns="http://www.w3.org/2000/svg" width="512" height="512" data-name="Layer 1" viewBox="0 0 24 24"><path d="M21.54 13.07A2.518 2.518 0 0 0 19.48 12h-6.99V3.01c3.24.17 6.12 2.05 7.57 4.99l.9-.45c-1.63-3.28-4.84-5.37-8.47-5.54V0h-1v2.01C6.22 2.28 2.01 6.66 2.01 12s4.21 9.73 9.49 9.99V24h1v-2.01c4.15-.21 8.03-2.95 9.36-6.67.27-.76.16-1.58-.31-2.24ZM3.01 12c0-4.79 3.76-8.72 8.49-8.99v17.98C6.78 20.73 3.01 16.8 3.01 12Zm17.9 2.98c-1.19 3.34-4.68 5.8-8.42 6.01V13h6.99c.49 0 .96.24 1.24.65.28.4.35.88.19 1.33Z"/></svg>