<svg xmlns="http://www.w3.org/2000/svg" width="512" height="512" data-name="Layer 1" viewBox="0 0 24 24"><path d="M9 16v-2.5c0-1.378 1.121-2.5 2.5-2.5h5c1.379 0 2.5 1.122 2.5 2.5V16h-1v-2.5c0-.827-.673-1.5-1.5-1.5h-5c-.827 0-1.5.673-1.5 1.5V16H9Zm2-9c0-1.654 1.346-3 3-3s3 1.346 3 3-1.346 3-3 3-3-1.346-3-3Zm1 0c0 1.103.897 2 2 2s2-.897 2-2-.897-2-2-2-2 .897-2 2Zm10-5.5V24H4.5A2.503 2.503 0 0 1 2 21.5v-19C2 1.122 3.121 0 4.5 0h16c.827 0 1.5.673 1.5 1.5ZM20.5 1H7v18h14V1.5a.5.5 0 0 0-.5-.5ZM3 2.5v17.001A2.485 2.485 0 0 1 4.5 19H6V1H4.5C3.673 1 3 1.673 3 2.5ZM21 23v-3H4.5c-.827 0-1.5.673-1.5 1.5S3.673 23 4.5 23H21Z"/></svg>