<svg xmlns="http://www.w3.org/2000/svg" width="512" height="512" data-name="Layer 1" viewBox="0 0 24 24"><path d="M12 0C5.383 0 0 5.383 0 12s5.383 12 12 12 12-5.383 12-12S18.617 0 12 0Zm0 23C5.935 23 1 18.065 1 12S5.935 1 12 1s11 4.935 11 11-4.935 11-11 11Zm0-18.993c-4.411 0-8 3.589-8 8s3.589 8 8 8 8-3.589 8-8-3.589-8-8-8Zm6.294 4.939s-3.503 1.409-3.562 1.437l-.002-.005a1.601 1.601 0 0 1-1.516-.164 1.602 1.602 0 0 1-.714-1.347V5.026a7.013 7.013 0 0 1 5.794 3.921Zm-5.191 3.372c-.08.286-.118.576-.115.863-.31-.12-.643-.183-.988-.183s-.679.063-.988.183a3.077 3.077 0 0 0-.534-1.765 2.624 2.624 0 0 0 1.519-1.011 2.612 2.612 0 0 0 1.52 1.016c-.183.27-.324.571-.415.896Zm-1.604-7.292V8.86c0 .549-.261 1.039-.715 1.347a1.604 1.604 0 0 1-1.516.164l-.004.011c-.057-.027-3.559-1.435-3.559-1.435a7.013 7.013 0 0 1 5.794-3.921Zm-6.5 6.982c0-.744.117-1.46.333-2.133l3.384 1.359c.599.24 1.042.733 1.216 1.354s.052 1.272-.334 1.788l-2.19 2.913a6.985 6.985 0 0 1-2.41-5.281Zm3.209 5.882 2.406-3.199c.661-.879 2.108-.879 2.77 0l2.406 3.199c-1.093.707-2.395 1.118-3.791 1.118s-2.698-.411-3.791-1.118Zm8.381-.601-2.19-2.912c-.387-.516-.508-1.168-.334-1.789s.617-1.114 1.217-1.354l3.384-1.359a6.987 6.987 0 0 1-2.077 7.414Z"/></svg>