<svg xmlns="http://www.w3.org/2000/svg" width="512" height="512" data-name="Layer 1" viewBox="0 0 24 24"><path d="M12 0C5.383 0 0 5.383 0 12s5.383 12 12 12 12-5.383 12-12S18.617 0 12 0Zm0 23C5.935 23 1 18.065 1 12S5.935 1 12 1s11 4.935 11 11-4.935 11-11 11Zm3.725-6.017-.023.051L12 10.118l-3.638 6.799c-.012.021-.035.055-.088.056L6.47 6.251H5.389l1.917 10.993c.077.372.501.74.99.739.379 0 .719-.2.93-.562L12 12.238l2.832 5.29c.162.274.502.456.868.456.559 0 .917-.365.999-.766L18.61 6.252h-1.079l-1.806 10.733Z"/></svg>