<svg xmlns="http://www.w3.org/2000/svg" width="512" height="512" data-name="Layer 1" viewBox="0 0 24 24"><path d="M21.5 0h-19A2.5 2.5 0 0 0 0 2.5V24h24V2.5A2.5 2.5 0 0 0 21.5 0ZM23 23H1V2.5C1 1.67 1.67 1 2.5 1h19c.83 0 1.5.67 1.5 1.5V23ZM7 10c1.65 0 3-1.35 3-3S8.65 4 7 4 4 5.35 4 7s1.35 3 3 3Zm0-5c1.1 0 2 .9 2 2s-.9 2-2 2-2-.9-2-2 .9-2 2-2Zm13-1h-6v6h6V4Zm-1 5h-4V5h4v4ZM3.29 16.5 7 20.21l3.71-3.71L7 12.79 3.29 16.5ZM7 18.79 4.71 16.5 7 14.21l2.29 2.29L7 18.79ZM12.97 20h8.05l-4.03-6.44L12.96 20Zm1.8-1 2.22-3.56L19.21 19h-4.45Z"/></svg>