<svg xmlns="http://www.w3.org/2000/svg" width="512" height="512" data-name="Layer 1" viewBox="0 0 24 24"><path d="m20.919 23.974-.967-.256c.12-.452.26-.88.399-1.305.333-1.015.648-1.974.648-3.219 0-2.799-1.03-4.857-1.928-6.338-.965-1.592-2.072-3.81-2.072-6.856 0-1.997.902-4.896 1.363-5.934l.914.405c-.458 1.033-1.277 3.764-1.277 5.528 0 2.799 1.03 4.857 1.928 6.338.965 1.592 2.072 3.811 2.072 6.857 0 1.404-.355 2.485-.698 3.531-.134.407-.269.816-.383 1.249Zm-6.617-1.249c.343-1.045.698-2.126.698-3.531 0-3.046-1.107-5.265-2.072-6.857C12.031 10.857 11 8.798 11 5.999c0-1.764.819-4.495 1.277-5.528l-.914-.405C10.902 1.104 10 4.003 10 6c0 3.047 1.107 5.265 2.072 6.856.897 1.481 1.928 3.54 1.928 6.338 0 1.245-.315 2.204-.648 3.219-.14.425-.279.853-.399 1.305l.967.256c.114-.433.249-.842.383-1.249Zm-7 0C7.645 21.68 8 20.599 8 19.194c0-3.046-1.107-5.265-2.072-6.857C5.031 10.857 4 8.798 4 5.999c0-1.764.819-4.495 1.277-5.528L4.363.066C3.902 1.104 3 4.003 3 6c0 3.047 1.107 5.265 2.072 6.856C5.969 14.337 7 16.396 7 19.194c0 1.245-.315 2.204-.648 3.219-.14.425-.279.853-.399 1.305l.967.256c.114-.433.249-.842.383-1.249Z"/></svg>