<svg xmlns="http://www.w3.org/2000/svg" width="512" height="512" data-name="Layer 1" viewBox="0 0 24 24"><path d="M13.33.369a2.584 2.584 0 0 0-2.665 0L1 6.141V17.86l9.664 5.771a2.587 2.587 0 0 0 2.665.001L23 17.86V6.141L13.33.369ZM6.315 9.69 2 16.017v-8.74l4.315 2.412Zm5.741-8.054L16.15 9H7.863l4.193-7.364ZM7.86 10h8.279l-4.141 7.263L7.861 10Zm-.877.481 4.033 7.08-8.336-.767 4.303-6.313Zm10.032.002 4.411 6.311-8.441.754 4.03-7.065Zm.664-.79 4.32-2.415v8.592l-4.32-6.178Zm3.82-3.282L17.19 8.82l-4.139-7.452L21.5 6.411Zm-10.38-5.149L6.815 8.823 2.5 6.411l8.619-5.149Zm-8.24 16.554 8.618.786.002 4.309a1.574 1.574 0 0 1-.322-.139l-8.298-4.956Zm9.937 4.958c-.1.06-.208.099-.316.135l-.002-4.321 8.607-.762-8.289 4.948Z"/></svg>