<svg xmlns="http://www.w3.org/2000/svg" data-name="Layer 1" viewBox="0 0 24 24"><path d="M23.368 1.836 22.163.632c-.725-.725-1.871-.838-2.768-.237l-7.664 6.437a6.483 6.483 0 0 0-.982-.082 6.508 6.508 0 0 0-6.5 6.5c0 .299.027.59.067.878L.112 18.333l5.657 5.657 4.278-4.279c.231.025.465.04.703.04 3.584 0 6.5-2.916 6.5-6.5 0-.272-.022-.538-.055-.802l6.442-7.888a2.166 2.166 0 0 0-.27-2.724ZM5.77 22.575l-4.243-4.243 3.053-3.053a6.523 6.523 0 0 0 4.294 4.191l-3.103 3.104Zm4.98-3.825c-3.032 0-5.5-2.467-5.5-5.5s2.468-5.5 5.5-5.5 5.5 2.467 5.5 5.5-2.468 5.5-5.5 5.5ZM22.835 3.966l-5.919 7.24a6.524 6.524 0 0 0-3.988-4.073l7.067-5.939a1.161 1.161 0 0 1 1.462.145l1.205 1.204c.389.389.449 1.004.174 1.423Z"/><path d="M11.25 9.75h-1v3h-3v1h3v3h1v-3h3v-1h-3v-3z"/></svg>