<svg xmlns="http://www.w3.org/2000/svg" width="512" height="512" data-name="Layer 1" viewBox="0 0 24 24"><path d="M22 18.184V5.816A2.996 2.996 0 0 0 24 3c0-1.654-1.346-3-3-3a2.996 2.996 0 0 0-2.816 2H5.816A2.996 2.996 0 0 0 3 0C1.346 0 0 1.346 0 3c0 1.302.839 2.402 2 2.816v12.369a2.996 2.996 0 0 0-2 2.816c0 1.654 1.346 3 3 3a2.996 2.996 0 0 0 2.816-2h12.369a2.996 2.996 0 0 0 2.816 2c1.654 0 3-1.346 3-3a2.996 2.996 0 0 0-2-2.816ZM21 1c1.103 0 2 .897 2 2s-.897 2-2 2-2-.897-2-2 .897-2 2-2ZM1 3c0-1.103.897-2 2-2s2 .897 2 2-.897 2-2 2-2-.897-2-2Zm2 20c-1.103 0-2-.897-2-2s.897-2 2-2 2 .897 2 2-.897 2-2 2Zm15-2H6c0-1.654-1.346-3-3-3V6c1.654 0 3-1.346 3-3h12c0 1.654 1.346 3 3 3v12c-1.654 0-3 1.346-3 3Zm3 2c-1.103 0-2-.897-2-2s.897-2 2-2 2 .897 2 2-.897 2-2 2Z"/></svg>