<svg xmlns="http://www.w3.org/2000/svg" width="512" height="512" data-name="Layer 1" viewBox="0 0 24 24"><path d="M19.5 19h-.665c-.539-1.323-2.656-6.789-2.817-11H18V7h-1.872L17.556.793l-3.435 1.294L12 .02 9.879 2.087 6.444.793 7.872 7H6v1h1.982c-.161 4.211-2.279 9.677-2.817 11H4.5A2.502 2.502 0 0 0 2 21.5V24h20v-2.5c0-1.379-1.121-2.5-2.5-2.5ZM7.837 2.387l2.284.86L12 1.416l1.879 1.831 2.284-.86L15.102 7H8.886L7.837 2.387ZM8.983 8h6.034c.146 4.104 2.011 9.172 2.738 11H6.245c.727-1.828 2.592-6.896 2.738-11ZM21 23H3v-1.5c0-.827.673-1.5 1.5-1.5h15c.827 0 1.5.673 1.5 1.5V23Z"/></svg>