<svg xmlns="http://www.w3.org/2000/svg" data-name="Layer 1" viewBox="0 0 24 24"><path d="M24 12.5c0 3.632-2.717 6.847-6.02 7.391.008-.13.02-.259.02-.391 0-.209-.012-.414-.031-.618C20.745 18.345 23 15.596 23 12.5c0-3.509-2.856-6.422-6.368-6.493L16.277 6l-.11-.338A6.73 6.73 0 0 0 9.75 1 6.758 6.758 0 0 0 3 7.75c0 .776.139 1.551.412 2.304l.141.388-.354.212c-1.377.826-2.2 2.264-2.2 3.847 0 2.32 1.771 4.212 4.028 4.452a6.612 6.612 0 0 0-.028.548c0 .161.013.318.024.476a5.506 5.506 0 0 1-5.024-5.476c0-1.803.869-3.451 2.345-4.484a7.677 7.677 0 0 1-.345-2.266C2 3.477 5.477 0 9.75 0a7.727 7.727 0 0 1 7.252 5.023C20.892 5.284 24 8.567 24 12.5ZM18 22a1 1 0 1 0 0 2 1 1 0 0 0 0-2ZM5 22a1 1 0 1 0 0 2 1 1 0 0 0 0-2Zm11-2.5c0 .664-.431 1.239-1.072 1.431a1.48 1.48 0 0 1-.247 1.751c-.5.499-1.105.583-1.75.246-.192.641-.767 1.072-1.431 1.072s-1.239-.431-1.431-1.072c-.644.34-1.25.254-1.751-.247a1.48 1.48 0 0 1-.245-1.75C7.431 20.74 7 20.164 7 19.5s.431-1.239 1.073-1.431a1.48 1.48 0 0 1 .246-1.751 1.48 1.48 0 0 1 1.75-.246C10.261 15.43 10.836 15 11.5 15s1.239.431 1.431 1.072a1.479 1.479 0 0 1 1.751.247c.458.458.557 1.161.246 1.75A1.487 1.487 0 0 1 16 19.5Zm-1 0a.49.49 0 0 0-.358-.473l-1.166-.349.567-1.076a.488.488 0 0 0-.067-.576.48.48 0 0 0-.577-.07l-1.077.568-.349-1.166c-.128-.432-.816-.432-.946 0l-.349 1.166-1.076-.567a.485.485 0 0 0-.577.068.49.49 0 0 0-.069.578l.568 1.076-1.166.349c-.215.064-.359.254-.359.473s.144.408.359.473l1.166.349-.567 1.076a.49.49 0 0 0 .067.577c.166.166.295.218.579.069l1.076-.566.348 1.165c.129.433.817.432.946 0l.348-1.164 1.076.565c.284.148.412.097.578-.068a.488.488 0 0 0 .069-.577l-.568-1.076 1.166-.349a.486.486 0 0 0 .358-.473Z"/></svg>