<svg xmlns="http://www.w3.org/2000/svg" width="512" height="512" data-name="Layer 1" viewBox="0 0 24 24"><path d="M20 13h-4.137l.576-5.942c.167-.745-.012-1.513-.489-2.108s-1.188-.937-1.95-.937l-3.434-.004L10.942 1h6.059V0H10.06l-.501 4.008L2.502 4c-.762 0-1.472.341-1.949.935-.478.594-.658 1.361-.502 2.056L2.056 24H20c2.206 0 4-1.794 4-4v-3c0-2.206-1.794-4-4-4Zm3 4v1H10v-1c0-1.654 1.346-3 3-3h7c1.654 0 3 1.346 3 3Zm-3.56 2-1.938 1.384L15.593 19h3.847ZM13.999 5.013c.458 0 .884.205 1.17.562.287.357.394.818.284 1.326L15.346 8l-5.28-.004.373-2.986 3.559.004Zm-12.667.548A1.493 1.493 0 0 1 2.501 5l6.932.008-.373 2.987-7.886-.006-.137-1.164a1.495 1.495 0 0 1 .295-1.264ZM2.945 23 1.291 8.988l13.958.011-.39 4.001H13c-2.206 0-4 1.794-4 4v3c0 1.194.526 2.266 1.357 3H2.944Zm17.056 0h-7c-1.654 0-3-1.346-3-3v-1h3.889l3.609 2.616L21.161 19h1.84v1c0 1.654-1.346 3-3 3Z"/></svg>