<svg xmlns="http://www.w3.org/2000/svg" data-name="Layer 1" viewBox="0 0 24 24"><path d="m22.015 5.895 1.955-2.754L20.86.03l-2.754 1.954-.4 3.602L15.293 8H8c-4.411 0-8 3.589-8 8 0 2.137.832 4.146 2.343 5.657A7.951 7.951 0 0 0 8 24c4.411 0 8-3.589 8-8V8.707l2.413-2.413 3.602-.399Zm-2.964-3.354 1.699-1.206 1.916 1.915-1.206 1.699-2.71.302.301-2.71ZM15 16c0 3.859-3.14 7-7 7a6.962 6.962 0 0 1-4.95-2.05A6.954 6.954 0 0 1 1 16c0-3.859 3.14-7 7-7h6.293l-4.556 4.556A2.982 2.982 0 0 0 8 13c-1.654 0-3 1.346-3 3s1.346 3 3 3 3-1.346 3-3c0-.647-.206-1.246-.556-1.737L15 9.707V16Zm-5 0c0 1.103-.897 2-2 2s-2-.897-2-2 .897-2 2-2 2 .897 2 2Z"/></svg>