<svg xmlns="http://www.w3.org/2000/svg" width="512" height="512" data-name="Layer 1" viewBox="0 0 24 24"><path d="M19 1c-.999 0-1.952.299-2.785.869a5.688 5.688 0 0 0-8.43 0A4.891 4.891 0 0 0 5 1C2.243 1 0 3.243 0 6a4.98 4.98 0 0 0 4 4.877V24h16V10.877A4.98 4.98 0 0 0 24 6c0-2.757-2.243-5-5-5ZM5 23v-4h14v4H5ZM19.444 9.952l-.444.05V18H5v-7.998l-.444-.05A3.984 3.984 0 0 1 1 6c0-2.206 1.794-4 4-4 .925 0 1.804.324 2.542.938l.398.331.317-.41C9.172 1.677 10.536 1 12 1s2.828.678 3.743 1.859l.317.41.398-.331A3.939 3.939 0 0 1 19 2c2.206 0 4 1.794 4 4a3.983 3.983 0 0 1-3.556 3.952Z"/></svg>