<svg xmlns="http://www.w3.org/2000/svg" width="512" height="512" data-name="Layer 1" viewBox="0 0 24 24"><path d="M12 24C5.383 24 0 18.617 0 12S5.383 0 12 0s12 5.383 12 12-5.383 12-12 12Zm0-23C5.935 1 1 5.935 1 12s4.935 11 11 11 11-4.935 11-11S18.065 1 12 1Zm.007 19C8.433 20 6.062 16.751 6 14.514q0-.515 2.219-.515H18v.501c0 2.189-2.39 5.5-5.993 5.5ZM7.06 14.999C7.42 16.748 9.335 19 12.007 19c2.64 0 4.615-2.232 4.944-4-3.202-.002-8.229 0-9.892 0ZM7.5 7C6.069 7 5 9.112 5 11h1c0-1.43.785-3 1.5-3S9 9.57 9 11h1c0-1.888-1.069-4-2.5-4Zm9 0C15.069 7 14 9.112 14 11h1c0-1.43.785-3 1.5-3S18 9.57 18 11h1c0-1.888-1.069-4-2.5-4Z"/></svg>