<svg xmlns="http://www.w3.org/2000/svg" width="512" height="512" data-name="Layer 1" viewBox="0 0 24 24"><path d="m17.907.563-.414-.234-4.332 6.812.517.24A4.013 4.013 0 0 1 16 10.998v.5l8 .002V11c0-4.307-2.335-8.306-6.093-10.437Zm-.933 9.935a5.026 5.026 0 0 0-2.375-3.756l3.222-5.066a11.03 11.03 0 0 1 5.167 8.824l-6.014-.002Zm-2.668 3.761a4.019 4.019 0 0 1-4.611 0l-.449-.317-.883 1.538c-1.068 1.859-2.153 3.747-2.871 5.024l-.234.416.404.253C7.57 22.367 9.763 22.999 12 22.999s4.43-.631 6.339-1.825l.407-.255-3.99-6.981-.449.32Zm-7.704 6.312a908.06 908.06 0 0 1 2.628-4.592l.351-.61c1.484.83 3.355.83 4.84 0l2.975 5.206c-3.301 1.869-7.494 1.869-10.793-.003Zm1.397-9.572c0-1.551.881-2.932 2.297-3.603l.51-.242L6.509.327l-.416.236A12.026 12.026 0 0 0 0 11v.5l8-.002v-.5Zm-6.988-.498a11.03 11.03 0 0 1 5.165-8.823l3.2 5.083a5.031 5.031 0 0 0-2.351 3.738l-6.015.002Zm8.988.5c0 1.103.897 2 2 2s2-.897 2-2-.897-2-2-2-2 .897-2 2Zm2-1a1 1 0 1 1 0 2 1 1 0 0 1 0-2Z"/></svg>