<svg xmlns="http://www.w3.org/2000/svg" width="512" height="512" data-name="Layer 1" viewBox="0 0 24 24"><path d="M18 9.009c-3.311 0-6.004 3.36-6.004 7.491s2.693 7.491 6.004 7.491 6.004-3.36 6.004-7.491S21.311 9.009 18 9.009ZM12.996 16.5c0-3.411 2.039-6.216 4.619-6.472.107.135 1.872 2.451-.06 6.246-1.626 3.19-.931 5.526-.378 6.629-2.369-.511-4.181-3.187-4.181-6.403Zm5.389 6.472c-.107-.135-1.872-2.451.06-6.246 1.626-3.19.931-5.526.378-6.629 2.369.511 4.181 3.187 4.181 6.403 0 3.411-2.039 6.216-4.619 6.472ZM12.546 1.453C10.204-.889 5.81-.309 2.752 2.752c-3.058 3.059-3.641 7.452-1.298 9.795.969.969 2.288 1.438 3.719 1.438 2.029 0 4.282-.942 6.075-2.736 3.058-3.059 3.641-7.452 1.298-9.795ZM3.459 3.459c1.603-1.604 3.6-2.453 5.362-2.453 1.031 0 1.982.291 2.726.892-.026.188-.507 3.172-4.711 4.629-3.552 1.231-4.774 3.491-5.182 4.681-1.31-2.057-.6-5.346 1.804-7.749Zm7.082 7.082C8 13.083 4.47 13.732 2.452 12.102c.026-.185.505-3.172 4.711-4.629 3.552-1.231 4.774-3.491 5.182-4.681 1.31 2.057.6 5.346-1.804 7.749Z"/></svg>