<svg xmlns="http://www.w3.org/2000/svg" data-name="Layer 1" viewBox="0 0 24 24"><path d="M2.5 23H8v1H2.5A2.503 2.503 0 0 1 0 21.5V16h1v5.5c0 .827.673 1.5 1.5 1.5ZM23 21.5c0 .827-.673 1.5-1.5 1.5H16v1h5.5c1.379 0 2.5-1.122 2.5-2.5V16h-1v5.5ZM21.5 0H16v1h5.5c.827 0 1.5.673 1.5 1.5V8h1V2.5C24 1.122 22.879 0 21.5 0ZM1 2.5C1 1.673 1.673 1 2.5 1H8V0H2.5A2.503 2.503 0 0 0 0 2.5V8h1V2.5ZM9 11a1 1 0 1 0 0-2 1 1 0 0 0 0 2Zm6-2a1 1 0 1 0 0 2 1 1 0 0 0 0-2Zm-3 11c-4.411 0-8-3.589-8-8s3.589-8 8-8 8 3.589 8 8-3.589 8-8 8Zm7-8c0-3.86-3.141-7-7-7s-7 3.14-7 7 3.141 7 7 7 7-3.14 7-7Zm-7 3c-1.76 0-3.134-1.341-3.147-1.354l-.706.708C8.214 14.421 9.819 16 12.001 16s3.786-1.579 3.854-1.646l-.706-.708C15.135 13.66 13.761 15 12.002 15Z"/></svg>