<svg xmlns="http://www.w3.org/2000/svg" width="512" height="512" data-name="Layer 1" viewBox="0 0 24 24"><path d="m2.533 18.074-1.517 4.9 4.9-1.468 3.066 2.454 1.998-10.943L.087 15.016l2.446 3.058ZM8.3 22.133l-2.168-1.735-3.605 1.081 1.118-3.615-1.731-2.166 7.824-1.436L8.3 22.133Zm4.152-6.033 2.076-2.055 2.496 2.496 2.121-2.143.711.703-2.828 2.857-2.504-2.503-2.385 2.361.314-1.717ZM24.001 12c0 6.617-5.383 12-12 12-.331 0-.657-.023-.982-.05l.181-.991c.265.019.531.041.801.041 6.065 0 11-4.935 11-11S18.065 1 12 1 1 5.935 1 12c0 .272.021.54.041.807l-.991.182A11.97 11.97 0 0 1 0 12C0 5.383 5.383 0 12 0s12 5.383 12 12ZM17.98 7.357 15.301 9.5l2.679 2.143-.625.781L13.7 9.5l3.655-2.924.625.781ZM6.021 11.643 8.7 9.5 6.021 7.357l.625-.781L10.301 9.5l-3.655 2.924-.625-.781Z"/></svg>