<svg xmlns="http://www.w3.org/2000/svg" width="512" height="512" data-name="Layer 1" viewBox="0 0 24 24"><path d="M6.97 13H5v6h1v-2h.97c1.11 0 2.01-.92 2.01-2.02S8.08 13 6.97 13Zm0 3H6v-2h.97c.56 0 1.01.44 1.01.98S7.52 16 6.97 16ZM12 13h-2v6h2c1.11 0 2-.89 2-1.98v-2.03c0-1.09-.89-1.98-2-1.98Zm1 4.02c0 .53-.43.96-.96.98H11v-4h1.04c.53.02.96.46.96.98v2.03ZM15 13h4v1h-3v2h2v1h-2v2h-1v-6Zm-.29-13H4.5A2.5 2.5 0 0 0 2 2.5V24h20V7.29L14.71 0ZM15 1.71 20.29 7H15V1.71ZM3 23V2.5C3 1.67 3.67 1 4.5 1H14v7h7v15H3Z"/></svg>