<svg xmlns="http://www.w3.org/2000/svg" data-name="Layer 1" viewBox="0 0 24 24"><path d="M21.5 4h-3.25l-3-4h-6.5l-3 4H2.5A2.503 2.503 0 0 0 0 6.5V24h24V6.5C24 5.121 22.878 4 21.5 4ZM9.25 1h5.5L17 4H7l2.25-3ZM23 23H1V6.5C1 5.673 1.673 5 2.5 5h19c.827 0 1.5.673 1.5 1.5V23ZM17 8h1v3.5c0 .827-.673 1.5-1.5 1.5H13v-1h3.5a.489.489 0 0 0 .066-.005A4.984 4.984 0 0 0 12 9a5 5 0 0 0-4.899 4H6.09A5.996 5.996 0 0 1 12 8a5.978 5.978 0 0 1 5 2.697V8Zm-.101 7h1.011A5.996 5.996 0 0 1 12 20a5.97 5.97 0 0 1-5-2.704V20H6v-3.5c0-.827.673-1.5 1.5-1.5H11v1H7.5c-.021 0-.041.002-.061.004A4.979 4.979 0 0 0 12 19a5 5 0 0 0 4.899-4Z"/></svg>