<svg xmlns="http://www.w3.org/2000/svg" width="512" height="512" data-name="Layer 1" viewBox="0 0 24 24"><path d="M22.239 9.217 13.84.767c-.982-.988-2.697-.988-3.68 0l-8.399 8.45a2.621 2.621 0 0 0 0 3.691L12 23.209l10.239-10.301a2.621 2.621 0 0 0 0-3.691Zm-.709 2.986L12 21.791l-9.53-9.588a1.62 1.62 0 0 1 0-2.281l8.399-8.45C11.172 1.168 11.573 1 12 1s.828.168 1.131.472l8.399 8.45a1.62 1.62 0 0 1 0 2.281ZM16.611 8.58a1.327 1.327 0 0 1 0 1.876l-2.897 2.897-.707-.707 2.628-2.628H10.5c-.827 0-1.5.673-1.5 1.5V16l-1-1v-3.482c0-1.379 1.121-2.5 2.5-2.5h5.135L13.007 6.39l.707-.707 2.897 2.897Z"/></svg>