<svg xmlns="http://www.w3.org/2000/svg" data-name="Layer 1" viewBox="0 0 24 24"><path d="m22.332 7.05.555-.562C23.605 5.77 24 4.816 24 3.8s-.396-1.97-1.113-2.687c-1.434-1.437-3.94-1.433-5.372-.002l-.564.557C16.13.759 15.126 0 13.6 0a3.803 3.803 0 0 0-3.8 3.8c0 .227-.004.483-.008.705a14.38 14.38 0 0 0-1.45-.104A4.046 4.046 0 0 0 4.3 8.443c0 .127.007.256.022.388A3.804 3.804 0 0 0 1 12.601c0 1.695 2.4 5.298 3.222 6.482L.036 23.267l.707.707 4.187-4.187c1.197.83 4.782 3.214 6.47 3.214a3.805 3.805 0 0 0 3.77-3.322c.132.016.261.022.388.022a4.046 4.046 0 0 0 4.042-4.042c0-.432-.056-1.021-.104-1.45.222-.004.479-.008.705-.008 2.096 0 3.8-1.704 3.8-3.8 0-1.525-.759-2.529-1.668-3.351ZM20.2 13.2c-.555 0-1.84.036-1.84.036s.239 1.748.239 2.422a3.045 3.045 0 0 1-3.042 3.042c-.227 0-1.401-.272-1.401-.272s.038.745.044.772c0 1.544-1.256 2.8-2.8 2.8-1.22 0-4.217-1.883-5.75-2.933l9.319-9.319-.707-.707-9.321 9.321C3.892 16.833 2 13.824 2 12.6a2.8 2.8 0 0 1 2.791-2.799h.002l.779.043S5.3 8.669 5.3 8.443a3.045 3.045 0 0 1 3.042-3.042c.674 0 2.422.239 2.422.239s.036-1.285.036-1.84c0-1.544 1.256-2.8 2.8-2.8 1.267 0 2.062.657 2.935 1.718l.348.423 1.338-1.32c1.059-1.059 2.903-1.059 3.96 0 .529.528.82 1.231.82 1.979s-.291 1.451-.822 1.982l-1.318 1.336.423.348c1.061.873 1.718 1.668 1.718 2.935 0 1.544-1.256 2.8-2.8 2.8Z"/></svg>