<svg xmlns="http://www.w3.org/2000/svg" width="512" height="512" data-name="Layer 1" viewBox="0 0 24 24"><path d="M12 14c-1.654 0-3 1.346-3 3s1.346 3 3 3 3-1.346 3-3-1.346-3-3-3Zm0 5c-1.103 0-2-.897-2-2s.897-2 2-2 2 .897 2 2-.897 2-2 2Zm6.854-12.146L16.708 9l2.146 2.146-.707.707-2.146-2.146-2.146 2.146-.707-.707L15.294 9l-2.146-2.146.707-.707 2.146 2.146 2.146-2.146.707.707ZM8 9.708l-2.146 2.146-.707-.707 2.146-2.146-2.146-2.146.707-.707L8 8.294l2.146-2.146.707.707-2.146 2.146 2.146 2.146-.707.707L8 9.708ZM12 0C5.383 0 0 5.383 0 12s5.383 12 12 12 12-5.383 12-12S18.617 0 12 0Zm0 23C5.935 23 1 18.065 1 12S5.935 1 12 1s11 4.935 11 11-4.935 11-11 11Z"/></svg>