<svg xmlns="http://www.w3.org/2000/svg" width="512" height="512" data-name="Layer 1" viewBox="0 0 24 24"><path d="M12 0C5.383 0 0 5.383 0 12s5.383 12 12 12 12-5.383 12-12S18.617 0 12 0Zm0 23C5.935 23 1 18.065 1 12S5.935 1 12 1s11 4.935 11 11-4.935 11-11 11ZM8 8.903c0 .847.569 1.6 1.384 1.832l5.511 1.562A2.923 2.923 0 0 1 17 15.092a2.91 2.91 0 0 1-2.907 2.907H9.7c-1.615 0-2.7-1.105-2.7-2.75h1c0 1.096.636 1.75 1.7 1.75h4.393A1.909 1.909 0 0 0 16 15.092c0-.846-.567-1.599-1.381-1.833L9.11 11.697A2.918 2.918 0 0 1 7 8.903 2.907 2.907 0 0 1 9.903 6h4.396c1.489 0 2.7 1.233 2.7 2.75h-1c0-.965-.763-1.75-1.7-1.75H9.903C8.853 7 8 7.854 8 8.903Z"/></svg>