<svg xmlns="http://www.w3.org/2000/svg" data-name="Layer 1" viewBox="0 0 24 24"><path d="M17 5a1 1 0 1 1-2 0 1 1 0 0 1 2 0Zm5-1a1 1 0 1 0 0 2 1 1 0 0 0 0-2Zm0-2a1 1 0 1 0 0-2 1 1 0 0 0 0 2Zm0 6a1 1 0 1 0 0 2 1 1 0 0 0 0-2Zm-3-6a1 1 0 1 0 0 2 1 1 0 0 0 0-2Zm0 4a1 1 0 1 0 0 2 1 1 0 0 0 0-2Zm-3 5v13H1V11c0-2.206 1.794-4 4-4V2.5C5 1.122 6.121 0 7.5 0h2C10.879 0 12 1.122 12 2.5V7c2.206 0 4 1.794 4 4ZM6 7h5V2.5c0-.827-.673-1.5-1.5-1.5h-2C6.673 1 6 1.673 6 2.5V7Zm9 4c0-1.654-1.346-3-3-3H5c-1.654 0-3 1.346-3 3v12h13V11Zm-2 4.5c0 2.481-2.019 4.5-4.5 4.5S4 17.981 4 15.5 6.019 11 8.5 11s4.5 2.019 4.5 4.5Zm-1 0c0-1.93-1.57-3.5-3.5-3.5S5 13.57 5 15.5 6.57 19 8.5 19s3.5-1.57 3.5-3.5Z"/></svg>