<svg xmlns="http://www.w3.org/2000/svg" width="512" height="512" data-name="Layer 1" viewBox="0 0 24 24"><path d="M13.754 10.423A2.993 2.993 0 0 0 15 8c0-1.654-1.346-3-3-3S9 6.346 9 8c0 .998.495 1.877 1.246 2.423C8.922 11.076 8 12.426 8 14c0 2.206 1.794 4 4 4s4-1.794 4-4c0-1.574-.921-2.925-2.246-3.577ZM10 8c0-1.103.897-2 2-2s2 .897 2 2-.897 2-2 2-2-.897-2-2Zm2 9c-1.654 0-3-1.346-3-3s1.346-3 3-3 3 1.346 3 3-1.346 3-3 3Zm0-17C5.383 0 0 5.383 0 12s5.383 12 12 12 12-5.383 12-12S18.617 0 12 0Zm0 23C5.935 23 1 18.065 1 12S5.935 1 12 1s11 4.935 11 11-4.935 11-11 11Z"/></svg>