<svg xmlns="http://www.w3.org/2000/svg" width="512" height="512" data-name="Layer 1" viewBox="0 0 24 24"><path d="M23.491.509c-1.507-1.505-5.268.662-7.609 2.276A9.943 9.943 0 0 0 12 2.001C6.486 2 2 6.486 2 12c0 1.376.28 2.688.785 3.883-1.613 2.341-3.781 6.103-2.276 7.609.34.34.812.496 1.387.496 1.518 0 3.758-1.087 6.21-2.777a9.952 9.952 0 0 0 3.894.79c5.514 0 10-4.486 10-10a9.943 9.943 0 0 0-.784-3.882c.407-.59.777-1.166 1.107-1.722C23.52 4.376 24.695 1.713 23.492.51ZM12 3c3.532 0 6.595 2.046 8.068 5.014-1.476 2.071-3.394 4.308-5.57 6.484-2.351 2.351-4.562 4.201-6.487 5.568C5.044 18.593 3 15.531 3 12c0-4.962 4.037-9 9-9ZM1.216 22.784c-.565-.565-.11-2.581 2.078-5.87a10.069 10.069 0 0 0 3.788 3.79c-3.063 2.025-5.251 2.695-5.866 2.08ZM21 12c0 4.962-4.037 9-9 9a8.954 8.954 0 0 1-2.918-.486c2.037-1.499 4.17-3.356 6.123-5.309 2.04-2.04 3.859-4.136 5.314-6.111.312.912.481 1.889.481 2.905Zm-.293-4.914a10.068 10.068 0 0 0-3.793-3.793c3.289-2.189 5.307-2.641 5.87-2.078.438.438.321 1.896-1.322 4.67a27.6 27.6 0 0 1-.755 1.2Z"/></svg>