<svg xmlns="http://www.w3.org/2000/svg" width="512" height="512" data-name="Layer 1" viewBox="0 0 24 24"><path d="M21.5 0h-19A2.503 2.503 0 0 0 0 2.5V24h24V2.5C24 1.121 22.878 0 21.5 0ZM23 23H1V2.5C1 1.673 1.673 1 2.5 1h19c.827 0 1.5.673 1.5 1.5V23ZM14.732 5.732 5 15.465V19h3.536l9.732-9.732a2.502 2.502 0 0 0 0-3.535c-.943-.945-2.592-.945-3.535 0ZM8.121 18H5.999v-2.121l7.336-7.336 2.121 2.121L8.12 18Zm9.439-9.439-1.396 1.397-2.121-2.121 1.396-1.396c.566-.566 1.555-.566 2.121 0a1.501 1.501 0 0 1 0 2.121Z"/></svg>