<svg xmlns="http://www.w3.org/2000/svg" width="512" height="512" data-name="Layer 1" viewBox="0 0 24 24"><path d="M7.514 9.196c-.107-.464-.403-.886-.842-1.07A1.587 1.587 0 0 0 6.059 8c-.689 0-1.287.475-1.443 1.147L3 16h1.003l.479-2h3.115l.462 2h1.014L7.514 9.196ZM4.721 13l.869-3.627A.48.48 0 0 1 6.059 9c.073 0 .149.016.226.049.111.046.213.197.253.371L7.365 13H4.72Z"/><path d="M21.5 4h-19A2.503 2.503 0 0 0 0 6.5V20h24V6.5C24 5.122 22.879 4 21.5 4ZM1 6.5C1 5.673 1.673 5 2.5 5h9v14H1V6.5ZM23 19H12.5V5h9c.827 0 1.5.673 1.5 1.5V19Z"/><path d="M18.5 8h-1v1H14v1h5.964c-.102.852-.49 2.592-1.964 3.777A5.07 5.07 0 0 1 16.611 12h-1.069c.312.784.805 1.63 1.581 2.341-.799.403-1.819.659-3.122.659v1c1.722 0 3.021-.399 4-.999.979.6 2.277.999 4 .999v-1c-1.303 0-2.324-.257-3.122-.659 1.568-1.437 1.978-3.424 2.085-4.341h1.038V9h-3.5V8Z"/></svg>