<svg xmlns="http://www.w3.org/2000/svg" width="512" height="512" data-name="Layer 1" viewBox="0 0 24 24"><path d="m21.513 11 1.592-4.976-3.902-1.24.66-3.905-4.929-.841L14.602 2H9.397L9.066.038 4.137.88l.66 3.905L.895 6.024 2.487 11H.058l2.037 10.957A2.5 2.5 0 0 0 4.553 24h14.916a2.5 2.5 0 0 0 2.457-2.039L23.982 11h-2.468Zm.334-4.326L20.463 11h-2.311l.882-5.219 2.813.893ZM18.71 1.697 17.137 11h-2.138V5.652l.753-4.46 2.957.505ZM10 3h4v8h-4V3ZM8.247 1.192 9 5.652V11H6.862L5.29 1.697l2.957-.505ZM2.153 6.674l2.813-.893L5.848 11H3.537L2.153 6.674Zm18.79 15.103a1.501 1.501 0 0 1-1.475 1.224H4.553a1.501 1.501 0 0 1-1.475-1.226L1.261 12h21.515l-1.833 9.776Z"/></svg>