<svg xmlns="http://www.w3.org/2000/svg" width="512" height="512" data-name="Layer 1" viewBox="0 0 24 24"><path d="M13 8.1V11h4c0 1.654-1.346 3-3 3v1c2.206 0 4-1.794 4-4V6h-2.9c-1.158 0-2.1.941-2.1 2.1Zm4 1.9h-3V8.1c0-.606.493-1.1 1.1-1.1H17v3ZM6 8.1V11h4c0 1.654-1.346 3-3 3v1c2.206 0 4-1.794 4-4V6H8.1C6.942 6 6 6.941 6 8.1Zm4 1.9H7V8.1C7 7.494 7.493 7 8.1 7H10v3ZM21.5 0h-19A2.502 2.502 0 0 0 0 2.5V20h7.105l3.898 3.283c.285.254.645.38 1.001.38.352 0 .702-.123.978-.368L16.967 20h7.032V2.5c0-1.379-1.121-2.5-2.5-2.5ZM23 19h-6.392l-4.276 3.535a.502.502 0 0 1-.674-.009L7.47 19H1V2.5C1 1.673 1.673 1 2.5 1h19c.827 0 1.5.673 1.5 1.5V19Z"/></svg>