<svg xmlns="http://www.w3.org/2000/svg" width="512" height="512" data-name="Layer 1" viewBox="0 0 24 24"><path d="M12 0C5.383 0 0 5.383 0 12s5.383 12 12 12 12-5.383 12-12S18.617 0 12 0Zm0 23C5.935 23 1 18.065 1 12S5.935 1 12 1s11 4.935 11 11-4.935 11-11 11Zm-.25-17.25H9.5A2.503 2.503 0 0 0 7 8.25v7.5c0 1.378 1.121 2.5 2.5 2.5h2.25c3.446 0 6.25-2.804 6.25-6.25s-2.804-6.25-6.25-6.25Zm0 11.5H9.5c-.827 0-1.5-.673-1.5-1.5v-7.5c0-.827.673-1.5 1.5-1.5h2.25C14.645 6.75 17 9.105 17 12s-2.355 5.25-5.25 5.25Z"/></svg>