<svg xmlns="http://www.w3.org/2000/svg" width="512" height="512" data-name="Layer 1" viewBox="0 0 24 24"><path d="M16.797 1.675A2.505 2.505 0 0 0 13.604.157l-.941.335a2.484 2.484 0 0 0-1.42 1.281 2.495 2.495 0 0 0-.242.979v-.253c0-1.379-1.122-2.5-2.5-2.5H2.5A2.504 2.504 0 0 0 0 2.5V24h11V2.95c.01.246.057.492.142.73l7.005 20.342 5.846-1.998-7.196-20.349ZM10 2.5V5H6V1h2.5c.827 0 1.5.673 1.5 1.5ZM6 6h4v12H6V6ZM5 18H1V6h4v12ZM2.5 1H5v4H1V2.5C1 1.673 1.673 1 2.5 1ZM1 19h4v4H1v-4Zm5 4v-4h4v4H6Zm15.119-6.105-3.891 1.383-3.943-11.45 3.797-1.349 4.037 11.416ZM12.145 2.203c.172-.361.475-.635.853-.77l.941-.334a1.503 1.503 0 0 1 1.916.91l.894 2.528-3.79 1.346-.873-2.534a1.49 1.49 0 0 1 .059-1.146Zm5.409 17.02 3.899-1.386 1.262 3.568-3.945 1.348-1.216-3.529Z"/></svg>