<svg xmlns="http://www.w3.org/2000/svg" width="512" height="512" data-name="Layer 1" viewBox="0 0 24 24"><path d="M21.5 2H16V0h-1v2H2.5A2.5 2.5 0 0 0 0 4.5v3A2.5 2.5 0 0 0 2.5 10H15v2h1v-2h5.5A2.5 2.5 0 0 0 24 7.5v-3A2.5 2.5 0 0 0 21.5 2ZM1 7.5v-3C1 3.67 1.67 3 2.5 3H10v6H2.5C1.67 9 1 8.33 1 7.5ZM11 9V3h4v6h-4Zm12-1.5c0 .83-.67 1.5-1.5 1.5H16V3h5.5c.83 0 1.5.67 1.5 1.5v3ZM21.5 14H11v-2h-1v2H2.5A2.5 2.5 0 0 0 0 16.5v3A2.5 2.5 0 0 0 2.5 22H10v2h1v-2h10.5a2.5 2.5 0 0 0 2.5-2.5v-3a2.5 2.5 0 0 0-2.5-2.5ZM1 19.5v-3c0-.83.67-1.5 1.5-1.5H5v6H2.5c-.83 0-1.5-.67-1.5-1.5ZM6 21v-6h4v6H6Zm17-1.5c0 .83-.67 1.5-1.5 1.5H11v-6h10.5c.83 0 1.5.67 1.5 1.5v3Z"/></svg>