<svg xmlns="http://www.w3.org/2000/svg" width="512" height="512" viewBox="0 0 24 24"><path d="M24 8V2c0-1.103-.897-2-2-2h-6v1h6c.033 0 .06.016.092.019l-10.171 10.17L1.777 1.045C1.851 1.028 1.921 1 2 1h6V0H2C.897 0 0 .897 0 2v6h1V2c0-.094.029-.178.054-.264l10.16 10.16L1.019 22.092C1.016 22.06 1 22.033 1 22v-6H0v6c0 1.103.897 2 2 2h6v-1H2a.99.99 0 0 1-.393-.082l10.314-10.314 10.343 10.343c-.086.024-.171.053-.264.053h-6v1h6c1.103 0 2-.897 2-2v-6h-1v6c0 .079-.028.149-.045.223L12.628 11.896l10.29-10.289A.994.994 0 0 1 23 2v6h1Z"/></svg>