<svg xmlns="http://www.w3.org/2000/svg" data-name="Layer 1" viewBox="0 0 24 24"><path d="M24 10.68C24 4.691 18.729 0 12 0S0 4.691 0 10.68v.2l7.016 7.338c-.01.093-.016.187-.016.282v3C7 22.879 8.121 24 9.5 24h5c1.379 0 2.5-1.121 2.5-2.5v-3c0-.095-.006-.19-.016-.282L24 10.88v-.2Zm-1.143-1.594C22.189 8.538 21.221 8 20 8c-1.426 0-2.619.674-3.362 1.233-.317-3.885-2.289-6.784-3.451-8.179 4.99.451 8.891 3.724 9.67 8.032ZM13.65 16h-3.301L8.34 10.516C8.86 10.101 10.389 9 11.999 9s3.138 1.101 3.659 1.516L13.649 16ZM8.364 9.261C8.724 5.177 11.103 2.207 12 1.22c.898.985 3.277 3.948 3.635 8.041C14.796 8.703 13.451 8 11.999 8s-2.797.703-3.636 1.261Zm2.449-8.207C9.652 2.449 7.679 5.349 7.362 9.233 6.618 8.674 5.426 8 4 8c-1.221 0-2.189.538-2.857 1.086.779-4.308 4.68-7.581 9.67-8.032Zm-9.735 9.507C1.46 10.09 2.504 9 4 9c1.523 0 2.776 1.004 3.247 1.44l2.04 5.57a2.5 2.5 0 0 0-1.898 1.152l-6.311-6.601ZM16 21.5c0 .827-.673 1.5-1.5 1.5h-5c-.827 0-1.5-.673-1.5-1.5v-3c0-.827.673-1.5 1.5-1.5h5c.827 0 1.5.673 1.5 1.5v3Zm-1.288-5.49 2.041-5.571c.469-.435 1.715-1.438 3.247-1.438 1.485 0 2.536 1.091 2.921 1.562l-6.311 6.599a2.503 2.503 0 0 0-1.898-1.152Z"/></svg>