<svg xmlns="http://www.w3.org/2000/svg" data-name="Layer 1" viewBox="0 0 24 24"><path d="M23 2c-1.706 6.271-7.05 8.253-10 8.783V9h-1v1.929c-.566.063-.933.07-1.004.071H9V9H8v2H5V9H4v2H0v1h3.675A4.494 4.494 0 0 0 2 15.5C2 17.981 4.019 20 6.5 20h4c2.481 0 4.5-2.019 4.5-4.5a4.489 4.489 0 0 0-1.297-3.158c3.022.669 7.71 2.821 9.297 8.658h1V2h-1Zm-9 13.5c0 1.93-1.57 3.5-3.5 3.5h-4C4.57 19 3 17.43 3 15.5S4.57 12 6.5 12h4c1.93 0 3.5 1.57 3.5 3.5Zm9 2.578c-2.097-4.17-5.931-5.884-8.702-6.588 2.771-.717 6.607-2.442 8.702-6.585v13.172Z"/></svg>