<svg xmlns="http://www.w3.org/2000/svg" data-name="Layer 1" viewBox="0 0 24 24"><path d="M23 15.829c1.16 1.067 1.287 2.946.288 4.277l-.755 1.185a6.834 6.834 0 0 1-5.45 2.744H6.938a6.82 6.82 0 0 1-5.428-2.714l-.845-1.229c-.988-1.316-.861-3.196.3-4.264A3.12 3.12 0 0 1 3 15.018l-2.37-3.02a3.106 3.106 0 0 1-.599-2.32 3.1 3.1 0 0 1 1.217-2.055 3.12 3.12 0 0 1 3.76.031C5.007 7.602 5 7.552 5 7.5c0-.555.083-1.091.225-1.606l-.044.053A3.385 3.385 0 0 1 4.99.99a3.385 3.385 0 0 1 4.781 0c.096.096.155.19.226.284a7.452 7.452 0 0 1 4.006 0c.071-.094.13-.188.225-.284 1.318-1.318 3.463-1.318 4.782 0a3.384 3.384 0 0 1-.191 4.957l-.044-.053c.142.515.225 1.051.225 1.606 0 .057-.008.112-.009.169 1.098-.84 2.625-.896 3.761-.046a3.098 3.098 0 0 1 1.217 2.055 3.096 3.096 0 0 1-.593 2.312l-2.291 3.03a3.135 3.135 0 0 1 1.915.809Zm-7.993-14.19c1.521.675 2.741 1.841 3.415 3.28a2.377 2.377 0 0 0-.119-3.222 2.38 2.38 0 0 0-3.296-.058ZM12 2C8.691 2 6 4.468 6 7.5S8.691 13 12 13s6-2.468 6-5.5S15.309 2 12 2ZM5.579 4.919c.674-1.439 1.894-2.604 3.414-3.28a2.38 2.38 0 0 0-3.296.058 2.377 2.377 0 0 0-.119 3.222ZM7.98 23.035c-.176-2.189-1.438-3.896-1.451-3.914l-1.747-2.269c-.933-.933-1.639-.853-1.705-.853-.531 0-1.034.197-1.435.565-.788.724-.86 2.017-.165 2.944l.845 1.229a5.806 5.806 0 0 0 4.616 2.297H7.98Zm7.028 0c.114-3.202 1.392-4.506 1.666-4.75l1.729-2.06c.315-.42.748-.737 1.234-.949l2.94-3.888c.339-.451.481-1.009.401-1.569s-.374-1.057-.826-1.396a2.122 2.122 0 0 0-2.967.423l-1.073 1.821-.004-.003c-1.199 1.987-3.486 3.335-6.108 3.335s-4.909-1.347-6.108-3.334l-.005.003-1.104-1.867c-.67-.888-2.001-1.079-2.936-.378-.453.339-.746.835-.826 1.396s.062 1.118.402 1.571l3.104 3.955-.016.012c.413.214.781.511 1.065.89l1.747 2.269c.068.09 1.484 2.006 1.658 4.519h6.026Zm7.315-6.47a2.12 2.12 0 0 0-3.138.281l-1.847 2.186c-.008.007-1.214 1.032-1.33 4.003h1.074a5.816 5.816 0 0 0 4.629-2.313l.755-1.185c.716-.956.644-2.248-.143-2.972ZM10.499 9.25c0-.967.672-1.75 1.5-1.75s1.5.783 1.5 1.75h-3Z"/></svg>