<svg xmlns="http://www.w3.org/2000/svg" width="512" height="512" data-name="Layer 1" viewBox="0 0 24 24"><path d="M22 9h-3V2.5C19 1.121 17.878 0 16.5 0h-9A2.503 2.503 0 0 0 5 2.5V9H2v1h2.517A9.025 9.025 0 0 0 3 15c0 4.963 4.038 9 9 9s9-4.037 9-9a9.025 9.025 0 0 0-1.517-5H22V9ZM6 2.5C6 1.673 6.673 1 7.5 1h9c.827 0 1.5.673 1.5 1.5V9H6V2.5ZM20 15c0 4.411-3.589 8-8 8s-8-3.589-8-8c0-1.84.607-3.568 1.755-5h12.49A7.911 7.911 0 0 1 20 15ZM7 13a1 1 0 1 1 2 0 1 1 0 0 1-2 0Zm8 0a1 1 0 1 1 2 0 1 1 0 0 1-2 0Zm-3 8.521.436-.776C12.697 20.279 14 17.913 14 17c0-1.103-.897-2-2-2s-2 .897-2 2c0 .913 1.303 3.279 1.564 3.745l.436.776ZM12 16c.551 0 1 .448 1 1 0 .34-.464 1.405-1 2.444-.536-1.039-1-2.104-1-2.444 0-.552.449-1 1-1Z"/></svg>