<svg xmlns="http://www.w3.org/2000/svg" width="512" height="512" data-name="Layer 1" viewBox="0 0 24 24"><path d="M19 11a5.02 5.02 0 0 0-1.04.109l-.879-2.746c.141-.042.543-.126.543-.126.621-.118 1.01-.192 1.43-.222A2.504 2.504 0 0 0 21.5 10H23V5h-1.5a2.504 2.504 0 0 0-2.452 2.013c-.501.031-1.721.263-1.721.263a5.38 5.38 0 0 0-.55.135L15.366 3h-4.365v1h3.635l1.212 3.788A5.536 5.536 0 0 0 14.28 9H8.448a2.583 2.583 0 0 0-.214-.619A2.487 2.487 0 0 0 5.998 7H2v1h3.996c.58 0 1.082.31 1.342.829s.207 1.106-.142 1.571l-.636.848A5.006 5.006 0 0 0 0 16c0 2.757 2.243 5 5 5a5.006 5.006 0 0 0 4.995-5.208A2.497 2.497 0 0 0 11 15l3.752-5.002a4.581 4.581 0 0 1 1.405-1.241l.851 2.658A5.006 5.006 0 0 0 14.001 16c0 2.757 2.243 5 5 5s5-2.243 5-5-2.243-5-5-5Zm2.5-5h.5v3h-.5c-.827 0-1.5-.673-1.5-1.5S20.673 6 21.5 6ZM5 20c-2.206 0-4-1.794-4-4a4.004 4.004 0 0 1 4.917-3.895L4.796 13.6a1.494 1.494 0 0 0-.141 1.571c.255.511.77.829 1.341.829H9c0 2.206-1.794 4-4 4Zm5.199-5.6c-.281.375-.729.6-1.199.6H5.996a.491.491 0 0 1-.447-.276.493.493 0 0 1 .048-.524l2.4-3.2a2.51 2.51 0 0 0 .451-1H13.5l-3.3 4.4ZM19 20c-2.206 0-4-1.794-4-4 0-1.604.948-2.99 2.314-3.627l.945 2.955a.998.998 0 0 0 .74 1.672 1 1 0 0 0 .213-1.977l-.946-2.955A4.004 4.004 0 0 1 22.999 16c0 2.206-1.794 4-4 4Z"/></svg>