<svg xmlns="http://www.w3.org/2000/svg" width="512" height="512" data-name="Layer 1" viewBox="0 0 24 24"><path d="M18 9c0-4.962-4.038-9-9-9S0 4.038 0 9v9h9c4.962 0 9-4.037 9-9Zm-9 8H1V9c0-4.411 3.589-8 8-8s8 3.589 8 8-3.589 8-8 8Zm15-1v8h-8c-2.955 0-5.535-1.615-6.92-4.004.382-.003.759-.025 1.131-.066A6.999 6.999 0 0 0 16 23h7v-7a6.999 6.999 0 0 0-3.07-5.789c.041-.372.064-.749.066-1.131C22.385 10.465 24 13.045 24 16ZM13 6.5V7h-1v-.5c0-.827-.673-1.5-1.5-1.5h-3C6.673 5 6 5.673 6 6.5c0 .876.627 1.612 1.493 1.751l3.173.51A2.762 2.762 0 0 1 13 11.5c0 1.378-1.122 2.5-2.5 2.5h-1v2h-1v-2h-1A2.503 2.503 0 0 1 5 11.5V11h1v.5c0 .827.673 1.5 1.5 1.5h3c.827 0 1.5-.673 1.5-1.5 0-.876-.627-1.612-1.493-1.751l-3.173-.51A2.762 2.762 0 0 1 5 6.5C5 5.122 6.122 4 7.5 4h1V2h1v2h1C11.878 4 13 5.122 13 6.5Z"/></svg>