<svg xmlns="http://www.w3.org/2000/svg" width="512" height="512" data-name="Layer 1" viewBox="0 0 24 24"><path d="M23 22.29V3.5A2.5 2.5 0 0 0 20.5 1h-17c-.49 0-.97.15-1.38.41L.75.05l-.7.7 23.2 23.2.71-.71-.95-.95ZM3.5 2h17c.83 0 1.5.67 1.5 1.5v17.79l-3-3V5h-5.21L9.75 9.04 7.96 7.25 10.21 5h-4.5L2.85 2.15c.2-.1.42-.15.65-.15ZM18 17.29l-7.54-7.54L14.21 6H18v11.29ZM7.25 6.54 6.71 6H7.8l-.54.54ZM6 9.53v8.46h8.46l1 1H5V8.54l1 1Zm4 4v.46h.46l1 1H9v-2.46l1 1Zm8.46 8.46 1 1H1V4.54l1 1V22h16.46Z"/></svg>