<svg xmlns="http://www.w3.org/2000/svg" width="512" height="512" data-name="Layer 1" viewBox="0 0 24 24"><path d="M24 2.5V17h-1V2.5c0-.83-.67-1.5-1.5-1.5h-19C1.67 1 1 1.67 1 2.5V23h16v1H0V2.5A2.5 2.5 0 0 1 2.5 0h19A2.5 2.5 0 0 1 24 2.5ZM11 12c0 .55.45 1 1 1s1-.45 1-1-.45-1-1-1-1 .45-1 1Zm8 0c0 .34-.03.67-.08 1h1.01c.04-.33.07-.66.07-1 0-4.41-3.59-8-8-8s-8 3.59-8 8 3.59 8 8 8c.34 0 .67-.03 1-.07v-1.01c-.33.05-.66.08-1 .08-3.86 0-7-3.14-7-7s3.14-7 7-7 7 3.14 7 7Zm1 3h-1v4h-4v1h4v4h1v-4h4v-1h-4v-4Z"/></svg>