<svg xmlns="http://www.w3.org/2000/svg" width="512" height="512" data-name="Layer 1" viewBox="0 0 24 24"><path d="M21.5 4H18V2.5C18 1.121 16.879 0 15.5 0h-13A2.503 2.503 0 0 0 0 2.5v15.854a1.645 1.645 0 0 0 1.649 1.648c.319 0 .637-.093.913-.276L6 17.434V21h11.349l4.09 2.727a1.641 1.641 0 0 0 1.691.081c.537-.288.87-.845.87-1.453V6.5C24 5.121 22.879 4 21.5 4ZM2.007 18.895a.633.633 0 0 1-.665.031.638.638 0 0 1-.342-.571V2.5C1 1.673 1.673 1 2.5 1h13c.827 0 1.5.673 1.5 1.5V16H6.349l-4.341 2.895ZM23 22.355a.638.638 0 0 1-.342.571.639.639 0 0 1-.666-.031L17.651 20H7v-3h11V5h3.5c.827 0 1.5.673 1.5 1.5v15.854Zm-13-9.354a1 1 0 1 1-2 0 1 1 0 0 1 2 0Zm-3-7H6c0-.889.391-1.727 1.071-2.298a3.01 3.01 0 0 1 2.468-.654 3.017 3.017 0 0 1 2.413 2.413 3.018 3.018 0 0 1-1.506 3.168c-.492.271-.947.685-.947 1.871v.5h-1v-.5c0-1.324.465-2.197 1.464-2.747a2.003 2.003 0 0 0-.598-3.721 2 2 0 0 0-2.366 1.968Z"/></svg>