<svg xmlns="http://www.w3.org/2000/svg" width="512" height="512" data-name="Layer 1" viewBox="0 0 24 24"><path d="M9 8c-1.103 0-2 .897-2 2s.897 2 2 2 2-.897 2-2-.897-2-2-2Zm0 3c-.551 0-1-.449-1-1s.449-1 1-1 1 .449 1 1-.449 1-1 1Zm6-3c-1.103 0-2 .897-2 2s.897 2 2 2 2-.897 2-2-.897-2-2-2Zm0 3c-.551 0-1-.449-1-1s.449-1 1-1 1 .449 1 1-.449 1-1 1ZM12 0C6.486 0 2 4.486 2 10v14h1v-.24A2.763 2.763 0 0 1 5.76 21c1.511 0 2.74 1.238 2.74 2.76V24h1s-.003-.414-.009-.5H9.5c0-1.378 1.122-2.5 2.5-2.5s2.5 1.122 2.5 2.5h.008c-.005.079-.008.5-.008.5h1v-.26c0-1.511 1.238-2.74 2.76-2.74A2.743 2.743 0 0 1 21 23.74V24h1V10c0-5.514-4.486-10-10-10Zm6.26 20a3.766 3.766 0 0 0-3.207 1.79C14.453 20.723 13.309 20 12 20s-2.454.724-3.054 1.792A3.736 3.736 0 0 0 5.76 20c-1.09 0-2.072.466-2.76 1.209V10c0-4.962 4.038-9 9-9s9 4.038 9 9v11.197A3.73 3.73 0 0 0 18.26 20Z"/></svg>