<svg xmlns="http://www.w3.org/2000/svg" width="512" height="512" data-name="Layer 1" viewBox="0 0 24 24"><path d="M22.119 3.595a2.523 2.523 0 0 0-2.035-.562A2.356 2.356 0 0 0 19 3.515v-.016c0-1.378-1.121-2.5-2.5-2.5-.635 0-1.215.238-1.656.63A2.504 2.504 0 0 0 12.5-.001a2.503 2.503 0 0 0-2.5 2.5v.016a2.368 2.368 0 0 0-1.084-.483A2.5 2.5 0 0 0 6 4.499v10.602l-1.796-1.428a2.499 2.499 0 0 0-3.529.119 2.506 2.506 0 0 0 .111 3.53L7.712 24H23V5.5c0-.734-.321-1.429-.881-1.905ZM22 23H8.116l-6.641-6.402a1.504 1.504 0 0 1-.069-2.123c.563-.603 1.514-.634 2.146-.045l3.449 2.746V4.5a1.499 1.499 0 0 1 1.756-1.479c.709.115 1.244.797 1.244 1.586V11h1V2.5c0-.827.673-1.5 1.5-1.5s1.5.673 1.5 1.5V11h1V3.5c0-.827.673-1.5 1.5-1.5s1.5.673 1.5 1.5V11h1V5.607c0-.789.535-1.471 1.244-1.586A1.499 1.499 0 0 1 22.001 5.5V23Zm-3.802-9.333a2.458 2.458 0 0 0-1.804-.664 2.513 2.513 0 0 0-1.895.999 2.511 2.511 0 0 0-1.895-.999 2.458 2.458 0 0 0-1.804.664 2.55 2.55 0 0 0-.802 1.83c-.046 2.676 4.029 5.722 4.202 5.851l.298.22.298-.22c.173-.128 4.248-3.175 4.202-5.851a2.548 2.548 0 0 0-.802-1.83ZM14.5 20.314c-1.208-.962-3.528-3.154-3.5-4.8.008-.435.18-.832.485-1.118a1.455 1.455 0 0 1 1.073-.394c.891.042 1.441.81 1.441 1.498v.5h1v-.5c0-.688.551-1.457 1.441-1.498.419-.012.782.121 1.073.394.306.287.478.684.485 1.118.028 1.646-2.292 3.838-3.5 4.8Z"/></svg>