<svg xmlns="http://www.w3.org/2000/svg" width="512" height="512" data-name="Layer 1" viewBox="0 0 24 24"><path d="M24 7.5C24 6.122 22.879 5 21.5 5H6V2h3V1H2v1h3v3H2.5A2.503 2.503 0 0 0 0 7.5V21h2v2h1v-2h18v2h1v-2h2V7.5ZM23 20H1V7.5C1 6.673 1.673 6 2.5 6h19c.827 0 1.5.673 1.5 1.5V20ZM22 4h-7V3h7v1ZM7 9c-2.206 0-4 1.794-4 4s1.794 4 4 4 4-1.794 4-4-1.794-4-4-4Zm0 7c-1.654 0-3-1.346-3-3s1.346-3 3-3c1.205 0 2.24.718 2.716 1.746L7 12.997l2.69 1.306A2.994 2.994 0 0 1 7 16.001Zm10-7c-2.206 0-4 1.794-4 4s1.794 4 4 4c2 0 4-1.5 4-4 0-2.206-1.794-4-4-4Zm0 7c-1.654 0-3-1.346-3-3s1.346-3 3-3 3 1.346 3 3c0 .309-.06.602-.148.883l-2.845-.89.83 2.874a2.973 2.973 0 0 1-.837.134Z"/></svg>