<svg xmlns="http://www.w3.org/2000/svg" width="512" height="512" data-name="Layer 1" viewBox="0 0 24 24"><path d="M11.5 15.5c.616 0 1.238-.112 1.848-.333l1.379-.499-1.397-.447C11.307 13.573 10 11.916 10 10s1.307-3.573 3.33-4.221l1.397-.447-1.379-.499A5.413 5.413 0 0 0 11.5 4.5C8.467 4.5 6 6.967 6 10s2.467 5.5 5.5 5.5Zm0-10h.067C9.97 6.503 9 8.15 9 10s.97 3.497 2.567 4.5c-2.5.086-4.566-1.996-4.567-4.5 0-2.481 2.019-4.5 4.5-4.5ZM13 9h1.812l.491-1.875h.404L16.197 9h1.802v.382l-1.375.796.552 1.679-.312.218-1.359-1.051-1.364 1.055-.301-.226.543-1.698-1.384-.77v-.384Zm6.5-9h-16C2.673 0 2 .673 2 1.5V24h17.5c1.378 0 2.5-1.122 2.5-2.5v-19C22 1.122 20.878 0 19.5 0Zm-16 1h16c.827 0 1.5.673 1.5 1.5v17.001A2.485 2.485 0 0 0 19.5 19H3V1.5a.5.5 0 0 1 .5-.5Zm16 22H3v-3h16.5c.827 0 1.5.673 1.5 1.5s-.673 1.5-1.5 1.5Z"/></svg>