<svg xmlns="http://www.w3.org/2000/svg" width="512" height="512" data-name="Layer 1" viewBox="0 0 24 24"><path d="M21.5 0h-19A2.503 2.503 0 0 0 0 2.5V24h24V2.5C24 1.122 22.879 0 21.5 0Zm0 1c.827 0 1.5.673 1.5 1.5v19.793l-8.423-8.423A4.508 4.508 0 0 0 18 9.5C18 7.019 15.981 5 13.5 5h-4a2.502 2.502 0 0 0-2.291 1.502L1.854 1.147A1.49 1.49 0 0 1 2.5 1h19ZM8.013 7.306A1.502 1.502 0 0 1 9.5 6h4C15.43 6 17 7.57 17 9.5a3.505 3.505 0 0 1-3.299 3.494L8.013 7.306ZM1 2.5c0-.231.053-.451.147-.646L22.293 23H1V2.5ZM10.465 14H8v5H7v-8.465l1 1V13h1.465l1 1Z"/></svg>