<svg xmlns="http://www.w3.org/2000/svg" width="512" height="512" data-name="Layer 1" viewBox="0 0 24 24"><path d="M14 12c0-.55.45-1 1-1s1 .45 1 1-.45 1-1 1-1-.45-1-1Zm-3 1c.55 0 1-.45 1-1s-.45-1-1-1-1 .45-1 1 .45 1 1 1Zm8 0c.55 0 1-.45 1-1s-.45-1-1-1-1 .45-1 1 .45 1 1 1Zm-4 4c.55 0 1-.45 1-1s-.45-1-1-1-1 .45-1 1 .45 1 1 1Zm-4 0c.55 0 1-.45 1-1s-.45-1-1-1-1 .45-1 1 .45 1 1 1Zm8 0c.55 0 1-.45 1-1s-.45-1-1-1-1 .45-1 1 .45 1 1 1Zm-4 4c.55 0 1-.45 1-1s-.45-1-1-1-1 .45-1 1 .45 1 1 1Zm-4-2c-.55 0-1 .45-1 1s.45 1 1 1 1-.45 1-1-.45-1-1-1Zm8 2c.55 0 1-.45 1-1s-.45-1-1-1-1 .45-1 1 .45 1 1 1Zm5-15.92V24H0V6.5A2.5 2.5 0 0 1 2.5 4h2A2.5 2.5 0 0 1 7 6.5V8h2V2.5A2.5 2.5 0 0 1 11.5 0h7.42L24 5.08ZM19 5h3.5L19 1.5V5ZM6 23V6.5C6 5.67 5.33 5 4.5 5h-2C1.67 5 1 5.67 1 6.5V23h5ZM23 9H7v14h16V9Zm0-1V6h-5V1h-6.5c-.83 0-1.5.67-1.5 1.5V8h13Z"/></svg>