<svg xmlns="http://www.w3.org/2000/svg" width="512" height="512" data-name="Layer 1" viewBox="0 0 24 24"><path d="M20 13h-3.99l.98-10.23c.08-.71-.15-1.41-.62-1.94S15.21 0 14.5 0h-12C1.79 0 1.11.3.64.83s-.7 1.24-.63 1.94L2.05 24H20c2.21 0 4-1.79 4-4v-3c0-2.21-1.79-4-4-4Zm3 4v1H10v-1c0-1.65 1.35-3 3-3h7c1.65 0 3 1.35 3 3Zm-3.56 2-1.94 1.38L15.59 19h3.85ZM1.38 1.5c.29-.32.68-.5 1.12-.5h12c.43 0 .83.18 1.12.5.29.32.42.73.37 1.17l-.32 3.34H1.33l-.32-3.35c-.05-.43.09-.84.38-1.16ZM2.95 23 1.42 7h14.15L15 13h-2c-2.21 0-4 1.79-4 4v3c0 1.2.54 2.27 1.38 3H2.95ZM20 23h-7c-1.65 0-3-1.35-3-3v-1h3.89l3.61 2.62L21.16 19H23v1c0 1.65-1.35 3-3 3Z"/></svg>