<svg xmlns="http://www.w3.org/2000/svg" data-name="Layer 1" viewBox="0 0 24 24"><path d="M21.5 2h-15A2.503 2.503 0 0 0 4 4.5V18h20V4.5C24 3.121 22.878 2 21.5 2ZM18 17h-8v-1.5c0-.827.673-1.5 1.5-1.5h5c.827 0 1.5.673 1.5 1.5V17Zm5 0h-4v-1.5c0-1.379-1.122-2.5-2.5-2.5h-5A2.503 2.503 0 0 0 9 15.5V17H5V4.5C5 3.673 5.673 3 6.5 3h15c.827 0 1.5.673 1.5 1.5V17ZM1 21h19v1H0V8.5c0-1.207.86-2.217 2-2.449v1.042c-.581.207-1 .757-1 1.408v12.5ZM14 5c-1.654 0-3 1.346-3 3s1.346 3 3 3 3-1.346 3-3-1.346-3-3-3Zm0 5c-1.103 0-2-.897-2-2s.897-2 2-2 2 .897 2 2-.897 2-2 2Z"/></svg>