<svg xmlns="http://www.w3.org/2000/svg" width="512" height="512" data-name="Layer 1" viewBox="0 0 24 24"><path d="M24 15.5v-3M17 24H7v-9H4.5A4.505 4.505 0 0 1 0 10.5v-3C0 6.122 1.121 5 2.5 5S5 6.122 5 7.5V10h2V5c0-2.757 2.243-5 5-5s5 2.243 5 5v10h2v-2.5c0-1.378 1.121-2.5 2.5-2.5s2.5 1.122 2.5 2.5v3c0 2.481-2.019 4.5-4.5 4.5H17v4Zm-9-1h8v-4h3.5c1.93 0 3.5-1.57 3.5-3.5v-3c0-.827-.673-1.5-1.5-1.5s-1.5.673-1.5 1.5V16h-4V5c0-2.206-1.794-4-4-4S8 2.794 8 5v6H4V7.5C4 6.673 3.327 6 2.5 6S1 6.673 1 7.5v3C1 12.43 2.57 14 4.5 14H8v9Zm5-12a1 1 0 1 0 0 2 1 1 0 0 0 0-2Zm-2 7a1 1 0 1 0 0 2 1 1 0 0 0 0-2Zm.25-14a1 1 0 1 0 0 2 1 1 0 0 0 0-2Z"/></svg>