<svg xmlns="http://www.w3.org/2000/svg" viewBox="0 0 37.34 36.66"><defs><style>.cls-1{fill:#333;}</style></defs><g id="Layer_2" data-name="Layer 2"><g id="Design"><polygon class="cls-1" points="31.45 3.73 31.45 7.37 33.45 7.37 33.45 0 26.08 0 26.08 2 30.44 2 19.02 9.32 9.36 2.92 0 10.44 1.25 12 9.47 5.39 19 11.7 31.45 3.73"/><polygon class="cls-1" points="0.58 36.66 2.58 36.66 2.58 26.9 5.78 26.9 5.78 24.9 0.58 24.9 0.58 36.66"/><rect class="cls-1" x="7.4" y="24.58" width="2" height="12.08"/><polygon class="cls-1" points="14.55 36.66 16.55 36.66 16.55 21.88 19.75 21.88 19.75 19.88 14.55 19.88 14.55 36.66"/><rect class="cls-1" x="21.37" y="19.55" width="2" height="17.11"/><polygon class="cls-1" points="28.52 36.66 30.52 36.66 30.52 16.65 33.73 16.65 33.73 14.65 28.52 14.65 28.52 36.66"/><rect class="cls-1" x="35.34" y="14.4" width="2" height="22.27"/></g></g></svg>