<svg xmlns="http://www.w3.org/2000/svg" viewBox="0 0 36.65 36.62"><defs><style>.cls-1{fill:#333;}</style></defs><g id="Layer_2" data-name="Layer 2"><g id="Design"><rect class="cls-1" x="17.34" y="11.3" width="2" height="13.99"/><path class="cls-1" d="M35.82,16.42a4.76,4.76,0,0,0-2.31-1.8,7.52,7.52,0,0,0,.76-1A6.29,6.29,0,0,0,35,8.81a6.19,6.19,0,0,0-5.27-4.76A6.47,6.47,0,0,0,18.31,2.93a6.47,6.47,0,0,0-4-2.8A6.52,6.52,0,0,0,6.92,4.05,6.2,6.2,0,0,0,1.64,8.8a6.32,6.32,0,0,0,1.51,5.82A4.75,4.75,0,0,0,.83,16.43a5,5,0,0,0-.72,3.74,5.05,5.05,0,0,0,2.1,3.21l1.16-1.63a3.11,3.11,0,0,1-1.3-2,3,3,0,0,1,.44-2.26,3.45,3.45,0,0,1,3.26-1.22l.52.14.58-1.91a4.91,4.91,0,0,0-.58-.17,4.19,4.19,0,0,1-2.2-1.78,4.33,4.33,0,0,1-.5-3.3A4.17,4.17,0,0,1,7.65,6h.76l.2-.74a4.51,4.51,0,0,1,5.24-3.18,4.4,4.4,0,0,1,3.44,3.79l.14.89h1.81l.08-.91a4.43,4.43,0,0,1,3.46-3.77A4.51,4.51,0,0,1,28,5.27l.2.74H29a4.19,4.19,0,0,1,4.06,3.27,4.27,4.27,0,0,1-.51,3.29,4.16,4.16,0,0,1-2.2,1.78,5.54,5.54,0,0,0-.58.17l.59,1.91.52-.14a3.39,3.39,0,0,1,3.24,1.21,3,3,0,0,1,.45,2.32,3.1,3.1,0,0,1-1.3,1.93l1.16,1.63a5.1,5.1,0,0,0,1.38-7Z"/><path class="cls-1" d="M28.61,22.49l-.46,1.94a3.51,3.51,0,0,1-.75,6.9l-.7,0-.22.67A3.75,3.75,0,0,1,23,34.61h-.11a3.56,3.56,0,0,1-2.71-.77,3,3,0,0,1-.77-2.26h-2a3,3,0,0,1-.77,2.26,3.55,3.55,0,0,1-2.7.77h-.12A3.75,3.75,0,0,1,10.26,32L10,31.36l-.7,0a3.51,3.51,0,0,1-.75-6.9l-.46-1.94A5.51,5.51,0,0,0,8.6,33.27a5.7,5.7,0,0,0,5.21,3.34h.36A5.27,5.27,0,0,0,18,35.28a3.47,3.47,0,0,0,.39-.47,3.47,3.47,0,0,0,.39.47,5.29,5.29,0,0,0,3.84,1.34H23a5.69,5.69,0,0,0,5.18-3.34,5.51,5.51,0,0,0,.47-10.78Z"/></g></g></svg>