<svg xmlns="http://www.w3.org/2000/svg" viewBox="0 0 43.37 43.34"><defs><style>.cls-1{fill:#333;}</style></defs><g id="Layer_2" data-name="Layer 2"><g id="Design"><path class="cls-1" d="M31.68,15.51a16.34,16.34,0,1,1-3.93-3.91L28.9,10a18.36,18.36,0,1,0,4.41,4.39Z"/><path class="cls-1" d="M18.35,15.45a9.48,9.48,0,0,1,4.52,1.14l.95-1.76a11.52,11.52,0,1,0,4.65,4.61l-1.76,1a9.53,9.53,0,1,1-8.36-4.95Z"/><path class="cls-1" d="M40.28,3.55h-.46V3.09a3.1,3.1,0,0,0-6.19,0V8.25l-13,13A4.37,4.37,0,1,0,22.73,25a4.29,4.29,0,0,0-.67-2.29L35,9.73h5.3a3.09,3.09,0,0,0,0-6.18ZM18.35,27.36A2.38,2.38,0,1,1,20.73,25,2.38,2.38,0,0,1,18.35,27.36ZM40.28,7.73H35.63V3.09a1.1,1.1,0,0,1,2.19,0V5.55h2.46a1.09,1.09,0,0,1,0,2.18Z"/></g></g></svg>