<svg xmlns="http://www.w3.org/2000/svg" viewBox="0 0 30.35 40.2"><defs><style>.cls-1{fill:#333;}</style></defs><g id="Layer_2" data-name="Layer 2"><g id="Design"><rect class="cls-1" x="13.98" width="2" height="5.15"/><rect class="cls-1" x="3.78" y="2.6" width="2" height="4.84" transform="translate(-1.49 2.07) rotate(-21.22)"/><rect class="cls-1" x="22.93" y="4.02" width="4.84" height="2" transform="translate(11.49 26.84) rotate(-68.79)"/><rect class="cls-1" x="13.48" y="17.84" width="3.12" height="2"/><path class="cls-1" d="M30,17.83H23.75l.94-2.64,1,1h2.83L25,12.67a1,1,0,0,0-.71-.3h0l-18.6.09a1,1,0,0,0-.73.32L1.74,16.24H4.47l.83-.9.91,2.5H.32a1.93,1.93,0,0,0,0,2.2L14.2,39.78a1,1,0,0,0,.81.42h0a1,1,0,0,0,.81-.41L30,20.19A2.19,2.19,0,0,0,30,17.83Zm-27.37,2H6.93l4.58,12.61ZM15,36.26l-6-16.42h2.53v-2H8.33L7.11,14.45l15.75-.07-1.24,3.46H18.49v2H20.9Zm3.34-3.39,4.67-13h4.72Z"/></g></g></svg>