<svg xmlns="http://www.w3.org/2000/svg" viewBox="0 0 36.67 35.68"><defs><style>.cls-1{fill:#f0f;}</style></defs><g id="Layer_2" data-name="Layer 2"><g id="Design"><path class="cls-1" d="M15.28,22.77a3.08,3.08,0,1,0,3.07-3.08A3.07,3.07,0,0,0,15.28,22.77Zm4.15,0a1.08,1.08,0,1,1-1.08-1.08A1.08,1.08,0,0,1,19.43,22.77Z"/><path class="cls-1" d="M0,19.71l1.69,1.07A19.66,19.66,0,0,1,18.33,12,19.64,19.64,0,0,1,35,20.79l1.7-1.07a20.44,20.44,0,0,0-7.23-6.81l5.47-5.48L33.5,6,27.57,12A22.52,22.52,0,0,0,19.28,10V0h-2V10a22.54,22.54,0,0,0-8.17,1.93L3.19,6,1.78,7.43l5.46,5.46A20.5,20.5,0,0,0,0,19.71Z"/><path class="cls-1" d="M18.33,33.68a19.66,19.66,0,0,1-16.64-8.8L0,25.94a21.67,21.67,0,0,0,18.33,9.74,21.69,21.69,0,0,0,18.34-9.75L35,24.87A19.66,19.66,0,0,1,18.33,33.68Z"/></g></g></svg>