<svg xmlns="http://www.w3.org/2000/svg" viewBox="0 0 47.11 45.32"><defs><style>.cls-1{fill:#333;}</style></defs><g id="Layer_2" data-name="Layer 2"><g id="Design"><path class="cls-1" d="M4.27,13.2A6.93,6.93,0,0,1,1.7,10.61L0,11.66A8.92,8.92,0,0,0,3.29,15,9.09,9.09,0,0,0,7.91,16.2a9.22,9.22,0,0,0,8-4.56l-1.73-1A7.21,7.21,0,0,1,4.27,13.2Z"/><path class="cls-1" d="M23.45,29.74a5.34,5.34,0,0,1-5.34-5.34h-2a7.34,7.34,0,0,0,7.34,7.34,7.56,7.56,0,0,0,7.49-7.29l-2-.09A5.63,5.63,0,0,1,23.45,29.74Z"/><path class="cls-1" d="M45.41,10.56a8.34,8.34,0,0,1-2.67,2.68,7.22,7.22,0,0,1-5.43.67A6.88,6.88,0,0,1,33,10.6l-1.76,1a8.92,8.92,0,0,0,5.56,4.28,8.84,8.84,0,0,0,2.4.32A9.52,9.52,0,0,0,43.75,15a10.31,10.31,0,0,0,3.36-3.37Z"/><path class="cls-1" d="M31.16,7.92,32.87,9a8.17,8.17,0,0,1,2.69-2.7A7.15,7.15,0,0,1,45.3,9l1.73-1a9.23,9.23,0,0,0-2-2.35l1.43-2.07L44.85,2.38,43.41,4.45a9.24,9.24,0,0,0-3.59-1.08H40V0H38V3.37h.34a8.8,8.8,0,0,0-3.49,1l-1.39-2L31.83,3.52l1.39,2A10.47,10.47,0,0,0,31.16,7.92Z"/><path class="cls-1" d="M37.05,9.9a2.14,2.14,0,1,0,2.14-2.14A2.14,2.14,0,0,0,37.05,9.9Zm2.78,0a.64.64,0,0,1-.64.64.64.64,0,1,1,.64-.64Z"/><rect class="cls-1" x="22.54" y="40.18" width="2" height="5.15"/><rect class="cls-1" x="32.74" y="37.88" width="2" height="4.84" transform="translate(-12.3 14.95) rotate(-21.22)"/><rect class="cls-1" x="10.75" y="39.3" width="4.84" height="2" transform="translate(-29.16 38) rotate(-68.79)"/></g></g></svg>