<svg xmlns="http://www.w3.org/2000/svg" viewBox="0 0 36.66 36.66"><defs><style>.cls-1{fill:#333;}</style></defs><g id="Layer_2" data-name="Layer 2"><g id="Design"><path class="cls-1" d="M34.28.52l-.1-.05a4.24,4.24,0,0,0-2-.47,4.35,4.35,0,0,0-3.32,1.54A13.86,13.86,0,0,1,18.33,6.36,13.84,13.84,0,0,1,7.76,1.54,4.39,4.39,0,0,0,4.43,0,4.24,4.24,0,0,0,2.48.47l-.1.05A4.34,4.34,0,0,0,1,7.19,22.22,22.22,0,0,0,11.19,14v7.55a7.16,7.16,0,0,0,6.14,7.07v8h2v-8a7.15,7.15,0,0,0,6.16-7.07V14A22.22,22.22,0,0,0,35.65,7.19,4.35,4.35,0,0,0,34.28.52ZM23.49,21.57a5.15,5.15,0,1,1-10.3,0v-7a23.18,23.18,0,0,0,2.33.41v6.15h2v-6l.81,0,.82,0v6h2V15c.78-.1,1.57-.24,2.34-.41ZM34.12,5.9a20.58,20.58,0,0,1-15.79,7.24A20.56,20.56,0,0,1,2.55,5.9a2.35,2.35,0,0,1,.74-3.6l.1,0a2.25,2.25,0,0,1,1-.25,2.41,2.41,0,0,1,1.81.84A15.83,15.83,0,0,0,18.33,8.36a15.87,15.87,0,0,0,12.1-5.52A2.37,2.37,0,0,1,32.23,2a2.27,2.27,0,0,1,1.08.27l.06,0a2.37,2.37,0,0,1,1.25,1.64A2.31,2.31,0,0,1,34.12,5.9Z"/><path class="cls-1" d="M26.52,8.53a2.34,2.34,0,0,1-1.7.56L23.17,9a3.8,3.8,0,0,0-2.71.86,2.31,2.31,0,0,1-2.4.34l-3-1.31a3.79,3.79,0,0,0-2.18-.26l-1.74.3a2.31,2.31,0,0,1-2.3-1L7.31,5.64l-1.24.85L7.64,8.77a3.79,3.79,0,0,0,3.78,1.6l1.75-.3a2.31,2.31,0,0,1,1.32.16l3,1.3a3.73,3.73,0,0,0,1.53.33A3.78,3.78,0,0,0,21.41,11a2.29,2.29,0,0,1,1.65-.52l1.65.13a3.84,3.84,0,0,0,2.79-.93l2.95-2.58L29.47,6Z"/></g></g></svg>