<svg xmlns="http://www.w3.org/2000/svg" viewBox="0 0 25.83 45.51"><defs><style>.cls-1{fill:#333;}</style></defs><g id="Layer_2" data-name="Layer 2"><g id="Design"><path class="cls-1" d="M14.1,10,13,9.05,11.87,10C11.76,10.07.32,18.78.32,27.57a12.64,12.64,0,0,0,9.76,12.31l.47-1.94A10.65,10.65,0,0,1,2.32,27.57c0-7.18,9.3-14.84,10.63-15.89,1.88,1.52,10.63,9,10.63,15.89a10.68,10.68,0,0,1-8.22,10.37l.47,1.94a12.67,12.67,0,0,0,9.75-12.31C25.58,19.91,16.84,12.25,14.1,10Z"/><rect class="cls-1" x="7.69" y="28.36" width="2" height="4" transform="translate(-20.21 17.63) rotate(-50.26)"/><rect class="cls-1" x="15.08" y="27.29" width="4.35" height="2" transform="translate(-14.96 20.52) rotate(-45.07)"/><polygon class="cls-1" points="17.85 20.12 16.28 18.89 13.06 22.99 10.39 20.46 9.02 21.91 11.95 24.7 11.95 45.51 13.95 45.51 13.95 25.08 17.85 20.12"/><rect class="cls-1" x="11.9" width="2" height="4.97"/><rect class="cls-1" x="1.35" y="5.47" width="2" height="4.66" transform="translate(-4.82 3.95) rotate(-45)"/><rect class="cls-1" x="21.15" y="6.73" width="4.66" height="2" transform="translate(1.41 18.87) rotate(-45)"/></g></g></svg>