<svg xmlns="http://www.w3.org/2000/svg" viewBox="0 0 36.65 36.64"><defs><style>.cls-1{fill:#f0f;}</style></defs><g id="Layer_2" data-name="Layer 2"><g id="Design"><path class="cls-1" d="M12.56,17.31v1.5a6.39,6.39,0,0,0,6.28-6.27l-1.5,0A4.87,4.87,0,0,1,12.56,17.31Z"/><polygon class="cls-1" points="27 22.18 25.59 23.6 33.81 31.76 31.76 33.82 23.53 25.65 22.13 27.07 31.76 36.64 36.65 31.76 27 22.18"/><path class="cls-1" d="M23.6,25,25,23.59l-4.16-4.15a11.47,11.47,0,0,0,2.77-7.63,11.76,11.76,0,1,0-4.18,9ZM2,11.81a9.81,9.81,0,1,1,19.62,0,9.51,9.51,0,0,1-2.78,6.85A9.84,9.84,0,0,1,2,11.81Z"/></g></g></svg>