<svg xmlns="http://www.w3.org/2000/svg" viewBox="0 0 36.66 36.63"><defs><style>.cls-1{fill:#f0f;}</style></defs><g id="Layer_2" data-name="Layer 2"><g id="Design"><path class="cls-1" d="M31,22.84a3.5,3.5,0,0,0-2.52-1.13,3.62,3.62,0,0,0-2.7,1.1L23.56,25,11.78,13.22,13.94,11a3.49,3.49,0,0,0,1.13-2.52A3.67,3.67,0,0,0,14,5.77L9.34,1.14A3.67,3.67,0,0,0,4.17,1,13.06,13.06,0,0,0,.82,4.52,8.61,8.61,0,0,0,0,8.28C.48,24.57,12.23,36.23,28.61,36.63h.31a8.26,8.26,0,0,0,3.13-.53l.14-.06a14.34,14.34,0,0,0,3.48-3.43,3.77,3.77,0,0,0-.1-5.17Zm3.24,8.4-.08.11a13.3,13.3,0,0,1-2.85,2.91,6.33,6.33,0,0,1-2.35.37h-.28C13.4,34.26,2.45,23.4,2,8.25a6.56,6.56,0,0,1,.58-2.77A10.7,10.7,0,0,1,5.42,2.6l.12-.1A1.68,1.68,0,0,1,6.71,2a1.72,1.72,0,0,1,1.22.52l4.63,4.63a1.69,1.69,0,0,1,.51,1.24,1.58,1.58,0,0,1-.53,1.14l-2.22,2.3a1.88,1.88,0,0,0,0,2.72L22.2,26.46a1.87,1.87,0,0,0,2.72,0l2.24-2.23a1.63,1.63,0,0,1,1.24-.52,1.53,1.53,0,0,1,1.12.52l4.63,4.62A1.76,1.76,0,0,1,34.2,31.24Z"/><rect class="cls-1" x="28.19" y="4.98" width="4.97" height="2" transform="translate(4.76 23.44) rotate(-45)"/><rect class="cls-1" x="17.33" width="2" height="4.66"/><rect class="cls-1" x="32" y="17.33" width="4.66" height="2"/></g></g></svg>