<svg xmlns="http://www.w3.org/2000/svg" viewBox="0 0 28.6 36.66"><defs><style>.cls-1{fill:#333;}</style></defs><g id="Layer_2" data-name="Layer 2"><g id="Design"><path class="cls-1" d="M14.3,0A14.31,14.31,0,0,0,0,14.3c0,5,5.27,12.48,9.7,17.86l1.54-1.27C5.28,23.64,2,17.74,2,14.3a12.3,12.3,0,0,1,24.6,0c0,8-10,17.07-13.35,20.07-.48.42-.81.73-1,.9l1.44,1.39c.15-.15.46-.43.88-.81,3.46-3.14,14-12.7,14-21.55A14.31,14.31,0,0,0,14.3,0Z"/><path class="cls-1" d="M18.19,13a3.89,3.89,0,1,0-3.89,3.88A3.9,3.9,0,0,0,18.19,13Zm-5.77,0a1.89,1.89,0,1,1,1.88,1.88A1.89,1.89,0,0,1,12.42,13Z"/></g></g></svg>