<svg xmlns="http://www.w3.org/2000/svg" viewBox="0 0 45.69 44.56"><defs><style>.cls-1{fill:#333;}</style></defs><g id="Layer_2" data-name="Layer 2"><g id="Design"><path class="cls-1" d="M12.19,4.94a9.69,9.69,0,0,1,2.73,8.86l2,.44A11.68,11.68,0,0,0,13.6,3.53,11.68,11.68,0,0,0,2.9.26l.44,2A9.67,9.67,0,0,1,12.19,4.94Z"/><path class="cls-1" d="M14.24,16.87l-.44-2a9.69,9.69,0,0,1-8.86-2.73A9.67,9.67,0,0,1,2.21,3.34L.26,2.9A11.68,11.68,0,0,0,3.53,13.6a11.89,11.89,0,0,0,8.35,3.54A10.42,10.42,0,0,0,14.24,16.87Z"/><path class="cls-1" d="M45.43,3.1l-2,.45a9.65,9.65,0,0,1-2.73,8.84,9.69,9.69,0,0,1-8.85,2.74l-.45,1.95a11.08,11.08,0,0,0,2.36.26,11.92,11.92,0,0,0,8.35-3.53A11.68,11.68,0,0,0,45.43,3.1Z"/><path class="cls-1" d="M30.77,14A9.67,9.67,0,0,1,33.5,5.15a9.69,9.69,0,0,1,8.85-2.74L42.79.46a11.71,11.71,0,0,0-10.7,3.27,11.68,11.68,0,0,0-3.27,10.71Z"/><rect class="cls-1" x="32.37" y="35.91" width="5.7" height="2"/><rect class="cls-1" x="14.62" y="41.34" width="3.95" height="2" transform="translate(-26.94 29.19) rotate(-51.78)"/><rect class="cls-1" x="28.1" y="40.48" width="2" height="3.86" transform="translate(-19.77 26.36) rotate(-37.36)"/><path class="cls-1" d="M29.68,31.89l-1.43-1.4-4.73,4.83a.85.85,0,0,1-1.12,0l-4.87-4.87L16.12,31.9,21,36.78a2.8,2.8,0,0,0,.88.58V41h2V37.37a3.22,3.22,0,0,0,1-.6Z"/><rect class="cls-1" x="7.62" y="35.91" width="5.7" height="2"/><path class="cls-1" d="M35.52,24a2.1,2.1,0,1,0-2.1,2.1A2.1,2.1,0,0,0,35.52,24Zm-2.7,0A.6.6,0,1,1,34,24a.61.61,0,0,1-.6.6A.57.57,0,0,1,32.82,24Z"/><path class="cls-1" d="M12.27,21.85a2.1,2.1,0,0,0,0,4.2,2.1,2.1,0,0,0,2.1-2.1A2.07,2.07,0,0,0,12.27,21.85Zm0,2.7a.6.6,0,1,1,.6-.6A.61.61,0,0,1,12.27,24.55Z"/></g></g></svg>