<svg xmlns="http://www.w3.org/2000/svg" viewBox="0 0 37.1 38.17"><defs><style>.cls-1{fill:#333;}</style></defs><g id="Layer_2" data-name="Layer 2"><g id="Design"><path class="cls-1" d="M4.92,26.05V12.58H32.55v-2H4.92V9.91A7.25,7.25,0,0,0,1,3.42L0,5.17A5.29,5.29,0,0,1,2.92,9.91V26.05Z"/><rect class="cls-1" x="4.91" y="26.85" width="27.43" height="2"/><path class="cls-1" d="M24.78,30.06a4.06,4.06,0,1,0,4,4.05A4.06,4.06,0,0,0,24.78,30.06Zm0,6.11a2.06,2.06,0,1,1,2-2.06A2.06,2.06,0,0,1,24.78,36.17Z"/><path class="cls-1" d="M11.2,30.06a4.06,4.06,0,1,0,4.06,4.05A4.06,4.06,0,0,0,11.2,30.06Zm0,6.11a2.06,2.06,0,1,1,2.06-2.06A2.06,2.06,0,0,1,11.2,36.17Z"/><rect class="cls-1" x="18.82" width="2" height="4.35"/><rect class="cls-1" x="10.2" y="2.2" width="2" height="4.09" transform="translate(-0.78 4.34) rotate(-21.22)"/><rect class="cls-1" x="26.53" y="3.24" width="4.09" height="2" transform="translate(14.27 29.34) rotate(-68.76)"/><polygon class="cls-1" points="35.05 10.6 31.78 25.42 33.73 25.85 37.1 10.6 35.05 10.6"/></g></g></svg>