<svg xmlns="http://www.w3.org/2000/svg" viewBox="0 0 28.46 39.93"><defs><style>.cls-1{fill:#333;}</style></defs><g id="Layer_2" data-name="Layer 2"><g id="Design"><path class="cls-1" d="M28.26,20.42A6.25,6.25,0,0,0,23,15.74l1.7-11.27A3.92,3.92,0,0,0,21.43,0,4,4,0,0,0,17,3.34L15.59,12.8,11.22,3A4.07,4.07,0,0,0,9.08,1,3.88,3.88,0,0,0,4.13,6.24L10,19.1a3.43,3.43,0,0,0-4-.13A3.52,3.52,0,0,0,4.4,21.26l0,.23a2.85,2.85,0,0,0-2.89,0A2.93,2.93,0,0,0,.06,23.4a2.6,2.6,0,0,0,.69,2.34l3.33,4a3,3,0,0,0,1.88,1l.38,0a2.85,2.85,0,0,0,1.8-.69,2.91,2.91,0,0,0,.95-1.57l1.14,1.35A3.56,3.56,0,0,0,12.61,31a2.23,2.23,0,0,0,.37,0,3.45,3.45,0,0,0,2.23-.89,3.57,3.57,0,0,0,.61-4.51,4,4,0,0,0,2.94-.28l4.73-2.63-1-1.75-4.7,2.62a1.85,1.85,0,0,1-2.66-2.21A2,2,0,0,1,16,20.31l.43-.2.91,1.74,1.33-.69-.89-1.71,3.38-1.63,0,0a4.1,4.1,0,0,1,3.19.49,4.3,4.3,0,0,1,1.94,2.63,4.11,4.11,0,0,1-.49,3.19A4.2,4.2,0,0,1,23.26,26l.24.86c.65,3,.4,5.77-.72,7.53a5.24,5.24,0,0,1-3.57,2.34c-2.94.58-6.23,1.19-6.65,1.21-2.93,0-6.2-3.13-7.16-6.84l-1.93.5c1.2,4.67,5.19,8.34,9.09,8.34.63,0,5.13-.87,7-1.25a7.17,7.17,0,0,0,4.87-3.23c1.73-2.73,1.5-6.22,1.12-8.35a5.89,5.89,0,0,0,2-2A6.07,6.07,0,0,0,28.26,20.42ZM6.87,28.53a.82.82,0,0,1-.6.23,1,1,0,0,1-.69-.33l-.23-.28L6,27.61,5,26.46,4.39,27l-2.1-2.54h0C2.16,24.31,2,24,2,23.84a1,1,0,0,1,.47-.58A1.09,1.09,0,0,1,3,23.12a.89.89,0,0,1,.73.4L7,27.27A.93.93,0,0,1,6.87,28.53Zm7,.12a1.39,1.39,0,0,1-1,.4,1.73,1.73,0,0,1-1.09-.48l1.29-1.14-1-1.12L10.8,27.43l-4-4.69,0,0a1.32,1.32,0,0,1-.46-1.06,1.61,1.61,0,0,1,.75-1A1.55,1.55,0,0,1,8,20.4a1.59,1.59,0,0,1,1.26.69L14,26.54A1.52,1.52,0,0,1,13.89,28.65Zm1.24-10.13a3.92,3.92,0,0,0-1.88,2.25,3.72,3.72,0,0,0-.14,1.72l-2.34-2.66a3.82,3.82,0,0,0-.66-.67l1.77-.82L6,5.4A1.88,1.88,0,0,1,8.31,2.85a2.09,2.09,0,0,1,1.08,1l.28.61-1.62.73.61,1.36,1.62-.72,4.89,10.94.91-.41,1,.15L19,3.64A2,2,0,0,1,21.13,2a1.92,1.92,0,0,1,1.62,2.16l-.1.6-1.59-.24L20.84,6l1.59.23L21,15.81l-.36.08Z"/></g></g></svg>