<?xml version="1.0" standalone="no"?>
<!DOCTYPE svg PUBLIC "-//W3C//DTD SVG 20010904//EN"
 "http://www.w3.org/TR/2001/REC-SVG-20010904/DTD/svg10.dtd">
<svg version="1.0" xmlns="http://www.w3.org/2000/svg"
 width="1680.000000pt" height="1680.000000pt" viewBox="0 0 1680.000000 1680.000000"
 preserveAspectRatio="xMidYMid meet">
<metadata>
Created by potrace 1.14, written by Peter Selinger 2001-2017
</metadata>
<g transform="translate(0.000000,1680.000000) scale(0.100000,-0.100000)"
fill="#000000" stroke="none">
<path d="M2007 13036 c-2 -6 -3 -346 -2 -756 1 -410 -1 -751 -3 -759 -4 -10
-8 -8 -16 6 -24 43 -93 121 -144 163 -30 25 -60 51 -68 58 -7 6 -15 12 -19 12
-4 0 -25 13 -48 28 -98 65 -243 121 -367 140 -58 9 -283 9 -335 0 -22 -4 -55
-12 -74 -17 -19 -6 -37 -8 -42 -6 -4 3 -10 1 -13 -4 -3 -5 -18 -12 -32 -15
-28 -7 -109 -42 -134 -57 -8 -5 -24 -13 -35 -18 -11 -5 -37 -21 -58 -35 -21
-14 -42 -26 -47 -26 -4 0 -10 -3 -12 -7 -1 -5 -25 -26 -53 -48 -103 -81 -201
-198 -279 -329 -25 -42 -46 -79 -46 -82 0 -2 -11 -27 -24 -56 -24 -52 -61
-161 -71 -206 -3 -12 -7 -32 -10 -44 -3 -13 -7 -36 -10 -53 -3 -16 -8 -43 -11
-60 -3 -16 -7 -64 -9 -105 -2 -41 -4 -75 -5 -75 -1 0 -2 -33 -3 -73 -1 -39 0
-72 3 -72 3 0 5 -17 4 -37 0 -21 7 -82 16 -135 9 -54 14 -98 11 -98 -3 0 0 -5
7 -12 7 -7 12 -22 12 -35 0 -13 4 -31 9 -41 5 -9 14 -35 21 -57 19 -66 61
-158 108 -238 91 -156 234 -308 380 -401 171 -109 331 -156 547 -162 139 -3
229 9 345 47 65 22 96 35 185 83 88 47 214 162 273 249 18 26 36 47 40 47 4 0
7 -87 7 -193 0 -125 3 -194 10 -195 11 -1 81 -2 205 -3 82 0 89 0 200 1 l76 1
-1 1842 0 1842 -242 1 c-163 0 -243 -3 -246 -10z m-566 -1569 c150 -49 270
-136 377 -273 48 -60 133 -232 148 -296 2 -10 6 -27 9 -38 13 -50 16 -68 22
-115 11 -97 8 -180 -11 -300 -7 -40 -30 -121 -44 -155 -9 -19 -16 -40 -18 -45
-1 -6 -25 -50 -54 -99 -59 -99 -166 -214 -251 -268 -59 -38 -149 -81 -149 -71
0 3 -6 1 -12 -5 -38 -30 -252 -37 -356 -11 -146 37 -285 128 -380 251 -79 102
-153 260 -167 358 -2 8 -6 29 -10 45 -9 36 -15 316 -7 330 3 5 7 19 8 31 7 61
16 99 24 102 6 2 8 8 5 12 -6 10 46 143 58 148 4 2 7 10 7 17 0 44 158 232
239 283 14 9 28 19 31 23 16 19 176 81 240 92 52 9 246 -2 291 -16z"/>
<path d="M6490 12643 c0 -5 -51 -8 -112 -7 l-113 2 -2 -72 c-4 -175 -18 -298
-44 -401 -23 -91 -122 -245 -157 -245 -7 0 -12 -5 -12 -10 0 -6 -12 -16 -27
-22 -16 -7 -35 -17 -43 -23 -25 -19 -208 -76 -247 -77 -5 0 -16 -4 -25 -9 -16
-9 -18 -28 -18 -169 l0 -160 245 0 c226 0 245 -1 246 -17 5 -108 3 -1122 -3
-1134 -4 -9 -5 -19 -1 -22 3 -4 7 -62 9 -129 4 -124 7 -158 19 -213 4 -16 8
-39 10 -50 2 -11 6 -30 9 -42 3 -13 8 -32 10 -43 3 -10 22 -57 44 -102 52
-111 88 -153 185 -220 58 -40 162 -90 212 -104 66 -17 136 -35 160 -40 46 -9
361 -13 403 -4 20 4 62 11 92 14 30 4 61 10 68 15 10 6 14 60 15 229 l2 221
-35 -4 c-19 -2 -35 -4 -35 -5 0 -8 -73 -13 -195 -13 -156 -1 -248 16 -302 55
-15 10 -28 16 -28 12 0 -4 -21 14 -46 40 -47 49 -78 105 -90 166 -7 37 -13
1356 -6 1378 3 9 86 12 368 12 l364 0 1 53 c1 185 0 389 -3 392 -6 7 -216 8
-226 2 -5 -4 -12 -4 -14 -1 -3 3 -115 6 -249 7 l-244 2 0 363 c0 237 -3 363
-10 364 -5 0 -42 2 -80 2 -39 1 -76 5 -83 9 -6 5 -12 4 -12 0z"/>
<path d="M4098 11935 c-2 -1 -23 -5 -48 -9 -97 -12 -260 -52 -275 -67 -5 -5
-15 -9 -22 -9 -23 0 -199 -90 -234 -120 -9 -8 -39 -31 -64 -50 -89 -66 -234
-229 -269 -300 -12 -26 -31 -57 -45 -74 -7 -9 -10 -16 -6 -16 4 0 3 -6 -3 -13
-13 -15 -78 -181 -86 -218 -3 -13 -10 -42 -16 -64 -5 -22 -13 -58 -16 -80 -3
-22 -9 -57 -14 -78 -10 -47 -10 -398 0 -412 4 -5 10 -30 13 -55 9 -74 35 -179
48 -194 5 -6 9 -19 9 -30 0 -45 122 -271 199 -370 32 -40 179 -184 207 -202
16 -10 33 -24 37 -31 4 -7 12 -13 17 -13 5 0 26 -12 47 -26 46 -31 197 -104
216 -104 8 0 17 -3 21 -7 3 -4 12 -8 19 -10 7 -1 46 -11 88 -22 108 -27 221
-41 344 -42 27 -1 181 12 208 16 73 13 83 15 115 24 17 5 32 7 32 4 0 -3 7 0
15 7 8 7 15 9 15 6 0 -4 10 -1 23 6 12 7 24 13 27 13 32 7 90 30 90 37 0 4 6
8 13 8 28 1 217 114 217 130 0 5 8 11 19 15 23 7 175 158 218 217 34 47 134
206 132 210 -1 2 10 28 24 59 43 95 85 245 104 374 6 42 6 323 -1 365 -2 19
-6 50 -7 68 -2 17 -6 32 -9 32 -3 0 -6 13 -7 30 -3 40 -54 192 -94 276 -79
169 -181 306 -311 419 -69 60 -106 88 -138 102 -8 4 -17 10 -20 14 -13 18
-175 95 -262 125 -126 43 -267 63 -433 62 -74 0 -135 -2 -137 -3z m378 -478
c92 -31 134 -50 134 -59 0 -5 5 -8 11 -8 39 0 191 -138 253 -230 55 -80 148
-290 129 -290 -3 0 -1 -6 4 -12 6 -7 11 -20 11 -28 0 -8 4 -37 8 -65 13 -89 8
-254 -10 -330 -2 -11 -7 -33 -11 -50 -10 -44 -42 -130 -66 -178 -30 -61 -113
-187 -122 -187 -5 0 -20 -14 -34 -30 -67 -80 -206 -161 -333 -196 -66 -18
-264 -24 -340 -10 -90 16 -233 80 -295 131 -16 14 -45 37 -63 52 -82 68 -222
289 -222 350 0 11 -3 23 -7 27 -5 4 -9 12 -9 17 -1 5 -3 10 -4 12 -1 1 -4 16
-6 32 -2 17 -7 48 -12 70 -4 22 -8 52 -7 68 1 15 -1 27 -5 27 -5 0 -4 16 0 36
5 20 5 47 0 59 -5 13 -6 26 -3 29 5 5 9 34 15 113 2 18 7 33 12 33 5 0 7 3 3
6 -6 7 17 93 40 144 53 123 108 204 190 285 51 50 125 105 142 105 6 0 11 3
11 8 0 15 159 78 224 88 22 3 43 8 45 10 3 2 59 2 125 0 94 -3 137 -10 192
-29z"/>
<path d="M8195 10049 c-64 -12 -69 -13 -83 -27 -8 -7 -17 -10 -22 -7 -4 3 -10
-2 -14 -10 -3 -8 -11 -15 -18 -15 -32 0 -119 -120 -143 -198 -12 -41 -13 -144
-1 -196 27 -114 85 -186 197 -243 71 -35 202 -41 286 -12 154 53 245 189 238
354 -4 90 -6 101 -23 133 -7 12 -10 22 -7 22 10 0 -46 72 -85 110 -33 32 -58
47 -130 79 -32 14 -143 20 -195 10z"/>
<path d="M1148 7485 c-2 -1 -27 -6 -57 -9 -130 -15 -267 -58 -359 -112 -51
-30 -182 -159 -182 -179 0 -7 -4 -15 -9 -17 -8 -3 -80 -139 -82 -155 -1 -5 -5
-19 -10 -32 -5 -13 -11 -31 -12 -40 -1 -9 -5 -21 -9 -26 -3 -6 -9 -30 -13 -55
-4 -25 -8 -47 -10 -50 -13 -22 -38 -303 -39 -433 l0 -78 -159 2 c-87 0 -161
-2 -164 -5 -7 -7 -8 -434 -1 -441 3 -3 76 -6 162 -6 86 0 157 -3 157 -7 1 -4
2 -473 3 -1042 l2 -1035 47 -1 c26 -1 50 -4 54 -7 3 -4 14 -2 24 4 11 5 19 6
19 2 0 -4 18 -8 40 -8 22 0 40 3 40 6 0 7 56 3 69 -6 6 -3 11 -3 11 2 0 9 103
8 118 -1 6 -3 13 -2 17 3 3 6 15 7 29 1 l23 -8 1 1036 c0 570 1 1043 1 1050 1
9 82 12 369 12 l367 0 0 225 0 225 -367 0 -368 0 -1 28 c-6 168 3 360 20 420
5 17 7 33 3 36 -3 3 0 6 6 6 7 0 12 7 12 15 0 32 58 107 110 144 128 90 299
107 510 52 51 -14 72 -16 75 -8 7 25 18 73 21 97 1 14 5 36 8 50 9 40 28 142
32 171 2 15 8 45 13 68 9 40 8 43 -17 52 -24 10 -97 26 -192 44 -36 7 -306 16
-312 10z"/>
<path d="M16264 7441 c-7 -4 -11 -3465 -5 -3659 1 -21 5 -31 12 -27 13 9 79
12 79 5 0 -3 18 -5 40 -5 22 0 40 3 40 6 0 7 97 2 109 -6 5 -3 12 -1 15 4 4 5
18 6 34 2 15 -4 43 -4 64 -1 20 4 42 4 48 0 7 -4 20 -5 31 -3 17 5 18 34 16
709 -1 387 2 704 6 704 5 0 5 5 2 10 -4 6 -7 518 -6 1139 l0 1129 -239 0
c-131 0 -242 -3 -246 -7z"/>
<path d="M9868 7245 c-1 -1 -24 -5 -50 -8 -103 -12 -205 -88 -250 -185 -34
-73 -32 -207 4 -283 94 -199 371 -246 530 -89 34 34 74 104 86 150 2 8 4 49 4
91 0 61 -5 86 -26 130 -45 97 -139 171 -234 185 -20 3 -42 7 -49 9 -6 2 -13 2
-15 0z"/>
<path d="M7900 7040 c-8 -5 -17 -7 -21 -4 -16 9 -21 -20 -25 -144 -2 -70 -6
-140 -8 -157 -7 -51 -17 -109 -22 -127 -3 -9 -7 -25 -9 -35 -22 -106 -87 -202
-191 -283 -18 -14 -121 -59 -151 -66 -16 -4 -32 -9 -38 -13 -5 -3 -17 -6 -25
-6 -8 -1 -24 -4 -35 -8 -11 -3 -33 -8 -49 -11 -16 -3 -31 -8 -34 -11 -8 -7 -9
-316 -1 -321 4 -2 114 -4 246 -4 l240 -1 0 -657 c0 -607 4 -742 19 -840 23
-143 93 -315 156 -383 18 -19 53 -51 78 -71 50 -40 178 -108 203 -108 9 0 18
-4 21 -9 3 -4 20 -12 38 -16 18 -4 35 -9 38 -9 3 -1 25 -6 50 -10 25 -5 54
-10 65 -13 53 -11 231 -17 246 -7 4 2 10 0 14 -6 4 -6 12 -7 18 -3 7 4 26 8
42 9 36 1 141 14 170 21 11 2 27 5 35 5 35 1 37 16 37 238 l0 220 -26 -6
c-101 -21 -323 -25 -407 -8 -156 33 -254 115 -292 245 -3 13 -8 336 -9 716
l-3 693 367 2 368 3 1 223 1 223 -201 -1 c-110 0 -205 0 -211 1 -5 0 -37 0
-70 -1 -33 -1 -67 -1 -75 -1 -8 0 -52 0 -97 0 l-83 0 0 369 0 369 -65 -1 c-36
0 -65 3 -65 7 0 5 -6 5 -12 0 -16 -10 -190 -11 -203 -1 -6 4 -17 3 -25 -2z"/>
<path d="M3129 6346 c-2 -2 -51 -6 -109 -9 -109 -6 -186 -17 -261 -37 -24 -7
-51 -13 -59 -15 -20 -4 -112 -41 -178 -71 -243 -111 -483 -370 -579 -624 -25
-65 -45 -122 -48 -139 -2 -9 -10 -43 -18 -76 -18 -71 -26 -118 -33 -200 -3
-33 -6 -71 -7 -85 -1 -14 2 -31 7 -37 5 -8 5 -13 -1 -13 -6 0 -9 -15 -6 -32 2
-18 5 -67 8 -108 2 -41 7 -86 9 -100 3 -13 8 -42 11 -63 4 -22 10 -50 15 -63
5 -13 7 -24 5 -24 -3 0 1 -16 9 -35 8 -19 12 -35 9 -35 -3 0 0 -7 7 -15 7 -8
10 -15 7 -15 -7 0 45 -128 73 -180 10 -19 29 -54 41 -77 13 -24 26 -43 31 -43
4 0 8 -7 8 -15 0 -8 4 -15 9 -15 5 0 13 -9 16 -20 10 -31 192 -210 260 -255
33 -22 62 -43 65 -46 10 -12 177 -87 240 -108 122 -40 130 -42 160 -43 17 -1
30 -4 30 -7 0 -3 10 -6 23 -7 75 -4 225 -15 242 -18 11 -2 24 -1 29 2 5 3 41
7 80 8 168 7 306 40 446 107 66 31 159 91 172 111 4 6 8 8 8 4 0 -14 174 165
220 227 108 142 208 326 187 343 -10 8 -49 19 -127 37 -8 2 -42 11 -75 20 -65
18 -66 18 -110 29 -16 4 -37 10 -45 13 -8 3 -24 7 -35 8 -11 1 -29 5 -41 9
-17 5 -24 -2 -44 -41 -13 -27 -26 -50 -29 -53 -3 -3 -13 -17 -21 -31 -60 -107
-188 -222 -304 -275 -168 -77 -407 -82 -613 -13 -35 11 -63 25 -63 30 0 6 -4
8 -9 5 -17 -11 -159 94 -218 160 -96 107 -159 237 -186 386 -10 56 -11 78 -3
81 6 2 446 4 978 3 639 -1 968 2 969 9 0 6 3 19 5 30 8 33 8 276 1 340 -14
123 -50 278 -70 303 -5 6 -7 12 -3 12 4 0 0 13 -8 29 -9 16 -12 31 -9 35 4 3
0 6 -7 6 -7 0 -11 3 -7 6 11 11 -137 257 -167 276 -6 4 -8 8 -5 8 10 0 -97
106 -150 148 -25 20 -48 39 -51 42 -3 3 -19 12 -35 21 -45 23 -79 43 -85 49
-8 8 -210 86 -265 102 -28 8 -63 14 -78 14 -15 -1 -27 1 -27 5 0 7 -1 7 -97
12 -39 3 -75 7 -81 11 -5 3 -11 4 -13 2z m156 -449 c11 -3 34 -8 50 -12 66
-16 177 -80 239 -137 79 -72 164 -196 171 -248 0 -3 3 -10 7 -15 11 -18 38
-132 38 -161 l0 -29 -710 1 c-426 0 -714 4 -719 10 -5 5 1 38 16 79 13 39 25
76 25 83 1 6 5 12 10 12 4 0 8 7 8 16 0 46 157 243 230 287 19 11 37 23 40 26
22 25 174 76 260 88 19 3 37 7 39 9 5 5 273 -3 296 -9z"/>
<path d="M5827 6344 c-3 -3 -42 -7 -88 -10 -155 -8 -262 -30 -374 -75 -38 -16
-76 -29 -82 -29 -7 0 -13 -4 -13 -9 0 -5 -13 -12 -30 -16 -16 -4 -30 -10 -30
-15 0 -5 -10 -12 -22 -16 -35 -11 -157 -105 -207 -159 -55 -59 -85 -102 -126
-180 -27 -52 -36 -74 -51 -130 -18 -68 -23 -178 -11 -245 7 -41 15 -75 17 -75
1 0 3 -11 6 -24 4 -24 34 -92 43 -101 4 -3 13 -18 21 -35 40 -80 164 -196 260
-242 64 -31 147 -65 169 -69 14 -3 56 -14 95 -24 39 -11 85 -21 101 -24 17 -2
50 -8 75 -12 59 -9 86 -13 135 -19 22 -2 56 -7 75 -10 19 -3 51 -8 70 -11 73
-11 86 -13 110 -18 14 -3 54 -10 90 -17 36 -6 72 -14 80 -17 8 -3 24 -7 35 -9
42 -7 150 -45 196 -68 25 -13 63 -43 82 -65 82 -96 65 -215 -47 -317 -79 -72
-178 -116 -316 -139 -59 -10 -353 -11 -405 -1 -80 14 -140 30 -151 39 -7 5
-22 11 -34 13 -26 5 -132 73 -175 113 -75 69 -132 169 -160 283 l-17 66 -111
-34 c-62 -19 -119 -36 -127 -38 -194 -54 -205 -59 -204 -87 4 -75 27 -149 79
-258 20 -44 48 -93 56 -100 3 -3 18 -23 35 -44 58 -78 208 -204 282 -237 17
-7 32 -17 32 -21 0 -5 3 -7 8 -6 4 1 17 -3 29 -10 30 -16 183 -73 183 -67 0 2
12 0 28 -6 15 -6 38 -12 52 -14 14 -2 36 -7 50 -10 41 -10 236 -25 325 -26 76
0 256 16 306 27 25 5 41 9 98 19 19 4 71 20 115 37 45 16 87 30 94 30 6 1 12
5 12 10 0 4 3 8 8 7 15 -2 52 14 52 22 0 5 6 9 13 9 12 0 126 72 163 103 29
23 93 93 123 132 17 22 35 45 40 51 6 7 8 14 5 17 -2 2 2 10 11 17 8 7 15 21
15 31 0 11 4 19 8 19 8 0 37 82 48 133 17 79 20 111 19 187 -2 93 -18 175 -46
231 -10 20 -15 39 -12 43 4 3 1 6 -5 6 -6 0 -13 8 -16 18 -10 30 -118 137
-176 174 -77 49 -176 98 -184 91 -3 -4 -6 0 -6 7 0 7 -3 11 -6 7 -4 -3 -23 2
-43 12 -20 9 -43 17 -51 16 -8 -1 -20 2 -25 6 -6 4 -24 11 -40 14 -17 3 -39 8
-50 10 -59 13 -77 17 -153 31 -46 8 -104 17 -130 20 -26 2 -72 6 -102 9 -30 3
-71 8 -90 10 -19 2 -59 6 -88 9 -29 3 -58 9 -64 12 -6 4 -23 8 -37 10 -84 7
-217 52 -272 90 -42 28 -101 94 -105 116 -2 7 -5 20 -6 28 -2 8 -6 20 -9 25
-4 6 -5 19 -2 30 2 11 5 33 8 48 4 28 35 79 64 107 48 46 152 111 171 108 3
-1 16 5 30 12 14 8 34 15 45 16 11 1 34 6 50 9 50 12 307 15 360 4 28 -5 59
-11 70 -14 11 -2 21 -4 23 -6 1 -1 5 -2 10 -4 4 -1 20 -7 35 -13 16 -7 31 -12
34 -12 17 0 115 -81 153 -126 45 -55 97 -142 104 -172 17 -82 18 -83 45 -79
14 2 34 7 43 11 9 4 22 9 30 10 7 1 33 8 58 15 25 8 50 14 55 16 37 8 72 18
85 22 18 7 11 5 80 22 86 21 90 25 79 68 -6 21 -13 45 -16 53 -3 8 -5 18 -5
23 3 12 -63 142 -98 191 -46 67 -137 163 -189 199 -25 17 -51 36 -58 42 -6 7
-37 25 -70 41 -32 16 -61 33 -64 37 -3 5 -9 8 -13 8 -3 0 -30 10 -58 22 -108
47 -219 72 -378 82 -47 4 -95 8 -107 10 -12 2 -23 1 -26 -1z"/>
<path d="M14377 6344 c-3 -3 -37 -8 -75 -10 -38 -2 -81 -8 -96 -14 -15 -5 -25
-6 -22 -1 6 10 -86 -14 -194 -50 -77 -26 -174 -70 -178 -81 -2 -4 -8 -8 -13
-8 -5 0 -41 -21 -79 -46 -80 -53 -211 -178 -255 -244 -16 -25 -32 -47 -35 -50
-21 -18 -126 -268 -118 -276 3 -2 95 -27 233 -64 237 -64 235 -63 235 -34 0
23 54 136 86 180 142 195 282 262 555 262 58 1 125 -4 150 -9 24 -6 55 -12 69
-14 47 -6 135 -46 186 -85 67 -50 150 -180 168 -262 3 -12 12 -50 19 -83 7
-33 13 -87 12 -119 0 -48 -3 -59 -17 -62 -10 -1 -18 1 -18 4 0 9 -186 15 -450
14 -184 -1 -355 -7 -355 -12 0 -1 -11 -3 -25 -5 -14 -1 -45 -6 -70 -9 -156
-23 -269 -51 -385 -97 -16 -7 -32 -13 -35 -14 -27 -9 -105 -50 -147 -77 -90
-58 -213 -191 -213 -230 0 -6 -6 -19 -13 -27 -15 -18 -33 -75 -53 -166 -13
-59 -14 -288 -2 -330 3 -11 11 -40 18 -63 19 -74 69 -167 126 -236 95 -115
264 -225 404 -261 107 -29 152 -36 222 -39 27 0 48 -4 48 -7 0 -6 48 -3 93 5
15 2 29 0 33 -5 3 -5 11 -6 17 -2 7 4 28 8 47 9 93 3 281 44 308 66 6 6 12 8
12 4 0 -9 74 30 151 79 92 59 199 163 276 267 36 48 67 88 68 88 2 0 2 -8 1
-17 -6 -39 52 -247 74 -263 3 -3 16 -22 29 -42 37 -62 156 -152 214 -164 7 -2
23 -5 37 -8 32 -7 102 -19 115 -19 26 0 130 15 137 19 5 3 20 8 35 10 63 12
62 7 62 207 l-1 184 -52 -5 c-97 -8 -164 44 -184 143 -5 28 -9 94 -8 148 0 53
-3 97 -7 97 -5 0 -5 5 -1 12 10 16 11 308 1 308 -5 0 -5 5 -1 12 10 16 11 308
1 308 -4 0 -4 8 1 18 4 9 7 26 6 37 -1 11 -4 61 -7 112 -13 189 -58 385 -117
503 -10 19 -18 39 -18 44 0 5 -4 12 -9 15 -4 3 -25 32 -46 65 -70 107 -176
202 -288 258 -172 86 -267 110 -484 123 -44 3 -89 7 -100 10 -11 2 -27 0 -35
-5 -8 -5 -19 -5 -26 0 -6 6 -14 7 -17 4z m428 -1408 c73 -5 156 -14 190 -21
11 -2 23 -4 28 -4 4 -1 5 -13 2 -28 -3 -16 -8 -39 -11 -52 -3 -14 -8 -29 -12
-35 -3 -6 -8 -20 -9 -30 -5 -32 -68 -156 -115 -226 -76 -116 -244 -266 -346
-310 -12 -5 -41 -18 -65 -28 -170 -76 -419 -74 -567 4 -46 24 -112 87 -138
132 -28 49 -40 105 -38 179 4 163 91 261 306 346 36 14 82 28 104 31 21 4 41
8 45 10 3 3 25 7 47 10 22 4 49 8 61 10 12 3 59 7 105 11 45 4 84 7 85 8 3 3
257 -3 328 -7z"/>
<path d="M10738 6302 c-137 -1 -248 -6 -248 -11 0 -5 22 -63 50 -129 27 -67
52 -133 56 -147 3 -14 10 -25 15 -25 5 0 8 -3 7 -7 -2 -7 27 -86 58 -158 7
-16 22 -55 34 -85 11 -30 25 -65 30 -77 21 -48 30 -70 53 -128 13 -33 28 -69
32 -80 5 -11 9 -22 10 -25 1 -3 6 -16 12 -30 6 -14 19 -45 28 -70 9 -25 23
-59 31 -77 8 -17 29 -71 48 -120 19 -48 52 -131 74 -183 43 -105 54 -135 51
-135 -1 0 4 -11 11 -25 8 -14 15 -27 15 -30 1 -3 9 -22 18 -44 9 -21 17 -41
17 -43 0 -3 7 -21 16 -41 9 -21 20 -46 25 -57 5 -11 18 -45 29 -75 11 -30 25
-64 30 -75 5 -11 19 -45 30 -75 12 -30 28 -67 36 -82 9 -16 13 -28 9 -28 -3 0
2 -11 11 -24 8 -14 15 -27 15 -31 -1 -3 5 -20 12 -38 7 -17 45 -110 83 -206
50 -125 75 -175 89 -181 11 -4 21 -5 22 -1 3 7 96 5 131 -3 12 -3 22 -2 22 2
0 4 23 7 50 7 28 0 50 -4 50 -8 0 -4 8 -3 18 2 11 6 24 6 35 0 9 -6 17 -6 17
-2 0 9 103 8 118 -1 6 -3 14 4 17 16 4 13 13 38 21 56 34 80 43 101 69 167 15
39 32 76 37 83 6 6 8 12 5 12 -6 0 9 39 44 117 10 23 19 49 19 57 0 9 5 16 10
16 6 0 9 3 8 8 -1 4 4 23 11 42 8 19 15 37 16 40 0 3 9 22 18 44 9 21 17 40
17 41 0 1 8 20 17 41 9 22 18 44 19 49 1 6 14 35 27 66 14 31 23 60 20 63 -4
3 -1 6 5 6 7 0 12 7 12 15 0 8 4 23 9 33 5 9 35 82 67 162 71 181 82 208 100
243 9 15 12 27 8 27 -3 0 -2 6 4 13 6 6 11 15 11 20 0 4 8 21 16 37 8 16 15
32 15 35 1 7 10 37 20 60 40 93 72 173 75 186 2 9 8 25 14 35 5 11 26 62 47
114 20 52 47 119 60 148 13 29 24 54 24 57 0 2 5 16 11 32 6 15 10 30 11 33 0
3 4 11 10 18 6 6 7 12 3 12 -4 0 -3 6 3 13 6 6 38 81 72 166 65 165 66 175 4
161 -18 -4 -35 -6 -38 -3 -2 2 -107 4 -232 3 -240 -1 -242 -1 -250 -45 -1 -5
-8 -23 -15 -40 -6 -16 -13 -34 -15 -40 -4 -14 -53 -146 -61 -165 -3 -8 -7 -17
-7 -20 -2 -9 -48 -135 -57 -155 -13 -31 -51 -129 -51 -135 0 -3 -4 -14 -8 -25
-50 -137 -132 -357 -172 -465 -28 -74 -52 -142 -53 -150 -2 -8 -4 -17 -5 -20
-1 -3 -2 -8 -1 -12 0 -5 -3 -8 -7 -8 -4 0 -14 -21 -21 -47 -8 -27 -18 -55 -22
-63 -8 -14 -138 -364 -143 -385 -2 -5 -6 -17 -9 -25 -4 -8 -13 -33 -20 -55 -8
-22 -18 -38 -23 -36 -5 2 -31 63 -57 135 -26 72 -52 140 -57 151 -8 19 -138
374 -162 440 -5 17 -14 39 -18 50 -4 11 -18 47 -30 80 -12 33 -25 69 -30 80
-4 11 -17 47 -29 80 -12 33 -27 68 -32 77 -5 10 -9 25 -9 33 0 8 -4 23 -9 33
-13 25 -24 54 -71 182 -52 145 -76 210 -86 235 -4 11 -8 23 -9 28 -2 4 -4 9
-5 12 -1 3 -3 8 -5 13 -1 4 -7 21 -13 37 -16 39 -69 185 -76 209 -4 12 -13 17
-25 13 -10 -2 -24 -2 -32 2 -8 3 -125 5 -261 3z"/>
<path d="M9623 6151 c0 -81 -3 -152 -7 -159 -4 -7 -4 -12 1 -12 10 0 9 -212
-1 -228 -4 -7 -4 -12 1 -12 10 0 9 -212 -1 -228 -4 -7 -4 -12 1 -12 10 0 9
-1173 -1 -1189 -4 -6 -4 -11 1 -11 10 0 9 -212 -1 -228 -4 -7 -4 -12 1 -12 10
0 9 -212 -1 -228 -4 -7 -3 -12 2 -12 5 0 8 -13 6 -30 l-4 -29 58 0 c31 1 67
-2 80 -5 12 -2 22 -2 22 2 0 4 23 7 50 7 28 0 50 -4 50 -8 0 -4 8 -3 18 2 11
6 24 6 35 0 9 -6 17 -6 17 -2 0 7 87 9 115 3 6 -1 19 -2 30 -1 20 1 20 8 20
1271 0 1125 -2 1269 -15 1264 -108 -48 -285 -56 -407 -18 l-71 21 1 -146z"/>
</g>
</svg>
