<svg fill="none" xmlns="http://www.w3.org/2000/svg" viewBox="0 0 119 27" height="100"><path fill-rule="evenodd" clip-rule="evenodd" d="M19.702 6.849h-2.829c-.884 0-.993.11-2.02 1.143-.516.518-9.032 9.095-9.032 9.095V2.773c0-.48-.263-.745-.745-.745H.746c-.483 0-.747.264-.747.745v1.925c0 .485.264.748.746.748H2.33v17.656H.754c-.483 0-.746.264-.746.744v1.925c0 .483.263.755.746.755h6.623c.483 0 .748-.264.748-.746v-1.926c0-.486-.265-.752-.748-.752H5.82v-1.427l3.392-3.445 5.97 7.298c.785.998.785.998 1.935.998h2.578c.48 0 .744-.264.744-.746v-1.926c0-.482-.264-.745-.744-.745H17.57l-5.94-7.33 5.429-5.505h2.643c.49 0 .746-.241.746-.717v-1.96c0-.483-.264-.748-.746-.748ZM43.028 23.11H41.46v-8.422c0-5.014-3.158-8.254-8.042-8.254-2.252 0-4.142.695-5.62 2.064v-.893c0-.483-.263-.747-.744-.747H22.78c-.483 0-.747.255-.747.74v1.924c0 .482.264.752.747.752h1.567v12.835H22.78c-.483 0-.747.263-.747.745v1.926c0 .48.264.746.747.746h6.587c.483 0 .746-.265.746-.746v-1.926c0-.482-.263-.745-.746-.745h-1.57v-7.82c0-3.213 2.259-5.545 5.368-5.545 3.028 0 4.837 1.966 4.837 5.262v8.103h-1.566c-.484 0-.749.263-.749.745v1.926c0 .48.265.746.75.746h6.59c.483 0 .746-.265.746-.746v-1.926c0-.482-.263-.745-.746-.745ZM53.73 23.568c-3.627 0-6.47-3.045-6.47-6.93 0-3.887 2.753-6.821 6.402-6.821 3.647 0 6.506 3.043 6.506 6.926 0 3.89-2.767 6.825-6.438 6.825Zm0-17.103c-5.642 0-10.063 4.516-10.063 10.278 0 5.703 4.39 10.173 9.995 10.173 5.665 0 10.102-4.514 10.102-10.278 0-5.706-4.407-10.173-10.034-10.173ZM93.034 6.858h-6.769c-.482 0-.747.265-.747.747v1.924c0 .481.265.745.747.745h1.521l-3.225 10.424-4.565-13.281a.88.88 0 0 0-.828-.593h-1.35a.879.879 0 0 0-.831.593l-4.52 13.275-3.226-10.418h1.523c.481 0 .745-.264.745-.745V7.605c0-.482-.264-.747-.745-.747H63.92c-.485 0-.75.265-.75.747v1.924c0 .481.265.745.75.745h1.607l5.365 15.748a.879.879 0 0 0 .822.578h1.457a.873.873 0 0 0 .826-.594l4.49-12.905 4.467 12.905a.872.872 0 0 0 .828.594h1.459a.876.876 0 0 0 .82-.576l5.367-15.75h1.606c.485 0 .75-.264.75-.745V7.605c0-.482-.265-.747-.75-.747ZM117.928 16.524h-1.897c-.483 0-.748.262-.748.745v3.645c0 1.253-.892 2.551-2.387 2.551-1.876 0-2.676-.78-2.676-2.605V10.274h4.579c.483 0 .748-.264.748-.745V7.605c0-.483-.265-.747-.748-.747h-4.579V2.766c0-.482-.264-.747-.746-.747h-1.994c-.485 0-.75.265-.75.747v4.092h-2.085c-.482 0-.747.264-.747.747v1.924c0 .481.265.745.747.745h2.085v10.761c0 3.53 2.308 5.81 5.878 5.81 3.686 0 6.066-2.207 6.066-5.624V17.27c0-.483-.263-.745-.746-.745ZM102.613 23.11h-1.567V7.604c0-.483-.265-.747-.749-.747h-4.311c-.484 0-.747.264-.747.747v1.924c0 .481.263.745.747.745h1.57v12.835h-2.85c-.482 0-.746.263-.746.745v1.926c0 .48.264.746.747.746h7.906c.484 0 .749-.265.749-.746v-1.926c0-.482-.265-.745-.749-.745ZM99.257 4.373a2.187 2.187 0 1 0 0-4.373 2.187 2.187 0 0 0 0 4.373Z" fill="#f1f0ed"/></svg>
