<svg width="258" height="151" viewBox="0 0 258 151" fill="none" xmlns="http://www.w3.org/2000/svg">
<path d="M4.68 65V13.52H11.16V45.2L24.84 31.376C26.64 29.648 28.152 27.92 29.376 25.832H37.008L22.248 41.168L38.592 65H30.744L17.64 45.776L11.16 52.04V65H4.68ZM42.5784 65V25.832H49.0584V36.92C51.7224 29.864 57.9144 24.824 64.1784 24.824C72.3864 24.824 76.2744 30.368 76.2744 37.928V55.64C76.2744 58.736 76.3464 61.832 76.6344 65H69.7944V38.864C69.7944 33.32 67.4904 30.224 62.3784 30.224C56.2584 30.224 49.0584 37.064 49.0584 46.856V65H42.5784ZM101.384 66.008C89.6484 66.008 83.0244 56.648 83.0244 45.344C83.0244 34.112 89.6484 24.824 101.384 24.824C112.904 24.824 119.816 34.256 119.816 45.344C119.816 56.648 113.048 66.008 101.384 66.008ZM101.384 60.968C108.656 60.968 112.832 54.128 112.832 45.344C112.832 36.704 108.728 29.864 101.384 29.864C94.0404 29.864 89.8644 36.704 89.8644 45.416C89.8644 54.272 94.0404 60.968 101.384 60.968ZM133.881 65L122.649 25.832H129.489L136.041 48.872C137.265 53.264 138.129 57.296 138.129 57.296L140.505 48.944L147.633 25.832H153.249L160.449 49.016C161.745 53.408 162.753 57.368 162.753 57.368L164.841 48.944L169.233 33.104C169.953 30.368 170.313 28.28 170.529 25.832H176.721L165.633 65H158.721L149.793 35.336L140.721 65H133.881ZM182.5 65V25.832H188.98V55.64C188.98 58.736 189.124 61.832 189.412 65H182.5ZM182.068 19.856V12.944H189.412V19.856H182.068ZM209.909 66.008C204.509 66.008 201.341 63.128 201.341 57.152V30.872H194.645V25.832H201.341V19.136C203.933 18.488 205.949 17.408 208.109 15.968C207.965 19.28 207.821 22.52 207.821 25.472V25.832H216.101V30.872H207.821V56.576C207.821 59.312 208.973 60.536 211.205 60.536C213.077 60.536 214.373 60.176 216.101 59.168L215.381 65.072C213.581 65.72 211.637 66.008 209.909 66.008ZM1.152 107.872V102.832H7.416V98.296C7.416 93.616 9.576 89.512 16.056 89.512C18.36 89.512 20.376 89.944 21.888 90.592L22.608 95.992C20.808 94.912 19.224 94.408 17.424 94.408C14.832 94.408 13.896 95.92 13.896 98.296V102.832H21.312V107.872H13.896V132.64C13.896 135.736 13.968 138.832 14.256 142H7.416V107.872H1.152ZM41.6171 143.008C31.8251 143.008 23.3291 136.312 23.3291 123.28C23.3291 110.536 30.9611 101.824 41.6171 101.824C52.5611 101.824 58.3931 110.176 58.3931 123.28H30.0971C30.1691 132.784 35.3531 137.968 41.6171 137.968C47.8091 137.968 52.1291 133.576 53.6411 128.536L58.8971 132.28C54.7931 139.264 48.8171 143.008 41.6171 143.008ZM30.5291 118.24H51.6971C51.0491 111.688 47.5931 106.864 41.6171 106.864C35.8571 106.864 31.7531 111.184 30.5291 118.24ZM80.0426 143.008C72.4826 143.008 65.7866 139.048 62.1146 132.856L66.8666 128.896C69.2426 134.512 74.2826 138.112 80.1146 138.112C84.5066 138.112 87.8906 135.808 87.8906 131.848C87.8906 122.056 64.2746 126.448 64.2746 112.408C64.2746 106.216 69.8186 101.824 77.5946 101.824C83.2106 101.824 89.1146 103.48 93.5786 110.104L88.6826 114.064C86.5226 108.664 81.4826 106.72 77.5946 106.72C73.4186 106.72 70.5386 108.808 70.5386 111.832C70.5386 120.688 94.2266 116.368 94.2266 131.344C94.2266 138.76 87.8186 143.008 80.0426 143.008ZM112.105 143.008C106.705 143.008 103.537 140.128 103.537 134.152V107.872H96.8406V102.832H103.537V96.136C106.129 95.488 108.145 94.408 110.305 92.968C110.161 96.28 110.017 99.52 110.017 102.472V102.832H118.297V107.872H110.017V133.576C110.017 136.312 111.169 137.536 113.401 137.536C115.273 137.536 116.569 137.176 118.297 136.168L117.577 142.072C115.777 142.72 113.833 143.008 112.105 143.008ZM124.844 142V102.832H131.324V132.64C131.324 135.736 131.468 138.832 131.756 142H124.844ZM124.412 96.856V89.944H131.756V96.856H124.412ZM151.605 142L136.701 102.832H143.757L152.829 126.736C154.413 130.984 155.565 134.944 155.565 134.944C155.565 134.944 156.789 131.056 158.373 126.736L164.421 110.248C165.357 107.728 165.933 105.496 166.365 102.832H172.773L158.229 142H151.605ZM207.246 143.008C203.43 143.008 201.054 140.488 201.054 136.168V132.928C198.534 138.832 193.278 143.008 186.51 143.008C179.454 143.008 174.99 138.832 174.99 132.64C174.99 122.776 185.718 118.024 201.054 116.512V115.288C201.054 110.392 198.822 106.864 193.638 106.864C188.094 106.864 183.126 109.888 180.102 116.08L175.278 112.12C179.958 105.064 186.798 101.824 194.07 101.824C203.574 101.824 207.534 107.296 207.534 115V135.808C207.534 137.464 208.11 138.184 209.478 138.184C210.414 138.184 211.134 137.968 212.214 137.392L211.422 142C210.198 142.576 208.83 143.008 207.246 143.008ZM181.902 131.848C181.902 135.448 184.35 137.68 188.166 137.68C194.286 137.68 201.054 132.496 201.054 123.928V121.408C190.11 122.488 181.902 125.08 181.902 131.848ZM217.657 142V90.52H224.137V132.64C224.137 135.736 224.281 138.832 224.569 142H217.657Z" fill="#FEFBE6"/>
</svg>
