<svg xmlns="http://www.w3.org/2000/svg" fill="none" viewBox="0 0 210 118"><path fill="#F1F0ED" d="M31.198.911v46.08h-6.144v-5.12c-1.024 1.75-2.475 3.136-4.352 4.16-1.835.982-3.819 1.472-5.952 1.472-2.603 0-5.013-.704-7.232-2.112-2.176-1.45-3.904-3.413-5.184-5.888C1.097 36.986.478 34.191.478 31.12s.619-5.845 1.856-8.32c1.28-2.517 3.008-4.48 5.184-5.888 2.219-1.45 4.63-2.176 7.232-2.176 2.133 0 4.117.512 5.952 1.536 1.877.982 3.328 2.304 4.352 3.968V.911h6.144Zm-15.36 40.96c1.664 0 3.2-.49 4.608-1.472 1.408-.981 2.517-2.282 3.328-3.904.853-1.664 1.28-3.456 1.28-5.376 0-1.92-.427-3.69-1.28-5.312-.81-1.664-1.92-2.986-3.328-3.968-1.408-.981-2.944-1.472-4.608-1.472-1.792 0-3.392.49-4.8 1.472s-2.496 2.304-3.264 3.968C7.006 27.43 6.622 29.2 6.622 31.12c0 1.92.384 3.712 1.152 5.376.768 1.622 1.856 2.923 3.264 3.904 1.408.981 3.008 1.472 4.8 1.472Zm37.387-27.136c3.072 0 5.803.747 8.192 2.24 2.432 1.45 4.31 3.435 5.632 5.952 1.365 2.475 2.048 5.206 2.048 8.192 0 2.987-.683 5.739-2.048 8.256-1.323 2.475-3.2 4.459-5.632 5.952-2.39 1.45-5.12 2.176-8.192 2.176-3.115 0-5.888-.725-8.32-2.176a15.081 15.081 0 0 1-5.568-5.888c-1.323-2.517-1.984-5.29-1.984-8.32 0-3.03.619-5.781 1.856-8.256 1.28-2.517 3.115-4.501 5.504-5.952 2.432-1.45 5.27-2.176 8.512-2.176Zm0 27.136c1.835 0 3.499-.47 4.992-1.408a9.864 9.864 0 0 0 3.456-3.904c.853-1.664 1.28-3.477 1.28-5.44 0-1.962-.427-3.755-1.28-5.376-.81-1.664-1.963-2.965-3.456-3.904-1.493-.981-3.157-1.472-4.992-1.472s-3.499.49-4.992 1.472c-1.493.939-2.667 2.24-3.52 3.904-.81 1.622-1.216 3.414-1.216 5.376 0 1.963.405 3.776 1.216 5.44.853 1.622 2.027 2.923 3.52 3.904 1.493.939 3.157 1.408 4.992 1.408Zm17.916-25.088c1.963-.341 3.456-.875 4.48-1.6 1.025-.768 1.729-1.835 2.113-3.2.384-1.408.576-3.392.576-5.952h5.12v9.216h9.215v5.632H83.43v16.128c0 3.157 1.962 4.736 5.887 4.736 1.025 0 2.134-.128 3.329-.384v5.632a20.05 20.05 0 0 1-4.48.512c-3.286 0-5.931-.79-7.936-2.368-1.963-1.578-2.945-4.544-2.945-8.896V20.88h-6.144v-4.096Zm32.257 30.72c-1.322 0-2.432-.426-3.328-1.28-.853-.896-1.28-2.005-1.28-3.328 0-1.28.427-2.368 1.28-3.264.896-.896 2.006-1.344 3.328-1.344 1.323 0 2.411.448 3.264 1.344.896.896 1.344 1.984 1.344 3.264 0 1.323-.448 2.432-1.344 3.328-.853.854-1.941 1.28-3.264 1.28ZM19.934 76.735c-1.365-.427-2.645-.64-3.84-.64-1.579 0-2.88.448-3.904 1.344-.981.896-1.472 2.432-1.472 4.608v3.2h9.216v5.632h-9.216v26.112H4.574V90.879H.478v-5.632h4.096v-.512c0-3.67.427-6.55 1.28-8.64.853-2.09 2.112-3.563 3.776-4.416 1.707-.853 3.925-1.28 6.656-1.28.64 0 1.43.085 2.368.256.939.128 1.707.32 2.304.576l-1.024 5.504Zm33.764 23.936c0 .726-.064 1.472-.192 2.24H29.058c.213 2.603 1.216 4.758 3.008 6.464 1.792 1.664 4.117 2.496 6.976 2.496 2.005 0 3.733-.533 5.184-1.6 1.45-1.109 2.56-2.538 3.328-4.288l5.824 1.536c-1.11 2.731-2.816 5.078-5.12 7.04-2.304 1.963-5.419 2.944-9.344 2.944-3.243 0-6.08-.725-8.512-2.176a14.62 14.62 0 0 1-5.504-5.888c-1.28-2.517-1.92-5.29-1.92-8.32 0-3.157.661-5.973 1.984-8.448 1.323-2.475 3.179-4.416 5.568-5.824 2.432-1.408 5.184-2.112 8.256-2.112 2.56 0 4.97.576 7.232 1.728 2.261 1.11 4.096 2.859 5.504 5.248 1.45 2.39 2.176 5.376 2.176 8.96Zm-6.272-2.88c-.213-2.261-1.067-4.096-2.56-5.504-1.493-1.45-3.413-2.176-5.76-2.176-2.859 0-5.077.704-6.656 2.112-1.536 1.408-2.56 3.264-3.072 5.568h18.048Zm16.996 7.744c.043.854.342 1.792.897 2.816.554 1.024 1.493 1.92 2.816 2.688 1.322.726 3.05 1.088 5.183 1.088 2.817 0 4.843-.448 6.08-1.344 1.28-.896 1.92-1.856 1.92-2.88 0-1.28-.81-2.218-2.431-2.816-1.58-.597-4.395-1.152-8.448-1.664-3.926-.512-6.678-1.578-8.256-3.2-1.58-1.621-2.368-3.541-2.368-5.76 0-1.536.512-3.05 1.535-4.544 1.067-1.536 2.603-2.773 4.608-3.712 2.049-.981 4.48-1.472 7.296-1.472 2.603 0 4.864.49 6.784 1.472 1.963.939 3.478 2.134 4.544 3.584 1.067 1.408 1.686 2.838 1.857 4.288l-5.76 1.6c-.171-1.28-.832-2.517-1.984-3.712-1.152-1.237-3.03-1.856-5.632-1.856-2.347 0-4.118.427-5.313 1.28-1.194.81-1.791 1.707-1.791 2.688 0 1.024.575 1.899 1.727 2.624 1.152.683 3.35 1.173 6.592 1.472 4.438.384 7.744 1.302 9.92 2.752 2.177 1.408 3.265 3.414 3.265 6.016 0 2.048-.576 3.883-1.728 5.504-1.153 1.579-2.817 2.816-4.992 3.712-2.176.896-4.736 1.344-7.68 1.344-2.86 0-5.355-.469-7.489-1.408-2.09-.981-3.712-2.261-4.863-3.84-1.152-1.578-1.792-3.264-1.92-5.056l5.632-1.664ZM91.08 86.783c1.963-.341 3.456-.874 4.48-1.6 1.024-.768 1.728-1.835 2.112-3.2.384-1.408.576-3.392.576-5.952h5.12v9.216h9.216v5.632h-9.216v16.128c0 3.158 1.963 4.736 5.888 4.736 1.024 0 2.133-.128 3.328-.384v5.632a20.01 20.01 0 0 1-4.48.512c-3.285 0-5.931-.789-7.936-2.368-1.963-1.578-2.944-4.544-2.944-8.896v-15.36h-6.144v-4.096Zm28.173-9.216c0-1.152.384-2.112 1.152-2.88.768-.81 1.749-1.216 2.944-1.216 1.195 0 2.176.405 2.944 1.216.768.768 1.152 1.728 1.152 2.88s-.384 2.134-1.152 2.944c-.768.768-1.749 1.152-2.944 1.152-1.195 0-2.176-.384-2.944-1.152-.768-.81-1.152-1.792-1.152-2.944Zm1.024 7.68c.939.427 1.963.64 3.072.64s2.133-.213 3.072-.64v31.744h-6.144V85.247Zm17.819 0 8.832 23.936 8.832-23.936h7.04l-12.8 31.744h-6.144l-12.8-31.744h7.04Zm27.258 22.72c0-3.669 1.429-6.272 4.288-7.808 2.901-1.579 6.955-2.368 12.16-2.368 2.176 0 4.203.085 6.08.256 0-2.39-.576-4.31-1.728-5.76-1.109-1.45-3.136-2.176-6.08-2.176-2.347 0-4.16.597-5.44 1.792-1.28 1.195-2.112 2.56-2.496 4.096l-5.76-1.536c.853-3.03 2.539-5.397 5.056-7.104 2.517-1.75 5.568-2.624 9.152-2.624 8.96 0 13.44 4.864 13.44 14.592v10.112c0 1.963.725 2.944 2.176 2.944.256 0 .555-.042.896-.128v4.608c-.768.427-1.707.64-2.816.64-1.664 0-3.051-.554-4.16-1.664-1.067-1.152-1.685-2.752-1.856-4.8-1.195 2.006-2.709 3.584-4.544 4.736-1.835 1.152-4.245 1.728-7.232 1.728-3.2 0-5.867-.874-8-2.624-2.091-1.792-3.136-4.096-3.136-6.912Zm6.144-.256c0 1.28.491 2.347 1.472 3.2.981.854 2.389 1.28 4.224 1.28 1.92 0 3.648-.49 5.184-1.472 1.579-.981 2.837-2.218 3.776-3.712.939-1.493 1.515-2.965 1.728-4.416a40.25 40.25 0 0 0-5.568-.384c-3.2 0-5.803.448-7.808 1.344-2.005.896-3.008 2.283-3.008 4.16Zm37.86-36.8v46.08h-6.144v-46.08h6.144Z"/></svg>
