<svg xmlns="http://www.w3.org/2000/svg" width="512" height="512" data-name="Layer 1" viewBox="0 0 24 24"><path d="M7 14c2.206 0 4-1.794 4-4S9.206 6 7 6s-4 1.794-4 4 1.794 4 4 4Zm0-7c1.654 0 3 1.346 3 3s-1.346 3-3 3-3-1.346-3-3 1.346-3 3-3Zm7 11.5V24h-1v-5.5c0-.827-.673-1.5-1.5-1.5h-9c-.827 0-1.5.673-1.5 1.5V24H0v-5.5C0 17.121 1.122 16 2.5 16h9c1.378 0 2.5 1.121 2.5 2.5ZM21.5 0h-14A2.503 2.503 0 0 0 5 2.5v1.849a6.071 6.071 0 0 1 1-.262V2.501c0-.827.673-1.5 1.5-1.5h14c.827 0 1.5.673 1.5 1.5v14.5h-2v-3h-5v4h8V2.5C24 1.121 22.878 0 21.5 0ZM17 17v-2h3v2h-3Z"/></svg>