<svg xmlns="http://www.w3.org/2000/svg" width="512" height="512" data-name="Layer 1" viewBox="0 0 24 24"><path d="M13 12a1 1 0 1 1-2 0 1 1 0 0 1 2 0Zm-1 2a1 1 0 1 0 0 2 1 1 0 0 0 0-2Zm9.821-4.467a2.605 2.605 0 0 1-1.58 1.52L17 12.292v3.802l2.582 3.879c.402.627.52 1.39.326 2.101a2.623 2.623 0 0 1-1.343 1.646c-1.178.597-2.688.148-3.439-1.023l-2.343-3.337a.8.8 0 0 0-.686-.359.707.707 0 0 0-.682.332L8.76 22.832a2.58 2.58 0 0 1-2.175 1.169 2.629 2.629 0 0 1-1.757-.677c-.936-.839-1.099-2.317-.381-3.438l2.552-3.791V12.3l-3.251-1.2c-.716-.247-1.291-.801-1.57-1.516s-.228-1.517.141-2.201c.61-1.135 2.01-1.665 3.249-1.236l2.774.973a4.477 4.477 0 0 1-.843-2.619C7.5 2.019 9.519 0 12 0s4.5 2.019 4.5 4.5a4.48 4.48 0 0 1-.777 2.526l2.717-.874c1.248-.432 2.646.075 3.241 1.182.368.684.42 1.485.141 2.2ZM8.5 4.5C8.5 6.43 10.07 8 12 8s3.5-1.57 3.5-3.5S13.93 1 12 1 8.5 2.57 8.5 4.5Zm12.3 3.308c-.365-.68-1.245-.986-2.044-.708l-4.96 1.595a6.147 6.147 0 0 1-3.987-.003L5.241 7.09a1.665 1.665 0 0 0-.547-.091c-.609 0-1.206.322-1.493.857a1.61 1.61 0 0 0 .885 2.301l3.915 1.446V16.4l-2.716 4.034c-.45.703-.361 1.628.213 2.144.365.327.828.475 1.303.407a1.61 1.61 0 0 0 1.142-.728l2.66-3.505c.31-.468.842-.757 1.505-.752.625.005 1.188.305 1.507.802l2.343 3.337c.489.762 1.433 1.058 2.156.689a1.6 1.6 0 0 0 .831-1.017 1.616 1.616 0 0 0-.198-1.292l-2.745-4.124v-4.793l3.899-1.49c.463-.16.818-.502.99-.943a1.598 1.598 0 0 0-.09-1.362Z"/></svg>