<svg xmlns="http://www.w3.org/2000/svg" width="512" height="512" data-name="Layer 1" viewBox="0 0 24 24"><path d="M23.996 12.497v-1h-1.008a10.95 10.95 0 0 0-2.872-6.913l.717-.718-.707-.706-.717.718a10.962 10.962 0 0 0-6.916-2.865V0h-1v1.012a10.956 10.956 0 0 0-6.91 2.872l-.721-.721-.707.707.721.721a10.956 10.956 0 0 0-2.864 6.912H-.003v1h1.015a10.953 10.953 0 0 0 2.869 6.91l-.721.721.707.707.721-.721a10.962 10.962 0 0 0 6.911 2.868V24H12.5v-1.011a10.957 10.957 0 0 0 6.913-2.868l.718.717.707-.708-.718-.716a10.96 10.96 0 0 0 2.868-6.915h1.008Zm-2.009-.999-6.018.005a3.99 3.99 0 0 0-.81-1.954l4.251-4.258a9.961 9.961 0 0 1 2.578 6.207ZM12 15c-1.654 0-3-1.346-3-3s1.346-3 3-3 3 1.346 3 3-1.346 3-3 3Zm6.702-10.415-4.25 4.257a3.987 3.987 0 0 0-1.959-.812V2.012a9.958 9.958 0 0 1 6.209 2.573Zm-7.209-2.572v6.019a3.99 3.99 0 0 0-1.95.813L5.29 4.591a9.963 9.963 0 0 1 6.203-2.579Zm-6.91 3.286 4.254 4.254a3.981 3.981 0 0 0-.807 1.95H2.012a9.96 9.96 0 0 1 2.571-6.204Zm-2.571 7.204h6.019c.092.728.38 1.396.811 1.949l-4.254 4.254a9.967 9.967 0 0 1-2.576-6.203Zm3.283 6.91 4.254-4.254a3.98 3.98 0 0 0 1.944.809l.005 6.019a9.96 9.96 0 0 1-6.203-2.574Zm7.203 2.574-.005-6.018a3.983 3.983 0 0 0 1.953-.807l4.258 4.251a9.963 9.963 0 0 1-6.206 2.575Zm6.914-3.282-4.257-4.25a3.977 3.977 0 0 0 .813-1.953l6.019-.005a9.958 9.958 0 0 1-2.575 6.207Z"/></svg>