<svg xmlns="http://www.w3.org/2000/svg" data-name="Layer 1" viewBox="0 0 24 24"><path d="M24 2.5C24 1.122 22.878 0 21.5 0h-19A2.503 2.503 0 0 0 0 2.5V8h1v16h22V8h1V2.5ZM22 23H2V8h20v15Zm1-16H1V2.5C1 1.673 1.673 1 2.5 1h19c.827 0 1.5.673 1.5 1.5V7ZM11.729 19.795l.271.174.271-.174C12.464 19.67 17 16.715 17 13.93c0-1.616-1.233-2.93-2.75-2.93-.951 0-1.761.435-2.25 1.128C11.511 11.435 10.701 11 9.75 11 8.233 11 7 12.314 7 13.93c0 2.786 4.536 5.741 4.729 5.865ZM9.75 12c1.014 0 1.75.736 1.75 1.75v.327h1v-.327c0-1.014.736-1.75 1.75-1.75.965 0 1.75.866 1.75 1.93 0 1.733-2.673 3.93-4 4.844-1.327-.914-4-3.111-4-4.844C8 12.866 8.785 12 9.75 12Z"/></svg>