<svg xmlns="http://www.w3.org/2000/svg" width="512" height="512" data-name="Layer 1" viewBox="0 0 24 24"><path d="M17.75 24c-2.506 0-3.548-1.104-4.468-2.078C12.348 20.933 11.467 20 9 20c-4.71 0-9-4.81-9-10.091C0 4.445 4.445 0 9.909 0 19.745 0 24 11.754 24 17.75A6.257 6.257 0 0 1 17.75 24ZM9.909 1C4.997 1 1 4.997 1 9.909 1 15.029 5.3 19 9 19c2.898 0 4.02 1.188 5.009 2.236.894.947 1.666 1.764 3.741 1.764A5.256 5.256 0 0 0 23 17.75C23 11.738 18.625 1 9.909 1Zm4.184 3.2-9.816 9.816c.189.284.394.552.612.802L14.942 4.765a9.476 9.476 0 0 0-.849-.565ZM3 9.909c0 .256.015.507.042.756l7.604-7.604C10.401 3.038 10.162 3 9.909 3c-.219 0-.435.013-.649.033L3.033 9.26c-.02.214-.033.43-.033.649Zm14.227-2.843-9.659 9.659c.388.141.777.226 1.159.255l9.088-9.088a15.192 15.192 0 0 0-.589-.825Zm3.569 8.431-4.854 4.854c.285.272.536.444.872.542l4.143-4.143c-.033-.401-.09-.821-.161-1.253Zm-.967-3.619a20.103 20.103 0 0 0-.4-1.014l-6.83 6.83c.339.15.643.315.922.492l6.307-6.307Z"/></svg>