<svg xmlns="http://www.w3.org/2000/svg" width="512" height="512" data-name="Layer 1" viewBox="0 0 24 24"><path d="M21.5 15h-10A2.503 2.503 0 0 0 9 17.5v2c0 1.379 1.122 2.5 2.5 2.5h10c1.379 0 2.5-1.121 2.5-2.5v-2c0-1.379-1.121-2.5-2.5-2.5ZM14 21h-2.5c-.827 0-1.5-.673-1.5-1.5v-2c0-.827.673-1.5 1.5-1.5H14v5Zm9-1.5c0 .827-.673 1.5-1.5 1.5H15v-5h6.5c.827 0 1.5.673 1.5 1.5v2ZM21.5 2h-10A2.503 2.503 0 0 0 9 4.5v2C9 7.879 10.122 9 11.5 9h10C22.879 9 24 7.879 24 6.5v-2C24 3.121 22.879 2 21.5 2ZM18 8h-6.5c-.827 0-1.5-.673-1.5-1.5v-2c0-.827.673-1.5 1.5-1.5H18v5Zm5-1.5c0 .827-.673 1.5-1.5 1.5H19V3h2.5c.827 0 1.5.673 1.5 1.5v2ZM4 6c1.654 0 3-1.346 3-3S5.654 0 4 0 1 1.346 1 3s1.346 3 3 3Zm0-5c1.103 0 2 .897 2 2s-.897 2-2 2-2-.897-2-2 .897-2 2-2Zm4 8.5V11H7V9.5C7 8.673 6.327 8 5.5 8h-3C1.673 8 1 8.673 1 9.5V11H0V9.5C0 8.121 1.122 7 2.5 7h3C6.878 7 8 8.121 8 9.5ZM7 16c0-1.654-1.346-3-3-3s-3 1.346-3 3 1.346 3 3 3 3-1.346 3-3Zm-5 0c0-1.103.897-2 2-2s2 .897 2 2-.897 2-2 2-2-.897-2-2Zm6 6.5V24H7v-1.5c0-.827-.673-1.5-1.5-1.5h-3c-.827 0-1.5.673-1.5 1.5V24H0v-1.5C0 21.121 1.122 20 2.5 20h3C6.878 20 8 21.121 8 22.5Z"/></svg>