<svg xmlns="http://www.w3.org/2000/svg" width="512" height="512" data-name="Layer 1" viewBox="0 0 24 24"><path d="M14 6V0h4.25C19.215 0 20 .785 20 1.75V6h-6Zm1-5v4h4V1.75a.75.75 0 0 0-.75-.75H15Zm-1 14V9h6v6h-6Zm1-5v4h4v-4h-4Zm-1 14v-6h6v4.25c0 .965-.785 1.75-1.75 1.75H14Zm1-5v4h3.25a.75.75 0 0 0 .75-.75V19h-4ZM4 6V1.75C4 .785 4.785 0 5.75 0H10v6H4Zm5-5H5.75a.75.75 0 0 0-.75.75V5h4V1ZM4 15V9h6v6H4Zm1-5v4h4v-4H5ZM4 22.25V18h6v6H5.75C4.785 24 4 23.215 4 22.25ZM5 19v3.25c0 .414.336.75.75.75H9v-4H5Z"/></svg>