<svg xmlns="http://www.w3.org/2000/svg" width="512" height="512" data-name="Layer 1" viewBox="0 0 24 24"><path d="m23.045 8.034-9.5-7.468a2.494 2.494 0 0 0-3.09 0l-9.5 7.468A2.485 2.485 0 0 0 0 10v14h24V10c0-.772-.348-1.489-.955-1.966ZM19 23H5V12.5c0-.827.673-1.5 1.5-1.5h11c.827 0 1.5.673 1.5 1.5V23Zm4 0h-3V12.5c0-1.379-1.121-2.5-2.5-2.5h-11A2.502 2.502 0 0 0 4 12.5V23H1V10c0-.464.209-.894.572-1.179l9.5-7.467a1.495 1.495 0 0 1 1.855 0l9.5 7.468c.363.285.572.715.572 1.179v13Zm-13-4h4v1h-4v-1Z"/></svg>