<svg xmlns="http://www.w3.org/2000/svg" width="512" height="512" data-name="Layer 1" viewBox="0 0 24 24"><path d="M14.041 13.641 8.592 9.377a1.768 1.768 0 0 0-2.185 0L.96 13.641A2.483 2.483 0 0 0 0 15.61v8.391h15v-8.392c0-.774-.35-1.492-.959-1.969ZM14 23H1v-7.391c0-.465.21-.896.576-1.182l5.447-4.264a.772.772 0 0 1 .952 0l5.449 4.264c.365.286.575.717.575 1.182V23Zm-9-3h5v-5H5v5Zm1-4h3v3H6v-3Zm12-3h2v1h-2v-1Zm0 4h2v1h-2v-1ZM14 5h2v1h-2V5Zm6 1h-2V5h2v1Zm-6 3h2v1h-2V9Zm4 0h2v1h-2V9Zm6-6.5V24h-7v-1h6V2.5c0-.827-.673-1.5-1.5-1.5h-9c-.827 0-1.5.673-1.5 1.5V9l-1-.783V2.5C10 1.121 11.121 0 12.5 0h9C22.879 0 24 1.121 24 2.5Z"/></svg>