<svg xmlns="http://www.w3.org/2000/svg" data-name="Layer 1" viewBox="0 0 24 24"><path d="M24 19.064c0 2.757-2.243 5-5 5h-5.672l.945-1H19c2.206 0 4-1.794 4-4a4.003 4.003 0 0 0-2.381-3.651l-.555-.246.348-.497a3.236 3.236 0 0 0-1.458-4.869l-.542-.218.299-.502c.191-.322.289-.664.289-1.017 0-1.103-.897-2-2-2h-4v-1h2.403c-.164-.836-.744-1.857-1.564-2.694-.618-.632-1.281-1.067-1.857-1.232-.175 2.675-1.446 4.263-2.289 4.927H7.001c-1.103 0-2 .897-2 2 0 .353.098.694.289 1.017l.299.502-.542.218a3.236 3.236 0 0 0-1.458 4.869l.348.497-.555.246a4.004 4.004 0 0 0-2.381 3.651c0 2.206 1.794 4 4 4h2.352l-.375 1H5.001c-2.757 0-5-2.243-5-5 0-1.781.955-3.417 2.474-4.308a4.2 4.2 0 0 1-.474-1.942c0-1.564.845-2.971 2.192-3.714a2.924 2.924 0 0 1-.192-1.036c0-1.654 1.346-3 3-3h2.101c.896-.756 1.899-2.132 1.899-4.5V.064h.5c.942 0 2.056.586 3.054 1.606 1.016 1.039 1.706 2.316 1.864 3.394h.582c1.654 0 3 1.346 3 3 0 .351-.065.701-.192 1.036a4.223 4.223 0 0 1 2.192 3.714c0 .681-.162 1.342-.474 1.942a5.002 5.002 0 0 1 2.474 4.308ZM10.638 24h-1.5l1.5-4H8.783c-.455 0-.872-.21-1.143-.575a1.409 1.409 0 0 1-.219-1.26L9.838 12h4.907l-1.641 4h1.848a1.403 1.403 0 0 1 1.171 2.181l-5.485 5.818Zm4.672-6.787a.4.4 0 0 0-.357-.213h-3.338l1.641-4h-2.735l-2.154 5.493a.413.413 0 0 0 .077.336.421.421 0 0 0 .34.171h3.299l-1.254 3.343 4.48-4.744a.398.398 0 0 0 .002-.386Z"/></svg>