<svg xmlns="http://www.w3.org/2000/svg" width="512" height="512" data-name="Layer 1" viewBox="0 0 24 24"><path d="M23.436 20.728 3.272.564A1.895 1.895 0 0 0 1.183.148 1.89 1.89 0 0 0 0 1.92V24h22.08c.79 0 1.469-.453 1.771-1.184a1.888 1.888 0 0 0-.416-2.089Zm-.508 1.706a.892.892 0 0 1-.847.566H1V1.92c0-.384.211-.7.566-.848a.898.898 0 0 1 1 .199L5.25 3.955 2.853 6.352l.707.707 2.397-2.397L8.785 7.49 6.389 9.887l.707.707 2.396-2.397 2.829 2.829-2.397 2.397.707.707 2.397-2.397 2.828 2.828-2.397 2.397.707.707 2.397-2.397 2.828 2.828-2.397 2.397.707.707 2.397-2.397 2.63 2.63a.891.891 0 0 1 .199.999Z"/><path d="M5 19h7.207L5 11.793V19Zm1-4.793L9.793 18H6v-3.793Z"/></svg>