<svg xmlns="http://www.w3.org/2000/svg" width="512" height="512" data-name="Layer 1" viewBox="0 0 24 24"><path d="M11.05 13c.232 1.14 1.242 2 2.45 2 1.378 0 2.5-1.121 2.5-2.5 0-1.208-.86-2.217-2-2.45V4.949c1.14-.232 2-1.242 2-2.45 0-1.379-1.122-2.5-2.5-2.5-1.207 0-2.217.86-2.45 2H4.949a2.504 2.504 0 0 0-2.45-2A2.504 2.504 0 0 0 0 2.5c0 1.208.86 2.217 2 2.45v5.101c-1.14.232-2 1.242-2 2.45 0 1.379 1.122 2.5 2.5 2.5 1.207 0 2.217-.86 2.45-2h6.101Zm3.95-.5c0 .827-.673 1.5-1.5 1.5s-1.5-.673-1.5-1.5.673-1.5 1.5-1.5 1.5.673 1.5 1.5ZM13.5 1c.827 0 1.5.673 1.5 1.5S14.327 4 13.5 4 12 3.327 12 2.5 12.673 1 13.5 1ZM1 2.5C1 1.673 1.673 1 2.5 1S4 1.673 4 2.5 3.327 4 2.5 4 1 3.327 1 2.5ZM2.5 14c-.827 0-1.5-.673-1.5-1.5S1.673 11 2.5 11s1.5.673 1.5 1.5S3.327 14 2.5 14Zm.5-3.95V4.949a2.508 2.508 0 0 0 1.95-1.95h6.101c.199.978.972 1.75 1.95 1.95v5.101a2.508 2.508 0 0 0-1.95 1.95H4.95A2.509 2.509 0 0 0 3 10.05Zm19 9v-4.101c1.14-.232 2-1.242 2-2.45 0-1.379-1.122-2.5-2.5-2.5s-2.5 1.121-2.5 2.5c0 1.208.86 2.217 2 2.45v4.101A2.508 2.508 0 0 0 19.05 21H13a2.509 2.509 0 0 0-1.95-1.95V16.5h-1v2.55c-1.14.232-2 1.242-2 2.45 0 1.379 1.122 2.5 2.5 2.5 1.207 0 2.217-.86 2.45-2h6.05c.232 1.14 1.242 2 2.45 2 1.378 0 2.5-1.121 2.5-2.5 0-1.208-.86-2.217-2-2.45ZM10.55 23c-.827 0-1.5-.673-1.5-1.5s.673-1.5 1.5-1.5 1.5.673 1.5 1.5-.673 1.5-1.5 1.5ZM20 12.5c0-.827.673-1.5 1.5-1.5s1.5.673 1.5 1.5-.673 1.5-1.5 1.5-1.5-.673-1.5-1.5ZM21.5 23c-.827 0-1.5-.673-1.5-1.5s.673-1.5 1.5-1.5 1.5.673 1.5 1.5-.673 1.5-1.5 1.5Z"/></svg>