<svg xmlns="http://www.w3.org/2000/svg" width="512" height="512" data-name="Layer 1" viewBox="0 0 24 24"><path d="M19.179.037 7.702 18.307a1.463 1.463 0 0 1-2.009.478 1.42 1.42 0 0 1-.477-1.973 2.504 2.504 0 0 0-.817-3.44 2.503 2.503 0 0 0-3.44.817C-.9 17.207.047 21.179 3.07 23.042a6.411 6.411 0 0 0 4.881.781 6.41 6.41 0 0 0 4.005-2.889l11.48-18.275L19.179.037Zm.319 1.371 2.554 1.574-5.599 8.914-2.502-1.656 5.547-8.832Zm-8.391 18.998a5.422 5.422 0 0 1-3.388 2.445 5.427 5.427 0 0 1-4.125-.661C1.04 20.616.24 17.262 1.81 14.713a1.502 1.502 0 0 1 2.064-.49c.704.434.924 1.36.49 2.064a2.41 2.41 0 0 0 .804 3.349c1.155.71 2.673.35 3.383-.8l4.868-7.749 2.502 1.656-4.814 7.664ZM21 18c-1.654 0-3 1.346-3 3s1.346 3 3 3 3-1.346 3-3-1.346-3-3-3Zm0 5c-1.103 0-2-.897-2-2s.897-2 2-2 2 .897 2 2-.897 2-2 2Z"/></svg>