<svg xmlns="http://www.w3.org/2000/svg" width="512" height="512" data-name="Layer 1" viewBox="0 0 24 24"><path d="M21.5 1H24V0h-2.5A2.503 2.503 0 0 0 19 2.5v14.632L2.751 22.181l-1.638-4.985c-.146-.438-.122-.887.068-1.265.175-.348.476-.607.857-.733l1.43-.502.85 2.626 11.419-3.692-.792-2.446 2.054-.647v-1.06l-2.362.754-1.138-3.513a2.48 2.48 0 0 0-1.249-1.45 2.485 2.485 0 0 0-1.903-.143L3.675 7.258a2.502 2.502 0 0 0-1.593 3.154l1.079 3.332-1.443.506a2.444 2.444 0 0 0-1.43 1.231c-.311.617-.354 1.338-.124 2.028l1.633 4.967-1.753.546.297.955 17.201-5.345A3.478 3.478 0 0 0 17 20.5c0 1.93 1.57 3.5 3.5 3.5s3.5-1.57 3.5-3.5a3.504 3.504 0 0 0-4-3.464V2.5c0-.827.673-1.5 1.5-1.5ZM3.118 8.957c.18-.358.489-.624.865-.748l6.673-2.133a1.5 1.5 0 0 1 1.894.952l1.929 5.958-9.517 3.077-1.93-5.961a1.49 1.49 0 0 1 .086-1.145ZM23 20.5c0 1.378-1.121 2.5-2.5 2.5S18 21.878 18 20.5s1.121-2.5 2.5-2.5 2.5 1.122 2.5 2.5Z"/></svg>