<svg xmlns="http://www.w3.org/2000/svg" width="512" height="512" data-name="Layer 1" viewBox="0 0 24 24"><path d="M24 10H3V6.5C3 4.57 4.57 3 6.5 3h1.551c.232 1.14 1.242 2 2.449 2h3C14.879 5 16 3.879 16 2.5S14.879 0 13.5 0h-3C9.292 0 8.283.86 8.051 2H6.5A4.505 4.505 0 0 0 2 6.5V10H0v1h2.071l2 13h15.857l2-13h2.071v-1ZM10.5 1h3c.827 0 1.5.673 1.5 1.5S14.327 4 13.5 4h-3C9.673 4 9 3.327 9 2.5S9.673 1 10.5 1Zm8.571 22H4.929L3.083 11h17.834l-1.846 12Zm-10.24-1.775.634.49L12 20.07l2.535 1.645.634-.49-.808-2.699 2.138-1.722V16h-3.045l-1.052-3h-.804l-1.052 3H7.5v.804l2.139 1.722-.808 2.699ZM9.339 17h1.916L12 14.875 12.745 17h1.916l-1.45 1.168.556 1.856L12 18.878l-1.767 1.146.556-1.856L9.339 17Z"/></svg>