<svg xmlns="http://www.w3.org/2000/svg" width="512" height="512" data-name="Layer 1" viewBox="0 0 24 24"><path d="M21 6h3v1h-3zM17.539 13.107l.787-.617 1.85 2.362-.788.617zM20.099 10.435l.49-.871 2.614 1.472-.49.872zM18.912 7.367c.36-.744.05-1.644-.693-2.005L8.325.554A5.504 5.504 0 0 0 .974 3.096l-.219.45L7.327 6.74 0 21.815 4.497 24l7.327-15.075 3.771 1.833a1.482 1.482 0 0 0 1.145.069c.379-.131.684-.401.858-.762l1.312-2.698ZM4.035 22.664l-2.698-1.312 6.89-14.175 2.698 1.311-6.89 14.176ZM16.7 9.628a.495.495 0 0 1-.667.232L2.117 3.096a4.512 4.512 0 0 1 5.771-1.644l9.894 4.809a.501.501 0 0 1 .231.669l-1.312 2.698Z"/></svg>