<svg xmlns="http://www.w3.org/2000/svg" width="512" height="512" data-name="Layer 1" viewBox="0 0 24 24"><path d="M20.728 3.272 15.275 0H8.724L3.272 3.272 0 8.725v6.551l3.272 5.452L8.724 24h6.551l5.452-3.272 3.272-5.452V8.725l-3.272-5.452Zm2.161 5.544-4.747 5.696-5.642-2.821V6.118l7.626-1.906 2.763 4.604ZM14.791 23H9.21l-2.856-7.617L12 12.559l5.647 2.824L14.791 23ZM9.002 1h5.996l4.073 2.444L12 5.212 4.929 3.444 9.002 1ZM3.874 4.212 11.5 6.118v5.573l-5.642 2.821-4.747-5.696 2.763-4.604ZM1 14.998v-4.754l4.29 5.148 2.603 6.942-3.892-2.335L1 14.998Zm18.999 5.001-3.892 2.335 2.603-6.942L23 10.244v4.754l-3.001 5.001Z"/></svg>