<svg xmlns="http://www.w3.org/2000/svg" width="512" height="512" data-name="Layer 1" viewBox="0 0 24 24"><path d="M21.5 2h-19A2.503 2.503 0 0 0 0 4.5V22h1v-3h22v3h1V4.5C24 3.122 22.879 2 21.5 2Zm-19 1h19c.827 0 1.5.673 1.5 1.5V13h-2v-1.5c0-1.378-1.121-2.5-2.5-2.5H14c-.817 0-1.544.394-2 1.002A2.497 2.497 0 0 0 10 9H5.5A2.503 2.503 0 0 0 3 11.5V13H1V4.5C1 3.673 1.673 3 2.5 3Zm9 10H4v-1.5c0-.827.673-1.5 1.5-1.5H10c.827 0 1.5.673 1.5 1.5V13Zm8.5 0h-7.5v-1.5c0-.827.673-1.5 1.5-1.5h4.5c.827 0 1.5.673 1.5 1.5V13ZM1 18v-4h22v4H1Z"/></svg>