<svg xmlns="http://www.w3.org/2000/svg" data-name="Layer 1" viewBox="0 0 24 24"><path d="m16.611 8.144.701.712-5.793 5.707c-.28.281-.657.437-1.058.437s-.777-.156-1.061-.439l-2.788-2.702.696-.718 2.793 2.707c.2.199.524.195.712.005l5.797-5.71Zm7.074 5.119-4.445 8.362A2.587 2.587 0 0 1 16.954 23H7.067a2.584 2.584 0 0 1-2.283-1.371L.317 13.272a2.685 2.685 0 0 1 0-2.535l4.467-8.365A2.585 2.585 0 0 1 7.068 1h9.887c.958 0 1.834.527 2.286 1.375l4.445 8.362c.42.791.42 1.734 0 2.525Zm-.883-2.056-4.445-8.361A1.59 1.59 0 0 0 16.954 2H7.067c-.587 0-1.124.323-1.402.843l-4.466 8.365a1.69 1.69 0 0 0 0 1.593l4.466 8.356c.278.52.815.843 1.401.843h9.887c.588 0 1.125-.324 1.403-.846l4.445-8.36a1.689 1.689 0 0 0 0-1.587Z"/></svg>