<svg xmlns="http://www.w3.org/2000/svg" width="512" height="512" data-name="Layer 1" viewBox="0 0 24 24"><path d="M19.732 13.732 13 20.464V24h3.536l6.732-6.732c.472-.472.732-1.1.732-1.768s-.26-1.296-.732-1.768c-.943-.944-2.592-.944-3.535 0Zm2.828 2.828-6.439 6.439h-2.122v-2.122l6.439-6.439c.566-.566 1.555-.566 2.121 0 .283.283.439.66.439 1.061s-.156.777-.439 1.061Zm-5.924-2.561H5v-1h12.637l-1 1ZM21.5 2H18V0h-1v2H7V0H6v2H2.5A2.503 2.503 0 0 0 0 4.5V24h11v-1H1V9h22v2.294c.352.122.692.27 1 .472V4.5C24 3.122 22.878 2 21.5 2ZM1 8V4.5C1 3.673 1.673 3 2.5 3h19c.827 0 1.5.673 1.5 1.5V8H1Zm4 10h7.636l-1 1H5v-1Z"/></svg>