<svg xmlns="http://www.w3.org/2000/svg" width="512" height="512" data-name="Layer 1" viewBox="0 0 24 24"><path d="M23.81 8.73A9.42 9.42 0 0 0 15.27.19C13.88.06 12.78 0 12 0s-1.88.06-3.27.19C4.19.6.6 4.19.19 8.73.06 10.12 0 11.22 0 12s.06 1.88.19 3.27c.41 4.54 4 8.13 8.54 8.54 1.39.13 2.49.19 3.27.19s1.88-.06 3.27-.19c4.54-.41 8.13-4 8.54-8.54.13-1.39.19-2.49.19-3.27s-.06-1.88-.19-3.27Zm-1 6.45a8.416 8.416 0 0 1-7.63 7.63c-1.36.12-2.43.19-3.18.19s-1.82-.06-3.18-.19a8.416 8.416 0 0 1-7.63-7.63C1.07 13.82 1 12.75 1 12s.06-1.82.19-3.18a8.398 8.398 0 0 1 7.63-7.63C10.18 1.07 11.25 1 12 1s1.82.06 3.18.19c4.06.37 7.27 3.58 7.63 7.63.12 1.36.19 2.43.19 3.18s-.06 1.82-.19 3.18Z"/></svg>