<svg xmlns="http://www.w3.org/2000/svg" width="512" height="512" data-name="Layer 1" viewBox="0 0 24 24"><path d="M12.064 8.5c-2.931.013-5.601.876-7.031 2.308A3.452 3.452 0 0 0 4 13.261V16h5v-3.017c.919-.359 2.032-.582 2.997-.568.947.006 2.069.223 3.003.573V16h5v-2.738c0-.915-.366-1.787-1.033-2.454C17.521 9.361 14.945 8.5 12.065 8.5ZM19 15h-3v-2.68c-1.117-.478-2.802-.897-3.997-.905-1.244-.036-2.897.416-4.003.911V15H5v-1.74c0-.647.262-1.267.74-1.745 1.23-1.23 3.63-2.003 6.262-2.015 2.627-.017 4.984.74 6.258 2.015.479.479.741 1.098.74 1.746V15Zm2.5-15h-19A2.502 2.502 0 0 0 0 2.5V24h24V2.5C24 1.121 22.879 0 21.5 0ZM23 23H1V2.5C1 1.673 1.673 1 2.5 1h19c.827 0 1.5.673 1.5 1.5V23Z"/></svg>