<svg xmlns="http://www.w3.org/2000/svg" width="512" height="512" data-name="Layer 1" viewBox="0 0 24 24"><path d="M7.707 8.293a.999.999 0 1 1-1.414 1.414.999.999 0 1 1 1.414-1.414Zm14.608 5.198-.427.441c.236.815.034 1.73-.607 2.371l-6.766 6.987c-.46.46-1.063.71-1.705.71s-1.245-.25-1.699-.704L1.03 13.215 2.041 4.07l9.153-1.252 10.087 10.086c.036.036.07.073.103.11l.219-.226c.27-.269.415-.622.415-.998s-.146-.729-.409-.992l-9.736-9.735-8.276 1.132-.135-.991L12.229.005l10.087 10.086a2.405 2.405 0 0 1 0 3.399Zm-1.741.121-9.735-9.736-7.89 1.079-.872 7.893 9.741 9.741c.529.53 1.455.53 1.984 0l6.766-6.987a1.406 1.406 0 0 0 .006-1.99Z"/></svg>