<svg xmlns="http://www.w3.org/2000/svg" width="512" height="512" data-name="Layer 1" viewBox="0 0 24 24"><path d="M21.5 3h-19A2.5 2.5 0 0 0 0 5.5V21h24V5.5A2.5 2.5 0 0 0 21.5 3Zm-19 1h19c.83 0 1.5.67 1.5 1.5V6H1v-.5C1 4.67 1.67 4 2.5 4ZM1 20V7h22v13H1ZM18.56 9H5.44l-.15.17C5.24 9.23 4 10.65 4 13s1.24 3.77 1.29 3.83l.15.17h13.12l.15-.17C18.76 16.77 20 15.35 20 13s-1.24-3.77-1.29-3.83L18.56 9ZM15 10v6H9v-6h6ZM5 13c0-1.53.64-2.61.91-3H8v6H5.91c-.28-.4-.91-1.47-.91-3Zm13.09 3H16v-6h2.09c.28.4.91 1.47.91 3s-.63 2.6-.91 3Z"/></svg>