<svg xmlns="http://www.w3.org/2000/svg" width="512" height="512" data-name="Layer 1" viewBox="0 0 24 24"><path d="m12.274 9.934-3.785 3.728c-.226.226-.523.338-.821.338s-.599-.113-.826-.341l-1.889-1.832.696-.718 1.894 1.837c.062.061.186.062.241.005l3.787-3.73.702.713ZM10 19h8v-1h-8v1Zm-4 0h2v-1H6v1Zm4-13h8V5h-8v1ZM8 5H6v1h2V5Zm14-2.5V24H2V2.5C2 1.122 3.122 0 4.5 0h15C20.878 0 22 1.122 22 2.5Zm-1 0c0-.827-.673-1.5-1.5-1.5h-15C3.673 1 3 1.673 3 2.5V23h18V2.5Zm-9 10.051h6v-1h-4.979l-1.021 1Z"/></svg>