<svg xmlns="http://www.w3.org/2000/svg" width="512" height="512" data-name="Layer 1" viewBox="0 0 24 24"><path d="M23.854.854a3150.5 3150.5 0 0 0-3.764 3.779l-3.325 3.339a.97.97 0 0 0 .235.029h5v1h-5c-1.103 0-2-.884-2-1.971V2h1v5.029a.91.91 0 0 0 .037.256c.773-.774 2.06-2.068 3.344-3.358C20.964 2.336 22.542.75 23.147.146l.707.707Zm-6.325 12.983 5.679 5.679-2.879 2.879C19.296 23.43 17.896 24 16.388 24 9.189 24 0 14.812 0 7.613c0-1.509.57-2.908 1.605-3.941L4.484.793l5.679 5.679L6.79 9.845c1.49 3.512 3.964 5.988 7.361 7.369l3.377-3.377Zm4.265 5.679-4.265-4.265-3.131 3.131-.303-.116c-3.921-1.496-6.733-4.307-8.357-8.352l-.123-.307L8.75 6.472 4.484 2.207 2.312 4.379C1.466 5.223 1 6.372 1 7.613 1 14.228 9.771 23 16.386 23c1.241 0 2.39-.466 3.234-1.312l2.172-2.172Z"/></svg>