<svg xmlns="http://www.w3.org/2000/svg" width="512" height="512" data-name="Layer 1" viewBox="0 0 24 24"><path d="M1 2.5C1 1.67 1.67 1 2.5 1H11v6h6v4.64l1-1V6.29L11.71 0H2.5A2.5 2.5 0 0 0 0 2.5V22h9v-1H1V2.5Zm11-.79L16.29 6H12V1.71Zm11.27 10.03c-.94-.94-2.59-.94-3.54 0L11 20.47v3.54h3.54l8.73-8.73c.47-.47.73-1.1.73-1.77s-.26-1.3-.73-1.77Zm-.71 2.83-8.44 8.44H12v-2.12l8.44-8.44c.57-.57 1.55-.57 2.12 0a1.499 1.499 0 0 1 0 2.12ZM14 13.01c0-1.1-.9-2-2-2s-2 .9-2 2c0 .81.58 2.03 1.42 3.03-.62.56-1.42.97-2.42.97-.8 0-1.58-.39-2.28-.99C8.13 14.42 9 12.23 9 11.01c0-1.65-1.35-3-3-3s-3 1.35-3 3c0 1.22.87 3.4 2.28 5.01-.7.6-1.48.99-2.28.99v1c1.11 0 2.13-.51 3-1.27.87.76 1.89 1.27 3 1.27 3.3 0 5-3.5 5-5Zm-10-2c0-1.1.9-2 2-2s2 .9 2 2-.81 2.93-2 4.29c-1.19-1.36-2-3.2-2-4.29Zm7 2c0-.55.45-1 1-1s1 .45 1 1c0 .45-.29 1.41-.91 2.27-.68-.85-1.09-1.8-1.09-2.27Z"/></svg>