<svg xmlns="http://www.w3.org/2000/svg" data-name="Layer 1" viewBox="0 0 24 24"><path d="M21.5 2h-19A2.503 2.503 0 0 0 0 4.5V22h24V4.5C24 3.122 22.879 2 21.5 2ZM23 21H1V4.5C1 3.673 1.673 3 2.5 3h19c.827 0 1.5.673 1.5 1.5V21ZM16.5 7H13v10h3.5c1.93 0 3.5-1.57 3.5-3.5v-3C20 8.57 18.43 7 16.5 7Zm2.5 6.5c0 1.378-1.121 2.5-2.5 2.5H14V8h2.5c1.379 0 2.5 1.122 2.5 2.5v3ZM5 9.75c0 .732.524 1.351 1.246 1.472l2.694.575A2.477 2.477 0 0 1 11 14.251a2.752 2.752 0 0 1-2.75 2.75H7c-1.654 0-3-1.346-3-3h1c0 1.103.897 2 2 2h1.25c.965 0 1.75-.785 1.75-1.75 0-.732-.524-1.351-1.246-1.472l-2.694-.575A2.477 2.477 0 0 1 4 9.75 2.752 2.752 0 0 1 6.75 7H8c1.654 0 3 1.346 3 3h-1c0-1.103-.897-2-2-2H6.75C5.785 8 5 8.785 5 9.75Z"/></svg>