<svg xmlns="http://www.w3.org/2000/svg" width="512" height="512" data-name="Layer 1" viewBox="0 0 24 24"><path d="M16 18v-2c0-2.206-1.794-4-4-4s-4 1.794-4 4v2H7v-2c0-2.757 2.243-5 5-5s5 2.243 5 5v2h-1ZM12.909.317a1.505 1.505 0 0 0-1.817 0L0 8.761V18h1V9.256l10.697-8.143a.501.501 0 0 1 .606 0L23 9.257v8.744h1v-9.24L12.909.317ZM22.5 23c-1.654 0-3-1.346-3-3h-1c0 1.654-1.346 3-3 3s-3-1.346-3-3h-1c0 1.654-1.346 3-3 3s-3-1.346-3-3h-1a3.004 3.004 0 0 1-4.103 2.791l-.368.93A4.004 4.004 0 0 0 5 21.935C5.683 23.166 6.996 24 8.5 24s2.817-.835 3.5-2.065C12.683 23.166 13.996 24 15.5 24s2.817-.835 3.5-2.065a4.002 4.002 0 0 0 4.98 1.782l-.37-.929A2.98 2.98 0 0 1 22.5 23Z"/></svg>