<svg xmlns="http://www.w3.org/2000/svg" width="512" height="512" data-name="Layer 1" viewBox="0 0 24 24"><path d="M12 0C5.383 0 0 5.383 0 12s5.383 12 12 12 12-5.383 12-12S18.617 0 12 0Zm0 23C5.935 23 1 18.065 1 12S5.935 1 12 1s11 4.935 11 11-4.935 11-11 11Zm5-9.75v-2.5c0-2.757-2.243-5-5-5s-5 2.243-5 5v2.5c0 2.757 2.243 5 5 5a4.984 4.984 0 0 0 3.298-1.245l1.599 1.599.707-.707-1.624-1.624A4.972 4.972 0 0 0 17 13.25Zm-5 4c-2.206 0-4-1.794-4-4v-2.5c0-2.206 1.794-4 4-4s4 1.794 4 4v2.5c0 .859-.272 1.656-.735 2.308l-1.912-1.912-.707.707 1.943 1.943A3.985 3.985 0 0 1 12 17.25Z"/></svg>