<svg xmlns="http://www.w3.org/2000/svg" width="512" height="512" data-name="Layer 1" viewBox="0 0 24 24"><path d="M22 6h-8c-1.103 0-2 .897-2 2v16h12V8c0-1.103-.897-2-2-2Zm1 17H13V8c0-.551.448-1 1-1h8c.552 0 1 .449 1 1v15Zm-5-8c-1.654 0-3 1.346-3 3s1.346 3 3 3 3-1.346 3-3-1.346-3-3-3Zm0 5c-1.103 0-2-.897-2-2s.897-2 2-2 2 .897 2 2-.897 2-2 2Zm-1.5-8.5a1.5 1.5 0 1 1 3.001.001A1.5 1.5 0 0 1 16.5 11.5ZM1 16h9v5H5v-1h4v-3H0V2.5C0 1.122 1.121 0 2.5 0h16C19.879 0 21 1.122 21 2.5V4h-1V2.5c0-.827-.673-1.5-1.5-1.5h-16C1.673 1 1 1.673 1 2.5V16Z"/></svg>