<svg xmlns="http://www.w3.org/2000/svg" width="512" height="512" data-name="Layer 1" viewBox="0 0 24 24"><path d="M19.832 2H12.5V0h-1v2H4.168L.039 11.806 0 12.5C0 14.981 2.019 17 4.5 17S9 14.981 9 12.5V12L5.25 3h6.25v20H4v1h16v-1h-7.5V3h6.247l-3.708 8.806L15 12.5c0 2.481 2.019 4.5 4.5 4.5s4.5-2.019 4.5-4.5V12L19.832 2ZM4.5 16a3.507 3.507 0 0 1-3.465-3h6.93A3.507 3.507 0 0 1 4.5 16Zm-3.457-4L4.5 3.789 7.957 12H1.043ZM19.5 3.789 22.957 12h-6.914L19.5 3.789ZM19.5 16a3.507 3.507 0 0 1-3.465-3h6.93a3.507 3.507 0 0 1-3.465 3Z"/></svg>