<svg xmlns="http://www.w3.org/2000/svg" width="512" height="512" data-name="Layer 1" viewBox="0 0 24 24"><path d="m20.49 3.51-.71.71c4.17 4.17 4.28 10.9.33 15.21l-2.83-2.83A6.958 6.958 0 0 0 19 12c0-1.87-.73-3.63-2.05-4.95l-.71.71c2.22 2.22 2.33 5.78.33 8.13l-2.86-2.86c.19-.31.29-.66.29-1.03 0-.53-.21-1.04-.59-1.41-.64-.64-1.68-.74-2.44-.3L.77.09.07.8 23.27 24l.71-.71-3.15-3.15c4.34-4.7 4.23-12.06-.33-16.62Zm-7.78 7.78c.19.19.29.44.29.71 0 .1-.01.19-.04.28l-1.23-1.23c.34-.09.72 0 .98.25Zm-8.49 8.49-.71.71C-.55 16.42-1.08 10.13 1.92 5.48l.72.72C.02 10.45.55 16.1 4.22 19.78Zm3.54-3.54-.71.71A6.96 6.96 0 0 1 5 12c0-.99.21-1.96.6-2.84l.77.77a5.986 5.986 0 0 0 1.39 6.31Z"/></svg>