<svg xmlns="http://www.w3.org/2000/svg" width="512" height="512" data-name="Layer 1" viewBox="0 0 24 24"><path d="M16.154 5.244C17.27 4.375 18 3.204 18 2h-1c0 1.565-1.967 3.435-4.5 3.658V0h-1v5.658C8.967 5.436 7 3.566 7 2H6c0 1.203.73 2.374 1.846 3.244C3.476 5.517 0 9.38 0 14.091 0 18.769 3.567 24 8.341 24h7.318C20.432 24 24 18.769 24 14.091c0-4.711-3.476-8.574-7.846-8.847ZM15.659 23H8.341C4.139 23 1 18.296 1 14.091c0-4.336 3.293-7.863 7.341-7.863a6.84 6.84 0 0 1 2.822.605c-.539.971-1.772 2.554-4.284 3.182l.242.971C9.926 10.285 11.347 8.527 12 7.38c.652 1.147 2.074 2.905 4.879 3.606l.242-.971c-2.512-.627-3.745-2.21-4.283-3.182a6.823 6.823 0 0 1 2.821-.605c4.048 0 7.341 3.527 7.341 7.863C23 18.296 19.86 23 15.659 23Z"/></svg>