<svg xmlns="http://www.w3.org/2000/svg" width="512" height="512" data-name="Layer 1" viewBox="0 0 24 24"><path d="m5.301 5.082 2.6-1.3-2.6-1.301L4-.117 2.699 2.482.1 3.782l2.6 1.3 1.301 2.601 1.301-2.601Zm-2.965-1.3 1.109-.555L4 2.117l.555 1.11 1.109.555-1.109.554L4 5.446l-.555-1.11-1.109-.554Zm19.287.495L20.5 2.032l-1.123 2.245L17.132 5.4l2.245 1.123L20.5 8.768l1.123-2.245L23.868 5.4l-2.245-1.123Zm-.746 1.5-.377.755-.377-.755-.755-.377.755-.377.377-.755.377.755.755.377-.755.377ZM8 19h8v1H8v-1Zm-3.959-6.284.822.568 3.605-5.207c.149-.215.329-.403.531-.559v7.481h6V7.517c.202.156.382.343.531.558l3.605 5.208.822-.568-3.605-5.209a3.504 3.504 0 0 0-2.878-1.507h-2.951a3.501 3.501 0 0 0-2.878 1.508L4.04 12.715ZM13.476 7c.178 0 .354.019.524.056V14h-4V7.056c.171-.037.346-.056.524-.056h2.951ZM4 23h16v1H4v-1Zm8-18c1.379 0 2.5-1.121 2.5-2.5S13.379 0 12 0 9.5 1.121 9.5 2.5 10.621 5 12 5Zm0-4c.827 0 1.5.673 1.5 1.5S12.827 4 12 4s-1.5-.673-1.5-1.5S11.173 1 12 1Z"/></svg>