<svg xmlns="http://www.w3.org/2000/svg" width="512" height="512" data-name="Layer 1" viewBox="0 0 24 24"><path d="M18.167 5.664c-1.593.68-2.888 1.753-3.745 3.104l-.844-.535c.965-1.523 2.416-2.729 4.196-3.488l.393.92Zm-11.971-.92-.393.92c1.589.677 2.896 1.74 3.779 3.077l.834-.553c-.992-1.5-2.452-2.69-4.221-3.444ZM6 11h4v-1H6v1Zm8 0h4v-1h-4v1Zm10 9c0 1.082-.892 1.999-1.947 2.003l-.104-.002C21.713 23.159 20.684 24 19.5 24s-2.214-.841-2.449-2H17c-1.103 0-2-.897-2-2 0-1.05.813-1.914 1.844-1.994l-2.721-3.969s4.11 1.947 4.972 2.387l.007-.021A1.984 1.984 0 0 1 21 15.001a2.002 2.002 0 0 1 1.657 3.119A2 2 0 0 1 24 20.001Zm-1 0c0-.419-.271-.796-.674-.938l-1.226-.43.729-1.074A1 1 0 0 0 21 15.999a.988.988 0 0 0-.944.702l-.363 1.154-.528-.272c-.017-.009-1.084-.559-2.143-1.088l1.716 2.504h-1.737a1 1 0 0 0 0 2h.772l.243.741c.154.753.772 1.259 1.484 1.259s1.33-.506 1.47-1.202l.163-.809.926.014c.506-.002.941-.461.941-1.003ZM9 20c0 1.103-.897 2-2 2h-.048l-.018.053C6.716 23.157 5.686 24 4.499 24s-2.212-.84-2.449-1.999l-.094.002C.891 21.999-.001 21.082-.001 20c0-.843.54-1.599 1.343-1.881A2.002 2.002 0 0 1 2.999 15c.872 0 1.635.563 1.898 1.402l.007.021c.861-.439 4.971-2.386 4.971-2.386l-2.72 3.968c1.03.08 1.844.944 1.844 1.994Zm-1 0a1 1 0 0 0-1-1H5.263l1.717-2.504c-1.06.529-2.127 1.079-2.144 1.088l-.528.272-.362-1.153A.992.992 0 0 0 3.001 16a1 1 0 0 0-.829 1.559l.729 1.074-1.225.43a1.002 1.002 0 0 0-.675.938c0 .542.436 1.001.951 1.003l.918-.014.161.81c.141.695.759 1.201 1.47 1.201s1.33-.506 1.47-1.202l.26-.798h.771a1 1 0 0 0 1-1Zm-6.886-6.505C1.047 13.005 1 12.509 1 12 1 5.935 5.935 1 12 1s11 4.935 11 11c0 .508-.047 1.004-.114 1.495.332.179.643.391.91.653.127-.698.203-1.414.203-2.148C24 5.383 18.617 0 12 0S0 5.383 0 12c0 .734.076 1.45.203 2.148.267-.262.579-.474.91-.653ZM12 23c-.734 0-1.45-.075-2.144-.213-.305.31-.663.567-1.057.766C9.82 23.836 10.89 24 12 24s2.18-.163 3.201-.447a4.046 4.046 0 0 1-1.057-.766c-.694.138-1.41.213-2.144.213Z"/></svg>