<svg xmlns="http://www.w3.org/2000/svg" width="512" height="512" data-name="Layer 1" viewBox="0 0 24 24"><path d="M7.511 11.025c-.329.329-.511.767-.511 1.232s.182.903.511 1.232a1.74 1.74 0 0 0 2.463 0c.56-.56.847-2.3.922-2.82l.095-.661-.661.095c-.52.075-2.26.362-2.819.922Zm1.757 1.757a.742.742 0 1 1-1.05-1.05c.166-.166.851-.372 1.568-.519-.147.718-.353 1.403-.519 1.569Zm4.396-2.687-.666-.098.098.666c.077.521.371 2.268.93 2.826.34.34.786.51 1.232.51s.892-.17 1.231-.51c.329-.329.511-.766.511-1.232s-.182-.903-.511-1.232c-.559-.559-2.304-.853-2.825-.929Zm2.118 2.687a.742.742 0 0 1-1.05 0c-.166-.167-.374-.853-.523-1.574.721.15 1.406.357 1.573.524.141.14.218.327.218.525s-.077.385-.218.525ZM24 14c0-3.601-5.537-8-12-8-6.758 0-12 4.331-12 8.056 0 .971.561 2.764 2.659 2.941l.816 4.913A2.491 2.491 0 0 0 5.941 24H18.06a2.492 2.492 0 0 0 2.467-2.09l.817-4.924c2.091-.18 2.657-2 2.657-2.985Zm-4.46 7.746A1.495 1.495 0 0 1 18.06 23H5.94a1.495 1.495 0 0 1-1.479-1.254l-.574-3.457A3.498 3.498 0 0 0 9 17.304c.624 1.037 1.758 1.697 3 1.697s2.376-.66 3-1.697a3.5 3.5 0 0 0 5.114.985l-.574 3.458ZM21 16h-.524l-.118.333c-.353.997-1.3 1.667-2.357 1.667s-2.005-.67-2.357-1.667L15.526 16h-1.049l-.118.333c-.353.997-1.3 1.667-2.357 1.667s-2.005-.67-2.357-1.667L9.527 16H8.478l-.118.333C8.007 17.33 7.06 18 6.003 18s-2.005-.67-2.357-1.667l-.126-.357-.542.036c-1.901 0-1.973-1.759-1.975-1.957 0-3.196 4.906-7.056 11-7.056 6.276 0 11 4.247 11 7 0 .082-.022 2-2 2ZM12.5 4h-1V0h1v4ZM17 4h-1V0h1v4ZM8 4H7V0h1v4Z"/></svg>