<svg xmlns="http://www.w3.org/2000/svg" data-name="Layer 1" viewBox="0 0 24 24"><path d="m23.944 12.13-2.928-1.604.009-.016 2.507-1.792L8.509.301a2.504 2.504 0 0 0-3.383 1.001L3.305 4.638a2.501 2.501 0 0 0 .99 3.388l6.406 3.632-1.772 5.315a1.499 1.499 0 0 1-1.423 1.026H1v-5H0v11h1v-5h6.507a2.497 2.497 0 0 0 2.372-1.709l1.71-5.129 6.519 3.696.595-1.09 2.928 1.604 2.314-4.24Zm-6.228 2.355L4.782 7.153a1.502 1.502 0 0 1-.598-2.035l1.821-3.336A1.506 1.506 0 0 1 7.326 1c.238 0 .479.057.701.177L21.67 8.821l-1.319.943-2.634 4.722Zm1.465-.597 1.356-2.485 2.051 1.123-1.356 2.484-2.051-1.123Z"/></svg>