<svg xmlns="http://www.w3.org/2000/svg" width="512" height="512" data-name="Layer 1" viewBox="0 0 24 24"><path d="M19 19H5V1h13.5a.5.5 0 0 1 .5.5V4h1V1.5c0-.827-.673-1.5-1.5-1.5h-16A2.503 2.503 0 0 0 0 2.5v19C0 22.878 1.121 24 2.5 24H20v-7h-1v2ZM2.5 1H4v18H2.5c-.562 0-1.082.187-1.5.501V2.5C1 1.673 1.673 1 2.5 1Zm0 22c-.827 0-1.5-.673-1.5-1.5S1.673 20 2.5 20H19v3H2.5Zm20.923-11.106-2.871 2.871-.707-.707 2.871-2.871a.963.963 0 0 0 .146-.187H12v-1h10.862a.994.994 0 0 0-.146-.187l-2.909-2.909.707-.707 2.909 2.909a1.972 1.972 0 0 1 0 2.787Z"/></svg>