<svg xmlns="http://www.w3.org/2000/svg" width="512" height="512" data-name="Layer 1" viewBox="0 0 24 24"><path d="M23.685 10.737 19.24 2.376A2.584 2.584 0 0 0 16.954 1H7.067c-.957 0-1.832.525-2.284 1.372L.316 10.737a2.69 2.69 0 0 0 0 2.535l4.466 8.356a2.585 2.585 0 0 0 2.283 1.371h9.887c.959 0 1.835-.527 2.286-1.376l4.445-8.361a2.682 2.682 0 0 0 0-2.525Zm-.883 2.057-4.445 8.361a1.586 1.586 0 0 1-1.403.845H7.067a1.585 1.585 0 0 1-1.401-.842l-4.467-8.356a1.689 1.689 0 0 1 0-1.594l4.467-8.365C5.944 2.323 6.481 2 7.068 2h9.887c.588 0 1.125.324 1.403.845l4.445 8.361a1.691 1.691 0 0 1 0 1.588ZM12.5 14h-1V6h1v8Zm.5 3a1 1 0 1 1-2 0 1 1 0 0 1 2 0Z"/></svg>