<svg xmlns="http://www.w3.org/2000/svg" width="512" height="512" data-name="Layer 1" viewBox="0 0 24 24"><path d="M8.51 5a2.5 2.5 0 0 0 0-5 2.5 2.5 0 0 0 0 5Zm0-4c.83 0 1.5.67 1.5 1.5S9.34 4 8.51 4s-1.5-.67-1.5-1.5S7.68 1 8.51 1Zm9.42 12.26-4.07-3.11-1.97-3.02A2.488 2.488 0 0 0 9.8 6H6.66c-.86 0-1.65.44-2.11 1.17L.08 14.23l.85.53L5.38 7.7c.15-.24.37-.43.62-.55v7.39l5.11 3.32 3.29 6.16.88-.47-3.42-6.38-.87-.56v-9s.03.05.05.07l2.02 3.09 4.03 3.06 5.61 10.18.88-.48-5.66-10.27ZM7 13.99V7h2.79c.07 0 .14 0 .21.01v8.93l-3-1.95Zm-1.23 2.65c.05.04.92.59.92.59l-1.41 6.74H4.25l1.51-7.33Z"/></svg>