<svg xmlns="http://www.w3.org/2000/svg" width="512" height="512" data-name="Layer 1" viewBox="0 0 24 24"><path d="M.761 7.833a2.598 2.598 0 0 1-.002-3.669L4.824.063l5.928 5.851-3.103 3.17-.715-.699L9.34 5.926 7.278 3.891 4.876 6.317l-.711-.703 2.401-2.425-1.735-1.713-3.363 3.393a1.597 1.597 0 0 0-.001 2.255l3.976 3.931-.703.711L.761 7.833Zm14.154 8.517.699.715 2.459-2.406 2.036 2.062-2.426 2.401.703.711 2.425-2.401 1.712 1.735-3.396 3.366a1.593 1.593 0 0 1-2.25.002l-3.932-3.978-.711.703 3.934 3.979c.506.506 1.17.759 1.834.759s1.327-.253 1.831-.757l4.104-4.067-5.852-5.929-3.17 3.104Zm8.12-10.728L4.658 24H0v-4.657L18.377.965a3.3 3.3 0 0 1 4.658 0c.622.622.965 1.449.965 2.329S23.657 5 23.035 5.622Zm-4.278 2.864-3.243-3.243L1 19.757V23h3.244L18.757 8.486ZM23 3.294a2.295 2.295 0 0 0-3.916-1.622L16.22 4.536l3.243 3.243 2.864-2.864a2.276 2.276 0 0 0 .672-1.621Z"/></svg>