<svg xmlns="http://www.w3.org/2000/svg" width="512" height="512" data-name="Layer 1" viewBox="0 0 24 24"><path d="M14.761 10H9.24L.09 23.125l-.09.218V24h23.5l.5-.089v-.657L14.761 10Zm-5 1h4.479l2.205 3.163a3.522 3.522 0 0 0-1.833 1.363c-.516-.91-1.493-1.526-2.611-1.526a3 3 0 0 0-2.611 1.526 3.514 3.514 0 0 0-1.833-1.363L9.762 11ZM1.396 23l5.548-7.96a2.503 2.503 0 0 1 2.055 2.46V19h1v-2c0-1.103.897-2 2-2s2 .897 2 2v4h1v-3.5c0-1.227.888-2.249 2.055-2.46L22.602 23H1.396ZM2 5.5c0-1.491 1.325-2.704 2.84-2.474A3.47 3.47 0 0 1 8 1c.45 0 .89.089 1.313.267C9.974.467 10.95 0 12 0s2.025.466 2.687 1.267A3.383 3.383 0 0 1 16 1a3.47 3.47 0 0 1 3.16 2.026C20.676 2.797 22 4.009 22 5.5 22 6.878 20.879 8 19.5 8a2.472 2.472 0 0 1-1.59-.581A3.47 3.47 0 0 1 16 8h-3V7h3c.598 0 1.16-.214 1.629-.621l.389-.337.326.399c.29.355.711.559 1.156.559.827 0 1.5-.673 1.5-1.5S20.327 4 19.5 4c-.151 0-.31.029-.484.089l-.488.168-.152-.493c-.453-1.461-2.186-2.23-3.6-1.43l-.414.234-.255-.402a2.484 2.484 0 0 0-4.212 0l-.255.402-.414-.234c-1.415-.801-3.147-.031-3.6 1.43l-.152.493-.488-.168A1.483 1.483 0 0 0 4.502 4c-.827 0-1.5.673-1.5 1.5S3.675 7 4.502 7c.445 0 .866-.204 1.156-.559l.326-.399.389.337A2.461 2.461 0 0 0 8.002 7h3v1h-3a3.47 3.47 0 0 1-1.91-.581A2.467 2.467 0 0 1 4.502 8a2.503 2.503 0 0 1-2.5-2.5Z"/></svg>