<svg xmlns="http://www.w3.org/2000/svg" width="512" height="512" data-name="Layer 1" viewBox="0 0 24 24"><path d="M23.319.674C23.285.688 19.869 2 17.001 2c-1.435 0-3.309-.5-5.121-.983C10.006.517 8.068 0 6.502 0 3.387 0 .351 1.999.223 2.084L0 2.232V24h1v-7.223C1.731 16.336 4.145 15 6.502 15c1.435 0 3.309.5 5.121.983 1.874.5 3.812 1.017 5.378 1.017 3.059 0 6.533-1.336 6.68-1.393l.319-.124V.41l-.681.264ZM23 7.79c-.789.278-2.92.974-5.002 1.162V2.956c1.991-.165 3.988-.763 5.002-1.106v5.941ZM12 2.083c1.754.466 3.538.916 4.998.917v6c-1.403 0-3.225-.478-4.999-.951V2.083Zm0 7c1.754.466 3.539.916 4.999.917v6c-1.403 0-3.226-.479-5-.951V9.084Zm-.998-7.266v5.967C9.411 7.368 7.824 7 6.503 7c-.167 0-.334.006-.501.017V1.02A6.48 6.48 0 0 1 6.504 1c1.271 0 2.886.392 4.498.817Zm-6-.656v5.981c-1.649.299-3.137 1.005-4 1.479V2.777c.575-.347 2.19-1.247 4-1.616ZM1 9.777c.575-.347 2.19-1.247 4-1.616v5.981c-1.649.299-3.137 1.005-4 1.479V9.776Zm5 4.24V8.019c.167-.013.334-.02.501-.02 1.271 0 2.886.392 4.498.817v5.966c-1.59-.415-3.176-.783-4.497-.783-.168 0-.335.006-.502.017Zm11.998 1.935V9.956c1.991-.165 3.988-.764 5.002-1.107v5.941c-.79.278-2.921.974-5.002 1.162Z"/></svg>