<svg xmlns="http://www.w3.org/2000/svg" width="512" height="512" data-name="Layer 1" viewBox="0 0 24 24"><path d="M21.5 0h-19A2.503 2.503 0 0 0 0 2.5V20h7.106l3.897 3.283c.286.254.645.38 1.001.38.353 0 .703-.123.979-.368L16.968 20H24V2.5C24 1.121 22.878 0 21.5 0ZM23 19h-6.391l-4.276 3.535a.5.5 0 0 1-.675-.009L7.471 19H1V2.5C1 1.673 1.673 1 2.5 1h19c.827 0 1.5.673 1.5 1.5V19ZM17 7.971V13h-1V7.971a.95.95 0 0 0-.029-.234l-7.118 7.117-.707-.707 7.118-7.117a.957.957 0 0 0-.235-.029H10v-1h5.029c1.086 0 1.971.884 1.971 1.971Z"/></svg>