<svg xmlns="http://www.w3.org/2000/svg" width="512" height="512" data-name="Layer 1" viewBox="0 0 24 24"><path d="M10 24a9.932 9.932 0 0 1-7.071-2.929c-3.909-3.909-3.909-10.767 0-14.676L10 .04l7.052 6.336c3.929 3.928 3.929 10.786.02 14.695A9.936 9.936 0 0 1 10.001 24Zm0-22.615L3.616 7.12c-3.513 3.514-3.513 9.711.02 13.244C5.336 22.064 7.596 23 10 23s4.664-.937 6.364-2.636c3.532-3.533 3.532-9.729 0-13.262L10 1.385ZM21.5 5C20.121 5 19 3.878 19 2.5S20.121 0 21.5 0 24 1.122 24 2.5 22.879 5 21.5 5Zm0-4c-.827 0-1.5.673-1.5 1.5S20.673 4 21.5 4 23 3.327 23 2.5 22.327 1 21.5 1Z"/></svg>