<svg xmlns="http://www.w3.org/2000/svg" width="512" height="512" data-name="Layer 1" viewBox="0 0 24 24"><path d="M23.02 14.08c-.39-1.98-1.19-3.68-2.37-5.05l.76-.65c1.3 1.51 2.18 3.36 2.6 5.51l-.98.19Zm.02 2.91.95.32C22.89 20.6 21.4 22 19 22c-1.58 0-3-.97-4.14-2.3-1.3 1.34-2.97 2.3-4.94 2.3-1.66 0-3.28-1.08-4.71-2.69C3.76 20.93 2.01 22 .01 22v-1c1.67 0 3.21-1 4.53-2.51C1.87 15.06 0 9.93 0 7c0-2.66 2.3-5 4.93-5S10 4.38 10 7c0 2.88-1.5 8.07-4.15 11.53C7.13 20.01 8.53 21 9.92 21c1.72 0 3.18-.88 4.33-2.1C12.84 16.91 12 14.43 12 13c0-1.57 1.43-3 3.01-3S18 11.43 18 13c0 1.47-.88 3.96-2.47 5.94C16.51 20.13 17.7 21 19 21c1.62 0 2.93-.68 4.04-4.01ZM9 7c0-2.06-1.98-4-4.07-4S1 4.91 1 7c0 2.68 1.78 7.47 4.18 10.69C7.52 14.55 9 9.88 9 7Zm7.99 6c0-1.03-.97-2-1.99-2s-2.01.97-2.01 2c0 1.19.74 3.34 1.92 5.11 1.33-1.75 2.08-3.87 2.08-5.11Z"/></svg>