<svg xmlns="http://www.w3.org/2000/svg" width="512" height="512" data-name="Layer 1" viewBox="0 0 24 24"><path d="M12 0C5.383 0 0 5.383 0 12s5.383 12 12 12 12-5.383 12-12S18.617 0 12 0Zm0 23C5.935 23 1 18.065 1 12S5.935 1 12 1s11 4.935 11 11-4.935 11-11 11Zm3.096-11.928A3.114 3.114 0 0 0 16 8.875a3.129 3.129 0 0 0-3.125-3.125H9.5A2.503 2.503 0 0 0 7 8.25v7.5c0 1.378 1.122 2.5 2.5 2.5h4.875A3.629 3.629 0 0 0 18 14.625a3.632 3.632 0 0 0-2.904-3.553ZM8 8.25c0-.827.673-1.5 1.5-1.5h3.375c1.172 0 2.125.953 2.125 2.125S14.047 11 12.875 11H8V8.25Zm6.375 9H9.5c-.827 0-1.5-.673-1.5-1.5V12h6.375C15.822 12 17 13.178 17 14.625s-1.178 2.625-2.625 2.625Z"/></svg>