<svg xmlns="http://www.w3.org/2000/svg" width="512" height="512" data-name="Layer 1" viewBox="0 0 24 24"><path d="M20.944 8c-.499-4.494-4.32-8-8.944-8S3.555 3.506 3.056 8H.015l1.844 13.831A2.509 2.509 0 0 0 4.337 24h15.315a2.508 2.508 0 0 0 2.478-2.169L23.974 8h-3.031ZM12 1c4.073 0 7.444 3.059 7.938 7H4.062C4.556 4.059 7.927 1 12 1Zm7.684 8L14 14.684 8.316 9h11.367Zm1.456 12.698A1.505 1.505 0 0 1 19.653 23H4.337c-.749 0-1.388-.56-1.487-1.302L1.158 9h5.744L14 16.098 21.098 9h1.735L21.14 21.698Z"/></svg>