<svg xmlns="http://www.w3.org/2000/svg" width="512" height="512" data-name="Layer 1" viewBox="0 0 24 24"><path d="M24 4.591v16.097L12 24.02 0 20.688V4.591c0-.771.339-1.496.931-1.989.021-.018.047-.029.069-.046v17.372l11 3.053 11-3.053V2.556c.022.017.047.028.069.046.592.494.931 1.219.931 1.989ZM12 21.02l-9-2.572V3.501c0-.792.363-1.519.995-1.996a2.484 2.484 0 0 1 2.192-.408l4.189 1.197A2.928 2.928 0 0 1 12 3.479a2.928 2.928 0 0 1 1.624-1.185l4.189-1.197a2.48 2.48 0 0 1 2.192.408c.632.477.995 1.205.995 1.996v14.947l-9 2.572Zm.5-1.183 7.5-2.143V3.501a1.49 1.49 0 0 0-.597-1.198 1.494 1.494 0 0 0-1.315-.244l-4.19 1.197A1.937 1.937 0 0 0 12.5 5.11v14.727Zm-1-14.727c0-.857-.575-1.62-1.398-1.854L5.913 2.059a1.486 1.486 0 0 0-1.315.244 1.49 1.49 0 0 0-.597 1.198v14.193l7.5 2.143V5.11Z"/></svg>