<svg xmlns="http://www.w3.org/2000/svg" data-name="Layer 1" viewBox="0 0 24 24"><path d="M12 17c2.757 0 5-2.243 5-5s-2.243-5-5-5-5 2.243-5 5 2.243 5 5 5Zm0-9c2.206 0 4 1.794 4 4s-1.794 4-4 4-4-1.794-4-4 1.794-4 4-4Zm12 4c0 .633-.158 1.25-.456 1.788a3.824 3.824 0 0 1-1.279 1.384c-.616.397-.927 1.123-.772 1.804.143.631.12 1.278-.065 1.924a3.7 3.7 0 0 1-1.427 1.99v-1.397c.203-.264.375-.55.466-.87.139-.482.156-.962.052-1.426-.248-1.089.236-2.24 1.205-2.866.39-.251.708-.597.946-1.027.217-.391.331-.841.331-1.304 0-.463-.114-.913-.331-1.303a2.827 2.827 0 0 0-.945-1.026c-.97-.627-1.454-1.778-1.206-2.868a2.84 2.84 0 0 0-.052-1.424 2.745 2.745 0 0 0-1.844-1.845 2.866 2.866 0 0 0-1.425-.051c-1.086.252-2.24-.236-2.866-1.205a2.844 2.844 0 0 0-1.026-.946 2.747 2.747 0 0 0-2.608 0 2.83 2.83 0 0 0-1.027.946c-.625.969-1.775 1.454-2.867 1.205a2.847 2.847 0 0 0-1.423.051 2.75 2.75 0 0 0-1.845 1.844 2.856 2.856 0 0 0-.051 1.425c.248 1.09-.237 2.242-1.206 2.867-.39.251-.708.597-.946 1.027-.217.392-.331.842-.331 1.304s.114.912.331 1.304c.238.431.556.776.946 1.027.969.625 1.454 1.777 1.207 2.866-.105.462-.088.941.05 1.426.092.319.263.606.466.869v1.397a3.704 3.704 0 0 1-1.427-1.991 3.81 3.81 0 0 1-.064-1.923c.154-.681-.156-1.406-.773-1.805a3.829 3.829 0 0 1-1.279-1.383C.161 13.249.003 12.631.003 12s.158-1.249.456-1.788a3.829 3.829 0 0 1 1.279-1.383c.617-.398.928-1.124.773-1.806a3.819 3.819 0 0 1 .065-1.922 3.716 3.716 0 0 1 2.53-2.529 3.82 3.82 0 0 1 1.92-.064c.683.154 1.407-.156 1.806-.773A3.83 3.83 0 0 1 10.214.457a3.721 3.721 0 0 1 3.578 0 3.831 3.831 0 0 1 1.382 1.278c.398.617 1.125.928 1.805.773a3.838 3.838 0 0 1 1.922.064 3.713 3.713 0 0 1 2.529 2.529c.186.645.208 1.292.065 1.922-.154.682.156 1.407.773 1.806.528.34.959.806 1.278 1.383.298.538.456 1.155.456 1.787Zm-6.571 5.502c-.335-.337-.802-.501-1.429-.501-1.47 0-3.217 1.81-4 2.717-.783-.906-2.53-2.717-4-2.717-.626 0-1.094.164-1.429.501-.589.594-.582 1.526-.573 2.606v.785c-.008 1.08-.016 2.013.573 2.606.335.337.802.501 1.429.501 1.47 0 3.217-1.81 4-2.717.783.906 2.53 2.717 4 2.717.627 0 1.094-.164 1.429-.501.589-.594.582-1.526.573-2.605v-.787c.009-1.079.016-2.012-.573-2.605ZM8 23.001c-.346 0-.582-.067-.719-.205-.296-.299-.29-1.074-.283-1.895V20.1c-.006-.82-.013-1.596.283-1.895.137-.138.373-.205.719-.205.935 0 2.45 1.426 3.355 2.5C10.45 21.574 8.934 23 8 23Zm9.002-2.099c.007.82.013 1.595-.283 1.893-.137.139-.372.206-.719.206-.935 0-2.45-1.426-3.356-2.5.906-1.074 2.421-2.5 3.356-2.5.347 0 .582.067.719.206.296.298.29 1.072.283 1.893v.803Z"/></svg>