<svg xmlns="http://www.w3.org/2000/svg" width="512" height="512" data-name="Layer 1" viewBox="0 0 24 24"><path d="m19 11.993 3.535-3.458C23.48 7.591 24 6.335 24 4.999s-.52-2.591-1.465-3.536C21.591.519 20.335-.001 19-.001s-2.591.52-3.536 1.464a5.006 5.006 0 0 0 .004 7.075L19 11.992Zm-2.829-9.822C16.927 1.416 17.931 1 19 1s2.073.416 2.828 1.171C22.584 2.926 23 3.931 23 5s-.416 2.073-1.168 2.825L19 10.595l-2.829-2.766a4.004 4.004 0 0 1 0-5.657ZM10 17c0-1.335-.52-2.591-1.465-3.536C7.591 12.52 6.335 12 5 12s-2.591.52-3.536 1.464a5.006 5.006 0 0 0 .004 7.075L5 23.993l3.535-3.458A4.965 4.965 0 0 0 10 16.999Zm-5 5.595-2.829-2.766a4.004 4.004 0 0 1 0-5.657c.756-.755 1.76-1.171 2.829-1.171s2.073.416 2.828 1.171C8.584 14.927 9 15.932 9 17.001s-.416 2.073-1.168 2.825L5 22.596ZM24 20.5c0 1.93-1.57 3.5-3.5 3.5H7.853l1.022-1h11.624c1.378 0 2.5-1.122 2.5-2.5s-1.122-2.5-2.5-2.5h-5c-1.93 0-3.5-1.57-3.5-3.5 0-1.813 1.391-3.291 3.159-3.466l.987.966h-.646c-1.378 0-2.5 1.122-2.5 2.5s1.122 2.5 2.5 2.5h5c1.93 0 3.5 1.57 3.5 3.5Z"/></svg>