<svg xmlns="http://www.w3.org/2000/svg" width="512" height="512" data-name="Layer 1" viewBox="0 0 24 24"><path d="M21.119 8.595a2.52 2.52 0 0 0-2.035-.562 2.436 2.436 0 0 0-1.569.988 2.5 2.5 0 0 0-4.015-.02A2.497 2.497 0 0 0 10 8.5V2.607C10 1.333 9.104.228 7.916.034a2.519 2.519 0 0 0-2.035.562A2.496 2.496 0 0 0 5 2.501v1.5H.293l2 2L.293 8H5v4.586L2.674 15.31a2.822 2.822 0 0 0 .149 3.807l4.884 4.884H22V10.5c0-.734-.321-1.429-.881-1.905ZM15.5 9c.827 0 1.5.673 1.5 1.5v2c0 .827-.673 1.5-1.5 1.5s-1.5-.673-1.5-1.5v-2c0-.827.673-1.5 1.5-1.5Zm-4 0c.827 0 1.5.673 1.5 1.5v2c0 .827-.673 1.5-1.5 1.5s-1.5-.673-1.5-1.5v-2c0-.827.673-1.5 1.5-1.5ZM6 2.5a1.5 1.5 0 0 1 1.756-1.479c.709.115 1.245.797 1.245 1.586V4h-3V2.5ZM2.707 5H9v2H2.707l1-1-1-1ZM9 8v3.501a2.505 2.505 0 0 0-3 .004V7.999h3Zm-.879 15L3.53 18.409a1.815 1.815 0 0 1-.096-2.45l3.005-3.521a1.504 1.504 0 0 1 2.122.003c.283.283.439.659.438 1.06s-.157.777-.47 1.092l-2.278 2.709.766.644 2.249-2.677a2.5 2.5 0 0 0 .578-.897 2.497 2.497 0 0 0 3.656-.373 2.497 2.497 0 0 0 4 0 2.497 2.497 0 0 0 3.5.501v8.501H8.121ZM19.5 14c-.827 0-1.5-.673-1.5-1.5v-1.893c0-.789.535-1.471 1.244-1.586A1.5 1.5 0 0 1 21 10.5v2c0 .827-.673 1.5-1.5 1.5Z"/></svg>