<svg xmlns="http://www.w3.org/2000/svg" width="512" height="512" data-name="Layer 1" viewBox="0 0 24 24"><path d="M22 4h-5V2.5C17 1.122 15.879 0 14.5 0h-5A2.503 2.503 0 0 0 7 2.5V4H2v1h2v16.5C4 22.878 5.121 24 6.5 24h11c1.379 0 2.5-1.122 2.5-2.5V5h2V4ZM8 2.5C8 1.673 8.673 1 9.5 1h5c.827 0 1.5.673 1.5 1.5V4H8V2.5Zm11 19c0 .827-.673 1.5-1.5 1.5h-11c-.827 0-1.5-.673-1.5-1.5V5h14v16.5ZM7.571 13.894a1.972 1.972 0 0 1 0-2.787l3.202-3.203.707.707-3.202 3.203a.963.963 0 0 0-.146.187h5.367c1.379 0 2.5 1.122 2.5 2.5v4.5h-1v-4.5c0-.827-.673-1.5-1.5-1.5H8.132c.04.067.089.129.146.187l3.202 3.203-.707.707-3.202-3.203Z"/></svg>