<svg xmlns="http://www.w3.org/2000/svg" width="512" height="512" data-name="Layer 1" viewBox="0 0 24 24"><path d="M7.5 24a4.48 4.48 0 0 1-4.31-3.19A4.48 4.48 0 0 1 0 16.5C0 14.02 2.02 12 4.5 12c1.04 0 2.03.35 2.83 1L13 7.33c-.65-.8-1-1.79-1-2.83C12 2.02 14.02 0 16.5 0c2.01 0 3.74 1.3 4.31 3.19A4.48 4.48 0 0 1 24 7.5c0 2.48-2.02 4.5-4.5 4.5-1.04 0-2.03-.35-2.83-1L11 16.67c.65.8 1 1.79 1 2.83 0 2.48-2.02 4.5-4.5 4.5Zm-3-11C2.57 13 1 14.57 1 16.5a3.49 3.49 0 0 0 2.71 3.41l.3.07.07.31C4.45 21.89 5.85 23 7.49 23c1.93 0 3.5-1.57 3.5-3.5 0-.94-.37-1.83-1.04-2.49l-.36-.35 7.06-7.06.35.36c.66.67 1.55 1.04 2.49 1.04 1.93 0 3.5-1.57 3.5-3.5a3.49 3.49 0 0 0-2.71-3.41l-.3-.07-.07-.31A3.479 3.479 0 0 0 16.5 1C14.57 1 13 2.57 13 4.5c0 .94.37 1.83 1.04 2.49l.36.35-7.06 7.06-.35-.36A3.479 3.479 0 0 0 4.5 13Z"/></svg>