<svg xmlns="http://www.w3.org/2000/svg" width="512" height="512" data-name="Layer 1" viewBox="0 0 24 24"><path d="M21.5 2h-19A2.503 2.503 0 0 0 0 4.5V22h10.5l-1-1H6V8h17v13h-8v1h9V4.5C24 3.121 22.879 2 21.5 2Zm-19 1H5v4H1V4.5C1 3.673 1.673 3 2.5 3ZM5 21H1V8h4v13ZM6 7V3h15.5c.827 0 1.5.673 1.5 1.5V7H6Zm10.5 12c1.379 0 2.5-1.121 2.5-2.5v-5.07l2.05 2.024.703-.711-2.433-2.402c-.438-.439-1.206-.437-1.638-.003l-2.436 2.405.703.711 2.05-2.024v5.07c0 .827-.673 1.5-1.5 1.5h-5.083l2.023-2.067-.715-.699-2.394 2.446a1.188 1.188 0 0 0 0 1.642l2.393 2.445.715-.699-2.023-2.067h5.083Z"/></svg>