<svg xmlns="http://www.w3.org/2000/svg" width="512" height="512" data-name="Layer 1" viewBox="0 0 24 24"><path d="M23.406 10.891a2.507 2.507 0 0 0-1.911-.883h-11.49V6.007H24v-1H10.005V2.673l13.958-.667-.048-.998-20.936 1 .048.998 1.979-.095v2.096H2.999v1h2.007v4.001H2.512a2.508 2.508 0 0 0-2.476 2.9c.76 4.71 3.949 9.256 7.754 11.053l8.326.048.101-.048c3.806-1.797 6.995-6.343 7.754-11.053a2.492 2.492 0 0 0-.565-2.017ZM6.005 2.864l3-.143v2.287h-3V2.865Zm0 3.143h3v4.001h-3V6.007Zm16.979 6.74c-.704 4.363-3.613 8.563-7.094 10.261H8.118c-3.481-1.697-6.391-5.897-7.094-10.261a1.507 1.507 0 0 1 1.488-1.739h18.983a1.504 1.504 0 0 1 1.488 1.739Z"/></svg>