<svg xmlns="http://www.w3.org/2000/svg" width="512" height="512" data-name="Layer 1" viewBox="0 0 24 24"><path d="M23 5.5v2.698l-8 8.5v7.281L9 20.61v-3.912l-8-8.5V5.5C1 4.121 2.121 3 3.5 3H6v1H3.5C2.673 4 2 4.673 2 5.5v2.302l8 8.5v3.723l4 2.246v-5.969l8-8.5V5.5c0-.827-.673-1.5-1.5-1.5H18V3h2.5C21.879 3 23 4.121 23 5.5ZM10.5 12h1v2h1v-2h1c1.379 0 2.5-1.121 2.5-2.5a2.763 2.763 0 0 0-2.334-2.739l-3.174-.509A1.769 1.769 0 0 1 9 4.5c0-.827.673-1.5 1.5-1.5h3c.827 0 1.5.673 1.5 1.5V5h1v-.5C16 3.121 14.879 2 13.5 2h-1V0h-1v2h-1A2.502 2.502 0 0 0 8 4.5c0 1.369.981 2.521 2.334 2.739l3.174.509C14.372 7.888 15 8.625 15 9.5c0 .827-.673 1.5-1.5 1.5h-3C9.673 11 9 10.327 9 9.5V9H8v.5c0 1.379 1.121 2.5 2.5 2.5Z"/></svg>