<svg xmlns="http://www.w3.org/2000/svg" width="512" height="512" data-name="Layer 1" viewBox="0 0 24 24"><path d="M2.5 21H6v1H2.5A2.503 2.503 0 0 1 0 19.5V16h1v3.5c0 .827.673 1.5 1.5 1.5ZM23 19.5c0 .827-.673 1.5-1.5 1.5H18v1h3.5c1.378 0 2.5-1.122 2.5-2.5V16h-1v3.5ZM21.5 2H18v1h3.5c.827 0 1.5.673 1.5 1.5V8h1V4.5C24 3.122 22.878 2 21.5 2ZM0 4.5V8h1V4.5C1 3.673 1.673 3 2.5 3H6V2H2.5A2.503 2.503 0 0 0 0 4.5ZM4 6v12h1V6H4Zm10 12h1V6h-1v12Zm-7 0h2V6H7v12Zm3 0h2V6h-2v12ZM20 6h-2v12h2V6Zm-4 12h1V6h-1v12Z"/></svg>