<svg xmlns="http://www.w3.org/2000/svg" width="512" height="512" data-name="Layer 1" viewBox="0 0 24 24"><path d="M20.206 3.09C20.853 2.553 22 1.402 22 0h-1c0 1.038-1.003 1.975-1.503 2.377C18.915 1.91 18 .969 18 0h-1c0 1.355 1.071 2.475 1.727 3.034-2.332.276-4.147 2.246-4.147 4.609 0 .021-.129 2.14-2.477 4.482-2.231 2.226-4.229 2.454-4.415 2.471a4.685 4.685 0 0 0-3.324 1.392 4.662 4.662 0 0 0-1.331 2.74c-.559-.656-1.679-1.727-3.034-1.727v1c1.036 0 1.972 1 2.375 1.5-.403.5-1.339 1.5-2.375 1.5v1c1.401 0 2.551-1.146 3.089-1.793a4.722 4.722 0 0 0 4.623 3.793c.975-.004 6.091-.275 11.05-5.223 4.985-4.974 5.238-10.066 5.238-11.037a4.74 4.74 0 0 0-3.794-4.65Zm-2.151 14.979C13.374 22.74 8.615 22.996 7.71 23A3.714 3.714 0 0 1 4 19.314a3.679 3.679 0 0 1 1.074-2.623c.698-.703 1.628-1.092 2.664-1.099.42-.035 2.64-.335 5.071-2.76 2.637-2.63 2.766-5.046 2.771-5.168C15.58 5.643 17.244 4 19.29 4S23 5.678 23 7.741c0 .901-.238 5.634-4.945 10.329Z"/></svg>