<svg xmlns="http://www.w3.org/2000/svg" width="512" height="512" data-name="Layer 1" viewBox="0 0 24 24"><path d="M17 12h-4v-1h4v1Zm0 4h-6v1h6v-1Zm4 5.5V2h-5.05a2.504 2.504 0 0 0-2.45-2h-3C9.292 0 8.283.86 8.05 2H3v19.5C3 22.878 4.122 24 5.5 24h13c1.378 0 2.5-1.122 2.5-2.5ZM9 3v-.5c0-.827.673-1.5 1.5-1.5h3c.827 0 1.5.673 1.5 1.5V3h5v18.5c0 .827-.673 1.5-1.5 1.5h-13c-.827 0-1.5-.673-1.5-1.5V3h5Zm.489 8.661 3.362-3.305-.701-.713-3.365 3.308c-.056.056-.18.055-.242-.006L6.764 9.224l-.695.719 1.773 1.715c.22.22.513.342.825.342s.605-.122.822-.339ZM9 16H7v1h2v-1Z"/></svg>