<svg xmlns="http://www.w3.org/2000/svg" width="512" height="512" data-name="Layer 1" viewBox="0 0 24 24"><path d="M11.014 4.217c-.004.095-.014.188-.014.283v.776A4.445 4.445 0 0 0 9.5 5 4.505 4.505 0 0 0 5 9.5c0 1.599.86 3.092 2.244 3.895l.007.003c.68.394 1.457.602 2.249.602.097 0 .188-.023.283-.029a8.295 8.295 0 0 0-.389 1.022 5.52 5.52 0 0 1-2.22-.509l-2.021 3.475-.865-.502 2.023-3.477a5.513 5.513 0 0 1-1.289-1.293l-3.467 2.018-.504-.865 3.468-2.018A5.5 5.5 0 0 1 4.025 10H0V9h4.023c.059-.648.23-1.265.495-1.829L1.044 5.148l.504-.863 3.476 2.023a5.554 5.554 0 0 1 1.305-1.3L4.31 1.537l.865-.502 2.02 3.472a5.426 5.426 0 0 1 1.806-.484V0h1v4.025c.348.033.687.098 1.014.192ZM20 17.5c0 1.379-1.121 2.5-2.5 2.5S15 18.879 15 17.5c0-1.208.86-2.218 2-2.45V9h1v6.05c1.14.232 2 1.242 2 2.45Zm-1 0c0-.827-.673-1.5-1.5-1.5s-1.5.673-1.5 1.5.673 1.5 1.5 1.5 1.5-.673 1.5-1.5Zm5 0a6.493 6.493 0 0 1-6.511 6.498 6.72 6.72 0 0 1-1.376-.143c-2.466-.512-4.464-2.516-4.972-4.987-.461-2.244.232-4.488 1.859-6.049V4.5C13 2.019 15.019 0 17.5 0S22 2.019 22 4.5v8.319a6.509 6.509 0 0 1 2 4.681Zm-1 0a5.507 5.507 0 0 0-1.834-4.091L21 13.261V4.5C21 2.57 19.43 1 17.5 1S14 2.57 14 4.5v8.761l-.166.148c-1.478 1.325-2.118 3.29-1.713 5.258.428 2.086 2.113 3.778 4.194 4.21 1.665.346 3.362-.058 4.653-1.108s2.031-2.606 2.031-4.269Z"/></svg>