<svg xmlns="http://www.w3.org/2000/svg" width="512" height="512" data-name="Layer 1" viewBox="0 0 24 24"><path d="M11 1H0V0h11v1ZM5 11h1V4h5V3H0v1h5v7Zm19-9.5V8c0 1.103-.897 2-2 2s-2-.897-2-2 .897-2 2-2c.366 0 .705.106 1 .278V1.5a.496.496 0 0 0-.173-.378.486.486 0 0 0-.398-.117l-5 .715a.502.502 0 0 0-.429.494V9c0 1.103-.897 2-2 2s-2-.897-2-2 .897-2 2-2c.366 0 .705.106 1 .278V2.214c0-.741.554-1.379 1.288-1.484l5-.715A1.501 1.501 0 0 1 24 1.501ZM16 9a1 1 0 1 0-2 0 1 1 0 0 0 2 0Zm7-1a1 1 0 1 0-2 0 1 1 0 0 0 2 0Zm1 14c0 1.103-.897 2-2 2s-2-.897-2-2 .897-2 2-2 2 .897 2 2Zm-1 0a1 1 0 1 0-2 0 1 1 0 0 0 2 0Zm-7-5c-1.103 0-2-.897-2-2s.897-2 2-2 2 .897 2 2-.897 2-2 2Zm0-1a1 1 0 1 0 0-2 1 1 0 0 0 0 2Zm6.872-2.627-8.015 9.616.768.641 8.015-9.616-.768-.641Zm-10.416 4.814a23.48 23.48 0 0 1-2.518 2.973l2.172 2.139-.701.713-2.2-2.166C7.893 23.01 6.334 24 4.839 24 2.436 24 1 22.859 1 20.948c0-1.337 2.127-3.147 3.204-3.978C3.692 16.492 3 15.716 3 14.999c0-1.103.897-2 2-2s2 .897 2 2c0 .744-.746 1.553-1.262 2.026l3.488 3.434a23.355 23.355 0 0 0 2.407-2.843l.822.57ZM5 16.346c.525-.473 1-1.056 1-1.347a1 1 0 0 0-2 0c0 .291.475.874 1 1.347Zm3.498 4.8-3.544-3.49C3.629 18.662 2 20.201 2 20.948 2 22.643 3.544 23 4.839 23c1.2 0 2.512-.839 3.659-1.854Z"/></svg>