<svg xmlns="http://www.w3.org/2000/svg" width="512" height="512" data-name="Layer 1" viewBox="0 0 24 24"><path d="M12 0C5.383 0 0 5.383 0 12s5.383 12 12 12 12-5.383 12-12S18.617 0 12 0ZM1 12c0-2.853 1.092-5.456 2.88-7.413L19.413 20.12A10.958 10.958 0 0 1 12 23C5.935 23 1 18.065 1 12Zm7.013-4.694A1.502 1.502 0 0 1 9.5 6h4C15.43 6 17 7.57 17 9.5a3.505 3.505 0 0 1-3.299 3.494L8.013 7.306ZM20.12 19.413l-5.543-5.543A4.508 4.508 0 0 0 18 9.5C18 7.019 15.981 5 13.5 5h-4a2.502 2.502 0 0 0-2.291 1.502L4.588 3.881a10.958 10.958 0 0 1 7.413-2.88c6.065 0 11 4.935 11 11 0 2.853-1.092 5.456-2.88 7.413ZM9.465 13l1 1H8v5H7v-8.465l1 1V13h1.465Z"/></svg>