<svg xmlns="http://www.w3.org/2000/svg" width="512" height="512" data-name="Layer 1" viewBox="0 0 24 24"><path d="M8 12c0-5.152 4.16-8.968 8.024-10.332l1.183-.417L16.062.74C14.946.242 13.617 0 12 0 5.383 0 0 5.383 0 12s5.383 12 12 12c1.613 0 2.823-.221 4.046-.738l1.188-.502-1.215-.43C12.157 20.964 8 17.148 8 11.999Zm4 11C5.935 23 1 18.065 1 12S5.935 1 12 1c.926 0 1.724.08 2.435.246C10.652 3.047 7 6.924 7 12s3.647 8.948 7.426 10.75c-.717.173-1.485.25-2.426.25Zm12-13h-3.478l-1.069-3.636h-.882L17.501 10h-3.5v.839l2.566 1.68-.984 3.351.656.494 2.776-1.948 2.818 1.948.682-.476-1.059-3.319 2.545-1.736V10Zm-3.725 2.163.782 2.449-2.048-1.416-2.016 1.415.532-1.811.209-.712L16.072 11h2.176l.763-2.593.762 2.593h2.207l-1.705 1.163Z"/></svg>