<svg xmlns="http://www.w3.org/2000/svg" width="512" height="512" data-name="Layer 1" viewBox="0 0 24 24"><path d="M12 4c-4.411 0-8 3.589-8 8s3.589 8 8 8 8-3.589 8-8-3.589-8-8-8Zm0 15c-3.86 0-7-3.141-7-7s3.14-7 7-7 7 3.141 7 7-3.141 7-7 7Zm-7.778.778-.707.707c-4.679-4.678-4.679-12.292 0-16.97l.707.707c-4.289 4.289-4.289 11.267 0 15.556Zm16.264.707-.707-.707c4.289-4.289 4.289-11.268 0-15.557l.707-.707c4.679 4.679 4.679 12.292 0 16.971ZM12.501 13h-1V8h1v5Zm.5 2a1 1 0 1 1-2 0 1 1 0 0 1 2 0Z"/></svg>