<svg xmlns="http://www.w3.org/2000/svg" width="512" height="512" data-name="Layer 1" viewBox="0 0 24 24"><path d="M21.5 0h-19A2.5 2.5 0 0 0 0 2.5V20h7.11l3.9 3.28c.29.25.64.38 1 .38s.7-.12.98-.37l3.99-3.3h7.03V2.5a2.5 2.5 0 0 0-2.5-2.5ZM23 19h-6.39l-4.28 3.54c-.19.17-.48.17-.67 0l-4.19-3.53H1V2.5C1 1.67 1.67 1 2.5 1h19c.83 0 1.5.67 1.5 1.5V19ZM12.42 3.66h-.85L10.05 8H5.71v.83l3.13 2.52-1.17 3.9.67.51L12 13.39l3.65 2.37.67-.51-1.17-3.91 3.13-2.52v-.83h-4.34l-1.52-4.34Zm1.59 7.33.93 3.12L12 12.2l-2.94 1.91.93-3.12L7.52 9h3.25l1.24-3.53L13.25 9h3.25l-2.47 1.99Z"/></svg>