<svg xmlns="http://www.w3.org/2000/svg" data-name="Layer 1" viewBox="0 0 24 24"><path d="M22 23v-1.5a2.502 2.502 0 0 0-2.453-2.499A10.896 10.896 0 0 0 23 11c0-6.065-4.935-11-11-11S1 4.935 1 11c0 3.074 1.245 5.929 3.453 8.001A2.502 2.502 0 0 0 2 21.5V23H0v1h24v-1h-2ZM2 11C2 5.486 6.486 1 12 1s10 4.486 10 10a9.92 9.92 0 0 1-4.001 7.997l.002.003H12.5v-2h4.875l-2.25-3h1.625l-2.25-3h1.875L12 5.167 7.625 11H9.5l-2.25 3h1.625l-2.25 3H11.5v2H5.999l.002-.003A9.92 9.92 0 0 1 2 11Zm7.25 2 2.25-3H9.625L12 6.833 14.375 10H12.5l2.25 3h-1.625l2.25 3h-6.75l2.25-3H9.25ZM3 21.5c0-.827.673-1.5 1.5-1.5h15c.827 0 1.5.673 1.5 1.5V23H3v-1.5ZM14 4a1 1 0 1 1 2 0 1 1 0 0 1-2 0Zm4 8a1 1 0 1 1 2 0 1 1 0 0 1-2 0ZM5 12a1 1 0 1 1 0-2 1 1 0 0 1 0 2Zm1-6a1 1 0 1 1 2 0 1 1 0 0 1-2 0Z"/></svg>