<svg xmlns="http://www.w3.org/2000/svg" width="512" height="512" data-name="Layer 1" viewBox="0 0 24 24"><path d="M24 10.5C24 7.467 21.533 5 18.5 5H16v7h-1.273L4.227 0H3v5.5C3 6.327 2.327 7 1.5 7H0v1h1.5C2.878 8 4 6.878 4 5.5V1.259L13.398 12H2.5A2.503 2.503 0 0 0 0 14.5V20h2.176c-.116.32-.176.656-.176 1 0 1.654 1.346 3 3 3s3-1.346 3-3c0-.344-.06-.68-.176-1h8.352c-.116.32-.176.656-.176 1 0 1.654 1.346 3 3 3s3-1.346 3-3c0-.344-.06-.68-.176-1H24v-9.5ZM7 21c0 1.103-.897 2-2 2s-2-.897-2-2c0-.351.095-.693.277-1h3.446c.182.307.277.649.277 1Zm9-2H1v-4.5c0-.827.673-1.5 1.5-1.5H16v6Zm5 2c0 1.103-.897 2-2 2s-2-.897-2-2c0-.351.095-.693.277-1h3.446c.182.307.277.649.277 1Zm2-2h-6v-6h6v6Zm0-7h-6V6h1.5c2.481 0 4.5 2.019 4.5 4.5V12Z"/></svg>