<svg xmlns="http://www.w3.org/2000/svg" width="512" height="512" data-name="Layer 1" viewBox="0 0 24 24"><path d="M12 0C5.383 0 0 5.383 0 12s5.383 12 12 12 12-5.383 12-12S18.617 0 12 0Zm0 23C5.935 23 1 18.065 1 12S5.935 1 12 1s11 4.935 11 11-4.935 11-11 11ZM8.942 5.96c-1.566.668-2.838 1.723-3.68 3.05l-.845-.535c.95-1.5 2.379-2.688 4.132-3.435l.393.92Zm10.702 2.507-.834.551c-.878-1.327-2.177-2.385-3.755-3.058l.392-.92c1.76.75 3.211 1.935 4.198 3.427ZM9 11a1 1 0 1 1-2 0 1 1 0 0 1 2 0Zm7 1a1 1 0 1 1 0-2 1 1 0 0 1 0 2Zm-4 2a4.984 4.984 0 0 0-4.947 4.444L6.991 19h10.018l-.062-.556A4.984 4.984 0 0 0 12 14Zm-3.851 4c.447-1.744 2.015-3 3.851-3s3.404 1.256 3.851 3H8.149Z"/></svg>