<svg xmlns="http://www.w3.org/2000/svg" width="512" height="512" data-name="Layer 1" viewBox="0 0 24 24"><path d="M12 9.09V2.607C12 1.333 11.104.228 9.916.034a2.522 2.522 0 0 0-2.035.562A2.496 2.496 0 0 0 7 2.501v1.5H2.293l2 2-2 2H7v3.291L2.732 15.49C2.26 15.962 2 16.59 2 17.258s.26 1.296.732 1.768l4.975 4.975H22V11.09l-10-2ZM8 2.5a1.5 1.5 0 0 1 1.756-1.479c.709.115 1.245.797 1.245 1.586V4h-3V2.5ZM4.707 5H11v2H4.707l1-1-1-1ZM21 23H8.121l-4.682-4.682c-.283-.283-.439-.66-.439-1.061s.156-.777.437-1.058L7 12.693V17h1V8h3v1.91l10 2V23Z"/></svg>