<svg xmlns="http://www.w3.org/2000/svg" width="512" height="512" data-name="Layer 1" viewBox="0 0 24 24"><path d="M21.5 0h-19A2.503 2.503 0 0 0 0 2.5V24h24V2.5C24 1.122 22.879 0 21.5 0ZM23 23H1V2.5C1 1.673 1.673 1 2.5 1h19c.827 0 1.5.673 1.5 1.5V23Zm-7-13c1.654 0 3-1.346 3-3s-1.346-3-3-3a3.004 3.004 0 0 0-2.828 3.999l-3.831 2.128A2.996 2.996 0 0 0 7 9c-1.654 0-3 1.346-3 3s1.346 3 3 3c.946 0 1.791-.441 2.341-1.127l3.831 2.128A3.004 3.004 0 0 0 16 20c1.654 0 3-1.346 3-3s-1.346-3-3-3c-.946 0-1.791.441-2.341 1.127l-3.831-2.128a2.982 2.982 0 0 0 0-1.998l3.831-2.128A2.996 2.996 0 0 0 16 10Zm0 5c1.103 0 2 .897 2 2s-.897 2-2 2-2-.897-2-2 .897-2 2-2Zm-9-1c-1.103 0-2-.897-2-2s.897-2 2-2 2 .897 2 2-.897 2-2 2Zm9-9c1.103 0 2 .897 2 2s-.897 2-2 2-2-.897-2-2 .897-2 2-2Z"/></svg>