<svg xmlns="http://www.w3.org/2000/svg" width="512" height="512" data-name="Layer 1" viewBox="0 0 24 24"><path d="M20.019 4.976c1.81-1.711 1.974-3.867 1.98-3.962l.021-.331-.296-.148c-.043-.022-1.079-.534-2.768-.534-3.722 0-5.69 2.408-6.648 4.242C11.887 2.25 10.693.001 7.999.001V1c2.627 0 3.283 2.781 3.446 4.198C10.283 4.445 8.922 4 7.499 4 3.364 4 0 7.354 0 11.478 0 18.586 7.998 24 12 24s12-5.414 12-12.522a7.256 7.256 0 0 0-3.981-6.502ZM18.957 1c.92 0 1.61.175 1.989.3-.131.656-.558 2.092-1.888 3.19-1.479 1.221-3.642 1.705-6.407 1.443.472-1.406 2.076-4.934 6.306-4.934ZM12 23C8.719 23 1 18.135 1 11.478 1 7.907 3.916 5 7.5 5c3.463 0 6.5 3.037 6.5 6.5 0 3.433-2.366 6.43-2.39 6.46l.779.626c.106-.133 2.61-3.295 2.61-7.086 0-1.661-.606-3.237-1.602-4.512.223.01.442.015.657.015 2.051 0 3.754-.446 5.087-1.332a6.265 6.265 0 0 1 3.857 5.806c0 6.657-7.719 11.522-11 11.522Z"/></svg>