<svg xmlns="http://www.w3.org/2000/svg" width="512" height="512" data-name="Layer 1" viewBox="0 0 24 24"><path d="M21.311 1.347c-1.089.445-2.446.675-3.802.653-2.084-.037-3.927-.64-5.188-1.697L12 .034l-.321.269C10.418 1.36 8.575 1.963 6.491 2c-1.354.029-2.713-.207-3.802-.653L2 1.065v10.831c0 6.61 7.159 10.703 9.354 11.8l.628.313.648-.261c2.198-.884 9.37-4.353 9.37-11.852V1.065l-.689.282ZM6.509 3c2.146-.039 4.077-.631 5.491-1.677C13.414 2.369 15.346 2.962 17.491 3c1.222.011 2.442-.147 3.509-.48V8H3V2.52c1.066.333 2.285.493 3.509.48Zm5.748 19.82-.232.093-.224-.112C9.737 21.769 3 17.931 3 11.895V8.999h18v2.896c0 6.873-6.692 10.099-8.743 10.924Z"/></svg>