<svg xmlns="http://www.w3.org/2000/svg" width="512" height="512" data-name="Layer 1" viewBox="0 0 24 24"><path d="M8.962 4h-1V0h1v4Zm4-4h-1v4h1V0Zm11 18.167C23.962 23.432 13.376 24 8.825 24 6.686 24 .634 22.97.378 22.926l-.416-.071v-6.822C-.038 11.052 3.937 7 8.825 7c.85 0 1.702.061 2.536.18 2.471-1.088 6.055-1.18 6.235-1.187l.84.825 1.995-1.995A1 1 0 1 1 21.999 4a1 1 0 1 1-.853 1.522l-1.997 1.997.859.843s-.055 1.241-.242 2.455c2.631 2.154 4.195 4.889 4.195 7.35ZM10.325 9.051a4.662 4.662 0 0 0 0 6.585 4.662 4.662 0 0 0 6.585 0c1.634-1.634 2.01-5.866 2.077-6.876l-1.781-1.75c-.997.059-5.244.404-6.881 2.041Zm12.637 9.115c0-2.033-1.259-4.314-3.401-6.212-.336 1.595-.924 3.369-1.943 4.389-1.103 1.103-2.551 1.654-4 1.654s-2.896-.552-3.999-1.654a5.663 5.663 0 0 1 0-7.999c.107-.107.222-.208.344-.306a17.248 17.248 0 0 0-1.137-.039c-4.336 0-7.863 3.604-7.863 8.033v5.977c1.426.236 6.121.99 7.863.99 6.834 0 14.137-1.27 14.137-4.833ZM4.962 0h-1v4h1V0Z"/></svg>