<svg xmlns="http://www.w3.org/2000/svg" width="512" height="512" data-name="Layer 1" viewBox="0 0 24 24"><path d="M16.148 23.772 12 20.461l-4.148 3.311-1.049-5.202-5.307-.131 2.541-4.659-3.982-3.511 4.942-1.937-.793-5.248 5.031 1.692L12 .246l2.766 4.53 5.031-1.692-.793 5.248 4.942 1.937-3.981 3.512 2.541 4.659-5.307.131-1.049 5.202ZM12 19.182l3.492 2.787.883-4.38 4.467-.109-2.139-3.923 3.352-2.955-4.161-1.63.668-4.418-4.235 1.425-2.328-3.813-2.328 3.813-4.235-1.425.668 4.418-4.161 1.63 3.352 2.955-2.139 3.923 4.467.109.883 4.38 3.492-2.787Z"/></svg>