<svg xmlns="http://www.w3.org/2000/svg" width="512" height="512" data-name="Layer 1" viewBox="0 0 24 24"><path d="M7.029 13.254a5.56 5.56 0 0 0-.728.711 5.574 5.574 0 0 1-1.275-1.276l-3.48 2.025-.503-.863 3.476-2.023A5.436 5.436 0 0 1 4.021 10H0V9h4.023a5.456 5.456 0 0 1 .496-1.829L1.044 5.148l.503-.863 3.476 2.023a5.52 5.52 0 0 1 1.306-1.3L4.31 1.537l.864-.502 2.02 3.472A5.451 5.451 0 0 1 9 4.022V0h1v4.023c.64.058 1.247.226 1.805.486l2.02-3.474.865.502-2.022 3.475c.503.357.944.797 1.302 1.3l3.481-2.026.504.863-3.479 2.025.002.004-.898.521s-.083-.257-.224-.479c-.785-1.322-2.212-2.219-3.857-2.219a4.505 4.505 0 0 0-4.5 4.5c0 1.569.809 2.949 2.029 3.754ZM16.895 19h-2.78a.109.109 0 0 1-.092-.047.106.106 0 0 1-.023-.063l2.007-3.371-.859-.512-2.1 3.556c-.103.341-.04.701.172.987.213.286.539.45.896.45h2.78c.041 0 .071.019.091.055s.018.072-.021.134l-1.898 3.31.867.498 1.882-3.282a1.103 1.103 0 0 0-.92-1.714Zm2.688-6.999A5.01 5.01 0 0 0 14.999 9c-2.757 0-5 2.243-5 5v.035a3.505 3.505 0 0 0-3 3.465c0 1.93 1.57 3.5 3.5 3.5h1.351c-.079-.085-.165-.161-.235-.256a3.148 3.148 0 0 1-.399-.744H10.5C9.122 20 8 18.879 8 17.5S9.122 15 10.528 15h.558l-.061-.555A4.004 4.004 0 0 1 15 10a4.005 4.005 0 0 1 3.772 2.667l.118.333h.609c1.93 0 3.5 1.57 3.5 3.5 0 1.767-1.321 3.217-3.024 3.452.017.34-.004.68-.099 1.01 2.303-.195 4.123-2.11 4.123-4.462a4.505 4.505 0 0 0-4.416-4.499Z"/></svg>