<svg xmlns="http://www.w3.org/2000/svg" width="512" height="512" data-name="Layer 1" viewBox="0 0 24 24"><path d="m23.045 8.034-9.5-7.468a2.494 2.494 0 0 0-3.09 0l-9.5 7.468A2.485 2.485 0 0 0 0 10v14h5V12.5c0-.827.673-1.5 1.5-1.5h11c.827 0 1.5.673 1.5 1.5V24h5V10c0-.772-.348-1.489-.955-1.966ZM23 23h-3V12.5c0-1.379-1.121-2.5-2.5-2.5h-11A2.502 2.502 0 0 0 4 12.5V23H1V10c0-.464.209-.894.572-1.179l9.5-7.467a1.495 1.495 0 0 1 1.855 0l9.5 7.468c.363.285.572.715.572 1.179v13Zm-7.486-7.97A1.499 1.499 0 0 0 14.089 14H9.911a1.5 1.5 0 0 0-1.425 1.031l-1.26 3.823a4.48 4.48 0 0 0-.227 1.409v1.736h1v2h1v-2h6v2h1v-2h1v-1.736a4.44 4.44 0 0 0-.227-1.408l-1.26-3.825Zm-6.078.314a.502.502 0 0 1 .476-.345h4.178c.216 0 .407.139.476.344l.875 2.656H8.562l.875-2.655ZM16 20.999H8v-.736c0-.375.06-.743.176-1.096l.055-.168h7.537l.056.169c.116.352.176.72.176 1.095v.736Z"/></svg>