<svg xmlns="http://www.w3.org/2000/svg" width="512" height="512" data-name="Layer 1" viewBox="0 0 24 24"><path d="M14.041 13.641 8.593 9.377a1.768 1.768 0 0 0-2.185 0L.959 13.641A2.482 2.482 0 0 0 0 15.61v8.391h15v-8.392c0-.774-.35-1.492-.959-1.969ZM14 23H1v-7.391c0-.465.21-.896.576-1.182l5.448-4.264a.772.772 0 0 1 .952 0l5.448 4.264c.366.286.576.717.576 1.182V23Zm9-23v2h-3V0h-1v2h-3V0h-1v2h-3V0h-1v5c0 1.103.897 2 2 2v3.217L14 11V7h7v16h-4v1h5V7c1.103 0 2-.897 2-2V0h-1Zm-1 6h-9c-.551 0-1-.448-1-1V3h11v2c0 .552-.449 1-1 1ZM5 20h5v-5H5v5Zm1-4h3v3H6v-3Z"/></svg>