<svg xmlns="http://www.w3.org/2000/svg" width="512" height="512" data-name="Layer 1" viewBox="0 0 24 24"><path d="M23.534 5.718A1.993 1.993 0 0 0 22 5h-5.999V2H12.5V0h-1v2H8v3H2A1.999 1.999 0 0 0 .032 7.358L1.786 17h6.215v7H16v-7h6.214l1.754-9.643a2 2 0 0 0-.434-1.64ZM15 3v2H9.001V3H15Zm0 3v6H9V6h6ZM1.017 7.18a.99.99 0 0 1 .217-.82.993.993 0 0 1 .767-.359h6.001v6H1.893l-.876-4.82ZM15 23H9v-6h6.001v6Zm6.379-7H2.62l-.545-3h19.85l-.545 3Zm1.604-8.821L22.107 12h-6.106V6H22a.998.998 0 0 1 .984 1.178Z"/></svg>