<svg xmlns="http://www.w3.org/2000/svg" width="512" height="512" data-name="Layer 1" viewBox="0 0 24 24"><path d="M18.5 15h-2.636a8.049 8.049 0 0 0 3.547-4h1.59V5h-1.589c-1.19-2.928-4.061-5-7.411-5S5.78 2.072 4.59 5H3.002v6h1.589a8.044 8.044 0 0 0 3.547 4H5.502c-1.93 0-3.5 1.57-3.5 3.5V24h1v-5.5c0-1.379 1.121-2.5 2.5-2.5h13c1.379 0 2.5 1.121 2.5 2.5V24h1v-5.5c0-1.93-1.57-3.5-3.5-3.5ZM5 8.01v-.019c.005-3.855 3.143-6.99 7-6.99s7 3.141 7 7-3.141 7-7 7-6.994-3.135-7-6.99ZM18 20.5V24h-1v-3.5c0-.275-.225-.5-.5-.5h-9c-.275 0-.5.225-.5.5V24H6v-3.5c0-.827.673-1.5 1.5-1.5h9c.827 0 1.5.673 1.5 1.5ZM16 6H8.102C7.071 6 6.5 6.887 6.5 7.5c0 3.032 2.468 5.5 5.5 5.5s5.5-2.468 5.5-5.5c0-.604-.477-1.5-1.5-1.5Zm-4 6a4.505 4.505 0 0 1-4.5-4.5c0-.088.159-.5.602-.5H16c.455 0 .5.495.5.5 0 2.481-2.019 4.5-4.5 4.5Z"/></svg>