<svg xmlns="http://www.w3.org/2000/svg" width="512" height="512" data-name="Layer 1" viewBox="0 0 24 24"><path d="M21.5 0h-19A2.503 2.503 0 0 0 0 2.5V20h7.105l3.898 3.284c.285.253.645.379 1.001.379.352 0 .702-.123.978-.368L16.967 20h7.032V2.5c0-1.378-1.121-2.5-2.5-2.5ZM23 19h-6.392l-4.276 3.536a.504.504 0 0 1-.674-.008L7.47 19.001H1V2.5C1 1.673 1.673 1 2.5 1h19c.827 0 1.5.673 1.5 1.5V19ZM13.732 4.732 6 12.464V16h3.535l7.732-7.732c.473-.472.732-1.1.732-1.768s-.26-1.296-.732-1.768a2.5 2.5 0 0 0-3.535 0ZM16.56 7.56l-7.439 7.439H7v-2.122l7.439-7.439A1.501 1.501 0 0 1 16.56 7.56Z"/></svg>