<svg xmlns="http://www.w3.org/2000/svg" width="512" height="512" data-name="Layer 1" viewBox="0 0 24 24"><path d="M22 21.29v-8.35c.62-.63 1-1.49 1-2.44L20.38 1H3.65l-.51 1.43L.75.05l-.7.7 23.2 23.2.71-.71-1.95-1.95Zm-6.5-9.01a3.5 3.5 0 0 0 3 1.72h1c.54 0 1.04-.13 1.5-.35v6.64l-6.76-6.76c.53-.3.96-.74 1.27-1.25ZM4.35 2H8v3h1V2h6v3h1V2h3.62L22 10.56A2.502 2.502 0 0 1 19.5 13h-1a2.5 2.5 0 0 1-2.5-2.5V10h-1v.5c0 1-.59 1.89-1.5 2.29L3.92 3.21 4.35 2ZM4.5 22c-.83 0-1.5-.67-1.5-1.5v-6.85c.46.22.96.35 1.5.35h1c1.34 0 2.5-.77 3.08-1.88l-.75-.75A2.49 2.49 0 0 1 5.49 13h-1c-1.36 0-2.46-1.09-2.5-2.44l1.09-3.94-.81-.81-1.26 4.55-.02.13c0 .95.38 1.82 1 2.45v7.55a2.5 2.5 0 0 0 2.5 2.5h14.96l-1-1H4.5Z"/></svg>