<svg xmlns="http://www.w3.org/2000/svg" width="512" height="512" data-name="Layer 1" viewBox="0 0 24 24"><path d="M23.06 0c-.821 0-1.59.403-2.056 1.078l-7.165 10.361-.275-.182c-.71-.471-1.671-.275-2.125.414l-2.274 3.064c-.169-.931-.371-1.901-.556-2.788l-.194-.934-7.321-.015-.188.903C.459 14.036-.003 16.242 0 19.34.002 21.909 2.103 24 4.682 24h1.103a6.493 6.493 0 0 0 5.312-2.765l4.647-6.683c.47-.71.274-1.671-.436-2.142l-.635-.42 7.153-10.344c.28-.405.741-.646 1.233-.646h.94V0h-.94Zm-8.305 13.245c.251.166.32.506.161.747l-4.64 6.671A5.492 5.492 0 0 1 5.784 23H4.681c-2.028 0-3.68-1.643-3.682-3.66-.003-2.994.45-5.158.906-7.339l5.693.011c.263 1.256.589 2.819.77 4.04l.176 1.194 3.712-5.002a.547.547 0 0 1 .755-.153l1.743 1.154Z"/></svg>