<svg xmlns="http://www.w3.org/2000/svg" width="512" height="512" data-name="Layer 1" viewBox="0 0 24 24"><path d="M20 1V0H4v1h7.5v3H5v1h6.5v3H6v1h5.5v3H7v1h4.5v3H7.235c-1.321.021-2.458.818-2.968 2.078-.542 1.338-.244 2.851.758 3.853L7.094 24h9.812l2.069-2.069c1.002-1.002 1.3-2.515.758-3.853-.51-1.26-1.647-2.057-2.977-2.078h-4.257v-3h4.5v-1h-4.5V9h5.5V8h-5.5V5h6.5V4h-6.5V1h7.5Zm-5.996 16A3.406 3.406 0 0 0 13 19.417V20h1v-.583A2.42 2.42 0 0 1 16.417 17h.332c.927.016 1.696.559 2.058 1.453.391.965.18 2.053-.538 2.771L16.493 23H7.508l-1.776-1.776c-.718-.718-.929-1.806-.538-2.771.362-.895 1.131-1.438 2.049-1.453h.34A2.42 2.42 0 0 1 10 19.417V20h1v-.583c0-.943-.384-1.798-1.004-2.417h4.008Z"/></svg>