<svg xmlns="http://www.w3.org/2000/svg" width="512" height="512" data-name="Layer 1" viewBox="0 0 24 24"><path d="M7.5 8h-1V3h1v5ZM7 11a1 1 0 1 0 0-2 1 1 0 0 0 0 2Zm17-6.5C24 2.57 22.43 1 20.5 1S17 2.57 17 4.5h1C18 3.122 19.122 2 20.5 2S23 3.122 23 4.5 21.878 7 20.5 7H16c0 .338-.022.671-.059 1H20.5C22.43 8 24 6.43 24 4.5ZM20.5 11h-5.45a9.039 9.039 0 0 1-.572 1H20.5c1.378 0 2.5 1.122 2.5 2.5S21.878 17 20.5 17 18 15.878 18 14.5h-1c0 1.93 1.57 3.5 3.5 3.5s3.5-1.57 3.5-3.5-1.57-3.5-3.5-3.5ZM0 7c0-3.86 3.14-7 7-7s7 3.14 7 7-3.14 7-7 7-7-3.14-7-7Zm1 0c0 3.309 2.691 6 6 6s6-2.691 6-6-2.691-6-6-6-6 2.691-6 6Zm10.5 10H0v1h11.5c1.378 0 2.5 1.122 2.5 2.5S12.878 23 11.5 23 9 21.878 9 20.5H8c0 1.93 1.57 3.5 3.5 3.5s3.5-1.57 3.5-3.5-1.57-3.5-3.5-3.5Z"/></svg>