<svg xmlns="http://www.w3.org/2000/svg" width="512" height="512" data-name="Layer 1" viewBox="0 0 24 24"><path d="M6 17h3v1H6v-1Zm5.4-1.754.707.707 2.029-2.027-.707-.707-2.029 2.027Zm4.698-9.181-1.062 2.55.923.385 1.062-2.55-.923-.385ZM24 12c0 6.617-5.383 12-12 12S0 18.617 0 12 5.383 0 12 0s12 5.383 12 12ZM1 12c0 .337.016.671.046 1h2.621l2.509-1.882 2.1 2.626.617-.309-.573-3.436h2.681l.75-1-1.364-1.819.839-2.518 2.074-.519c.09-.212.221-.539.37-.911.253-.628.553-1.373.807-1.953a10.984 10.984 0 0 0-2.476-.281C5.935 1 1 5.935 1 12Zm18.826 7.722-2.842-.754L16 17.001l1-2 2.5-.5 1.496-1.496 1.812 1.047c.126-.665.193-1.35.193-2.051 0-4.861-3.17-8.996-7.552-10.446a66.372 66.372 0 0 0-.852 2.053c-.228.565-.416 1.03-.493 1.187l-.103.207-2 .5-.5 1.5 1.5 2-1.5 2h-2l.5 3-2 1-2-2.5-2 1.5H1.183c.943 5.114 5.435 9 10.817 9 3.059 0 5.83-1.256 7.826-3.278Zm1.333-5.467-1.167 1.167-2.317.464-.558 1.115.558 1.117 2.896.768a10.965 10.965 0 0 0 1.992-3.819l-1.405-.811Z"/></svg>