<svg xmlns="http://www.w3.org/2000/svg" data-name="Layer 1" viewBox="0 0 24 24"><path d="M16 23a1 1 0 1 1-2 0 1 1 0 0 1 2 0Zm7-15a1 1 0 1 0 0-2 1 1 0 0 0 0 2ZM7 22a1 1 0 1 0 0 2 1 1 0 0 0 0-2Zm16 0a1 1 0 1 0 0 2 1 1 0 0 0 0-2Zm.015-7.97a.985.985 0 1 0 0 1.97.985.985 0 0 0 0-1.97ZM19 18a1 1 0 1 0 0 2 1 1 0 0 0 0-2Zm-8 0a1 1 0 1 0 0 2 1 1 0 0 0 0-2Zm4-4a1 1 0 1 0 0 2 1 1 0 0 0 0-2Zm4-4a1 1 0 1 0 0 2 1 1 0 0 0 0-2Zm-1.343-3.657a8.04 8.04 0 0 0-1.217-.997l2.019-3.471-.865-.503-2.022 3.475a7.994 7.994 0 0 0-3.072-.821V0h-1v4.028a7.982 7.982 0 0 0-3.059.815L6.423 1.374l-.865.503 2.014 3.462a7.965 7.965 0 0 0-2.214 2.207L1.889 5.527l-.504.864 3.471 2.021a7.993 7.993 0 0 0-.829 3.089H0v1h4.027a7.985 7.985 0 0 0 .825 3.082l-3.461 2.014.504.864 3.457-2.012c.285.426.614.832.99 1.208l.354.354.707-.707-.354-.354c-2-2-3.25-6.65 0-9.899 2.729-2.729 7.17-2.729 9.9 0l.354.354.707-.707-.354-.354Z"/></svg>