<svg xmlns="http://www.w3.org/2000/svg" width="512" height="512" data-name="Layer 1" viewBox="0 0 24 24"><path d="m23.61 22.9-3.59-3.59c.62-.77.99-1.75.99-2.81 0-2.48-2.02-4.5-4.5-4.5s-4.5 2.02-4.5 4.5 2.02 4.5 4.5 4.5c1.06 0 2.04-.37 2.81-.99l3.59 3.59.71-.71ZM16.5 20c-1.93 0-3.5-1.57-3.5-3.5s1.57-3.5 3.5-3.5 3.5 1.57 3.5 3.5-1.57 3.5-3.5 3.5ZM12 21.19c.32.3.66.58 1.04.81H0V2.5A2.5 2.5 0 0 1 2.5 0h17A2.5 2.5 0 0 1 22 2.5v10.54c-.28-.45-.62-.86-1-1.23V2.5c0-.83-.67-1.5-1.5-1.5h-17C1.67 1 1 1.67 1 2.5V21h11v.19ZM9.21 4H4v14h6.17c-.08-.32-.13-.66-.16-1H5V8.21L9.21 4ZM5 5h1.79L5 6.79V5Zm12 0h-3.79L9 9.21V13h2.02c-.2.32-.38.65-.52 1H8V8.79L12.79 4H18v6.17c-.32-.08-.66-.13-1-.16V5Z"/></svg>