<svg xmlns="http://www.w3.org/2000/svg" width="512" height="512" data-name="Layer 1" viewBox="0 0 24 24"><path d="M12 0C5.383 0 0 5.383 0 12v12h8v-7c0-2.206 1.794-4 4-4s4 1.794 4 4v7h8V12c0-6.617-5.383-12-12-12Zm11 16h-6V8h5.247c.486 1.24.753 2.59.753 4v4Zm-1.203-9H12.5V1.012c4.054.182 7.544 2.569 9.297 5.988ZM11.5 1.012V7H2.203C3.956 3.581 7.446 1.194 11.5 1.012ZM1.753 8H7v8H1v-4c0-1.41.267-2.76.753-4ZM7 23H1v-6h6v6Zm5-11a4.997 4.997 0 0 0-4 2.003V8h8v6.003A4.994 4.994 0 0 0 12 12Zm5 11v-6h6v6h-6Z"/></svg>