<svg xmlns="http://www.w3.org/2000/svg" width="512" height="512" data-name="Layer 1" viewBox="0 0 24 24"><path d="M24 12.5c0-1.378-1.121-2.5-2.5-2.5h-.739L15.93 3.07A2.5 2.5 0 0 0 13.879 2H5.881a2.511 2.511 0 0 0-2.338 1.614l-2.639 6.96h.002A2.5 2.5 0 0 0 0 12.5V18h2v1c0 1.654 1.346 3 3 3s3-1.346 3-3v-1h8v1c0 1.654 1.346 3 3 3s3-1.346 3-3v-1h2v-5.5Zm-8.891-8.857L19.541 10H10V3h3.879c.49 0 .95.24 1.23.643Zm-10.631.325A1.506 1.506 0 0 1 5.88 3h3.119v7H2.5a2.54 2.54 0 0 0-.316.021l2.295-6.053ZM6.999 19c0 1.103-.897 2-2 2s-2-.897-2-2v-1H7v1Zm14 0c0 1.103-.897 2-2 2s-2-.897-2-2v-1h4v1Zm2-2H1v-4.5c0-.827.673-1.5 1.5-1.5h19c.827 0 1.5.673 1.5 1.5V17Z"/></svg>