<svg xmlns="http://www.w3.org/2000/svg" width="512" height="512" data-name="Layer 1" viewBox="0 0 24 24"><path d="M16.975 8c.009-.167.025-.331.025-.5s-.017-.333-.025-.5H20.5C21.878 7 23 5.879 23 4.5S21.878 2 20.5 2 18 3.121 18 4.5h-1C17 2.57 18.57 1 20.5 1S24 2.57 24 4.5 22.43 8 20.5 8h-3.525Zm-16.16.489-.26.965 2.441.656-.657 2.441.966.26.733-2.723L7 8.382V11.8l-1.994 1.994.707.707L7.5 12.714l1.787 1.787.707-.707L8 11.8V8.383l2.961 1.707.732 2.724.966-.26-.656-2.44 2.441-.657-.26-.965-2.723.732-2.96-1.706L11.482 5.8l2.689.723.26-.965-2.407-.647.647-2.407-.966-.26-.724 2.689-2.983 1.719V3.209l1.97-1.97-.707-.707-1.763 1.763L5.735.532l-.707.707 1.97 1.97v3.442L4.015 4.932l-.723-2.69-.966.26.647 2.407-2.407.647.26.965 2.69-.722 2.98 1.717-2.959 1.705-2.723-.732ZM11.5 17H0v1h11.5c1.378 0 2.5 1.121 2.5 2.5S12.878 23 11.5 23 9 21.879 9 20.5H8c0 1.93 1.57 3.5 3.5 3.5s3.5-1.57 3.5-3.5-1.57-3.5-3.5-3.5Zm9-6h-4.174a9.329 9.329 0 0 1-.459 1H20.5c1.378 0 2.5 1.121 2.5 2.5S21.878 17 20.5 17 18 15.879 18 14.5h-1c0 1.93 1.57 3.5 3.5 3.5s3.5-1.57 3.5-3.5-1.57-3.5-3.5-3.5Z"/></svg>