<svg xmlns="http://www.w3.org/2000/svg" width="512" height="512" data-name="Layer 1" viewBox="0 0 24 24"><path d="M23.696 9.683a2.56 2.56 0 0 0-1.526-1.254c-2.172-.658-6.059-1.356-9.669-1.417V4h3.5V3h-3.5V0h-1v3h-3.5v1h3.5v3.012c-3.61.061-7.497.759-9.669 1.417A2.56 2.56 0 0 0 .306 9.683a2.575 2.575 0 0 0-.188 1.985L3.605 23H2.003v1H22v-1h-1.602l3.487-11.332a2.583 2.583 0 0 0-.188-1.985Zm-.768 1.69L19.351 23H4.649L1.072 11.373a1.59 1.59 0 0 1 .115-1.22c.198-.373.53-.646.934-.768C4.325 8.718 8.357 7.999 12 7.999s7.675.719 9.879 1.386c.404.122.735.395.934.768.201.377.242.81.115 1.22Z"/></svg>