<svg xmlns="http://www.w3.org/2000/svg" width="512" height="512" data-name="Layer 1" viewBox="0 0 24 24"><path d="M18 15h2v-1.5l-.03-.16c-.56-1.69-2.04-5.83-3.53-7.67-2.17-2.9-5.74-4.22-9.32-3.45-1.06.23-2.04.65-2.95 1.24L.75.05l-.7.7 23.2 23.2.71-.71-6.33-6.33.38-1.92ZM7.33 3.19c3.19-.69 6.38.49 8.33 3.09.96 1.19 2.21 3.92 3.34 7.3V14h-1.82l-.41 2.07L4.89 4.18c.76-.47 1.57-.8 2.44-.99ZM20 16c.55 0 1 .45 1 1s-.45 1-1 1-1-.45-1-1 .45-1 1-1Zm4 3c0 .55-.45 1-1 1s-1-.45-1-1 .45-1 1-1 1 .45 1 1Zm-2-4c0-.55.45-1 1-1s1 .45 1 1-.45 1-1 1-1-.45-1-1Zm-6.6 3.92.77.77c-.36.2-.77.31-1.2.31h-1.96v2H3v-3.46c0-.58-.22-1.16-.61-1.63C.61 14.8-.22 12.35.06 10.04c.2-1.67.87-3.24 1.9-4.55l.71.71a8.253 8.253 0 0 0-1.62 3.96c-.33 2.75 1.18 5.01 2.1 6.11.54.65.84 1.45.84 2.27V21H12v-2h2.96c.15 0 .29-.03.43-.08Z"/></svg>