<svg xmlns="http://www.w3.org/2000/svg" width="512" height="512" data-name="Layer 1" viewBox="0 0 24 24"><path d="M12 24C5.383 24 0 18.617 0 12S5.383 0 12 0s12 5.383 12 12-5.383 12-12 12Zm0-23C5.935 1 1 5.935 1 12s4.935 11 11 11 11-4.935 11-11S18.065 1 12 1Zm5.979 10.643L15.3 9.5l2.679-2.143-.625-.781L13.699 9.5l3.655 2.924.625-.781ZM10.3 9.5 6.645 6.576l-.625.781L8.699 9.5 6.02 11.643l.625.781L10.3 9.5ZM12.001 20h-.013c-4.3 0-5.9-4.92-5.966-5.129l-.276-.875.886.243c.027.007 2.805.762 5.362.762s5.345-.754 5.373-.762l.887-.243-.278.876C17.91 15.081 16.3 20 12.001 20Zm-4.663-4.563C7.961 16.727 9.423 19 11.988 19h.013c2.574 0 4.037-2.274 4.66-3.564-1.078.236-2.899.564-4.667.564s-3.58-.328-4.656-.563Z"/></svg>