<svg xmlns="http://www.w3.org/2000/svg" width="512" height="512" data-name="Layer 1" viewBox="0 0 24 24"><path d="m10.111 9.077.711.703c-.996 1.007-2.067 1.249-2.866 1.249A4.264 4.264 0 0 1 5.012 9.81l.703-.711a3.257 3.257 0 0 0 2.041.923c.614.036 1.509-.091 2.354-.945Zm3.862-.021-.711.703c.995 1.008 2.067 1.249 2.864 1.249a4.26 4.26 0 0 0 2.937-1.215l-.703-.711a3.247 3.247 0 0 1-2.038.919c-.602.037-1.506-.091-2.349-.945Zm7.526 2.943c-.686 0-1.325.271-1.801.766l.721.693a1.502 1.502 0 0 1 2.58 1.041c0 .827-.673 1.5-1.5 1.5h-7.027c.325-.318.527-.761.527-1.25 0-.965-.785-1.75-1.75-1.75h-3.25v1h3.25c.413 0 .75.337.75.75s-.337.75-.75.75h-1.25v1h1.25c.413 0 .75.337.75.75s-.337.75-.75.75h-3.25v1h3.25a1.752 1.752 0 0 0 1.732-2h6.518c1.379 0 2.5-1.121 2.5-2.5s-1.121-2.5-2.5-2.5ZM1.054 9 .042.042 9 1.054V1.5C9 4.794 4.794 9 1.5 9h-.446Zm.123-7.823.767 6.792c2.529-.345 5.681-3.496 6.025-6.025l-6.792-.767Zm21.656 8.98c.385.102.746.255 1.08.453C23.221 4.646 18.146 0 12 0c-.344 0-.683.023-1.02.052v1C11.316 1.021 11.655 1 12 1c5.436 0 9.952 3.968 10.833 9.157Zm-1.916 8.259C18.918 21.187 15.67 23 12 23 5.935 23 1 18.065 1 12c0-.344.021-.683.052-1.02h-1C.023 11.317 0 11.655 0 12c0 6.617 5.383 12 12 12 4.236 0 7.957-2.211 10.094-5.535-.115.009-.226.035-.344.035-.285 0-.564-.03-.833-.084Z"/></svg>