<svg xmlns="http://www.w3.org/2000/svg" width="512" height="512" data-name="Layer 1" viewBox="0 0 24 24"><path d="M23.045 8.035 21 6.428V2h-1v3.641L13.545.567a2.494 2.494 0 0 0-3.09 0l-9.5 7.468A2.484 2.484 0 0 0 0 10v14h8v-9.5c0-.827.673-1.5 1.5-1.5h5c.827 0 1.5.673 1.5 1.5V24h8V10c0-.772-.348-1.489-.955-1.965ZM23 23h-6v-8.5c0-1.378-1.121-2.5-2.5-2.5h-5A2.503 2.503 0 0 0 7 14.5V23H1V10c0-.463.209-.893.572-1.179l9.5-7.468a1.498 1.498 0 0 1 1.855 0l9.5 7.468c.363.286.572.716.572 1.179v13Z"/></svg>