<svg xmlns="http://www.w3.org/2000/svg" width="512" height="512" data-name="Layer 1" viewBox="0 0 24 24"><path d="m10.831 17.648.97.242-1.5 6-.97-.242 1.5-6Zm-4.566 2.23.97.242 1.5-6-.97-.242-1.5 6ZM6 21.999a1 1 0 1 0 0 2 1 1 0 0 0 0-2Zm6-8a1 1 0 1 0 0 2 1 1 0 0 0 0-2Zm2 8a1 1 0 1 0 0 2 1 1 0 0 0 0-2Zm3.002-16.978A7.728 7.728 0 0 0 9.75 0C5.477 0 2 3.477 2 7.75c0 .763.116 1.523.345 2.267A5.437 5.437 0 0 0 0 14.5c0 2.589 1.8 4.76 4.213 5.342l.244-.976C2.479 18.393 1 16.621 1 14.5c0-1.582.822-3.021 2.2-3.847l.354-.212-.141-.388a6.736 6.736 0 0 1-.412-2.304 6.758 6.758 0 0 1 6.75-6.75 6.732 6.732 0 0 1 6.417 4.661l.11.339.355.007c3.511.071 6.368 2.984 6.368 6.493 0 3.236-2.463 6.1-5.41 6.447l-.254 1.016c3.587-.203 6.664-3.597 6.664-7.463 0-3.933-3.108-7.216-6.998-7.478Zm-2.737 14.856.97.242 1.5-6-.97-.242-1.5 6Z"/></svg>