<svg xmlns="http://www.w3.org/2000/svg" width="512" height="512" data-name="Layer 1" viewBox="0 0 24 24"><path d="M21.617 8.183c.46-.309.848-.61 1.133-.895a4.276 4.276 0 0 0 0-6.038 4.274 4.274 0 0 0-6.038 0c-.285.285-.586.673-.895 1.133A3.506 3.506 0 0 0 12.5 0C10.57 0 9 1.57 9.002 3.456c-.103 1.177.274 1.998.711 2.949.495 1.076 1.097 2.386 1.224 4.78-3.321-2.755-6.896-2.91-9.545-.256C.031 12.295.028 14.552.024 16.941c0 .484-.001.972-.014 1.466L-.011 24h5.618c.495-.013.995-.015 1.49-.013 2.369.003 4.617 0 5.974-1.356 2.673-2.679 2.551-6.191-.259-9.569 2.396.127 3.706.729 4.782 1.224.846.389 1.589.73 2.539.73.118 0 .24-.005.366-.017 1.93 0 3.5-1.57 3.5-3.5 0-1.539-.999-2.85-2.383-3.317Zm-4.198-6.226c.638-.637 1.475-.955 2.312-.955s1.674.318 2.312.955a3.277 3.277 0 0 1 0 4.624c-1.613 1.612-7.157 3.939-9.504 4.88.94-2.347 3.268-7.891 4.88-9.504ZM10 3.5C10 2.121 11.122 1 12.5 1A2.504 2.504 0 0 1 15 3.452l-.088.431c-1.165 2.105-2.32 4.792-3.029 6.528-.206-2.129-.781-3.38-1.261-4.424-.409-.889-.704-1.531-.622-2.487Zm2.364 18.424c-1.064 1.064-3.093 1.06-5.267 1.063-.506-.002-1.014 0-1.503.013H.993l.018-4.578c.013-.491.014-.987.014-1.479.003-2.178.006-4.234 1.076-5.307 1.083-1.086 2.303-1.637 3.624-1.637 1.684 0 3.557.923 5.297 2.604l.373.375c1.599 1.67 4.419 5.488.969 8.945Zm8.092-7.922c-.9.081-1.553-.215-2.443-.624-1.044-.48-2.294-1.055-4.423-1.261 1.737-.709 4.423-1.864 6.527-3.029L20.548 9A2.504 2.504 0 0 1 23 11.5c0 1.379-1.121 2.5-2.544 2.502Z"/></svg>