<svg xmlns="http://www.w3.org/2000/svg" width="512" height="512" data-name="Layer 1" viewBox="0 0 24 24"><path d="M0 22h21v-6H0v6Zm20-1H9v-4h11v4ZM1 17h7v4H1v-4Zm22-1h1v6h-1v-6ZM14 4.856V2h1v2.856c0 1.223.651 2.372 1.699 3.001l1.602.961A3.52 3.52 0 0 1 20 11.82V14h-1v-2.18c0-.873-.465-1.694-1.214-2.145l-1.602-.961a4.522 4.522 0 0 1-2.185-3.858Zm10 5.408v1.735h-1v-1.735a3.517 3.517 0 0 0-1.699-3.001l-2.087-1.252A2.514 2.514 0 0 1 18 3.866V0h1v3.867c0 .523.279 1.017.729 1.287l2.086 1.252A4.522 4.522 0 0 1 24 10.264Z"/></svg>