<svg xmlns="http://www.w3.org/2000/svg" width="512" height="512" data-name="Layer 1" viewBox="0 0 24 24"><path d="M17 0c-3.925 0-7 1.757-7 4v4.378A11.756 11.756 0 0 0 7 8c-3.925 0-7 1.757-7 4v8c0 2.243 3.075 4 7 4s7-1.757 7-4v-.385c.933.248 1.955.385 3 .385 3.925 0 7-1.757 7-4V4c0-2.243-3.075-4-7-4Zm0 1c3.252 0 6 1.374 6 3s-2.748 3-6 3-6-1.374-6-3 2.748-3 6-3ZM7 9c3.252 0 6 1.374 6 3s-2.748 3-6 3-6-1.374-6-3 2.748-3 6-3Zm-6 5.08C2.213 15.238 4.419 16 7 16s4.787-.762 6-1.92V16c0 1.626-2.748 3-6 3s-6-1.374-6-3v-1.92ZM7 23c-3.252 0-6-1.374-6-3v-1.92C2.213 19.238 4.419 20 7 20s4.787-.762 6-1.92V20c0 1.626-2.748 3-6 3Zm10-4c-1.057 0-2.086-.149-3-.422v-2.962c.932.248 1.953.383 3 .383 2.581 0 4.787-.762 6-1.92v1.92c0 1.626-2.748 3-6 3Zm0-4c-1.061 0-2.086-.151-3-.424V12c0-.133-.012-.264-.034-.393.938.254 1.963.393 3.034.393 2.581 0 4.787-.762 6-1.92V12c0 1.626-2.748 3-6 3Zm0-4c-1.309 0-2.538-.22-3.586-.624C12.896 9.693 12.058 9.115 11 8.7V6.081c1.213 1.158 3.419 1.92 6 1.92s4.787-.762 6-1.92v1.92c0 1.626-2.748 3-6 3Z"/></svg>