<svg xmlns="http://www.w3.org/2000/svg" width="512" height="512" data-name="Layer 1" viewBox="0 0 24 24"><path d="M11.5 5C12.879 5 14 3.878 14 2.5S12.879 0 11.5 0 9 1.122 9 2.5 10.121 5 11.5 5Zm0-4c.827 0 1.5.673 1.5 1.5S12.327 4 11.5 4 10 3.327 10 2.5 10.673 1 11.5 1Zm3.591 8.7-.3-1.648A2.5 2.5 0 0 0 12.331 6H10.67a2.5 2.5 0 0 0-2.46 2.054L6.045 20H9v4h1v-4h3v4h1v-4h2.773l.116-.337c.046-.131 1.11-3.246 1.11-5.038 0-2.311-1.081-4.129-2.909-4.925Zm.965 9.3H7.242l1.134-6.253 3.401 1.7.447-.895-3.662-1.831.633-3.489A1.5 1.5 0 0 1 10.671 7h1.661a1.5 1.5 0 0 1 1.476 1.231l.401 2.202.269.099c1.58.578 2.523 2.108 2.523 4.094 0 1.304-.674 3.531-.944 4.375Z"/></svg>