<svg xmlns="http://www.w3.org/2000/svg" width="512" height="512" data-name="Layer 1" viewBox="0 0 24 24"><path d="M20.5 13a8.447 8.447 0 0 1-4.103-1.058A9.489 9.489 0 0 0 20 4.5C20 2.019 17.981 0 15.5 0S11 2.019 11 4.5a9.484 9.484 0 0 0 3.603 7.442A8.444 8.444 0 0 1 10.5 13C5.972 13 2 8.794 2 4H1v20h1V8.388a10.224 10.224 0 0 0 3 3.705V24h1V12.764a9.073 9.073 0 0 0 3 1.105V24h1V13.985a9.462 9.462 0 0 0 3-.319V24h1V13.332a9.41 9.41 0 0 0 1.5-.757c.474.295.976.548 1.5.757V24h1V13.666a9.462 9.462 0 0 0 2.5.334h.5v10h1V13h-1.5ZM12 4.5C12 2.57 13.57 1 15.5 1S19 2.57 19 4.5a8.495 8.495 0 0 1-3.5 6.87A8.495 8.495 0 0 1 12 4.5Z"/></svg>