<svg xmlns="http://www.w3.org/2000/svg" width="512" height="512" data-name="Layer 1" viewBox="0 0 24 24"><path d="M21.5 21H2.496a2.503 2.503 0 0 1-2.5-2.495 799.215 799.215 0 0 1-.001-3.056v-.432l.429-.062C1.893 14.745 3 13.475 3 12S1.893 9.254.424 9.045l-.428-.061v-.433C-.008 7.713 0 5.498 0 5.498A2.503 2.503 0 0 1 2.5 3h19C22.878 3 24 4.122 24 5.5v3.483l-.429.062C22.105 9.257 21 10.527 21 12s1.105 2.743 2.571 2.955l.429.062V18.5c0 1.378-1.122 2.5-2.5 2.5ZM.994 15.86c0 .69 0 1.726.002 2.644 0 .825.674 1.497 1.5 1.497H21.5c.827 0 1.5-.673 1.5-1.5v-2.642c-1.737-.45-3-2.039-3-3.858s1.263-3.408 3-3.858V5.501c0-.827-.673-1.5-1.5-1.5h-19c-.827 0-1.5.673-1.5 1.5 0 .002-.006 1.652-.006 2.64C2.735 8.589 4 10.178 4 12.001s-1.265 3.412-3.006 3.86Z"/></svg>