<svg xmlns="http://www.w3.org/2000/svg" width="512" height="512" data-name="Layer 1" viewBox="0 0 24 24"><path d="M19 0v2H5V0H0v24h5v-2h14v2h5V0h-5ZM4 23H1V1h3v22Zm1-2V3h14v18H5Zm18 2h-3V1h3v22Z"/><path d="M14.111 8.505 12 5.038 9.889 8.505H5.625l2.133 3.499-2.132 3.501h4.267L12 18.96l2.107-3.455h4.267l-2.132-3.501 2.133-3.499h-4.264ZM12 6.961l.94 1.544h-1.881l.94-1.544Zm1.549 2.544 1.521 2.498-1.526 2.502h-3.09l-1.526-2.502 1.521-2.498h3.099Zm-6.143 0H9.28l-.936 1.537-.937-1.537Zm0 5 .939-1.541.94 1.541H7.407Zm4.595 2.534-.935-1.534h1.871l-.935 1.534Zm4.595-2.534h-1.878l.94-1.541.939 1.541Zm-1.875-5h1.874l-.937 1.537-.936-1.537Z"/></svg>