<svg xmlns="http://www.w3.org/2000/svg" width="512" height="512" data-name="Layer 1" viewBox="0 0 24 24"><path d="M14 1V0c5.514 0 10 4.486 10 10h-1c0-4.962-4.038-9-9-9Zm5 9h1c0-3.309-2.691-6-6-6v1c2.757 0 5 2.243 5 5Zm-1.473 3.837 5.679 5.679-2.879 2.879C19.294 23.43 17.895 24 16.386 24 9.189 24 0 14.812 0 7.613c0-1.509.57-2.908 1.605-3.941L4.484.793l5.679 5.679L6.79 9.845c1.506 3.559 3.919 5.974 7.36 7.369l3.377-3.377Zm4.265 5.679-4.265-4.265-3.13 3.131-.303-.116c-3.92-1.496-6.732-4.306-8.357-8.352l-.123-.307 3.135-3.135-4.265-4.265-2.172 2.172C1.466 5.223 1 6.372 1 7.613 1 14.228 9.772 23 16.387 23c1.241 0 2.389-.466 3.233-1.312l2.172-2.172Z"/></svg>