<svg xmlns="http://www.w3.org/2000/svg" width="512" height="512" data-name="Layer 1" viewBox="0 0 24 24"><path d="m21.269 2.729-1.301-2.6-1.3 2.6-2.601 1.301 2.601 1.3 1.3 2.6 1.301-2.6 2.6-1.3-2.6-1.301Zm-.746 1.854-.555 1.109-.554-1.109-1.11-.554 1.11-.555.554-1.109.555 1.109 1.109.555-1.109.554ZM6.836 17.519l-2.245-1.123-1.123-2.245-1.123 2.245L.1 17.52l2.245 1.123 1.123 2.245 1.123-2.245 2.245-1.123Zm-3.368 1.132-.377-.755-.755-.377.755-.377.377-.755.377.755.755.377-.755.377-.377.755ZM8 20v-1h8v1H8Zm-4 3h16v1H4v-1Zm8.045-18c1.379 0 2.5-1.121 2.5-2.5S13.424 0 12.045 0s-2.5 1.121-2.5 2.5 1.121 2.5 2.5 2.5Zm0-4c.827 0 1.5.673 1.5 1.5s-.673 1.5-1.5 1.5-1.5-.673-1.5-1.5.673-1.5 1.5-1.5ZM17 15H7v-1h10v1Zm-9.863-5H5.921l1.725-2.492A3.503 3.503 0 0 1 10.524 6h2.951c1.147 0 2.224.563 2.878 1.507L18.079 10h-1.216l-1.332-1.924A2.5 2.5 0 0 0 13.475 7h-2.951a2.5 2.5 0 0 0-2.056 1.077L7.137 10Z"/></svg>