<svg xmlns="http://www.w3.org/2000/svg" width="512" height="512" data-name="Layer 1" viewBox="0 0 24 24"><path d="M17.75 0C15.135 0 12.945 2.936 12 7.22 11.055 2.936 8.865 0 6.25 0 2.745 0 0 5.271 0 12s2.745 12 6.25 12c2.615 0 4.805-2.936 5.75-7.221.945 4.284 3.135 7.221 5.75 7.221C21.255 24 24 18.729 24 12S21.255 0 17.75 0ZM6.25 23c-2.227 0-4.178-3.09-4.923-7.288A2.49 2.49 0 0 0 3.5 17C4.878 17 6 15.879 6 14.5S4.878 12 3.5 12a2.5 2.5 0 0 0-2.414 1.883A21.888 21.888 0 0 1 1 12C1 6.037 3.404 1 6.25 1s5.25 5.037 5.25 11-2.404 11-5.25 11ZM2 14.5c0-.827.673-1.5 1.5-1.5s1.5.673 1.5 1.5S4.327 16 3.5 16 2 15.327 2 14.5ZM17.75 23c-2.091 0-3.94-2.725-4.776-6.534A2.48 2.48 0 0 0 14.5 17c1.378 0 2.5-1.121 2.5-2.5S15.878 12 14.5 12c-.807 0-1.518.39-1.975.985A21.367 21.367 0 0 1 12.5 12c0-5.963 2.404-11 5.25-11S23 6.037 23 12s-2.404 11-5.25 11ZM13 14.5c0-.827.673-1.5 1.5-1.5s1.5.673 1.5 1.5-.673 1.5-1.5 1.5-1.5-.673-1.5-1.5Z"/></svg>