<svg xmlns="http://www.w3.org/2000/svg" width="512" height="512" data-name="Layer 1" viewBox="0 0 24 24"><path d="M4.5 9a.5.5 0 0 0 .5-.5V7h11.782l-.182-.637a10.39 10.39 0 0 0-.212-.662l-1.443-4.042A2.503 2.503 0 0 0 12.591 0H4.41c-1.054 0-2 .667-2.354 1.659L.612 5.701A10.472 10.472 0 0 0 0 9.232V13h2v2h3v-3H1V9.232c0-.755.089-1.502.266-2.232H4v1.5a.5.5 0 0 0 .5.5ZM4 13v1H3v-1h1ZM2.997 1.995A1.504 1.504 0 0 1 4.41 1h8.18c.632 0 1.2.4 1.413.995L15.433 6H1.566l1.431-4.005ZM24 18.232c0-1.206-.206-2.394-.612-3.531l-1.443-4.042A2.503 2.503 0 0 0 19.591 9H11.41c-1.054 0-2 .667-2.354 1.659l-1.443 4.042a10.472 10.472 0 0 0-.612 3.531V22h2v2h3v-2h7v2h3v-2h2v-3.768ZM9.997 10.995A1.504 1.504 0 0 1 11.41 10h8.181c.632 0 1.2.4 1.413.995L22.434 15H8.566l1.43-4.005ZM11 23h-1v-1h1v1Zm10 0h-1v-1h1v1Zm2-2H8v-2.768c0-.755.089-1.502.266-2.232H11v1.5a.5.5 0 0 0 1 0V16h7v1.5a.5.5 0 0 0 1 0V16h2.734c.177.73.266 1.477.266 2.232V21Z"/></svg>