<svg xmlns="http://www.w3.org/2000/svg" width="512" height="512" data-name="Layer 1" viewBox="0 0 24 24"><path d="M21.92 11A5.04 5.04 0 0 0 23 7.86c0-2.6-1.94-4.73-4.36-4.86.18-.11.35-.23.51-.39C20.12 1.64 20 0 20 0s-1.64-.12-2.61.85c-.3.3-.5.66-.63 1.03-.23-.78-.62-1.49-.82-1.86l-.88.48c.25.45.79 1.43.91 2.5h-1.38c-.93 0-1.83.3-2.59.85a4.38 4.38 0 0 0-2.36-.84c.18-.11.35-.23.51-.39C11.12 1.64 11 0 11 0S9.36-.12 8.39.85c-.3.3-.5.67-.63 1.04-.23-.79-.62-1.5-.82-1.87L6.06.5c.25.46.78 1.43.92 2.49H5.6C3.06 3 1 5.18 1 7.86c0 1.16.4 2.27 1.09 3.14H0v10.5A2.5 2.5 0 0 0 2.5 24h19a2.5 2.5 0 0 0 2.5-2.5V11h-2.08Zm-7.33-7h3.82C20.39 4 22 5.73 22 7.86c0 1.25-.56 2.41-1.49 3.14h-7.59A5.04 5.04 0 0 0 14 7.86a5 5 0 0 0-1.24-3.32c.55-.35 1.19-.54 1.83-.54ZM2 7.86C2 5.73 3.61 4 5.59 4h3.82C11.39 4 13 5.73 13 7.86c0 1.25-.56 2.41-1.49 3.14H3.49C2.56 10.28 2 9.11 2 7.86ZM23 21.5c0 .83-.67 1.5-1.5 1.5h-19c-.83 0-1.5-.67-1.5-1.5V20h19.5v-1H1v-3h19.5v-1H1v-3h22v9.5Z"/></svg>