<svg xmlns="http://www.w3.org/2000/svg" width="512" height="512" data-name="Layer 1" viewBox="0 0 24 24"><path d="M21.5 19c-.509 0-.981.154-1.377.416l-1.426-1.426a8.985 8.985 0 0 0 1.81-3.081l3.207.9.271-.963-3.203-.899c.139-.628.218-1.278.218-1.947s-.079-1.319-.218-1.947l3.203-.899-.271-.963-3.207.9a9.017 9.017 0 0 0-1.81-3.081l1.426-1.426c.395.262.868.416 1.376.416 1.378 0 2.5-1.121 2.5-2.5S22.877 0 21.499 0s-2.5 1.121-2.5 2.5c0 .509.154.981.416 1.377l-1.426 1.426a8.998 8.998 0 0 0-3.082-1.811l.9-3.207-.963-.27-.899 3.203C13.317 3.079 12.667 3 11.997 3s-1.32.079-1.948.218L9.153.016l-.963.27.9 3.207a8.998 8.998 0 0 0-3.082 1.811L4.582 3.878c.262-.395.416-.868.416-1.377 0-1.379-1.122-2.5-2.5-2.5A2.5 2.5 0 0 0 2.5 5a2.48 2.48 0 0 0 1.376-.416L5.302 6.01a8.985 8.985 0 0 0-1.81 3.081l-3.207-.9-.27.962 3.203.899C3.079 10.68 3 11.33 3 11.999s.079 1.319.218 1.947l-3.203.901.271.963 3.207-.9a8.998 8.998 0 0 0 1.81 3.081l-1.426 1.426a2.483 2.483 0 0 0-1.377-.416c-1.378 0-2.5 1.121-2.5 2.5s1.122 2.5 2.5 2.5S5 22.88 5 21.501c0-.509-.154-.981-.416-1.377l1.426-1.426a8.985 8.985 0 0 0 3.081 1.81l-.9 3.207.963.27.899-3.203c.628.139 1.278.218 1.948.218s1.319-.079 1.947-.218l.9 3.203.963-.27-.901-3.207a8.998 8.998 0 0 0 3.082-1.811l1.426 1.426a2.483 2.483 0 0 0-.416 1.377c0 1.379 1.122 2.5 2.5 2.5s2.5-1.121 2.5-2.5-1.122-2.5-2.5-2.5Zm0-18c.827 0 1.5.673 1.5 1.5S22.327 4 21.5 4 20 3.327 20 2.5 20.673 1 21.5 1Zm-19 3C1.673 4 1 3.327 1 2.5S1.673 1 2.5 1 4 1.673 4 2.5 3.327 4 2.5 4Zm0 19c-.827 0-1.5-.673-1.5-1.5S1.673 20 2.5 20s1.5.673 1.5 1.5S3.327 23 2.5 23Zm9.5-3c-4.411 0-8-3.589-8-8s3.589-8 8-8 8 3.589 8 8-3.589 8-8 8Zm9.5 3c-.827 0-1.5-.673-1.5-1.5s.673-1.5 1.5-1.5 1.5.673 1.5 1.5-.673 1.5-1.5 1.5ZM12 17a1.001 1.001 0 0 1 0-2 1.001 1.001 0 0 1 0 2Zm4-4a1.001 1.001 0 0 1 0-2 1.001 1.001 0 0 1 0 2Zm-4-6a1.001 1.001 0 1 1-1 1c0-.552.449-1 1-1Zm-4 6a1.001 1.001 0 0 1 0-2 1.001 1.001 0 0 1 0 2Z"/></svg>