<svg xmlns="http://www.w3.org/2000/svg" width="512" height="512" data-name="Layer 1" viewBox="0 0 24 24"><path d="M21.72 15H6.02l.24 1.71c.1.74.74 1.29 1.49 1.29h12.26v1H7.74c-1.24 0-2.31-.93-2.48-2.16L3.24 2.29A1.5 1.5 0 0 0 1.75 1H0V0h1.76C3 0 4.07.93 4.24 2.16L4.5 4h6.51v1H4.63l1.25 9H20.9l1.8-9H16V4h7.92l-2.2 11ZM9 22c0 1.1-.9 2-2 2s-2-.9-2-2 .9-2 2-2 2 .9 2 2Zm-1 0c0-.55-.45-1-1-1s-1 .45-1 1 .45 1 1 1 1-.45 1-1Zm11 0c0 1.1-.9 2-2 2s-2-.9-2-2 .9-2 2-2 2 .9 2 2Zm-1 0c0-.55-.45-1-1-1s-1 .45-1 1 .45 1 1 1 1-.45 1-1ZM10.45 7.16l-.71.71 2.69 2.69c.29.29.68.44 1.06.44s.77-.15 1.06-.44l2.68-2.68-.71-.71-2.54 2.54V0h-1v9.71l-2.55-2.55Z"/></svg>