<svg xmlns="http://www.w3.org/2000/svg" width="512" height="512" data-name="Layer 1" viewBox="0 0 24 24"><path d="M21.5 0h-19A2.503 2.503 0 0 0 0 2.5V20h7.106l3.897 3.283c.286.254.645.38 1.001.38.353 0 .703-.123.979-.368L16.968 20H24V2.5C24 1.121 22.878 0 21.5 0ZM23 19h-6.391l-4.276 3.535a.5.5 0 0 1-.675-.009L7.471 19H1V2.5C1 1.673 1.673 1 2.5 1h19c.827 0 1.5.673 1.5 1.5V19ZM13.394 5.571l3.203 3.202-.707.707-3.203-3.202a.963.963 0 0 0-.187-.146v8.867h-1V6.133a.985.985 0 0 0-.187.146L8.11 9.481l-.707-.707 3.203-3.202a1.972 1.972 0 0 1 2.787 0Z"/></svg>