<svg xmlns="http://www.w3.org/2000/svg" width="512" height="512" data-name="Layer 1" viewBox="0 0 24 24"><path d="M15 0h-.5v.014C9.769.274 6 4.205 6 9a8.96 8.96 0 0 0 2.296 5.997L.039 23.254l.707.707 8.257-8.257A8.96 8.96 0 0 0 15 18c4.963 0 9-4.037 9-9s-4.037-9-9-9Zm0 17c-4.411 0-8-3.589-8-8 0-4.323 3.447-7.856 7.737-7.995C18.156 1.13 21 3.939 21 7.25c0 3.386-2.468 5.75-6 5.75-2.206 0-4-1.794-4-4s1.794-4 4-4c.944 0 2 .855 2 2 0 1.103-.897 2-2 2v1c1.654 0 3-1.346 3-3 0-1.598-1.402-3-3-3-2.757 0-5 2.243-5 5s2.243 5 5 5c4.056 0 7-2.839 7-6.75a6.905 6.905 0 0 0-.96-3.49A7.964 7.964 0 0 1 23 9c0 4.411-3.589 8-8 8Z"/></svg>