<svg xmlns="http://www.w3.org/2000/svg" width="512" height="512" data-name="Layer 1" viewBox="0 0 24 24"><path d="M19 5c1.379 0 2.5-1.121 2.5-2.5S20.379 0 19 0s-2.5 1.121-2.5 2.5S17.621 5 19 5Zm0-4c.827 0 1.5.673 1.5 1.5S19.827 4 19 4s-1.5-.673-1.5-1.5S18.173 1 19 1Zm4.996 20L22.473 8.31C22.299 6.994 21.117 6 19.72 6h-1.449c-1.396 0-2.579.993-2.753 2.315L13.995 21h3.006v3h1v-3h2v3h1v-3h2.996ZM16.51 8.44c.107-.821.864-1.44 1.761-1.44h1.449c.896 0 1.653.619 1.761 1.435L22.87 20h-7.748l1.389-11.56ZM4 5c1.379 0 2.5-1.121 2.5-2.5S5.379 0 4 0 1.5 1.121 1.5 2.5 2.621 5 4 5Zm0-4c.827 0 1.5.673 1.5 1.5S4.827 4 4 4s-1.5-.673-1.5-1.5S3.173 1 4 1Zm1.5 5h-3A2.502 2.502 0 0 0 0 8.5V17h2v7h1v-7h2v7h1v-7h2V8.5C8 7.121 6.879 6 5.5 6ZM7 16H1V8.5C1 7.673 1.673 7 2.5 7h3C6.327 7 7 7.673 7 8.5V16Zm4-16h1v24h-1V0Z"/></svg>