<svg xmlns="http://www.w3.org/2000/svg" width="512" height="512" data-name="Layer 1" viewBox="0 0 24 24"><path d="M12.5 24h-9C1.57 24 0 22.43 0 20.5c0-1.8 1.366-3.288 3.116-3.479A4.602 4.602 0 0 1 3 16c0-2.757 2.243-5 5-5a4.98 4.98 0 0 1 4.88 4.016A4.505 4.505 0 0 1 17 19.5c0 2.481-2.019 4.5-4.5 4.5Zm-9-6C2.122 18 1 19.122 1 20.5S2.122 23 3.5 23h9a3.499 3.499 0 0 0 .027-7l-.525.005-.049-.445A3.984 3.984 0 0 0 8 12c-2.206 0-4 1.794-4 4 0 .43.081.865.248 1.332l.238.668h-.985Zm13.984-2.625c.228.275.434.566.615.875A6.994 6.994 0 0 1 24 12.999v-1a7.988 7.988 0 0 0-6.516 3.375ZM7.292 9.036C7.525 9.013 7.761 9 8 9c.172 0 .339.026.508.039C11.953 4.184 17.607 1 24 1V0C17.02 0 10.871 3.601 7.292 9.036Zm6.988 3.954c.049.104.111.2.156.306.229.072.444.172.661.269 2-2.76 5.241-4.566 8.903-4.566v-1c-3.999 0-7.538 1.974-9.72 4.991Zm-2.744-3c.287.171.56.361.82.57 2.752-3.389 6.947-5.561 11.643-5.561v-1c-5.035 0-9.528 2.344-12.464 5.991Z"/></svg>