<svg xmlns="http://www.w3.org/2000/svg" width="512" height="512" data-name="Layer 1" viewBox="0 0 24 24"><path d="M24 3.5C24 1.57 22.43 0 20.5 0S17 1.57 17 3.5a3.505 3.505 0 0 0 3 3.464V9.5c0 .827-.673 1.5-1.5 1.5h-13c-.562 0-1.082.187-1.5.501V6.964A3.505 3.505 0 0 0 7 3.5C7 1.57 5.43 0 3.5 0S0 1.57 0 3.5a3.505 3.505 0 0 0 3 3.464v10.072A3.505 3.505 0 0 0 0 20.5C0 22.43 1.57 24 3.5 24S7 22.43 7 20.5a3.505 3.505 0 0 0-3-3.464V13.5c0-.827.673-1.5 1.5-1.5h13c1.378 0 2.5-1.122 2.5-2.5V6.964A3.505 3.505 0 0 0 24 3.5Zm-23 0C1 2.122 2.122 1 3.5 1S6 2.122 6 3.5 4.878 6 3.5 6 1 4.878 1 3.5Zm5 17C6 21.878 4.878 23 3.5 23S1 21.878 1 20.5 2.122 18 3.5 18 6 19.122 6 20.5ZM20.5 6C19.122 6 18 4.878 18 3.5S19.122 1 20.5 1 23 2.122 23 3.5 21.878 6 20.5 6Z"/></svg>