<svg xmlns="http://www.w3.org/2000/svg" width="512" height="512" data-name="Layer 1" viewBox="0 0 24 24"><path d="M21.5 0h-19A2.503 2.503 0 0 0 0 2.5V24h24V2.5C24 1.122 22.879 0 21.5 0ZM23 23H1V2.5C1 1.673 1.673 1 2.5 1h19c.827 0 1.5.673 1.5 1.5V23ZM12.071 4H7c-1.103 0-2 .897-2 2v12c0 1.103.897 2 2 2h5.071A6.937 6.937 0 0 0 19 13.071v-2.143a6.937 6.937 0 0 0-6.929-6.929ZM18 13.071A5.935 5.935 0 0 1 12.071 19H7c-.552 0-1-.449-1-1V6c0-.551.448-1 1-1h5.071C15.341 5 18 7.66 18 10.929v2.143Z"/></svg>