<svg xmlns="http://www.w3.org/2000/svg" data-name="Layer 1" viewBox="0 0 24 24"><path d="M24 3h-3V2h-1v1h-3v1h3v6.5c0 .827-.673 1.5-1.5 1.5H17v-1.5C17 9.122 15.879 8 14.5 8h-5A2.503 2.503 0 0 0 7 10.5V12H5.5c-.827 0-1.5-.673-1.5-1.5V4h3V3H4V2H3v1H0v1h3v6.5C3 11.878 4.121 13 5.5 13H7v1.788A8.53 8.53 0 0 0 3 22h1a7.532 7.532 0 0 1 3-6v1h10v-1a7.533 7.533 0 0 1 3 6h1a8.532 8.532 0 0 0-4-7.212V13h1.5c1.379 0 2.5-1.122 2.5-2.5V4h3V3Zm-8 13H8v-5.5C8 9.673 8.673 9 9.5 9h5c.827 0 1.5.673 1.5 1.5V16Z"/></svg>