<svg xmlns="http://www.w3.org/2000/svg" width="512" height="512" data-name="Layer 1" viewBox="0 0 24 24"><path d="M21.5 0h-19A2.5 2.5 0 0 0 0 2.5V20h7.11l3.9 3.28c.29.25.64.38 1 .38s.7-.12.98-.37l3.99-3.3h7.03V2.5a2.5 2.5 0 0 0-2.5-2.5ZM23 19h-6.39l-4.28 3.54c-.19.17-.47.17-.67 0l-4.19-3.53H1V2.5C1 1.67 1.67 1 2.5 1h19c.83 0 1.5.67 1.5 1.5V19Zm-5.67-6.13-.67-.75s-2.14 1.87-4.67 1.87-4.65-1.85-4.67-1.87l-.67.75c.1.09 2.41 2.13 5.33 2.13s5.24-2.04 5.33-2.13ZM8.75 6c-.55 0-1 .45-1 1s.45 1 1 1 1-.45 1-1-.45-1-1-1Zm6.5 0c-.55 0-1 .45-1 1s.45 1 1 1 1-.45 1-1-.45-1-1-1Z"/></svg>