<svg xmlns="http://www.w3.org/2000/svg" width="512" height="512" data-name="Layer 1" viewBox="0 0 24 24"><path d="m18.355 7.352-.711-.703-4.603 4.645a2.002 2.002 0 0 0-3.042 1.707c0 1.103.897 2 2 2a2.002 2.002 0 0 0 1.737-2.989l4.618-4.66ZM12 14a1.001 1.001 0 0 1 0-2 1.001 1.001 0 0 1 0 2Zm12-1c0 3.897-1.911 7.568-5.113 9.818l-.319.225-2.713-2.347.654-.756 2.117 1.831A11.017 11.017 0 0 0 23 13c0-6.065-4.935-11-11-11S1 6.935 1 13c0 3.442 1.628 6.693 4.374 8.771l2.117-1.831.654.756-2.713 2.347-.319-.225A12.02 12.02 0 0 1 0 13C0 6.383 5.383 1 12 1s12 5.383 12 12Z"/></svg>