<svg xmlns="http://www.w3.org/2000/svg" width="512" height="512" data-name="Layer 1" viewBox="0 0 24 24"><path d="M12 0C5.383 0 0 5.383 0 12s5.383 12 12 12 12-5.383 12-12S18.617 0 12 0Zm10 8.5v2c0 .827-.673 1.5-1.5 1.5h-5c-.827 0-1.5-.673-1.5-1.5v-2c0-.827.673-1.5 1.5-1.5h5c.827 0 1.5.673 1.5 1.5ZM12 1c3.909 0 7.349 2.05 9.3 5.132A2.49 2.49 0 0 0 20.5 6h-5c-1.208 0-2.218.86-2.45 2h-2.1A2.504 2.504 0 0 0 8.5 6h-5c-.28 0-.549.047-.8.132C4.651 3.05 8.091 1 12 1ZM2 8.5C2 7.673 2.673 7 3.5 7h5c.827 0 1.5.673 1.5 1.5v2c0 .827-.673 1.5-1.5 1.5h-5c-.827 0-1.5-.673-1.5-1.5v-2ZM12 23C5.935 23 1 18.065 1 12c0-.343.017-.681.047-1.016A2.503 2.503 0 0 0 3.5 13h5c1.379 0 2.5-1.121 2.5-2.5V9h2v1.5c0 1.379 1.121 2.5 2.5 2.5h5a2.504 2.504 0 0 0 2.453-2.016c.031.335.047.674.047 1.016 0 6.065-4.935 11-11 11Zm4.667-7.873.666.746C17.236 15.96 14.919 18 12 18s-5.236-2.04-5.333-2.127l.666-.746C7.354 15.146 9.47 17 12 17s4.646-1.854 4.667-1.873ZM19 10a1 1 0 1 1-2 0 1 1 0 0 1 2 0ZM5 10a1 1 0 1 1 2 0 1 1 0 0 1-2 0Z"/></svg>