<svg xmlns="http://www.w3.org/2000/svg" width="512" height="512" data-name="Layer 1" viewBox="0 0 24 24"><path d="M23.638 6.297 21.742 3.15 12 .066 2.257 3.149.382 6.263c-.411.685-.487 1.507-.21 2.256s.87 1.324 1.628 1.576l.204.068-.008 10.451 9.997 3.332 9.995-3.332.008-10.451.243-.081a2.577 2.577 0 0 0 1.608-1.557 2.574 2.574 0 0 0-.208-2.229Zm-3.844-2.715-7.786 2.599-7.786-2.604L12 1.115l7.794 2.467ZM1.109 8.173a1.616 1.616 0 0 1 .129-1.395l1.577-2.617 8.429 2.819-1.948 3.247a1.581 1.581 0 0 1-1.868.691L2.115 9.147a1.612 1.612 0 0 1-1.006-.975Zm1.894 2.324 4.109 1.37a2.574 2.574 0 0 0 3.042-1.125l1.344-2.241-.007 14.226-8.496-2.832.007-9.397Zm17.984 9.397-8.496 2.832.007-14.228 1.346 2.244a2.576 2.576 0 0 0 3.041 1.125l4.109-1.369-.007 9.397Zm1.92-11.714a1.579 1.579 0 0 1-.986.955l-5.352 1.784a1.583 1.583 0 0 1-1.868-.691l-1.945-3.242 8.432-2.815 1.592 2.642c.249.415.295.914.127 1.368Z"/></svg>