<svg xmlns="http://www.w3.org/2000/svg" width="512" height="512" data-name="Layer 1" viewBox="0 0 24 24"><path d="M21.5 0h-11A2.503 2.503 0 0 0 8 2.5V14h6.05c.039-.347.112-.681.226-1H9.263l6.712-5.818 2.024 2.024 5-5v6.07c.353.126.693.28 1 .485V2.5c0-1.378-1.121-2.5-2.5-2.5ZM18 7.793l-1.976-1.976L9 11.905V2.5c0-.827.673-1.5 1.5-1.5h11c.827 0 1.5.673 1.5 1.5v.293l-5 5ZM13 4a1 1 0 1 1-2 0 1 1 0 0 1 2 0Zm8.5 8h-3a2.503 2.503 0 0 0-2.5 2.5v5.013A2.477 2.477 0 0 0 14.5 19c-1.379 0-2.5 1.122-2.5 2.5s1.121 2.5 2.5 2.5 2.5-1.122 2.5-2.5v-7c0-.827.673-1.5 1.5-1.5h3c.827 0 1.5.673 1.5 1.5v5.013A2.477 2.477 0 0 0 21.5 19c-1.379 0-2.5 1.122-2.5 2.5s1.121 2.5 2.5 2.5 2.5-1.122 2.5-2.5v-7c0-1.378-1.121-2.5-2.5-2.5Zm-7 11c-.827 0-1.5-.673-1.5-1.5s.673-1.5 1.5-1.5 1.5.673 1.5 1.5-.673 1.5-1.5 1.5Zm7 0c-.827 0-1.5-.673-1.5-1.5s.673-1.5 1.5-1.5 1.5.673 1.5 1.5-.673 1.5-1.5 1.5ZM5 23V10h1V9H4v3H1V9H0v15h1v-3h3v3h6.76a4.445 4.445 0 0 1-.484-1H5ZM4 13v3H1v-3h3Zm-3 7v-3h3v3H1Z"/></svg>