<svg xmlns="http://www.w3.org/2000/svg" width="512" height="512" data-name="Layer 1" viewBox="0 0 24 24"><path d="m17.648 6.144.703.712-6.793 6.707a1.5 1.5 0 0 1-2.119-.002L5.65 9.858l.699-.715 3.793 3.707c.2.198.516.2.711.004l6.795-6.709ZM24 2.5V20h-7.032l-3.984 3.295a1.47 1.47 0 0 1-.979.368 1.51 1.51 0 0 1-1.001-.379L7.107 20H0V2.5C0 1.122 1.122 0 2.5 0h19C22.879 0 24 1.122 24 2.5Zm-1 0c0-.827-.673-1.5-1.5-1.5h-19C1.673 1 1 1.673 1 2.5V19h6.471l4.187 3.527a.504.504 0 0 0 .675.008l4.276-3.536h6.392V2.5Z"/></svg>