<svg xmlns="http://www.w3.org/2000/svg" width="512" height="512" data-name="Layer 1" viewBox="0 0 24 24"><path d="M21.119 8.595a2.524 2.524 0 0 0-2.035-.562 2.436 2.436 0 0 0-1.569.988 2.498 2.498 0 0 0-4.501 1.212l-.686-1.419 2.519-5.3a2.494 2.494 0 0 0-.034-2.098A2.51 2.51 0 0 0 13.178.079c-1.163-.303-2.43.345-2.938 1.494l-.711 1.459-.695-1.435C8.321.431 7.06-.22 5.891.078A2.516 2.516 0 0 0 4.252 1.41a2.504 2.504 0 0 0-.035 2.111l2.498 5.286-2.011 4.127-2.029 2.376a2.822 2.822 0 0 0 .149 3.807l4.884 4.884h14.293V10.5c0-.734-.321-1.429-.881-1.905ZM14 10.5c0-.827.673-1.5 1.5-1.5s1.5.673 1.5 1.5v2c0 .827-.673 1.5-1.5 1.5s-1.5-.673-1.5-1.5v-2Zm-2.854-8.505c.32-.721 1.083-1.13 1.78-.947.441.115.792.401.986.804.191.397.199.856.026 1.246L9.622 12.18a2.489 2.489 0 0 0-2.935-1.036l4.459-9.149ZM5.127 3.106a1.498 1.498 0 0 1 1.013-2.06c.693-.179 1.459.23 1.784.969l1.046 2.16-1.695 3.478-2.148-4.547ZM8.121 23 3.53 18.409a1.816 1.816 0 0 1-.097-2.45l3.006-3.521a1.504 1.504 0 0 1 2.122.003c.281.281.438.696.438 1.051 0 .003-.156.785-.469 1.1l-2.278 2.709.766.644 2.248-2.677a2.48 2.48 0 0 0 .723-1.53l1.789-3.764 1.223 2.527a2.502 2.502 0 0 0 2.5 2.499c.817 0 1.544-.394 2-1.002a2.497 2.497 0 0 0 3.5.501V23H8.121ZM19.5 14c-.827 0-1.5-.673-1.5-1.5v-1.893c0-.789.535-1.471 1.244-1.586A1.499 1.499 0 0 1 21 10.5v2c0 .827-.673 1.5-1.5 1.5Z"/></svg>