<svg xmlns="http://www.w3.org/2000/svg" width="512" height="512" data-name="Layer 1" viewBox="0 0 24 24"><path d="m5.262 9.01-.845-.535c.95-1.5 2.379-2.688 4.132-3.435l.393.92c-1.566.668-2.838 1.723-3.68 3.05Zm10.184-3.97-.392.92c1.579.673 2.877 1.73 3.755 3.058l.834-.551c-.987-1.492-2.438-2.677-4.198-3.427Zm-4.623 5.74-.711-.703c-1.421 1.436-3.326 1.081-4.396.022l-.703.711c.754.746 1.82 1.227 2.936 1.227.979 0 1.997-.37 2.874-1.257Zm5.5.222c-.603.039-1.505-.092-2.349-.945l-.711.703c.996 1.008 2.067 1.249 2.865 1.249a4.256 4.256 0 0 0 2.936-1.215l-.703-.711a3.247 3.247 0 0 1-2.037.919ZM12 17c-2.53 0-4.646-1.854-4.667-1.873l-.666.746C6.764 15.96 9.082 18 12 18s5.236-2.04 5.333-2.127l-.666-.746C16.646 15.146 14.529 17 12 17Zm12-5c0 6.617-5.383 12-12 12S0 18.617 0 12 5.383 0 12 0s12 5.383 12 12Zm-1 0c0-6.065-4.935-11-11-11S1 5.935 1 12s4.935 11 11 11 11-4.935 11-11Z"/></svg>