<svg xmlns="http://www.w3.org/2000/svg" width="512" height="512" data-name="Layer 1" viewBox="0 0 24 24"><path d="M12 0C5.383 0 0 5.383 0 12s5.383 12 12 12 12-5.383 12-12S18.617 0 12 0Zm-.551 1.014-1.291 2.945-.336.522 1.339 2.231-1.858-.929L6.586 8.5l.5.5H5.427L2.68 6.165a11.003 11.003 0 0 1 8.769-5.151ZM12 23C5.935 23 1 18.065 1 12c0-1.77.421-3.443 1.167-4.926L5.003 10H8l1 1v2l2 2v4h2l3-6.5-4-2.5H9.5L8 8.5 9.5 7l2 1 1-1-1.503-2.504 1.543-3.482a11.008 11.008 0 0 1 8.718 5.051l-3.257 1.941.997 3.987 3.818 2.015C21.87 19.118 17.38 23 12 23Zm-2-10.414V11h1.713l3.01 1.881L12.36 18h-.359v-3.414l-2-2Zm9.859-1.269-.708-2.833 2.608-1.554a10.93 10.93 0 0 1 1.198 6.022l-3.099-1.635Z"/></svg>