<svg xmlns="http://www.w3.org/2000/svg" width="512" height="512" data-name="Layer 1" viewBox="0 0 24 24"><path d="M11.02 23H2.5c-.827 0-1.5-.673-1.5-1.5S1.673 20 2.5 20h6.874a8.524 8.524 0 0 1-.242-1H5V1h13.5a.5.5 0 0 1 .5.5v7.632c.341.061.674.142 1 .242V1.5c0-.827-.673-1.5-1.5-1.5h-16A2.503 2.503 0 0 0 0 2.5v19C0 22.879 1.122 24 2.5 24h9.523a8.62 8.62 0 0 1-1.004-1ZM2.5 1H4v18H2.5c-.562 0-1.082.187-1.5.501V2.5C1 1.673 1.673 1 2.5 1Zm15 10c-3.584 0-6.5 2.916-6.5 6.5s2.916 6.5 6.5 6.5 6.5-2.916 6.5-6.5-2.916-6.5-6.5-6.5Zm0 12c-3.033 0-5.5-2.468-5.5-5.5s2.467-5.5 5.5-5.5 5.5 2.468 5.5 5.5-2.467 5.5-5.5 5.5Zm.991-8.589a1.407 1.407 0 0 0-1-.412h-.005a1.408 1.408 0 0 0-.999.417L13.412 18h3.587v3h1v-3h3.593l-3.102-3.589Zm-1.283.699c.076-.071.16-.09.283-.111a.41.41 0 0 1 .269.094L19.408 17h-3.82l1.62-1.89Z"/></svg>