<svg xmlns="http://www.w3.org/2000/svg" width="512" height="512" data-name="Layer 1" viewBox="0 0 24 24"><path d="M21.5 6h-4.23c.193-.132.376-.28.545-.448 1.35-1.285 1.576-2.977.576-4.31a3.109 3.109 0 0 0-4.347-.621c-1.047.785-1.664 1.908-2.031 2.897-.366-.989-.984-2.112-2.031-2.897a3.108 3.108 0 0 0-4.347.621c-1 1.332-.773 3.024.567 4.301.172.172.36.322.556.457H2.5A2.503 2.503 0 0 0 0 8.5V24h24V8.5C24 7.121 22.878 6 21.5 6Zm-6.857-4.578a2.108 2.108 0 0 1 2.948.42c.696.929.522 2.045-.475 2.994-.907.907-2.452 1.121-3.358 1.164H12.5v-.41c.086-.628.523-2.953 2.143-4.168ZM6.9 4.827c-.988-.94-1.162-2.057-.466-2.985a2.106 2.106 0 0 1 2.948-.42c1.574 1.179 2.015 3.403 2.118 4.106V6h-1.282c-.9-.044-2.406-.261-3.318-1.173ZM2.5 7h8.95c-.504 2.95-5.398 3-5.45 3v1c1.782 0 4.816-.597 6-2.614C13.184 10.404 16.218 11 18 11v-1c-.052 0-4.946-.05-5.45-3h8.95c.827 0 1.5.673 1.5 1.5V18H1V8.5C1 7.673 1.673 7 2.5 7ZM1 23v-4h22v4H1Z"/></svg>