<svg xmlns="http://www.w3.org/2000/svg" width="512" height="512" data-name="Layer 1" viewBox="0 0 24 24"><path d="M24 24h-1V0h1v24ZM0 23c0 .55.45 1 1 1s1-.45 1-1-.45-1-1-1-1 .45-1 1Zm5 0c0 .55.45 1 1 1s1-.45 1-1-.45-1-1-1-1 .45-1 1ZM5 1c0 .55.45 1 1 1s1-.45 1-1-.45-1-1-1-1 .45-1 1Zm12 22c0 .55.45 1 1 1s1-.45 1-1-.45-1-1-1-1 .45-1 1Zm0-22c0 .55.45 1 1 1s1-.45 1-1-.45-1-1-1-1 .45-1 1ZM0 1c0 .55.45 1 1 1s1-.45 1-1-.45-1-1-1-1 .45-1 1Zm0 5c0 .55.45 1 1 1s1-.45 1-1-.45-1-1-1-1 .45-1 1Zm0 6c0 .55.45 1 1 1s1-.45 1-1-.45-1-1-1-1 .45-1 1Zm0 6c0 .55.45 1 1 1s1-.45 1-1-.45-1-1-1-1 .45-1 1Zm11 5c0 .55.45 1 1 1s1-.45 1-1-.45-1-1-1-1 .45-1 1Zm0-22c0 .55.45 1 1 1s1-.45 1-1-.45-1-1-1-1 .45-1 1Zm0 5c0 .55.45 1 1 1s1-.45 1-1-.45-1-1-1-1 .45-1 1Zm0 6c0 .55.45 1 1 1s1-.45 1-1-.45-1-1-1-1 .45-1 1Zm0 6c0 .55.45 1 1 1s1-.45 1-1-.45-1-1-1-1 .45-1 1Zm7-7c-.55 0-1 .45-1 1s.45 1 1 1 1-.45 1-1-.45-1-1-1ZM6 11c-.55 0-1 .45-1 1s.45 1 1 1 1-.45 1-1-.45-1-1-1Z"/></svg>