<svg xmlns="http://www.w3.org/2000/svg" width="512" height="512" data-name="Layer 1" viewBox="0 0 24 24"><path d="M8 8a1 1 0 1 1 0 2 1 1 0 0 1 0-2Zm9 2a1 1 0 1 0-2 0 1 1 0 0 0 2 0Zm-6.378-2.184.911-.412C11.488 7.306 10.425 5 8.305 5 6.696 5 5.903 6.125 5.869 6.172l.821.571C6.711 6.713 7.235 6 8.304 6c1.47 0 2.308 1.798 2.316 1.816ZM12 0C5.383 0 0 5.383 0 12c0 3.575 1.58 6.78 4.067 8.98a5.751 5.751 0 0 1-.039-1.423A10.952 10.952 0 0 1 1 12C1 5.935 5.935 1 12 1s11 4.935 11 11c0 4.653-2.909 8.631-7 10.236V23.3c4.653-1.653 8-6.087 8-11.3 0-6.617-5.383-12-12-12Zm2 16.249v5.542c0 .664-.445 1.257-1.083 1.441l-2.019.584a3.814 3.814 0 0 1-2.916-.325 3.812 3.812 0 0 1-1.831-2.292 3.804 3.804 0 0 1 .325-2.916l2.494-4.525.875.482-1.43 2.594 8.576-2.5.279.96-3.271.953Zm-1 .291-5.268 1.536-.38.69a2.813 2.813 0 0 0-.239 2.155c.21.727.69 1.329 1.354 1.694s1.426.45 2.155.24l2.019-.584a.502.502 0 0 0 .36-.48V16.54Z"/></svg>