<svg xmlns="http://www.w3.org/2000/svg" width="512" height="512" data-name="Layer 1" viewBox="0 0 24 24"><path d="m4.641 21.943-.281.96C2.155 22.257.695 20.799.021 18.567l.957-.289c.579 1.914 1.776 3.113 3.662 3.665Zm12.88-17.298.957-.289C17.805 2.125 16.345.666 14.141.02l-.281.96c1.886.552 3.083 1.751 3.662 3.665ZM14.5 24c-.026 0 .027 0 0 0ZM24 8.486v6.17a8.56 8.56 0 0 1-2.51 6.032l-.816.81C19.048 23.113 16.79 24 14.5 24c-2.319-.021-4.46-.949-6.077-2.612L.701 13.456c-.798-.799-.93-2.063-.302-2.936a2.245 2.245 0 0 1 1.377-.893l-.889-.889C.083 7.934-.049 6.669.58 5.797c.295-.409.76-.65 1.346-.698.121-.01.247-.01.374-.003-.4-.755-.375-1.68.119-2.365a2.244 2.244 0 0 1 1.64-.931 2.219 2.219 0 0 1 1.76.647l.349.35c.055-.306.174-.6.361-.86a2.235 2.235 0 0 1 3.4-.284L19 10.737V8.591c0-1.273.896-2.379 2.083-2.573a2.519 2.519 0 0 1 2.036.562c.56.476.881 1.17.881 1.905Zm-1 0a1.5 1.5 0 0 0-.529-1.143 1.483 1.483 0 0 0-1.227-.336C20.535 7.122 20 7.804 20 8.593v4.562L9.221 2.361a1.232 1.232 0 0 0-1.881.162c-.345.479-.258 1.188.203 1.649l-.002.002 5.953 5.962-.708.707-7.675-7.688a1.241 1.241 0 0 0-.972-.357 1.23 1.23 0 0 0-.909.519c-.345.479-.258 1.188.202 1.649l7.609 7.622-.707.707L3.351 6.31c-.677-.677-1.84-.095-1.96.071-.345.479-.258 1.188.202 1.649l6.997 7.009-.708.706-4.791-4.803a1.232 1.232 0 0 0-1.882.162c-.345.479-.258 1.188.203 1.649l7.728 7.938c1.429 1.471 3.31 2.291 5.36 2.309 2.024 0 4.031-.784 5.469-2.212l.816-.81A7.553 7.553 0 0 0 23 14.656v-6.17Z"/></svg>