<svg xmlns="http://www.w3.org/2000/svg" width="512" height="512" data-name="Layer 1" viewBox="0 0 24 24"><path d="M22.264 3.728c-.847-.854-2.269-.938-3.289-.211l-3.358 2.191A3.984 3.984 0 0 0 16 4.001c0-2.206-1.794-4-4-4s-4 1.794-4 4c0 .61.138 1.189.383 1.707L5.042 3.529c-1.034-.739-2.459-.655-3.306.199a2.513 2.513 0 0 0-.728 1.981 2.51 2.51 0 0 0 1.054 1.837L7 10.799v3.665l-2.268 2.268a2.489 2.489 0 0 0-.603 2.562l1.026 2.996a2.498 2.498 0 0 0 3.567 1.405c1.049-.568 1.537-1.906 1.133-3.119l-.492-1.406 2.17-2.17h.932l2.174 2.174-.47 1.409c-.402 1.205.086 2.544 1.137 3.113a2.496 2.496 0 0 0 3.565-1.406l1-3a2.49 2.49 0 0 0-.604-2.559l-2.268-2.268v-3.665l4.953-3.264a2.499 2.499 0 0 0 .31-3.807ZM12 1c1.654 0 3 1.346 3 3s-1.346 3-3 3-3-1.346-3-3 1.346-3 3-3ZM8.212 18.908l.698 1.991c.251.752-.034 1.576-.662 1.916-.809.44-1.858.013-2.145-.846l-1.026-2.996a1.492 1.492 0 0 1 .362-1.535l1.944-1.944 2.969 1.273-2.141 2.141ZM11.12 16 8 14.67V13h8v1.67L12.88 16h-1.76Zm7.44 1.438c.404.404.543.992.362 1.535l-1 3c-.283.853-1.334 1.279-2.141.843-.629-.341-.914-1.165-.663-1.917l.665-1.995-2.137-2.137 2.969-1.273 1.944 1.944Zm3.435-11.813c-.037.44-.265.84-.608 1.085L16 10.26V12H8v-1.74L2.629 6.721a1.497 1.497 0 0 1-.184-2.288c.507-.511 1.373-.55 2.033-.078l4.59 2.994A3.487 3.487 0 0 0 11.103 8h1.793c.734 0 1.438-.226 2.018-.64l4.624-3.018c.645-.461 1.51-.421 2.017.09.321.323.478.747.44 1.192Z"/></svg>