<svg xmlns="http://www.w3.org/2000/svg" width="512" height="512" data-name="Layer 1" viewBox="0 0 24 24"><path d="m23.954 23.246-1.368-1.368a2.504 2.504 0 0 0-.316-3.146 2.508 2.508 0 0 0-3.146-.316l-1.125-1.125a7.977 7.977 0 0 0 1.581-2.73l3.158.792.243-.971-3.142-.788a8.075 8.075 0 0 0 .051-2.915l3.091-.775-.243-.971-3.074.771a7.993 7.993 0 0 0-1.668-2.995l1.126-1.126c.395.262.869.415 1.378.415 1.378 0 2.5-1.121 2.5-2.5s-1.122-2.5-2.5-2.5-2.5 1.121-2.5 2.5c0 .509.153.982.415 1.378l-1.126 1.126a8.009 8.009 0 0 0-2.979-1.663l.769-3.064-.97-.244-.773 3.08a8.065 8.065 0 0 0-2.922.046L9.63 1.031l-.97.244.788 3.14A7.973 7.973 0 0 0 6.708 6L5.585 4.877a2.503 2.503 0 0 0-.318-3.146c-.823-.825-2.183-.93-3.143-.315L.753.047.046.754l23.2 23.199.707-.707Zm-2.391-3.807a1.5 1.5 0 0 1 .291 1.707l-1.998-1.998a1.5 1.5 0 0 1 1.707.291ZM20.5 2c.827 0 1.5.673 1.5 1.5S21.327 5 20.5 5 19 4.327 19 3.5 19.673 2 20.5 2ZM12 5c3.147 0 5.814 2.087 6.693 4.949l-.027.007.243.971.008-.002a6.973 6.973 0 0 1-1.626 5.658L7.417 6.71A6.976 6.976 0 0 1 12 5ZM4.561 2.439a1.499 1.499 0 0 1 .293 1.708L2.858 2.151c.556-.252 1.259-.156 1.703.288ZM9 14a1.001 1.001 0 1 1-1 1c0-.552.449-1 1-1Zm6-4a1.001 1.001 0 0 1 0-2 1.001 1.001 0 0 1 0 2Zm-.148 8.387a7.209 7.209 0 0 1-.793.299v-.006l-.838.211c-.401.072-.809.11-1.221.11-3.86 0-7-3.141-7-7 0-.991.215-1.962.612-2.852l-.744-.744a8.16 8.16 0 0 0-.523 1.304l-3.083-.773-.243.971 3.095.776A7.724 7.724 0 0 0 4 12.001a8 8 0 0 0 .16 1.596l-3.142.788.243.971 3.159-.792a7.997 7.997 0 0 0 1.583 2.727l-1.128 1.128a2.488 2.488 0 0 0-1.375-.414c-1.378 0-2.5 1.121-2.5 2.498s1.122 2.498 2.5 2.498S6 21.88 6 20.503a2.48 2.48 0 0 0-.417-1.378l1.127-1.127a7.996 7.996 0 0 0 2.743 1.588l-.794 3.166.97.244.791-3.152a7.987 7.987 0 0 0 1.58.157c.448 0 .892-.04 1.328-.116l.781 3.111.97-.244-.777-3.099a8.149 8.149 0 0 0 1.295-.521l-.745-.745ZM3.5 22c-.827 0-1.5-.672-1.5-1.498a1.5 1.5 0 0 1 3 0A1.5 1.5 0 0 1 3.5 22Z"/></svg>