<svg xmlns="http://www.w3.org/2000/svg" width="512" height="512" data-name="Layer 1" viewBox="0 0 24 24"><path d="M19 11h-3.5a2.503 2.503 0 0 0-2.5 2.5V16h4.5c1.379 0 2.5-1.122 2.5-2.5V9h-1v2Zm0 2.5c0 .827-.673 1.5-1.5 1.5H14v-1.5c0-.827.673-1.5 1.5-1.5H19v1.5ZM8.5 11H5V9H4v4.5C4 14.878 5.121 16 6.5 16H11v-2.5c0-1.378-1.121-2.5-2.5-2.5Zm1.5 4H6.5c-.827 0-1.5-.673-1.5-1.5V12h3.5c.827 0 1.5.673 1.5 1.5V15ZM20.407 3.436A11.903 11.903 0 0 0 11.775 0C5.282.119 0 5.672 0 12.379V24h8.115l1.365-2.504a2.871 2.871 0 0 1 5.039-.001L15.885 24H24V11.998c0-3.247-1.276-6.288-3.593-8.562ZM23 23h-6.521l-1.082-1.984a3.867 3.867 0 0 0-6.793.001L7.523 23H1V12.379C1 6.213 5.842 1.109 11.793 1a10.92 10.92 0 0 1 7.913 3.149A10.918 10.918 0 0 1 23 11.998V23Z"/></svg>