<svg xmlns="http://www.w3.org/2000/svg" width="512" height="512" data-name="Layer 1" viewBox="0 0 24 24"><path d="M24 19.232c0-1.207-.206-2.395-.612-3.531l-1.443-4.042A2.503 2.503 0 0 0 19.591 10h-6.182a2.506 2.506 0 0 0-2.354 1.659L9.612 15.7A10.474 10.474 0 0 0 9 19.232V22h2v2h3v-2h5v2h3v-2h2v-2.768Zm-12.003-7.237c.213-.595.78-.995 1.412-.995h6.182c.632 0 1.199.4 1.412.995L22.433 16H10.567l1.43-4.005ZM13 23h-1v-1h1v1Zm8 0h-1v-1h1v1Zm2-2H10v-1.768c0-.755.089-1.502.266-2.232H13v1.5a.5.5 0 0 0 1 0V17h5v1.5a.5.5 0 0 0 1 0V17h2.734c.177.729.266 1.477.266 2.232V21ZM13.5 1h-11C1.673 1 1 1.673 1 2.5V24H0V2.5C0 1.122 1.121 0 2.5 0h11C14.879 0 16 1.122 16 2.5V8h-1V2.5c0-.827-.673-1.5-1.5-1.5ZM4 7h3V4H4v3Zm1-2h1v1H5V5Zm-1 7h3V9H4v3Zm1-2h1v1H5v-1Zm-1 7h3v-3H4v3Zm1-2h1v1H5v-1Zm-1 7h3v-3H4v3Zm1-2h1v1H5v-1Zm7-13V4H9v3h3Zm-2-2h1v1h-1V5Z"/></svg>