<svg xmlns="http://www.w3.org/2000/svg" data-name="Layer 1" viewBox="0 0 24 24"><path d="m16.532 15.825 3.127-4.675c.42-.634.457-1.411.097-2.081S18.729 8 17.968 8h-4.832l1.955-8h-2.477L7.949 7.242.704-.004l-.707.707 23.3 23.301.707-.707-7.471-7.472ZM13.159 1h.659l-1.955 8h6.105c.386 0 .725.203.907.542.182.34.164.734-.048 1.054l-3.016 4.508-7.139-7.139L13.159 1Zm.951 16.646.721.721L11.062 24H8.578l2.115-8H6.054a2.053 2.053 0 0 1-1.81-1.085 1.985 1.985 0 0 1 .092-2.065l1.95-3.028.723.723-1.837 2.851c-.212.32-.229.709-.048 1.046.188.349.535.558.929.558h5.41l.417.417L9.875 23h.651l3.582-5.354Z"/></svg>