<svg xmlns="http://www.w3.org/2000/svg" width="512" height="512" data-name="Layer 1" viewBox="0 0 24 24"><path d="m12 23.987-7.067-6.912C1.031 13.172 1.031 6.828 4.929 2.929 6.817 1.04 9.329 0 12 0s5.182 1.04 7.07 2.929c3.898 3.899 3.898 10.243 0 14.142L12 23.987ZM12 1a8.94 8.94 0 0 0-6.364 2.636c-3.509 3.509-3.509 9.219 0 12.728L12 22.589l6.367-6.229c3.505-3.505 3.505-9.215-.004-12.724A8.937 8.937 0 0 0 12 1Zm-.442 11.563 5.793-5.707-.701-.712-5.796 5.709a.503.503 0 0 1-.713-.005L7.348 9.141l-.695.718 2.787 2.702a1.498 1.498 0 0 0 2.119.002Z"/></svg>