<svg xmlns="http://www.w3.org/2000/svg" width="512" height="512" data-name="Layer 1" viewBox="0 0 24 24"><path d="M15 7.5C15 3.364 11.636 0 7.5 0H0v24h1v-9h6.5c.463 0 .917-.043 1.357-.123L13.769 24H15l-5.065-9.406C12.879 13.581 15 10.784 15 7.5ZM7.5 14H1V1h6.5C11.084 1 14 3.916 14 7.5S11.084 14 7.5 14ZM23 17v-.5c0-.827-.673-1.5-1.5-1.5h-3c-.827 0-1.5.673-1.5 1.5 0 .875.628 1.612 1.492 1.752l3.174.509A2.764 2.764 0 0 1 24 21.5c0 1.379-1.121 2.5-2.5 2.5h-3a2.502 2.502 0 0 1-2.5-2.5V21h1v.5c0 .827.673 1.5 1.5 1.5h3c.827 0 1.5-.673 1.5-1.5 0-.875-.628-1.612-1.492-1.752l-3.174-.509A2.764 2.764 0 0 1 16 16.5c0-1.379 1.121-2.5 2.5-2.5h3c1.379 0 2.5 1.121 2.5 2.5v.5h-1Z"/></svg>