<svg xmlns="http://www.w3.org/2000/svg" width="512" height="512" data-name="Layer 1" viewBox="0 0 24 24"><path d="M12.509 11.494a1.607 1.607 0 0 0-1.69-.376L.091 15.017l4.092 4.092-3.036 3.036.707.707 3.036-3.036 4.091 4.092 3.901-10.726a1.594 1.594 0 0 0-.374-1.689Zm-.565 1.347-3.364 9.25-6.671-6.67 9.252-3.364a.598.598 0 0 1 .641.144.59.59 0 0 1 .142.64ZM24 10c0 5.514-4.486 10-10 10-.358 0-.711-.021-1.06-.058l.353-.97A9 9 0 0 0 23 10c0-4.971-4.029-9-9-9a9 9 0 0 0-8.972 9.707l-.97.353A10.027 10.027 0 0 1 4 10C4 4.486 8.486 0 14 0s10 4.486 10 10Zm-5 0a5 5 0 0 0-9.943-.758l-1.038.377C8.217 6.488 10.82 4 14 4c3.309 0 6 2.691 6 6 0 3.18-2.488 5.783-5.619 5.981l.377-1.038A5 5 0 0 0 19 10Z"/></svg>