<svg xmlns="http://www.w3.org/2000/svg" width="512" height="512" data-name="Layer 1" viewBox="0 0 24 24"><path d="M11 7.173V5h3V4h-3V2.5C11 1.122 9.878 0 8.5 0h-2A2.503 2.503 0 0 0 4 2.5v4.673C1.629 8.285 0 10.838 0 13.5V24h15V13.5c0-2.662-1.629-5.215-4-6.327ZM5 2.5C5 1.673 5.673 1 6.5 1h2c.827 0 1.5.673 1.5 1.5V7H5V2.5ZM14 23H1v-9.5C1 11.189 2.508 8.892 4.6 8h5.801c2.091.892 3.6 3.189 3.6 5.5V23ZM3 19h9v-5H3v5Zm1-4h7v3H4v-3ZM18 5a1 1 0 1 1-2 0 1 1 0 0 1 2 0Zm6 0a1 1 0 1 1-2 0 1 1 0 0 1 2 0Zm-2-4a1 1 0 1 1 2 0 1 1 0 0 1-2 0Zm2 8a1 1 0 1 1-2 0 1 1 0 0 1 2 0Zm-3-6a1 1 0 1 1-2 0 1 1 0 0 1 2 0Zm0 4a1 1 0 1 1-2 0 1 1 0 0 1 2 0Z"/></svg>