<svg xmlns="http://www.w3.org/2000/svg" width="512" height="512" data-name="Layer 1" viewBox="0 0 24 24"><path d="M19 12a1 1 0 1 1-2 0 1 1 0 0 1 2 0ZM10 1c1.654 0 3 1.346 3 3h1c0-2.206-1.794-4-4-4S6 1.794 6 4h1c0-1.654 1.346-3 3-3Zm14 10v6h-1.713A7.74 7.74 0 0 1 18 20.997V24h-5v-2h-3v2H5v-3.003a7.73 7.73 0 0 1-5-7.247c0-1.582.477-3.055 1.294-4.282A3 3 0 0 1 3 4v1a2 2 0 0 0-1.099 3.671A7.733 7.733 0 0 1 7.75 6h7.5c.116 0 .231.003.347.008C16.086 3.644 18.318 3 19.5 3h.5v4.626A7.844 7.844 0 0 1 22.497 11H24Zm-1 1h-1.219l-.113-.345a6.818 6.818 0 0 0-2.461-3.375L19 8.131v-4.08c-.803.139-2.299.649-2.481 2.538l-.048.504-.503-.055A6.806 6.806 0 0 0 15.25 7h-7.5A6.758 6.758 0 0 0 1 13.75a6.733 6.733 0 0 0 4.655 6.418L6 20.28V23h3v-2h5v2h3v-2.72l.345-.112a6.741 6.741 0 0 0 4.152-3.857l.127-.311H23v-4Z"/></svg>