<svg xmlns="http://www.w3.org/2000/svg" width="512" height="512" data-name="Layer 1" viewBox="0 0 24 24"><path d="m17.528 13.837 5.679 5.679-2.879 2.879C19.296 23.43 17.896 24 16.387 24c-2.72 0-6.027-1.447-9.022-3.848l.71-.71c2.794 2.221 5.835 3.557 8.313 3.557 1.242 0 2.39-.466 3.233-1.312l2.173-2.172-4.265-4.265-3.13 3.131-.303-.116a14.813 14.813 0 0 1-3.167-1.677l.711-.711a13.79 13.79 0 0 0 2.512 1.336l3.376-3.377ZM23.943.764.764 23.943l-.707-.707 5.087-5.087C1.916 14.815 0 10.905 0 7.613c0-1.509.57-2.908 1.605-3.941L4.484.793l5.679 5.679L6.79 9.845c.667 1.571 1.531 2.941 2.574 4.084L23.236.057l.707.707ZM5.851 17.442l2.806-2.806c-1.204-1.311-2.186-2.896-2.919-4.723l-.123-.307L8.75 6.471 4.484 2.207 2.312 4.379C1.466 5.223 1 6.372 1 7.613c0 3.034 1.805 6.68 4.85 9.829Z"/></svg>