<svg xmlns="http://www.w3.org/2000/svg" width="512" height="512" data-name="Layer 1" viewBox="0 0 24 24"><path d="M21 18v6h-1v-6c0-1.654-1.346-3-3-3H7c-1.654 0-3 1.346-3 3v6H3v-6c0-2.206 1.794-4 4-4h10c2.206 0 4 1.794 4 4Zm-5.042 0a6.042 6.042 0 0 0-1.471 2.386A11.119 11.119 0 0 0 14.001 23c0 .024 1.5-1.5 2.286-1.5.593 0 1.367.587 1.714 1-.1-.863-.257-1.515-.586-2.294A6.774 6.774 0 0 0 15.958 18ZM4 7.5v-2C4 4.673 4.673 4 5.5 4h.518C7.024 1.599 9.374 0 12 0s4.977 1.599 5.983 4h.517c.827 0 1.5.673 1.5 1.5v2c0 .827-.673 1.5-1.5 1.5h-.517c-1.006 2.401-3.356 4-5.983 4s-4.976-1.599-5.982-4H5.5C4.673 9 4 8.327 4 7.5ZM16.891 9H7.11c.93 1.817 2.809 3 4.89 3s3.96-1.183 4.891-3ZM7.11 4h9.781C15.96 2.183 14.081 1 12 1S8.041 2.183 7.11 4ZM5 7.5c0 .275.225.5.5.5h13c.275 0 .5-.225.5-.5v-2c0-.275-.225-.5-.5-.5h-13c-.275 0-.5.225-.5.5v2Z"/></svg>