<svg xmlns="http://www.w3.org/2000/svg" width="512" height="512" data-name="Layer 1" viewBox="0 0 24 24"><path d="m15.363 12 1.312 2.288-.867.497-1.308-2.28-1.308 2.28-.867-.497L13.637 12H11v-1h2.637l-1.312-2.288.867-.497 1.308 2.28 1.308-2.28.867.497L15.363 11H18v1h-2.637Zm-1.688 4.712-.867-.497-1.308 2.28-1.308-2.28-.867.497L10.637 19H8v1h2.637l-1.312 2.288.867.497 1.308-2.28 1.308 2.28.867-.497L12.363 20H15v-1h-2.637l1.312-2.288Zm3.328-11.689A7.729 7.729 0 0 0 9.75 0C5.477 0 2 3.477 2 7.75c0 .763.116 1.523.345 2.266A5.439 5.439 0 0 0 0 14.5C0 17.533 2.468 20 5.5 20H6v-1h-.5A4.505 4.505 0 0 1 1 14.5c0-1.583.822-3.021 2.199-3.847l.354-.212-.142-.388a6.736 6.736 0 0 1-.412-2.304 6.758 6.758 0 0 1 6.75-6.75 6.733 6.733 0 0 1 6.417 4.662l.11.338.355.007c3.511.071 6.367 2.983 6.367 6.493 0 3.453-2.804 6.482-6 6.482v1c3.729 0 7-3.497 7-7.482 0-3.933-3.107-7.216-6.997-7.477Z"/></svg>