<svg xmlns="http://www.w3.org/2000/svg" width="512" height="512" data-name="Layer 1" viewBox="0 0 24 24"><path d="M24 23v1H0v-1h24Zm-2-3H2v-1h3.552L7.14 4.601a2.51 2.51 0 0 1 .717-1.494L10.232.732c.943-.944 2.592-.944 3.535 0l2.375 2.375c.401.401.655.932.717 1.494L18.447 19h3.552v1ZM16.008 6H12.5v13h4.942L16.008 6ZM8.134 4.71 8.102 5h7.795l-.032-.29a1.501 1.501 0 0 0-.431-.896l-2.375-2.375c-.566-.566-1.555-.566-2.121 0L8.563 3.814c-.24.241-.393.559-.43.896ZM6.558 19H11.5V6H7.992L6.558 19Z"/></svg>