<svg xmlns="http://www.w3.org/2000/svg" width="512" height="512" data-name="Layer 1" viewBox="0 0 24 24"><path d="M16 5.159V2h-2.588a1.5 1.5 0 1 0-2.828 0H8.001v3.159c-3.764 1.544-6 4.824-6 8.841 0 5.514 4.486 10 10 10s10-4.486 10-10c0-4.016-2.236-7.297-6-8.841ZM9 3h6v2.029l-6-.027V3ZM3 14c0-3.723 2.037-6.634 5.592-8h6.816C18.963 7.366 21 10.277 21 14c0 .275-.013.546-.037.815l-4.022-4.022-4.982 4.982-4.745-4.745-4.138 4.138A9.01 9.01 0 0 1 3 14Zm9 9c-4.151 0-7.654-2.825-8.689-6.653l3.903-3.903 4.745 4.745 4.982-4.982 3.827 3.827C19.844 20.02 16.264 23 12 23Z"/></svg>