<svg xmlns="http://www.w3.org/2000/svg" width="512" height="512" data-name="Layer 1" viewBox="0 0 24 24"><path d="M20.691 19.984a2.577 2.577 0 0 0 1.782-1.018 2.589 2.589 0 0 0 .441-2.245L20.9 6.806C19.794 2.799 16.134 0 12 0 8.999 0 6.248 1.415 4.524 3.817L.704-.003l-.707.707 23.3 23.3.707-.707-3.312-3.312ZM12 1c3.686 0 6.95 2.498 7.929 6.04l2.013 9.914a1.614 1.614 0 0 1-1.541 2.047h-.693L5.241 4.534A8.156 8.156 0 0 1 12 1Zm3.464 18H3.603c-.488 0-.942-.22-1.247-.602a1.624 1.624 0 0 1-.313-1.369L3.96 7.494l-.817-.817c-.058.202-.116.404-.162.611l-1.917 9.535a2.62 2.62 0 0 0 .51 2.198A2.584 2.584 0 0 0 3.603 20h4.068c.191 2.234 2.049 4 4.331 4s4.14-1.766 4.331-4l-.005-.136-.864-.864Zm-3.462 4c-1.731 0-3.145-1.318-3.331-3h6.662c-.186 1.682-1.6 3-3.331 3Z"/></svg>