<svg xmlns="http://www.w3.org/2000/svg" width="512" height="512" data-name="Layer 1" viewBox="0 0 24 24"><path d="M21.5 0h-19A2.503 2.503 0 0 0 0 2.5V24h24V2.5C24 1.122 22.879 0 21.5 0ZM23 23H1V2.5C1 1.673 1.673 1 2.5 1h19c.827 0 1.5.673 1.5 1.5V23ZM16 9.5v.5h-1v-.5c0-.827-.673-1.5-1.5-1.5h-3C9.673 8 9 8.673 9 9.5c0 .876.628 1.612 1.492 1.751l3.174.51A2.762 2.762 0 0 1 16 14.5c0 1.379-1.121 2.5-2.5 2.5h-1v2h-1v-2h-1A2.502 2.502 0 0 1 8 14.5V14h1v.5c0 .827.673 1.5 1.5 1.5h3c.827 0 1.5-.673 1.5-1.5 0-.876-.628-1.612-1.492-1.751l-3.174-.51A2.762 2.762 0 0 1 8 9.5C8 8.122 9.121 7 10.5 7h1V5h1v2h1C14.879 7 16 8.122 16 9.5Z"/></svg>