<svg xmlns="http://www.w3.org/2000/svg" width="512" height="512" data-name="Layer 1" viewBox="0 0 24 24"><path d="M9 14h2v1H9v-1Zm4 1h2v-1h-2v1Zm-4 4h2v-1H9v1Zm4 0h2v-1h-2v1ZM9 7h2V6H9v1Zm4 0h2V6h-2v1Zm-4 4h2v-1H9v1Zm4 0h2v-1h-2v1Zm11-3.5V24H0V11.5C0 10.121 1.122 9 2.5 9H5V2.5C5 1.121 6.122 0 7.5 0h9C17.878 0 19 1.121 19 2.5V5h2.5C22.878 5 24 6.121 24 7.5Zm-1 0c0-.827-.673-1.5-1.5-1.5H18V2.5c0-.827-.673-1.5-1.5-1.5h-9C6.673 1 6 1.673 6 2.5V10H2.5c-.827 0-1.5.673-1.5 1.5V23h22V7.5ZM18 15h2v-1h-2v1Zm0 4h2v-1h-2v1ZM4 15h2v-1H4v1Zm0 4h2v-1H4v1Zm14-8h2v-1h-2v1Z"/></svg>