<svg xmlns="http://www.w3.org/2000/svg" width="512" height="512" data-name="Layer 1" viewBox="0 0 24 24"><path d="M15.937 6.278a4.025 4.025 0 0 1-2.009 4.227c-.761.42-1.428 1.647-1.428 2.628V14h-1v-.867c0-1.341.873-2.912 1.945-3.503 1.144-.631 1.734-1.878 1.507-3.179a3.01 3.01 0 0 0-2.404-2.403A3.004 3.004 0 0 0 9 7H8a4.003 4.003 0 0 1 4.721-3.936c1.611.282 2.934 1.604 3.216 3.215ZM12 16a1 1 0 1 0 0 2 1 1 0 0 0 0-2ZM24 2.5V20h-7.032l-3.985 3.295a1.467 1.467 0 0 1-.978.368c-.356 0-.716-.126-1.001-.38L7.106 20H0V2.5C0 1.121 1.121 0 2.5 0h19C22.879 0 24 1.121 24 2.5Zm-1 0c0-.827-.673-1.5-1.5-1.5h-19C1.673 1 1 1.673 1 2.5V19h6.471l4.188 3.526a.502.502 0 0 0 .674.009L16.609 19h6.392V2.5Z"/></svg>