<svg xmlns="http://www.w3.org/2000/svg" data-name="Layer 1" viewBox="0 0 24 24"><path d="M22 10c0-5.514-4.486-10-10-10S2 4.486 2 10c0 3.994 2.353 7.447 5.746 9.049a6.895 6.895 0 0 0-2.655 4.368L4.993 24h13.849l-.098-.583a6.904 6.904 0 0 0-2.593-4.32c3.448-1.579 5.85-5.063 5.85-9.097Zm-4.372 13H6.205a5.914 5.914 0 0 1 2.661-3.504A9.97 9.97 0 0 0 12 20a9.961 9.961 0 0 0 3.026-.468A5.918 5.918 0 0 1 17.628 23ZM12 19c-4.962 0-9-4.038-9-9s4.038-9 9-9 9 4.038 9 9-4.038 9-9 9Zm0-14c-2.757 0-5 2.243-5 5s2.243 5 5 5 5-2.243 5-5-2.243-5-5-5Zm0 9c-2.206 0-4-1.794-4-4s1.794-4 4-4 4 1.794 4 4-1.794 4-4 4Z"/></svg>