<svg xmlns="http://www.w3.org/2000/svg" width="512" height="512" data-name="Layer 1" viewBox="0 0 24 24"><path d="M17.073 20.608a9.972 9.972 0 0 1-4.573 1.379V24h-1v-2.013c-5.117-.253-9.234-4.371-9.487-9.487H0v-1h2.013a9.96 9.96 0 0 1 1.379-4.573l.732.732A8.962 8.962 0 0 0 3 11.999c0 4.963 4.038 9 9 9a8.963 8.963 0 0 0 4.341-1.124l.732.732Zm-9.887-9.886C7.076 11.137 7 11.563 7 12c0 2.757 2.243 5 5 5 .437 0 .863-.076 1.278-.186l-.853-.853c-.142.015-.282.039-.426.039-2.206 0-4-1.794-4-4 0-.144.024-.284.039-.426l-.853-.853ZM21.987 12.5a10.05 10.05 0 0 1-2.572 6.208l4.539 4.538-.707.707L.046.754.753.047l4.539 4.538A10.051 10.051 0 0 1 11.5 2.012V0h1v2.013c5.117.253 9.234 4.371 9.487 9.487H24v1h-2.013Zm-6.828 1.952c.54-.696.841-1.559.841-2.452 0-2.206-1.794-4-4-4-.893 0-1.756.301-2.452.841l5.612 5.612ZM21 12c0-4.963-4.038-9-9-9a8.903 8.903 0 0 0-6.001 2.292l2.837 2.837A5.004 5.004 0 0 1 12 7c2.757 0 5 2.243 5 5a5.01 5.01 0 0 1-1.129 3.164l2.837 2.837A8.903 8.903 0 0 0 21 12Z"/></svg>