<svg xmlns="http://www.w3.org/2000/svg" width="512" height="512" data-name="Layer 1" viewBox="0 0 24 24"><path d="M12 1C5.383 1 0 6.383 0 13c0 3.911 1.949 7.616 5.212 9.909l.129.091h13.316l.129-.091c3.264-2.293 5.212-5.998 5.212-9.909 0-6.617-5.383-12-12-12Zm6.34 21H5.66C2.782 19.915 1 16.481 1 13 1 6.935 5.935 2 12 2s11 4.935 11 11c0 3.481-1.782 6.915-4.66 9ZM12 11a2.002 2.002 0 0 0-1.966 2.366l-5.746 2.681.423.906 5.746-2.681c.367.444.922.728 1.542.728 1.103 0 2-.897 2-2s-.897-2-2-2Zm0 3a1.001 1.001 0 0 1 0-2 1.001 1.001 0 0 1 0 2Zm5.657 4.657-.707-.707c2.729-2.729 2.729-7.171 0-9.9s-7.17-2.73-9.899 0A6.956 6.956 0 0 0 5.001 13c0 .167.014.331.025.496l-.965.45a7.948 7.948 0 0 1 2.283-6.603c3.119-3.119 8.194-3.119 11.313 0s3.119 8.195 0 11.314Z"/></svg>