<svg xmlns="http://www.w3.org/2000/svg" width="512" height="512" data-name="Layer 1" viewBox="0 0 24 24"><path d="M24 10.5C24 9.122 22.878 8 21.5 8H20V4h-1v4h-3.723l-4.266-6.825A2.486 2.486 0 0 0 8.891 0H4v8H2.5A2.503 2.503 0 0 0 0 10.5v2.221c.306-.348.639-.67 1-.96v-1.26c0-.827.673-1.5 1.5-1.5h19c.827 0 1.5.673 1.5 1.5v2.333l-2.847 3.797a3.974 3.974 0 0 0-2.153-.63c-2.206 0-4 1.794-4 4s1.794 4 4 4 4-1.794 4-4c0-1.054-.41-2.014-1.078-2.729L24 13.168v-2.667ZM5 1h3.892c.521 0 .996.264 1.272.705L14.098 8H5V1Zm13 22c-1.654 0-3-1.346-3-3s1.346-3 3-3 3 1.346 3 3-1.346 3-3 3Zm-8.486-7.807 1.082-1.082-.707-.707-1.082 1.082a4.479 4.479 0 0 0-2.307-.958V12h-1v1.528c-.867.096-1.66.44-2.307.958l-1.082-1.082-.707.707 1.082 1.082a4.479 4.479 0 0 0-.958 2.307H0v1h1.528c.096.867.44 1.66.958 2.307l-1.082 1.082.707.707 1.082-1.082a4.479 4.479 0 0 0 2.307.958V24h1v-1.528a4.475 4.475 0 0 0 2.307-.958l1.082 1.082.707-.707-1.082-1.082a4.479 4.479 0 0 0 .958-2.307H12v-1h-1.528a4.475 4.475 0 0 0-.958-2.307ZM6 21.5c-1.93 0-3.5-1.57-3.5-3.5s1.57-3.5 3.5-3.5 3.5 1.57 3.5 3.5-1.57 3.5-3.5 3.5Z"/></svg>