<svg xmlns="http://www.w3.org/2000/svg" width="512" height="512" data-name="Layer 1" viewBox="0 0 24 24"><path d="m14.955 19 .5 1H8.5a5.485 5.485 0 0 1-5.344-4.201L1.017 7h1.029l2.081 8.562A4.49 4.49 0 0 0 8.5 19h6.455Zm5.354 4-3.5-7H8.494a1.496 1.496 0 0 1-1.459-1.151L6.354 12H14v-1H6.115l-.956-4H4.131l1.931 8.081A2.492 2.492 0 0 0 8.494 17h7.697l3.5 7H23v-1h-2.691ZM2.017 2.5c0-1.379 1.122-2.5 2.5-2.5s2.5 1.121 2.5 2.5S5.895 5 4.517 5s-2.5-1.121-2.5-2.5Zm1 0c0 .827.673 1.5 1.5 1.5s1.5-.673 1.5-1.5S5.344 1 4.517 1s-1.5.673-1.5 1.5Z"/></svg>