<svg xmlns="http://www.w3.org/2000/svg" width="512" height="512" data-name="Layer 1" viewBox="0 0 24 24"><path d="M6 17h1v7H6v-7Zm4 5h1v-7h-1v7Zm7.003-16.978A7.73 7.73 0 0 0 9.75 0C5.477 0 2 3.477 2 7.75c0 .763.116 1.523.345 2.267A5.437 5.437 0 0 0 0 14.5c0 2.512 1.695 4.631 4 5.287v-1.063c-1.742-.621-3-2.271-3-4.224 0-1.582.822-3.021 2.2-3.847l.354-.212-.141-.388a6.736 6.736 0 0 1-.412-2.304 6.758 6.758 0 0 1 6.75-6.75 6.732 6.732 0 0 1 6.417 4.661l.11.339.355.007C20.144 6.077 23 8.99 23 12.499c0 1.826-.788 3.528-2 4.732v1.315c1.787-1.386 3-3.623 3-6.047 0-3.933-3.107-7.216-6.997-7.478ZM14 24h1v-7h-1v7Zm4-2h1v-7h-1v7Z"/></svg>