<svg xmlns="http://www.w3.org/2000/svg" width="512" height="512" data-name="Layer 1" viewBox="0 0 24 24"><path d="M11 5v1C9.346 6 8 7.346 8 9H7c0-2.206 1.794-4 4-4Zm2 2v1c1.654 0 3 1.346 3 3h1c0-2.206-1.794-4-4-4Zm8.441 5.871L19.418 24H4.583L2.559 12.871A3.507 3.507 0 0 1 0 9.5a3.483 3.483 0 0 1 2.522-3.353c.184-1.674 1.5-2.975 3.144-3.131C6.151 1.619 7.6.67 9.191 1.094a2.992 2.992 0 0 1 5.135.911 2.972 2.972 0 0 1 2.555 1.187A3.377 3.377 0 0 1 18.001 3a3.503 3.503 0 0 1 3.482 3.148A3.484 3.484 0 0 1 24.001 9.5a3.506 3.506 0 0 1-2.559 3.371ZM8.905 23l-.404-7.473A2.51 2.51 0 0 0 6.001 13H3.599l1.818 10h3.487Zm5.003 0 .592-7.516C14.492 14.113 13.374 13 12 13s-2.5 1.122-2.5 2.5l.406 7.5h4.002Zm6.493-10H18a2.503 2.503 0 0 0-2.5 2.5l-.589 7.5h3.671L20.4 13ZM23 9.5c0-1.22-.876-2.253-2.083-2.457l-.417-.07V6.55C20.5 5.121 19.378 4 18 4c-.368 0-.736.088-1.092.263l-.43.21-.229-.421A1.997 1.997 0 0 0 14.5 2.999c-.137 0-.279.017-.436.052l-.51.113-.091-.514A1.994 1.994 0 0 0 11.499.999c-.69 0-1.322.354-1.692.947l-.219.352-.386-.15A1.916 1.916 0 0 0 8.5 2c-.949 0-1.773.674-1.96 1.604l-.081.401-.51-.008C4.621 4 3.5 5.122 3.5 6.5v.423l-.417.121A2.488 2.488 0 0 0 1 9.501c0 1.378 1.122 2.5 2.5 2.5H6c1.272 0 2.387.682 3 1.699a3.5 3.5 0 0 1 5.997-.005A3.516 3.516 0 0 1 18 12.001h2.5c1.378 0 2.5-1.122 2.5-2.5Z"/></svg>