<svg xmlns="http://www.w3.org/2000/svg" width="512" height="512" data-name="Layer 1" viewBox="0 0 24 24"><path d="M17 14.5a2.5 2.5 0 0 1-2.5 2.5h-5A2.5 2.5 0 0 1 7 14.5V13H0v8.5A2.5 2.5 0 0 0 2.5 24h19a2.5 2.5 0 0 0 2.5-2.5V13h-7v1.5Zm1-.5h5v7.5c0 .83-.67 1.5-1.5 1.5h-19c-.83 0-1.5-.67-1.5-1.5V14h5v.5C6 16.43 7.57 18 9.5 18h5c1.93 0 3.5-1.57 3.5-3.5V14ZM17 0v1.5A2.5 2.5 0 0 1 14.5 4h-5A2.5 2.5 0 0 1 7 1.5V0H0v8.5A2.5 2.5 0 0 0 2.5 11h19A2.5 2.5 0 0 0 24 8.5V0h-7Zm6 8.5c0 .83-.67 1.5-1.5 1.5h-19C1.67 10 1 9.33 1 8.5V1h5v.5C6 3.43 7.57 5 9.5 5h5C16.43 5 18 3.43 18 1.5V1h5v7.5Z"/></svg>