<svg xmlns="http://www.w3.org/2000/svg" width="512" height="512" data-name="Layer 1" viewBox="0 0 24 24"><path d="M17.5 11c-3.584 0-6.5 2.916-6.5 6.5s2.916 6.5 6.5 6.5 6.5-2.916 6.5-6.5-2.916-6.5-6.5-6.5Zm0 12c-3.032 0-5.5-2.467-5.5-5.5s2.468-5.5 5.5-5.5 5.5 2.467 5.5 5.5-2.468 5.5-5.5 5.5Zm.5-5.707 1.854 1.854-.707.707-2.146-2.146v-3.207h1v2.793ZM21.5 2H18V0h-1v2H7V0H6v2H2.5A2.503 2.503 0 0 0 0 4.5V24h12.028a8.611 8.611 0 0 1-1.003-1H1V9h22v2.026c.36.306.695.641 1 1.003V4.5C24 3.122 22.879 2 21.5 2ZM1 8V4.5C1 3.673 1.673 3 2.5 3h19c.827 0 1.5.673 1.5 1.5V8H1Z"/></svg>