<svg xmlns="http://www.w3.org/2000/svg" width="512" height="512" data-name="Layer 1" viewBox="0 0 24 24"><path d="M18.25 10.07V3.49L12.74.35a1.52 1.52 0 0 0-1.49 0l-5.5 3.14v6.57L0 13.35v7.15l5.51 3.15c.23.13.49.2.74.2s.51-.07.74-.2L12 20.79l5.01 2.86c.23.13.49.2.74.2s.51-.07.74-.2L24 20.5v-7.15l-5.75-3.29Zm-.5 6.28-4.74-2.71 4.74-2.71 4.74 2.71-4.74 2.71Zm-11.5 0-4.74-2.71 4.74-2.71 4.74 2.71-4.74 2.71Zm.5-11.71 4.75 2.71v5.42l-4.75-2.71V4.65Zm5.75 8.13V7.36l4.75-2.71v5.42l-4.75 2.71Zm-.75-11.56c.15-.09.34-.09.5 0l4.49 2.57L12 6.49 7.26 3.78l4.49-2.56ZM1 19.92V14.5l4.75 2.71v5.42L1 19.92Zm5.75 2.71v-5.42l4.75-2.71v5.42l-4.75 2.71Zm5.75-2.71V14.5l4.75 2.71v5.42l-4.75-2.71Zm5.75 2.71v-5.42L23 14.5v5.42l-4.75 2.71Z"/></svg>