<svg xmlns="http://www.w3.org/2000/svg" width="512" height="512" data-name="Layer 1" viewBox="0 0 24 24"><path d="M22 9.75A3.755 3.755 0 0 0 18.25 6c-1.293 0-2.45.65-3.128 1.676a3.756 3.756 0 0 0-2.612-1.641C12.733 1.141 16.461 1 16.499 1c.692 0 1.5.322 1.5 1.23 0 .251-.244.77-1 .77v1c1.252 0 2-.899 2-1.77 0-1.313-1.028-2.23-2.5-2.23-.989 0-3.375.694-4.454 3.374C11.533 1.849 10.59.736 9.222.053l-.447.895c1.73.865 2.62 2.532 2.715 5.087a3.756 3.756 0 0 0-2.614 1.641A3.736 3.736 0 0 0 5.748 6a3.755 3.755 0 0 0-3.75 3.75 3.755 3.755 0 0 0 3.44 3.737 3.733 3.733 0 0 0-.44 1.763 3.756 3.756 0 0 0 3.142 3.7c-.094.34-.142.691-.142 1.05 0 2.206 1.794 4 4 4s4-1.794 4-4c0-.359-.048-.71-.142-1.05a3.756 3.756 0 0 0 2.704-5.463 3.756 3.756 0 0 0 3.438-3.737ZM12 7c1.209 0 2.237.784 2.605 1.869l-.004.015.01.002a2.737 2.737 0 0 1 0 1.726l-.01.002.004.015c-.368 1.086-1.396 1.869-2.605 1.869s-2.237-.784-2.605-1.869l.004-.015-.01-.002a2.737 2.737 0 0 1 0-1.726l.01-.002-.004-.015A2.753 2.753 0 0 1 12 7ZM3 9.75A2.752 2.752 0 0 1 5.75 7c1.194 0 2.231.756 2.605 1.867a3.725 3.725 0 0 0 0 1.766A2.739 2.739 0 0 1 5.75 12.5 2.752 2.752 0 0 1 3 9.75Zm3 5.5c0-.704.266-1.372.748-1.884a3.731 3.731 0 0 0 2.13-1.542 3.768 3.768 0 0 0 1.788 1.43l-.012.012c.545.522.846 1.228.846 1.983 0 1.517-1.233 2.75-2.75 2.75S6 16.766 6 15.249ZM12 23c-1.654 0-3-1.346-3-3 0-.355.063-.698.185-1.025A3.76 3.76 0 0 0 12 17.119a3.758 3.758 0 0 0 2.815 1.856c.123.327.185.671.185 1.025 0 1.654-1.346 3-3 3Zm3.25-5a2.752 2.752 0 0 1-2.75-2.75c0-.713.272-1.389.766-1.903l-.051-.049a3.769 3.769 0 0 0 1.908-1.474 3.725 3.725 0 0 0 2.131 1.542c.482.511.747 1.175.747 1.883a2.752 2.752 0 0 1-2.75 2.75Zm3-5.5a2.739 2.739 0 0 1-2.605-1.867 3.725 3.725 0 0 0 0-1.766A2.739 2.739 0 0 1 18.25 7C19.767 7 21 8.233 21 9.75s-1.233 2.75-2.75 2.75Z"/></svg>