<svg xmlns="http://www.w3.org/2000/svg" width="512" height="512" data-name="Layer 1" viewBox="0 0 24 24"><path d="M23 13c0-5.898-4.666-10.726-10.5-10.988V0h-1v2.012C5.666 2.274 1 7.102 1 13c0 3.053 1.251 5.82 3.267 7.815L2.13 23.163l.74.674 2.139-2.35C6.911 23.057 9.347 24 12 24s5.089-.944 6.991-2.513l2.139 2.35.74-.674-2.137-2.348A10.965 10.965 0 0 0 23 13ZM2 13C2 7.486 6.486 3 12 3s10 4.486 10 10-4.486 10-10 10S2 18.514 2 13ZM18.797 1.333l.504-.863a14.501 14.501 0 0 1 4.228 3.734l-.795.607a13.5 13.5 0 0 0-3.937-3.479ZM1.249 4.835.452 4.23A14.481 14.481 0 0 1 4.69.474l.506.863c-1.54.9-2.868 2.077-3.947 3.498ZM12.5 16h-1V7h1v9Zm.5 3a1 1 0 1 1-2 0 1 1 0 0 1 2 0Z"/></svg>