<svg xmlns="http://www.w3.org/2000/svg" width="512" height="512" data-name="Layer 1" viewBox="0 0 24 24"><path d="M23 4h-6V2.5C17 1.122 15.879 0 14.5 0h-5A2.503 2.503 0 0 0 7 2.5V4H1v1h1.551L4.35 21.767A2.495 2.495 0 0 0 6.835 24H17.13a2.497 2.497 0 0 0 2.485-2.229L21.448 5H23V4ZM8 2.5C8 1.673 8.673 1 9.5 1h5c.827 0 1.5.673 1.5 1.5V4H8V2.5Zm10.621 19.163A1.498 1.498 0 0 1 17.13 23H6.835a1.497 1.497 0 0 1-1.491-1.34L3.556 5h16.886l-1.821 16.663Zm-11.05-7.769a1.972 1.972 0 0 1 0-2.787l3.202-3.203.707.707-3.202 3.203a.963.963 0 0 0-.146.187h5.367c1.379 0 2.5 1.122 2.5 2.5v4.5h-1v-4.5c0-.827-.673-1.5-1.5-1.5H8.132c.04.067.089.129.146.187l3.202 3.203-.707.707-3.202-3.203Z"/></svg>