<svg xmlns="http://www.w3.org/2000/svg" width="512" height="512" data-name="Layer 1" viewBox="0 0 24 24"><path d="M19 0c-1.654 0-3 1.346-3 3s1.346 3 3 3c.744 0 1.425-.273 1.95-.723C20.66 7.504 19.117 9 17 9v1c2.897 0 5-2.313 5-5.5V3c0-1.654-1.346-3-3-3Zm0 5c-1.103 0-2-.897-2-2s.897-2 2-2 2 .897 2 2-.897 2-2 2Zm1.921 9 .079.5V24h-1v-8.351l-2.142 2.199-.717-.697L20.209 14h.711Zm-9.304 4.117.707.707-4.717 4.717c-.295.296-.688.459-1.106.459s-.812-.163-1.107-.459L.676 18.824l.707-.707L6 22.733V0h1v22.734l4.617-4.617Z"/></svg>