<svg xmlns="http://www.w3.org/2000/svg" width="512" height="512" data-name="Layer 1" viewBox="0 0 24 24"><path d="M4 23h16v1H4v-1ZM4 7.683 2.699 5.082.1 3.782l2.6-1.301L4-.117l1.301 2.599 2.6 1.301-2.6 1.3L4 7.684Zm-.555-3.347L4 5.446l.555-1.11 1.109-.554-1.109-.555L4 2.117l-.555 1.11-1.109.555 1.109.554ZM23.868 15.4l-2.245 1.123-1.123 2.245-1.123-2.245-2.245-1.123 2.245-1.123 1.123-2.245 1.123 2.245 2.245 1.123Zm-2.236 0-.755-.377-.377-.755-.377.755-.755.377.755.377.377.755.377-.755.755-.377Z"/></svg>