<svg xmlns="http://www.w3.org/2000/svg" width="512" height="512" data-name="Layer 1" viewBox="0 0 24 24"><path d="M2.5 3h2.55A2.5 2.5 0 0 0 7.5 5h3a2.5 2.5 0 0 0 2.45-2h2.55c.83 0 1.5.67 1.5 1.5V8h1V4.5A2.5 2.5 0 0 0 15.5 2h-2.55a2.5 2.5 0 0 0-2.45-2h-3a2.5 2.5 0 0 0-2.45 2H2.5A2.5 2.5 0 0 0 0 4.5V24h10v-1H1V4.5C1 3.67 1.67 3 2.5 3Zm5-2h3c.83 0 1.5.67 1.5 1.5S11.33 4 10.5 4h-3C6.67 4 6 3.33 6 2.5S6.67 1 7.5 1Zm14 9h-7a2.5 2.5 0 0 0-2.5 2.5V24h12V12.5a2.5 2.5 0 0 0-2.5-2.5ZM23 23H13V12.5c0-.83.67-1.5 1.5-1.5h7c.83 0 1.5.67 1.5 1.5V23Zm-8-9h6v1h-6v-1Zm0 4h6v1h-6v-1Z"/></svg>