<svg xmlns="http://www.w3.org/2000/svg" width="512" height="512" data-name="Layer 1" viewBox="0 0 24 24"><path d="M21.5 0h-19A2.502 2.502 0 0 0 0 2.5V24h24V2.5C24 1.121 22.879 0 21.5 0ZM23 23H1V2.5C1 1.673 1.673 1 2.5 1h19c.827 0 1.5.673 1.5 1.5V23ZM18.462 4h1.015l-2.623 14.833a1.428 1.428 0 0 1-1.188 1.161c-.587.083-1.197-.19-1.454-.651l-2.211-5.035-2.12 4.842c-.295.55-.796.845-1.33.861-.811.025-1.288-.559-1.404-1.152L4.522 4.001h1.015L8.13 18.677a.427.427 0 0 0 .363.33c.187.025.374-.08.489-.294L12 11.817l3.106 7.082c.021.035.218.137.411.106a.428.428 0 0 0 .353-.353L18.461 4Z"/></svg>