<svg xmlns="http://www.w3.org/2000/svg" width="512" height="512" data-name="Layer 1" viewBox="0 0 24 24"><path d="M15.651 11.487c-.627-.628-1.723-.628-2.35 0l-.302.302v-1.288c0-.827-.673-1.5-1.5-1.5h-5c-.827 0-1.5.673-1.5 1.5v5c0 .827.673 1.5 1.5 1.5h4.288l2.514 2.514c.313.314.73.487 1.175.487s.861-.173 1.175-.487l2.839-2.838c.314-.314.487-.731.487-1.175s-.173-.861-.487-1.175l-2.839-2.838ZM6 15.5v-5a.5.5 0 0 1 .5-.5h5a.5.5 0 0 1 .5.5v5a.5.5 0 0 1-.5.5h-5a.5.5 0 0 1-.5-.5Zm11.783.469-2.839 2.838a.678.678 0 0 1-.936 0l-1.925-1.925c.538-.228.917-.762.917-1.382v-2.298l1.009-1.008c.25-.25.686-.25.936 0l2.839 2.838a.664.664 0 0 1 0 .937ZM.022 1l1.833 19.642A2.587 2.587 0 0 0 4.444 23h14.984a2.59 2.59 0 0 0 2.586-2.341L23.981 1H.022ZM21.02 20.559A1.596 1.596 0 0 1 19.428 22H4.444a1.593 1.593 0 0 1-1.593-1.451L1.12 2h21.756l-1.855 18.559Z"/></svg>