<svg xmlns="http://www.w3.org/2000/svg" width="512" height="512" data-name="Layer 1" viewBox="0 0 24 24"><path d="M5 15h4v-4H5v4Zm1-3h2v2H6v-2Zm1 5c-1.103 0-2 .897-2 2s.897 2 2 2 2-.897 2-2-.897-2-2-2Zm0 3a1.001 1.001 0 0 1 0-2 1.001 1.001 0 0 1 0 2Zm7.565-5h5.869l-2.935-4.401L14.564 15Zm1.869-1 1.065-1.599L18.564 14h-2.131Zm4.565-6V2.894A2.488 2.488 0 0 0 19.167.482C17.384.006 15.575.001 15.499.001h-7c-.076 0-1.886.005-3.669.481a2.49 2.49 0 0 0-1.831 2.412V8c0 1.205-1.477 3.202-2 3.816V24H23V11.815c-.522-.613-2-2.607-2-3.815Zm-9.5 15H2V12.18c.452-.56 2-2.591 2-4.18V2.894c0-.68.448-1.275 1.089-1.446.943-.252 1.905-.36 2.569-.408L11.5 12.085V23ZM8.704 1h6.593l-3.296 9.478L8.704 1ZM22 23h-9.5V12.085L16.342 1.04c.664.048 1.625.156 2.568.408.642.171 1.09.766 1.09 1.446V8c0 1.588 1.548 3.62 2 4.18V23Z"/></svg>