<svg xmlns="http://www.w3.org/2000/svg" width="512" height="512" data-name="Layer 1" viewBox="0 0 24 24"><path d="M19.5 9.382A2.485 2.485 0 0 0 17.264 8H6.736c-.953 0-1.81.529-2.236 1.382l-2.286 4.572A11.557 11.557 0 0 0 1 19.097V22h2v2h4v-2h10v2h4v-2h2v-2.903c0-1.776-.42-3.555-1.214-5.143L19.5 9.382ZM3.108 14.401l2.286-4.572A1.49 1.49 0 0 1 6.735 9h10.528c.572 0 1.086.317 1.342.829l2.286 4.572c.098.196.19.396.276.599H2.833c.086-.202.177-.402.276-.599ZM6 23H4v-1h2v1Zm14 0h-2v-1h2v1Zm2-2H2v-1.903c0-1.047.161-2.095.469-3.097H5v2h1v-2h12v2h1v-2h2.531c.309 1.002.469 2.05.469 3.097V21ZM21 3h3.024l-.237-.667A3.499 3.499 0 0 0 20.5 0a3.505 3.505 0 0 0-3.464 3H6.964A3.505 3.505 0 0 0 3.5 0C2.03 0 .709.938.212 2.332L-.025 3H3v1H-.025l.237.668A3.504 3.504 0 0 0 3.5 7a3.505 3.505 0 0 0 3.464-3h10.072A3.505 3.505 0 0 0 20.5 7a3.5 3.5 0 0 0 3.287-2.333L24.024 4H21V3ZM3.5 6a2.492 2.492 0 0 1-1.987-1H4V2H1.513A2.49 2.49 0 0 1 3.5 1C4.878 1 6 2.121 6 3.5S4.878 6 3.5 6Zm18.987-1c-.464.617-1.195 1-1.987 1C19.121 6 18 4.879 18 3.5S19.121 1 20.5 1c.792 0 1.523.383 1.987 1H20v3h2.487Z"/></svg>