<svg xmlns="http://www.w3.org/2000/svg" width="512" height="512" data-name="Layer 1" viewBox="0 0 24 24"><path d="M21 18.305c1.256-1.787 2-3.959 2-6.305 0-6.065-4.935-11-11-11S1 5.935 1 12c0 2.346.744 4.517 2 6.305v1.606A11.938 11.938 0 0 1 0 12C0 5.383 5.383 0 12 0s12 5.383 12 12c0 3.032-1.139 5.796-3 7.911v-1.606ZM8 22.236V23.3c1.253.445 2.596.7 4 .7s2.747-.255 4-.7v-1.064c-1.242.487-2.588.764-4 .764s-2.758-.277-4-.764ZM9 11h1c0-1.889-1.069-4-2.5-4S5 9.111 5 11h1c0-1.43.785-3 1.5-3S9 9.57 9 11Zm7.5-4C15.069 7 14 9.111 14 11h1c0-1.43.785-3 1.5-3S18 9.57 18 11h1c0-1.889-1.069-4-2.5-4ZM10 17c0-1.683.878-3 2-3s2 1.317 2 3-.878 3-2 3-2-1.317-2-3Zm1 0c0 1.145.528 2 1 2s1-.855 1-2-.528-2-1-2-1 .855-1 2Zm7 7h1V13h-1v11ZM5 24h1V13H5v11Z"/></svg>