<svg xmlns="http://www.w3.org/2000/svg" width="512" height="512" data-name="Layer 1" viewBox="0 0 24 24"><path d="M12 0C5.383 0 0 5.069 0 11.3c0 2.607 2.203 3.616 2.297 3.657l.303.134.242-.226c.029-.027 2.119-1.951 5.096-3.074C7.367 14.587 7 17.853 7 19c0 2.757 2.243 5 5 5s5-2.243 5-5c0-1.147-.367-4.412-.938-7.209 2.977 1.123 5.067 3.047 5.096 3.074l.242.226.303-.134C21.797 14.915 24 13.907 24 11.3 24 5.069 18.617 0 12 0Zm4 19c0 2.206-1.794 4-4 4s-4-1.794-4-4c0-1.049.391-4.642 1.037-7.571C9.97 11.166 10.968 11 12 11s2.03.166 2.963.429C15.608 14.357 16 17.951 16 19Zm5.566-5.109C20.518 12.996 16.661 10 12 10s-8.519 2.997-9.566 3.891C1.952 13.581 1 12.783 1 11.3 1 5.621 5.935 1 12 1s11 4.621 11 10.3c0 1.484-.952 2.283-1.434 2.591Z"/></svg>