<svg xmlns="http://www.w3.org/2000/svg" width="512" height="512" data-name="Layer 1" viewBox="0 0 24 24"><path d="M24 12.349c0-.634-.131-1.249-.388-1.828l-3.127-7.037A2.502 2.502 0 0 0 18.2 2H2.5A2.503 2.503 0 0 0 0 4.5V19h2v1c0 1.654 1.346 3 3 3s3-1.346 3-3v-1h8v1c0 1.654 1.346 3 3 3s3-1.346 3-3v-1h2v-6.651Zm-4.429-8.458L22.286 10H15V3h3.2a1.5 1.5 0 0 1 1.371.891ZM8 10V3h6v7H8ZM2.5 3H7v7H1V4.5C1 3.673 1.673 3 2.5 3ZM7 20c0 1.103-.897 2-2 2s-2-.897-2-2v-1h4v1Zm14 0c0 1.103-.897 2-2 2s-2-.897-2-2v-1h4v1Zm2-2H1v-7h21.729c.179.429.271.882.271 1.349V18Z"/></svg>