<svg xmlns="http://www.w3.org/2000/svg" width="512" height="512" data-name="Layer 1" viewBox="0 0 24 24"><path d="M12 1C5.383 1 0 6.383 0 13c0 3.912 1.948 7.616 5.213 9.909l.129.091h13.316l.129-.091C22.052 20.616 24 16.912 24 13c0-6.617-5.383-12-12-12Zm6.34 21H5.66C2.782 19.916 1 16.481 1 13 1 6.935 5.935 2 12 2s11 4.935 11 11c0 3.481-1.782 6.916-4.66 9ZM14 13c0-1.103-.897-2-2-2s-2 .897-2 2 .897 2 2 2c.62 0 1.175-.284 1.542-.728l5.746 2.681.424-.906-5.746-2.681A2.01 2.01 0 0 0 14 13Zm-2 1a1 1 0 1 1 0-2 1 1 0 0 1 0 2Zm8-1c0 .319-.024.634-.06.946l-.965-.45c.011-.165.025-.329.025-.496a6.956 6.956 0 0 0-2.05-4.95c-2.729-2.729-7.17-2.729-9.9 0-2.729 2.729-2.729 7.171 0 9.9l-.707.707c-3.118-3.119-3.118-8.195 0-11.314 3.119-3.119 8.195-3.119 11.314 0A7.951 7.951 0 0 1 20 13Z"/></svg>