<svg xmlns="http://www.w3.org/2000/svg" data-name="Layer 1" viewBox="0 0 24 24"><path d="M11.949.051c-6.617 0-12 5.384-12 12s5.383 12 12 12 12-5.383 12-12-5.384-12-12-12Zm0 23c-6.066 0-11-4.934-11-11s4.934-11 11-11 11 4.935 11 11-4.935 11-11 11Zm3-13.5c0-1.378-1.122-2.5-2.5-2.5h-5a2.503 2.503 0 0 0-2.5 2.5v5c0 1.378 1.122 2.5 2.5 2.5h5c1.378 0 2.5-1.122 2.5-2.5v-.623l4 2.1V8.074l-4 2.1v-.623Zm-1 5c0 .827-.673 1.5-1.5 1.5h-5c-.827 0-1.5-.673-1.5-1.5v-5c0-.827.673-1.5 1.5-1.5h5c.827 0 1.5.673 1.5 1.5v5Zm4-4.823v4.646l-3-1.575v-1.495l3-1.575Z"/></svg>