<svg xmlns="http://www.w3.org/2000/svg" width="512" height="512" data-name="Layer 1" viewBox="0 0 24 24"><path d="M15 4h-1V0h1v4Zm-4-4h-1v4h1V0Zm13 15.5c0 2.481-2.019 4.5-4.5 4.5h-1.629a36.155 36.155 0 0 1-2.093 4H5.221c-.173-.277-4.4-7.12-5.209-15.22a2.548 2.548 0 0 1 .643-1.96A2.493 2.493 0 0 1 2.5 6.001l15.998.003c.701 0 1.374.299 1.845.82.48.53.714 1.245.643 1.959a31.355 31.355 0 0 1-.507 3.272C22.731 12.321 24 13.544 24 15.5Zm-4.009-6.816a1.548 1.548 0 0 0-.389-1.189 1.472 1.472 0 0 0-1.104-.491l-9.5-.002L9 10.794l2 2-.002 4.207h-5L6 12.794l2-2-.002-3.792H2.5c-.425 0-.817.173-1.104.49a1.542 1.542 0 0 0-.389 1.189c.702 7.029 4.046 13.072 4.775 14.32h9.434c.729-1.248 4.073-7.291 4.774-14.317ZM7 13.207v2.792h2.999v-2.792l-1.499-1.5-1.5 1.5Zm16 2.292c0-1.466-.921-2.294-2.74-2.466a39.37 39.37 0 0 1-1.957 5.966H19.5c1.93 0 3.5-1.57 3.5-3.5ZM7 0H6v4h1V0Z"/></svg>