<svg xmlns="http://www.w3.org/2000/svg" width="512" height="512" data-name="Layer 1" viewBox="0 0 24 24"><path d="M14 13a1 1 0 1 1 0-2 1 1 0 0 1 0 2Zm-8-2a1 1 0 1 0 0 2 1 1 0 0 0 0-2Zm5 1a1 1 0 1 0-2 0 1 1 0 0 0 2 0Zm-9-1a1 1 0 1 0 0 2 1 1 0 0 0 0-2Zm20 0a1 1 0 1 0 0 2 1 1 0 0 0 0-2Zm-4 0a1 1 0 1 0 0 2 1 1 0 0 0 0-2ZM10.819.489 7.027 4.281l.707.707L11.5 1.222v7.777h1V1.223l3.766 3.766.707-.707L13.181.489a1.671 1.671 0 0 0-2.361 0ZM12.5 22.777V15h-1v7.777l-3.766-3.766-.707.707 3.792 3.792c.325.326.753.488 1.181.488s.855-.163 1.181-.488l3.792-3.792-.707-.707-3.766 3.766Z"/></svg>