<svg xmlns="http://www.w3.org/2000/svg" width="512" height="512" data-name="Layer 1" viewBox="0 0 24 24"><path d="M21.5 4H18V2.5A2.5 2.5 0 0 0 15.5 0h-13A2.5 2.5 0 0 0 0 2.5v15.86c0 .61.33 1.17.87 1.45.24.13.51.2.78.2.32 0 .64-.09.91-.28L6 17.44v3.57h11.35l4.09 2.73c.28.18.59.28.91.28.27 0 .53-.06.78-.2.54-.29.87-.84.87-1.45V6.5A2.5 2.5 0 0 0 21.5 4ZM2.01 18.89c-.2.14-.45.15-.67.03a.64.64 0 0 1-.34-.57V2.5C1 1.67 1.67 1 2.5 1h13c.83 0 1.5.67 1.5 1.5V16H6.35l-4.34 2.89ZM23 22.35c0 .24-.13.46-.34.57-.21.12-.46.1-.67-.03L17.65 20H7v-3h11V5h3.5c.83 0 1.5.67 1.5 1.5v15.86ZM7.9 13c-1.32 0-2.4-1.07-2.4-2.39V10h1v.61c0 .77.63 1.39 1.4 1.39h2.21a1.393 1.393 0 0 0 .22-2.77L7.5 8.76a2.392 2.392 0 0 1 .4-4.75h.6v-1h1v1h.61A2.39 2.39 0 0 1 12.5 6.4v.61h-1V6.4c0-.77-.63-1.39-1.39-1.39H7.9c-.77 0-1.4.63-1.4 1.39 0 .68.49 1.26 1.17 1.38l2.83.47c1.16.19 2 1.19 2 2.36A2.39 2.39 0 0 1 10.11 13H9.5v1h-1v-1h-.6Z"/></svg>