<svg xmlns="http://www.w3.org/2000/svg" width="512" height="512" data-name="Layer 1" viewBox="0 0 24 24"><path d="M12 0C5.383 0 0 5.383 0 12s5.383 12 12 12 12-5.383 12-12S18.617 0 12 0Zm0 1c4.405 0 8.214 2.604 9.969 6.353A2.226 2.226 0 0 0 20.764 7h-6.271l-1.5 1.5h-1.986L9.507 7H3.202c-.414 0-.812.113-1.156.322C3.807 3.589 7.607 1 12 1Zm9.976 8.479-.404 2.021a1.872 1.872 0 0 1-1.83 1.5h-3.187c-.862 0-1.61-.584-1.819-1.42l-.682-2.726.854-.854h5.856c.371 0 .72.165.955.453.236.288.33.662.257 1.026ZM9.947 8.854l-.682 2.726a1.872 1.872 0 0 1-1.819 1.421H4.225a1.871 1.871 0 0 1-1.83-1.5L1.991 9.48a1.233 1.233 0 0 1 1.212-1.478h5.891l.854.854ZM12.001 23c-6.065 0-11-4.935-11-11 0-.581.046-1.152.133-1.709l.281 1.405A2.873 2.873 0 0 0 4.226 14h3.221a2.873 2.873 0 0 0 2.79-2.178l.58-2.322h2.369l.58 2.322A2.873 2.873 0 0 0 16.556 14h3.187a2.876 2.876 0 0 0 2.811-2.304l.3-1.499c.097.587.148 1.189.148 1.802 0 6.065-4.935 11-11 11Zm4.667-7.873.666.746C17.237 15.959 14.92 18 12.001 18s-5.236-2.041-5.333-2.127l.666-.746C7.355 15.146 9.471 17 12.001 17s4.646-1.854 4.667-1.873Z"/></svg>