<svg xmlns="http://www.w3.org/2000/svg" width="512" height="512" data-name="Layer 1" viewBox="0 0 24 24"><path d="M16 6a1 1 0 1 1-2 0 1 1 0 0 1 2 0ZM9 5a1 1 0 1 0 0 2 1 1 0 0 0 0-2Zm2.5 5v7h1v-7h-1Zm6.089 12.07a2.492 2.492 0 0 1-1.945.93H11v-3.5a.5.5 0 0 1 .5-.5h3a.5.5 0 0 1 .5.5V21h1v-1.5c0-.827-.673-1.5-1.5-1.5h-3c-.827 0-1.5.673-1.5 1.5V24h5.644a3.489 3.489 0 0 0 2.723-1.301l1.522-1.885-.778-.629-1.522 1.885ZM12 0C5.383 0 0 5.383 0 12c0 5.213 3.347 9.647 8 11.3v-1.064C3.909 20.631 1 16.653 1 12 1 5.935 5.935 1 12 1s11 4.935 11 11c0 2.579-.908 4.94-2.402 6.816l.784.633A11.898 11.898 0 0 0 24 12c0-6.617-5.383-12-12-12Zm3 12.323a9.624 9.624 0 0 0 2.333-1.45l-.666-.746c-.012.01-.669.572-1.667 1.079v1.117Zm-8.333-1.45c.06.054.966.847 2.333 1.45v-1.117a9.168 9.168 0 0 1-1.667-1.079l-.666.746Z"/></svg>