<svg xmlns="http://www.w3.org/2000/svg" width="512" height="512" data-name="Layer 1" viewBox="0 0 24 24"><path d="m23.94 9.88-.69-.73-2.03 1.84H13v-3h-1v5.5c0 .83-.67 1.5-1.5 1.5S9 14.32 9 13.49V7.1a3.5 3.5 0 0 1 2.62-3.39l4.88-1.26L18.19.76l-.71-.71-1.5 1.5-4.61 1.19C9.41 3.24 8.04 4.99 8 7h-.9c-2.05 0-3.84 1.39-4.36 3.38l-1.19 4.61L.04 16.5l.71.71 1.71-1.71 1.26-4.88C4.12 9.07 5.51 8 7.11 8h.9v5.5a2.5 2.5 0 0 0 5 0V12h7.58l-1.82 6.46a3.522 3.522 0 0 1-3.35 2.55h-5.13l-2.15 2.22.72.69L10.71 22h4.71c2 0 3.77-1.35 4.31-3.27L21.62 12l2.32-2.12Z"/></svg>