<svg xmlns="http://www.w3.org/2000/svg" width="512" height="512" data-name="Layer 1" viewBox="0 0 24 24"><path d="m14.84 22.63.26.97c-1.01.27-2.05.4-3.1.4s-2.09-.14-3.1-.4l.26-.97c.92.25 1.88.37 2.84.37s1.92-.12 2.84-.37ZM1.6 6l.87.5c.97-1.67 2.36-3.07 4.03-4.03L6 1.6A12.057 12.057 0 0 0 1.6 6Zm.87 11.5-.87.5c1.05 1.82 2.57 3.34 4.4 4.4l.5-.87c-1.67-.97-3.07-2.36-4.03-4.03ZM.4 8.9C.13 9.91 0 10.95 0 12s.14 2.09.4 3.1l.97-.26C1.12 13.92 1 12.96 1 12s.12-1.92.37-2.84L.4 8.9Zm17.09 12.63.5.87c1.82-1.05 3.34-2.57 4.4-4.4l-.87-.5c-.97 1.67-2.36 3.07-4.03 4.03Zm6.1-12.63-.97.26c.25.92.37 1.88.37 2.84s-.12 1.92-.37 2.84l.97.26c.27-1.01.4-2.05.4-3.1s-.14-2.09-.4-3.1ZM8.9.4l.26.97C10.08 1.12 11.04 1 12 1s1.92.12 2.84.37L15.1.4C14.09.13 13.05 0 12 0S9.91.14 8.9.4ZM18 1.6l-.5.87c1.67.97 3.07 2.36 4.03 4.03l.87-.5A12.057 12.057 0 0 0 18 1.6Z"/></svg>