<svg xmlns="http://www.w3.org/2000/svg" width="512" height="512" data-name="Layer 1" viewBox="0 0 24 24"><path d="M12 24C5.383 24 0 18.617 0 12S5.383 0 12 0s12 5.383 12 12-5.383 12-12 12Zm0-23C5.935 1 1 5.935 1 12s4.935 11 11 11 11-4.935 11-11S18.065 1 12 1ZM9.112 19a3.462 3.462 0 0 1-2.474-1.009l-1.846-1.845 3.645-3.645 2.043 2.043c1.874-.793 3.207-2.128 4.059-4.067L12.5 8.437l3.645-3.645 1.846 1.846a3.461 3.461 0 0 1 1.008 2.473c0 4.343-5.544 9.888-9.888 9.888Zm-2.905-2.854 1.139 1.139A2.47 2.47 0 0 0 9.112 18C12.933 18 18 12.933 18 9.112a2.47 2.47 0 0 0-.715-1.766l-1.139-1.14-2.231 2.231 1.803 1.803-.123.307c-.982 2.446-2.683 4.146-5.056 5.051l-.303.115-1.799-1.799-2.231 2.231Z"/></svg>