<svg xmlns="http://www.w3.org/2000/svg" width="512" height="512" data-name="Layer 1" viewBox="0 0 24 24"><path d="M20 8.5v-2a2.487 2.487 0 0 0-1.571-2.321L15 2.808V1h1V0H8v1h1v1.808L5.571 4.179A2.487 2.487 0 0 0 4 6.5v2c0 .817.394 1.544 1.002 2A2.497 2.497 0 0 0 4 12.5v3c0 .817.394 1.544 1.002 2A2.497 2.497 0 0 0 4 19.5V24h16v-4.5c0-.817-.394-1.544-1.002-2a2.497 2.497 0 0 0 1.002-2v-3c0-.817-.394-1.544-1.002-2A2.497 2.497 0 0 0 20 8.5Zm-1 11V23H5v-3.5c0-.827.673-1.5 1.5-1.5h11c.827 0 1.5.673 1.5 1.5Zm0-7v3c0 .827-.673 1.5-1.5 1.5h-11c-.827 0-1.5-.673-1.5-1.5v-3c0-.827.673-1.5 1.5-1.5h11c.827 0 1.5.673 1.5 1.5Zm0-4c0 .827-.673 1.5-1.5 1.5h-11C5.673 10 5 9.327 5 8.5v-2c0-.617.37-1.164.942-1.393L10 3.484V1h4v2.484l4.058 1.623c.572.229.942.776.942 1.393v2Z"/></svg>