<svg xmlns="http://www.w3.org/2000/svg" width="512" height="512" data-name="Layer 1" viewBox="0 0 24 24"><path d="m23.045 8.034-9.5-7.467a2.49 2.49 0 0 0-3.09 0l-9.5 7.467A2.486 2.486 0 0 0 0 10v14h9.447l2.529-6h-3.66c-.17 0-.25-.116-.277-.166s-.079-.181.017-.324L12.991 10h.138l-1.8 6h4.338c.105 0 .202.049.265.134s.082.191.059.27l-2.698 7.597h10.708V10c0-.772-.348-1.488-.955-1.966ZM23 23h-8.292l2.232-6.285a1.318 1.318 0 0 0-.205-1.177A1.317 1.317 0 0 0 15.667 15h-2.995l1.8-6h-2.021l-5.23 7.959a1.31 1.31 0 0 0-.063 1.348c.229.428.673.693 1.159.693h2.153l-1.686 4H1V10c0-.463.209-.893.573-1.179l9.5-7.468a1.498 1.498 0 0 1 1.854 0l9.5 7.468c.364.286.573.716.573 1.179v13Z"/></svg>