<svg xmlns="http://www.w3.org/2000/svg" width="512" height="512" data-name="Layer 1" viewBox="0 0 24 24"><path d="M12 18c2.206 0 4-1.794 4-4a4.005 4.005 0 0 0-3.5-3.969V5H17V4h-4.5V1H17V0h-5.5v10.031A4.005 4.005 0 0 0 8 14c0 2.206 1.794 4 4 4Zm0-7c1.654 0 3 1.346 3 3s-1.346 3-3 3-3-1.346-3-3 1.346-3 3-3ZM1.5 18a3.996 3.996 0 0 1-1.471-.279l.367-.93A3.004 3.004 0 0 0 4.5 14h1c0 2.206-1.794 4-4 4Zm17-4h1a3.004 3.004 0 0 0 4.11 2.788l.369.93A4.004 4.004 0 0 1 18.5 14Zm5.106 8.789.371.93a4.003 4.003 0 0 1-4.978-1.784c-.683 1.23-1.995 2.065-3.5 2.065s-2.817-.835-3.5-2.065c-.683 1.23-1.995 2.065-3.5 2.065s-2.817-.835-3.5-2.065a4.003 4.003 0 0 1-4.978 1.784l.371-.93A3.004 3.004 0 0 0 4.498 20h1c0 1.654 1.346 3 3 3s3-1.346 3-3h1c0 1.654 1.346 3 3 3s3-1.346 3-3h1a3.004 3.004 0 0 0 4.106 2.789Z"/></svg>