<svg xmlns="http://www.w3.org/2000/svg" width="512" height="512" data-name="Layer 1" viewBox="0 0 24 24"><path d="M11 17a1 1 0 1 1-2 0 1 1 0 0 1 2 0Zm-3 2a1 1 0 1 0 0 2 1 1 0 0 0 0-2Zm4 0a1 1 0 1 0 0 2 1 1 0 0 0 0-2Zm8-12.764V21.5c0 1.378-1.122 2.5-2.5 2.5h-11A2.503 2.503 0 0 1 4 21.5V6.236C3.362 5.667 3 4.866 3 4c0-1.654 1.346-3 3-3 .453 0 .895.103 1.3.3A3.446 3.446 0 0 1 12 .64 3.47 3.47 0 0 1 14 0c1.062 0 2.04.478 2.7 1.3.405-.197.847-.3 1.3-.3 1.654 0 3 1.346 3 3 0 .866-.362 1.667-1 2.236ZM19 21.5C19.385 15.192 10.269 7 5 6.527V21.5c0 .827.673 1.5 1.5 1.5h11c.827 0 1.45-.674 1.5-1.5Zm0-14.98c-2.111.163-4.391 1.33-5.938 3.017 2.457 2.004 4.702 4.604 5.938 7.454V6.52ZM20 4c0-1.103-.897-2-2-2-.412 0-.812.129-1.155.373l-.44.313-.278-.463A2.47 2.47 0 0 0 14 1c-.608 0-1.2.231-1.666.65L12 1.951l-.334-.301A2.493 2.493 0 0 0 10 1a2.47 2.47 0 0 0-2.127 1.223l-.278.463-.44-.313A1.985 1.985 0 0 0 6 2a2.002 2.002 0 0 0-1.318 3.504c1.166.044 2.64.508 4.21 1.298.806-1.084 1.706-2.143 2.797-2.85l.544.839c-.926.601-1.725 1.524-2.45 2.489a23.458 23.458 0 0 1 2.49 1.64c1.811-2 4.562-3.353 7.045-3.416A1.98 1.98 0 0 0 20 4.001Z"/></svg>