<svg xmlns="http://www.w3.org/2000/svg" width="512" height="512" data-name="Layer 1" viewBox="0 0 24 24"><path d="M23.23 4.51a2.65 2.65 0 0 0 0-3.74 2.65 2.65 0 0 0-3.74 0L8 12.26V16h3.74L23.23 4.51ZM20.2 1.48a1.642 1.642 0 0 1 2.32 2.32l-1.5 1.5-2.32-2.32 1.5-1.5ZM9 15v-2.32l8.98-8.99 2.32 2.32L11.32 15H9Zm15 8v1c-1.26 0-1.99-.89-2.64-1.68-.58-.71-1.08-1.32-1.86-1.32s-1.29.61-1.86 1.32C16.99 23.11 16.26 24 15 24s-1.99-.89-2.64-1.68c-.58-.71-1.08-1.32-1.86-1.32-.73 0-1.33.53-2.03 1.15-.93.82-2.09 1.84-3.95 1.85H4.5C2.03 23.99.02 21.97.02 19.5S2.04 15 4.52 15H6v1H4.52c-1.93 0-3.5 1.57-3.5 3.5s1.56 3.49 3.49 3.5c1.49 0 2.41-.82 3.3-1.6.78-.69 1.58-1.4 2.69-1.4 1.26 0 1.99.89 2.64 1.68.58.71 1.08 1.32 1.86 1.32s1.29-.61 1.86-1.32c.65-.79 1.38-1.68 2.64-1.68s1.99.89 2.64 1.68c.58.71 1.08 1.32 1.86 1.32Z"/></svg>