<svg xmlns="http://www.w3.org/2000/svg" width="512" height="512" data-name="Layer 1" viewBox="0 0 24 24"><path d="M22.861 10.718c-1.07-2.574-2.082-5.006-3.143-6.316C17.113.922 12.825-.662 8.532.261 4.138 1.208.844 4.711.139 9.186c-.514 3.269.326 6.515 2.306 8.904.358.432.556.986.556 1.561v4.35h13v-3h2.358c1.188 0 2.22-.847 2.452-2.013l.793-3.987H24v-1.5s-.773-1.904-1.139-2.782ZM10.5 8c1.654 0 3 1.346 3 3s-1.346 3-3 3-3-1.346-3-3 1.346-3 3-3ZM23 14h-2.217l-.953 4.792c-.14.7-.759 1.208-1.472 1.208H15v3H4v-3.35c0-.807-.279-1.588-.786-2.199-1.796-2.168-2.557-5.125-2.087-8.11.64-4.064 3.629-7.243 7.616-8.102.42-.091.839-.155 1.257-.193v5.985A4.005 4.005 0 0 0 6.5 11c0 2.206 1.794 4 4 4s4-1.794 4-4A4.005 4.005 0 0 0 11 7.031V1.003c3.103.017 6.01 1.451 7.93 4.013.981 1.214 2.012 3.69 3.009 6.086.354.852.708 1.702 1.062 2.504v.395Z"/></svg>