<svg xmlns="http://www.w3.org/2000/svg" width="512" height="512" data-name="Layer 1" viewBox="0 0 24 24"><path d="M12 24.048c-5.514 0-10-4.486-10-10C2 10.589 4.363 8.1 6.675 6.12l1.177-1.008-.366 1.506C7.322 7.294 7 9.337 7 11c0 2.53.27 5 3.5 5 1.454 0 2.481-1.03 2.5-2.506.017-1.332-.513-2.509-1.025-3.647C11.496 8.782 11 7.68 11 6.5 11 3.765 13.003.839 13.089.716l.43-.621.404.638c.894 1.41 2.065 2.741 3.198 4.028C19.52 7.487 22 10.305 22 14.048c0 5.514-4.486 10-10 10ZM6.252 7.845C4.513 9.502 3.001 11.509 3 14.048c0 4.963 4.038 9 9 9s9-4.037 9-9c0-3.366-2.249-5.921-4.63-8.627-.985-1.118-1.999-2.271-2.855-3.497C12.955 2.887 12 4.781 12 6.5c0 .965.431 1.923.887 2.937.531 1.18 1.132 2.517 1.113 4.069C13.975 15.53 12.502 17 10.5 17 6 17 6 12.947 6 11c0-1.051.118-2.223.252-3.155Z"/></svg>