<svg xmlns="http://www.w3.org/2000/svg" width="512" height="512" data-name="Layer 1" viewBox="0 0 24 24"><path d="M18 3.05V0h-1v3H7V0H6v3.05c-1.14.232-2 1.242-2 2.45v13c0 1.207.86 2.217 2 2.45V24h1v-3h10v3.001h1v-3.05c1.14-.232 2-1.242 2-2.45V5.5c0-1.207-.86-2.217-2-2.45Zm1 15.45c0 .827-.673 1.5-1.5 1.5h-11c-.827 0-1.5-.674-1.5-1.501v-13c0-.827.673-1.5 1.5-1.5h11c.827 0 1.5.674 1.5 1.501v13ZM7 12h1v2H7v-2Zm3 0h1v2h-1v-2Zm3 0h1v2h-1v-2Zm-6 4h1v2H7v-2Zm3 0h1v2h-1v-2Zm3 0h1v2h-1v-2Zm3-4h1v2h-1v-2Zm0 4h1v2h-1v-2Zm-9-6h10V6H7v4Zm1-3h8v2H8V7Z"/></svg>