<svg xmlns="http://www.w3.org/2000/svg" width="512" height="512" data-name="Layer 1" viewBox="0 0 24 24"><path d="M3 22a1 1 0 1 1-2 0 1 1 0 0 1 2 0Zm2.5-4a1.5 1.5 0 1 0 .001 3.001A1.5 1.5 0 0 0 5.5 18ZM24 10c0 3.7-3.397 6.662-7.192 5.875A6.484 6.484 0 0 1 12 18a6.522 6.522 0 0 1-5.472-3H6.5C2.916 15 0 12.084 0 8.5S2.916 2 6.5 2c.479 0 .964.057 1.444.167A6.998 6.998 0 0 1 13 0a6.96 6.96 0 0 1 6.397 4.167A6.003 6.003 0 0 1 24 10Zm-1 0a5 5 0 0 0-4.057-4.908l-.27-.052-.102-.255A5.97 5.97 0 0 0 12.999 1a6.003 6.003 0 0 0-4.513 2.055l-.207.237-.304-.085A5.461 5.461 0 0 0 6.498 3C3.468 3 1 5.468 1 8.5S3.468 14 6.5 14c.061 0 .492-.03.492-.03l.241.266A5.519 5.519 0 0 0 12 17.001a5.488 5.488 0 0 0 4.241-1.998l.203-.245.308.079C20.038 15.69 23 13.164 23 10.001Z"/></svg>