<svg xmlns="http://www.w3.org/2000/svg" width="512" height="512" data-name="Layer 1" viewBox="0 0 24 24"><path d="M4 23h16v1H4v-1Zm12-3v-1H8v1h8Zm0-16H8v1h8V4Zm1 10H7v1h10v-1Zm1-5H6v1h12V9Zm-3-9H9v1h6V0ZM4 21.419l-1.3-2.6L.1 17.52l2.601-1.301 1.3-2.6 1.3 2.6 2.601 1.301-2.601 1.3-1.3 2.6Zm-.555-3.346L4 19.182l.555-1.109 1.109-.554-1.109-.555L4 15.855l-.555 1.109-1.109.555 1.109.554ZM23.868 3.465l-2.246 1.123-1.123 2.245-1.123-2.245-2.246-1.123 2.246-1.123L20.5.097l1.123 2.245 2.246 1.123Zm-2.236 0-.754-.377-.377-.755-.377.755-.754.377.754.377.377.755.377-.755.754-.377Z"/></svg>