<svg xmlns="http://www.w3.org/2000/svg" width="512" height="512" data-name="Layer 1" viewBox="0 0 24 24"><path d="M19 9.998a4.99 4.99 0 0 0 3.536-1.462c1.95-1.95 1.95-5.122 0-7.071s-5.122-1.949-7.071 0-1.95 5.122 0 7.071a4.984 4.984 0 0 0 3.536 1.462Zm2.829-2.169a4.007 4.007 0 0 1-5.282.331l5.613-5.613a4.008 4.008 0 0 1-.331 5.282Zm-5.657-5.657a3.988 3.988 0 0 1 2.829-1.17c.867 0 1.734.28 2.453.838l-5.613 5.613a4.008 4.008 0 0 1 .331-5.282Zm7.829 7.723v14.106H0V6.5C0 5.122 1.122 4 2.5 4H12v1H2.5a1.5 1.5 0 0 0-1.268.701l8.274 8.275a3.505 3.505 0 0 0 4.95 0l2.279-2.357c.362.124.737.217 1.123.281l-2.695 2.783c-.877.877-2.03 1.316-3.182 1.316s-2.305-.438-3.182-1.316L1 6.883V23h22V10.74a7.027 7.027 0 0 0 1-.846Z"/></svg>