<svg xmlns="http://www.w3.org/2000/svg" width="512" height="512" data-name="Layer 1" viewBox="0 0 24 24"><path d="M18.813 9.717c.057.057.12.106.187.146V0h1v9.863a.985.985 0 0 0 .187-.146l2.909-2.91.707.707-2.909 2.91c-.384.384-.889.576-1.394.576s-1.01-.192-1.394-.576l-2.871-2.871.707-.707 2.871 2.871ZM23 11.146V23H1V6.883l7.799 7.799c.877.877 2.029 1.315 3.183 1.315s2.305-.438 3.182-1.315l2.231-2.295a4.019 4.019 0 0 1-.703-.55l-.082-.082-2.153 2.22a3.504 3.504 0 0 1-4.95 0L1.232 5.701A1.5 1.5 0 0 1 2.5 5H17V4H2.5A2.503 2.503 0 0 0 0 6.5V24h24V10.145l-1 1Z"/></svg>