<svg xmlns="http://www.w3.org/2000/svg" width="512" height="512" data-name="Layer 1" viewBox="0 0 24 24"><path d="M18 6c-3.309 0-6 2.691-6 6s2.691 6 6 6 6-2.691 6-6-2.691-6-6-6Zm0 11c-2.757 0-5-2.243-5-5s2.243-5 5-5 5 2.243 5 5-2.243 5-5 5Zm-4.401 1.677a6.993 6.993 0 0 1-1.599.305V24h-1v-5.018a6.953 6.953 0 0 1-2.558-.686l-2.51 4.346-.865-.5 2.51-4.347a7.063 7.063 0 0 1-1.872-1.872l-4.348 2.51-.5-.866 4.347-2.509a6.947 6.947 0 0 1-.686-2.558H0v-1h4.518a6.953 6.953 0 0 1 .686-2.558L.857 6.433l.5-.866 4.348 2.51a7.063 7.063 0 0 1 1.872-1.872l-2.51-4.347.865-.5 2.51 4.346A6.928 6.928 0 0 1 11 5.018V0h1v5.018c.553.04 1.089.144 1.599.305a7.942 7.942 0 0 0-.995.784 5.989 5.989 0 0 0-1.104-.106c-3.309 0-6 2.691-6 6s2.691 6 6 6c.377 0 .745-.039 1.104-.106.311.285.641.55.995.784Z"/></svg>