<svg xmlns="http://www.w3.org/2000/svg" width="512" height="512" data-name="Layer 1" viewBox="0 0 24 24"><path d="M24 2.5C24 1.121 22.878 0 21.5 0H14v4.46l.646-.196C15.241 4.082 15.765 4 16 4a1.001 1.001 0 0 1 0 2c-.235 0-.759-.082-1.354-.264L14 5.54V10h3.136A5 5 0 0 0 17 11c0 1.103.897 2 2 2s2-.897 2-2a5 5 0 0 0-.136-1H24V2.5ZM23 9h-3.459l.196.646c.181.595.263 1.119.263 1.354a1.001 1.001 0 0 1-2 0c0-.235.083-.76.263-1.354L18.459 9H15V6.863c.389.087.745.137 1 .137 1.103 0 2-.897 2-2s-.897-2-2-2c-.255 0-.611.05-1 .137V1h6.5c.827 0 1.5.673 1.5 1.5V9Zm-8.263 5.646c.181.595.263 1.119.263 1.354a1.001 1.001 0 0 1-2 0c0-.235.083-.76.263-1.354l.196-.646H10V5H2.5A2.503 2.503 0 0 0 0 7.5V24h19V14h-4.459l.196.646ZM1 7.5C1 6.673 1.673 6 2.5 6H9v8H6.864A5 5 0 0 0 7 13c0-1.103-.897-2-2-2s-2 .897-2 2a5 5 0 0 0 .136 1H1V7.5ZM9 23H1v-8h3.459l-.196-.646C4.082 13.759 4 13.235 4 13a1.001 1.001 0 0 1 2 0c0 .235-.083.76-.263 1.354L5.541 15H9v2.137A4.949 4.949 0 0 0 8 17c-1.103 0-2 .897-2 2s.897 2 2 2c.255 0 .611-.05 1-.137V23Zm6.864-8H18v8h-8v-3.46l-.646.196C8.759 19.918 8.235 20 8 20a1.001 1.001 0 0 1 0-2c.235 0 .759.082 1.354.264l.646.196V15h2.136A5 5 0 0 0 12 16c0 1.103.897 2 2 2s2-.897 2-2a5 5 0 0 0-.136-1Z"/></svg>