<svg xmlns="http://www.w3.org/2000/svg" width="512" height="512" data-name="Layer 1" viewBox="0 0 24 24"><path d="M20 12v.05c-.17-.02-.33-.05-.5-.05s-.34.03-.5.05V12c0-3.86-3.14-7-7-7s-7 3.14-7 7 3.14 7 7 7c1.2 0 2.33-.31 3.32-.84.12.31.28.61.47.88-1.13.61-2.42.96-3.79.96-4.41 0-8-3.59-8-8s3.59-8 8-8 8 3.59 8 8Zm1.5-12h-19A2.5 2.5 0 0 0 0 2.5V24h13v-1H1V2.5C1 1.67 1.67 1 2.5 1h19c.83 0 1.5.67 1.5 1.5v11.2c.62.77 1 1.73 1 2.8v-14A2.5 2.5 0 0 0 21.5 0ZM11 12c0 .55.45 1 1 1s1-.45 1-1-.45-1-1-1-1 .45-1 1Zm10.5 8h-4a2.5 2.5 0 0 0-2.5 2.5V24h1v-1.5c0-.83.67-1.5 1.5-1.5h4c.83 0 1.5.67 1.5 1.5V24h1v-1.5a2.5 2.5 0 0 0-2.5-2.5Zm-2-6a2.5 2.5 0 0 1 0 5 2.5 2.5 0 0 1 0-5Zm0 1c-.83 0-1.5.67-1.5 1.5s.67 1.5 1.5 1.5 1.5-.67 1.5-1.5-.67-1.5-1.5-1.5Z"/></svg>