<svg xmlns="http://www.w3.org/2000/svg" width="512" height="512" data-name="Layer 1" viewBox="0 0 24 24"><path d="M.226 19.545 0 19.766v.541l.227.148C.387 20.559 4.181 23 7.964 23H24v-6H7.964C4.157 17 .385 19.441.226 19.545Zm1.195.454c1.181-.659 3.8-1.942 6.374-1.997L11.793 22H7.964c-2.612 0-5.331-1.328-6.542-2.001ZM9.207 18h5.086l4 4h-5.086l-4-4ZM23 22h-3.293l-4-4H23v4ZM14 5.856V3h1v2.856c0 1.222.651 2.372 1.699 3.001l1.602.961A3.515 3.515 0 0 1 20 12.819v2.18h-1v-2.18c0-.873-.465-1.694-1.214-2.144l-1.602-.961a4.524 4.524 0 0 1-2.185-3.859Zm10 5.408v1.735h-1v-1.735a3.518 3.518 0 0 0-1.699-3.001l-2.087-1.252A2.512 2.512 0 0 1 18 4.867V1h1v3.868c0 .524.279 1.017.729 1.286l2.087 1.252a4.522 4.522 0 0 1 2.185 3.858Z"/></svg>