<svg xmlns="http://www.w3.org/2000/svg" width="512" height="512" data-name="Layer 1" viewBox="0 0 24 24"><path d="M20.212 2.733 12 .011 3.788 2.733A2.604 2.604 0 0 0 2 5.206v6.651c0 6.611 7.16 10.703 9.354 11.8l.626.313.65-.262c2.198-.884 9.37-4.352 9.37-11.852V5.205a2.602 2.602 0 0 0-1.788-2.473ZM21 11.857c0 6.873-6.692 10.099-8.744 10.924l-.231.094-.224-.112C9.736 21.731 3 17.895 3 11.858V5.207c0-.692.443-1.305 1.103-1.523L12 1.065l7.897 2.619c.66.218 1.103.83 1.103 1.523v6.651Zm-5.146-4.004A1.502 1.502 0 0 0 18 6.499c0-.827-.673-1.5-1.5-1.5a1.502 1.502 0 0 0-1.353 2.147l-.695.695a3.979 3.979 0 0 0-1.952-.81V5h-1v2.031a3.987 3.987 0 0 0-1.952.81l-.695-.695A1.502 1.502 0 0 0 7.5 4.999c-.827 0-1.5.673-1.5 1.5a1.502 1.502 0 0 0 2.146 1.354l.695.695a3.98 3.98 0 0 0-.81 1.951H6v1h2.031a3.98 3.98 0 0 0 .81 1.951l-.695.695A1.502 1.502 0 0 0 6 15.499c0 .827.673 1.5 1.5 1.5a1.502 1.502 0 0 0 1.353-2.147l.695-.695c.553.43 1.222.719 1.952.81v2.031h1v-2.031a3.987 3.987 0 0 0 1.952-.81l.695.695a1.502 1.502 0 0 0 1.353 2.147c.827 0 1.5-.673 1.5-1.5a1.502 1.502 0 0 0-2.146-1.354l-.695-.695a3.98 3.98 0 0 0 .81-1.951H18v-1h-2.031a3.98 3.98 0 0 0-.81-1.951l.695-.695Zm.646-1.854a.5.5 0 1 1-.002 1.002.5.5 0 0 1 .002-1.002Zm-1.5 5c0 1.654-1.346 3-3 3s-3-1.346-3-3 1.346-3 3-3 3 1.346 3 3Zm-7.5-4a.5.5 0 1 1 .002-1.002A.5.5 0 0 1 7.5 7Zm0 9a.5.5 0 1 1 .002-1.002A.5.5 0 0 1 7.5 16Zm9-1a.5.5 0 1 1-.002 1.002.5.5 0 0 1 .002-1.002Z"/></svg>