<svg xmlns="http://www.w3.org/2000/svg" width="512" height="512" data-name="Layer 1" viewBox="0 0 24 24"><path d="M19.071 2.929C17.182 1.04 14.671 0 12 0S6.817 1.04 4.929 2.929C1.03 6.828 1.03 13.172 4.933 17.075L12 23.987l7.071-6.916c3.899-3.899 3.899-10.243 0-14.142Zm-.703 13.431L12 22.589l-6.364-6.225c-3.509-3.509-3.509-9.219 0-12.728C7.336 1.936 9.596 1 12 1s4.664.936 6.364 2.636c3.509 3.509 3.509 9.219.004 12.724Zm-2.722-4.87.707.707C15.19 13.36 13.645 14 12 14s-3.191-.64-4.354-1.803l.707-.707C9.327 12.464 10.623 13 12 13s2.672-.536 3.646-1.51ZM8 8a1 1 0 1 1 2 0 1 1 0 0 1-2 0Zm6 0a1 1 0 1 1 2 0 1 1 0 0 1-2 0Z"/></svg>