<svg xmlns="http://www.w3.org/2000/svg" width="512" height="512" data-name="Layer 1" viewBox="0 0 24 24"><path d="M13.19 21h-1.83l5.37-17.09c1.26.7 2.3 1.78 2.98 3.13l.9-.45c-.8-1.6-2.05-2.86-3.57-3.66l.92-2.94h-1.07l-.79 2.52c-.91-.34-1.89-.52-2.91-.52h-.3l.63-2h-1.07l-.63 2h-.55C6.71 2 3 5.71 3 10.27v3.46c0 2.61 1.22 4.94 3.11 6.46L4.91 24h1.07l1-3.2c.91.55 1.93.94 3.03 1.1L9.35 24h1.07l.63-2h2.14c3.11 0 5.93-1.72 7.35-4.48l-.89-.46A7.253 7.253 0 0 1 13.19 21ZM4 13.73v-3.46C4 6.26 7.26 3 11.27 3h.24L6.44 19.15A7.268 7.268 0 0 1 4 13.72Zm3.3 6.09L12.58 3h.61c.91 0 1.79.17 2.61.48l-5.48 17.46a7.35 7.35 0 0 1-3.02-1.12Z"/></svg>