<svg xmlns="http://www.w3.org/2000/svg" width="512" height="512" data-name="Layer 1" viewBox="0 0 24 24"><path d="M16 16H8v-5.5A2.5 2.5 0 0 1 10.5 8H16v8Zm-7-1h6V9h-4.5C9.67 9 9 9.67 9 10.5V15Zm-3 0H1v-3H0v4h6v-1ZM16 2.5A2.5 2.5 0 0 0 13.5 0H12v1h1.5c.83 0 1.5.67 1.5 1.5V6h1V2.5ZM10 0H6v1h4V0ZM1 2.5C1 1.67 1.67 1 2.5 1H4V0H2.5A2.5 2.5 0 0 0 0 2.5V4h1V2.5ZM1 6H0v4h1V6Zm11 17H9v-5H8v6h4v-1Zm6 0h-4v1h4v-1Zm6-9h-1v4h1v-4Zm0-3.5A2.5 2.5 0 0 0 21.5 8H18v1h3.5c.83 0 1.5.67 1.5 1.5V12h1v-1.5Zm0 9.5h-1v3h-3v1h4v-4Z"/></svg>