<svg xmlns="http://www.w3.org/2000/svg" width="512" height="512" data-name="Layer 1" viewBox="0 0 24 24"><path d="M23.472 1.964a2.483 2.483 0 0 0-1.662-.944 2.54 2.54 0 0 0-1.848.512l-.046.037a2.494 2.494 0 0 0-.35-.604 2.474 2.474 0 0 0-1.66-.943 2.487 2.487 0 0 0-2.787 2.149l-1.165 6.625-2.346-6.979A2.51 2.51 0 0 0 9.202.002a2.488 2.488 0 0 0-2.184 1.285 2.506 2.506 0 0 0-.297.914 2.508 2.508 0 0 0-1.727-.13c-.64.182-1.17.604-1.494 1.188a2.5 2.5 0 0 0-.21 1.933l3.788 10.536-2.876-2.056c-.947-.886-2.628-.845-3.529.118a2.509 2.509 0 0 0 .125 3.544l7.424 6.668h13.219l2.54-20.192a2.482 2.482 0 0 0-.51-1.843Zm-.482 1.72L20.559 23H8.606l-7.131-6.406a1.505 1.505 0 0 1-.07-2.124c.54-.579 1.5-.64 2.167-.029l4.592 3.207.438-.643-4.36-12.122a1.495 1.495 0 0 1 .133-1.141c.194-.351.512-.604.897-.713.661-.195 1.395.125 1.734.751l2.649 7.564.944-.329-2.838-8.103a1.496 1.496 0 0 1 1.03-1.853c.769-.223 1.637.262 1.862 1.053l2.987 8.889h.941l1.525-8.682a1.524 1.524 0 0 1 1.672-1.305c.397.049.752.25.998.566.247.316.356.71.308 1.106l-1.269 8.238.988.153 1.224-7.861a1.5 1.5 0 0 1 2.961.468Z"/></svg>