<svg xmlns="http://www.w3.org/2000/svg" width="512" height="512" data-name="Layer 1" viewBox="0 0 24 24"><path d="M14 0C8.486 0 4 4.486 4 10a9.94 9.94 0 0 0 1.388 5.077l-5.392 5.392 3.535 3.535 5.392-5.392A9.94 9.94 0 0 0 14 20c5.514 0 10-4.486 10-10S19.514 0 14 0ZM3.531 22.59 1.41 20.469l4.541-4.541a10.107 10.107 0 0 0 2.121 2.121L3.531 22.59ZM14 19c-4.963 0-9-4.037-9-9s4.037-9 9-9 9 4.037 9 9-4.037 9-9 9Zm5-9h1c0 3.309-2.691 6-6 6s-6-2.691-6-6 2.691-6 6-6v1c-2.757 0-5 2.243-5 5s2.243 5 5 5 5-2.243 5-5Z"/></svg>