<svg xmlns="http://www.w3.org/2000/svg" width="512" height="512" data-name="Layer 1" viewBox="0 0 24 24"><path d="M21 20.5V24h-1v-3.5c0-1.379-1.122-2.5-2.5-2.5h-11A2.503 2.503 0 0 0 4 20.5V24H3v-3.5C3 18.57 4.57 17 6.5 17h11c1.93 0 3.5 1.57 3.5 3.5ZM22 6v6h-2v3H4v-3H2V6h2V4.5C4 3.121 5.122 2 6.5 2h5V0h1v2h5C18.878 2 20 3.121 20 4.5V6h2ZM4 11V7H3v4h1Zm15-6.5c0-.827-.673-1.5-1.5-1.5h-11C5.673 3 5 3.673 5 4.5V14h14V4.5ZM21 7h-1v4h1V7ZM11 9c0 1.103-.897 2-2 2s-2-.897-2-2 .897-2 2-2 2 .897 2 2Zm-1 0a1.001 1.001 0 0 0-2 0 1.001 1.001 0 0 0 2 0Zm7 0c0 1.103-.897 2-2 2s-2-.897-2-2 .897-2 2-2 2 .897 2 2Zm-1 0a1.001 1.001 0 0 0-2 0 1.001 1.001 0 0 0 2 0Z"/></svg>