<svg xmlns="http://www.w3.org/2000/svg" width="512" height="512" data-name="Layer 1" viewBox="0 0 24 24"><path d="M22.494 5.46C20.324 3.29 16.443 2 12.096 2h-.099c-4.424.021-8.346 1.313-10.492 3.46C.534 6.432 0 7.701 0 9.034V12h7V7.955c1.502-.616 3.259-.956 4.998-.955 1.665.009 3.468.357 5.002.962V12h7V9.034c0-1.333-.534-2.603-1.506-3.574ZM23 11h-5V7.297l-.304-.13C15.982 6.436 13.907 6.01 12.002 6c-1.952.018-4.023.417-5.707 1.17l-.296.132V11H1V9.034c0-1.066.43-2.084 1.213-2.867C4.147 4.232 7.898 3.019 12.003 3c4.118-.015 7.784 1.165 9.785 3.167.783.783 1.214 1.801 1.213 2.867V11Zm-8 5v1h-2v-1h2Zm2 0h2v1h-2v-1Zm4 0h2v1h-2v-1Zm0 4h2v1h-2v-1ZM1 16h2v1H1v-1Zm0 4h2v1H1v-1Zm10-4v1H9v-1h2Zm-4 0v1H5v-1h2Zm-2 4h14v1H5v-1Z"/></svg>