<svg xmlns="http://www.w3.org/2000/svg" width="512" height="512" data-name="Layer 1" viewBox="0 0 24 24"><path d="M7 3.5C7 1.57 5.43 0 3.5 0S0 1.57 0 3.5a3.505 3.505 0 0 0 3 3.464v10.072A3.505 3.505 0 0 0 0 20.5C0 22.43 1.57 24 3.5 24S7 22.43 7 20.5a3.505 3.505 0 0 0-3-3.464V6.964A3.505 3.505 0 0 0 7 3.5Zm-6 0C1 2.122 2.122 1 3.5 1S6 2.122 6 3.5 4.878 6 3.5 6 1 4.878 1 3.5Zm5 17C6 21.879 4.878 23 3.5 23S1 21.879 1 20.5 2.122 18 3.5 18 6 19.121 6 20.5ZM20.5 17c-1.93 0-3.5 1.57-3.5 3.5s1.57 3.5 3.5 3.5 3.5-1.57 3.5-3.5-1.57-3.5-3.5-3.5Zm0 6c-1.378 0-2.5-1.121-2.5-2.5s1.122-2.5 2.5-2.5 2.5 1.121 2.5 2.5-1.122 2.5-2.5 2.5Zm0-16c1.103 0 2-.897 2-2s-.897-2-2-2-2 .897-2 2 .897 2 2 2Zm0-3c.551 0 1 .449 1 1s-.449 1-1 1-1-.449-1-1 .449-1 1-1Zm0 10c1.103 0 2-.897 2-2s-.897-2-2-2-2 .897-2 2 .897 2 2 2Zm0-3c.551 0 1 .449 1 1s-.449 1-1 1-1-.449-1-1 .449-1 1-1Z"/></svg>