<svg xmlns="http://www.w3.org/2000/svg" width="512" height="512" data-name="Layer 1" viewBox="0 0 24 24"><path d="M16.822 6c-.438 0-.978.232-1.348.435C14.925 6.154 14.37 6 13.838 6c-.334 0-.667.063-.99.186a2.164 2.164 0 0 0-.338-.12C12.718 1.142 16.462 1 16.501 1c.692 0 1.5.322 1.5 1.231 0 .31-.317.769-1 .769v1c1.252 0 2-.899 2-1.769C19.001.918 17.973 0 16.501 0c-.989 0-3.375.694-4.454 3.374C11.535 1.849 10.592.736 9.225.053l-.447.895c1.737.869 2.627 2.545 2.716 5.119-.115.03-.228.07-.339.12a2.776 2.776 0 0 0-.991-.186c-.532 0-1.087.153-1.636.435-.37-.203-.911-.435-1.349-.435C4.409 6 0 10.119 0 15s4.419 9 7.195 9c.455 0 .877-.115 1.258-.343.471.224.946.343 1.404.343.404 0 .782-.09 1.13-.268.322.175.661.268 1.014.268s.692-.093 1.014-.268c.347.178.726.268 1.129.268.458 0 .933-.12 1.404-.344.381.228.803.344 1.258.344 2.775 0 7.195-4.119 7.195-9s-4.409-9-7.178-9ZM7.195 23C5.102 23 1 19.378 1 15s4.09-8 6.177-8c.09 0 .22.032.362.083C5.621 8.627 4 11.647 4 15c0 3.48 1.562 6.487 3.407 7.986a1.63 1.63 0 0 1-.212.014ZM5 15c0-4.377 3.068-7.935 5.107-7.998C8.832 8.472 8 11.431 8 15s.827 6.507 2.093 7.982a1.647 1.647 0 0 1-.236.018C7.946 23 5 19.564 5 15Zm4 0c0-4.714 1.581-8 3-8s3 3.286 3 8-1.581 8-3 8-3-3.286-3-8Zm4.907 7.982C15.174 21.506 16 18.556 16 15s-.833-6.528-2.107-7.998C15.932 7.065 19 10.624 19 15c0 4.564-2.946 8-4.857 8-.081 0-.159-.006-.236-.018Zm2.898.018c-.072 0-.143-.005-.212-.014C18.439 21.488 20 18.481 20 15c0-3.353-1.622-6.374-3.539-7.917.142-.051.272-.083.362-.083 2.088 0 6.178 3.622 6.178 8s-4.102 8-6.195 8Z"/></svg>