<svg xmlns="http://www.w3.org/2000/svg" width="512" height="512" data-name="Layer 1" viewBox="0 0 24 24"><path d="M9.5 16C6.468 16 4 13.533 4 10.5S6.468 5 9.5 5 15 7.467 15 10.5 12.532 16 9.5 16Zm0-10C7.019 6 5 8.019 5 10.5S7.019 15 9.5 15s4.5-2.019 4.5-4.5S11.981 6 9.5 6Zm3.546 18C5.853 24 0 18.148 0 10.955V9.91C0 4.445 4.445 0 9.909 0a9.844 9.844 0 0 1 8.759 5.294A6.23 6.23 0 0 1 24 11.477c0 2.27-1.114 4.235-2.997 5.319C20.883 20.59 17.145 24 13.046 24ZM9.909 1C4.997 1 1 4.997 1 9.909v1.045c0 6.642 5.403 12.045 12.046 12.045 3.643 0 6.96-3.047 6.96-6.393V16.3l.267-.247c1.733-.885 2.728-2.553 2.728-4.578a5.232 5.232 0 0 0-4.708-5.222l-.275-.028-.122-.248C16.381 2.906 13.322.998 9.911.998ZM12 18a1 1 0 1 0 0 2 1 1 0 0 0 0-2Zm7-8a1 1 0 1 0 0 2 1 1 0 0 0 0-2Zm-4 6a1 1 0 1 0 0 2 1 1 0 0 0 0-2Z"/></svg>