<svg xmlns="http://www.w3.org/2000/svg" width="512" height="512" data-name="Layer 1" viewBox="0 0 24 24"><path d="M23.046 7.895c-1.214-1.18-3.182-1.16-4.401.06-.019.021-1.962 2.045-6.646 2.045s-6.623-2.021-6.65-2.05a3.124 3.124 0 0 0-4.377-.099 3.096 3.096 0 0 0-.974 2.175 3.095 3.095 0 0 0 .849 2.227c.079.083.718.746 1.918 1.52a4.194 4.194 0 0 0-1.355 1.619c-.993 2.09-.113 4.605 1.961 5.607C5.522 22.039 8.057 23 12 23s6.478-.962 8.629-2.001c2.074-1.001 2.954-3.517 1.961-5.607a4.178 4.178 0 0 0-1.354-1.62c1.191-.769 1.837-1.434 1.917-1.519 1.174-1.244 1.127-3.158-.107-4.358Zm-2.852 12.203C18.149 21.086 15.741 22 12 22s-6.149-.914-8.194-1.902c-1.581-.763-2.25-2.682-1.493-4.278a3.18 3.18 0 0 1 1.631-1.568 3.155 3.155 0 0 1 2.601.063c1.473.711 2.964 1.186 5.455 1.186s3.981-.474 5.455-1.186a3.165 3.165 0 0 1 4.233 1.506c.758 1.596.088 3.515-1.493 4.278Zm2.232-8.532c-.032.034-.79.826-2.226 1.67a4.118 4.118 0 0 0-3.18.178c-1.388.67-2.712 1.086-5.02 1.086s-3.632-.416-5.02-1.086a4.155 4.155 0 0 0-3.18-.178c-1.447-.85-2.193-1.635-2.226-1.669a2.101 2.101 0 0 1-.576-1.512 2.102 2.102 0 0 1 .661-1.477c.838-.791 2.172-.76 2.962.057.088.097 2.218 2.366 7.379 2.366s7.294-2.272 7.367-2.353c.821-.821 2.159-.836 2.982-.036a2.09 2.09 0 0 1 .078 2.955ZM12.5 6h-1V1h1v5ZM16 5h-1V1h1v4ZM9 5H8V1.011h1V5Z"/></svg>