<svg xmlns="http://www.w3.org/2000/svg" data-name="Layer 1" viewBox="0 0 24 24"><path d="M20.68 9H24V8h-3V5h-1v3.264l-2.095 1.73a5.95 5.95 0 0 0-1.378-2.903A4.95 4.95 0 0 0 17 5c0-2.757-2.243-5-5-5S7 2.243 7 5c0 .742.173 1.44.464 2.074a6.038 6.038 0 0 0-1.371 2.919L4 8.265V5.001H3v3H0v1h3.32l2.691 2.222c.022.596.129 1.169.314 1.709A6.92 6.92 0 0 0 5 17.001c0 3.86 3.14 7 7 7s7-3.14 7-7a6.99 6.99 0 0 0-1.328-4.059 5.96 5.96 0 0 0 .317-1.719l2.691-2.222ZM12 1c2.206 0 4 1.794 4 4s-1.794 4-4 4-4-1.794-4-4 1.794-4 4-4ZM8.021 7.995C8.934 9.205 10.37 10 12 10s3.06-.793 3.974-1.999A4.963 4.963 0 0 1 17 11c0 2.757-2.243 5-5 5s-5-2.243-5-5a4.94 4.94 0 0 1 1.021-3.005ZM18 17c0 3.309-2.691 6-6 6s-6-2.691-6-6c0-1.071.286-2.09.813-2.997C7.853 15.792 9.786 17 12 17s4.151-1.211 5.19-3.003c.525.908.81 1.944.81 3.003ZM11 5.5c0-.552.448-1 1-1s3 1 3 1-2.448 1-3 1-1-.448-1-1Z"/></svg>