<svg xmlns="http://www.w3.org/2000/svg" width="512" height="512" data-name="Layer 1" viewBox="0 0 24 24"><path d="M10 10c0 1.65 1.35 3 3 3h1.5c.83 0 1.5.67 1.5 1.5s-.67 1.5-1.5 1.5H12v1h2.5a2.5 2.5 0 0 0 1.76-4.28A3.003 3.003 0 0 0 18 10c0-1.65-1.35-3-3-3h-1.5c-.83 0-1.5-.67-1.5-1.5S12.67 4 13.5 4H16V3h-2.5a2.5 2.5 0 0 0-1.76 4.28A3.003 3.003 0 0 0 10 10Zm3-2h2c1.1 0 2 .9 2 2s-.9 2-2 2h-2c-1.1 0-2-.9-2-2s.9-2 2-2Zm7.5-8h-16A2.5 2.5 0 0 0 2 2.5v19A2.5 2.5 0 0 0 4.5 24H22V1.5c0-.83-.67-1.5-1.5-1.5Zm.5 1.5V19H7V1h13.5c.28 0 .5.22.5.5ZM4.5 1H6v18H4.5c-.56 0-1.08.19-1.5.5v-17C3 1.67 3.67 1 4.5 1Zm0 22c-.83 0-1.5-.67-1.5-1.5S3.67 20 4.5 20H21v3H4.5Z"/></svg>