<svg xmlns="http://www.w3.org/2000/svg" width="512" height="512" data-name="Layer 1" viewBox="0 0 24 24"><path d="M21.5 0h-9A2.503 2.503 0 0 0 10 2.5V24h14V2.5C24 1.122 22.879 0 21.5 0ZM23 23H11V2.5c0-.827.673-1.5 1.5-1.5h9c.827 0 1.5.673 1.5 1.5V23Zm-6-11c-2.206 0-4 1.794-4 4s1.794 4 4 4 4-1.794 4-4-1.794-4-4-4Zm0 7c-1.654 0-3-1.346-3-3s1.346-3 3-3 3 1.346 3 3-1.346 3-3 3Zm0-9.5c1.379 0 2.5-1.122 2.5-2.5S18.379 4.5 17 4.5 14.5 5.622 14.5 7s1.121 2.5 2.5 2.5Zm0-4c.827 0 1.5.673 1.5 1.5s-.673 1.5-1.5 1.5-1.5-.673-1.5-1.5.673-1.5 1.5-1.5ZM7 15a1 1 0 1 1 0 2 1 1 0 0 1 0-2Zm11 1a1 1 0 1 1-2 0 1 1 0 0 1 2 0ZM7 12c.347 0 .678.058 1 .142v1.042A2.966 2.966 0 0 0 7 13c-1.654 0-3 1.346-3 3s1.346 3 3 3c.352 0 .686-.072 1-.184v1.042A3.939 3.939 0 0 1 7 20c-2.206 0-4-1.794-4-4s1.794-4 4-4ZM2.5 0h6.262a4.49 4.49 0 0 0-.485 1H2.5C1.673 1 1 1.673 1 2.5V23h7v1H0V2.5C0 1.121 1.121 0 2.5 0ZM7 4.5c.356 0 .693.077 1 .212V5.89a1.487 1.487 0 0 0-1-.39c-.827 0-1.5.673-1.5 1.5S6.173 8.5 7 8.5c.386 0 .734-.15 1-.39v1.178A2.475 2.475 0 0 1 7 9.5C5.621 9.5 4.5 8.378 4.5 7S5.621 4.5 7 4.5Z"/></svg>