<svg xmlns="http://www.w3.org/2000/svg" width="512" height="512" data-name="Layer 1" viewBox="0 0 24 24"><path d="M21.831 1H24V0H12.512C6.615 0 .002 4.269.002 11.72c0 3.286 1.172 6.384 3.468 8.722C5.723 22.736 8.723 24 11.915 24h9.5A2.587 2.587 0 0 0 24 21.415c0-1.239-.987-3.146-1.1-3.36l-.25-.473L13.858 23h-.38a7.621 7.621 0 0 1-5.442-2.303C6.667 19.287 5.945 17.45 6 15.524c.946.63 2.652 1.476 5 1.476v-1c-2.526 0-4.235-1.12-4.871-1.619.257-1.302.877-2.515 1.742-3.527.62.973 1.939 2.147 4.129 2.147v-1c-2.158 0-3.094-1.313-3.404-1.896 1.413-1.29 3.266-2.104 5.21-2.104 4.463 0 7.753-3.034 8.024-7Zm.421 18.002c.319.689.748 1.76.748 2.413 0 .874-.711 1.585-1.585 1.585h-5.65l6.487-3.998ZM7.318 21.394c.396.409.832.775 1.298 1.094a10.841 10.841 0 0 1-4.433-2.746 11.03 11.03 0 0 1-2.96-5.555c.595.448 1.546.814 2.783.814.32-.005.669-.014 1.029-.051-.018.178-.03.357-.036.536-.065 2.202.758 4.301 2.318 5.908Zm-2.11-7.475A8.737 8.737 0 0 1 3.993 14c-2.076 0-2.835-1.278-2.984-1.626a10.426 10.426 0 0 1 1.752-6.225 5.816 5.816 0 0 0 4.29 4.144c-.881 1.053-1.529 2.294-1.843 3.626Zm2.674-4.5a4.806 4.806 0 0 1-4.301-4.355 11.699 11.699 0 0 1 6.501-3.814 3.997 3.997 0 0 0-1.083 2.738c0 1.499.827 2.809 2.049 3.498a9.27 9.27 0 0 0-3.167 1.933Zm2.117-5.43a3.015 3.015 0 0 1 2.635-2.987h8.193c-.271 3.403-3.173 5.999-6.828 5.999h-.988a3.015 3.015 0 0 1-3.012-3.012Zm4 1.012a1 1 0 1 1 0-2 1 1 0 0 1 0 2Z"/></svg>