<svg xmlns="http://www.w3.org/2000/svg" width="512" height="512" data-name="Layer 1" viewBox="0 0 24 24"><path d="M24 16.5c0 1.557-.795 2.93-2 3.738v-1.297c.617-.631 1-1.492 1-2.442 0-1.93-1.57-3.5-3.5-3.5h-.609l-.118-.333a4.005 4.005 0 0 0-3.772-2.667 4.004 4.004 0 0 0-3.976 4.446l.06.554h-.557a2.508 2.508 0 0 0-2.527 2.5c0 .814.396 1.531 1 1.988v1.161a3.495 3.495 0 0 1-2-3.149 3.505 3.505 0 0 1 3-3.465v-.035c0-2.757 2.243-5 5-5A5.01 5.01 0 0 1 19.585 12a4.505 4.505 0 0 1 4.416 4.499Zm-19-7C5 7.019 7.019 5 9.5 5c1.646 0 3.073.897 3.857 2.219.14.222.224.479.224.479l.898-.521-.002-.004 3.479-2.025-.504-.863-3.481 2.026a5.556 5.556 0 0 0-1.302-1.299l2.021-3.475-.865-.502-2.021 3.474a5.465 5.465 0 0 0-1.805-.486V0h-1v4.023a5.481 5.481 0 0 0-1.806.484L5.175 1.035l-.865.502 2.019 3.472a5.535 5.535 0 0 0-1.305 1.3L1.548 4.285l-.504.863 3.474 2.023A5.431 5.431 0 0 0 4.023 9H0v1h4.023c.059.648.232 1.264.497 1.828l-3.476 2.024.504.863 3.479-2.025c.352.491.783.923 1.275 1.276a5.56 5.56 0 0 1 .728-.711 4.496 4.496 0 0 1-2.029-3.754ZM15 24h1v-5h-1v5Zm4 0h1v-5h-1v5Zm-8 0h1v-5h-1v5Z"/></svg>