<svg xmlns="http://www.w3.org/2000/svg" width="512" height="512" data-name="Layer 1" viewBox="0 0 24 24"><path d="M12 6c-1.654 0-3 1.346-3 3a3.005 3.005 0 0 0 2.5 2.958V24h1V11.958A3.005 3.005 0 0 0 15 9c0-1.654-1.346-3-3-3Zm0 5c-1.103 0-2-.897-2-2s.897-2 2-2 2 .897 2 2-.897 2-2 2ZM7.05 4.125C5.728 5.447 5 7.205 5 9.075s.728 3.628 2.05 4.95l-.707.707c-3.119-3.119-3.119-8.195 0-11.314l.707.707Zm10.606 10.607-.707-.707c1.322-1.322 2.05-3.08 2.05-4.95s-.728-3.627-2.05-4.95l.707-.707c3.119 3.119 3.119 8.195 0 11.314ZM4.221 16.853l-.707.707C-1.164 12.882-1.164 5.269 3.515.59l.707.707c-4.289 4.289-4.289 11.267 0 15.557Zm16.264.707-.707-.707c4.289-4.289 4.289-11.267 0-15.556l.707-.707c4.679 4.679 4.679 12.292 0 16.97Z"/></svg>