<svg xmlns="http://www.w3.org/2000/svg" width="512" height="512" data-name="Layer 1" viewBox="0 0 24 24"><path d="m22.731 6.634 1.246-6.641-4.98 2.263C17.026.837 14.609-.001 12-.001S6.974.837 5.003 2.257L.023-.007l1.246 6.641A11.929 11.929 0 0 0 0 12c0 6.617 5.383 12 12 12s12-5.383 12-12c0-1.928-.458-3.75-1.269-5.366Zm-.093-4.935-.677 3.616a12.085 12.085 0 0 0-2.084-2.361l2.762-1.255Zm-21.277 0 2.762 1.255a12.085 12.085 0 0 0-2.084 2.361l-.678-3.616ZM12 23C5.935 23 1 18.065 1 12S5.935 1 12 1s11 4.935 11 11-4.935 11-11 11Zm4.667-7.873.666.746C17.236 15.959 14.919 18 12 18s-5.236-2.041-5.333-2.127l.666-.746C7.354 15.146 9.47 17 12 17s4.646-1.854 4.667-1.873Zm1.044-6.218.578.816-2.449 1.732a1 1 0 1 1-1.161-.404l3.032-2.144Zm-9.569 2.577L5.707 9.722l.586-.81 2.912 2.108a1 1 0 1 1-1.063.465Z"/></svg>