<svg xmlns="http://www.w3.org/2000/svg" width="512" height="512" data-name="Layer 1" viewBox="0 0 24 24"><path d="M24 2.5A2.5 2.5 0 0 0 21.5 0h-19A2.5 2.5 0 0 0 0 2.5V8h1v16h22V8h1V2.5ZM22 23H2V8h20v15Zm1-16H1V2.5C1 1.67 1.67 1 2.5 1h19c.83 0 1.5.67 1.5 1.5V7ZM9.5 17v.6c0 .77.63 1.4 1.4 1.4h2.21c.77 0 1.4-.63 1.4-1.4 0-.68-.49-1.26-1.17-1.38l-2.83-.47a2.392 2.392 0 0 1 .4-4.75h.6v-1h1v1h.6c1.32 0 2.4 1.07 2.4 2.39V14h-1v-.61c0-.77-.63-1.39-1.4-1.39H10.9c-.77 0-1.4.63-1.4 1.39 0 .68.49 1.26 1.17 1.38l2.83.47c1.16.19 2 1.19 2 2.36a2.4 2.4 0 0 1-2.4 2.4h-.6v1h-1v-1h-.6a2.4 2.4 0 0 1-2.4-2.4V17h1Z"/></svg>