<svg xmlns="http://www.w3.org/2000/svg" width="512" height="512" data-name="Layer 1" viewBox="0 0 24 24"><path d="M19 16a1 1 0 1 1-2 0 1 1 0 0 1 2 0Zm-3 2a1 1 0 1 0 0 2 1 1 0 0 0 0-2Zm3 1a1 1 0 1 0 2 0 1 1 0 0 0-2 0Zm4.075-7.587A9.442 9.442 0 0 1 24 15.5v5c0 1.378-1.121 2.5-2.5 2.5H3c-1.654 0-3-1.346-3-3v-4.5c0-2.761 1.191-5.242 3.077-6.98.052.402.126.803.217 1.189a8.46 8.46 0 0 0-2.295 5.79v4.5c0 1.103.897 2 2 2s2-.897 2-2v-4.5c0-1.462.332-2.848.925-4.087-.272-.693-.925-2.506-.925-3.913a3.505 3.505 0 0 1 3.166-3.484c.513-1.475 2.207-2.377 3.751-1.866.66-.726 1.6-1.149 2.583-1.149s1.923.423 2.583 1.149c1.55-.511 3.245.396 3.754 1.875 1.794.185 3.163 1.673 3.163 3.476 0 1.407-.654 3.22-.925 3.913Zm-16.5-1.144A9.5 9.5 0 0 1 14.501 6a9.5 9.5 0 0 1 7.926 4.269c.267-.794.574-1.897.574-2.769 0-1.378-1.121-2.5-2.5-2.5h-.409l-.131-.397c-.243-1.211-1.619-1.972-2.816-1.402l-.377.18-.244-.338C16.045 2.38 15.308 2 14.502 2s-1.544.38-2.022 1.043l-.244.338-.376-.18c-1.199-.571-2.573.19-2.817 1.402l-.081.401-.51-.008c-1.328.003-2.449 1.125-2.449 2.503 0 .872.307 1.975.574 2.769ZM23.001 15.5c0-4.687-3.813-8.5-8.5-8.5S6 10.813 6 15.5V20c0 .768-.29 1.469-.766 2H21.5c.827 0 1.5-.673 1.5-1.5v-5Z"/></svg>