<svg xmlns="http://www.w3.org/2000/svg" width="512" height="512" data-name="Layer 1" viewBox="0 0 24 24"><path d="M9.868 9.582c.193.358.172.792-.053 1.132l-1.754 3.522-.895-.447 1.785-3.575c.053-.087.055-.123.036-.159S8.937 10 8.896 10h-2.78c-.356 0-.683-.164-.896-.451a1.103 1.103 0 0 1-.171-.987l2.185-4.068.88.475-2.113 3.915c0 .03.011.055.023.07a.111.111 0 0 0 .092.047h2.78c.407 0 .78.223.972.582ZM24 1v4.5c0 .827-.673 1.5-1.5 1.5H22v10.5c0 1.379-1.122 2.5-2.5 2.5H15v4H0V2.5C0 1.121 1.122 0 2.5 0h10C13.878 0 15 1.121 15 2.5V19h4.5c.827 0 1.5-.673 1.5-1.5V7h-.5c-.827 0-1.5-.673-1.5-1.5V1h1v2h3V1h1ZM14 23V10h-2V9h2V2.5c0-.827-.673-1.5-1.5-1.5h-10C1.673 1 1 1.673 1 2.5V9h2v1H1v13h13Zm9-19h-3v1.5a.5.5 0 0 0 .5.5h2a.5.5 0 0 0 .5-.5V4Z"/></svg>