<svg xmlns="http://www.w3.org/2000/svg" width="512" height="512" data-name="Layer 1" viewBox="0 0 24 24"><path d="M12 2C5.271 2 0 4.855 0 8.5v7C0 19.145 5.271 22 12 22s12-2.855 12-6.5v-7C24 4.855 18.729 2 12 2Zm0 1c5.962 0 11 2.519 11 5.5S17.962 14 12 14 1 11.481 1 8.5 6.038 3 12 3ZM7 14.423v5.949c-1.124-.296-2.136-.687-3-1.149v-5.849c.889.427 1.896.781 3 1.049Zm1 .213c1.098.204 2.272.325 3.5.351v6a20.13 20.13 0 0 1-3.5-.383v-5.968Zm4.5.351a21.721 21.721 0 0 0 3.5-.351v5.968a20.13 20.13 0 0 1-3.5.383v-6Zm4.5-.563a15.318 15.318 0 0 0 3-1.049v5.849c-.864.462-1.876.853-3 1.149v-5.949ZM1 15.5v-4.365c.501.627 1.18 1.196 2 1.698v5.779c-1.253-.892-2-1.967-2-3.111Zm22 0c0 1.145-.747 2.219-2 3.111v-5.779c.82-.501 1.499-1.071 2-1.698v4.365Z"/></svg>