<svg xmlns="http://www.w3.org/2000/svg" width="512" height="512" data-name="Layer 1" viewBox="0 0 24 24"><path d="M12 1C5.383 1 0 6.383 0 13c0 3.912 1.948 7.616 5.213 9.909l.129.091h13.316l.129-.091C22.052 20.616 24 16.912 24 13c0-6.617-5.383-12-12-12Zm6.34 21H5.66C2.782 19.916 1 16.481 1 13 1 6.935 5.935 2 12 2s11 4.935 11 11c0 3.481-1.782 6.916-4.66 9ZM12 11c-.37 0-.717.102-1.015.278L6.738 7.031l-.707.707 4.247 4.247A2.002 2.002 0 0 0 12 15c1.103 0 2-.897 2-2s-.897-2-2-2Zm0 3a1 1 0 1 1 0-2 1 1 0 0 1 0 2Zm5.657 4.657-.707-.707c2.729-2.729 2.729-7.171 0-9.9-2.107-2.105-5.229-2.579-7.801-1.435l-.752-.752c3-1.511 6.758-1.021 9.26 1.481 3.118 3.119 3.118 8.195 0 11.314ZM7.05 17.95l-.707.707c-2.501-2.501-2.991-6.26-1.48-9.26l.752.752c-1.144 2.572-.67 5.694 1.435 7.801Z"/></svg>