<svg xmlns="http://www.w3.org/2000/svg" width="512" height="512" data-name="Layer 1" viewBox="0 0 24 24"><path d="M5.64 12.64c.97-.97 2.11-1.68 3.36-2.13v1.07c-.98.4-1.88.99-2.66 1.76l-.71-.71ZM1.39 8.39C3.5 6.28 6.13 4.87 9 4.29V3.27c-3.13.6-6.01 2.11-8.31 4.42l.71.71ZM15 11.58c.98.4 1.88.99 2.66 1.76l.71-.71a9.065 9.065 0 0 0-3.36-2.13v1.07Zm0-8.3V4.3c2.86.58 5.49 1.98 7.61 4.1l.71-.71c-2.3-2.3-5.18-3.82-8.31-4.41ZM14 19c0 1.1-.9 2-2 2s-2-.9-2-2 .9-2 2-2 2 .9 2 2Zm-1 0c0-.55-.45-1-1-1s-1 .45-1 1 .45 1 1 1 1-.45 1-1Zm-.5-16h-1v12h1V3Z"/></svg>