<svg xmlns="http://www.w3.org/2000/svg" width="512" height="512" data-name="Layer 1" viewBox="0 0 24 24"><path d="m15.938 17.961.922.386-2.348 5.615-.922-.386 2.348-5.615ZM9.32 23.576l.923.386 2.348-5.615-.923-.386-2.348 5.615Zm-4.289 0 .923.386 2.349-5.615-.923-.386-2.349 5.615ZM12.861 12h3.138v-1h-3.138l1.56-2.722-.867-.497-1.556 2.714-1.556-2.714-.867.497L11.135 11H7.998v1h3.137l-1.56 2.722.867.497 1.556-2.714 1.556 2.714.867-.497L12.861 12Zm4.14-6.977A7.724 7.724 0 0 0 9.75 0C5.477 0 2 3.477 2 7.75c0 .763.116 1.523.345 2.266A5.439 5.439 0 0 0 0 14.5a5.51 5.51 0 0 0 4.406 5.39l.402-.96c-2.151-.336-3.807-2.186-3.807-4.43 0-1.583.822-3.021 2.2-3.847l.354-.212-.141-.388a6.736 6.736 0 0 1-.412-2.304 6.758 6.758 0 0 1 6.75-6.75 6.733 6.733 0 0 1 6.417 4.662l.11.338.355.007c3.511.071 6.367 2.983 6.367 6.493 0 2.735-1.761 5.198-4.081 6.106l-.504 1.205c3.103-.743 5.585-3.841 5.585-7.312 0-3.933-3.107-7.216-6.997-7.477Z"/></svg>