<svg xmlns="http://www.w3.org/2000/svg" width="512" height="512" data-name="Layer 1" viewBox="0 0 24 24"><path d="M23.614 14.068a2.168 2.168 0 0 0-1.292-.854l.823-.823c.776-.776.904-1.997.296-2.841a2.17 2.17 0 0 0-1.532-.894c.263-.677.197-1.449-.227-2.038a2.166 2.166 0 0 0-1.584-.9 2.151 2.151 0 0 0-1.701.625l-.305.305a2.014 2.014 0 0 0-.342-.79 2.166 2.166 0 0 0-1.584-.9 2.171 2.171 0 0 0-1.701.625l-4.464 4.464V8.574c0-1.274-.896-2.38-2.084-2.573a2.523 2.523 0 0 0-2.035.562 2.496 2.496 0 0 0-.881 1.905v6.998c0 1.736.676 3.368 1.904 4.596l1.979 1.979c1.283 1.282 2.967 1.923 4.652 1.923s3.369-.641 4.652-1.923l5.132-5.132c.776-.776.904-1.997.296-2.841Zm-1.003 2.134-5.132 5.132a5.587 5.587 0 0 1-7.89 0L7.61 19.355a5.464 5.464 0 0 1-1.611-3.889V8.468a1.5 1.5 0 0 1 1.756-1.479c.709.115 1.244.797 1.244 1.586v3.887l6.171-6.171a1.158 1.158 0 0 1 1.768.152c.324.451.242 1.117-.191 1.55l-4.215 4.215.707.707 5.864-5.864a1.158 1.158 0 0 1 1.768.152c.324.45.242 1.116-.191 1.549l-5.801 5.802.707.707 5.278-5.278c.24-.241.573-.362.913-.335.345.028.648.201.854.487.324.451.242 1.117-.191 1.55L17.225 16.9l.707.707 3.105-3.105a1.162 1.162 0 0 1 1.767.152c.324.451.242 1.117-.191 1.55ZM7.468 23.455c.192.192.392.373.598.544a6.557 6.557 0 0 1-4.184-1.907l-1.979-1.979a6.455 6.455 0 0 1-1.904-4.596V8.519c0-.734.321-1.429.881-1.905a2.52 2.52 0 0 1 2.035-.562c.232.038.453.111.659.213a4.46 4.46 0 0 0-.389.923 1.488 1.488 0 0 0-1.657.188 1.5 1.5 0 0 0-.529 1.143v6.998c0 1.447.587 2.865 1.611 3.889l1.979 1.979a5.545 5.545 0 0 0 2.144 1.335l.735.735ZM18 4c1.103 0 2-.897 2-2s-.897-2-2-2-2 .897-2 2 .897 2 2 2Zm0-3c.551 0 1 .449 1 1s-.449 1-1 1-1-.449-1-1 .449-1 1-1ZM4.585 5.04c.136-.116.292-.2.44-.298-.008-.081-.024-.159-.024-.242 0-1.378 1.122-2.5 2.5-2.5s2.5 1.122 2.5 2.5c0 .085-.017.164-.025.247.316.217.608.467.861.756.055-.183.1-.369.129-.561A2.503 2.503 0 0 0 14.001 2.5c0-1.378-1.122-2.5-2.5-2.5A2.502 2.502 0 0 0 9.23 1.458 3.478 3.478 0 0 0 7.501 1c-1.93 0-3.5 1.57-3.5 3.5 0 .346.066.674.16.99.137-.154.266-.314.425-.449ZM11.5 1c.827 0 1.5.673 1.5 1.5a1.502 1.502 0 0 1-2.053 1.394 3.491 3.491 0 0 0-.895-1.786A1.502 1.502 0 0 1 11.5 1Z"/></svg>