<svg xmlns="http://www.w3.org/2000/svg" width="512" height="512" data-name="Layer 1" viewBox="0 0 24 24"><path d="M24 5.5v13.231c0 .618-.229 1.214-.645 1.676L20.158 24h-1.344l3.799-4.263A1.5 1.5 0 0 0 23 18.731V5.5c0-.827-.673-1.5-1.5-1.5S20 4.673 20 5.5v9h-.005c0 .57-.193 1.14-.58 1.601l-3.098 3.206-.719-.695 3.074-3.179c.219-.262.327-.628.327-.972s-.137-.689-.382-.962a1.5 1.5 0 0 0-2.113-.116l-3.849 3.542c.222.38.343.815.343 1.262v5.814h-1v-5.814c0-.418-.177-.821-.484-1.104l-4.026-3.705a1.497 1.497 0 0 0-2.108.12 1.503 1.503 0 0 0-.032 1.96l3.051 3.153-.719.695-3.074-3.179a2.541 2.541 0 0 1-.6-1.627h-.008v-9c0-.827-.673-1.5-1.5-1.5s-1.5.673-1.5 1.5v13.231c0 .371.137.729.387 1.006L5.184 24H3.84L.643 20.407a2.503 2.503 0 0 1-.645-1.676V5.5c0-1.378 1.122-2.5 2.5-2.5s2.5 1.122 2.5 2.5v6.998a2.503 2.503 0 0 1 3.162.138l3.838 3.532 3.833-3.528a2.503 2.503 0 0 1 3.167-.143V5.5c0-1.378 1.122-2.5 2.5-2.5s2.5 1.122 2.5 2.5Z"/></svg>