<svg xmlns="http://www.w3.org/2000/svg" width="512" height="512" data-name="Layer 1" viewBox="0 0 24 24"><path d="M23.162 6.354c-.902.831-2.346 1.942-4.162 2.6V4.001h-1v5h-2V2h-.5c-1.079 0-3.21.268-5.555.824C7.348 1.062 4.423.133 1.113.02L.015-.018.844 1c.827 1.01 1.954 2.389 2.186 4.422C1.238 6.506.001 7.86.001 9.5c0 1.582 1.152 2.898 2.842 3.962L.021 23.013 0 24h5.846l2.212-8.325C11.091 16.572 14.136 17 15.5 17h.5v-7h2v5h1v-4.964c1.83.653 3.266 1.764 4.159 2.596l.841.782V5.582l-.838.771ZM2.192 1.087c2.395.216 4.369.873 6.336 2.102-1.58.443-3.181 1.012-4.562 1.714-.28-1.641-1.061-2.882-1.774-3.817ZM5.077 23h-4.01l2.666-9.024c1.025.542 2.182 1.008 3.37 1.401L5.077 23ZM15 15.987C10.896 15.785 1 13.282 1 9.5s9.896-6.285 14-6.487v12.975Zm8-4.813a13.436 13.436 0 0 0-2.692-1.682A13.69 13.69 0 0 0 23 7.806v3.367Z"/></svg>