<svg xmlns="http://www.w3.org/2000/svg" width="512" height="512" data-name="Layer 1" viewBox="0 0 24 24"><path d="M24 21h-2.29l2.25 2.25-.71.71L16.29 17C14.4 16.91 13 15.28 13 13.13v-2.25C13 8.67 14.48 7 16.45 7h.33c1.34 0 2.53.9 3.11 2.36l-.93.37C18.53 8.66 17.7 8 16.78 8h-.33C15.03 8 14 9.21 14 10.88v2.25c0 1.67 1.03 2.88 2.45 2.88h.33c.9 0 1.73-.65 2.16-1.69l.92.38c-.46 1.12-1.3 1.91-2.28 2.19L20.69 20h2.29V5.5c0-.83-.67-1.5-1.5-1.5H4.71l3 3h.07c1.34 0 2.53.9 3.11 2.36l-.93.37C9.53 8.66 8.7 8 7.78 8h-.33C6.03 8 5 9.21 5 10.88v2.25c0 1.67 1.03 2.88 2.45 2.88h.33c.9 0 1.73-.65 2.16-1.69l.92.38c-.59 1.42-1.77 2.3-3.09 2.3h-.33c-1.97 0-3.45-1.67-3.45-3.88v-2.25c0-1.81 1-3.26 2.45-3.72L.05.75l.7-.7L3.71 3H21.5A2.5 2.5 0 0 1 24 5.5V21ZM1 20V5.5c0-.28.08-.53.21-.75l-.72-.72C.19 4.44 0 4.95 0 5.5V21h17.46l-1-1H1Z"/></svg>