<svg xmlns="http://www.w3.org/2000/svg" width="512" height="512" data-name="Layer 1" viewBox="0 0 24 24"><path d="m.814 14.574 5.055 3.859 17.935-8.558-1.086-2.348a2.6 2.6 0 0 0-3.441-1.264l-3.449 1.66-7.15-4.415a2.597 2.597 0 0 0-2.635-.268L3.1 4.624l6.899 6.105-3.938 1.896-3.414-1.493a1.96 1.96 0 0 0-1.505.062 1.95 1.95 0 0 0-1.134 1.605 1.94 1.94 0 0 0 .806 1.775ZM4.9 4.882l1.565-.735c.528-.247 1.148-.182 1.652.189l6.639 4.103-3.781 1.82L4.9 4.882Zm-3.896 8.009a.958.958 0 0 1 .558-.79.984.984 0 0 1 .414-.092c.104 0 .206.018.298.051l3.806 1.665L19.699 7.17c.385-.177.816-.194 1.215-.048s.717.439.896.825l.671 1.451-16.491 7.87-4.583-3.498a.96.96 0 0 1-.403-.879ZM24 23v1H0v-1h24Z"/></svg>