<svg xmlns="http://www.w3.org/2000/svg" width="512" height="512" data-name="Layer 1" viewBox="0 0 24 24"><path d="M24 3.5V0h-1c0 1.654-1.346 3-3 3H6.5A6.508 6.508 0 0 0 0 9.5v.5h3v9h-.5C1.121 19 0 20.121 0 21.5S1.121 24 2.5 24H24v-1H2.5c-.827 0-1.5-.673-1.5-1.5S1.673 20 2.5 20H24v-1h-4V9.5a6.51 6.51 0 0 0 4-6ZM6.5 4H20a3.99 3.99 0 0 0 3-1.357V3.5C23 6.532 20.532 9 17.5 9H1.022C1.275 6.2 3.635 4 6.5 4Zm4.5 6v9H8v-9h3Zm1 0h3v9h-3v-9Zm-8 0h3v9H4v-9Zm15 9h-3v-9h1.5a6.51 6.51 0 0 0 1.5-.175V19Z"/></svg>