<svg xmlns="http://www.w3.org/2000/svg" width="512" height="512" data-name="Layer 1" viewBox="0 0 24 24"><path d="M11.5 5C12.878 5 14 3.879 14 2.5S12.878 0 11.5 0 9 1.121 9 2.5 10.122 5 11.5 5Zm0-4c.827 0 1.5.673 1.5 1.5S12.327 4 11.5 4 10 3.327 10 2.5 10.673 1 11.5 1ZM5.201 17.646l.507.303L4.829 20H0v-1h4.17l.691-1.613c.113.086.217.181.34.258ZM24 12c0 4.15-.627 12-3 12-2.03 0-2.78-5.741-2.955-10h.995c.218 5.835 1.348 9 1.96 9 .679 0 2-3.883 2-11S21.679 1 21 1s-2 3.883-2 11h-3.783l-2.572-4.273a1.423 1.423 0 0 0-.089-.13l-3.057 7.147-.864-.547L11.7 7.04a1.494 1.494 0 0 0-.341-.041H8.777l-2.613 6.244a1.496 1.496 0 0 0 .587 1.833l5.248 3.14v5.783h-1v-5.217l-4.772-2.854a2.498 2.498 0 0 1-.987-3.067L7.692 7H3.808l-1.862 3.724-.895-.447 2.138-4.276h8.169c.872 0 1.692.464 2.142 1.211l2.281 3.789h2.229c.094-4.293.795-11 2.989-11 2.373 0 3 7.85 3 12Z"/></svg>