<svg xmlns="http://www.w3.org/2000/svg" width="512" height="512" data-name="Layer 1" viewBox="0 0 24 24"><path d="M12 0C5.383 0 0 5.383 0 12s5.383 12 12 12 12-5.383 12-12S18.617 0 12 0Zm0 23C5.935 23 1 18.065 1 12S5.935 1 12 1s11 4.935 11 11-4.935 11-11 11Zm7.521-15.949a8.924 8.924 0 0 0-2.572-2.571l-.417-.273-3.898 5.907a1.96 1.96 0 0 0-.634-.113c-.218 0-.424.044-.621.109L7.467 4.207l-.416.273a8.924 8.924 0 0 0-2.572 2.571A8.96 8.96 0 0 0 3 11.999v.498l7.074.012c.085.32.244.608.463.844-.437.664-2.707 4.086-3.624 5.468l-.276.418.418.275c1.473.972 3.183 1.485 4.945 1.485s3.473-.514 4.945-1.485l.417-.275-3.891-5.896a1.99 1.99 0 0 0 .455-.834l7.073-.012v-.498a8.938 8.938 0 0 0-1.478-4.948ZM13 12a1 1 0 1 1-2 0 1 1 0 0 1 2 0ZM5.314 7.6a7.937 7.937 0 0 1 1.878-1.998l3.344 5.046a2.002 2.002 0 0 0-.468.861l-6.054-.01a7.948 7.948 0 0 1 1.3-3.899Zm2.718 11.344c2.143-3.231 2.988-4.507 3.311-5.063.207.073.426.12.657.12.223 0 .433-.045.633-.112l3.336 5.055c-2.414 1.387-5.522 1.386-7.937 0Zm5.9-7.434a1.988 1.988 0 0 0-.46-.852l3.337-5.055A7.946 7.946 0 0 1 18.686 7.6a7.955 7.955 0 0 1 1.3 3.899l-6.054.01Z"/></svg>