<svg xmlns="http://www.w3.org/2000/svg" width="512" height="512" data-name="Layer 1" viewBox="0 0 24 24"><path d="M8 9h8v1.23L9.268 16H16v1H8v-1.23L14.731 10H8V9Zm11.74 11.814 2.139 2.35-.74.673L19 21.487c-1.902 1.57-4.338 2.514-6.991 2.514s-5.089-.944-6.991-2.514l-2.139 2.35-.739-.673 2.138-2.35A10.964 10.964 0 0 1 1.009 13c0-5.897 4.668-10.711 10.5-10.975V0h1v2.025c5.832.264 10.5 5.078 10.5 10.975 0 3.054-1.253 5.819-3.269 7.814ZM12.009 23c5.514 0 10-4.486 10-10s-4.486-10-10-10-10 4.486-10 10 4.486 10 10 10ZM22.743 4.812l.795-.607A14.477 14.477 0 0 0 19.31.471l-.504.863a13.515 13.515 0 0 1 3.937 3.479ZM5.206 1.337 4.701.474A14.479 14.479 0 0 0 .462 4.229l.796.605a13.507 13.507 0 0 1 3.948-3.497Z"/></svg>