<svg xmlns="http://www.w3.org/2000/svg" width="512" height="512" data-name="Layer 1" viewBox="0 0 24 24"><path d="M21 20.293V18.5c0-2.481-2.019-4.5-4.5-4.5h-1.793l-2.017-2.017A6.035 6.035 0 0 0 18 6a6.033 6.033 0 0 0-6.026-6.026 6.035 6.035 0 0 0-5.983 5.31L.704-.003l-.707.707 23.299 23.299.707-.707L21 20.293ZM16.5 15c1.93 0 3.5 1.57 3.5 3.5v.793L15.707 15h.793ZM6.949 6c0-2.771 2.254-5.026 5.025-5.026S17 3.228 17 6a5.03 5.03 0 0 1-5.273 5.02L6.955 6.248A5.1 5.1 0 0 1 6.949 6Zm3.516 8 1 1H7.501c-1.93 0-3.5 1.57-3.5 3.5V24h-1v-5.5c0-2.481 2.019-4.5 4.5-4.5h2.964Z"/></svg>