<svg xmlns="http://www.w3.org/2000/svg" width="512" height="512" data-name="Layer 1" viewBox="0 0 24 24"><path d="m21.514 15.193 1.082-1.082-.707-.707-1.082 1.082a4.479 4.479 0 0 0-2.307-.958V12h-1v1.528c-.867.096-1.66.44-2.307.958l-1.082-1.082-.707.707 1.082 1.082a4.479 4.479 0 0 0-.958 2.307h-3.056a4.475 4.475 0 0 0-.958-2.307l1.082-1.082-.707-.707-1.082 1.082a4.479 4.479 0 0 0-2.307-.958V12h-1v1.528c-.867.096-1.66.44-2.307.958l-1.082-1.082-.707.707 1.082 1.082a4.479 4.479 0 0 0-.958 2.307H0v1h1.528c.096.867.44 1.66.958 2.307l-1.082 1.082.707.707 1.082-1.082a4.479 4.479 0 0 0 2.307.958V24h1v-1.528a4.475 4.475 0 0 0 2.307-.958l1.082 1.082.707-.707-1.082-1.082a4.479 4.479 0 0 0 .958-2.307h3.056c.096.867.44 1.66.958 2.307l-1.082 1.082.707.707 1.082-1.082a4.479 4.479 0 0 0 2.307.958V24h1v-1.528a4.475 4.475 0 0 0 2.307-.958l1.082 1.082.707-.707-1.082-1.082a4.479 4.479 0 0 0 .958-2.307H24v-1h-1.528a4.475 4.475 0 0 0-.958-2.307ZM6 21.5c-1.93 0-3.5-1.57-3.5-3.5s1.57-3.5 3.5-3.5 3.5 1.57 3.5 3.5-1.57 3.5-3.5 3.5Zm12 0c-1.93 0-3.5-1.57-3.5-3.5s1.57-3.5 3.5-3.5 3.5 1.57 3.5 3.5-1.57 3.5-3.5 3.5ZM21 7h-.759L15.415.942A2.485 2.485 0 0 0 13.46 0H9.001v7H0v5.721c.306-.348.639-.67 1-.96v-3.76h20c1.103 0 2 .897 2 2v1.76c.361.29.694.613 1 .96V10c0-1.654-1.346-3-3-3ZM10 1h3.459c.459 0 .887.206 1.173.565L18.962 7H10V1Z"/></svg>