<svg xmlns="http://www.w3.org/2000/svg" width="512" height="512" data-name="Layer 1" viewBox="0 0 24 24"><path d="M14.75 7c-1.2 0-2.19.55-2.75 1.43C11.44 7.55 10.45 7 9.25 7 7.46 7 6 8.57 6 10.5c0 3.36 5.48 7.25 5.71 7.41l.29.2.29-.2c.23-.16 5.71-4.05 5.71-7.41C18 8.57 16.54 7 14.75 7ZM12 16.88c-1.63-1.2-5-4.16-5-6.38C7 9.12 8.01 8 9.25 8c1.32 0 2.25.92 2.25 2.23V11h1v-.77c0-1.31.93-2.23 2.25-2.23C15.99 8 17 9.12 17 10.5c0 2.22-3.37 5.18-5 6.38ZM21.5 0h-19A2.5 2.5 0 0 0 0 2.5V24h24V2.5A2.5 2.5 0 0 0 21.5 0ZM23 23H1V2.5C1 1.67 1.67 1 2.5 1h19c.83 0 1.5.67 1.5 1.5V23Z"/></svg>