<svg xmlns="http://www.w3.org/2000/svg" width="512" height="512" data-name="Layer 1" viewBox="0 0 24 24"><path d="m12 23.987-7.067-6.912C1.03 13.172 1.03 6.828 4.929 2.929 6.817 1.04 9.329 0 12 0s5.182 1.04 7.071 2.929c3.899 3.899 3.899 10.243 0 14.142L12 23.987ZM12 1a8.94 8.94 0 0 0-6.364 2.636c-3.509 3.509-3.509 9.219 0 12.728L12 22.589l6.368-6.229c3.505-3.505 3.505-9.215-.004-12.724A8.94 8.94 0 0 0 12 1Zm.5 13.133c0-.98.667-2.208 1.428-2.628a4.026 4.026 0 0 0 2.009-4.226c-.283-1.611-1.605-2.934-3.216-3.216a4.023 4.023 0 0 0-3.292.873A3.994 3.994 0 0 0 8 8h1c0-.889.391-1.727 1.072-2.298a2.982 2.982 0 0 1 2.476-.653 3.007 3.007 0 0 1 2.404 2.404c.229 1.3-.363 2.547-1.506 3.177-1.073.591-1.946 2.163-1.946 3.504v.867h1v-.867ZM13 17a1 1 0 0 0-2 0 1 1 0 0 0 2 0Z"/></svg>