<svg xmlns="http://www.w3.org/2000/svg" width="512" height="512" data-name="Layer 1" viewBox="0 0 24 24"><path d="M12 0C5.383 0 0 5.383 0 12s5.383 12 12 12 12-5.383 12-12S18.617 0 12 0Zm0 23C5.935 23 1 18.065 1 12S5.935 1 12 1s11 4.935 11 11-4.935 11-11 11Zm2.473-7c.325.318.527.761.527 1.25 0 .965-.785 1.75-1.75 1.75H11v-1h2.25a.75.75 0 0 0 0-1.5H12v-1h1.25a.75.75 0 0 0 0-1.5H11v-1h2.25c.965 0 1.75.785 1.75 1.75 0 .489-.202.932-.527 1.25ZM10 11H9c0-1.43-.785-3-1.5-3S6 9.57 6 11H5c0-1.888 1.069-4 2.5-4S10 9.112 10 11Zm9 0h-1c0-1.43-.785-3-1.5-3S15 9.57 15 11h-1c0-1.888 1.069-4 2.5-4S19 9.112 19 11Z"/></svg>