<svg xmlns="http://www.w3.org/2000/svg" width="512" height="512" data-name="Layer 1" viewBox="0 0 24 24"><path d="M5.5 5a2.5 2.5 0 0 0 0-5 2.5 2.5 0 0 0 0 5Zm0-4C6.33 1 7 1.67 7 2.5S6.33 4 5.5 4 4 3.33 4 2.5 4.67 1 5.5 1Zm2 5h-4A2.5 2.5 0 0 0 1 8.5V17h2v7h1v-7h3v7h1v-7h2V8.5A2.5 2.5 0 0 0 7.5 6ZM9 16H2V8.5C2 7.67 2.67 7 3.5 7h4C8.33 7 9 7.67 9 8.5V16Zm9.5-11a2.5 2.5 0 0 0 0-5 2.5 2.5 0 0 0 0 5Zm0-4c.83 0 1.5.67 1.5 1.5S19.33 4 18.5 4 17 3.33 17 2.5 17.67 1 18.5 1ZM23 8.5A2.5 2.5 0 0 0 20.5 6h-4A2.5 2.5 0 0 0 14 8.5V17h2v7h1v-7h3v7h1v-7h2V8.5ZM22 16h-7V8.5c0-.83.67-1.5 1.5-1.5h4c.83 0 1.5.67 1.5 1.5V16Z"/></svg>