<svg xmlns="http://www.w3.org/2000/svg" data-name="Layer 1" viewBox="0 0 24 24"><path d="M16.5 6C15.122 6 14 7.121 14 8.5s1.122 2.5 2.5 2.5S19 9.879 19 8.5 17.878 6 16.5 6Zm0 4c-.827 0-1.5-.673-1.5-1.5S15.673 7 16.5 7s1.5.673 1.5 1.5-.673 1.5-1.5 1.5ZM23 22.293V3.5C23 2.121 21.878 1 20.5 1H4c-.61 0-1.198.222-1.654.626l.106.12L.753.047.046.754l23.2 23.199.707-.707-.954-.954ZM4 2h16.5c.827 0 1.5.673 1.5 1.5v17.793L3.048 2.341C3.315 2.121 3.651 2 4 2Zm14.465 20 1 1H1V4.536l1 1v11.757l5.8-5.801.707.707L2 18.707V22h16.465Z"/></svg>