<svg xmlns="http://www.w3.org/2000/svg" width="512" height="512" data-name="Layer 1" viewBox="0 0 24 24"><path d="M15.5 4.968c1.379 0 2.5-1.122 2.5-2.5s-1.121-2.5-2.5-2.5S13 1.09 13 2.468s1.121 2.5 2.5 2.5Zm0-4c.827 0 1.5.673 1.5 1.5s-.673 1.5-1.5 1.5-1.5-.673-1.5-1.5.673-1.5 1.5-1.5Zm-4.924 15.543 3.391-8.035c-.376-.625-.9-1.062-1.531-1.296-.425-.19-.799-.226-1.184-.123-.492.132-.903.47-1.127.927L7.3 14.762c-.391.798-.411 1.451.654 2.319l8.045 5.827v1.083l-13 .009v-1l11.411-.008-7.066-5.118c-1.315-1.072-1.612-2.186-.955-3.524l2.825-6.778a2.772 2.772 0 0 1 1.777-1.48 2.647 2.647 0 0 1 1.824.165 3.894 3.894 0 0 1 2.132 1.936l2.329 3.135 4.704-3.136.555.832-5.496 3.664-2.397-3.239-3.235 7.665-.831-.602Z"/></svg>