<svg xmlns="http://www.w3.org/2000/svg" data-name="Layer 1" viewBox="0 0 24 24"><path d="m13.409 19.019 10.576 4.013-.355.935L12 19.554.37 23.967l-.355-.935 10.576-4.013L.015 15.006l.355-.935L12 18.484l11.63-4.413.355.935-10.576 4.013ZM5 9c0-2.588 1.72-4.565 2.247-5.109l.577-.595.258.788c.292.895.761 1.814.983 1.928.453-.012.628-.417.96-1.811.266-1.112.595-2.497 1.597-3.653l.352-.406.38.38c.491.491 1.142 1.011 1.83 1.561C16.33 3.798 19 5.933 19 9c0 3.86-3.141 7-7 7s-7-3.14-7-7Zm8.414 2.584L12 10.17l-1.415 1.415a2.007 2.007 0 0 0 0 2.831c.78.779 2.051.778 2.829 0 .779-.78.779-2.05 0-2.831ZM6 9a6.001 6.001 0 0 0 3.349 5.375 2.996 2.996 0 0 1 .529-3.497L12 8.756l2.121 2.122a2.999 2.999 0 0 1 .529 3.498A6.001 6.001 0 0 0 18 9.001c0-2.587-2.359-4.473-4.441-6.136-.537-.43-1.052-.841-1.5-1.245-.601.885-.843 1.902-1.061 2.814-.301 1.262-.611 2.567-1.998 2.567-.653 0-1.185-.853-1.57-1.79C6.669 6.202 6 7.574 6 9.001Z"/></svg>