<svg xmlns="http://www.w3.org/2000/svg" width="512" height="512" data-name="Layer 1" viewBox="0 0 24 24"><path d="M17.985 5c.534 0 1.036-.208 1.414-.586.779-.779.779-2.049.02-2.808L17.985 0l-1.414 1.587a2.003 2.003 0 0 0 0 2.828c.378.378.88.586 1.414.586Zm-.688-2.728.688-.771.707.792a1 1 0 0 1 0 1.414 1.025 1.025 0 0 1-1.414 0c-.39-.39-.39-1.024.02-1.435ZM6 5c.534 0 1.036-.208 1.414-.586.779-.779.779-2.049.02-2.808L6 0 4.586 1.587a2.003 2.003 0 0 0 0 2.828c.378.378.88.586 1.414.586Zm-.688-2.728L6 1.501l.707.792a1 1 0 0 1 0 1.414 1.025 1.025 0 0 1-1.414 0c-.39-.39-.39-1.024.02-1.435Zm16.474 11.682L19.5 9.382A2.485 2.485 0 0 0 17.264 8H6.736c-.953 0-1.811.529-2.236 1.382l-2.286 4.572A11.557 11.557 0 0 0 1 19.097V22h2v2h4v-2h10v2h4v-2h2v-2.903c0-1.776-.42-3.555-1.214-5.143Zm-18.678.447 2.286-4.572C5.65 9.317 6.164 9 6.736 9h10.527c.572 0 1.086.317 1.342.829l2.286 4.572c.098.196.19.396.276.599H2.833c.086-.202.177-.402.276-.599ZM6 23H4v-1h2v1Zm14 0h-2v-1h2v1Zm2-2H2v-1.903c0-1.047.16-2.095.469-3.097H5v2h1v-2h12v2h1v-2h2.531c.309 1.002.469 2.05.469 3.097V21ZM12 5c.534 0 1.036-.208 1.414-.586.779-.779.779-2.049.02-2.808L12 0l-1.414 1.587a2.003 2.003 0 0 0 0 2.828c.378.378.88.586 1.414.586Zm-.688-2.728L12 1.501l.707.792a1 1 0 0 1 0 1.414 1.025 1.025 0 0 1-1.414 0c-.39-.39-.39-1.024.02-1.435Z"/></svg>