<svg xmlns="http://www.w3.org/2000/svg" data-name="Layer 1" viewBox="0 0 24 24"><path d="M23.532 22.142A3.57 3.57 0 0 1 20.378 24H3.622a3.57 3.57 0 0 1-3.154-1.858 3.605 3.605 0 0 1 .082-3.698L9.017 4.722c.578-.937 1.466-1.533 2.483-1.683V0h1v3.039c1.02.152 1.906.747 2.483 1.683l1.131 1.833-.589.949-1.392-2.256c-.494-.799-1.252-1.242-2.136-1.247-.878.005-1.636.448-2.13 1.247L1.4 18.969a2.624 2.624 0 0 0-.059 2.687 2.584 2.584 0 0 0 2.281 1.345h16.756c.958 0 1.812-.503 2.281-1.345a2.624 2.624 0 0 0-.059-2.687l-4.142-6.712.589-.949 4.403 7.135a3.608 3.608 0 0 1 .082 3.698Zm-9.247-8.852 6.462-10.401.85.527-6.491 10.449c.552.544.895 1.3.895 2.135 0 1.654-1.346 3-3 3s-3-1.346-3-3 1.346-3 3-3c.46 0 .895.104 1.285.29ZM15 16c0-1.103-.897-2-2-2s-2 .897-2 2 .897 2 2 2 2-.897 2-2Z"/></svg>