<svg xmlns="http://www.w3.org/2000/svg" width="512" height="512" data-name="Layer 1" viewBox="0 0 24 24"><path d="M1 2.5C1 1.673 1.673 1 2.5 1H12v7h7v1.766a4.49 4.49 0 0 1 1-.472V7.293L12.707 0H2.5A2.503 2.503 0 0 0 0 2.5V24h9v-1H1V2.5Zm12-.793L18.293 7H13V1.707Zm10.268 10.025c-.943-.944-2.592-.944-3.535 0l-8.732 8.732V24h3.536l8.732-8.732c.472-.472.732-1.1.732-1.768s-.26-1.296-.732-1.768Zm-.707 2.828-8.439 8.439H12v-2.122l8.439-8.439c.566-.566 1.555-.566 2.121 0 .283.283.439.66.439 1.061s-.156.777-.439 1.061Z"/></svg>