<svg xmlns="http://www.w3.org/2000/svg" width="512" height="512" data-name="Layer 1" viewBox="0 0 24 24"><path d="M23 11v1h-4.783l-2.572-4.273a1.423 1.423 0 0 0-.089-.13L12.5 14.744l-.864-.547 3.065-7.157a1.494 1.494 0 0 0-.341-.041h-2.582l-2.613 6.244a1.496 1.496 0 0 0 .587 1.833L15 18.215v5.784h-1v-5.216l-4.772-2.854a2.499 2.499 0 0 1-.987-3.068L10.693 7H6.809l-1.862 3.724-.895-.447L6.19 6.001h8.17c.872 0 1.692.464 2.142 1.211l2.281 3.789H23ZM12 2.5C12 1.122 13.122 0 14.5 0S17 1.122 17 2.5 15.878 5 14.5 5 12 3.878 12 2.5Zm1 0c0 .827.673 1.5 1.5 1.5S16 3.327 16 2.5 15.327 1 14.5 1 13 1.673 13 2.5ZM7.862 17.387 7.171 19H2v1h5.83l.879-2.051-.507-.303c-.123-.077-.227-.172-.34-.258Z"/></svg>