<svg xmlns="http://www.w3.org/2000/svg" width="512" height="512" data-name="Layer 1" viewBox="0 0 24 24"><path d="M20 24H4V2.5C4 1.122 5.121 0 6.5 0h11C18.879 0 20 1.122 20 2.5V24ZM5 23h14V2.5c0-.827-.673-1.5-1.5-1.5h-11C5.673 1 5 1.673 5 2.5V23Zm7-17c-.551 0-1-.449-1-1s.449-1 1-1 1 .449 1 1-.449 1-1 1Zm0 9c-1.654 0-3-1.346-3-3s1.346-3 3-3 3 1.346 3 3-1.346 3-3 3Zm0-5c-1.103 0-2 .897-2 2s.897 2 2 2 2-.897 2-2-.897-2-2-2Zm0 12c-1.654 0-3-1.346-3-3s1.346-3 3-3 3 1.346 3 3-1.346 3-3 3Zm0-5c-1.103 0-2 .897-2 2s.897 2 2 2 2-.897 2-2-.897-2-2-2Zm0-9c-1.654 0-3-1.346-3-3s1.346-3 3-3 3 1.346 3 3-1.346 3-3 3Zm0-5c-1.103 0-2 .897-2 2s.897 2 2 2 2-.897 2-2-.897-2-2-2Z"/></svg>