<svg xmlns="http://www.w3.org/2000/svg" width="512" height="512" data-name="Layer 1" viewBox="0 0 24 24"><path d="m23.63 10.377-2.005-3.329L12 10.261 2.359 7.049.374 10.344a2.606 2.606 0 0 0-.21 2.256c.276.749.87 1.323 1.628 1.576l.204.068-.007 6.452 9.996 3.332 9.995-3.332.008-6.451.243-.081a2.569 2.569 0 0 0 1.607-1.557 2.575 2.575 0 0 0-.208-2.229ZM1.102 12.252a1.61 1.61 0 0 1 .13-1.394L2.803 8.25l8.435 2.811-1.948 3.247a1.577 1.577 0 0 1-1.867.69L2.11 13.227a1.608 1.608 0 0 1-1.007-.975Zm10.383 10.554-8.496-2.832.007-5.398 4.11 1.37a2.573 2.573 0 0 0 3.041-1.126l1.345-2.24-.006 10.225Zm9.495-2.832-8.495 2.831.006-10.228 1.346 2.244a2.582 2.582 0 0 0 3.042 1.125l4.108-1.37-.008 5.397Zm1.921-7.715a1.575 1.575 0 0 1-.986.954l-5.352 1.784a1.581 1.581 0 0 1-1.868-.69l-1.945-3.242 8.433-2.814 1.591 2.641c.249.416.296.914.128 1.368ZM5.905 6.122l-1.061-.353L10.525.088l2.84 2.84L14.5 1.793l4.142 4.142-1.06.354L14.5 3.207l-4.335 4.335-1.061-.353 3.553-3.553-2.133-2.133-4.619 4.619Z"/></svg>