<svg xmlns="http://www.w3.org/2000/svg" width="512" height="512" data-name="Layer 1" viewBox="0 0 24 24"><path d="M23.58 8.944 20.064 3.67a2.49 2.49 0 0 0-1.096-.911L12.985.194a2.503 2.503 0 0 0-1.969 0L5.032 2.759a2.49 2.49 0 0 0-1.096.911L.42 8.944c-.275.412-.42.891-.42 1.387V24h24V10.331c0-.496-.145-.975-.42-1.387ZM12.777 18.04l5.048-4.241c.111.209.174.448.174.701v7.927l-5.222-4.387Zm4.35 4.96H6.873L12 18.693 17.127 23ZM12 17.387l-5.082-4.269c.179-.076.376-.118.582-.118h9c.206 0 .403.042.582.118L12 17.387ZM6 14.5c0-.253.063-.491.174-.701l5.048 4.241L6 22.427V14.5ZM23 23h-4v-8.5c0-1.378-1.122-2.5-2.5-2.5h-9A2.503 2.503 0 0 0 5 14.5V23H1V10.331c0-.297.087-.585.252-.832l3.516-5.274c.162-.243.389-.432.657-.547l5.985-2.565a1.504 1.504 0 0 1 1.181 0l5.984 2.564c.268.115.495.304.657.547l3.516 5.274c.165.247.252.535.252.832v12.669ZM12 5c-1.103 0-2 .897-2 2s.897 2 2 2 2-.897 2-2-.897-2-2-2Zm0 3c-.551 0-1-.449-1-1s.449-1 1-1 1 .449 1 1-.449 1-1 1Z"/></svg>