<svg xmlns="http://www.w3.org/2000/svg" width="512" height="512" data-name="Layer 1" viewBox="0 0 24 24"><path d="M21.5 4H15V3c0-1.654-1.346-3-3-3S9 1.346 9 3v1H2.5A2.503 2.503 0 0 0 0 6.5V24h24V6.5C24 5.121 22.878 4 21.5 4ZM10 3c0-1.103.897-2 2-2s2 .897 2 2v4h-4V3Zm13 20H1V6.5C1 5.673 1.673 5 2.5 5H9v3h6V5h6.5c.827 0 1.5.673 1.5 1.5V23Zm-6-3.5V21h-1v-1.5c0-.827-.673-1.5-1.5-1.5h-5c-.827 0-1.5.673-1.5 1.5V21H7v-1.5C7 18.121 8.122 17 9.5 17h5c1.378 0 2.5 1.121 2.5 2.5ZM12 16c1.654 0 3-1.346 3-3s-1.346-3-3-3-3 1.346-3 3 1.346 3 3 3Zm0-5c1.103 0 2 .897 2 2s-.897 2-2 2-2-.897-2-2 .897-2 2-2Z"/></svg>