<svg xmlns="http://www.w3.org/2000/svg" width="512" height="512" data-name="Layer 1" viewBox="0 0 24 24"><path d="M19 20.5h-1v-2h1v2Zm3-5.5h2v6.5c0 1.379-1.121 2.5-2.5 2.5h-6a2.502 2.502 0 0 1-2.5-2.5V15h2v-1.5c0-1.93 1.57-3.5 3.5-3.5s3.5 1.57 3.5 3.5V15Zm-6 0h5v-1.5c0-1.379-1.121-2.5-2.5-2.5S16 12.121 16 13.5V15Zm7 1h-9v5.5c0 .827.673 1.5 1.5 1.5h6c.827 0 1.5-.673 1.5-1.5V16ZM3.5 23c-.827 0-1.5-.673-1.5-1.5V18h9v-1H2v-5.338c.455.217.964.338 1.5.338h1a3.501 3.501 0 0 0 3-1.699 3.501 3.501 0 0 0 3 1.699h2.713c.1-.353.234-.691.4-1.011-.038.002-3.113.011-3.113.011A2.502 2.502 0 0 1 8 8.5V8H7v.5C7 9.879 5.879 11 4.5 11h-1a2.503 2.503 0 0 1-2.499-2.427L3.367 1H7v4h1V1h8v4h1V1h3.633l2.366 7.573a2.478 2.478 0 0 1-.401 1.271c.231.259.437.539.616.837.484-.6.786-1.353.786-2.182L21.367 0H2.633L0 8.5c0 .951.382 1.815 1 2.447V21.5C1 22.879 2.121 24 3.5 24h8.262a4.49 4.49 0 0 1-.485-1H3.5Z"/></svg>