<svg xmlns="http://www.w3.org/2000/svg" width="512" height="512" data-name="Layer 1" viewBox="0 0 24 24"><path d="M13.5 14h-9A4.505 4.505 0 0 0 0 18.5V24h1v-5.5C1 16.57 2.57 15 4.5 15H5v3.058A2.003 2.003 0 0 0 3.479 20c0 1.103.897 2 2 2s2-.897 2-2c0-.922-.628-1.7-1.479-1.931V15h6v3.55c-1.14.232-2 1.242-2 2.45v3h1v-3c0-.827.673-1.5 1.5-1.5s1.5.673 1.5 1.5v3h1v-3c0-1.208-.86-2.218-2-2.45V15h.5c1.93 0 3.5 1.57 3.5 3.5V24h1v-5.5c0-2.481-2.019-4.5-4.5-4.5Zm-7.021 6a1 1 0 1 1-2 0 1 1 0 0 1 2 0ZM3.021 6c0-3.309 2.692-6 6-6 1.507 0 2.882.562 3.936 1.483a7.008 7.008 0 0 0-.459.937A4.978 4.978 0 0 0 9.02 1c-2.757 0-5 2.243-5 5s2.243 5 5 5c1.12 0 2.144-.383 2.979-1.008v1.209A5.96 5.96 0 0 1 9.02 12c-3.309 0-6-2.691-6-6ZM19 0c-2.757 0-5 2.243-5 5v5h5c2.757 0 5-2.243 5-5s-2.243-5-5-5Zm0 9h-4V5c0-2.206 1.794-4 4-4s4 1.794 4 4-1.794 4-4 4Z"/></svg>