<svg xmlns="http://www.w3.org/2000/svg" width="512" height="512" data-name="Layer 1" viewBox="0 0 24 24"><path d="M22.01 15H8.96l-3-3 3-3h13.05c1.1 0 2 .9 2 2v2c0 1.1-.9 2-2 2ZM9.37 14h12.64c.55 0 1-.45 1-1v-2c0-.55-.45-1-1-1H9.37l-2 2 2 2ZM19 6H8.96l-3-3 3-3H19c1.1 0 2 .9 2 2v2c0 1.1-.9 2-2 2ZM9.37 5H19c.55 0 1-.45 1-1V2c0-.55-.45-1-1-1H9.37l-2 2 2 2ZM17 24H8.96l-3-3 3-3H17c1.1 0 2 .9 2 2v2c0 1.1-.9 2-2 2Zm-7.63-1H17c.55 0 1-.45 1-1v-2c0-.55-.45-1-1-1H9.37l-2 2 2 2ZM2 23c-1.1 0-2-.9-2-2s.9-2 2-2 2 .9 2 2-.9 2-2 2Zm0-3c-.55 0-1 .45-1 1s.45 1 1 1 1-.45 1-1-.45-1-1-1Zm0-6c-1.1 0-2-.9-2-2s.9-2 2-2 2 .9 2 2-.9 2-2 2Zm0-3c-.55 0-1 .45-1 1s.45 1 1 1 1-.45 1-1-.45-1-1-1Zm0-6C.9 5 0 4.1 0 3s.9-2 2-2 2 .9 2 2-.9 2-2 2Zm0-3c-.55 0-1 .45-1 1s.45 1 1 1 1-.45 1-1-.45-1-1-1Z"/></svg>