<svg xmlns="http://www.w3.org/2000/svg" width="512" height="512" data-name="Layer 1" viewBox="0 0 24 24"><path d="M11 4h-1V0h1v4Zm4-4h-1v4h1V0ZM7 0H6v4h1V0Zm17 12.643C24 14.463 22.397 16 20.5 16h-2.933a43.308 43.308 0 0 1-2.8 5H5.232c-.166-.249-4.219-6.378-5.215-12.186a2.34 2.34 0 0 1 .532-1.905A2.546 2.546 0 0 1 2.5 6l14.996.003c.754 0 1.465.332 1.952.91.453.538.646 1.232.531 1.904-.068.394-.149.789-.241 1.182h.76c2.191 0 3.5.988 3.5 2.643Zm-5.005-3.994a1.327 1.327 0 0 0-.31-1.091 1.573 1.573 0 0 0-1.188-.555L2.501 7a1.57 1.57 0 0 0-1.187.554 1.32 1.32 0 0 0-.311 1.092C1.857 13.632 5.053 18.87 5.772 20h8.456c.719-1.131 3.915-6.373 4.768-11.352ZM23 12.643C23 11.213 21.434 11 20.5 11h-1v-.067A30.843 30.843 0 0 1 18.023 15H20.5c1.332 0 2.5-1.102 2.5-2.357ZM0 24h20v-1H0v1Z"/></svg>