<svg xmlns="http://www.w3.org/2000/svg" width="512" height="512" data-name="Layer 1" viewBox="0 0 24 24"><path d="M21.5 0h-19A2.5 2.5 0 0 0 0 2.5V20h7.11l3.9 3.28c.29.25.64.38 1 .38s.7-.12.98-.37L16.98 20h7.03V2.5a2.5 2.5 0 0 0-2.5-2.5ZM23 19h-6.39l-4.28 3.54c-.19.17-.47.17-.67 0l-4.19-3.53H1V2.5C1 1.67 1.67 1 2.5 1h19c.83 0 1.5.67 1.5 1.5V19ZM15.5 8.39V9h-1v-.61c0-.77-.63-1.39-1.39-1.39H10.9a1.393 1.393 0 0 0-.22 2.77l2.83.47c1.16.19 2 1.19 2 2.36 0 1.32-1.07 2.4-2.39 2.4h-.61v1h-1v-1h-.61c-1.32 0-2.39-1.07-2.39-2.4V12h1v.6c0 .77.63 1.4 1.39 1.4h2.21c.77 0 1.39-.63 1.39-1.4 0-.68-.49-1.26-1.17-1.38l-2.83-.47c-1.16-.19-2-1.19-2-2.36A2.39 2.39 0 0 1 10.89 6h.61V5h1v1h.61a2.39 2.39 0 0 1 2.39 2.39Z"/></svg>