<svg xmlns="http://www.w3.org/2000/svg" width="512" height="512" data-name="Layer 1" viewBox="0 0 24 24"><path d="M17.944 2C15.513 2 13 4.618 13 9c0 1.471.707 2.98 1.456 4.58C15.215 15.201 16 16.877 16 18.5v2c0 1.93 1.57 3.5 3.5 3.5s3.5-1.57 3.5-3.5v-2c0-1.732.275-2.987.542-4.201.235-1.072.458-2.085.458-3.299 0-8.748-5.436-9-6.056-9ZM22 20.5c0 1.378-1.121 2.5-2.5 2.5S17 21.878 17 20.5v-2c0-.167-.007-.334-.02-.5h5.028c-.005.163-.008.329-.008.5v2Zm.565-6.415c-.187.854-.393 1.789-.497 2.915h-5.239c-.284-1.315-.884-2.595-1.469-3.845-.7-1.495-1.361-2.907-1.361-4.155 0-3.756 2.006-6 3.944-6 .518 0 5.056.225 5.056 8 0 1.106-.211 2.067-.435 3.085ZM6.056 0C5.436 0 0 .252 0 9c0 1.214.223 2.227.458 3.299C.725 13.512 1 14.767 1 16.5v2C1 20.43 2.57 22 4.5 22S8 20.43 8 18.5v-2c0-1.623.785-3.299 1.544-4.92C10.293 9.981 11 8.471 11 7c0-4.382-2.514-7-4.944-7ZM7 18.5C7 19.878 5.879 21 4.5 21S2 19.878 2 18.5v-2c0-.171-.003-.337-.008-.5H7.02c-.013.166-.02.333-.02.5v2Zm1.639-7.345c-.585 1.25-1.185 2.53-1.469 3.845H1.931c-.104-1.126-.309-2.061-.497-2.915C1.21 11.067.999 10.106.999 9 1 1.225 5.538 1 6.056 1 7.994 1 10 3.244 10 7c0 1.248-.661 2.66-1.361 4.155Z"/></svg>