<svg xmlns="http://www.w3.org/2000/svg" width="512" height="512" data-name="Layer 1" viewBox="0 0 24 24"><path d="M21.5 12H20V4.5A2.5 2.5 0 0 0 17.5 2h-11A2.5 2.5 0 0 0 4 4.5V12H2.5A2.5 2.5 0 0 0 0 14.5V22h24v-7.5a2.5 2.5 0 0 0-2.5-2.5ZM5 4.5C5 3.67 5.67 3 6.5 3h11c.83 0 1.5.67 1.5 1.5V17H5V4.5ZM23 21H1v-6.5c0-.83.67-1.5 1.5-1.5H4v5h16v-5h1.5c.83 0 1.5.67 1.5 1.5V21ZM15.88 6.77l.71.71-3.94 3.94c-.39.39-.9.58-1.41.58s-1.02-.19-1.41-.58L7.89 9.48l.71-.71 1.94 1.94c.38.38 1.04.38 1.41 0l3.94-3.94Z"/></svg>