<svg xmlns="http://www.w3.org/2000/svg" width="512" height="512" data-name="Layer 1" viewBox="0 0 24 24"><path d="m23.988 11.334-3.095 3.095c-.384.384-.889.576-1.394.576s-1.01-.192-1.394-.576l-3.114-3.114.707-.707 3.114 3.114c.057.057.12.106.187.146V0h1v13.868a.985.985 0 0 0 .187-.146l3.095-3.095.707.707ZM9 17.5C9 18.878 7.879 20 6.5 20S4 18.878 4 17.5c0-1.207.86-2.217 2-2.45V13h1v2.05c1.14.232 2 1.242 2 2.45Zm-1 0c0-.827-.673-1.5-1.5-1.5S5 16.673 5 17.5 5.673 19 6.5 19 8 18.327 8 17.5Zm5 0a6.479 6.479 0 0 1-2.4 5.044 6.491 6.491 0 0 1-4.111 1.454 6.79 6.79 0 0 1-1.376-.142C2.647 23.344.649 21.339.141 18.868-.32 16.623.373 14.379 2 12.819V4.5C2 2.019 4.019 0 6.5 0S11 2.019 11 4.5v8.319a6.509 6.509 0 0 1 2 4.681Zm-1 0a5.507 5.507 0 0 0-1.834-4.091L10 13.26V4.5C10 2.57 8.43 1 6.5 1S3 2.57 3 4.5v8.76l-.166.149c-1.478 1.325-2.118 3.29-1.714 5.258.429 2.086 2.114 3.778 4.195 4.21 1.664.348 3.361-.057 4.653-1.108a5.482 5.482 0 0 0 2.031-4.269Z"/></svg>