<svg xmlns="http://www.w3.org/2000/svg" width="512" height="512" data-name="Layer 1" viewBox="0 0 24 24"><path d="M23 17v2.496a1.51 1.51 0 0 1-1.518 1.499c-.398 0-.771-.155-1.05-.438A1.496 1.496 0 0 1 20 19.494V7.501a5.459 5.459 0 0 0-1.606-3.888A5.468 5.468 0 0 0 14.5 2H5.496a5.506 5.506 0 0 0-5.5 5.5L-.009 22h4.998l.01-3h6.01l-.01 3H16v-3h3v.494c0 .667.255 1.295.72 1.766a2.454 2.454 0 0 0 1.762.735A2.511 2.511 0 0 0 24 19.496V17h-1ZM5.496 3H14.5c1.205 0 2.336.469 3.186 1.319A4.464 4.464 0 0 1 19 7.5V13H.993l.002-5.5A4.506 4.506 0 0 1 5.496 3ZM15 18v3h-2.999l.01-3h-8.01l-.01 3H.99l.003-7H19v4h-4ZM9 8a1 1 0 1 1 2 0 1 1 0 0 1-2 0ZM5 8a1 1 0 1 1 2 0 1 1 0 0 1-2 0Zm8 0a1 1 0 1 1 2 0 1 1 0 0 1-2 0Z"/></svg>