<svg xmlns="http://www.w3.org/2000/svg" width="512" height="512" data-name="Layer 1" viewBox="0 0 24 24"><path d="M17.015 5 12-.015 6.985 5 12 10.015 17.015 5ZM12 1.399 15.601 5 12 8.601 8.399 5 12 1.399ZM24 5.5v13.231c0 .618-.229 1.214-.645 1.676L20.158 24h-1.344l3.799-4.263A1.5 1.5 0 0 0 23 18.731V5.5c0-.827-.673-1.5-1.5-1.5S20 4.673 20 5.5v9h-.004c0 .57-.193 1.14-.58 1.601l-3.099 3.206-.719-.695 3.075-3.179c.219-.262.326-.579.326-.981s-.139-.682-.382-.953a1.492 1.492 0 0 0-1.032-.496 1.533 1.533 0 0 0-1.08.38l-3.849 3.541c.222.38.343.815.343 1.262V24h-1v-5.814c0-.418-.177-.821-.484-1.104l-4.026-3.704a1.509 1.509 0 0 0-1.075-.375 1.486 1.486 0 0 0-1.032.496 1.502 1.502 0 0 0-.032 1.96l3.052 3.153-.719.695-3.075-3.179a2.541 2.541 0 0 1-.6-1.627h-.007V5.5c0-.827-.673-1.5-1.5-1.5s-1.5.673-1.5 1.5v13.231c0 .371.137.729.387 1.006L5.187 24H3.843L.646 20.407a2.503 2.503 0 0 1-.645-1.676V5.5c0-1.378 1.121-2.5 2.5-2.5s2.5 1.122 2.5 2.5v6.998a2.501 2.501 0 0 1 3.162.139l3.838 3.531 3.833-3.527a2.448 2.448 0 0 1 1.808-.637c.5.027.969.199 1.359.493V5.5c0-1.378 1.121-2.5 2.5-2.5s2.5 1.122 2.5 2.5Z"/></svg>