<svg xmlns="http://www.w3.org/2000/svg" width="512" height="512" data-name="Layer 1" viewBox="0 0 24 24"><path d="M24 11V4.5C24 3.121 22.878 2 21.5 2h-3.293l-2-2H12.5A2.503 2.503 0 0 0 10 2.5V5H1V0H0v16.5C0 17.879 1.122 19 2.5 19H10v5h14v-6.5c0-1.379-1.122-2.5-2.5-2.5h-3.293l-2-2H12.5a2.503 2.503 0 0 0-2.5 2.5V18H2.5c-.827 0-1.5-.673-1.5-1.5V6h9v5h14ZM11 2.5c0-.827.673-1.5 1.5-1.5h3.293l2 2H21.5c.827 0 1.5.673 1.5 1.5V10H11V2.5Zm0 13c0-.827.673-1.5 1.5-1.5h3.293l2 2H21.5c.827 0 1.5.673 1.5 1.5V23H11v-7.5Z"/></svg>