<svg xmlns="http://www.w3.org/2000/svg" width="512" height="512" data-name="Layer 1" viewBox="0 0 24 24"><path d="M24 12.637c0-6.711-6.353-9.412-8-9.997V0H8v2.641c-1.603.579-8 3.309-8 9.996 0 4.759 4.133 7.941 10.648 8.324l-2.19 1.793.633.773 2.408-1.972V24h1v-2.443l2.435 1.997.635-.773-2.219-1.82c6.516-.383 10.649-3.565 10.649-8.324Zm-23 0c0-4.884 3.727-7.412 5.978-8.494C5.753 5.938 4 9.249 4 13.5c0 2.797 1.365 4.669 3.044 5.843C3.715 18.388 1 16.316 1 12.637ZM12 20c-1.831 0-3-3.258-3-5.5 0-4.783 2.129-8.068 3-9.212.871 1.144 3 4.429 3 9.212 0 2.242-1.169 5.5-3 5.5Zm4-5.5c0-6.396-3.487-10.185-3.636-10.342L12 3.769l-.364.389C11.488 4.315 8 8.103 8 14.5c0 1.401.448 3.552 1.457 4.992C7.309 18.692 5 16.872 5 13.5 5 7.512 9 3.198 9 3.198V1h6v2.199c.038.041 4 4.312 4 10.301 0 3.371-2.31 5.192-4.457 5.992C15.552 18.052 16 15.901 16 14.5Zm.956 4.843C18.635 18.169 20 16.297 20 13.5c0-4.234-1.738-7.535-2.963-9.335C19.285 5.268 23 7.819 23 12.637c0 3.679-2.716 5.751-6.044 6.706Z"/></svg>