<svg xmlns="http://www.w3.org/2000/svg" width="512" height="512" data-name="Layer 1" viewBox="0 0 24 24"><path d="M24 10h-2V2.5C22 1.121 20.878 0 19.5 0h-15A2.503 2.503 0 0 0 2 2.5V10H0v1h2v9h5.106l3.897 3.283c.286.254.645.38 1.001.38.353 0 .703-.123.979-.368L16.968 20H22v-9h2v-1Zm-3 9h-4.391l-4.276 3.535a.5.5 0 0 1-.675-.009L7.471 19H3V2.5C3 1.673 3.673 1 4.5 1h15c.827 0 1.5.673 1.5 1.5V19Zm-5-9a1 1 0 1 1-2 0 1 1 0 0 1 2 0Zm-6 0a1 1 0 1 1-2 0 1 1 0 0 1 2 0Zm6.5-5h-9A2.503 2.503 0 0 0 5 7.5v5C5 13.879 6.122 15 7.5 15h9c1.378 0 2.5-1.121 2.5-2.5v-5C19 6.121 17.878 5 16.5 5Zm1.5 7.5c0 .827-.673 1.5-1.5 1.5h-9c-.827 0-1.5-.673-1.5-1.5v-5C6 6.673 6.673 6 7.5 6h9c.827 0 1.5.673 1.5 1.5v5Z"/></svg>