<svg xmlns="http://www.w3.org/2000/svg" data-name="Layer 1" viewBox="0 0 24 24"><path d="m9.401 16.561-2.42-2.334.693-.721 2.427 2.341a.5.5 0 0 0 .713.007l5.487-5.402.701.713-5.484 5.399a1.49 1.49 0 0 1-1.058.437c-.401 0-.777-.156-1.06-.439ZM22 5h-2v16.5c0 1.379-1.121 2.5-2.5 2.5h-11A2.502 2.502 0 0 1 4 21.5V5H2V4h5V2.5C7 1.121 8.121 0 9.5 0h5C15.879 0 17 1.121 17 2.5V4h5v1ZM8 4h8V2.5c0-.827-.673-1.5-1.5-1.5h-5C8.673 1 8 1.673 8 2.5V4Zm11 1H5v16.5c0 .827.673 1.5 1.5 1.5h11c.827 0 1.5-.673 1.5-1.5V5Z"/></svg>