<svg xmlns="http://www.w3.org/2000/svg" width="512" height="512" data-name="Layer 1" viewBox="0 0 24 24"><path d="M8 24a7.948 7.948 0 0 1-5.657-2.343A7.951 7.951 0 0 1 0 16C0 9.541 6.312 4.926 12.229 1.107L13 .609v4.038C18.009 1.905 22.955.385 23.007.369l.896-.272-.272.896c-.016.052-1.536 4.998-4.278 10.007h4.038l-.498.771C19.075 17.687 14.459 24 8 24Zm4-21.552C6.541 6.024 1 10.312 1 16c0 1.869.728 3.628 2.05 4.95S6.131 23 8 23c5.688 0 9.976-5.541 13.552-11h-3.914l.429-.748c2.217-3.875 3.697-7.859 4.301-9.619-1.76.604-5.744 2.084-9.619 4.301l-.748.429V2.448ZM8 19.962c-2.206 0-4-1.794-4-4s1.794-4 4-4 4 1.794 4 4-1.794 4-4 4Zm0-7c-1.654 0-3 1.346-3 3s1.346 3 3 3 3-1.346 3-3-1.346-3-3-3Z"/></svg>