<svg xmlns="http://www.w3.org/2000/svg" width="512" height="512" data-name="Layer 1" viewBox="0 0 24 24"><path d="M12 24C5.383 24 0 18.617 0 12S5.383 0 12 0s12 5.383 12 12-5.383 12-12 12Zm0-23C5.935 1 1 5.935 1 12s4.935 11 11 11 11-4.935 11-11S18.065 1 12 1Zm2.888 18C10.545 19 5 13.456 5 9.112c0-.945.358-1.824 1.008-2.473l1.847-1.846L11.5 8.438l-2.039 2.04c.853 1.938 2.185 3.273 4.059 4.067l2.043-2.043 3.646 3.645-1.846 1.846a3.464 3.464 0 0 1-2.474 1.008ZM7.854 6.207l-1.14 1.139a2.474 2.474 0 0 0-.715 1.766c0 3.821 5.066 8.888 8.888 8.888.679 0 1.306-.254 1.767-.715l1.139-1.139-2.231-2.231-1.799 1.799-.303-.115c-2.372-.906-4.072-2.605-5.055-5.051l-.123-.307 1.803-1.803-2.23-2.231Z"/></svg>