<svg xmlns="http://www.w3.org/2000/svg" width="512" height="512" data-name="Layer 1" viewBox="0 0 24 24"><path d="m24 7.827-7.005 2.115c-.524.149-1.089.003-1.418-.315l-.638-.895A2.482 2.482 0 0 0 13.171 8H9.999V4h3V3H6v1h3v4H4.584l-2.413-.841c-.469-.233-1.015-.209-1.46.066S0 7.977 0 8.5v3.146c0 .953.529 1.811 1.433 2.259L4 14.848v5.15h11.238L24 9.175v-1.35ZM1.829 12.989A1.491 1.491 0 0 1 1 11.647V8.501c0-.251.166-.381.237-.425.071-.045.261-.134.545.002L4 8.854v4.93l-2.171-.795ZM14.762 19H5V9h8.172c.395 0 .781.16 1.005.373l.638.895a2.502 2.502 0 0 0 2.462.634l5.349-1.615-7.863 9.714Zm8.526-2.245L21.5 14.734l-1.768 1.999A2.502 2.502 0 0 0 21.5 21c.668 0 1.295-.26 1.768-.732.975-.975.975-2.561.021-3.513Zm-.728 2.806c-.566.566-1.555.566-2.121 0-.585-.585-.585-1.536.021-2.144l1.04-1.175 1.061 1.197a1.501 1.501 0 0 1 0 2.121Z"/></svg>