<svg xmlns="http://www.w3.org/2000/svg" data-name="Layer 1" viewBox="0 0 24 24"><path d="M18.395 17.688A9.945 9.945 0 0 0 22 10c0-5.514-4.486-10-10-10-3 0-5.78 1.309-7.688 3.605L.753.046.046.753l23.2 23.2.707-.707-5.558-5.558ZM12 1c4.962 0 9 4.038 9 9a8.951 8.951 0 0 1-3.316 6.977l-2.854-2.854A4.972 4.972 0 0 0 17 10c0-2.757-2.243-5-5-5a4.972 4.972 0 0 0-4.123 2.17L5.022 4.315A8.94 8.94 0 0 1 12 1Zm2.107 12.4L8.6 7.893A3.978 3.978 0 0 1 12 6c2.206 0 4 1.794 4 4a3.977 3.977 0 0 1-1.893 3.4Zm-2.703 1.54a4.976 4.976 0 0 1-4.344-4.344l4.344 4.344Zm3.952 3.719-.355-.159-.011.026-.023-.023a8.995 8.995 0 0 1-2.966.498c-4.962 0-9-4.038-9-9a8.97 8.97 0 0 1 .5-2.965l-.773-.773a9.946 9.946 0 0 0-.727 3.738c0 3.994 2.353 7.447 5.746 9.049a6.895 6.895 0 0 0-2.655 4.368l-.098.583h13.849l-.098-.583c-.328-1.947-1.544-3.671-3.387-4.758ZM6.205 23a5.911 5.911 0 0 1 2.661-3.504 9.97 9.97 0 0 0 6.057.065c1.363.815 2.306 2.02 2.703 3.439H6.205Z"/></svg>