<svg xmlns="http://www.w3.org/2000/svg" width="512" height="512" data-name="Layer 1" viewBox="0 0 24 24"><path d="M19.5 19h-.698c-.591-1.134-2.952-5.901-3.262-10h2.461V8h-2.388l1.8-3.998A1.498 1.498 0 0 0 15.999 2H12.5V0h-1v2H8a1.5 1.5 0 0 0-1.225.635 1.513 1.513 0 0 0-.173 1.404L8.388 8H6v1h2.461c-.31 4.099-2.672 8.866-3.262 10H4.5A2.503 2.503 0 0 0 2 21.5V24h20v-2.5c0-1.379-1.121-2.5-2.5-2.5ZM7.529 3.667a.493.493 0 0 1 .063-.455A.493.493 0 0 1 8 3h7.999c.165 0 .313.077.409.212.095.135.117.3.077.417L14.53 8H9.438L7.529 3.667ZM9.466 9h5.068c.272 3.916 2.28 8.284 3.142 10H6.324c.862-1.716 2.869-6.084 3.142-10ZM21 23H3v-1.5c0-.827.673-1.5 1.5-1.5h15c.827 0 1.5.673 1.5 1.5V23Z"/></svg>