<svg xmlns="http://www.w3.org/2000/svg" width="512" height="512" data-name="Layer 1" viewBox="0 0 24 24"><path d="M5 19h3v1H5v-1Zm0 5h9v-1H5v1Zm9-9H5v1h9v-1Zm3.003-9.978A7.73 7.73 0 0 0 9.75 0C5.477 0 2 3.477 2 7.75c0 .763.116 1.523.345 2.267A5.437 5.437 0 0 0 0 14.5a5.503 5.503 0 0 0 3 4.893v-1.154a4.497 4.497 0 0 1-2-3.738c0-1.582.822-3.021 2.199-3.847l.354-.212-.141-.388A6.736 6.736 0 0 1 3 7.75 6.758 6.758 0 0 1 9.75 1a6.732 6.732 0 0 1 6.417 4.661l.11.339.355.007c3.511.071 6.367 2.984 6.367 6.493 0 1.826-.788 3.528-2 4.732v1.315c1.787-1.386 3-3.623 3-6.047 0-3.933-3.107-7.216-6.997-7.478ZM16 16h3v-1h-3v1Zm-6 4h9v-1h-9v1Zm6 4h3v-1h-3v1Z"/></svg>