<svg xmlns="http://www.w3.org/2000/svg" width="512" height="512" data-name="Layer 1" viewBox="0 0 24 24"><path d="M23.053 6.566a3.284 3.284 0 0 0 0-4.61c-1.223-1.233-3.358-1.234-4.583 0L1.352 19.205A4.63 4.63 0 0 0 0 22.487v.49l.49.01S1.145 23 1.801 23c.331 0 .663-.003.91-.013 4.089-.164 7.589-1.601 10.124-4.157l3.263-3.321s2.132 2.159 2.247 2.266l.696-.718-.357-.36a4.24 4.24 0 0 1-1.068-2.726 4.242 4.242 0 0 1 1.216-3.087l4.223-4.316ZM12.122 18.127c-2.972 2.997-6.78 3.753-9.452 3.86-.438.017-1.152.014-1.638.007a3.635 3.635 0 0 1 1.029-2.086l9.203-9.273 4.127 4.163-3.27 3.329Zm4.492-4.133c.005.228.025.454.059.676l-4.704-4.744L19.18 2.66c.845-.852 2.318-.851 3.163 0a2.282 2.282 0 0 1-.002 3.204l-4.225 4.319a5.23 5.23 0 0 0-1.501 3.811ZM21.499 4.5a1 1 0 1 1-2 0 1 1 0 0 1 2 0Z"/></svg>