<svg xmlns="http://www.w3.org/2000/svg" width="512" height="512" data-name="Layer 1" viewBox="0 0 24 24"><path d="M13.002 11.705.738 23.969l-.707-.707 12.265-12.265-1.564-1.568C10.26 8.958 10 8.33 10 7.662s.26-1.296.732-1.768l5.907-5.906.707.707-5.906 5.906c-.283.283-.439.66-.439 1.061s.156.777.439 1.061l1.563 1.567 6.964-6.964.707.707-6.965 6.965 1.558 1.562a1.503 1.503 0 0 0 2.121 0l5.906-5.906.707.707-5.906 5.906c-.487.487-1.127.731-1.768.731s-1.28-.244-1.768-.731l-1.558-1.562Zm-6.306 2.063.708-.708C2.716 9.31 1.001 4.015 1.001 2.048v-.367c0-.409.249-.57.397-.629a.753.753 0 0 1 .832.193l5.786 6.252a4.48 4.48 0 0 1 .225-1.229L2.96.561A1.753 1.753 0 0 0 1.028.123C.394.375 0 .973 0 1.683v.365c0 2.094 1.787 7.722 6.696 11.72Zm9.631 2.229c-.165 0-.324-.03-.486-.047l.886.957a19.54 19.54 0 0 1-4.843-1.255l-.782.782c1.914.818 4.12 1.388 6.651 1.582l5.495 5.938.734-.68-6.811-7.359a4.548 4.548 0 0 1-.844.082Z"/></svg>