<svg xmlns="http://www.w3.org/2000/svg" width="512" height="512" data-name="Layer 1" viewBox="0 0 24 24"><path d="M18.5 0h-13A2.503 2.503 0 0 0 3 2.5V24h18V2.5C21 1.122 19.879 0 18.5 0ZM20 23H4V2.5C4 1.673 4.673 1 5.5 1h13c.827 0 1.5.673 1.5 1.5V23Zm-8-12c-2.757 0-5 2.243-5 5s2.243 5 5 5 5-2.243 5-5-2.243-5-5-5Zm0 9c-2.206 0-4-1.794-4-4s1.794-4 4-4 4 1.794 4 4-1.794 4-4 4Zm1.5-4a1.5 1.5 0 1 1-3.001-.001A1.5 1.5 0 0 1 13.5 16Zm2-12h-7C7.673 4 7 4.673 7 5.5v2C7 8.327 7.673 9 8.5 9h7c.827 0 1.5-.673 1.5-1.5v-2c0-.827-.673-1.5-1.5-1.5Zm.5 3.5a.5.5 0 0 1-.5.5h-7a.5.5 0 0 1-.5-.5v-2a.5.5 0 0 1 .5-.5h7a.5.5 0 0 1 .5.5v2Z"/></svg>