<svg xmlns="http://www.w3.org/2000/svg" width="512" height="512" data-name="Layer 1" viewBox="0 0 24 24"><path d="M16.5 13h-9C6.122 13 5 14.121 5 15.5S6.122 18 7.5 18H14v2.5a.5.5 0 0 0 1 0V18h1.5c.565 0 1.081-.195 1.5-.513V23.5a.5.5 0 0 0 1 0v-8c0-1.379-1.122-2.5-2.5-2.5ZM6 15.5c0-.827.673-1.5 1.5-1.5H9v3H7.5c-.827 0-1.5-.673-1.5-1.5Zm4 1.5v-3h4v3h-4Zm6.5 0H15v-3h1.5c.827 0 1.5.673 1.5 1.5s-.673 1.5-1.5 1.5ZM8 11a1 1 0 1 1 0-2 1 1 0 0 1 0 2Zm8 0a1 1 0 1 1 0-2 1 1 0 0 1 0 2Zm8 1v9.5a.5.5 0 0 1-1 0V12c0-6.065-4.935-11-11-11S1 5.935 1 12v7.5a.5.5 0 0 1-1 0V12C0 5.383 5.383 0 12 0s12 5.383 12 12ZM12 23c1.412 0 2.758-.277 4-.764V23.3c-1.253.445-2.596.7-4 .7-3.585 0-6.799-1.588-9-4.089v-1.606C4.992 21.14 8.28 23 12 23Z"/></svg>