<svg xmlns="http://www.w3.org/2000/svg" width="512" height="512" data-name="Layer 1" viewBox="0 0 24 24"><path d="M21.5 18c.322 0 .635-.037.938-.102C20.374 21.536 16.472 24 12 24 5.383 24 0 18.617 0 12S5.383 0 12 0c5.806 0 10.661 4.146 11.763 9.633a4.49 4.49 0 0 0-1.149-.477C21.356 4.467 17.081 1 12 1 5.935 1 1 5.935 1 12s4.935 11 11 11c3.852 0 7.242-1.994 9.208-5h.292Zm-14.167-.127C7.354 17.854 9.471 16 12 16v-1c-2.918 0-5.236 2.04-5.333 2.127l.666.746ZM15 8a1 1 0 1 0 2 0 1 1 0 0 0-2 0ZM9 8a1 1 0 1 0-2 0 1 1 0 0 0 2 0Zm12.5 3H14v1h7.5c.827 0 1.5.673 1.5 1.5s-.673 1.5-1.5 1.5H14v1h7.5c1.378 0 2.5-1.121 2.5-2.5S22.878 11 21.5 11Z"/></svg>