<svg xmlns="http://www.w3.org/2000/svg" width="512" height="512" data-name="Layer 1" viewBox="0 0 24 24"><path d="M21.5 2H18V0h-1v2H7V0H6v2H2.5A2.503 2.503 0 0 0 0 4.5V24h24V4.5C24 3.122 22.878 2 21.5 2Zm-19 1h19c.827 0 1.5.673 1.5 1.5V8H1V4.5C1 3.673 1.673 3 2.5 3ZM1 23V9h22v14H1Zm15.945-9.013h-3.098l-.944-3.101h-1.914l-.89 3.101H6.958l-.296 1.593 2.325 1.689-.866 2.822L9.5 21.156l2.478-1.678 2.439 1.654 1.473-1.006-.922-2.833 2.392-1.772-.415-1.534Zm-3.15 2.931.913 2.805-.292.199-2.438-1.652-2.44 1.653-.258-.2.873-2.844-2.393-1.738.028-.154h3.064l.89-3.101h.419l.944 3.101h3.074l.037.136-2.422 1.794Z"/></svg>