<svg xmlns="http://www.w3.org/2000/svg" width="512" height="512" data-name="Layer 1" viewBox="0 0 24 24"><path d="M17.333 10.873C17.236 10.96 14.918 13 12 13s-5.236-2.04-5.333-2.127l.666-.747C7.354 10.145 9.471 12 12 12s4.646-1.854 4.667-1.874l.666.747Zm1.504 11.297a2.838 2.838 0 0 1-4.007 0 2.816 2.816 0 0 1-.83-2.003v-.787l6.322-6.322-.707-.707L14 17.966V15h-1v5.167c0 1.024.399 1.987 1.123 2.71.747.748 1.729 1.121 2.71 1.121s1.963-.374 2.71-1.121l3.917-3.917-.707-.707-3.917 3.917Zm3.036-9.04-4.859 4.859.707.707 4.859-4.859-.707-.707Zm1.414 2.946-.707-.707-4.093 4.093.707.707 4.093-4.093Zm-16.3 1.914-4.86-4.86-.707.707 4.859 4.859.707-.707Zm-2.18 2.18.707-.707-4.094-4.094-.707.707 4.093 4.093ZM11 15.001h-1v2.966l-5.615-5.615-.707.707L10 19.381v.787c0 .757-.295 1.469-.83 2.004a2.838 2.838 0 0 1-4.007 0l-3.917-3.917-.707.707 3.917 3.917C5.204 23.626 6.185 24 7.166 24s1.963-.374 2.71-1.121a3.807 3.807 0 0 0 1.123-2.71v-5.167ZM12 1c6.065 0 11 4.935 11 11h1c0-6.617-5.383-12-12-12S0 5.383 0 12h1C1 5.935 5.935 1 12 1ZM6 8h1c0-1.43.785-3 1.5-3S10 6.57 10 8h1c0-1.888-1.069-4-2.5-4S6 6.112 6 8Zm7 0h1c0-1.43.785-3 1.5-3S17 6.57 17 8h1c0-1.888-1.069-4-2.5-4S13 6.112 13 8Z"/></svg>