<svg xmlns="http://www.w3.org/2000/svg" width="512" height="512" data-name="Layer 1" viewBox="0 0 24 24"><path d="M18 11V4h-5c0-2.206-1.794-4-4-4S5 1.794 5 4H0v11.5C0 16.879 1.122 18 2.5 18H7v3.5C7 22.879 8.122 24 9.5 24h12c1.378 0 2.5-1.121 2.5-2.5V11h-6ZM9 1c1.654 0 3 1.346 3 3H6c0-1.654 1.346-3 3-3ZM7 11v6H2.5c-.827 0-1.5-.673-1.5-1.5V5h4v3h1V5h6v3h1V5h4v6H7Zm16 10.5c0 .827-.673 1.5-1.5 1.5h-12c-.827 0-1.5-.673-1.5-1.5V12h15v9.5Zm-11-5V14h1v2.5c0 1.379 1.122 2.5 2.5 2.5s2.5-1.121 2.5-2.5V14h1v2.5c0 1.93-1.57 3.5-3.5 3.5S12 18.43 12 16.5Z"/></svg>