<svg xmlns="http://www.w3.org/2000/svg" width="512" height="512" data-name="Layer 1" viewBox="0 0 24 24"><path d="M22 24H2v-1h20v1Zm2-7.5c0-1.378-1.121-2.5-2.5-2.5h-5c-.44 0-.84-.184-1.127-.517a1.538 1.538 0 0 1-.352-1.234C15.67 7.959 16 5.184 16 4c0-2.206-1.794-4-4-4S8 1.794 8 4c0 .835.206 2.353.467 4.274.163 1.199.346 2.547.509 3.957.055.475-.087.943-.391 1.284A1.438 1.438 0 0 1 7.5 14h-5A2.503 2.503 0 0 0 0 16.5V21h24v-4.5Zm-23 0c0-.827.673-1.5 1.5-1.5h5c.71 0 1.361-.291 1.832-.82a2.642 2.642 0 0 0 .637-2.064 196.614 196.614 0 0 0-.512-3.976C9.202 6.256 8.999 4.767 8.999 4c0-1.654 1.346-3 3-3s3 1.346 3 3c0 1.118-.334 3.918-.967 8.099a2.536 2.536 0 0 0 .582 2.036 2.485 2.485 0 0 0 1.885.865h5c.827 0 1.5.673 1.5 1.5V20H1v-3.5Z"/></svg>