<svg xmlns="http://www.w3.org/2000/svg" width="512" height="512" data-name="Layer 1" viewBox="0 0 24 24"><path d="M12.5 7h-1V0h1v7Zm11.013 9.055L21.576 7.66a4.703 4.703 0 0 0-4.602-3.661h-1.975v1h1.975a3.707 3.707 0 0 1 3.627 2.885l1.937 8.395c.307 1.326.462 2.689.462 4.051 0 .713-.276 1.382-.777 1.883a2.69 2.69 0 0 1-1.885.786h-.004c-.284 0-.568-.047-.844-.139l-1.053-.448a3.48 3.48 0 0 1-1.322.525l2.022.857c.414.14.805.204 1.195.205h.006c.96 0 1.904-.393 2.591-1.079A3.631 3.631 0 0 0 24 20.33c0-1.438-.164-2.876-.487-4.276ZM4.51 22.861c-.275.092-.56.139-.844.139h-.004a2.694 2.694 0 0 1-1.885-.786A2.641 2.641 0 0 1 1 20.331c0-1.362.155-2.725.462-4.051l1.937-8.395A3.706 3.706 0 0 1 7.026 5h1.975V4H7.026a4.702 4.702 0 0 0-4.602 3.661L.487 16.055A19.05 19.05 0 0 0 0 20.331c0 .981.38 1.901 1.071 2.59A3.695 3.695 0 0 0 3.662 24h.006c.391 0 .781-.065 1.195-.205l2.022-.857a3.486 3.486 0 0 1-1.322-.525l-1.053.448ZM16.5 21a1.502 1.502 0 0 1-1.353-2.146l-.695-.695a3.979 3.979 0 0 1-1.952.81V21h-1v-2.031a3.987 3.987 0 0 1-1.952-.81l-.695.695A1.502 1.502 0 0 1 7.5 21c-.827 0-1.5-.673-1.5-1.5a1.502 1.502 0 0 1 2.146-1.353l.695-.695a3.979 3.979 0 0 1-.81-1.952H6v-1h2.031c.091-.729.38-1.398.81-1.952l-.695-.695A1.502 1.502 0 0 1 6 10.5C6 9.673 6.673 9 7.5 9a1.502 1.502 0 0 1 1.353 2.146l.695.695a3.979 3.979 0 0 1 1.952-.81V9h1v2.031c.729.091 1.398.38 1.952.81l.695-.695A1.502 1.502 0 0 1 16.5 9c.827 0 1.5.673 1.5 1.5a1.502 1.502 0 0 1-2.146 1.353l-.695.695c.43.553.719 1.222.81 1.952H18v1h-2.031a3.987 3.987 0 0 1-.81 1.952l.695.695A1.502 1.502 0 0 1 18 19.5c0 .827-.673 1.5-1.5 1.5ZM15 15c0-1.654-1.346-3-3-3s-3 1.346-3 3 1.346 3 3 3 3-1.346 3-3Zm1-4.5a.5.5 0 1 0 1.002-.002A.5.5 0 0 0 16 10.5Zm-8.5.5a.5.5 0 1 0-.002-1.002A.5.5 0 0 0 7.5 11Zm.5 8.5a.5.5 0 1 0-1.002.002A.5.5 0 0 0 8 19.5Zm9 0a.5.5 0 1 0-1.002.002A.5.5 0 0 0 17 19.5Z"/></svg>