<svg xmlns="http://www.w3.org/2000/svg" width="512" height="512" data-name="Layer 1" viewBox="0 0 24 24"><path d="m8.401 18.198.597.803C9.012 18.991 10.374 18 12 18s2.988.991 3.002 1.001l.597-.803C15.533 18.149 13.965 17 12 17s-3.532 1.149-3.599 1.198Z"/><path d="M12 0C5.383 0 0 5.383 0 12s5.383 12 12 12 12-5.383 12-12S18.617 0 12 0Zm0 23C5.935 23 1 18.065 1 12S5.935 1 12 1s11 4.935 11 11-4.935 11-11 11Z"/><path d="m9.168 4.525-.846-.535C7.481 5.317 6.21 6.372 4.643 7.04l.393.92c1.753-.747 3.182-1.936 4.132-3.435ZM19.03 7.96l.393-.92c-1.579-.673-2.878-1.73-3.756-3.058l-.834.551c.986 1.492 2.438 2.677 4.197 3.427Z"/><path d="M11 11.5c0-2.206-1.794-4-4-4s-4 1.794-4 4 1.794 4 4 4 4-1.794 4-4Zm-4 3c-1.654 0-3-1.346-3-3s1.346-3 3-3 3 1.346 3 3-1.346 3-3 3Z"/><path d="M7 9.5c-.205 0-.398.04-.584.097a.997.997 0 1 1-1.319 1.319A1.98 1.98 0 0 0 5 11.5a2 2 0 1 0 2-2Zm.5 3.5a.5.5 0 1 1 0-1 .5.5 0 0 1 0 1ZM17 7.5c-2.206 0-4 1.794-4 4s1.794 4 4 4 4-1.794 4-4-1.794-4-4-4Zm0 7c-1.654 0-3-1.346-3-3s1.346-3 3-3 3 1.346 3 3-1.346 3-3 3Z"/><path d="M17 9.5c-.205 0-.398.04-.584.097a.997.997 0 1 1-1.319 1.319A1.98 1.98 0 0 0 15 11.5a2 2 0 1 0 2-2Zm.5 3.5a.5.5 0 1 1 0-1 .5.5 0 0 1 0 1Z"/></svg>