<svg xmlns="http://www.w3.org/2000/svg" data-name="Layer 1" viewBox="0 0 24 24"><path d="M23.238 4.44a2.605 2.605 0 0 0 0-3.679c-.982-.983-2.695-.982-3.68 0l-9.03 9.059L.754.046.047.753l23.199 23.2.707-.707-9.745-9.746 9.031-9.06Zm-2.972-2.972a1.605 1.605 0 0 1 2.265 0 1.604 1.604 0 0 1 0 2.265l-9.03 9.059-2.264-2.264 9.03-9.059ZM2.59 13.343.109 23.921l10.576-2.48 1.524-6.254-3.398-3.338-6.222 1.495Zm7.27 7.265-7.485 1.755 4.321-4.321-.707-.707-4.322 4.321 1.754-7.484 5.085-1.221 2.598 2.552-1.245 5.106Z"/></svg>