<svg xmlns="http://www.w3.org/2000/svg" width="512" height="512" data-name="Layer 1" viewBox="0 0 24 24"><path d="M16 5a1 1 0 1 1 0 2 1 1 0 0 1 0-2ZM1 9.777C1 4.938 4.938 1 9.777 1a8.58 8.58 0 0 1 3.434.709c-1.996 1.38-3.869 4.036-4.154 7.026.352-.3.732-.565 1.137-.794.574-2.591 2.446-4.892 4.285-5.83l.835-.427-.82-.456A9.738 9.738 0 0 0 9.777-.001C4.386 0 0 4.386 0 9.777c0 3.245 1.595 6.117 4.036 7.897.037-.372.113-.733.219-1.083A8.76 8.76 0 0 1 1 9.777ZM20 4a1 1 0 1 0 0-2 1 1 0 0 0 0 2Zm2 6a1 1 0 1 0 0-2 1 1 0 0 0 0 2Zm-3 14h1v-5h-1v5Zm0-12c-.172 0-.347.01-.529.031C17.613 10.177 15.802 9 13.75 9a5.256 5.256 0 0 0-5.25 5.25c0 .159.01.312.025.456A3.767 3.767 0 0 0 6 18.25a3.755 3.755 0 0 0 3 3.674v-1.041a2.745 2.745 0 0 1-2-2.633 2.76 2.76 0 0 1 2.185-2.691l.473-.099-.083-.476a4.32 4.32 0 0 1-.075-.734A4.255 4.255 0 0 1 13.75 10c1.766 0 3.313 1.083 3.942 2.76l.147.394.413-.078c.271-.051.516-.076.748-.076 2.206 0 4 1.794 4 4a3.966 3.966 0 0 1-1 2.618v1.357c1.207-.914 2-2.348 2-3.974 0-2.757-2.243-5-5-5Zm-4 12h1v-5h-1v5Zm-4 0h1v-5h-1v5Z"/></svg>