<svg xmlns="http://www.w3.org/2000/svg" width="512" height="512" data-name="Layer 1" viewBox="0 0 24 24"><path d="M12 0C5.383 0 0 5.383 0 12s5.383 12 12 12 12-5.383 12-12S18.617 0 12 0Zm0 1c4.655 0 8.643 2.907 10.247 7h-2.373A4.006 4.006 0 0 0 16 5c-2.206 0-4 1.794-4 4a4.005 4.005 0 0 0 3.228 3.925c.374.332.772 1.036.772 1.575 0 1.11-2.9 2.5-4 2.5-1.192 0-4-1.308-4-2.5 0-.62.314-1.263.763-1.573A4.006 4.006 0 0 0 12 9c0-2.206-1.794-4-4-4a4.006 4.006 0 0 0-3.874 3H1.753C3.357 3.907 7.345 1 12 1Zm1 8c0-1.654 1.346-3 3-3s3 1.346 3 3-1.346 3-3 3-3-1.346-3-3Zm-5 3c-1.654 0-3-1.346-3-3s1.346-3 3-3 3 1.346 3 3-1.346 3-3 3Zm4 11C5.935 23 1 18.065 1 12c0-1.04.145-2.046.416-3H4c0 2.01 1.49 3.678 3.423 3.958A3.11 3.11 0 0 0 7 14.5c0 .546.246 1.043.632 1.479L5.954 17.21l.592.807 1.854-1.36a7.731 7.731 0 0 0 1.584.85l-.832 2.426.945.324.833-2.432c.425.115.8.175 1.069.175.278 0 .65-.066 1.065-.186l.837 2.443.945-.324-.842-2.458a8.302 8.302 0 0 0 1.544-.856l1.905 1.398.592-.807-1.72-1.262c.411-.443.674-.934.674-1.448 0-.511-.198-1.065-.477-1.534A4.005 4.005 0 0 0 19.999 9h2.584c.271.954.416 1.96.416 3 0 6.065-4.935 11-11 11ZM9 9a1 1 0 1 1-2 0 1 1 0 0 1 2 0Zm8 0a1 1 0 1 1-2 0 1 1 0 0 1 2 0Z"/></svg>