<svg xmlns="http://www.w3.org/2000/svg" width="512" height="512" data-name="Layer 1" viewBox="0 0 24 24"><path d="M23.18 9.66c-.5-.45-1.14-.68-1.81-.65-.67.03-1.29.32-1.74.82l-3.73 4.1a2.634 2.634 0 0 0-2.54-1.92H2.5A2.492 2.492 0 0 0 0 14.5v7A2.5 2.5 0 0 0 2.5 24h11.23l9.64-10.82c.91-1.02.83-2.6-.18-3.53Zm-.56 2.86L13.28 23H2.5c-.83 0-1.5-.67-1.5-1.5v-7c0-.83.67-1.5 1.5-1.5h10.86c.91 0 1.64.74 1.64 1.64 0 .81-.61 1.51-1.4 1.62L7.94 17l.13.99 5.67-.74a2.69 2.69 0 0 0 2.15-1.82l4.5-4.94c.27-.3.64-.47 1.05-.49.39-.01.79.12 1.09.39.61.56.66 1.51.11 2.12ZM4 7.6V7h1v.6C5 8.37 5.63 9 6.4 9h2.21c.77 0 1.4-.63 1.4-1.4 0-.68-.49-1.26-1.17-1.38l-2.83-.47A2.392 2.392 0 0 1 6.41 1h.6V0h1v1h.6c1.32 0 2.4 1.07 2.4 2.39V4h-1v-.61c0-.77-.63-1.39-1.4-1.39H6.4C5.63 2 5 2.63 5 3.39c0 .68.49 1.26 1.17 1.38L9 5.24c1.16.19 2 1.19 2 2.36A2.4 2.4 0 0 1 8.6 10H8v1H7v-1h-.6A2.4 2.4 0 0 1 4 7.6Z"/></svg>