<svg xmlns="http://www.w3.org/2000/svg" width="512" height="512" data-name="Layer 1" viewBox="0 0 24 24"><path d="M21.5 3h-9.382l-4-2H2.5A2.503 2.503 0 0 0 0 3.5V23h8.346l-1-1H1V8h22v14h-6.365l-1 1H24V5.5C24 4.121 22.879 3 21.5 3ZM1 7V3.5C1 2.673 1.673 2 2.5 2h5.382l4 2H21.5c.827 0 1.5.673 1.5 1.5V7H1Zm15.596 12.22-3.202 3.203c-.384.384-.889.576-1.394.576s-1.009-.192-1.394-.576L7.403 19.22l.707-.707 3.203 3.203c.057.057.12.106.187.146V12h1v9.862a.985.985 0 0 0 .187-.146l3.202-3.203.707.707Z"/></svg>