<svg xmlns="http://www.w3.org/2000/svg" width="512" height="512" data-name="Layer 1" viewBox="0 0 24 24"><path d="M12.344 12 9.279 8.278a3.486 3.486 0 0 0-2.698-1.275l-2.079-.002H4.5c-.667 0-1.295.26-1.767.731A2.481 2.481 0 0 0 2 9.501v2.5H0v9.5c0 1.378 1.122 2.5 2.5 2.5h19c1.378 0 2.5-1.122 2.5-2.5V12H12.344ZM9 13v10H6V13h3Zm1 0h4v10h-4V13Zm5 0h3v10h-3V13ZM3 9.5c0-.401.156-.778.44-1.061S4.1 8 4.501 8h.001l2.079.002c.749 0 1.451.333 1.927.911l2.542 3.086H3v-2.5Zm-2 12V13h4v10H2.5c-.827 0-1.5-.673-1.5-1.5Zm22 0c0 .827-.673 1.5-1.5 1.5H19V13h4v8.5ZM5.5 5C6.878 5 8 3.878 8 2.5S6.878 0 5.5 0 3 1.122 3 2.5 4.122 5 5.5 5Zm0-4C6.327 1 7 1.673 7 2.5S6.327 4 5.5 4 4 3.327 4 2.5 4.673 1 5.5 1Zm11.646 3.354A3.889 3.889 0 0 1 16 1.586V0h1v1.586c0 .778.303 1.51.854 2.061A3.889 3.889 0 0 1 19 6.415V8h-1V6.415c0-.779-.303-1.511-.854-2.061Zm4.054-.953c-.793-.786-1.201-1.769-1.201-2.814V0h1v.586c0 .778.303 1.51.854 2.061.733.541 1.125 1.459 1.146 2.76v1.594h-1V5.416c-.016-.962-.277-1.624-.799-2.014Z"/></svg>