<svg xmlns="http://www.w3.org/2000/svg" width="512" height="512" data-name="Layer 1" viewBox="0 0 24 24"><path d="m17.031 6.262 2.771-2.771L17.031.72l.707-.708 2.771 2.771L23.281.012l.707.707-2.771 2.771 2.771 2.771-.707.707-2.771-2.771-2.771 2.771-.707-.707ZM24 20.5c0 1.93-1.57 3.5-3.5 3.5S17 22.43 17 20.5a3.505 3.505 0 0 1 3-3.464V8h1v9.036c1.694.243 3 1.704 3 3.464Zm-1 0c0-1.378-1.121-2.5-2.5-2.5S18 19.122 18 20.5s1.121 2.5 2.5 2.5 2.5-1.122 2.5-2.5ZM4 6.964v10.072c1.694.243 3 1.704 3 3.464C7 22.43 5.43 24 3.5 24S0 22.43 0 20.5a3.505 3.505 0 0 1 3-3.464V6.964A3.505 3.505 0 0 1 0 3.5C0 1.57 1.57 0 3.5 0S7 1.57 7 3.5a3.505 3.505 0 0 1-3 3.464ZM3.5 6C4.879 6 6 4.878 6 3.5S4.879 1 3.5 1 1 2.122 1 3.5 2.121 6 3.5 6Zm0 12C2.121 18 1 19.122 1 20.5S2.121 23 3.5 23 6 21.878 6 20.5 4.879 18 3.5 18Z"/></svg>