<svg xmlns="http://www.w3.org/2000/svg" width="512" height="512" data-name="Layer 1" viewBox="0 0 24 24"><path d="M9 8.5c0-.431.204-1.079.419-1.766C9.691 5.867 10 4.884 10 4c0-2.206-1.794-4-4-4S2 1.794 2 4c0 .885.309 1.867.581 2.734C2.796 7.421 3 8.069 3 8.5c0 1.352-.638 2.513-1.314 3.743C.895 13.681 0 15.31 0 17.5c0 4.602 2.308 6.333 2.406 6.404l.131.096h6.925l.131-.096c.098-.071 2.406-1.803 2.406-6.404 0-2.19-.896-3.819-1.686-5.257-.676-1.229-1.314-2.391-1.314-3.743ZM6 1c1.654 0 3 1.346 3 3 0 .731-.272 1.597-.535 2.435-.175.557-.34 1.09-.418 1.565H3.953c-.078-.475-.243-1.008-.418-1.565C3.272 5.597 3 4.731 3 4c0-1.654 1.346-3 3-3Zm3.119 22H2.881C2.451 22.61 1 21.031 1 17.5c0-1.933.794-3.378 1.562-4.775.661-1.203 1.285-2.347 1.411-3.725h4.053c.126 1.378.75 2.522 1.411 3.725.768 1.397 1.562 2.842 1.562 4.775 0 3.535-1.455 5.114-1.881 5.5Zm13.195-10.757C21.638 11.014 21 9.852 21 8.5c0-.431.204-1.079.419-1.766C21.691 5.867 22 4.884 22 4c0-2.206-1.794-4-4-4s-4 1.794-4 4c0 .885.309 1.867.581 2.734.215.687.419 1.335.419 1.766 0 1.352-.638 2.513-1.314 3.743C12.895 13.681 12 15.31 12 17.5c0 4.602 2.308 6.333 2.406 6.404l.131.096h6.925l.131-.096c.098-.071 2.406-1.803 2.406-6.404 0-2.19-.896-3.819-1.686-5.257ZM18 1c1.654 0 3 1.346 3 3 0 .731-.272 1.597-.535 2.435-.175.557-.34 1.09-.418 1.565h-4.094c-.078-.475-.243-1.008-.418-1.565C15.272 5.597 15 4.731 15 4c0-1.654 1.346-3 3-3Zm3.119 22h-6.238c-.43-.39-1.881-1.969-1.881-5.5 0-1.933.794-3.378 1.562-4.775.661-1.203 1.285-2.347 1.411-3.725h4.053c.126 1.378.75 2.522 1.411 3.725.768 1.397 1.562 2.842 1.562 4.775 0 3.535-1.455 5.114-1.881 5.5Z"/></svg>