<svg xmlns="http://www.w3.org/2000/svg" width="512" height="512" data-name="Layer 1" viewBox="0 0 24 24"><path d="M22 16.982V8h-1v4h-4v-.5a2.505 2.505 0 0 0-2.166-2.478l-2.925-6.543A2.501 2.501 0 0 0 9.627 1H5v5.01H3.5A2.503 2.503 0 0 0 1 8.51v6.848c-.622.705-1 1.631-1 2.643 0 2.206 1.794 4 4 4h10c2.206 0 4-1.794 4-4a3.986 3.986 0 0 0-1-2.643v-2.357h4v3.982c0 2.073.808 4.022 2.273 5.488l.707-.707A6.717 6.717 0 0 1 22 16.983ZM6 2h3.626c.591 0 1.128.349 1.369.888L13.728 9H6V2ZM3.5 7.01H5L5.01 10h9.49c.827 0 1.5.673 1.5 1.5v3.037A3.98 3.98 0 0 0 14 14H4a3.98 3.98 0 0 0-2 .537V8.51c0-.827.673-1.5 1.5-1.5ZM14 21H4c-1.654 0-3-1.346-3-3s1.346-3 3-3h10c1.654 0 3 1.346 3 3s-1.346 3-3 3Zm-8-3a1 1 0 1 1-2 0 1 1 0 0 1 2 0Zm8 0a1 1 0 1 1-2 0 1 1 0 0 1 2 0Zm-4 0a1 1 0 1 1-2 0 1 1 0 0 1 2 0Z"/></svg>