<svg xmlns="http://www.w3.org/2000/svg" width="512" height="512" data-name="Layer 1" viewBox="0 0 24 24"><path d="M22 9.512c0 2.92-1.396 5.583-3.831 7.305-1.418 1.002-2.483 2.271-3.081 3.67-.496 1.162-1.364 2.12-2.509 2.77a5.718 5.718 0 0 1-2.809.739c-.403 0-.805-.043-1.196-.131-3.161-.712-4.588-3.541-4.574-5.867l1 .006c-.011 1.939 1.172 4.295 3.794 4.886a4.657 4.657 0 0 0 3.291-.501c.953-.542 1.674-1.334 2.083-2.293.671-1.57 1.854-2.985 3.423-4.094C19.789 14.447 21 12.143 21 9.513a8.512 8.512 0 0 0-2.838-6.34c-1.827-1.634-4.19-2.383-6.649-2.104-3.624.407-7.115 3.955-7.471 7.592a8.73 8.73 0 0 0-.027 1.351L4 11.01l-1-.017.016-.96a9.472 9.472 0 0 1 .03-1.469c.405-4.14 4.231-8.026 8.355-8.49 2.743-.308 5.383.526 7.427 2.353A9.514 9.514 0 0 1 22 9.512ZM18 10v-.488c0-3.033-2.468-5.5-5.5-5.5S7 6.479 7 9.512V11h2.001c.534 0 1.036.208 1.413.585A2.002 2.002 0 0 1 9 15v1c1.654 0 3-1.346 3-3 0-.801-.313-1.555-.879-2.122A2.979 2.979 0 0 0 9.001 10H8v-.488c0-2.481 2.019-4.5 4.5-4.5s4.5 2.019 4.5 4.5V10h1Z"/></svg>