<svg xmlns="http://www.w3.org/2000/svg" width="512" height="512" data-name="Layer 1" viewBox="0 0 24 24"><path d="M11.02 23H2.5c-.827 0-1.5-.673-1.5-1.5S1.673 20 2.5 20h6.874a8.524 8.524 0 0 1-.242-1H5V1h13.5a.5.5 0 0 1 .5.5v7.632c.341.061.674.142 1 .242V1.5c0-.827-.673-1.5-1.5-1.5h-16A2.503 2.503 0 0 0 0 2.5v19C0 22.879 1.122 24 2.5 24h9.523a8.62 8.62 0 0 1-1.004-1ZM2.5 1H4v18H2.5c-.562 0-1.082.187-1.5.501V2.5C1 1.673 1.673 1 2.5 1Zm15 10c-3.584 0-6.5 2.916-6.5 6.5s2.916 6.5 6.5 6.5 6.5-2.916 6.5-6.5-2.916-6.5-6.5-6.5Zm0 12c-3.033 0-5.5-2.468-5.5-5.5s2.467-5.5 5.5-5.5 5.5 2.468 5.5 5.5-2.467 5.5-5.5 5.5Zm-.5-9.587V17h-3v1h3v3.593l3.588-3.102a1.42 1.42 0 0 0-.003-2.004L17 13.413Zm2.907 4.347L18 19.407v-3.82l1.89 1.62c.152.163.149.418.017.553Z"/></svg>