<svg xmlns="http://www.w3.org/2000/svg" width="512" height="512" data-name="Layer 1" viewBox="0 0 24 24"><path d="M10.865 13.212c-1.353.497-2.193 1.664-2.193 3.046 0 1.842 1.013 3.954 1.862 5.4.309.527.867.841 1.492.841s1.182-.314 1.491-.84c1.213-2.067 1.84-3.857 1.862-5.321.013-.858-.353-1.718-1.005-2.357-.934-.915-2.272-1.223-3.509-.769Zm1.789 7.941c-.127.217-.362.347-.628.347s-.501-.13-.629-.347c-1.128-1.922-1.725-3.614-1.725-4.895 0-.952.589-1.76 1.538-2.108.271-.1.547-.15.818-.15a2.35 2.35 0 0 1 1.646.695c.457.449.714 1.042.705 1.628-.02 1.271-.616 2.942-1.725 4.831Zm11.032-7.794c-.258-.828-.882-1.543-1.711-1.964-.822-.418-1.735-.507-2.573-.253a3.39 3.39 0 0 0-1.06.545c-1.157.878-1.603 2.252-1.165 3.586.583 1.771 2.231 3.504 3.512 4.647a1.74 1.74 0 0 0 1.165.445c.186 0 .375-.029.56-.089a1.69 1.69 0 0 0 1.153-1.244c.358-1.614.67-3.908.12-5.674Zm-1.097 5.457c-.076.344-.363.471-.483.509a.763.763 0 0 1-.751-.15c-1.706-1.522-2.822-2.979-3.228-4.214-.301-.916.013-1.864.82-2.477A2.296 2.296 0 0 1 20.361 12c.391 0 .788.097 1.161.286.59.3 1.031.799 1.209 1.371.384 1.231.334 3.015-.142 5.159Zm-16.93-7.128a3.367 3.367 0 0 0-1.061-.546c-.839-.254-1.752-.166-2.572.253-.83.421-1.453 1.137-1.711 1.964-.55 1.766-.238 4.06.12 5.674a1.69 1.69 0 0 0 1.153 1.243c.185.06.374.089.56.089.426 0 .837-.153 1.165-.445 1.281-1.143 2.929-2.877 3.512-4.647.438-1.333-.008-2.708-1.165-3.585Zm.214 3.273c-.406 1.235-1.522 2.692-3.228 4.214a.763.763 0 0 1-.751.15c-.12-.039-.407-.166-.483-.509-.477-2.144-.526-3.928-.142-5.159.179-.571.62-1.071 1.21-1.371.59-.3 1.239-.367 1.829-.188.265.08.515.21.746.385.806.612 1.12 1.561.819 2.477Zm.292-9.149C2.66 4.415.318 2.268.176 2.134l.683-.731C.908 1.449 5.861 6 12.013 6s11.105-4.55 11.154-4.596l.683.73c-.143.134-2.484 2.281-5.989 3.677l1.352 3.424a5.253 5.253 0 0 0-.937.351l-1.355-3.432a15.606 15.606 0 0 1-4.408.823v4.043a5.303 5.303 0 0 0-1 .002V6.977a15.593 15.593 0 0 1-4.408-.823L5.75 9.586a5.331 5.331 0 0 0-.937-.351l1.352-3.424Z"/></svg>