<svg xmlns="http://www.w3.org/2000/svg" width="512" height="512" data-name="Layer 1" viewBox="0 0 24 24"><path d="M21.966 15.084c-.194-1.188-1.3-2.084-2.573-2.084H9.959L8.866 9h10.133V8H8.593l-1.65-6.041C6.607.68 5.376-.174 4.137.002a2.505 2.505 0 0 0-1.723 1.095 2.504 2.504 0 0 0-.331 2.015l3.334 12.304a3.507 3.507 0 0 0 2.15 2.361l-1.303 2.606c-.39.781-.349 1.69.11 2.433s1.254 1.186 2.126 1.186H21v-1H8.5c-.523 0-1-.266-1.276-.711s-.3-.991-.066-1.46l1.419-2.837c.072.005.145.008.218.008H19.5c.734 0 1.429-.321 1.905-.881s.681-1.302.562-2.035Zm-1.323 1.388A1.499 1.499 0 0 1 19.5 17H8.795a2.505 2.505 0 0 1-2.413-1.847L3.049 2.854a1.502 1.502 0 0 1 .199-1.206c.238-.359.598-.67 1.227-.67.673 0 1.311.511 1.502 1.24L9.196 14h10.197c.789 0 1.471.535 1.586 1.244.073.45-.046.887-.336 1.228Z"/></svg>