<svg xmlns="http://www.w3.org/2000/svg" width="512" height="512" data-name="Layer 1" viewBox="0 0 24 24"><path d="M24 24H2.5A2.5 2.5 0 0 1 0 21.5V0h1v21.5c0 .83.67 1.5 1.5 1.5H24v1ZM21 4c0-1.65-1.35-3-3-3s-3 1.35-3 3 1.35 3 3 3 3-1.35 3-3Zm-1 0c0 1.1-.9 2-2 2s-2-.9-2-2 .9-2 2-2 2 .9 2 2Zm0 10c0-1.65-1.35-3-3-3s-3 1.35-3 3 1.35 3 3 3 3-1.35 3-3Zm-1 0c0 1.1-.9 2-2 2s-2-.9-2-2 .9-2 2-2 2 .9 2 2Zm-8-6.5a2.5 2.5 0 0 0-5 0 2.5 2.5 0 0 0 5 0Zm-1 0C10 8.33 9.33 9 8.5 9S7 8.33 7 7.5 7.67 6 8.5 6s1.5.67 1.5 1.5Zm0 9a2.5 2.5 0 0 0-5 0 2.5 2.5 0 0 0 5 0Zm-1 0c0 .83-.67 1.5-1.5 1.5S6 17.33 6 16.5 6.67 15 7.5 15s1.5.67 1.5 1.5Z"/></svg>