<svg xmlns="http://www.w3.org/2000/svg" width="512" height="512" data-name="Layer 1" viewBox="0 0 24 24"><path d="M18 13a1 1 0 1 1-2 0 1 1 0 0 1 2 0Zm-3-4a1 1 0 1 0 0 2 1 1 0 0 0 0-2Zm5.109 11.109c-2.862 2.862-6.854 3.898-10.387 3.898-1.98 0-3.816-.325-5.229-.836-.505.505-1.239.828-1.902.828a2.584 2.584 0 0 1-2.59-2.586c-.001-.665.322-1.4.828-1.907C-.595 15.575-.577 8.358 3.891 3.891 8.358-.576 15.575-.593 19.507.829c.528-.528 1.3-.851 1.993-.827a2.58 2.58 0 0 1 1.741.756 2.58 2.58 0 0 1 .756 1.741c.024.693-.298 1.465-.826 1.993 1.424 3.932 1.406 11.148-3.062 15.616Zm1.893-15.861.532-.532c.3-.3.466-.7.466-1.125s-.166-.825-.466-1.125c-.601-.601-1.649-.601-2.25 0l-.532.532-.306-.122c-1.31-.523-3.131-.865-5.119-.865-3.314 0-7.091.95-9.729 3.587C.378 8.817.479 15.952 1.876 19.446l.122.306-.532.532c-.3.3-.466.7-.466 1.125s.166.825.466 1.125c.601.601 1.649.601 2.25 0l.532-.532.306.122c3.493 1.397 10.628 1.497 14.848-2.722 4.22-4.22 4.119-11.354 2.722-14.848l-.122-.306ZM19 9a1 1 0 1 0 0 2 1 1 0 0 0 0-2Z"/></svg>