<svg xmlns="http://www.w3.org/2000/svg" width="512" height="512" data-name="Layer 1" viewBox="0 0 24 24"><path d="M22.946 9.222 21 7.326V2.5C21 1.122 19.879 0 18.5 0h-13A2.503 2.503 0 0 0 3 2.5v4.828L1.053 9.222A3.523 3.523 0 0 0 0 11.725V24h24V11.724c0-.936-.384-1.848-1.054-2.502Zm-.698.716c.045.044.087.089.128.136L21 11.45V8.723l1.248 1.216ZM5.5 1h13c.827 0 1.5.673 1.5 1.5v9.949l-5.525 5.526c-1.321 1.322-3.627 1.323-4.95 0L4 12.449V2.5C4 1.673 4.673 1 5.5 1ZM3 8.723v2.726l-1.376-1.376c.041-.047.083-.092.127-.135L3 8.723ZM23 23H1V11.725c0-.254.04-.506.115-.746l7.702 7.703c.85.85 1.98 1.318 3.182 1.318s2.332-.468 3.182-1.318l7.703-7.704a2.5 2.5 0 0 1 .115.746V23ZM17 6H7V5h10v1Zm-2 4H7V9h8v1Z"/></svg>