<svg xmlns="http://www.w3.org/2000/svg" width="512" height="512" data-name="Layer 1" viewBox="0 0 24 24"><path d="M23.998 6.499C23.998 3.219 20.779 0 17.5 0H17v3.815c-1.058-.515-2.206-.781-3.488-.813-2.619-.067-5.357 1.069-7.398 3.11s-3.179 4.748-3.109 7.415c.021.776.155 2.151.775 3.473H.022l-.021.48c-.062 1.489.604 3.075 1.829 4.352C3.133 23.189 4.878 24 6.499 24h.5v-3.779c1.322.62 2.698.755 3.476.775 2.642.066 5.368-1.063 7.414-3.109 2.042-2.041 3.176-4.737 3.11-7.399-.032-1.282-.299-2.432-.813-3.488h3.811v-.5Zm-5.564-.5.48.766c.696 1.108 1.051 2.334 1.086 3.748.059 2.389-.968 4.818-2.817 6.667-1.852 1.852-4.283 2.881-6.681 2.816-1.405-.037-2.765-.417-3.73-1.042l-.771-.499v4.515c-1.209-.146-2.466-.808-3.447-1.83-.902-.94-1.447-2.061-1.54-3.139h4.53l-.499-.772c-.625-.966-1.004-2.324-1.041-3.728-.062-2.394.964-4.829 2.816-6.682s4.322-2.892 6.667-2.817c1.413.035 2.639.39 3.747 1.086l.766.48v-4.54c2.548.291 4.678 2.75 4.965 4.971h-4.531Zm-4.302 8.453.707.707c-1.166 1.168-2.688 1.847-4.119 1.847-.083 0-.165-.002-.248-.007-.89-.049-1.656-.371-2.217-.932l.707-.707c.384.384.925.604 1.565.641 1.203.056 2.583-.527 3.604-1.549Z"/></svg>