<svg xmlns="http://www.w3.org/2000/svg" width="512" height="512" data-name="Layer 1" viewBox="0 0 24 24"><path d="M24 12c0 6.617-5.383 12-12 12S0 18.617 0 12c0-1.21.184-2.378.519-3.48.298.148.611.268.942.347A10.956 10.956 0 0 0 1 12c0 6.065 4.935 11 11 11s11-4.935 11-11S18.065 1 12 1a10.92 10.92 0 0 0-5.452 1.459 8.008 8.008 0 0 0-.439-.902A11.913 11.913 0 0 1 12 0c6.617 0 12 5.383 12 12ZM0 4.5C0 2.681 2.062.631 2.149.544l.354-.349.351.353C3.074.769 5 2.754 5 4.5 5 5.879 3.878 7 2.5 7S0 5.879 0 4.5Zm1 0C1 5.327 1.673 6 2.5 6S4 5.327 4 4.5c0-.925-.895-2.16-1.503-2.864C1.89 2.329 1 3.552 1 4.5Zm7.402 12.698.596.803C9.011 17.991 10.373 17 12 17s2.989.991 3.002 1.001l.596-.803C15.533 17.149 13.965 16 12 16s-3.533 1.149-3.598 1.198ZM10 11H6v1h4v-1Zm8 0h-4v1h4v-1Z"/></svg>