<svg xmlns="http://www.w3.org/2000/svg" width="512" height="512" data-name="Layer 1" viewBox="0 0 24 24"><path d="m2.552 7.121-.715-.698L4.202 4H5v11H4V5.639L2.552 7.121ZM16 7.5v-4C16 1.57 17.57 0 19.5 0S23 1.57 23 3.5v4c0 1.93-1.57 3.5-3.5 3.5S16 9.43 16 7.5Zm1 0c0 1.378 1.121 2.5 2.5 2.5S22 8.878 22 7.5v-4C22 2.122 20.879 1 19.5 1S17 2.122 17 3.5v4Zm-10 2v-4C7 3.57 8.57 2 10.5 2S14 3.57 14 5.5v4c0 1.93-1.57 3.5-3.5 3.5S7 11.43 7 9.5Zm1 0c0 1.378 1.121 2.5 2.5 2.5S13 10.878 13 9.5v-4C13 4.122 11.879 3 10.5 3S8 4.122 8 5.5v4Zm15.645 4.468L.145 19.05l.211.978 23.5-5.082-.211-.978Zm.035 5.575L8.886 23.014l.229.974 14.794-3.471-.229-.974Z"/></svg>