<svg xmlns="http://www.w3.org/2000/svg" width="512" height="512" data-name="Layer 1" viewBox="0 0 24 24"><path d="M9.5 12c0 1.379 1.122 2.5 2.5 2.5s2.5-1.121 2.5-2.5-1.122-2.5-2.5-2.5-2.5 1.121-2.5 2.5Zm4 0c0 .827-.673 1.5-1.5 1.5s-1.5-.673-1.5-1.5.673-1.5 1.5-1.5 1.5.673 1.5 1.5ZM24 12c0 5.182-3.307 9.594-7.917 11.27l.207-1.141C20.23 20.454 23 16.545 23 12.001c0-6.065-4.935-11-11-11S1 5.935 1 12c0 4.547 2.773 8.458 6.716 10.131l.203 1.139C3.309 21.595 0 17.183 0 12 0 5.383 5.383 0 12 0s12 5.383 12 12ZM6 12c0 1.54.588 2.942 1.546 4.006-.193.31-.332.65-.421 1.007a6.976 6.976 0 0 1-2.124-5.012c0-3.859 3.14-7 7-7s7 3.141 7 7c0 1.958-.81 3.729-2.111 5a3.533 3.533 0 0 0-.427-1.003 5.967 5.967 0 0 0 1.538-3.997c0-3.309-2.691-6-6-6s-6 2.691-6 6Zm7.969 4.429C12.884 16.075 12.299 16 12 16s-.879.073-1.956.424a1.517 1.517 0 0 0-1.009 1.717L10.081 24h3.836l1.07-5.897c.126-.71-.321-1.444-1.019-1.674Zm.034 1.497L13.082 23h-2.164l-.9-5.039a.514.514 0 0 1 .336-.586C11.393 17.036 11.851 17 12 17s.61.037 1.658.38c.23.075.385.32.345.546Z"/></svg>