<svg xmlns="http://www.w3.org/2000/svg" width="512" height="512" data-name="Layer 1" viewBox="0 0 24 24"><path d="M19.5 0h-15A2.503 2.503 0 0 0 2 2.5V24h20V2.5C22 1.122 20.879 0 19.5 0ZM21 23H3V2.5C3 1.673 3.673 1 4.5 1h15c.827 0 1.5.673 1.5 1.5V23ZM7 19h10v1H7v-1Zm5-15c-3.309 0-6 2.691-6 6s2.691 6 6 6 6-2.691 6-6-2.691-6-6-6Zm4.975 5.5h-1.984c-.063-1.671-.439-3.108-1.018-4.094A5.014 5.014 0 0 1 16.976 9.5ZM12 15c-.888 0-1.875-1.893-1.989-4.5h3.978C13.875 13.107 12.888 15 12 15Zm-1.989-5.5C10.125 6.893 11.112 5 12 5s1.875 1.893 1.989 4.5h-3.978Zm.017-4.094c-.58.986-.956 2.424-1.018 4.094H7.026a5.011 5.011 0 0 1 3.003-4.094ZM7.025 10.5h1.984c.063 1.671.439 3.108 1.018 4.094A5.014 5.014 0 0 1 7.024 10.5Zm6.947 4.094c.58-.986.956-2.424 1.018-4.094h1.984a5.011 5.011 0 0 1-3.003 4.094Z"/></svg>