<svg xmlns="http://www.w3.org/2000/svg" width="512" height="512" data-name="Layer 1" viewBox="0 0 24 24"><path d="M0 21.5A2.5 2.5 0 0 0 2.5 24h19a2.5 2.5 0 0 0 2.5-2.5V15H0v6.5Zm1 0v-1l.1.1L5.7 16h3.59L2.3 22.99A1.51 1.51 0 0 1 .99 21.5ZM7.29 23H3.71l7-7h3.59l-7 7Zm8.41-7h3.59l-7 7H8.7l7-7Zm5.79 7H18.7l4.29-4.29v2.79c0 .83-.67 1.5-1.5 1.5Zm1.5-5.71L17.28 23h-3.59l7-7h2.29v1.29ZM4.28 16 .99 19.29V16h3.29ZM14 5h4c.83 0 1.5.67 1.5 1.5V9h-3.58l3.1 3.56a1.337 1.337 0 0 0 1.99-.01L24.08 9H20.5V6.5A2.5 2.5 0 0 0 18 4h-4V2.5A2.5 2.5 0 0 0 11.5 0h-9A2.5 2.5 0 0 0 0 2.5V9h14V5Zm6.26 6.89c-.17.19-.33.19-.49 0L18.12 10h3.78l-1.63 1.89ZM13 8H1V2.5C1 1.67 1.67 1 2.5 1h9c.83 0 1.5.67 1.5 1.5V8Z"/></svg>