<svg xmlns="http://www.w3.org/2000/svg" width="512" height="512" data-name="Layer 1" viewBox="0 0 24 24"><path d="M15.95 2a2.504 2.504 0 0 0-2.45-2h-3C9.292 0 8.283.86 8.05 2H3v19.5C3 22.878 4.122 24 5.5 24h13c1.378 0 2.5-1.122 2.5-2.5V2h-5.05ZM20 21.5c0 .827-.673 1.5-1.5 1.5h-13c-.827 0-1.5-.673-1.5-1.5V3h5v-.5c0-.827.673-1.5 1.5-1.5h3c.827 0 1.5.673 1.5 1.5V3h5v18.5ZM14.5 14c1.378 0 2.5 1.122 2.5 2.5V19h-1v-2.5c0-.827-.673-1.5-1.5-1.5h-5c-.827 0-1.5.673-1.5 1.5V19H7v-2.5C7 15.122 8.122 14 9.5 14h5ZM12 13c1.654 0 3-1.346 3-3s-1.346-3-3-3-3 1.346-3 3 1.346 3 3 3Zm0-5c1.103 0 2 .897 2 2s-.897 2-2 2-2-.897-2-2 .897-2 2-2Z"/></svg>