<svg xmlns="http://www.w3.org/2000/svg" width="512" height="512" data-name="Layer 1" viewBox="0 0 24 24"><path d="M17.971.66a2.277 2.277 0 0 0-2.345-.54 2.073 2.073 0 0 0-1.432 1.716 2.928 2.928 0 0 1-.844 1.717 2.937 2.937 0 0 1-1.717.844 2.739 2.739 0 0 0-2.338 2.338 2.937 2.937 0 0 1-.844 1.717 2.937 2.937 0 0 1-1.717.844 2.739 2.739 0 0 0-2.338 2.338A2.967 2.967 0 0 1 1.799 14.2c-.792.113-1.419.646-1.68 1.426a2.277 2.277 0 0 0 .54 2.344l6.003 6.002.31-.621c.184-.368.833-1.383 1.622-1.657l.305-.103c.623-.206 1.328-.438 1.893-1.003a3.928 3.928 0 0 0 1.129-2.297 1.725 1.725 0 0 1 1.473-1.473 3.927 3.927 0 0 0 2.298-1.129 3.93 3.93 0 0 0 1.129-2.298 1.746 1.746 0 0 1 1.473-1.472 3.922 3.922 0 0 0 2.297-1.129c.623-.624.865-1.412 1.078-2.108.237-.771 1.302-1.524 1.679-1.708l.63-.308L17.971.66ZM1.068 15.943c.066-.198.284-.669.895-.756.877-.113 1.671-.503 2.297-1.129s1.017-1.42 1.129-2.297a1.747 1.747 0 0 1 1.473-1.473 3.93 3.93 0 0 0 2.297-1.129 3.922 3.922 0 0 0 1.129-2.297 1.747 1.747 0 0 1 1.473-1.473 3.928 3.928 0 0 0 2.297-1.129 3.94 3.94 0 0 0 1.132-2.32c.084-.588.555-.806.753-.872A1.36 1.36 0 0 1 16.37 1c.298 0 .625.098.895.367l1.679 1.68a2.736 2.736 0 0 0-1.469 2.067 2.931 2.931 0 0 1-.844 1.717 2.934 2.934 0 0 1-1.718.844 2.739 2.739 0 0 0-2.338 2.338 2.925 2.925 0 0 1-.844 1.717 2.94 2.94 0 0 1-1.717.844 2.74 2.74 0 0 0-2.338 2.338 2.925 2.925 0 0 1-.844 1.717 2.94 2.94 0 0 1-1.717.844 2.742 2.742 0 0 0-2.067 1.47l-1.68-1.68c-.409-.409-.422-.95-.299-1.32Zm19.644-7.552c-.196.641-.382 1.246-.829 1.694a2.94 2.94 0 0 1-1.717.844 2.738 2.738 0 0 0-2.338 2.337 2.942 2.942 0 0 1-.844 1.718 2.94 2.94 0 0 1-1.718.844 2.739 2.739 0 0 0-2.338 2.338 2.925 2.925 0 0 1-.844 1.717c-.396.396-.932.573-1.499.761l-.319.107c-.836.29-1.473 1.04-1.838 1.574l-2.613-2.613c.181-.642.758-1.16 1.426-1.246a3.925 3.925 0 0 0 2.297-1.129 3.928 3.928 0 0 0 1.129-2.297 1.748 1.748 0 0 1 1.473-1.473 3.925 3.925 0 0 0 2.297-1.129 3.925 3.925 0 0 0 1.129-2.297 1.748 1.748 0 0 1 1.473-1.473 3.93 3.93 0 0 0 2.298-1.129 3.936 3.936 0 0 0 1.129-2.298c.085-.667.602-1.244 1.245-1.425l2.608 2.609c-.547.368-1.346 1.118-1.607 1.967Z"/></svg>