<svg xmlns="http://www.w3.org/2000/svg" width="512" height="512" data-name="Layer 1" viewBox="0 0 24 24"><path d="M24 7.5C24 6.121 22.878 5 21.5 5H19V2h3V1h-7v1h3v3H2.5A2.503 2.503 0 0 0 0 7.5V21h2v2h1v-2h18v2h1v-2h2V7.5ZM23 20H1V7.5C1 6.673 1.673 6 2.5 6h19c.827 0 1.5.673 1.5 1.5V20ZM9 4H2V3h7v1Zm8 5c-2.206 0-4 1.794-4 4s1.794 4 4 4 4-1.794 4-4-1.794-4-4-4Zm0 7a2.994 2.994 0 0 1-2.69-1.698L17 12.996l-2.716-1.251A2.999 2.999 0 0 1 17 9.999c1.654 0 3 1.346 3 3s-1.346 3-3 3ZM7 9c-2.206 0-4 1.794-4 4 0 2.5 2 4 4 4 2.206 0 4-1.794 4-4S9.206 9 7 9Zm0 7c-.292 0-.57-.055-.837-.134l.83-2.874-2.845.89A2.971 2.971 0 0 1 4 12.999c0-1.654 1.346-3 3-3s3 1.346 3 3-1.346 3-3 3Z"/></svg>