<svg xmlns="http://www.w3.org/2000/svg" width="512" height="512" data-name="Layer 1" viewBox="0 0 24 24"><path d="M20 0H6.5C3.977 0 2 3.075 2 7v14c0 1.103-.897 2-2 2v1h13.5c1.93 0 3.5-1.57 3.5-3.5V16h3c2.243 0 4-3.514 4-8s-1.757-8-4-8Zm-4 8v12.5c0 1.379-1.121 2.5-2.5 2.5H2.234A2.987 2.987 0 0 0 3 21V7c0-3.252 1.603-6 3.5-6h11.535C16.811 2.353 16 4.952 16 8Zm1 7v-1.655c.294.662.643 1.222 1.035 1.655H17Zm3 0c-1.419 0-3-2.875-3-7s1.581-7 3-7 3 2.875 3 7-1.581 7-3 7Zm1-7c0 .828-.448 1.5-1 1.5s-1-.672-1-1.5.448-1.5 1-1.5 1 .672 1 1.5Z"/></svg>