<svg xmlns="http://www.w3.org/2000/svg" width="512" height="512" data-name="Layer 1" viewBox="0 0 24 24"><path d="M12 0C5.383 0 0 5.383 0 12s5.383 12 12 12 12-5.383 12-12S18.617 0 12 0Zm0 23C5.935 23 1 18.065 1 12S5.935 1 12 1s11 4.935 11 11-4.935 11-11 11ZM8 11c1.103 0 2-.897 2-2s-.897-2-2-2-2 .897-2 2 .897 2 2 2Zm0-3a1.001 1.001 0 1 1-1 1c0-.551.448-1 1-1Zm8 3c1.103 0 2-.897 2-2s-.897-2-2-2-2 .897-2 2 .897 2 2 2Zm0-3a1.001 1.001 0 1 1-1 1c0-.551.448-1 1-1Zm.5 5h-9C6.121 13 5 14.122 5 15.5S6.121 18 7.5 18h9c1.379 0 2.5-1.122 2.5-2.5S17.879 13 16.5 13ZM14 14v3h-4v-3h4Zm-8 1.5c0-.827.673-1.5 1.5-1.5H9v3H7.5c-.827 0-1.5-.673-1.5-1.5ZM16.5 17H15v-3h1.5c.827 0 1.5.673 1.5 1.5s-.673 1.5-1.5 1.5Z"/></svg>