<svg xmlns="http://www.w3.org/2000/svg" width="512" height="512" data-name="Layer 1" viewBox="0 0 24 24"><path d="M8.5 0A2.503 2.503 0 0 0 6 2.5v1.791L1.732 8.49C1.259 8.962 1 9.59 1 10.258s.26 1.296.72 1.754L7 17.697v6.304h14v-6.404l1.678-4.195A4.469 4.469 0 0 0 23 11.73V3.103S9.629 0 8.5 0ZM22 11.729c0 .448-.084.886-.25 1.3l-1.714 4.285L20 23H8v-5.696l-5.561-5.986c-.283-.283-.439-.66-.439-1.061s.156-.777.437-1.058L6 5.693V10h1V2.5C7 1.673 7.673 1 8.5 1c.749 0 8.338 1.699 13.5 2.897v7.833Z"/></svg>