<svg xmlns="http://www.w3.org/2000/svg" width="512" height="512" data-name="Layer 1" viewBox="0 0 24 24"><path d="M24 15.5c0 3.584-2.916 6.5-6.5 6.5h-5C8.916 22 6 19.084 6 15.5S8.916 9 12.5 9h2.449a3.411 3.411 0 0 1-.301 1h-2.149c-3.033 0-5.5 2.468-5.5 5.5s2.467 5.5 5.5 5.5h5c3.032 0 5.5-2.468 5.5-5.5a5.506 5.506 0 0 0-3.245-5.011 8.4 8.4 0 0 0 .184-1.01c2.378.967 4.061 3.3 4.061 6.021Zm-23-7C1 5.468 3.467 3 6.5 3h5C14.532 3 17 5.468 17 8.5S14.533 14 11.5 14H9.351a3.473 3.473 0 0 0-.301 1h2.449c3.584 0 6.5-2.916 6.5-6.5S15.083 2 11.499 2H6.5A6.508 6.508 0 0 0 0 8.5c0 2.721 1.683 5.054 4.061 6.021a8.4 8.4 0 0 1 .184-1.01A5.505 5.505 0 0 1 1 8.5Z"/></svg>