<svg xmlns="http://www.w3.org/2000/svg" width="512" height="512" data-name="Layer 1" viewBox="0 0 24 24"><path d="M23.519 11.414a4.085 4.085 0 0 0 .163-2.72 4.138 4.138 0 0 0-2.191-2.59c-.373-.179-.631-.519-.674-.887a4.089 4.089 0 0 0-1.634-2.842 4.095 4.095 0 0 0-3.154-.753c-.375.064-.784-.088-1.101-.405C14.145.436 13.109.006 12.011.006s-2.133.43-2.916 1.211c-.316.316-.731.469-1.101.405a4.101 4.101 0 0 0-3.153.753 4.088 4.088 0 0 0-1.634 2.843c-.042.367-.301.707-.674.886a4.14 4.14 0 0 0-2.191 2.59 4.073 4.073 0 0 0 .163 2.72c.162.387.162.797 0 1.184a4.08 4.08 0 0 0-.162 2.721 4.143 4.143 0 0 0 2.191 2.59c.373.179.631.519.674.886a4.09 4.09 0 0 0 1.634 2.843 4.102 4.102 0 0 0 3.154.753c.37-.065.783.088 1.1.404.783.781 1.818 1.212 2.916 1.212s2.133-.431 2.916-1.212c.316-.316.726-.47 1.101-.404a4.097 4.097 0 0 0 3.154-.753 4.087 4.087 0 0 0 1.634-2.843c.042-.367.301-.707.674-.886a4.143 4.143 0 0 0 2.191-2.59 4.087 4.087 0 0 0-.163-2.721 1.503 1.503 0 0 1 0-1.184Zm-.799 3.629a3.142 3.142 0 0 1-1.663 1.963c-.68.327-1.153.968-1.234 1.673a3.098 3.098 0 0 1-1.238 2.155 3.098 3.098 0 0 1-2.391.569c-.692-.118-1.43.138-1.975.684-1.187 1.186-3.23 1.186-4.417 0-.458-.458-1.053-.711-1.64-.711-.112 0-.223.009-.333.027a3.107 3.107 0 0 1-2.391-.569 3.096 3.096 0 0 1-1.237-2.155c-.082-.705-.555-1.347-1.234-1.673a3.135 3.135 0 0 1-1.662-1.963 3.09 3.09 0 0 1 .124-2.061 2.518 2.518 0 0 0 0-1.954 3.087 3.087 0 0 1-.124-2.06 3.142 3.142 0 0 1 1.663-1.964c.68-.327 1.153-.968 1.234-1.673A3.113 3.113 0 0 1 7.83 2.608c.696.118 1.43-.14 1.974-.684 1.186-1.185 3.231-1.184 4.417 0 .545.545 1.283.8 1.975.684a3.1 3.1 0 0 1 2.391.569 3.1 3.1 0 0 1 1.238 2.154c.082.706.554 1.347 1.234 1.673a3.142 3.142 0 0 1 1.663 1.964 3.1 3.1 0 0 1-.124 2.06 2.518 2.518 0 0 0 0 1.954c.277.663.319 1.376.124 2.061ZM7.003 13.002a.998.998 0 1 1-1.996 0 .998.998 0 0 1 1.996 0Zm5.005 5a.997.997 0 1 1-1.994 0 .997.997 0 0 1 1.994 0ZM10.011 7.004a1 1 0 1 1 0-2 1 1 0 0 1 0 2Zm3.997 3.994a.998.998 0 1 1-1.996 0 .998.998 0 0 1 1.996 0Zm5 3.004a.998.998 0 1 1-1.996 0 .998.998 0 0 1 1.996 0Z"/></svg>