<svg xmlns="http://www.w3.org/2000/svg" width="512" height="512" data-name="Layer 1" viewBox="0 0 24 24"><path d="M24 2.5v9.342a14.256 14.256 0 0 0-1-1.093V2.5c0-.827-.673-1.5-1.5-1.5h-19C1.673 1 1 1.673 1 2.5V23h9.309c.323.359.67.696 1.046 1H0V2.5C0 1.122 1.121 0 2.5 0h19C22.879 0 24 1.122 24 2.5ZM3 4a1 1 0 1 0 2 0 1 1 0 0 0-2 0Zm4 0a1 1 0 1 0 2 0 1 1 0 0 0-2 0Zm17 13c0 3.651-3 7.037-7 7.037S10 20.651 10 17c0-2.152 1.314-3.756 2.304-4.775l.561-.578.27.759c.259.732.677 1.475.892 1.593.308-.04.538-.817.782-1.638.344-1.156.771-2.594 1.814-3.799l.352-.406.38.38c.492.492 1.145 1.013 1.836 1.563 2.143 1.709 4.811 3.836 4.811 6.901Zm-7.468 5.982a6.042 6.042 0 0 0 .936 0c.347-.083.676-.259.946-.529.378-.378.586-.88.586-1.414s-.208-1.037-.586-1.415L17 18.21l-1.414 1.414c-.378.378-.586.88-.586 1.415s.208 1.036.586 1.414c.27.27.599.446.946.529ZM23 17c0-2.583-2.355-4.462-4.435-6.12-.541-.432-1.06-.845-1.51-1.251-.68.964-1.014 2.089-1.289 3.016-.376 1.264-.7 2.355-1.767 2.355-.646 0-1.159-.766-1.504-1.507-.776.904-1.496 2.062-1.496 3.507a6.006 6.006 0 0 0 3.306 5.36 2.984 2.984 0 0 1-.306-1.322c0-.801.312-1.555.879-2.122l2.121-2.121 2.121 2.121c.566.567.879 1.32.879 2.122 0 .466-.106.916-.306 1.322A6.007 6.007 0 0 0 22.999 17Z"/></svg>