<svg xmlns="http://www.w3.org/2000/svg" width="512" height="512" data-name="Layer 1" viewBox="0 0 24 24"><path d="M4 16c0 2.206 1.794 4 4 4s4-1.794 4-4-1.794-4-4-4-4 1.794-4 4Zm7 0c0 1.654-1.346 3-3 3s-3-1.346-3-3 1.346-3 3-3 3 1.346 3 3ZM10 5H9V0h1v5Zm2.961 1.198-.875-.483 2.417-4.378.875.483-2.417 4.377Zm-6.899 0L3.646 1.821l.875-.483 2.416 4.377-.875.483ZM8.236 8C3.977 8 .371 11.212.029 15.312a8.027 8.027 0 0 0 2.192 6.219 8.014 8.014 0 0 0 6.106 2.463c2.855-.114 5.552-1.931 6.87-4.628.55-1.126.82-2.296.802-3.479-.012-.771.504-1.425 1.226-1.556L24 13.099V8H8.236ZM23 12.264l-5.954 1.083c-1.206.219-2.066 1.294-2.047 2.556.016 1.038-.213 2.027-.701 3.024-1.159 2.371-3.519 3.968-6.012 4.067a6.97 6.97 0 0 1-5.344-2.154 7.024 7.024 0 0 1-1.918-5.443c.3-3.587 3.467-6.396 7.211-6.396h14.764v3.264Z"/></svg>