<svg xmlns="http://www.w3.org/2000/svg" width="512" height="512" data-name="Layer 1" viewBox="0 0 24 24"><path d="M23.691 17.584c-.049-.02-2.203-.901-5.446-1.885L22.66 0h-3.645c-.795 0-1.55.383-2.019 1.025l-6.803 9.31A6.524 6.524 0 0 1 4.944 13H0v1h2.5c8.859 0 18.651 3.661 20.5 4.385v.23C21.151 19.339 11.359 23 2.5 23H0v1h2.5c9.983 0 21.08-4.538 21.191-4.584l.309-.128v-1.576l-.309-.128ZM7.909 13.386a7.517 7.517 0 0 0 3.092-2.461l6.803-9.31A1.508 1.508 0 0 1 19.016 1h2.324l-4.054 14.414c-2.683-.777-5.968-1.572-9.376-2.029ZM14 18v1H7v-1h7Z"/></svg>