<svg xmlns="http://www.w3.org/2000/svg" width="512" height="512" data-name="Layer 1" viewBox="0 0 24 24"><path d="m20.43 11.28 3.53-3.53-.71-.71L20 10.29 13.71 4 16.96.75l-.71-.71-3.53 3.53-6.14 2.3L.75.05l-.7.7 23.2 23.2.71-.71-5.83-5.83 2.3-6.14Zm-7.56-6.7 6.54 6.54-2.07 5.52-9.98-9.99 5.52-2.07ZM2.27 22.44l5.72-5.72c.3.18.64.28 1.02.28 1.1 0 2-.9 2-2s-.9-2-2-2-2 .9-2 2c0 .37.1.72.28 1.02l-5.73 5.72L4.71 8.25l-.83-.83L0 24l16.55-3.92-.83-.83-13.45 3.19ZM9 14c.55 0 1 .45 1 1s-.45 1-1 1-1-.45-1-1 .45-1 1-1Z"/></svg>