<svg xmlns="http://www.w3.org/2000/svg" width="512" height="512" data-name="Layer 1" viewBox="0 0 24 24"><path d="M21 3a1 1 0 1 1-2 0 1 1 0 0 1 2 0Zm-5 2a1 1 0 1 0 0 2 1 1 0 0 0 0-2Zm6 3a1 1 0 1 0 0 2 1 1 0 0 0 0-2ZM4.255 16.591A8.76 8.76 0 0 1 1 9.777C1 4.938 4.937 1 9.777 1a8.58 8.58 0 0 1 3.434.709c-1.996 1.38-3.869 4.036-4.154 7.026.352-.3.732-.565 1.137-.794.574-2.591 2.446-4.892 4.285-5.83l.835-.427-.82-.456A9.738 9.738 0 0 0 9.777-.001C4.386 0 0 4.386 0 9.777c0 3.245 1.595 6.117 4.036 7.897.037-.372.113-.733.219-1.083ZM24 17c0-2.757-2.243-5-5-5-.172 0-.348.011-.529.031C17.613 10.177 15.801 9 13.75 9a5.256 5.256 0 0 0-5.25 5.25c0 .159.011.313.025.457A3.766 3.766 0 0 0 6 18.25 3.755 3.755 0 0 0 9.75 22h.712v-1H9.75A2.752 2.752 0 0 1 7 18.25c0-1.295.919-2.426 2.186-2.69l.474-.099-.084-.477a4.349 4.349 0 0 1-.075-.734 4.254 4.254 0 0 1 4.25-4.25c1.766 0 3.313 1.084 3.942 2.761l.147.394.414-.078c.27-.051.514-.076.746-.076 2.206 0 4 1.794 4 4s-1.794 4-4 4v1c2.757 0 5-2.243 5-5Zm-7.185 3.714a1.103 1.103 0 0 0-.92-1.714h-2.78a.109.109 0 0 1-.092-.047.106.106 0 0 1-.023-.063l2.007-3.371-.859-.512-2.1 3.556c-.104.341-.04.701.172.987.213.286.539.45.896.45h2.78c.041 0 .071.019.091.055s.018.072-.021.134l-1.898 3.31.867.498 1.882-3.282Zm-4.175 1.251A3.07 3.07 0 0 1 10.847 21H10a.5.5 0 0 0 0 1h2.62l.02-.035ZM18.999 21h-.133c-.079.26-.192.513-.341.75l-.143.25h.617a.5.5 0 0 0 0-1Z"/></svg>