<svg xmlns="http://www.w3.org/2000/svg" width="512" height="512" data-name="Layer 1" viewBox="0 0 24 24"><path d="M19 15.5v-7a2.5 2.5 0 0 0-2.92-2.46C14.89 6.23 14 7.34 14 8.61v1.47L9.54 5.62c-.45-.45-1.07-.67-1.7-.63-.63.05-1.21.38-1.58.9-.17.24-.29.51-.34.79l-.3-.3c-.45-.45-1.07-.67-1.7-.63-.63.05-1.21.38-1.58.9-.42.59-.49 1.36-.23 2.04-.61.06-1.17.39-1.53.89-.61.84-.48 2.06.3 2.84l.82.82c-.52.12-.98.42-1.29.86-.61.84-.48 2.06.3 2.84l5.13 5.13c1.28 1.28 2.97 1.92 4.65 1.92s3.37-.64 4.65-1.92l1.98-1.98a6.45 6.45 0 0 0 1.9-4.6Zm-4.59 5.87c-2.17 2.18-5.71 2.18-7.89 0l-5.13-5.14c-.43-.43-.52-1.1-.19-1.55.21-.29.51-.46.85-.49.33-.03.66.09.9.33l3.11 3.11.71-.71-5.21-5.2c-.43-.43-.52-1.1-.19-1.55.21-.29.51-.46.85-.49.34-.03.67.09.91.34l5.28 5.28.71-.71-5.8-5.81c-.43-.43-.52-1.1-.19-1.55.21-.29.51-.46.85-.49.34-.03.67.09.91.34l5.86 5.86.71-.71-4.22-4.22c-.43-.43-.52-1.1-.19-1.55.21-.29.51-.46.85-.49.34-.03.67.09.91.34l6.17 6.17V8.59c0-.79.53-1.47 1.24-1.59.45-.07.89.04 1.23.34.34.29.53.7.53 1.14v7c0 1.45-.59 2.87-1.61 3.89l-1.98 1.98ZM11.56 3.64l-.71-.71 2.3-2.28.71.71-2.29 2.29ZM5.39 3.6 3.15 1.35l.71-.71 2.25 2.25-.71.71Zm3.6-.6h-1V0h1v3Zm15 5.55v7c0 1.74-.68 3.37-1.9 4.6l-1.98 1.98a6.578 6.578 0 0 1-4.18 1.91c.21-.17.41-.35.6-.54l.73-.74c.78-.27 1.52-.71 2.14-1.33l1.98-1.98a5.545 5.545 0 0 0 1.61-3.89v-7c0-.44-.19-.86-.53-1.14-.34-.29-.78-.41-1.23-.34-.15.02-.3.08-.43.15-.1-.32-.23-.63-.39-.92.21-.1.43-.18.66-.21a2.498 2.498 0 0 1 2.92 2.46Z"/></svg>