<svg xmlns="http://www.w3.org/2000/svg" width="512" height="512" data-name="Layer 1" viewBox="0 0 24 24"><path d="M21.5 8h-2.076l.615-7.995L19.486 0c-.862 0-1.576.598-2.15 1.078-.472.396-1.091.914-1.586.922-.495-.008-1.114-.526-1.586-.922C13.59.598 12.84 0 11.986 0c-.862 0-1.576.598-2.15 1.078-.474.397-1.094.917-1.581.922-.497-.005-1.117-.524-1.591-.922C6.09.598 5.376 0 4.514 0l-.553.005L4.576 8H2.5A2.502 2.502 0 0 0 0 10.5V24h24V10.5C24 9.121 22.879 8 21.5 8ZM6.021 1.845C6.593 2.324 7.39 2.991 8.254 3c.854-.009 1.651-.676 2.224-1.155.473-.396 1.009-.845 1.519-.845h.008c.511-.052 1.041.446 1.517.845.572.479 1.369 1.146 2.224 1.155.854-.009 1.661-.676 2.233-1.155.306-.256.639-.534.971-.699L18.038 13h-2.997l.376-4.962-.998-.076L14.037 13H9.963l-.547-7.039-.996.078L8.961 13H5.964L5.051 1.146c.332.165.665.443.971.699ZM23 23H1v-4h22v4Zm0-5H1v-7.5C1 9.673 1.673 9 2.5 9h2.153l.384 5h13.926l.384-5H21.5c.827 0 1.5.673 1.5 1.5V18Z"/></svg>