<svg xmlns="http://www.w3.org/2000/svg" width="512" height="512" data-name="Layer 1" viewBox="0 0 24 24"><path d="M12 0C5.383 0 0 5.383 0 12s5.383 12 12 12 12-5.383 12-12S18.617 0 12 0Zm0 23C5.935 23 1 18.065 1 12S5.935 1 12 1s11 4.935 11 11-4.935 11-11 11Zm-3.75-6H17v1H8.25c-.488 0-.924-.291-1.11-.742s-.084-.965.261-1.309l8.49-8.603a.193.193 0 0 0 .046-.221A.193.193 0 0 0 15.75 7H7V6h8.75c.488 0 .924.291 1.11.742s.084.965-.261 1.309l-8.49 8.604a.193.193 0 0 0-.046.221c.02.047.069.125.187.125Z"/></svg>