<svg xmlns="http://www.w3.org/2000/svg" width="512" height="512" data-name="Layer 1" viewBox="0 0 24 24"><path d="M6 9.961H0v-4.25c0-.965.785-1.75 1.75-1.75H6v6Zm-5-1h4v-4H1.75a.75.75 0 0 0-.75.75v3.25Zm14 1H9v-6h6v6Zm-5-1h4v-4h-4v4Zm14 1h-6v-6h4.25c.965 0 1.75.785 1.75 1.75v4.25Zm-5-1h4v-3.25a.75.75 0 0 0-.75-.75H19v4Zm-13 11H1.75c-.965 0-1.75-.785-1.75-1.75v-4.25h6v6Zm-5-5v3.25c0 .414.336.75.75.75H5v-4H1Zm14 5H9v-6h6v6Zm-5-1h4v-4h-4v4Zm12.25 1H18v-6h6v4.25c0 .965-.785 1.75-1.75 1.75Zm-3.25-1h3.25a.75.75 0 0 0 .75-.75v-3.25h-4v4Z"/></svg>