<svg xmlns="http://www.w3.org/2000/svg" width="512" height="512" data-name="Layer 1" viewBox="0 0 24 24"><path d="M12.021 12c3.309 0 6-2.691 6-6s-2.691-6-6-6-6 2.691-6 6 2.691 6 6 6Zm0-11c2.757 0 5 2.243 5 5s-2.243 5-5 5-5-2.243-5-5 2.244-5 5-5ZM16.5 14h-9A4.505 4.505 0 0 0 3 18.5V24h1v-5.5C4 16.57 5.57 15 7.5 15H8v3.064A2 2 0 0 0 6.479 20c0 1.103.897 2 2 2s2-.897 2-2c0-.921-.63-1.691-1.479-1.922V15h6v3.551c-1.14.232-2 1.242-2 2.449v3h1v-3c0-.827.673-1.5 1.5-1.5s1.5.673 1.5 1.5v3h1v-3c0-1.208-.86-2.217-2-2.449V15h.5c1.93 0 3.5 1.57 3.5 3.5V24h1v-5.5c0-2.481-2.019-4.5-4.5-4.5Zm-7.021 6a1 1 0 1 1-2 0 1 1 0 0 1 2 0Z"/></svg>