<svg xmlns="http://www.w3.org/2000/svg" width="512" height="512" data-name="Layer 1" viewBox="0 0 24 24"><path d="M16 12.5v.5h-1v-.5c0-.827-.673-1.5-1.5-1.5h-3c-.827 0-1.5.673-1.5 1.5 0 .876.627 1.612 1.493 1.751l3.173.51A2.762 2.762 0 0 1 16 17.5c0 1.378-1.122 2.5-2.5 2.5h-1v2h-1v-2h-1A2.503 2.503 0 0 1 8 17.5V17h1v.5c0 .827.673 1.5 1.5 1.5h3c.827 0 1.5-.673 1.5-1.5 0-.876-.627-1.612-1.493-1.751l-3.173-.51A2.762 2.762 0 0 1 8 12.5c0-1.378 1.122-2.5 2.5-2.5h1V8h1v2h1c1.378 0 2.5 1.122 2.5 2.5Zm6.974 5.75c0 3.17-2.58 5.75-5.75 5.75h-10.5c-3.17 0-5.75-2.58-5.75-5.75 0-5.207 4.323-11.756 9.318-13.017C8.882 4.402 7 2.855 7 .5V0h10v.5c0 2.358-1.906 3.906-3.332 4.736 4.989 1.268 9.306 7.811 9.306 13.014ZM11.975 4.962c.736-.305 3.613-1.64 3.985-3.962H8.039c.367 2.321 3.207 3.655 3.936 3.962Zm9.999 13.288c0-5.324-4.85-12.187-9.974-12.25-5.124.064-10.026 6.926-10.026 12.25A4.756 4.756 0 0 0 6.724 23h10.5a4.756 4.756 0 0 0 4.75-4.75Z"/></svg>