<svg xmlns="http://www.w3.org/2000/svg" width="512" height="512" data-name="Layer 1" viewBox="0 0 24 24"><path d="M17 13v1.5c0 1.379-1.121 2.5-2.5 2.5h-5A2.502 2.502 0 0 1 7 14.5V13H0v8.5C0 22.879 1.121 24 2.5 24h19c1.379 0 2.5-1.121 2.5-2.5V13h-7Zm6 8.5c0 .827-.673 1.5-1.5 1.5h-19c-.827 0-1.5-.673-1.5-1.5V14h5v.5C6 16.43 7.57 18 9.5 18h5c1.93 0 3.5-1.57 3.5-3.5V14h5v7.5ZM8.354 4.439l-.707-.707L10.939.439a1.503 1.503 0 0 1 2.121 0l3.293 3.293-.707.707L12.5 1.293V11h-1V1.293L8.354 4.439Z"/></svg>