<svg xmlns="http://www.w3.org/2000/svg" data-name="Layer 1" viewBox="0 0 24 24"><path d="M24 5.5v12.32l-1-.5V5.5a1.499 1.499 0 0 0-1.756-1.479C20.535 4.136 20 4.818 20 5.607V11h-1V3.5c0-.827-.673-1.5-1.5-1.5S16 2.673 16 3.5V11h-1V2.5c0-.827-.673-1.5-1.5-1.5S12 1.673 12 2.5V11h-1V4.607c0-.789-.535-1.471-1.245-1.586A1.5 1.5 0 0 0 7.999 4.5v12.675L4.55 14.429a1.526 1.526 0 0 0-1.103-.428 1.49 1.49 0 0 0-1.043.474 1.505 1.505 0 0 0 .07 2.123L9.115 23h8.137l.5 1H8.711l-6.926-6.678a2.505 2.505 0 0 1-.111-3.53 2.499 2.499 0 0 1 3.529-.119l1.796 1.428V4.5c0-.734.321-1.429.881-1.905a2.528 2.528 0 0 1 2.035-.562c.403.066.772.237 1.084.483v-.017c0-1.378 1.122-2.5 2.5-2.5 1.073 0 1.989.679 2.344 1.63a2.49 2.49 0 0 1 1.656-.63c1.379 0 2.5 1.122 2.5 2.5v.016a2.356 2.356 0 0 1 1.084-.482 2.515 2.515 0 0 1 2.035.562c.56.476.881 1.17.881 1.905Zm-8.377 9.627 2.245 1.123-2.245 1.123-1.123 2.246-1.123-2.246-2.245-1.123 2.245-1.123 1.123-2.246 1.123 2.246Zm.009 1.123-.755-.377-.377-.754-.377.754-.755.377.755.377.377.754.377-.754.755-.377Zm5.694 2.469 2.651 1.326-2.651 1.326L20 24.022l-1.326-2.651-2.651-1.326 2.651-1.326L20 16.068l1.326 2.651Zm.415 1.326-1.161-.581-.58-1.161-.58 1.161-1.161.581 1.161.581.58 1.161.58-1.161 1.161-.581ZM2.5 8.538l.68-1.359L4.539 6.5 3.18 5.82 2.5 4.461 1.82 5.82.461 6.5l1.359.679.68 1.359Z"/></svg>