<svg xmlns="http://www.w3.org/2000/svg" data-name="Layer 1" viewBox="0 0 24 24"><path d="M11.026 23H5.835a1.497 1.497 0 0 1-1.491-1.341L2.556 5h16.886l-.452 4.139c.334.059.662.132.981.229L20.448 5H22V4h-6V2.5C16 1.121 14.879 0 13.5 0h-5A2.502 2.502 0 0 0 6 2.5V4H0v1h1.551L3.35 21.767A2.495 2.495 0 0 0 5.835 24h6.193a8.611 8.611 0 0 1-1.003-1ZM7 2.5C7 1.673 7.673 1 8.5 1h5c.827 0 1.5.673 1.5 1.5V4H7V2.5ZM17.5 11c-3.584 0-6.5 2.916-6.5 6.5s2.916 6.5 6.5 6.5 6.5-2.916 6.5-6.5-2.916-6.5-6.5-6.5Zm0 12c-3.032 0-5.5-2.468-5.5-5.5s2.468-5.5 5.5-5.5 5.5 2.468 5.5 5.5-2.468 5.5-5.5 5.5Zm.5-5.707 1.854 1.854-.707.707-2.146-2.146v-3.207h1v2.793Z"/></svg>