<svg xmlns="http://www.w3.org/2000/svg" width="512" height="512" data-name="Layer 1" viewBox="0 0 24 24"><path d="M22.311.851a4.202 4.202 0 0 0-3.718-.683l-9.28 2.687c-.471.137-.962.23-1.46.279-.793.078-2.726.347-3.548 1.169-.821.821-1.091 2.755-1.168 3.548a8.056 8.056 0 0 1-.279 1.461L.169 18.593a4.194 4.194 0 0 0 .683 3.719A4.197 4.197 0 0 0 4.234 24h6.704c.18 0 4.444-.049 8.728-4.334C23.951 15.383 24 11.118 24 10.938V4.234A4.198 4.198 0 0 0 22.311.851Zm-3.44.278a3.203 3.203 0 0 1 2.839.521A3.207 3.207 0 0 1 23 4.234v6.544l-8.409-8.41 4.279-1.239ZM1.651 21.71a3.205 3.205 0 0 1-.521-2.84l1.239-4.279L10.778 23H4.234a3.204 3.204 0 0 1-2.583-1.29Zm17.308-2.751c-2.713 2.714-5.44 3.604-6.911 3.897l-9.362-9.362 1.13-3.904a9.042 9.042 0 0 0 .313-1.641c.111-1.136.427-2.484.88-2.938.455-.454 1.803-.77 2.939-.88a9.223 9.223 0 0 0 1.641-.314l3.904-1.13 9.361 9.362c-.293 1.471-1.184 4.198-3.897 6.911ZM14.872 8.427l-6.445 6.445-.707-.707 6.445-6.445.707.707Zm2.254 2.254.707.707-6.445 6.445-.707-.707 6.445-6.445Z"/></svg>