<svg xmlns="http://www.w3.org/2000/svg" width="512" height="512" data-name="Layer 1" viewBox="0 0 24 24"><path d="M22.812 17.572a1.991 1.991 0 0 0-1.727-.013 2.11 2.11 0 0 0-1.11-1.358 1.997 1.997 0 0 0-1.566-.079c-.53.193-.951.589-1.187 1.115-.849 1.901 1.002 5.151 1.215 5.516l.173.295.338-.054c.408-.065 4.009-.694 4.862-2.606.473-1.058.025-2.32-.997-2.815Zm.085 2.407c-.484 1.083-2.638 1.731-3.768 1.964-.56-1.05-1.483-3.202-.995-4.297.124-.276.343-.484.616-.583a.994.994 0 0 1 .788.04c.542.262.775.938.521 1.506l.912.408c.124-.277.343-.484.615-.584.259-.095.539-.081.789.04.541.262.774.938.521 1.506ZM19 9.5C19 8.122 17.879 7 16.5 7S14 8.122 14 9.5V11h5V9.5Zm-1 .5h-3v-.5c0-.827.673-1.5 1.5-1.5s1.5.673 1.5 1.5v.5Zm-8 1H5v-1h5v1Zm4.473 5c.325.318.527.761.527 1.25 0 .965-.785 1.75-1.75 1.75H11v-1h2.25a.75.75 0 0 0 0-1.5H12v-1h1.25a.75.75 0 0 0 0-1.5H11v-1h2.25c.965 0 1.75.785 1.75 1.75 0 .489-.202.932-.527 1.25Zm1.468 6.258c.147.331.296.637.436.904A11.907 11.907 0 0 1 12 24C5.383 24 0 18.617 0 12S5.383 0 12 0s12 5.383 12 12c0 1.282-.207 2.516-.581 3.675a3.963 3.963 0 0 0-.971-.254A10.94 10.94 0 0 0 23 12c0-6.065-4.935-11-11-11S1 5.935 1 12s4.935 11 11 11c1.39 0 2.715-.27 3.941-.742Z"/></svg>