<svg xmlns="http://www.w3.org/2000/svg" width="512" height="512" data-name="Layer 1" viewBox="0 0 24 24"><path d="m18.995 12 3.5-6h-7.001L11.999.008 8.504 6h-7l3.5 6-3.5 6h6.999l3.495 5.992L15.494 18h7.001l-3.5-6Zm1.759-5-2.338 4.008L16.078 7h4.676Zm-2.917 5-2.917 5H9.078l-2.916-5 2.916-5h5.842l2.917 5ZM11.999 1.992 14.337 6H9.661l2.338-4.008ZM3.246 7h4.675l-2.338 4.008L3.246 7Zm0 10 2.337-4.008L7.921 17H3.246Zm8.753 5.008L9.661 18h4.676l-2.338 4.008Zm6.417-9.016L20.754 17h-4.676l2.338-4.008Z"/></svg>