<svg xmlns="http://www.w3.org/2000/svg" width="512" height="512" data-name="Layer 1" viewBox="0 0 24 24"><path d="M12 1C5.383 1 0 6.383 0 13c0 3.911 1.949 7.616 5.212 9.909l.129.091h13.316l.129-.091c3.264-2.293 5.212-5.998 5.212-9.909 0-6.617-5.383-12-12-12Zm6.34 21H5.66C2.782 19.915 1 16.481 1 13 1 6.935 5.935 2 12 2s11 4.935 11 11c0 3.481-1.782 6.915-4.66 9Zm-5.325-10.722A2.002 2.002 0 0 0 10 13c0 1.103.897 2 2 2a2.002 2.002 0 0 0 1.722-3.015l4.631-4.631-.707-.707-4.631 4.631ZM12 14a1.001 1.001 0 0 1 0-2 1.001 1.001 0 0 1 0 2Z"/></svg>