<svg xmlns="http://www.w3.org/2000/svg" width="512" height="512" data-name="Layer 1" viewBox="0 0 24 24"><path d="m23.956 14.263-.454-5.301a2.569 2.569 0 0 0-1.623-2.18l-6.724-2.6a2.57 2.57 0 0 0-2.672.474L8.515 8.199a12.017 12.017 0 0 0-3.145 4.5L4.262 15.49l1.934.76-.855 2.113 3.832 1.522.86-2.127 6.239 2.452-.845 2.088 3.831 1.521.85-2.102 1.94.762 1.108-2.787c.682-1.715.958-3.594.8-5.432ZM13.149 5.402a1.577 1.577 0 0 1 1.641-.289l6.724 2.6c.561.222.94.733.992 1.334 0 0 .487 5.779.491 6.019L8.663 9.44c.167-.171 4.487-4.039 4.487-4.039ZM8.617 18.59l-1.972-.784.481-1.189 1.976.776-.484 1.197Zm10.085 3.935-1.972-.783.471-1.165 1.974.776-.474 1.172Zm2.784-1.338-15.924-6.26.738-1.858c.425-1.07 1.702-2.814 1.702-2.814l2.439.957-.632 1.59a.5.5 0 1 0 .93.369l.633-1.594 8.178 3.209-.642 1.617a.5.5 0 1 0 .93.369l.644-1.621 2.443.959s-.273 2.147-.697 3.213l-.739 1.861ZM4.151 7.5 2.068 10h1.933v1H-.067L2.85 7.5-.067 4H4V-.067L7.5 2.85 11-.067V4h-1V2.067L7.5 4.15 5 2.067V5H2.067L4.15 7.5Z"/></svg>