<svg xmlns="http://www.w3.org/2000/svg" width="512" height="512" data-name="Layer 1" viewBox="0 0 24 24"><path d="M24 5.5A2.5 2.5 0 0 0 21.5 3H3.71L.75.05l-.7.7 6.88 6.89c-.06.1-.11.22-.15.34L4 17h1.05l.62-2h4.67l.62 2h1.05L9.23 7.98c-.19-.6-.67-.99-1.22-.99-.09 0-.19.01-.28.03L4.71 4H21.5c.83 0 1.5.67 1.5 1.5V20h-2.29l-3.16-3.16A3.503 3.503 0 0 0 20 13.5v-3C20 8.57 18.43 7 16.5 7H13v10h3.29l6.95 6.95.71-.71-2.25-2.25h2.29V5.5ZM8 7.98c.12 0 .22.15.26.29L10.03 14H5.97l1.77-5.73c.04-.14.14-.29.26-.29ZM14 8h2.5a2.5 2.5 0 0 1 2.5 2.5v3a2.5 2.5 0 0 1-2.5 2.5H14V8Zm2.46 12 1 1H0V5.5c0-.55.19-1.06.49-1.47l.72.72c-.13.22-.21.48-.21.75V20h15.46Z"/></svg>