<svg xmlns="http://www.w3.org/2000/svg" data-name="Layer 1" viewBox="0 0 24 24"><path d="M5 15a1 1 0 1 1 0 2 1 1 0 0 1 0-2Zm3 1a1 1 0 1 0 2 0 1 1 0 0 0-2 0Zm5 1a1 1 0 1 0 0-2 1 1 0 0 0 0 2Zm2.535-5H12V8.464L19.732.732a2.5 2.5 0 0 1 3.535 3.536L15.535 12Zm-.414-1 7.439-7.439c.283-.283.439-.66.439-1.061s-.156-.777-.439-1.061a1.501 1.501 0 0 0-2.121 0L13 8.878V11h2.121Zm7.118-2.876L21.363 9h.136c.827 0 1.5.673 1.5 1.5V22H1V10.5C1 9.673 1.673 9 2.5 9H10V8H2.5A2.503 2.503 0 0 0 0 10.5V23h24V10.5a2.496 2.496 0 0 0-1.761-2.376Z"/></svg>