<svg xmlns="http://www.w3.org/2000/svg" width="512" height="512" data-name="Layer 1" viewBox="0 0 24 24"><path d="m7.723 12.291.277.185.277-.185C8.555 12.105 11 10.428 11 8.75a1.752 1.752 0 0 0-3-1.224A1.752 1.752 0 0 0 5 8.75c0 1.678 2.444 3.355 2.723 3.541ZM6.75 8a.75.75 0 0 1 .75.75V9h1v-.25a.75.75 0 0 1 1.5 0c0 .778-1.131 1.873-1.999 2.513C7.281 10.726 6 9.597 6 8.75A.75.75 0 0 1 6.75 8Zm10.5-1c-.489 0-.932.202-1.25.526a1.752 1.752 0 0 0-3 1.224c0 1.678 2.444 3.355 2.723 3.541l.277.185.277-.185C16.555 12.105 19 10.428 19 8.75 19 7.785 18.215 7 17.25 7Zm-1.249 4.263C15.281 10.726 14 9.597 14 8.75a.75.75 0 0 1 1.5 0V9h1v-.25a.75.75 0 0 1 1.5 0c0 .778-1.131 1.873-1.999 2.513ZM12 0C5.383 0 0 5.383 0 12s5.383 12 12 12 12-5.383 12-12S18.617 0 12 0Zm0 23C5.935 23 1 18.065 1 12S5.935 1 12 1s11 4.935 11 11-4.935 11-11 11Zm-.005-8c-2.558 0-5.335-.754-5.362-.762l-.886-.243.276.875c.065.209 1.666 5.129 5.966 5.129h.013c4.299 0 5.908-4.919 5.975-5.128l.278-.876-.887.243c-.028.008-2.81.762-5.373.762Zm.007 4h-.013c-2.565 0-4.027-2.273-4.65-3.563 1.076.235 2.892.563 4.656.563s3.589-.329 4.667-.564c-.623 1.29-2.086 3.564-4.66 3.564Z"/></svg>