<svg xmlns="http://www.w3.org/2000/svg" width="512" height="512" data-name="Layer 1" viewBox="0 0 24 24"><path d="M19.419 14.018 23.997 0h-3.206a2.487 2.487 0 0 0-2.392 1.771l-2.818 9.037a4.469 4.469 0 0 1-3.677 3.148c-1.617-.469-2.686-1.527-3.184-3.167L5.611 1.774A2.486 2.486 0 0 0 3.219 0H.024L4.36 14.037c-2.342.275-4.132 2.047-4.358 4.416a5.09 5.09 0 0 0 1.301 3.897A5.017 5.017 0 0 0 4.999 24h4.577c.846 0 1.665-.113 2.442-.329a9.512 9.512 0 0 0 2.481.329h4.5c2.757 0 5-2.243 5-5a5.006 5.006 0 0 0-4.581-4.982ZM3.219 1c.665 0 1.242.428 1.441 1.082l3.109 9.016c.373 1.229 1.044 2.207 1.977 2.902H5.395L1.38 1h1.839ZM5 23a4.014 4.014 0 0 1-2.957-1.323 4.09 4.09 0 0 1-1.046-3.13C1.193 16.491 2.876 15 4.999 15h6.275c.188 0 .608-.033.608-.033a5.464 5.464 0 0 0 4.654-3.865l2.818-9.038A1.493 1.493 0 0 1 20.79 1h1.827l-5.216 15.97C16.289 20.633 13.217 23 9.576 23H5Zm14 0h-4.5c-.239 0-.479-.01-.716-.03 2.138-1.13 3.793-3.13 4.573-5.7l.741-2.269A4.005 4.005 0 0 1 23.001 19c0 2.206-1.794 4-4 4Z"/></svg>