<svg xmlns="http://www.w3.org/2000/svg" width="512" height="512" data-name="Layer 1" viewBox="0 0 24 24"><path d="M15 17.5c0 .83.67 1.5 1.5 1.5h3a2.5 2.5 0 0 1 0 5H0v-1h19.5c.83 0 1.5-.67 1.5-1.5s-.67-1.5-1.5-1.5h-3a2.5 2.5 0 0 1 0-5H24v1h-7.5c-.83 0-1.5.67-1.5 1.5Zm-4.92.06L.1 19.9l2.34-9.98 5.72-1.8L15.52.77a2.632 2.632 0 0 1 3.71 0 2.632 2.632 0 0 1 0 3.71l-7.36 7.36-1.8 5.72Zm-.94-9 2.3 2.3 7.09-7.09c.63-.63.63-1.67 0-2.3-.63-.63-1.67-.63-2.3 0L9.14 8.56Zm.16 8.15 1.57-5.01-2.58-2.58-5.01 1.57-1.62 6.93 4.49-4.49.71.71-4.49 4.49 6.93-1.62Z"/></svg>