<svg xmlns="http://www.w3.org/2000/svg" width="512" height="512" data-name="Layer 1" viewBox="0 0 24 24"><path d="M24 4v1h-8V4h8ZM9 22c0 1.1-.9 2-2 2s-2-.9-2-2 .9-2 2-2 2 .9 2 2Zm-1 0c0-.55-.45-1-1-1s-1 .45-1 1 .45 1 1 1 1-.45 1-1Zm11 0c0 1.1-.9 2-2 2s-2-.9-2-2 .9-2 2-2 2 .9 2 2Zm-1 0c0-.55-.45-1-1-1s-1 .45-1 1 .45 1 1 1 1-.45 1-1Zm2.94-8H5.88L4.63 5H13V4H4.49l-.26-1.84A2.507 2.507 0 0 0 1.76 0H0v1h1.76c.75 0 1.38.56 1.49 1.29l2.02 14.55A2.51 2.51 0 0 0 7.75 19h12.26v-1H7.74c-.75 0-1.38-.56-1.49-1.29L6.01 15h15.74l1.4-7h-1.02l-1.2 6Z"/></svg>