<svg xmlns="http://www.w3.org/2000/svg" width="512" height="512" data-name="Layer 1" viewBox="0 0 24 24"><path d="M7.504 23c.165.385.32.725.453 1H2.198C2.114 23.84 0 19.795 0 17c0-2.151 1.06-3.74 2.084-5.277C3.069 10.245 4 8.849 4 7V5H3V4h1V2.5C4 1.121 5.122 0 6.5 0h3c.402 0 .776.104 1.113.273a4.426 4.426 0 0 0-.396.917A1.478 1.478 0 0 0 9.5.999h-3c-.827 0-1.5.673-1.5 1.5v1.5h4v1H5v2c0 2.023-.937 3.547-1.9 5h4.433a14.51 14.51 0 0 0-.541 1h-4.55C1.653 14.224 1 15.453 1 16.999c0 2.15 1.368 5.105 1.808 6h4.696ZM24 17c0 2.795-2.114 6.84-2.198 7H10.198C10.114 23.84 8 19.795 8 17c0-2.151 1.06-3.74 2.084-5.277C11.069 10.245 12 8.849 12 7V5h-1V4h1V2.5C12 1.121 13.121 0 14.5 0h3C18.879 0 20 1.121 20 2.5V4h1v1h-1v2c0 1.849.931 3.245 1.916 4.723C22.94 13.26 24 14.849 24 17ZM13 4h6V2.5c0-.827-.673-1.5-1.5-1.5h-3c-.827 0-1.5.673-1.5 1.5V4Zm-1.899 8H20.9c-.963-1.452-1.899-2.978-1.899-5V5h-6v2c0 2.022-.936 3.548-1.899 5ZM23 17c0-1.546-.651-2.775-1.44-4H10.44C9.651 14.225 9 15.454 9 17c0 2.15 1.368 5.105 1.808 6h10.384c.439-.896 1.808-3.853 1.808-6Zm-7-1a1 1 0 1 0 0 2 1 1 0 0 0 0-2Zm4 0a1 1 0 1 0 0 2 1 1 0 0 0 0-2Zm-2 3a1 1 0 1 0 0 2 1 1 0 0 0 0-2Z"/></svg>