<svg xmlns="http://www.w3.org/2000/svg" width="512" height="512" data-name="Layer 1" viewBox="0 0 24 24"><path d="M17.979 7.357 15.3 9.5l2.679 2.143-.625.781L13.7 9.5l3.654-2.924.625.781ZM23 22a1 1 0 1 0 0 2 1 1 0 0 0 0-2ZM3 19a1 1 0 1 0 0 2 1 1 0 0 0 0-2Zm9-19C5.383 0 0 5.383 0 12c0 1.984.5 3.845 1.358 5.493a3 3 0 0 1 .905-.391A10.896 10.896 0 0 1 1 12C1 5.935 5.935 1 12 1s11 4.935 11 11c0 3.72-1.861 7.008-4.695 9h1.606C22.412 18.799 24 15.585 24 12c0-6.617-5.383-12-12-12ZM6.646 12.424 10.3 9.5 6.646 6.576l-.625.781L8.7 9.5l-2.679 2.143.625.781ZM18.5 23h.5v1H5v-1h.5C6.878 23 8 21.878 8 20.5v-5.245a12.929 12.929 0 0 0-1.68 1.129l-.64-.769c.128-.106 3.175-2.616 6.32-2.616s6.192 2.509 6.32 2.616l-.64.769c-.014-.011-.682-.561-1.68-1.129V20.5c0 1.378 1.122 2.5 2.5 2.5Zm-2.447 0A3.49 3.49 0 0 1 15 20.5v-5.757c-.911-.414-1.962-.743-3-.743s-2.089.329-3 .743V20.5c0 .979-.403 1.864-1.053 2.5h8.105Z"/></svg>