<svg xmlns="http://www.w3.org/2000/svg" width="512" height="512" data-name="Layer 1" viewBox="0 0 24 24"><path d="M23.481 8.52C23.816 9.622 24 10.79 24 12c0 6.617-5.383 12-12 12S0 18.617 0 12 5.383 0 12 0c2.141 0 4.149.57 5.891 1.557a8.183 8.183 0 0 0-.439.902A10.923 10.923 0 0 0 12 1C5.935 1 1 5.935 1 12s4.935 11 11 11 11-4.935 11-11c0-1.089-.165-2.139-.461-3.133.331-.079.644-.199.942-.347ZM7.5 8C8.215 8 9 9.57 9 11h1c0-1.888-1.069-4-2.5-4S5 9.112 5 11h1c0-1.43.785-3 1.5-3Zm9-1C15.069 7 14 9.112 14 11h1c0-1.43.785-3 1.5-3S18 9.57 18 11h1c0-1.888-1.069-4-2.5-4ZM6.023 14.871l-.276-.875.885.243c.028.007 2.805.762 5.363.762s5.344-.754 5.373-.762l.886-.242-.277.876c-.066.209-1.676 5.128-5.975 5.128h-.012c-4.3 0-5.9-4.92-5.966-5.129Zm1.315.566C7.961 16.727 9.423 19 11.989 19h.012c2.565 0 4.033-2.273 4.659-3.564-1.079.236-2.899.564-4.665.564s-3.581-.328-4.657-.563ZM19 4.5C19 2.754 20.926.768 21.146.547l.351-.353.354.349C21.939.629 24 2.68 24 4.5 24 5.878 22.879 7 21.5 7S19 5.878 19 4.5Zm1 0c0 .827.673 1.5 1.5 1.5S23 5.327 23 4.5c0-.949-.89-2.171-1.497-2.865C20.895 2.339 20 3.575 20 4.5Z"/></svg>