<svg xmlns="http://www.w3.org/2000/svg" width="512" height="512" data-name="Layer 1" viewBox="0 0 24 24"><path d="M8.423 15.166a4.495 4.495 0 0 0 3.077-4.27V0h1v10.896a4.495 4.495 0 0 0 3.077 4.27l2.581.86-.316.948-2.581-.86A5.494 5.494 0 0 1 12 13.191a5.49 5.49 0 0 1-3.261 2.923l-2.581.86-.316-.948 2.581-.86Zm-1.775 6.787-2.138.909c-.275.092-.56.139-.844.139h-.004a2.694 2.694 0 0 1-1.885-.786A2.641 2.641 0 0 1 1 20.332c0-1.362.155-2.725.462-4.051l1.937-8.395a3.706 3.706 0 0 1 3.627-2.885h1.975v-1H7.026a4.702 4.702 0 0 0-4.602 3.661L.487 16.055A19.05 19.05 0 0 0 0 20.331c0 .981.38 1.901 1.071 2.59A3.695 3.695 0 0 0 3.662 24h.006c.391 0 .781-.065 1.195-.205l2.175-.922a6.478 6.478 0 0 0 3.937-5.642c-.333.208-.683.39-1.051.547a5.488 5.488 0 0 1-3.276 4.175Zm16.865-5.897-1.937-8.395A4.703 4.703 0 0 0 16.974 4h-1.975v1h1.975a3.707 3.707 0 0 1 3.627 2.885l1.937 8.395c.307 1.326.462 2.689.462 4.051 0 .713-.276 1.382-.777 1.883a2.69 2.69 0 0 1-1.885.786h-.004c-.284 0-.568-.047-.844-.139l-2.138-.909a5.49 5.49 0 0 1-3.276-4.175 7.312 7.312 0 0 1-1.051-.547 6.476 6.476 0 0 0 3.937 5.642l2.175.922c.414.14.805.204 1.195.205h.006c.96 0 1.904-.393 2.591-1.079A3.631 3.631 0 0 0 24 20.33c0-1.438-.164-2.876-.487-4.276Z"/></svg>