<svg xmlns="http://www.w3.org/2000/svg" width="512" height="512" data-name="Layer 1" viewBox="0 0 24 24"><path d="m24 9.5-4 3v-1c0-1.378-1.122-2.5-2.5-2.5h-.503A4.994 4.994 0 0 0 19 5c0-2.757-2.243-5-5-5a5.005 5.005 0 0 0-4.5 2.822A5.005 5.005 0 0 0 5 0C2.243 0 0 2.243 0 5c0 1.658.811 3.13 2.058 4.04A2.504 2.504 0 0 0 0 11.5V24h20v-4.5l4 3v-13ZM14 1c2.206 0 4 1.794 4 4s-1.794 4-4 4-4-1.794-4-4 1.794-4 4-4Zm-2.997 8H7.996a5.028 5.028 0 0 0 1.503-1.822c.35.721.868 1.345 1.503 1.822ZM1 5c0-2.206 1.794-4 4-4s4 1.794 4 4-1.794 4-4 4-4-1.794-4-4Zm18 18H1V11.5c0-.827.673-1.5 1.5-1.5h15c.827 0 1.5.673 1.5 1.5V23Zm4-2.5-3-2.25v-4.5l3-2.25v9Z"/></svg>