<svg xmlns="http://www.w3.org/2000/svg" width="512" height="512" data-name="Layer 1" viewBox="0 0 24 24"><path d="M12 0C5.383 0 0 5.383 0 12s5.383 12 12 12 12-5.383 12-12S18.617 0 12 0Zm0 1c4.349 0 8.116 2.537 9.9 6.208l-8.107 1.621a9.498 9.498 0 0 1-3.726 0L2.088 7.233C3.867 3.548 7.641 1 12 1ZM1.013 12.518l4.549.91a3.493 3.493 0 0 1 2.392 1.767l.625 1.153c.276.51.422 1.086.422 1.666v4.57c-4.453-1.264-7.764-5.268-7.987-10.066ZM10 22.817v-4.804c0-.746-.188-1.487-.543-2.143l-.624-1.153a4.49 4.49 0 0 0-3.075-2.271l-4.746-.949c.053-1.164.287-2.282.675-3.325L9.87 9.809a10.456 10.456 0 0 0 4.119 0l8.314-1.663c.394 1.051.632 2.177.685 3.351l-4.746.949a4.488 4.488 0 0 0-3.074 2.271l-.625 1.153A4.511 4.511 0 0 0 14 18.013v4.804a10.989 10.989 0 0 1-4 0Zm5-.233v-4.57c0-.58.146-1.156.422-1.666l.625-1.153a3.49 3.49 0 0 1 2.391-1.767l4.549-.91c-.223 4.798-3.535 8.802-7.987 10.066Z"/></svg>