<svg xmlns="http://www.w3.org/2000/svg" data-name="Layer 1" viewBox="0 0 24 24"><path d="M22.119 3.595a2.517 2.517 0 0 0-2.035-.562A2.356 2.356 0 0 0 19 3.515v-.016c0-1.378-1.122-2.5-2.5-2.5-.635 0-1.215.238-1.656.63A2.504 2.504 0 0 0 12.5-.001a2.503 2.503 0 0 0-2.5 2.5v.017a2.368 2.368 0 0 0-1.084-.483 2.522 2.522 0 0 0-2.035.562A2.496 2.496 0 0 0 6 4.5v10.601l-1.796-1.428c-1.006-.94-2.588-.888-3.529.119s-.889 2.593.111 3.53l3.354 3.234A12.237 12.237 0 0 0 12.674 24h2.352C19.423 24 23 20.423 23 16.026V5.5c0-.734-.321-1.429-.881-1.905ZM22 16.026A6.981 6.981 0 0 1 15.026 23h-2.352a11.243 11.243 0 0 1-7.84-3.164l-3.359-3.239a1.505 1.505 0 0 1-.07-2.123A1.49 1.49 0 0 1 2.448 14c.409-.007.781.129 1.103.428L7 17.174V4.5a1.5 1.5 0 0 1 1.756-1.479c.709.115 1.245.797 1.245 1.586V11h1V2.5c0-.827.673-1.5 1.5-1.5s1.5.673 1.5 1.5V11h1V3.5c0-.827.673-1.5 1.5-1.5s1.5.673 1.5 1.5V11h1V5.607c0-.789.535-1.471 1.244-1.586A1.5 1.5 0 0 1 22.001 5.5v10.526Z"/></svg>