<svg xmlns="http://www.w3.org/2000/svg" width="512" height="512" data-name="Layer 1" viewBox="0 0 24 24"><path d="M23.181 9.654a2.487 2.487 0 0 0-1.809-.651 2.49 2.49 0 0 0-1.739.817l-3.732 4.103A2.647 2.647 0 0 0 13.359 12H2.5A2.503 2.503 0 0 0 0 14.5v7C0 22.879 1.122 24 2.5 24h11.224l9.639-10.817a2.521 2.521 0 0 0-.183-3.528Zm-.564 2.862-9.34 10.483H2.5c-.827 0-1.5-.673-1.5-1.5v-7c0-.827.673-1.5 1.5-1.5h10.858c.905 0 1.642.737 1.642 1.643 0 .812-.606 1.511-1.404 1.624l-5.661.737.129.992 5.667-.738a2.658 2.658 0 0 0 2.146-1.823l4.495-4.94a1.497 1.497 0 0 1 1.047-.492c.398-.021.79.121 1.088.392.609.556.658 1.508.109 2.123ZM7 3h4v1H7V3Zm8-1c0-1.103-.897-2-2-2H5C3.897 0 3 .897 3 2v8h12V2Zm-1 7H4V2c0-.552.449-1 1-1h8c.551 0 1 .448 1 1v7Z"/></svg>