<svg xmlns="http://www.w3.org/2000/svg" width="512" height="512" data-name="Layer 1" viewBox="0 0 24 24"><path d="M24 12c0 3.542-1.552 6.721-4 8.919v-1.392a10.95 10.95 0 0 0 3-7.526c0-6.065-4.935-11-11-11S1 5.935 1 12c0 3.896 2.042 7.317 5.106 9.272.094.494.256.969.473 1.42C2.682 20.707 0 16.665 0 12 0 5.383 5.383 0 12 0s12 5.383 12 12ZM13.837 22.17a2.836 2.836 0 0 1-4.007 0A2.816 2.816 0 0 1 9 20.166v-.785l6.322-6.323-.707-.707L9 17.967V15H8v5.166c0 1.024.398 1.986 1.123 2.711.747.747 1.729 1.121 2.711 1.121s1.963-.374 2.71-1.121l3.917-3.916-.707-.707-3.917 3.916Zm-1.823-4.18.707.707 4.859-4.86-.707-.707-4.859 4.86Zm2.18 2.18 4.094-4.094-.707-.707-4.094 4.094.707.707ZM4.646 8.146l.707.707c1.588-1.588 3.185-2.552 4.744-2.863l-.195-.98c-1.757.351-3.525 1.406-5.256 3.137Zm9.256-2.156c1.56.312 3.156 1.275 4.744 2.863l.707-.707c-1.73-1.73-3.499-2.786-5.256-3.137l-.195.98ZM9 13c0-1.654 1.346-3 3-3 .607 0 1.17.184 1.643.495l.712-.712A3.966 3.966 0 0 0 12 9c-2.206 0-4 1.794-4 4h1Z"/></svg>