<svg xmlns="http://www.w3.org/2000/svg" width="512" height="512" data-name="Layer 1" viewBox="0 0 24 24"><path d="M16.328 6.354 12.682 10l3.646 3.646-.707.707-3.646-3.646-3.646 3.646-.707-.707L11.268 10 7.622 6.354l.707-.707 3.646 3.646 3.646-3.646.707.707ZM24 2.5V20h-7.032l-3.985 3.295a1.468 1.468 0 0 1-.979.368 1.51 1.51 0 0 1-1.001-.379L7.106 20H0V2.5C0 1.122 1.122 0 2.5 0h19C22.878 0 24 1.122 24 2.5Zm-1 0c0-.827-.673-1.5-1.5-1.5h-19C1.673 1 1 1.673 1 2.5V19h6.471l4.187 3.527a.504.504 0 0 0 .675.008l4.276-3.536H23V2.5Z"/></svg>