<svg xmlns="http://www.w3.org/2000/svg" data-name="Layer 1" viewBox="0 0 24 24"><path d="M9.5 5.5C9.5 6.879 10.622 8 12 8s2.5-1.121 2.5-2.5S13.378 3 12 3 9.5 4.121 9.5 5.5Zm4 0c0 .827-.673 1.5-1.5 1.5s-1.5-.673-1.5-1.5S11.173 4 12 4s1.5.673 1.5 1.5ZM7 3c0-1.71 2.149-3 5-3s5 1.29 5 3c0 .722-.4 1.36-1.057 1.867a3.945 3.945 0 0 0-.334-1.051c.243-.254.391-.538.391-.848C16 1.846 14.28 1 12 1s-4 .846-4 1.968c0 .31.148.594.391.848-.156.329-.272.68-.334 1.051C7.4 4.36 7 3.722 7 3Zm13.5 3c-3.386 0-6.048 3.014-6.568 3.647a5.49 5.49 0 0 1-3.863 0C9.548 9.015 6.887 6 3.501 6 .169 6 0 14.747 0 16.5v.5h2v2h2v2.244L2.715 24h18.569l-1.285-2.756V19h2v-2h2v-.5c0-1.753-.169-10.5-3.5-10.5ZM3 18v-2H1.004c.062-3.897.843-9 2.496-9 2.711 0 5.011 2.383 5.675 3.142L5 19.099V18H3Zm1.285 5 5.738-12.311a6.479 6.479 0 0 0 3.954 0L19.715 23H4.285ZM21 16v2h-2v1.099l-4.175-8.957C15.489 9.383 17.789 7 20.5 7c1.651 0 2.433 5.103 2.496 9H21Z"/></svg>