<svg xmlns="http://www.w3.org/2000/svg" width="512" height="512" data-name="Layer 1" viewBox="0 0 24 24"><path d="M24 12.5c0-1.379-1.121-2.5-2.5-2.5h-1.708c-.655-2.306-2.78-4-5.292-4s-4.637 1.694-5.292 4H2.5A2.503 2.503 0 0 0 0 12.5V22h3v2h1v-2h16v2h1v-2h3v-9.5ZM14.5 7c2.481 0 4.5 2.019 4.5 4.5S16.981 16 14.5 16 10 13.981 10 11.5 12.019 7 14.5 7ZM23 21H1v-8.5c0-.827.673-1.5 1.5-1.5h6.523a5.506 5.506 0 0 0 5.477 6 5.506 5.506 0 0 0 5.477-6H21.5c.827 0 1.5.673 1.5 1.5V21ZM5 14a1 1 0 1 1-2 0 1 1 0 0 1 2 0ZM15 4h-1V0h1v4Zm3.933 1.322-.865-.5 2-3.465.865.5-2 3.465Zm-8.866 0-2-3.465.866-.5 2 3.465-.866.5Z"/></svg>