<svg xmlns="http://www.w3.org/2000/svg" width="512" height="512" data-name="Layer 1" viewBox="0 0 24 24"><path d="M12 15.05V12h-1v3.05c-1.14.232-2 1.242-2 2.45 0 1.378 1.121 2.5 2.5 2.5s2.5-1.122 2.5-2.5c0-1.207-.86-2.217-2-2.45ZM11.5 19c-.827 0-1.5-.673-1.5-1.5s.673-1.5 1.5-1.5 1.5.673 1.5 1.5-.673 1.5-1.5 1.5Zm10-19C20.121 0 19 1.122 19 2.5S20.121 5 21.5 5 24 3.878 24 2.5 22.879 0 21.5 0Zm0 4c-.827 0-1.5-.673-1.5-1.5S20.673 1 21.5 1s1.5.673 1.5 1.5S22.327 4 21.5 4ZM16 12.819V4.5C16 2.019 13.981 0 11.5 0S7 2.019 7 4.5v8.318c-1.627 1.561-2.32 3.805-1.859 6.049.508 2.471 2.506 4.476 4.972 4.988.459.095.92.142 1.376.142a6.491 6.491 0 0 0 4.111-1.454 6.479 6.479 0 0 0 2.4-5.044 6.509 6.509 0 0 0-2-4.681Zm-1.031 8.95c-1.291 1.051-2.989 1.457-4.653 1.108-2.081-.432-3.767-2.124-4.195-4.21-.404-1.968.236-3.933 1.714-5.258l.166-.149V4.5c0-1.93 1.57-3.5 3.5-3.5s3.5 1.57 3.5 3.5v8.76l.166.149a5.507 5.507 0 0 1 1.834 4.091c0 1.662-.74 3.218-2.031 4.269Z"/></svg>