<svg xmlns="http://www.w3.org/2000/svg" width="512" height="512" data-name="Layer 1" viewBox="0 0 24 24"><path d="m23.106 16.354-5.209 4.903A10.482 10.482 0 0 1 10.82 24H0v-1h10.82c2.372 0 4.645-.88 6.397-2.478l5.192-4.887c.547-.547.651-1.407.23-1.991a1.491 1.491 0 0 0-1.104-.63c-.438-.03-.87.123-1.183.435l-4.011 3.776-.018-.019a2.49 2.49 0 0 1-1.825.793h-5.5v-1h5.5c.827 0 1.5-.673 1.5-1.5v-1.5H8.81a9.442 9.442 0 0 0-6.718 2.782L.77 18.104l-.707-.707 1.322-1.323a10.435 10.435 0 0 1 7.425-3.075h8.188v2.233l2.657-2.502a2.494 2.494 0 0 1 1.959-.713 2.508 2.508 0 0 1 1.836 1.042c.704.977.555 2.393-.346 3.293ZM4 .5V0h.5c3.846 0 6.078 1.201 7 3.904C12.422 1.201 14.654 0 18.5 0h.5v.5c0 5.087-2.101 7.352-7 7.493V11h-1V7.993C6.101 7.852 4 5.587 4 .5Zm8.007 6.493c4.192-.121 5.865-1.794 5.986-5.986-4.192.121-5.865 1.794-5.986 5.986Zm-7-5.986c.121 4.192 1.794 5.865 5.986 5.986-.121-4.192-1.794-5.865-5.986-5.986Z"/></svg>