<svg xmlns="http://www.w3.org/2000/svg" width="512" height="512" data-name="Layer 1" viewBox="0 0 24 24"><path d="m14.765 13.746-2.986 6.028-.896-.444 3.016-6.082c.138-.214.105-.401.04-.522-.036-.068-.143-.225-.346-.225H9.431c-.471 0-.894-.207-1.161-.567a1.343 1.343 0 0 1-.2-1.203l3.49-6.438.879.478-3.422 6.291a.331.331 0 0 0 .057.276.434.434 0 0 0 .358.163h4.162c.516 0 .975.281 1.228.752.258.48.235 1.053-.057 1.494ZM22 8V6.5C22 5.122 20.879 4 19.5 4h-4.365l-.544 1H19.5c.827 0 1.5.673 1.5 1.5V9h2v6h-2v2.5c0 .827-.673 1.5-1.5 1.5h-5.106l-.495 1H19.5c1.379 0 2.5-1.122 2.5-2.5V16h2V8h-2ZM1 19V5h7.899l.544-1H0v16h8.318l.496-1H1Z"/></svg>