<svg xmlns="http://www.w3.org/2000/svg" width="512" height="512" data-name="Layer 1" viewBox="0 0 24 24"><path d="M22.473 14.495c.44.34.969.521 1.527.521v1a3.467 3.467 0 0 1-2.139-.729 1.448 1.448 0 0 0-1.723 0c-1.232.954-3.045.954-4.277 0a1.448 1.448 0 0 0-1.723 0c-1.232.954-3.045.954-4.277 0a1.448 1.448 0 0 0-1.723 0c-1.232.954-3.045.954-4.277 0a1.448 1.448 0 0 0-1.723 0 3.463 3.463 0 0 1-2.139.729v-1a2.47 2.47 0 0 0 1.527-.521 2.44 2.44 0 0 1 2.945 0 2.54 2.54 0 0 0 3.055 0 2.44 2.44 0 0 1 2.945 0 2.54 2.54 0 0 0 3.055 0 2.44 2.44 0 0 1 2.945 0 2.54 2.54 0 0 0 3.055 0 2.44 2.44 0 0 1 2.945 0ZM24 6.915V12H0V6.78L15.513.198a2.51 2.51 0 0 1 2.809.601l5.679 6.116ZM2.042 7h20.673l-5.126-5.521a1.503 1.503 0 0 0-1.686-.36L2.042 7ZM23 11V8H1v3h22ZM0 18h24v2.5c0 1.378-1.121 2.5-2.5 2.5h-19A2.503 2.503 0 0 1 0 20.5V18Zm1 2.5c0 .827.673 1.5 1.5 1.5h19c.827 0 1.5-.673 1.5-1.5V19H1v1.5Z"/></svg>