<svg xmlns="http://www.w3.org/2000/svg" width="512" height="512" data-name="Layer 1" viewBox="0 0 24 24"><path d="M23.789 12.095a3.48 3.48 0 0 1-1.809 1.976L7 20.969V21h-.068L.43 23.994l-.418-.908L6 20.328v-8.304c0-.668.26-1.296.732-1.768l4.263-4.263L3 6V5l9.866-.008 1.333 1.115a2.496 2.496 0 0 1 .069 3.6L9 14.975v-1.414L13.561 9c.288-.289.444-.671.439-1.079s-.17-.787-.466-1.068l-1.03-.861h-.093L7.44 10.963a1.49 1.49 0 0 0-.439 1.061v7.844l14.56-6.705a2.477 2.477 0 0 0 1.289-1.41 2.483 2.483 0 0 0-.084-1.912l.906-.423c.396.847.438 1.797.118 2.676ZM14 2.5C14 1.122 15.121 0 16.5 0S19 1.122 19 2.5 17.879 5 16.5 5 14 3.878 14 2.5Zm1 0c0 .827.673 1.5 1.5 1.5S18 3.327 18 2.5 17.327 1 16.5 1 15 1.673 15 2.5Z"/></svg>