<svg xmlns="http://www.w3.org/2000/svg" width="512" height="512" data-name="Layer 1" viewBox="0 0 24 24"><path d="M24 14h-3.12l2.54-14H22.4l-2.54 14h-5.53L12 5.29 9.67 14h-5.6L1.39 0H.38l2.67 14H0v1h3.24l1.4 7.33C4.86 23.34 5.6 24 6.53 24c1.26 0 1.74-.94 1.91-1.51l2-7.49h3.13l2.03 7.59c.21.86.95 1.41 1.88 1.41s1.67-.66 1.89-1.68L20.7 15H24v-1ZM7.48 22.21c-.23.71-.65.79-.95.79-.44 0-.78-.32-.91-.87L4.26 15h5.15l-1.93 7.21ZM10.71 14 12 9.16 13.3 14h-2.59Zm7.68 8.11c-.13.56-.47.89-.91.89-.67 0-.86-.47-.91-.67L14.61 15h5.08l-1.29 7.11Z"/></svg>