<svg xmlns="http://www.w3.org/2000/svg" width="512" height="512" data-name="Layer 1" viewBox="0 0 24 24"><path d="M12 18c-2.919 0-5.236-2.04-5.333-2.127l.666-.746C7.354 15.146 9.47 17 12 17s4.646-1.854 4.667-1.873l.666.746C17.236 15.96 14.919 18 12 18Zm12-6c0-6.617-5.383-12-12-12S0 5.383 0 12s5.383 12 12 12 12-5.383 12-12Zm-1 0c0 6.065-4.935 11-11 11S1 18.065 1 12 5.935 1 12 1s11 4.935 11 11ZM7.5 7C6.069 7 5 9.111 5 11h1c0-1.43.785-3 1.5-3S9 9.57 9 11h1c0-1.889-1.069-4-2.5-4Zm9 0C15.069 7 14 9.111 14 11h1c0-1.43.785-3 1.5-3S18 9.57 18 11h1c0-1.889-1.069-4-2.5-4Z"/></svg>