<svg xmlns="http://www.w3.org/2000/svg" width="512" height="512" data-name="Layer 1" viewBox="0 0 24 24"><path d="M21.123 20.416A10.932 10.932 0 0 0 24 13h-1c0 2.5-.915 4.867-2.585 6.708l-2.417-2.417a8.026 8.026 0 0 0 2.001-5.292v-4C20 3.589 16.411 0 12 0 9.044 0 6.318 1.667 4.941 4.234L.704-.003l-.707.707 23.3 23.3.707-.707-2.88-2.88ZM12 1c3.52 0 6.442 2.612 6.928 6H14v1h5v4h-5v1h4.927a7.032 7.032 0 0 1-1.637 3.583L5.684 4.977A7.05 7.05 0 0 1 12 1ZM5 8.536V12h3.464l1 1H5.071c.487 3.388 3.408 6 6.928 6 .995 0 1.962-.216 2.851-.613l.756.756a7.984 7.984 0 0 1-3.607.858c-4.411 0-8-3.589-8-8v-4c0-.149.012-.296.02-.444l.98.98ZM18.074 21.61l.727.727A10.913 10.913 0 0 1 13 24h-2C4.935 24 0 19.065 0 13h1c0 5.514 4.486 10 10 10h2c1.818 0 3.553-.49 5.074-1.39Z"/></svg>