<svg xmlns="http://www.w3.org/2000/svg" width="512" height="512" data-name="Layer 1" viewBox="0 0 24 24"><path d="M7 24h4v-4H7v4Zm1-3h2v2H8v-2Zm-1-3h4v-4H7v4Zm1-3h2v2H8v-2Zm5 9h4v-4h-4v4Zm1-3h2v2h-2v-2Zm9.045-12.965-9.5-7.468a2.494 2.494 0 0 0-3.09 0l-9.5 7.468A2.484 2.484 0 0 0 0 10v14h5V13.5c0-.827.673-1.5 1.5-1.5h11c.827 0 1.5.673 1.5 1.5V24h5V10c0-.772-.348-1.489-.955-1.965ZM23 23h-3v-9.5c0-1.378-1.121-2.5-2.5-2.5h-11A2.503 2.503 0 0 0 4 13.5V23H1V10c0-.463.209-.893.572-1.179l9.5-7.468a1.498 1.498 0 0 1 1.855 0l9.5 7.468c.363.286.572.716.572 1.179v13Z"/></svg>