<svg xmlns="http://www.w3.org/2000/svg" data-name="Layer 1" viewBox="0 0 24 24"><path d="M23.977.73 23.27.023l-6.363 6.363A9.273 9.273 0 0 0 10.689 4a8.07 8.07 0 0 0-2.244.332l-.359.104-.002.374a5.53 5.53 0 0 1-1.628 3.896 5.578 5.578 0 0 1-4.821 1.557l-.356-.058-.167.319c-.727 1.388-1.11 2.828-1.11 4.165 0 2.388.904 4.568 2.386 6.218l-2.362 2.36.707.707 2.36-2.36A9.273 9.273 0 0 0 9.311 24c1.353 0 2.81-.393 4.213-1.137l.33-.175-.074-.367a5.544 5.544 0 0 1 1.515-5.048c1.058-1.058 2.447-1.65 3.964-1.627l.392.002.096-.379a7.94 7.94 0 0 0 .254-1.958 9.278 9.278 0 0 0-2.386-6.218L23.977.73ZM19 13.311c0 .437-.047.888-.139 1.345a6.503 6.503 0 0 0-4.273 1.91 6.542 6.542 0 0 0-1.854 5.577c-1.157.562-2.334.856-3.423.856a8.275 8.275 0 0 1-5.51-2.095l3.057-3.057-.707-.707-3.057 3.057a8.28 8.28 0 0 1-2.095-5.51c0-1.079.29-2.244.841-3.392A6.563 6.563 0 0 0 7.161 9.41a6.506 6.506 0 0 0 1.907-4.212 6.934 6.934 0 0 1 1.619-.2c2.112 0 4.042.792 5.51 2.095l-7.052 7.052.707.707L16.904 7.8a8.28 8.28 0 0 1 2.095 5.51ZM19 .999a1 1 0 1 1 2 0 1 1 0 0 1-2 0Zm-2 2a1 1 0 1 1 2 0 1 1 0 0 1-2 0Zm7 1a1 1 0 1 1-2 0 1 1 0 0 1 2 0Zm-2 2a1 1 0 1 1-2 0 1 1 0 0 1 2 0Z"/></svg>