<svg xmlns="http://www.w3.org/2000/svg" width="512" height="512" data-name="Layer 1" viewBox="0 0 24 24"><path d="M12.004 0c-6.066 0-11 4.936-11 11.001v2h22V11c-.015-6.168-4.847-11-11-11Zm10 12h-20v-1c0-5.513 4.486-9.999 10-9.999 5.594 0 9.986 4.393 10 10v1Zm-21 4.001h9.292l5.207 5.207 5.208-5.207h2.293v-1h-22v1Zm14.5 3.793-3.793-3.793h7.586l-3.793 3.793Zm6.036-1.793h1.465v1.5c0 2.481-2.019 4.5-4.5 4.5H5.504a4.505 4.505 0 0 1-4.5-4.5v-1.5h8.464l1 1H2.004v.5c0 1.93 1.57 3.5 3.5 3.5h13c1.93 0 3.5-1.57 3.5-3.5v-.5h-1.465l1-1Z"/></svg>