<svg xmlns="http://www.w3.org/2000/svg" width="512" height="512" data-name="Layer 1" viewBox="0 0 24 24"><path d="M18.448 5.014C18.093 1.749 15.99 0 14 0v1c1.517 0 3.12 1.402 3.442 4.021C14.211 5.268 12 7.657 12 11c0 3.037-1.963 5-5 5-2.907 0-5.018-2.458-5.646-6.575L1.29 9H.283S0 10.423 0 12c0 6.617 5.383 12 12 12s12-5.383 12-12v-1.046c0-2.845-1.905-5.722-5.552-5.94Zm2.776 2.026C20.581 8.249 19.347 9 18.001 9s-2.587-.755-3.229-1.97l-.021.011C15.545 6.401 16.62 6 18 6c1.362 0 2.43.404 3.223 1.04ZM23.001 12c0 6.065-4.935 11-11 11-6.018 0-10.923-4.858-10.999-10.858C2.111 15.228 4.248 17 7.001 17c3.589 0 6-2.411 6-6 0-1.158.335-2.321 1.041-3.233.85 1.385 2.34 2.233 3.959 2.233s3.1-.843 3.951-2.22c.709.912 1.049 2.063 1.049 3.174V12Z"/></svg>