<svg xmlns="http://www.w3.org/2000/svg" width="512" height="512" data-name="Layer 1" viewBox="0 0 24 24"><path d="M20 13h-4.09l2.17-8.38-4.11-1.15.42-2.61L9.56.03V0l-.07.01-4.86.84.44 2.61L.89 4.78 3.08 13h-3l1.89 9.39A2.01 2.01 0 0 0 3.93 24H20c2.21 0 4-1.79 4-4v-3c0-2.21-1.79-4-4-4Zm3 4v1H10v-1c0-1.65 1.35-3 3-3h7c1.65 0 3 1.35 3 3Zm-3.56 2-1.94 1.38L15.59 19h3.85ZM16.88 5.31 14.89 13h-2.45l1.39-8.54 3.06.85Zm-3.62-3.64-1.84 11.32H8.2l2.09-11.82 2.96.51Zm-4.51-.51.26 1.53-1.56 8.81-1.67-9.83 2.96-.5ZM2.11 5.44l3.13-.99L6.69 13H4.12L2.11 5.44Zm.84 16.75L1.3 14h9.06A4 4 0 0 0 9 17v3a4 4 0 0 0 1.36 3H3.93c-.48 0-.89-.34-.98-.8Zm17.05.8h-7c-1.65 0-3-1.35-3-3v-1h3.89l3.61 2.62 3.66-2.62H23v1c0 1.65-1.35 3-3 3Z"/></svg>