<svg xmlns="http://www.w3.org/2000/svg" width="512" height="512" data-name="Layer 1" viewBox="0 0 24 24"><path d="M14.513 5c1.378 0 2.5-1.122 2.5-2.5S15.891 0 14.513 0s-2.5 1.122-2.5 2.5 1.122 2.5 2.5 2.5Zm0-4c.827 0 1.5.673 1.5 1.5S15.34 4 14.513 4s-1.5-.673-1.5-1.5.673-1.5 1.5-1.5Zm8.5 19.5c0 1.378-1.122 2.5-2.5 2.5h-.367l3.507-14.756-.973-.231-.711 2.99-3.675.02-2.28-3.788a2.512 2.512 0 0 0-2.142-1.211H5.699L3.363 10h1.149l1.721-2.976h4.531l-2.565 5.939a2.5 2.5 0 0 0 .996 3.073l4.817 2.753v4.21H6.647l2.119-4.905-.563-.322c-.105-.066-.193-.148-.292-.221l-2.353 5.448H1.112L3.742 12H2.714l-2.7 11.294L0 24h20.513c1.93 0 3.5-1.57 3.5-3.5h-1ZM9.712 15.18a1.496 1.496 0 0 1-.59-1.829l2.733-6.327h2.018c.304 0 .592.103.838.27l-2.923 6.768.873.499 2.756-6.381 2.315 3.845 4-.022-2.614 10.996h-4.105v-4.79l-5.301-3.03Z"/></svg>