<svg xmlns="http://www.w3.org/2000/svg" data-name="Layer 1" viewBox="0 0 24 24"><path d="M21.5 6H5.534L21.153.976l-.307-.952L2.214 6.017A2.503 2.503 0 0 0 0 8.5V24h24V8.5C24 7.122 22.878 6 21.5 6ZM23 23H1V8.5A1.5 1.5 0 0 1 2.5 7h19A1.5 1.5 0 0 1 23 8.5V23ZM3 13h6v1H3v-1Zm0 3h6v1H3v-1Zm0 3h6v1H3v-1Zm0-9h6v1H3v-1Zm13 0c-2.757 0-5 2.243-5 5s2.243 5 5 5 5-2.243 5-5-2.243-5-5-5Zm0 9c-2.206 0-4-1.794-4-4s1.794-4 4-4 4 1.794 4 4-1.794 4-4 4Zm0-6c-1.103 0-2 .897-2 2s.897 2 2 2 2-.897 2-2-.897-2-2-2Zm0 3c-.551 0-1-.449-1-1s.449-1 1-1 1 .449 1 1-.449 1-1 1Z"/></svg>