<svg xmlns="http://www.w3.org/2000/svg" width="512" height="512" data-name="Layer 1" viewBox="0 0 24 24"><path d="M12 14c-1.1 0-2-.9-2-2s.9-2 2-2 2 .9 2 2-.9 2-2 2Zm0-3c-.55 0-1 .45-1 1s.45 1 1 1 1-.45 1-1-.45-1-1-1Zm-7.78 8.78c-4.29-4.29-4.29-11.27 0-15.56l-.71-.71c-4.67 4.68-4.67 12.3 0 16.98l.71-.71ZM20.49 3.51l-.71.71c4.29 4.29 4.29 11.27 0 15.56l.71.71c4.68-4.68 4.68-12.29 0-16.97ZM7.76 16.24a6.011 6.011 0 0 1 0-8.49l-.71-.71C5.73 8.36 5 10.12 5 11.99s.73 3.63 2.05 4.95l.71-.71Zm9.19-9.19-.71.71a6.011 6.011 0 0 1 0 8.49l.71.71a7.007 7.007 0 0 0 0-9.9Z"/></svg>