<svg xmlns="http://www.w3.org/2000/svg" width="512" height="512" data-name="Layer 1" viewBox="0 0 24 24"><path d="M21.5 0h-19A2.503 2.503 0 0 0 0 2.5V20h7.106l3.897 3.283c.286.254.645.38 1.001.38.353 0 .703-.123.979-.368L16.968 20H24V2.5C24 1.121 22.878 0 21.5 0ZM23 19h-6.391l-4.276 3.535a.5.5 0 0 1-.675-.009L7.471 19H1V2.5C1 1.673 1.673 1 2.5 1h19c.827 0 1.5.673 1.5 1.5V19ZM14.5 4h-3A2.503 2.503 0 0 0 9 6.5v5.001A2.485 2.485 0 0 0 7.5 11C6.122 11 5 12.121 5 13.5S6.122 16 7.5 16s2.5-1.121 2.5-2.5v-7c0-.827.673-1.5 1.5-1.5h3c.827 0 1.5.673 1.5 1.5v5.001A2.485 2.485 0 0 0 14.5 11c-1.378 0-2.5 1.121-2.5 2.5s1.122 2.5 2.5 2.5 2.5-1.121 2.5-2.5v-7C17 5.121 15.878 4 14.5 4Zm-7 11c-.827 0-1.5-.673-1.5-1.5S6.673 12 7.5 12s1.5.673 1.5 1.5S8.327 15 7.5 15Zm7 0c-.827 0-1.5-.673-1.5-1.5s.673-1.5 1.5-1.5 1.5.673 1.5 1.5-.673 1.5-1.5 1.5Z"/></svg>