<svg xmlns="http://www.w3.org/2000/svg" width="512" height="512" data-name="Layer 1" viewBox="0 0 24 24"><path d="M14.774 13.197c-.307.198-.614.395-.919.588 1.52 1.003 2.941 2.038 4.109 3.215H6.035c1.7-1.714 3.935-3.126 6.232-4.577C17.052 9.401 22 6.276 22 0h-1c0 .709-.069 1.374-.199 2H3.2A9.805 9.805 0 0 1 3 0H2c0 5.173 3.364 8.205 7.226 10.803.307-.198.614-.395.919-.588C8.625 9.212 7.204 8.177 6.036 7h11.929c-1.7 1.714-3.935 3.126-6.232 4.577C6.948 14.599 2 17.724 2 24h1c0-.709.069-1.374.199-2H20.8c.13.626.2 1.291.2 2h1c0-5.173-3.364-8.205-7.226-10.803ZM20.532 3c-.37 1.114-.945 2.101-1.669 3H5.139c-.724-.899-1.3-1.886-1.67-3h17.063ZM3.468 21c.37-1.114.945-2.101 1.669-3h13.724c.724.899 1.3 1.886 1.67 3H3.468Z"/></svg>