<svg xmlns="http://www.w3.org/2000/svg" width="512" height="512" data-name="Layer 1" viewBox="0 0 24 24"><path d="M4.5 13C2.019 13 0 15.019 0 17.5S2.019 22 4.5 22 9 19.981 9 17.5 6.981 13 4.5 13Zm0 8C2.57 21 1 19.43 1 17.5S2.57 14 4.5 14 8 15.57 8 17.5 6.43 21 4.5 21Zm15-8c-2.481 0-4.5 2.019-4.5 4.5s2.019 4.5 4.5 4.5 4.5-2.019 4.5-4.5-2.019-4.5-4.5-4.5Zm0 8c-1.93 0-3.5-1.57-3.5-3.5s1.57-3.5 3.5-3.5 3.5 1.57 3.5 3.5-1.57 3.5-3.5 3.5Zm-3.248-11-2.74-2.538a1.503 1.503 0 0 0-2.095-.07L9.479 8.933a1.486 1.486 0 0 0-.462 1.107c.006.429.197.836.522 1.116L12 13.27v4.729h-1v-4.271l-2.112-1.814a2.502 2.502 0 0 1-.057-3.742l1.938-1.541c.969-.886 2.49-.847 3.438.113L16.645 9H20v1h-3.748Zm.248-4C17.879 6 19 4.878 19 3.5S17.879 1 16.5 1 14 2.122 14 3.5 15.121 6 16.5 6Zm0-4c.827 0 1.5.673 1.5 1.5S17.327 5 16.5 5 15 4.327 15 3.5 15.673 2 16.5 2Z"/></svg>