<svg xmlns="http://www.w3.org/2000/svg" width="512" height="512" data-name="Layer 1" viewBox="0 0 24 24"><path d="M23.86.847 23.153.14l-8.037 8.037-5-5L0 13.293V20.5C0 22.43 1.57 24 3.5 24h7.207l10.116-10.116-5-5L23.86.847ZM1 20.5v-5.389C2.086 16.202 3.754 17 4.942 17c1.006 0 1.82-.181 2.474-.425A6.834 6.834 0 0 0 6.999 19c0 1.223.61 2.815 1.908 4H3.5A2.502 2.502 0 0 1 1 20.5Zm9.421 2.372C8.837 21.932 8 20.256 8 19c0-1.995.799-3.092 1.274-3.567l2.947-2.947-.707-.707-2.947 2.947C8.268 15.025 7.123 16 4.942 16c-1.188 0-3.219-1.196-3.838-2.398l9.012-9.011 9.293 9.293-8.988 8.988Z"/></svg>