<svg xmlns="http://www.w3.org/2000/svg" width="512" height="512" data-name="Layer 1" viewBox="0 0 24 24"><path d="M1 16h4v1H0V7.34c0-.77.35-1.49.96-1.97l6-4.69c.91-.71 2.17-.71 3.08 0L14 3.78V1h1v3.56l1.04.81c.61.48.96 1.19.96 1.97V8h-1v-.66c0-.46-.21-.89-.58-1.18l-6-4.69c-.54-.43-1.3-.43-1.85 0L1.58 6.16c-.37.29-.58.72-.58 1.18V16Zm23 3v2.5a2.5 2.5 0 0 1-2.5 2.5h-13A2.5 2.5 0 0 1 6 21.5V19h1v-6.5A2.5 2.5 0 0 1 9.5 10h11a2.5 2.5 0 0 1 2.5 2.5V19h1ZM8 19h3.71l1 1h4.59l1-1h3.71v-6.5c0-.83-.67-1.5-1.5-1.5H9.5c-.83 0-1.5.67-1.5 1.5V19Zm15 1h-4.29l-1 1H12.3l-1-1H7v1.5c0 .83.67 1.5 1.5 1.5h13c.83 0 1.5-.67 1.5-1.5V20Z"/></svg>