<svg xmlns="http://www.w3.org/2000/svg" width="512" height="512" data-name="Layer 1" viewBox="0 0 24 24"><path d="M23.415 11.899a2.507 2.507 0 0 0-1.783-.888 3.602 3.602 0 0 0 .376-1.564 3.991 3.991 0 0 0-2-3.435v-.006c0-2.206-1.794-4-4-4-.201 0-.404.019-.62.057a3.806 3.806 0 0 0-6.761.001 3.548 3.548 0 0 0-.62-.057 4.004 4.004 0 0 0-3.979 4.415 3.98 3.98 0 0 0-2.021 3.444c0 .405.064.793.191 1.162a2.51 2.51 0 0 0-1.602.871 2.494 2.494 0 0 0-.556 2.03c.743 4.37 3.604 8.026 7.85 10.03l8.129.048.102-.048c4.246-2.005 7.106-5.661 7.849-10.03a2.493 2.493 0 0 0-.556-2.03ZM4.782 7.159l.364-.164s-.14-.789-.14-.988c0-1.654 1.346-3 3-3 .544 0 1.207.231 1.207.231l.163-.415c.435-1.104 1.468-1.817 2.631-1.817s2.195.713 2.63 1.817l.163.415s.659-.231 1.207-.231c1.654 0 3 1.346 3 3 0 .039-.055.601-.055.601l.314.146c1.073.5 1.74 1.531 1.74 2.693 0 .543-.202 1.119-.542 1.561H3.272a2.506 2.506 0 0 1-.264-1.142c0-1.16.696-2.223 1.774-2.707Zm18.202 6.603c-.681 4.009-3.298 7.373-7.189 9.246H8.219c-3.891-1.873-6.509-5.236-7.19-9.246a1.506 1.506 0 0 1 1.487-1.754h18.982a1.505 1.505 0 0 1 1.486 1.754ZM9.007 6.007a1 1 0 1 1 2 0 1 1 0 0 1-2 0Zm5 2.99a.996.996 0 1 1 1.992 0 .996.996 0 0 1-1.992 0Z"/></svg>