<svg xmlns="http://www.w3.org/2000/svg" data-name="Layer 1" viewBox="0 0 24 24"><path d="m21.228 19.482-4.758-4.739 1.159-1.159c3.103-3.104 3.103-8.151 0-11.254C16.126.827 14.127-.001 12.002-.001S7.878.827 6.375 2.33c-3.103 3.103-3.103 8.15-.003 11.251l1.098 1.114-4.806 4.786 4.6 4.512 4.683-4.754 4.683 4.754 4.599-4.512Zm-4.307-6.604-1.16 1.16-3.07-3.058c1.17-.943 4.31-3.687 4.31-5.98 0-.902-.24-1.75-.66-2.481a6.967 6.967 0 0 1 .58 10.359ZM9.51 7.873c1.424-1.113 3.556-1.113 4.981 0-.829.96-1.821 1.842-2.49 2.378-.67-.537-1.662-1.418-2.491-2.378ZM16.001 5c0 .625-.362 1.358-.887 2.088C14.232 6.383 13.146 6 12.001 6s-2.233.383-3.114 1.088C8.363 6.359 8.001 5.626 8.001 5c0-2.206 1.794-4 4-4s4 1.794 4 4Zm-8.92-1.962c.185-.185.379-.358.58-.519A4.97 4.97 0 0 0 7.001 5c0 2.195 2.879 4.805 4.151 5.85l-.004.004 8.658 8.622-3.165 3.105-9.56-9.703a6.967 6.967 0 0 1 0-9.84Zm.17 19.544-3.166-3.105 4.086-4.068 3.073 3.119-3.993 4.054Z"/></svg>