<svg xmlns="http://www.w3.org/2000/svg" width="512" height="512" data-name="Layer 1" viewBox="0 0 24 24"><path d="M13.821.748c-.977-.965-2.646-.985-3.663.021L.047 12l10.132 11.251a2.585 2.585 0 0 0 3.662-.021L23.988 12 13.821.748Zm8.58 10.987L12.5 14.48V1.106c.224.071.436.176.608.344l9.293 10.285ZM10.882 1.459a1.51 1.51 0 0 1 .618-.351v13.371l-9.869-2.744 9.251-10.276ZM2.24 12.941l9.26 2.575v7.385a1.443 1.443 0 0 1-.599-.341L2.24 12.941Zm10.878 9.599c-.175.173-.39.288-.618.358v-7.382l9.29-2.576-8.672 9.599Z"/></svg>