<svg xmlns="http://www.w3.org/2000/svg" width="512" height="512" data-name="Layer 1" viewBox="0 0 24 24"><path d="M12 0C5.383 0 0 5.383 0 12s5.383 12 12 12h12V12c0-6.617-5.383-12-12-12Zm11 23H12C5.935 23 1 18.065 1 12S5.935 1 12 1s11 4.935 11 11v11ZM15.937 8.278a4.027 4.027 0 0 1-2.009 4.227c-.761.42-1.428 1.647-1.428 2.628V16h-1v-.867c0-1.34.873-2.912 1.946-3.503 1.143-.631 1.734-1.878 1.506-3.179a3.008 3.008 0 0 0-2.404-2.403c-.905-.155-1.784.073-2.476.653A2.996 2.996 0 0 0 9 9H8a3.99 3.99 0 0 1 1.429-3.064 4.019 4.019 0 0 1 3.292-.872c1.611.282 2.933 1.604 3.216 3.215ZM13 19a1 1 0 1 1-2 0 1 1 0 0 1 2 0Z"/></svg>