<svg xmlns="http://www.w3.org/2000/svg" width="512" height="512" data-name="Layer 1" viewBox="0 0 24 24"><path d="M19.584 15.001A5.01 5.01 0 0 0 15 12c-2.757 0-5 2.243-5 5v.036A3.505 3.505 0 0 0 7 20.5c0 1.93 1.57 3.5 3.5 3.5h9c2.481 0 4.5-2.019 4.5-4.5a4.505 4.505 0 0 0-4.416-4.499ZM19.5 23h-9C9.121 23 8 21.878 8 20.5S9.121 18 10.527 18h.557l-.06-.553A4.004 4.004 0 0 1 15 13a4.007 4.007 0 0 1 3.772 2.667l.118.333h.609c1.93 0 3.5 1.57 3.5 3.5s-1.57 3.5-3.5 3.5ZM7.055 16.235a6.57 6.57 0 0 1-.899-1.036L1.82 17.723l-.504-.864 4.334-2.523A6.456 6.456 0 0 1 5.019 12H0v-1h5.019c.064-.831.284-1.62.633-2.335L1.316 6.142l.504-.864 4.337 2.525a6.547 6.547 0 0 1 1.67-1.662L5.309 1.808l.865-.503 2.519 4.333A6.462 6.462 0 0 1 11 5.019V0h1v5.02a6.508 6.508 0 0 1 2.305.62l2.521-4.335.865.503-2.519 4.333a6.514 6.514 0 0 1 1.672 1.66l4.336-2.524.504.864-4.334 2.523c.305.629.505 1.305.595 1.999a6.998 6.998 0 0 0-1.096-.409 5.438 5.438 0 0 0-.584-1.504A5.52 5.52 0 0 0 11.5 6 5.506 5.506 0 0 0 6 11.5c0 1.087.316 2.139.916 3.041.283.425.622.798.999 1.122a5.539 5.539 0 0 0-.86.572Z"/></svg>