<svg xmlns="http://www.w3.org/2000/svg" width="512" height="512" data-name="Layer 1" viewBox="0 0 24 24"><path d="M18.529 10H22V9h-2.453C20.456 7.826 21 6.301 21 5.826a4.684 4.684 0 0 0-2.43-4.125C17.148.925 14.849 0 11.977 0 6.604 0 3.394 3.149 3.26 3.283l.707.707C3.997 3.96 7.015 1 11.978 1c2.661 0 4.794.858 6.114 1.579C19.269 3.22 20 4.465 20 5.891c-.029.342-.749 2.209-1.801 3.108H2v1h13.921l-9.829 3.643a4.642 4.642 0 0 0-.749.357H2v1h2.155A4.868 4.868 0 0 0 3 18.164a4.71 4.71 0 0 0 2.437 4.146c1.415.771 3.703 1.689 6.563 1.689 5.373 0 8.583-3.149 8.717-3.283l-.706-.708c-.03.03-3.067 2.991-8.011 2.991-2.65 0-4.771-.853-6.085-1.567C4.733 20.787 4 19.536 4 18.098c0-1.253.63-2.41 1.632-3.099H22v-1H8.006l9.88-3.661c.224-.081.438-.197.643-.339Z"/></svg>