<svg xmlns="http://www.w3.org/2000/svg" data-name="Layer 1" viewBox="0 0 24 24"><path d="M21.5 2H18V0h-1v2H7V0H6v2H2.5A2.503 2.503 0 0 0 0 4.5V24h24V4.5C24 3.122 22.878 2 21.5 2Zm-19 1h19c.827 0 1.5.673 1.5 1.5V8H1V4.5C1 3.673 1.673 3 2.5 3ZM1 23V9h22v14H1Zm13.25-11c-.951 0-1.761.435-2.25 1.128C11.511 12.435 10.701 12 9.75 12 8.233 12 7 13.314 7 14.93c0 2.786 4.536 5.741 4.729 5.865l.271.174.271-.174C12.464 20.67 17 17.715 17 14.93c0-1.616-1.233-2.93-2.75-2.93ZM12 19.774c-1.327-.914-4-3.111-4-4.844C8 13.866 8.785 13 9.75 13c1.014 0 1.75.736 1.75 1.75V15h1v-.25c0-1.014.736-1.75 1.75-1.75.965 0 1.75.866 1.75 1.93 0 1.733-2.673 3.93-4 4.844Z"/></svg>