<svg xmlns="http://www.w3.org/2000/svg" data-name="Layer 1" viewBox="0 0 24 24"><path d="M23.272.378C20.794 1.596 18.21 1.933 16.48 2c-.587.023-1.165.034-1.734.046-3.579.071-6.959.138-9.849 3.028A9.827 9.827 0 0 0 2 12.068c0 2.484.91 4.829 2.571 6.653L.017 23.276l.707.707 4.557-4.557a9.816 9.816 0 0 0 6.611 2.534 9.825 9.825 0 0 0 6.994-2.897c4.488-4.488 5.107-11.417 5.107-18.236V.024l-.721.354Zm-5.094 17.978c-1.679 1.679-3.912 2.604-6.287 2.604s-4.608-.925-6.287-2.604C3.924 16.677 3 14.444 3 12.068s.925-4.608 2.604-6.287c2.604-2.605 5.644-2.666 9.161-2.736a88.845 88.845 0 0 0 1.754-.046c1.66-.064 4.067-.365 6.471-1.392-.049 6.347-.747 12.684-4.812 16.749ZM12.499 8.303c-.523-.774-1.42-1.254-2.5-1.254-1.654 0-3 1.436-3 3.2 0 3.054 5.002 6.562 5.215 6.71l.285.198.285-.198c.213-.148 5.215-3.656 5.215-6.71 0-1.765-1.346-3.2-3-3.2-1.08 0-1.977.479-2.5 1.254Zm4.5 1.946c0 1.965-3.02 4.595-4.5 5.685-1.48-1.09-4.5-3.719-4.5-5.685 0-1.213.897-2.2 2-2.2 1.178 0 2 .804 2 1.955h1c0-1.151.822-1.955 2-1.955 1.103 0 2 .987 2 2.2Z"/></svg>