<svg xmlns="http://www.w3.org/2000/svg" width="512" height="512" data-name="Layer 1" viewBox="0 0 24 24"><path d="M1 7H0V2.5A2.5 2.5 0 0 1 2.5 0H7v1H2.5C1.67 1 1 1.67 1 2.5V7Zm0 14.5V17H0v4.5A2.5 2.5 0 0 0 2.5 24H7v-1H2.5c-.83 0-1.5-.67-1.5-1.5ZM24.01 4 17 8V0l7.01 4ZM18 6.28 21.99 4 18 1.72v4.56Zm5 15.22c0 .83-.67 1.5-1.5 1.5H17v1h4.5a2.5 2.5 0 0 0 2.5-2.5V17h-1v4.5Zm-7.84-8.15 1.17 3.91-.67.51L12 15.4l-3.65 2.37-.67-.51 1.17-3.91-3.13-2.52V10h4.34l1.52-4.34h.85L13.95 10h4.34v.83l-3.13 2.52Zm-.22 2.77L14.01 13l2.47-1.99h-3.25l-1.24-3.53-1.24 3.53H7.5L9.97 13l-.93 3.12 2.94-1.91 2.94 1.91Z"/></svg>