<svg xmlns="http://www.w3.org/2000/svg" width="512" height="512" data-name="Layer 1" viewBox="0 0 24 24"><path d="M8 23h4v1H8v-1ZM23.242 4.436 12.995 14.722l-.651 2.921c-2.588 2.6-6.111 4.213-9.732 4.357H0v-1.588L19.577.762c.979-.982 2.686-.982 3.665 0a2.608 2.608 0 0 1 0 3.674ZM11.988 14.642l-2.497-2.34L1 20.826V21h1.591c3.302-.132 6.442-1.501 8.84-3.859l.557-2.499ZM22.533 1.467c-.601-.602-1.648-.603-2.249 0L10.197 11.594l2.329 2.182L22.534 3.73a1.609 1.609 0 0 0 0-2.264ZM20 23v1h4v-1h-4Zm-6 1h4v-1h-4v1Z"/></svg>