<svg xmlns="http://www.w3.org/2000/svg" width="512" height="512" data-name="Layer 1" viewBox="0 0 24 24"><path d="M12 24C5.383 24 0 18.617 0 12S5.383 0 12 0s12 5.383 12 12-5.383 12-12 12Zm0-23C5.935 1 1 5.935 1 12s4.935 11 11 11 11-4.935 11-11S18.065 1 12 1Zm5.979 10.643L15.3 9.5l2.679-2.143-.625-.781L13.7 9.5l3.654 2.924.625-.781ZM10.3 9.5 6.646 6.576l-.625.781L8.7 9.5l-2.679 2.143.625.781L10.3 9.5Zm-4.553 9.506.276-.876c.066-.209 1.666-5.13 5.966-5.13h.012c4.299 0 5.909 4.92 5.975 5.129l.278.876-.887-.242c-.028-.008-2.814-.763-5.372-.763s-5.335.755-5.363.763l-.885.243ZM11.996 17c1.766 0 3.585.328 4.664.564C16.034 16.273 14.567 14 12.002 14h-.012c-2.565 0-4.028 2.273-4.651 3.563 1.077-.235 2.892-.563 4.657-.563Z"/></svg>