<svg xmlns="http://www.w3.org/2000/svg" width="512" height="512" data-name="Layer 1" viewBox="0 0 24 24"><path d="M22 8V3.79c0-1.04-.626-1.956-1.595-2.332C18.694.793 15.846 0 12 0S5.306.793 3.594 1.458A2.486 2.486 0 0 0 2 3.79V8H0v4c0 1.103.897 2 2 2v7h2v3h4v-3h8v3h4v-3h2v-7c1.103 0 2-.897 2-2V8h-2ZM3 13V6h18v7H3Zm12-8H9V4h6v1ZM3.957 2.39C5.293 1.871 8.114 1 12 1s6.708.871 8.044 1.39c.581.226.956.775.956 1.4V5h-5V3H8v2H3V3.79c0-.625.375-1.174.957-1.4ZM1 12V9h1v4c-.551 0-1-.449-1-1Zm6 11H5v-2h2v2Zm12 0h-2v-2h2v2Zm2-3H3v-6h3v1.5a.5.5 0 0 0 1 0V14h10v1.5a.5.5 0 0 0 1 0V14h3v6Zm2-8c0 .551-.448 1-1 1V9h1v3Z"/></svg>