<svg xmlns="http://www.w3.org/2000/svg" width="512" height="512" data-name="Layer 1" viewBox="0 0 24 24"><path d="M1.267 23H10v1H1.267c-.514 0-.973-.307-1.169-.781a1.26 1.26 0 0 1 .274-1.379l8.533-9.37c.129-.13.094-.257.073-.306A.256.256 0 0 0 8.733 12H0v-1h8.733c.514 0 .973.307 1.169.781a1.26 1.26 0 0 1-.274 1.379l-8.533 9.37c-.129.13-.094.257-.074.306.021.05.085.164.245.164Zm22.448-8.275c.29-.29.376-.722.219-1.101a1.007 1.007 0 0 0-.933-.624h-6v1l5.992.034-5.706 6.241c-.29.29-.376.722-.219 1.101s.523.624.933.624h6v-1l-5.991-.034 5.706-6.241ZM19.001 9h-6.925l-.042-.136 6.651-7.03a1.072 1.072 0 0 0-.759-1.833h-6.925v1h6.925l.042.136-6.651 7.03A1.072 1.072 0 0 0 12.076 10h6.925V9Z"/></svg>