<svg xmlns="http://www.w3.org/2000/svg" width="512" height="512" data-name="Layer 1" viewBox="0 0 24 24"><path d="M24 19V4.5C24 3.122 22.879 2 21.5 2h-19A2.503 2.503 0 0 0 0 4.5V19h11.5v2H7v1h10v-1h-4.5v-2H24ZM1 4.5C1 3.673 1.673 3 2.5 3h19c.827 0 1.5.673 1.5 1.5V18H1V4.5Zm12 3v3.013A2.477 2.477 0 0 0 11.5 10C10.122 10 9 11.122 9 12.5s1.122 2.5 2.5 2.5 2.5-1.121 2.5-2.5v-5a.5.5 0 0 1 .5-.5H17V6h-2.5c-.827 0-1.5.673-1.5 1.5ZM11.5 14c-.827 0-1.5-.673-1.5-1.5s.673-1.5 1.5-1.5 1.5.673 1.5 1.5-.673 1.5-1.5 1.5Z"/></svg>