<svg xmlns="http://www.w3.org/2000/svg" width="512" height="512" data-name="Layer 1" viewBox="0 0 24 24"><path d="m12.425 16.03.922.387-3.179 7.565-.922-.387 3.178-7.565Zm-7.466 7.565.922.387 3.178-7.565-.922-.387-3.178 7.565Zm8.558 0 .922.387 3.178-7.565-.922-.387-3.178 7.565Zm3.486-18.573A7.73 7.73 0 0 0 9.75 0C5.477 0 2 3.477 2 7.75c0 .763.116 1.523.345 2.267A5.437 5.437 0 0 0 0 14.5a5.509 5.509 0 0 0 4.352 5.377l.4-.953C2.627 18.565 1 16.725 1 14.5c0-1.582.822-3.021 2.2-3.847l.354-.212-.141-.388a6.736 6.736 0 0 1-.412-2.304 6.758 6.758 0 0 1 6.75-6.75 6.732 6.732 0 0 1 6.417 4.661l.11.339.355.007C20.144 6.077 23 8.99 23 12.499c0 2.76-1.794 5.245-4.145 6.133l-.502 1.195C21.486 19.111 24 15.994 24 12.499c0-3.933-3.107-7.216-6.997-7.478Z"/></svg>