<svg xmlns="http://www.w3.org/2000/svg" width="512" height="512" data-name="Layer 1" viewBox="0 0 24 24"><path d="M9 10a1 1 0 1 1-2 0 1 1 0 0 1 2 0Zm7-1a1 1 0 1 0 0 2 1 1 0 0 0 0-2Zm8 3c0-6.617-5.383-12-12-12S0 5.383 0 12s5.383 12 12 12 12-5.383 12-12Zm-1 0c0 6.065-4.935 11-11 11S1 18.065 1 12 5.935 1 12 1s11 4.935 11 11Zm-5.023 2.872.278-.876-.887.243c-.028.008-2.81.762-5.373.762s-5.335-.754-5.362-.762l-.886-.243.276.875C6.088 15.08 7.689 20 11.989 20h.013c4.299 0 5.908-4.919 5.975-5.128ZM11.996 16c1.768 0 3.589-.329 4.667-.564-.623 1.29-2.086 3.564-4.66 3.564h-.013c-2.565 0-4.027-2.273-4.65-3.563 1.076.235 2.892.563 4.656.563Z"/></svg>