<svg xmlns="http://www.w3.org/2000/svg" data-name="Layer 1" viewBox="0 0 24 24"><path d="M23.261.739a2.525 2.525 0 0 0-3.568 0L15.832 4.6a3.952 3.952 0 0 1-5.534.08l-.696.718 2.379 2.379L1.925 17.832a3.005 3.005 0 0 0-.324 3.859L.069 23.223l.707.707 1.531-1.531c.504.36 1.106.556 1.738.556.801 0 1.555-.312 2.121-.879l10.055-10.055L18.6 14.4l.717-.696a3.954 3.954 0 0 1 .081-5.534l3.861-3.86a2.525 2.525 0 0 0 0-3.568ZM5.46 21.368c-.756.756-2.072.756-2.828 0a2.003 2.003 0 0 1 0-2.829L6.171 15h5.657L5.46 21.368ZM12.828 14H7.171l5.516-5.516 2.828 2.828-2.687 2.687Zm9.726-10.399-3.861 3.86a4.952 4.952 0 0 0-1.418 4.196l-4.931-4.932a4.963 4.963 0 0 0 4.195-1.418L20.4 1.446c.594-.594 1.561-.594 2.154 0s.594 1.561 0 2.154Z"/></svg>