<svg xmlns="http://www.w3.org/2000/svg" width="512" height="512" data-name="Layer 1" viewBox="0 0 24 24"><path d="M19 12a1 1 0 1 1-2 0 1 1 0 0 1 2 0Zm5 .5v3c0 .827-.673 1.5-1.5 1.5h-.213A7.74 7.74 0 0 1 18 20.997v.503c0 1.379-1.122 2.5-2.5 2.5a2.504 2.504 0 0 1-2.45-2H9.949a2.504 2.504 0 0 1-2.45 2 2.503 2.503 0 0 1-2.5-2.5v-.502c-3.311-1.25-5.335-4.529-4.953-8.101a7.382 7.382 0 0 1 1.279-3.408A3 3 0 0 1 3 4a.5.5 0 0 1 0 1 2.002 2.002 0 0 0-1.052 3.702A8.186 8.186 0 0 1 8.013 6h7.118c.343-1.285 1.326-2.303 2.811-2.893.465-.184.99-.127 1.402.153.411.279.657.743.657 1.241v3.124a7.844 7.844 0 0 1 2.497 3.374h.003c.603 0 1.5.399 1.5 1.5Zm-1 0c0-.401-.273-.494-.504-.5h-.353a.503.503 0 0 1-.476-.345 6.818 6.818 0 0 0-2.461-3.375.498.498 0 0 1-.207-.404V4.502a.504.504 0 0 0-.69-.465c-.923.366-2.068 1.107-2.282 2.551a.502.502 0 0 1-.51.427L8.012 7C4.463 7 1.4 9.637 1.039 13.003c-.344 3.22 1.553 6.166 4.615 7.165a.5.5 0 0 1 .345.476v.856c0 .827.673 1.5 1.5 1.5s1.5-.673 1.5-1.5a.5.5 0 0 1 .5-.5h4a.5.5 0 0 1 .5.5c0 .827.673 1.5 1.5 1.5s1.5-.673 1.5-1.5v-.856a.5.5 0 0 1 .345-.476 6.741 6.741 0 0 0 4.152-3.857.5.5 0 0 1 .462-.311h.541a.5.5 0 0 0 .5-.5v-3Zm-16.5-8A.5.5 0 0 0 7 4c0-1.654 1.346-3 3-3s3 1.346 3 3a.5.5 0 0 0 1 0c0-2.206-1.794-4-4-4S6 1.794 6 4a.5.5 0 0 0 .5.5Z"/></svg>