<svg xmlns="http://www.w3.org/2000/svg" width="512" height="512" data-name="Layer 1" viewBox="0 0 24 24"><path d="M12 0C5.38 0 0 5.38 0 12s5.38 12 12 12 12-5.38 12-12S18.62 0 12 0Zm11 12c0 2.85-1.1 5.45-2.89 7.4l-1.4-1.4H19v-2.5c0-.83-.67-1.5-1.5-1.5H17c0-.59-.09-1.29-.23-2H19v-1h-2.45c-.17-.71-.37-1.4-.56-2h1.51c.83 0 1.5-.67 1.5-1.5v-2h-1v2c0 .28-.22.5-.5.5h-1.84c-.14-.41-.25-.69-.29-.78C14.78 5.87 13.46 5 12 5s-2.78.87-3.37 2.22c-.03.07-.1.26-.19.51L4.6 3.89C6.56 2.1 9.15 1 12 1c6.07 0 11 4.93 11 11Zm-7.18 3.12-6.6-6.6c.16-.47.28-.8.32-.9C9.97 6.64 10.93 6 11.99 6s2.02.64 2.45 1.62c.23.53 1.55 4.33 1.55 6.38 0 .38-.07.75-.18 1.12Zm1.07-.12h.61c.28 0 .5.22.5.5v1.79l-1.39-1.39c.12-.29.22-.6.28-.91ZM1 12c0-2.85 1.1-5.45 2.89-7.4l15.52 15.51C17.45 21.9 14.86 23 12.01 23c-6.07 0-11-4.93-11-11Zm13.68 6.22c-.79.5-1.71.78-2.68.78-2.41 0-4.43-1.72-4.9-4h-.6c-.28 0-.5.22-.5.5V18H5v-2.5c0-.83.67-1.5 1.5-1.5H7c0-.59.1-1.29.24-2H5v-1h2.45l.83.83c-.17.77-.29 1.55-.29 2.18 0 2.21 1.79 4 4 4 .7 0 1.37-.19 1.95-.51l.73.73Z"/></svg>