<svg xmlns="http://www.w3.org/2000/svg" width="512" height="512" data-name="Layer 1" viewBox="0 0 24 24"><path d="M2 23a1 1 0 1 1-2 0 1 1 0 0 1 2 0Zm5-7a1 1 0 1 0 0 2 1 1 0 0 0 0-2Zm3-3a1 1 0 1 0 0 2 1 1 0 0 0 0-2Zm-8.636 5.071 4.564 4.564.707-.707-4.564-4.564-.707.707ZM18.011.032l-.399.916a10.493 10.493 0 0 1 5.431 5.413l.915-.402A11.486 11.486 0 0 0 18.011.032Zm-2.03 13.634A3.99 3.99 0 0 0 17 11c0-2.206-1.794-4-4-4s-4 1.794-4 4h1c0-1.654 1.346-3 3-3s3 1.346 3 3c0 .739-.271 1.449-.764 2l.745.666Zm-3.1-10.665C8.462 3.065 5 6.579 5 11h1c0-3.868 3.029-6.943 6.896-6.999 1.904-.066 3.672.688 5.018 2.013A6.948 6.948 0 0 1 20.001 11a6.94 6.94 0 0 1-1.2 3.911c-.809 1.19-.805 1.891-.8 2.859v.229c0 3.436-2.591 5-5 5v1c3.533 0 6-2.468 6-6v-.234c-.005-.904-.007-1.358.627-2.293a7.935 7.935 0 0 0 1.373-4.473 7.94 7.94 0 0 0-2.385-5.698C17.079 3.785 15.076 2.948 12.882 3Z"/></svg>