<svg xmlns="http://www.w3.org/2000/svg" width="512" height="512" data-name="Layer 1" viewBox="0 0 24 24"><path d="M21.5 19.017H21v-6c0-4.963-4.037-9-9-9s-9 4.037-9 9v6h-.5a2.502 2.502 0 0 0-2.5 2.5V24h24v-2.483c0-1.379-1.121-2.5-2.5-2.5Zm-17.5-6c0-4.411 3.589-8 8-8s8 3.589 8 8v6H4v-6ZM23 23H1v-1.483c0-.827.673-1.5 1.5-1.5h19c.827 0 1.5.673 1.5 1.5V23ZM2.511 6.127.159 3.967l.676-.736 2.352 2.16-.676.736ZM6.63 3.226 5.373.495l.908-.418 1.257 2.73-.908.418Zm14.945 2.839-.693-.721 2.273-2.186.693.721-2.273 2.186Zm-4.199-2.851-.92-.395 1.17-2.73.92.395-1.17 2.73ZM12 9.017v1c-1.654 0-3 1.346-3 3H8c0-2.206 1.794-4 4-4Z"/></svg>