<svg xmlns="http://www.w3.org/2000/svg" width="512" height="512" data-name="Layer 1" viewBox="0 0 24 24"><path d="M24 12.5v-1h-4.016a7.935 7.935 0 0 0-.833-3.084l3.48-2.026-.504-.865-3.481 2.026a8.08 8.08 0 0 0-2.207-2.204l2.02-3.473-.865-.502-2.019 3.471a7.943 7.943 0 0 0-3.074-.828V0h-1v4.016a7.959 7.959 0 0 0-3.062.822L6.423 1.373l-.865.502L7.573 5.34a8.06 8.06 0 0 0-2.215 2.206l-3.469-2.02-.504.863 3.468 2.019a7.956 7.956 0 0 0-.837 3.091H0v1h4.016a7.945 7.945 0 0 0 .833 3.085l-3.458 2.013.504.863 3.458-2.013a8.07 8.07 0 0 0 2.196 2.197l-2.02 3.473.865.502 2.018-3.47a7.952 7.952 0 0 0 3.087.835V24h1v-4.016a7.937 7.937 0 0 0 3.099-.841l2.022 3.476.865-.502-2.024-3.48a8.082 8.082 0 0 0 2.189-2.196l3.469 2.02.504-.863-3.47-2.02c.47-.936.762-1.977.83-3.077h4.016ZM12 19a6.951 6.951 0 0 1-3.083-.717l.019-.032-.865-.502-.017.029a7.076 7.076 0 0 1-1.834-1.834l.032-.019-.504-.863-.032.019c-.458-.93-.716-1.976-.716-3.08s.259-2.156.719-3.087l.019.011.504-.863-.018-.01A7 7 0 0 1 12 5.002c3.859 0 7 3.141 7 7s-3.141 7-7 7Zm0-7c0-2.595 2.338-3.463 2.338-3.463l1.041-.374-.966-.535A4.988 4.988 0 0 0 12 7c-2.757 0-5 2.243-5 5s2.243 5 5 5a4.961 4.961 0 0 0 2.815-.878l.927-.636-1.094-.263C14.54 15.197 12 14.556 12 11.999Zm0 4c-2.206 0-4-1.794-4-4s1.794-4 4-4c.342 0 .677.043 1.002.129C12.036 8.814 11 10.073 11 12c0 1.979 1.214 3.17 2.326 3.771A3.946 3.946 0 0 1 12 16Z"/></svg>