<svg xmlns="http://www.w3.org/2000/svg" width="512" height="512" data-name="Layer 1" viewBox="0 0 24 24"><path d="M24 11.5v1H0v-1h8.151l-1.845-.475A5.6 5.6 0 0 1 2.101 5.6c0-3.087 2.513-5.6 5.601-5.6H16.5a5.608 5.608 0 0 1 5.601 5.601V7h-1V5.601A4.606 4.606 0 0 0 16.5 1H7.702a4.606 4.606 0 0 0-4.601 4.601 4.598 4.598 0 0 0 3.454 4.456l5.61 1.443H24Zm-5.074 3a4.59 4.59 0 0 1 2.175 3.899A4.606 4.606 0 0 1 16.5 23H7.702a4.606 4.606 0 0 1-4.601-4.601V17h-1v1.399A5.608 5.608 0 0 0 7.702 24H16.5a5.608 5.608 0 0 0 5.601-5.601c0-1.501-.608-2.88-1.601-3.899h-1.573Z"/></svg>