<svg xmlns="http://www.w3.org/2000/svg" width="512" height="512" data-name="Layer 1" viewBox="0 0 24 24"><path d="M11.285 14.575c0 .342.219.46.219.46s.095.032.166.062c.233.099.667.283 1.13.456 1.175.441 1.471 1.294 1.356 1.945-.153.87-.976 1.502-1.959 1.502-.808 0-1.566-.33-2.079-.906l-.343-.384.756-.697.343.384c.315.354.81.565 1.323.565.544 0 .897-.333.953-.648.08-.459-.521-.719-.706-.788-.748-.281-1.432-.59-1.435-.59-.552-.357-.82-.908-.736-1.51.089-.624.54-1.132 1.177-1.325 1.284-.4 2.372.521 2.385.531l.391.334-.658.793-.386-.33c-.007-.005-.68-.569-1.438-.335-.367.112-.459.372-.459.481ZM22 7.293V24H2V2.5C2 1.121 3.121 0 4.5 0h10.207L22 7.293ZM15 7h5.293L15 1.707V7Zm6 16V8h-7V1H4.5C3.673 1 3 1.673 3 2.5V23h18Zm-3.897-5.744L16.093 13H15l1.511 6h1.25l1.252-6h-1.029l-.88 4.256Zm-9.117-.241c0 .543-.454.985-1.012.985a.969.969 0 0 1-.967-.97l-.008-2.063c0-.533.434-.967.967-.967.557 0 1.009.44 1.011 1h1.001v-.015c0-1.094-.902-1.985-2.012-1.985a1.967 1.967 0 0 0-1.967 1.967l.008 2.066c0 1.086.881 1.967 1.967 1.967 1.109 0 2.012-.891 2.012-1.985V17h-1v.015Z"/></svg>