<svg xmlns="http://www.w3.org/2000/svg" width="512" height="512" data-name="Layer 1" viewBox="0 0 24 24"><path d="M.476 15.315A11.937 11.937 0 0 1 0 12C0 5.383 5.383 0 12 0c1.15 0 2.259.172 3.313.476a4.054 4.054 0 0 0-.253.966A10.935 10.935 0 0 0 12 1C5.935 1 1 5.935 1 12c0 1.058.158 2.077.438 3.046a3.953 3.953 0 0 0-.962.269Zm21.733-7.389C22.714 9.188 23 10.56 23 12c0 6.065-4.935 11-11 11-1.463 0-2.857-.293-4.134-.813-.199.289-.412.563-.632.821 1.462.636 3.073.993 4.766.993 6.617 0 12-5.383 12-12 0-1.686-.353-3.291-.984-4.748-.307.276-.586.503-.807.674ZM9 11h1c0-1.888-1.069-4-2.5-4S5 9.112 5 11h1c0-1.43.785-3 1.5-3S9 9.57 9 11Zm5 0h1c0-1.43.785-3 1.5-3S18 9.57 18 11h1c0-1.888-1.069-4-2.5-4S14 9.112 14 11Zm3.333 4.873-.666-.746C16.646 15.146 14.53 17 12 17s-4.646-1.854-4.667-1.873l-.666.746C6.764 15.959 9.081 18 12 18s5.236-2.041 5.333-2.127ZM17 1.996c.01-.565.238-1.084.641-1.462a1.963 1.963 0 0 1 1.444-.531A2.008 2.008 0 0 1 20.5.68c.348-.394.849-.65 1.415-.677a1.947 1.947 0 0 1 1.444.531c.402.378.631.897.641 1.462.034 2.035-2.871 4.246-3.202 4.491l-.298.22-.298-.22c-.331-.245-3.236-2.456-3.202-4.49Zm1 .017c0 1.154 1.592 2.702 2.5 3.438.907-.737 2.5-2.287 2.5-3.438 0-.781-.775-1.024-1.038-1.011-.594.028-.962.541-.962.999h-1c0-.458-.368-.971-.962-.999-.016 0-1.038 0-1.038 1.012ZM7 18.995c.034 2.035-2.871 4.246-3.202 4.491l-.298.22-.298-.22C2.871 23.241-.034 21.03 0 18.996c.01-.565.238-1.084.641-1.462a1.982 1.982 0 0 1 1.444-.531 2.008 2.008 0 0 1 1.415.677c.348-.394.849-.65 1.415-.677a1.98 1.98 0 0 1 1.444.531c.402.378.631.897.641 1.462Zm-1 .017a1.035 1.035 0 0 0-.325-.749.944.944 0 0 0-.713-.262C4.368 18.029 4 18.542 4 19H3c0-.458-.368-.971-.962-.999h-.047a.965.965 0 0 0-.666.263c-.205.191-.32.458-.325.75-.02 1.154 1.592 2.702 2.5 3.438.907-.737 2.52-2.287 2.5-3.438Z"/></svg>