<svg xmlns="http://www.w3.org/2000/svg" data-name="Layer 1" viewBox="0 0 24 24"><path d="M15.756 9.069A1.998 1.998 0 0 0 13.968 8H9.136l1.955-8H8.614L.336 12.85a1.983 1.983 0 0 0-.092 2.065A2.053 2.053 0 0 0 2.054 16h4.639l-2.115 8h2.484l8.597-12.85a2 2 0 0 0 .097-2.081Zm-.929 1.526L6.528 22.999h-.651l2.115-8H2.054c-.394 0-.741-.209-.929-.558a1.003 1.003 0 0 1 .048-1.046L9.159 1h.659L7.863 9h6.105c.386 0 .725.203.907.542.182.34.164.734-.048 1.054Zm7.838 13.404h1.046l-3.143-10.072c-.298-.556-.894-.912-1.556-.928h-.026a1.809 1.809 0 0 0-1.485.881l-3.208 10.119h1.047l.948-3h5.443l.934 3Zm-6.061-4 1.788-5.657a.802.802 0 0 1 .609-.343c.297.012.558.163.648.312l1.771 5.688h-4.816Z"/></svg>