<svg xmlns="http://www.w3.org/2000/svg" width="512" height="512" data-name="Layer 1" viewBox="0 0 24 24"><path d="M18 24h-7.431S11 22.692 11 21.5c0-1.379-1.122-2.5-2.5-2.5S6 20.121 6 21.5c0 1.013.431 2.5.431 2.5H0V8.5C0 7.121 1.122 6 2.5 6h2.909C5.156 5.032 5 4.097 5 3.5 5 1.57 6.57 0 8.5 0S12 1.57 12 3.5c0 .597-.155 1.532-.409 2.5H15.5C16.878 6 18 7.121 18 8.5v2.909c.969-.254 1.904-.409 2.5-.409 1.93 0 3.5 1.57 3.5 3.5S22.43 18 20.5 18c-.596 0-1.531-.155-2.5-.409V24Zm-6.18-1H17v-6.743s2.103.743 3.5.743c1.378 0 2.5-1.121 2.5-2.5S21.878 12 20.5 12c-1.064 0-3.5.743-3.5.743V8.5c0-.827-.673-1.5-1.5-1.5h-5.244S11 4.667 11 3.5C11 2.121 9.878 1 8.5 1S6 2.121 6 3.5c0 1.218.744 3.5.744 3.5H2.5C1.673 7 1 7.673 1 8.5V23h4.18c-.116-.595-.18-1.123-.18-1.5C5 19.57 6.57 18 8.5 18s3.5 1.57 3.5 3.5c0 .377-.064.905-.18 1.5Z"/></svg>