<svg xmlns="http://www.w3.org/2000/svg" width="512" height="512" data-name="Layer 1" viewBox="0 0 24 24"><path d="M21.5 0h-19A2.503 2.503 0 0 0 0 2.5V24h24V2.5C24 1.122 22.879 0 21.5 0ZM23 23H1V2.5C1 1.673 1.673 1 2.5 1h19c.827 0 1.5.673 1.5 1.5V23Zm-11.5-6v-5.252l-5.054-3.85.605-.796 4.948 3.77 4.948-3.77.605.796-5.054 3.85V17h-1Zm4.5 0c0 2.206-1.794 4-4 4s-4-1.794-4-4c0-1.474.81-2.75 2-3.444v1.224c-.609.549-1 1.337-1 2.22 0 1.654 1.346 3 3 3s3-1.346 3-3c0-.883-.391-1.67-1-2.22v-1.224c1.19.694 2 1.97 2 3.444Zm4.133-11.952a4.004 4.004 0 0 1-.687 5.615c-1.161.908-2.665 1.056-3.945.546l.964-.754a2.985 2.985 0 0 0 2.365-.58c1.303-1.019 1.534-2.908.515-4.211s-2.908-1.534-4.211-.515a2.979 2.979 0 0 0-1.132 2.155l-.964.754c-.187-1.365.319-2.789 1.48-3.697a4.005 4.005 0 0 1 5.615.686ZM8.479 11.195c-1.28.51-2.784.362-3.945-.546a4.005 4.005 0 0 1-.687-5.615 4.005 4.005 0 0 1 5.615-.687c1.161.908 1.667 2.332 1.48 3.697l-.964-.754a2.982 2.982 0 0 0-1.132-2.155 3.003 3.003 0 0 0-4.211.515 3.003 3.003 0 0 0 .515 4.211 2.985 2.985 0 0 0 2.365.58l.964.754Z"/></svg>