<svg xmlns="http://www.w3.org/2000/svg" width="512" height="512" data-name="Layer 1" viewBox="0 0 24 24"><path d="M19.5 0C17.02 0 15 2.02 15 4.5V5H2v5h1V6h3v4h1V6h8v.5c0 2.48 2.02 4.5 4.5 4.5S24 8.98 24 6.5v-2C24 2.02 21.98 0 19.5 0ZM23 6.5c0 1.93-1.57 3.5-3.5 3.5S16 8.43 16 6.5v-2C16 2.57 17.57 1 19.5 1S23 2.57 23 4.5v2ZM21 18h-3v-4h-1v4H9v-.5C9 15.02 6.98 13 4.5 13S0 15.02 0 17.5v2C0 21.98 2.02 24 4.5 24S9 21.98 9 19.5V19h13v-5h-1v4ZM8 19.5C8 21.43 6.43 23 4.5 23S1 21.43 1 19.5v-2C1 15.57 2.57 14 4.5 14S8 15.57 8 17.5v2Z"/></svg>