<svg xmlns="http://www.w3.org/2000/svg" width="512" height="512" data-name="Layer 1" viewBox="0 0 24 24"><path d="M2.73 14.207 14.207 2.73l-.354-.354C10.689-.787 5.541-.787 2.377 2.377.844 3.909 0 5.947 0 8.115s.844 4.206 2.377 5.738l.354.354Zm.354-11.123a7.092 7.092 0 0 1 5.031-2.08c1.666 0 3.332.579 4.666 1.739L2.743 12.781A7.067 7.067 0 0 1 1 8.115c0-1.9.74-3.688 2.084-5.031ZM3 20a1 1 0 1 1-2 0 1 1 0 0 1 2 0Zm11-8a1 1 0 1 1-2 0 1 1 0 0 1 2 0Zm6-9a1 1 0 1 1 2 0 1 1 0 0 1-2 0Zm3.354 3.713c-1.532 1.532-3.143 2.298-4.752 2.298s-3.22-.766-4.752-2.298l.707-.707c1.846 1.845 4.746 3.343 8.09 0l.707.707ZM9.858 17.403c.482 2.044-.239 4.045-2.145 5.95l-.707-.707c1.644-1.644 2.275-3.33 1.878-5.013-.246-1.042-.877-2.077-1.878-3.077l.707-.707c1.134 1.133 1.855 2.329 2.145 3.554Zm8.139 1.916c.059 1.405-.556 2.763-1.828 4.034l-.707-.707c1.065-1.065 1.582-2.171 1.536-3.285-.073-1.748-1.491-2.968-1.505-2.979l.646-.764c.072.062 1.768 1.52 1.858 3.701ZM23.001 14a1 1 0 1 1 0 2 1 1 0 0 1 0-2Zm1 9a1 1 0 1 1-2 0 1 1 0 0 1 2 0Z"/></svg>