<svg xmlns="http://www.w3.org/2000/svg" data-name="Layer 1" viewBox="0 0 24 24"><path d="M9 12.535V19H8v-7.464l1 1ZM17.5 23h-11c-.827 0-1.5-.673-1.5-1.5V8.536l-1-1V21.5C4 22.879 5.121 24 6.5 24h11c.808 0 1.52-.391 1.977-.988l-.713-.713c-.266.42-.732.701-1.264.701Zm-6-7.965V19h1v-2.965l-1-1Zm12.454 8.211-.707.707L.046.754.753.047 4.706 4h2.293V2.5c0-1.379 1.122-2.5 2.5-2.5h5c1.378 0 2.5 1.121 2.5 2.5V4h5v1h-2v14.293l3.954 3.953ZM8 4h8V2.5c0-.827-.673-1.5-1.5-1.5h-5C8.673 1 8 1.673 8 2.5V4ZM5.707 5l5.793 5.793V9h1v2.793l2.5 2.5V9h1v6.293l3 3V5H5.707Z"/></svg>