<svg xmlns="http://www.w3.org/2000/svg" width="512" height="512" data-name="Layer 1" viewBox="0 0 24 24"><path d="m12 23.12-.29-.2C11.23 22.59 0 14.72 0 7.77 0 4.04 2.8 1 6.25 1 8.79 1 11.04 2.8 12 5.31 12.96 2.81 15.21 1 17.75 1 21.2 1 24 4.04 24 7.77c0 6.95-11.24 14.82-11.71 15.15l-.29.2ZM6.25 2C3.4 2 1 4.64 1 7.77c0 5.85 9.25 12.85 11 14.13 1.75-1.28 11-8.28 11-14.13C23 4.64 20.6 2 17.75 2S12.5 4.8 12.5 8v.21L10.71 10l4 4-3.35 3.35-.71-.71 2.65-2.65-4-4 2.2-2.2c-.1-3.11-2.51-5.8-5.25-5.8Z"/></svg>