<svg xmlns="http://www.w3.org/2000/svg" width="512" height="512" data-name="Layer 1" viewBox="0 0 24 24"><path d="m23.64 8.48.36-.1V4.5A2.5 2.5 0 0 0 21.5 2h-19A2.5 2.5 0 0 0 0 4.5v3.87l.36.11C.43 8.5 2 8.99 2 10.5s-1.57 2-1.64 2.02l-.36.1V22h24v-9.37l-.36-.11c-.07-.02-1.64-.51-1.64-2.02s1.57-2 1.64-2.02ZM20 21v-2h-1v2h-4v-2h-1v2h-4v-2H9v2H5v-2H4v2H1v-3h22v3h-3Zm3-7.65V17H1v-3.65c.84-.37 2-1.27 2-2.85S1.84 8.02 1 7.65V4.5C1 3.67 1.67 3 2.5 3h19c.83 0 1.5.67 1.5 1.5v3.15c-.84.37-2 1.27-2 2.85s1.16 2.48 2 2.85ZM11.5 6h1v9h-1V6ZM6 6h1v9H6V6Zm11 0h1v9h-1V6Z"/></svg>