<svg xmlns="http://www.w3.org/2000/svg" width="512" height="512" data-name="Layer 1" viewBox="0 0 24 24"><path d="M24 3.5C24 1.57 22.43 0 20.5 0S17 1.57 17 3.5a3.505 3.505 0 0 0 3 3.464V9.5c0 .827-.673 1.5-1.5 1.5H14c-.817 0-1.544.394-2 1.002A2.497 2.497 0 0 0 10 11H5.5C4.673 11 4 10.327 4 9.5V6.964A3.505 3.505 0 0 0 7 3.5C7 1.57 5.43 0 3.5 0S0 1.57 0 3.5a3.505 3.505 0 0 0 3 3.464V9.5C3 10.878 4.122 12 5.5 12H10c.827 0 1.5.673 1.5 1.5v3.536a3.505 3.505 0 0 0-3 3.464c0 1.93 1.57 3.5 3.5 3.5s3.5-1.57 3.5-3.5a3.505 3.505 0 0 0-3-3.464V13.5c0-.827.673-1.5 1.5-1.5h4.5c1.379 0 2.5-1.122 2.5-2.5V6.964A3.505 3.505 0 0 0 24 3.5Zm-23 0C1 2.122 2.122 1 3.5 1S6 2.122 6 3.5 4.878 6 3.5 6 1 4.878 1 3.5Zm13.5 17c0 1.378-1.121 2.5-2.5 2.5s-2.5-1.122-2.5-2.5S10.622 18 12 18s2.5 1.122 2.5 2.5Zm6-14.5C19.121 6 18 4.878 18 3.5S19.121 1 20.5 1 23 2.122 23 3.5 21.879 6 20.5 6Z"/></svg>