<svg xmlns="http://www.w3.org/2000/svg" width="512" height="512" data-name="Layer 1" viewBox="0 0 24 24"><path d="M9.961 3H2V2h7.961c.811 0 1.575.396 2.044 1.059v.002L18.334 12h-1.226l-3.823-5.401L5.568 12H3.823l8.883-6.218-1.517-2.143A1.5 1.5 0 0 0 9.961 3ZM17 5.5C17 4.122 18.121 3 19.5 3S22 4.122 22 5.5 20.879 8 19.5 8 17 6.878 17 5.5Zm1 0c0 .827.673 1.5 1.5 1.5S21 6.327 21 5.5 20.327 4 19.5 4 18 4.673 18 5.5ZM5 15.935C5.683 17.165 6.996 18 8.5 18s2.817-.834 3.5-2.065c.683 1.23 1.996 2.065 3.5 2.065s2.817-.834 3.5-2.065a4.004 4.004 0 0 0 4.98 1.782l-.371-.929A3.004 3.004 0 0 1 19.5 14h-1c0 1.654-1.346 3-3 3s-3-1.346-3-3h-1c0 1.654-1.346 3-3 3s-3-1.346-3-3h-1a3.004 3.004 0 0 1-4.104 2.791l-.367.93A4.002 4.002 0 0 0 5 15.935ZM22.5 23c-1.654 0-3-1.346-3-3h-1c0 1.654-1.346 3-3 3s-3-1.346-3-3h-1c0 1.654-1.346 3-3 3s-3-1.346-3-3h-1a3.004 3.004 0 0 1-4.107 2.789l-.369.93a4.002 4.002 0 0 0 4.977-1.784C5.684 23.165 6.997 24 8.501 24s2.817-.834 3.5-2.065c.683 1.23 1.996 2.065 3.5 2.065s2.817-.834 3.5-2.065a4.004 4.004 0 0 0 4.977 1.784l-.369-.93c-.352.14-.725.211-1.107.211Z"/></svg>