<svg xmlns="http://www.w3.org/2000/svg" width="512" height="512" data-name="Layer 1" viewBox="0 0 24 24"><path d="M9 16H7v-1h2v1Zm4-1h-2v1h2v-1Zm-6 5h10v-1H7v1Zm8-4h2v-1h-2v1Zm9-6h-2v11.5c0 1.379-1.121 2.5-2.5 2.5h-15A2.502 2.502 0 0 1 2 21.5V10H0V9h2V7h2V2.5C4 1.121 5.121 0 6.5 0h11C18.879 0 20 1.121 20 2.5V7h2v2h2v1ZM5 7h5v1H8.5C7.673 8 7 8.673 7 9.5S7.673 11 8.5 11h7c.827 0 1.5-.673 1.5-1.5S16.327 8 15.5 8H14V7h5V2.5c0-.827-.673-1.5-1.5-1.5h-11C5.673 1 5 1.673 5 2.5V7Zm16 1h-3.512c.317.419.512.935.512 1.5 0 1.379-1.121 2.5-2.5 2.5h-7A2.502 2.502 0 0 1 6 9.5c0-.565.195-1.081.512-1.5H3v13.5c0 .827.673 1.5 1.5 1.5h15c.827 0 1.5-.673 1.5-1.5V8Z"/></svg>