<svg xmlns="http://www.w3.org/2000/svg" width="512" height="512" data-name="Layer 1" viewBox="0 0 24 24"><path d="M24 12.149c0-.484-.078-.963-.231-1.423L22.43 6.709A2.497 2.497 0 0 0 20.058 5h-3.059V3.5c0-1.378-1.122-2.5-2.5-2.5H2.5A2.503 2.503 0 0 0 0 3.5V20a3 3 0 0 0 5.5 1.656A3 3 0 0 0 11 20v-1h5v1c0 1.654 1.346 3 3 3s3-1.346 3-3v-1h2v-6.851ZM20.059 6c.646 0 1.218.412 1.423 1.026L22.806 11H17V6h3.059ZM1 3.5C1 2.673 1.673 2 2.5 2h12c.827 0 1.5.673 1.5 1.5V18H1V3.5ZM3 22c-1.103 0-2-.897-2-2v-1h4v1c0 1.103-.897 2-2 2Zm7-2c0 1.103-.897 2-2 2s-2-.897-2-2v-1h4v1Zm11 0c0 1.103-.897 2-2 2s-2-.897-2-2v-1h4v1Zm2-2h-6v-6h5.997c.002.05.003.099.003.149V18Z"/></svg>