<svg xmlns="http://www.w3.org/2000/svg" width="512" height="512" data-name="Layer 1" viewBox="0 0 24 24"><path d="M4.5 5a2.5 2.5 0 0 0 0-5 2.5 2.5 0 0 0 0 5Zm0-4C5.33 1 6 1.67 6 2.5S5.33 4 4.5 4 3 3.33 3 2.5 3.67 1 4.5 1Zm2 5h-4A2.5 2.5 0 0 0 0 8.5V17h2v7h1v-7h3v7h1v-7h2V8.5A2.5 2.5 0 0 0 6.5 6ZM8 16H1V8.5C1 7.67 1.67 7 2.5 7h4C7.33 7 8 7.67 8 8.5V16ZM18.5 5a2.5 2.5 0 0 0 0-5 2.5 2.5 0 0 0 0 5Zm0-4c.83 0 1.5.67 1.5 1.5S19.33 4 18.5 4 17 3.33 17 2.5 17.67 1 18.5 1Zm5.47 19L21.8 8.05A2.498 2.498 0 0 0 19.34 6h-1.66c-1.21 0-2.24.86-2.46 2.05L13.05 20h2.96v4h1v-4h3v4h1v-4h2.97ZM16.2 8.23c.13-.71.75-1.23 1.48-1.23h1.66c.73 0 1.35.52 1.48 1.23L22.78 19h-8.54l1.95-10.77Z"/></svg>