<svg xmlns="http://www.w3.org/2000/svg" width="512" height="512" data-name="Layer 1" viewBox="0 0 24 24"><path d="M23.065.935C22.02-.11 20.124-.285 17.724.442c-1.954.592-3.937 1.694-5.052 2.81a5.673 5.673 0 0 0-1.673 4.038c0 1.358.471 2.642 1.335 3.669L.007 23.286l.707.707 12.328-12.328A5.668 5.668 0 0 0 16.711 13a5.673 5.673 0 0 0 4.038-1.673c1.115-1.115 2.218-3.098 2.81-5.052.727-2.399.552-4.296-.493-5.341Zm-.464 5.052c-.539 1.779-1.567 3.642-2.56 4.634-.89.89-2.073 1.38-3.331 1.38s-2.441-.49-3.331-1.38-1.38-2.073-1.38-3.331.49-2.441 1.38-3.331c.992-.992 2.854-2.021 4.634-2.56.88-.267 1.678-.398 2.361-.398.872 0 1.558.216 1.983.642.76.761.849 2.344.243 4.345Z"/></svg>