<svg xmlns="http://www.w3.org/2000/svg" width="512" height="512" data-name="Layer 1" viewBox="0 0 24 24"><path d="M10 4a4.965 4.965 0 0 0-3.535 1.465C5.521 6.409 5 7.664 5 9s.521 2.591 1.469 3.539L10 15.993l3.535-3.458C14.479 11.591 15 10.336 15 9s-.521-2.591-1.465-3.535S11.335 4 10 4Zm2.832 7.824L10 14.595l-2.828-2.767C6.416 11.073 6 10.068 6 9s.416-2.073 1.172-2.828C7.927 5.416 8.932 5 10 5s2.072.416 2.828 1.172C13.584 6.927 14 7.932 14 9s-.416 2.073-1.168 2.824ZM11 8.993a1 1 0 1 1-2 0 1 1 0 0 1 2 0Zm13.001 14.3-6.597-6.597A9.949 9.949 0 0 0 20 9.999C20 4.486 15.514 0 10 0S0 4.486 0 10s4.486 10 10 10a9.949 9.949 0 0 0 6.697-2.596l6.597 6.597.707-.707ZM1 10c0-4.963 4.037-9 9-9s9 4.037 9 9-4.037 9-9 9-9-4.037-9-9Z"/></svg>