<svg xmlns="http://www.w3.org/2000/svg" width="512" height="512" data-name="Layer 1" viewBox="0 0 24 24"><path d="M13.676 3.946c1.038-.979 2.663-1.217 3.94-.579L20.882 5H24V4h-2.882l-3.055-1.527c-1.644-.821-3.736-.515-5.074.747l-.951.901-1.045-.952a4.491 4.491 0 0 0-3.054-1.168c-.691 0-1.385.164-2.003.473l-1.838.919L.754.046.047.753l23.199 23.201.707-.707-5.334-5.334 2.548-1.912H24v-1h-3.078l-6.451-6.343 1.415-1.362-.693-.721-4.03 3.881-2.118-2.118 4.631-4.392Zm-7.292-.579c1.207-.604 2.87-.431 3.936.54l.991.903-2.974 2.819-3.492-3.492 1.539-.77Zm7.367 5.984 6.325 6.218-2.17 1.629-6.036-6.036 1.881-1.811ZM1.465 5H0V4h.465l1 1Zm14.017 14.018.714.714L12 22.882 2.833 16H0v-1h3.167L12 21.631l3.482-2.614Z"/></svg>