<svg xmlns="http://www.w3.org/2000/svg" data-name="Layer 1" viewBox="0 0 24 24"><path d="M22.968 7.866 13.658.572a2.682 2.682 0 0 0-3.316 0L1.033 7.866A2.676 2.676 0 0 0 0 9.987V24h24V9.987c0-.834-.376-1.607-1.032-2.121ZM23 23H1V9.987c0-.525.236-1.011.649-1.333l9.31-7.295a1.685 1.685 0 0 1 2.082 0l9.311 7.294c.412.322.648.808.648 1.333v13.013ZM14.48 9c-1.08 0-1.977.479-2.5 1.254C11.457 9.48 10.56 9 9.48 9c-1.654 0-3 1.436-3 3.2 0 3.054 5.002 6.562 5.215 6.71l.285.198.285-.198c.213-.148 5.215-3.656 5.215-6.71 0-1.765-1.346-3.2-3-3.2Zm-2.5 8.885c-1.48-1.09-4.5-3.719-4.5-5.685 0-1.213.897-2.2 2-2.2 1.178 0 2.021.875 2.021 2.026h1v-.304h-.01c.103-1.025.891-1.722 1.988-1.722 1.103 0 2 .987 2 2.2 0 1.965-3.02 4.595-4.5 5.685Z"/></svg>