<svg xmlns="http://www.w3.org/2000/svg" width="512" height="512" data-name="Layer 1" viewBox="0 0 24 24"><path d="M12.5 13h-1V3h1v10Zm-.5 4a1 1 0 1 0 0-2 1 1 0 0 0 0 2Zm12-4.5c0-3.812-1.63-6.524-2.603-7.803C20.536 3.563 20 1.763 20 0h-1c0 2.002.599 3.984 1.602 5.303A11.947 11.947 0 0 1 23 12.5c0 5.151-3.936 8.023-4.648 8.5H5.648C4.936 20.523 1 17.651 1 12.5c0-3.518 1.502-6.02 2.397-7.197C4.401 3.985 5 2.002 5 0H4c0 1.764-.536 3.563-1.398 4.697A12.953 12.953 0 0 0 0 12.5c0 5.51 3.956 8.563 5 9.272V24h1v-2h3v2h1v-2h4v2h1v-2h3v2h1v-2.228c1.044-.708 5-3.761 5-9.272Z"/></svg>