<svg xmlns="http://www.w3.org/2000/svg" width="512" height="512" data-name="Layer 1" viewBox="0 0 24 24"><path d="M4 24H3v-9.36L.74 16.96l-.71-.69L3.21 13h.8v11ZM8 7V4c0-2.21-1.79-4-4-4S0 1.79 0 4v3c0 2.21 1.79 4 4 4s4-1.79 4-4ZM7 4v3c0 1.65-1.35 3-3 3S1 8.65 1 7V4c0-1.65 1.35-3 3-3s3 1.35 3 3Zm17 13.5c0-3.58-2.92-6.5-6.5-6.5S11 13.92 11 17.5s2.92 6.5 6.5 6.5 6.5-2.92 6.5-6.5Zm-1 0c0 3.03-2.47 5.5-5.5 5.5S12 20.53 12 17.5s2.47-5.5 5.5-5.5 5.5 2.47 5.5 5.5Zm-5.07 2.06L21.49 16l-.71-.71-3.56 3.56c-.2.2-.51.19-.71 0l-2.17-2.17-.71.71 2.17 2.17c.29.29.68.44 1.06.44s.77-.15 1.06-.44ZM14 1.64v8.12c.32-.15.66-.28 1-.39V0h-.8l-3.18 3.27.72.7L14 1.65Zm-3.17 21.12A2.995 2.995 0 0 1 9 20v-3c0-.25.04-.49.1-.72.14-.96.43-1.87.87-2.7-1.17.7-1.96 1.96-1.96 3.42v3c0 2.21 1.79 4 4 4h.03c-.44-.37-.84-.78-1.19-1.23Z"/></svg>