<svg xmlns="http://www.w3.org/2000/svg" width="512" height="512" data-name="Layer 1" viewBox="0 0 24 24"><path d="M13.006.045C9.882-.231 6.889.773 4.583 2.883A11.028 11.028 0 0 0 1 11v6.52c0 1.379 1.122 2.5 2.5 2.5l1.5-.015V24h14v-3.995l1.5.015c1.378 0 2.5-1.121 2.5-2.5v-6.165C23 5.514 18.61.546 13.006.045ZM22 17.52a1.5 1.5 0 0 1-1.495 1.5L18 18.996v4.005h-2v-2h-1v2h-2.5v-2h-1v2H9v-2H8v2H6v-4.005l-2.502.024A1.501 1.501 0 0 1 2 17.52V11c0-2.796 1.188-5.486 3.258-7.379a9.889 9.889 0 0 1 7.66-2.58c5.093.455 9.083 4.985 9.083 10.313v6.165ZM7.5 8C6.122 8 5 9.121 5 10.5S6.122 13 7.5 13s2.5-1.121 2.5-2.5S8.878 8 7.5 8Zm0 4c-.827 0-1.5-.673-1.5-1.5S6.673 9 7.5 9 9 9.673 9 10.5 8.327 12 7.5 12Zm9-4C15.122 8 14 9.121 14 10.5s1.122 2.5 2.5 2.5 2.5-1.121 2.5-2.5S17.878 8 16.5 8Zm0 4c-.827 0-1.5-.673-1.5-1.5S15.673 9 16.5 9s1.5.673 1.5 1.5-.673 1.5-1.5 1.5ZM12 14c-1.526 0-2.5 2.298-2.5 3.5 0 .458.129.818.383 1.07.445.441 1.553.43 2.117.43s1.721-.037 2.117-.43c.254-.252.383-.612.383-1.07 0-1.202-.974-3.5-2.5-3.5Zm1.412 3.86C13.263 18.008 12 18 12 18s-1.262.009-1.412-.14c-.073-.071-.088-.235-.088-.36 0-.987.805-2.5 1.5-2.5s1.5 1.513 1.5 2.5c0 .125-.015.289-.088.36Z"/></svg>