<svg xmlns="http://www.w3.org/2000/svg" width="512" height="512" data-name="Layer 1" viewBox="0 0 24 24"><path d="M20.917 3.75a16.562 16.562 0 0 0 2.768-.786l-.371-.928c-.022.008-2.116.834-4.314.95V0h-1v2.986c-2.198-.116-4.292-.942-4.314-.95l-.371.928c.069.028 1.16.459 2.622.757a4.588 4.588 0 0 0-2.091 3.297c-.094.746-.373 1.746-.705 2.131-1.484 1.72-3.833 1.859-6.525 1.859-3.709 0-6.615 2.868-6.615 6.53C.001 21.161 2.919 24 6.644 24c10.395 0 16.357-5.979 16.357-16.404 0-1.607-.83-3.024-2.083-3.846ZM6.643 23C3.478 23 1 20.601 1 17.538c0-3.102 2.466-5.53 5.615-5.53 2.834 0 5.524-.169 7.282-2.206.689-.798.917-2.471.94-2.659a3.599 3.599 0 0 1 3.162-3.119V7h1V4.05c1.7.285 3 1.766 3 3.546C21.999 17.386 16.402 23 6.642 23Z"/></svg>