<svg xmlns="http://www.w3.org/2000/svg" width="512" height="512" data-name="Layer 1" viewBox="0 0 24 24"><path d="M10.967 24H7.419l3.039-9h-4.42l-1.232 1.879A2.493 2.493 0 0 1 2.721 18H.102l1.997-6L.087 6h2.621c.841 0 1.62.418 2.084 1.12L6.037 9h4.421L7.419 0h3.548c.915 0 1.756.5 2.194 1.303L17.448 9h3.418c1.531 0 2.861 1.075 3.093 2.5.144.881-.102 1.771-.673 2.443S21.882 15 21 15h-3.552l-4.289 7.701A2.497 2.497 0 0 1 10.967 24Zm-2.155-1h2.155a1.5 1.5 0 0 0 1.317-.782L16.86 14H21c.588 0 1.144-.257 1.524-.705a1.988 1.988 0 0 0 .448-1.635c-.154-.946-1.06-1.66-2.106-1.66H16.86l-4.574-8.214A1.504 1.504 0 0 0 10.967 1H8.812l3.039 9H5.5L3.958 7.671A1.495 1.495 0 0 0 2.708 7h-1.23l1.676 5-1.665 5h1.232c.504 0 .972-.251 1.25-.671L5.499 14h6.352l-3.039 9Z"/></svg>