<svg xmlns="http://www.w3.org/2000/svg" width="512" height="512" data-name="Layer 1" viewBox="0 0 24 24"><path d="M19.791.023 12.5 1.911V0h-1v2.171L4.135 4.078.039 13.806 0 14.5C0 16.981 2.019 19 4.5 19S9 16.981 9 14.5V14L5.183 4.839 11.5 3.203V23H4v1h16v-1h-7.5V2.945l6.09-1.577-3.55 8.439-.039.694c0 2.481 2.019 4.5 4.5 4.5s4.5-2.019 4.5-4.5v-.5L19.791.023ZM4.5 18a3.505 3.505 0 0 1-3.464-3h6.928A3.505 3.505 0 0 1 4.5 18Zm-3.458-4L4.5 5.788 7.958 14H1.042ZM19.477 1.836 22.956 10h-6.914l3.435-8.164ZM19.5 14a3.505 3.505 0 0 1-3.464-3h6.929a3.505 3.505 0 0 1-3.464 3Z"/></svg>