<svg xmlns="http://www.w3.org/2000/svg" width="512" height="512" data-name="Layer 1" viewBox="0 0 24 24"><path d="M21.12 1.6a2.5 2.5 0 0 0-2.04-.56C17.89 1.23 17 2.34 17 3.61V8.5c-.42-.31-.94-.5-1.5-.5-.82 0-1.54.39-2 1-.46-.61-1.18-1-2-1-.56 0-1.08.19-1.5.5V2.61C10 1.33 9.1.23 7.92.03c-.73-.12-1.47.09-2.04.56-.56.48-.88 1.17-.88 1.9v8.01h.01c-.11.08-.22.17-.32.27L1.7 14.52c-.93 1.12-.92 2.56.03 3.5l6.06 5.97H22V3.5c0-.73-.32-1.43-.88-1.9ZM15.5 9c.83 0 1.5.67 1.5 1.5v2c0 .83-.67 1.5-1.5 1.5s-1.5-.67-1.5-1.5v-2c0-.83.67-1.5 1.5-1.5Zm-4 0c.83 0 1.5.67 1.5 1.5v2c0 .83-.67 1.5-1.5 1.5s-1.5-.67-1.5-1.5v-2c0-.83.67-1.5 1.5-1.5ZM21 23H8.21l-5.77-5.68c-.58-.58-.56-1.44.04-2.16l2.96-3.72c.57-.57 1.55-.57 2.12 0 .28.28.44.66.44 1.06s-.16.78-.48 1.11L5.11 16.7l.79.62 2.37-3.04c.47-.47.73-1.1.73-1.77s-.26-1.3-.73-1.77c-.6-.6-1.46-.83-2.27-.67V2.5c0-.44.19-.86.53-1.14.34-.29.78-.41 1.23-.34.71.12 1.24.8 1.24 1.59v9.89a2.5 2.5 0 0 0 4.5 1.5 2.5 2.5 0 0 0 4.5-1.5V3.61c0-.79.54-1.47 1.24-1.59.45-.08.89.05 1.23.34.34.29.53.7.53 1.14V23Z"/></svg>