<svg xmlns="http://www.w3.org/2000/svg" width="512" height="512" data-name="Layer 1" viewBox="0 0 24 24"><path d="M14 5.29A7.008 7.008 0 0 0 5 12c0 3.86 3.14 7 7 7a7.008 7.008 0 0 0 6.71-9h1.04c.17.64.25 1.31.25 2 0 4.41-3.59 8-8 8s-8-3.59-8-8 3.59-8 8-8c.69 0 1.36.09 2 .25v1.04Zm-2.6 3.77 1.04-1.04C12.3 8 12.15 8 12 8c-2.21 0-4 1.79-4 4s1.79 4 4 4 4-1.79 4-4c0-.15 0-.3-.02-.44l-1.04 1.04A3.003 3.003 0 0 1 12 15c-1.65 0-3-1.35-3-3 0-1.45 1.03-2.66 2.4-2.94Zm11.17-.09c.28.96.43 1.98.43 3.03 0 6.07-4.93 11-11 11S1 18.07 1 12 5.93 1 12 1c1.05 0 2.07.15 3.03.43l.79-.8C14.62.22 13.33 0 11.99 0 5.38 0 0 5.38 0 12s5.38 12 12 12 12-5.38 12-12c0-1.34-.22-2.62-.62-3.82l-.8.79ZM24 4v.71L20.71 8h-4l-4.35 4.35-.71-.71L16 7.29v-4L19.25 0H20v4h4Zm-1.67 1H19V1.68l-2 2.03V7h3.29l2.03-2Z"/></svg>