<svg xmlns="http://www.w3.org/2000/svg" width="512" height="512" data-name="Layer 1" viewBox="0 0 24 24"><path d="M21.5 9h-10A2.503 2.503 0 0 0 9 11.5V24h15V11.5c0-1.379-1.121-2.5-2.5-2.5ZM23 23H10V11.5c0-.827.673-1.5 1.5-1.5h10c.827 0 1.5.673 1.5 1.5V23Zm-8-9a1 1 0 1 1-2 0 1 1 0 0 1 2 0Zm5 5a1 1 0 1 1-2 0 1 1 0 0 1 2 0ZM10.707 5.293a.999.999 0 1 1-1.414 1.414.999.999 0 1 1 1.414-1.414Zm-4 4a.999.999 0 1 1-1.414 1.414.999.999 0 1 1 1.414-1.414ZM8.54 1.469 1.469 8.54a1.501 1.501 0 0 0 0 2.121L7 16.192v1.414L.762 11.368a2.502 2.502 0 0 1 0-3.535L7.833.762c.943-.945 2.592-.945 3.535 0L17.606 7h-1.414l-5.531-5.531c-.566-.566-1.555-.566-2.121 0Z"/></svg>