<svg xmlns="http://www.w3.org/2000/svg" width="512" height="512" data-name="Layer 1" viewBox="0 0 24 24"><path d="m17.528 13.837-3.377 3.376c-3.396-1.381-5.87-3.857-7.36-7.369l3.372-3.373L4.484.793 1.606 3.672C.57 4.705 0 6.104 0 7.613c0 7.198 9.188 16.386 16.387 16.386 1.508 0 2.908-.57 3.941-1.604l2.879-2.879-5.679-5.679Zm2.093 7.851c-.845.846-1.993 1.312-3.234 1.312C9.771 23 1 14.229 1 7.614c0-1.242.466-2.39 1.312-3.234l2.172-2.172 4.265 4.265-3.135 3.135.123.307c1.625 4.046 4.437 6.856 8.357 8.353l.303.115 3.131-3.13 4.265 4.265-2.172 2.172ZM22 8h-1V0h1v8Zm-4 0h-1V0h1v8Z"/></svg>