<svg xmlns="http://www.w3.org/2000/svg" width="512" height="512" data-name="Layer 1" viewBox="0 0 24 24"><path d="M17.5 11c-3.584 0-6.5 2.916-6.5 6.5s2.916 6.5 6.5 6.5 6.5-2.916 6.5-6.5-2.916-6.5-6.5-6.5ZM12 17.5c0-3.032 2.468-5.5 5.5-5.5 1.337 0 2.563.48 3.517 1.276l-7.742 7.742a5.474 5.474 0 0 1-1.276-3.517Zm5.5 5.5a5.472 5.472 0 0 1-3.517-1.276l7.742-7.742a5.474 5.474 0 0 1 1.276 3.517c0 3.032-2.468 5.5-5.5 5.5Zm-6.474 0H4.5c-.827 0-1.5-.673-1.5-1.5V18h4v-1H3v-3h4v-1H3v-3h4V9H3V5h16v4.14c.34.061.675.135 1 .235V5h2V2.5C22 1.121 20.879 0 19.5 0h-17A2.502 2.502 0 0 0 0 2.5V5h2v16.5C2 22.879 3.121 24 4.5 24h7.528a8.611 8.611 0 0 1-1.003-1ZM1 2.5C1 1.673 1.673 1 2.5 1h17c.827 0 1.5.673 1.5 1.5V4H1V2.5Z"/></svg>