<svg xmlns="http://www.w3.org/2000/svg" width="512" height="512" data-name="Layer 1" viewBox="0 0 24 24"><path d="M22.631 15.638c.243.504.369 1.054.369 1.612 0 2.068-1.682 3.75-3.75 3.75a3.754 3.754 0 0 1-3.706-4.311L12 15.671l-3.544 1.018A3.754 3.754 0 0 1 4.75 21 3.754 3.754 0 0 1 1 17.25c0-.559.126-1.108.369-1.612A3.718 3.718 0 0 1 0 12.75 3.754 3.754 0 0 1 3.75 9a3.733 3.733 0 0 1 3.552 2.571l3.078-.931.289.957-4.122 1.247-.095-.558A2.74 2.74 0 0 0 3.75 10 2.752 2.752 0 0 0 1 12.75c0 .944.482 1.811 1.289 2.32l.428.27-.274.425a2.73 2.73 0 0 0-.442 1.485c0 1.517 1.233 2.75 2.75 2.75s2.75-1.233 2.75-2.75c0-.252-.039-.512-.114-.77l-.142-.483 4.756-1.366 4.756 1.366-.142.483a2.731 2.731 0 0 0-.114.77c0 1.517 1.233 2.75 2.75 2.75s2.75-1.233 2.75-2.75c0-.523-.153-1.037-.442-1.485l-.274-.425.428-.27a2.733 2.733 0 0 0 1.289-2.32 2.752 2.752 0 0 0-2.75-2.75 2.73 2.73 0 0 0-2.706 2.328l-.087.561-4.43-1.272.276-.961 3.379.971a3.717 3.717 0 0 1 3.567-2.625 3.754 3.754 0 0 1 3.75 3.75 3.72 3.72 0 0 1-1.369 2.888ZM12.5 2h-1v4h1V2Zm5.933 1.786-.866-.5-2 3.464.866.5 2-3.464Zm-10 2.964-2-3.464-.866.5 2 3.464.866-.5Z"/></svg>