<svg xmlns="http://www.w3.org/2000/svg" width="512" height="512" data-name="Layer 1" viewBox="0 0 24 24"><path d="M8 16.5v.5H7v-.5c0-.827-.673-1.5-1.5-1.5H2.363a1.364 1.364 0 0 0-.235 2.705l3.953.692A2.315 2.315 0 0 1 8 20.681a2.32 2.32 0 0 1-2.318 2.318H4.5v1h-1v-1h-1a2.503 2.503 0 0 1-2.5-2.5v-.5h1v.5c0 .827.673 1.5 1.5 1.5h3.182a1.32 1.32 0 0 0 .227-2.616l-3.953-.692A2.358 2.358 0 0 1 0 16.363 2.366 2.366 0 0 1 2.363 14H3.5v-1h1v1h1C6.879 14 8 15.122 8 16.5Zm3 3.5v-7h-1v7h1Zm10-4h3v1h-3v3h3v1h-3v3h-1v-3h-3v3h-1v-3h-3v-1h3v-3h-3v-1h3v-3h1v3h3v-3h1v3Zm-1 1h-3v3h3v-3Zm-9.5 5a1 1 0 1 0 0 2 1 1 0 0 0 0-2ZM23 12h1c0-6.617-5.383-12-12-12S0 5.383 0 12h1C1 5.935 5.935 1 12 1s11 4.935 11 11Zm-5.289-5.091-3.032 2.144a1 1 0 1 0 1.161.404l2.449-1.732-.578-.816ZM10 10a1 1 0 0 0-.795-.979L6.293 6.913l-.586.81 2.435 1.764a1 1 0 1 0 1.858.514Z"/></svg>