<svg xmlns="http://www.w3.org/2000/svg" width="512" height="512" data-name="Layer 1" viewBox="0 0 24 24"><path d="M21.5 3h-9.382l-4-2H2.5A2.502 2.502 0 0 0 0 3.5V23h6.721a8.07 8.07 0 0 1-.956-1H1V8h22v14h-4.765c-.289.36-.609.695-.956 1H24V5.5C24 4.121 22.879 3 21.5 3ZM1 7V3.5C1 2.673 1.673 2 2.5 2h5.382l4 2H21.5c.827 0 1.5.673 1.5 1.5V7H1Zm11 4c-3.309 0-6 2.691-6 6s2.691 6 6 6 6-2.691 6-6-2.691-6-6-6Zm0 11c-2.757 0-5-2.243-5-5s2.243-5 5-5 5 2.243 5 5-2.243 5-5 5Zm.5-5.207 1.354 1.354-.707.707-1.646-1.646v-3.207h1v2.793Z"/></svg>