<svg xmlns="http://www.w3.org/2000/svg" data-name="Layer 1" viewBox="0 0 24 24"><path d="m22.311 14.276-4.248-1.636 5.851-4.021-2.667-2.3L23.029.973l-5.346 1.782L15.381.087 11.36 5.938 9.724 1.69 6.955 3.86 4 1.446V5H.792l2.564 7.209-1.769 3.539 4.973.995-6.519 6.519.707.707 6.513-6.513.991 4.957 3.539-1.769L19 23.208V20h3.554l-2.414-2.955 2.17-2.769ZM20.447 19h-2.446v2.792l-6.276-2.232-2.749 1.375-.865-4.327 3.908-3.908-.707-.707-3.902 3.902-4.343-.869 1.375-2.749L2.21 6.001h2.792V3.555l1.942 1.586 2.334-1.83 1.832 4.758 4.361-6.347 1.891 2.194 4.084-1.362-1.362 4.084 2.194 1.891-6.347 4.362 4.758 1.832-1.83 2.334 1.586 1.942Z"/></svg>