<svg xmlns="http://www.w3.org/2000/svg" data-name="Layer 1" viewBox="0 0 24 24"><path d="M19.897 19.19 21.448 5H23V4h-6V2.5C17 1.121 15.878 0 14.5 0h-5A2.503 2.503 0 0 0 7 2.5V4H4.707L.753.047.046.754l23.2 23.199.707-.707-4.056-4.056ZM8 2.5C8 1.673 8.673 1 9.5 1h5c.827 0 1.5.673 1.5 1.5V4H8V2.5ZM20.442 5 18.99 18.283 5.707 5h14.736Zm-1.936 17.042.752.752A2.489 2.489 0 0 1 17.129 24H6.835c-1.281 0-2.35-.96-2.486-2.233L2.681 6.218l1.127 1.126 1.536 14.315A1.497 1.497 0 0 0 6.836 23H17.13c.63 0 1.156-.397 1.377-.958Z"/></svg>