<svg xmlns="http://www.w3.org/2000/svg" width="512" height="512" data-name="Layer 1" viewBox="0 0 24 24"><path d="M10.637 12.5A8.546 8.546 0 0 1 12 11.026V6c0-3.309-2.691-6-6-6S0 2.691 0 6v12c0 3.309 2.691 6 6 6a5.978 5.978 0 0 0 4.363-1.894 8.475 8.475 0 0 1-.524-.942C8.921 22.276 7.55 23 6 23c-2.757 0-5-2.243-5-5v-5.5h9.637ZM6 1c2.757 0 5 2.243 5 5v5.5H1V6c0-2.757 2.243-5 5-5Zm11.5 10c-3.584 0-6.5 2.916-6.5 6.5s2.916 6.5 6.5 6.5 6.5-2.916 6.5-6.5-2.916-6.5-6.5-6.5ZM12 17.5c0-3.032 2.467-5.5 5.5-5.5 1.337 0 2.563.48 3.518 1.275l-7.742 7.742a5.474 5.474 0 0 1-1.275-3.518Zm5.5 5.5a5.481 5.481 0 0 1-3.518-1.275l7.742-7.742a5.474 5.474 0 0 1 1.275 3.518c0 3.032-2.467 5.5-5.5 5.5Z"/></svg>