<svg xmlns="http://www.w3.org/2000/svg" width="512" height="512" data-name="Layer 1" viewBox="0 0 24 24"><path d="M19.5 2H19V.5a.5.5 0 0 0-1 0V2H9V.5a.5.5 0 0 0-1 0V2h-.5A4.505 4.505 0 0 0 3 6.5v10C3 18.981 5.019 21 7.5 21h12c2.481 0 4.5-2.019 4.5-4.5v-10C24 4.019 21.981 2 19.5 2Zm-12 1h12C21.43 3 23 4.57 23 6.5V7H4v-.5C4 4.57 5.57 3 7.5 3Zm12 17h-12C5.57 20 4 18.43 4 16.5V8h19v8.5c0 1.93-1.57 3.5-3.5 3.5Zm.5 3.5a.5.5 0 0 1-.5.5h-15A4.505 4.505 0 0 1 0 19.5v-12a.5.5 0 0 1 1 0v12C1 21.43 2.57 23 4.5 23h15a.5.5 0 0 1 .5.5Z"/></svg>