<svg xmlns="http://www.w3.org/2000/svg" width="512" height="512" data-name="Layer 1" viewBox="0 0 24 24"><path d="M22.97 15.331 22.851 15h-4.713l-.61-5.289.697-.113c.62-.09 1.16-.452 1.481-.991a2.07 2.07 0 0 0 .166-1.78C18.327 2.616 14.71 0 10.432 0 4.68 0 0 4.68 0 10.432c0 1.533.518 4.813.826 6.632a2.58 2.58 0 0 0 1.839 2.047c3.837 1.128 6.72 2.326 9.073 3.77l.336.206L15.161 20h2.547l.327 2.837.255.117c1.509.694 3.262 1.046 5.209 1.046h.5v-.5c0-5.254-.988-8.053-1.03-8.169Zm-.838.669c.139.485.392 1.497.59 3H18.6l-.346-3h3.878Zm-5-1h-4.057l-.239-.43a1.591 1.591 0 0 1-.151-1.157l.506-2.022a1.588 1.588 0 0 1 1.323-1.189l2.027-.329.592 5.128Zm-5.208 6.825c-2.366-1.4-5.232-2.572-8.976-3.673a1.584 1.584 0 0 1-1.135-1.255c-.303-1.788-.812-5.005-.812-6.465C1 5.231 5.231 1 10.432 1c3.848 0 7.105 2.365 8.502 6.172a1.075 1.075 0 0 1-.861 1.438l-3.711.603a2.582 2.582 0 0 0-2.141 1.936l-.506 2.022a2.58 2.58 0 0 0 .247 1.883l2.402 4.33-2.441 2.441ZM15.296 19l-1.665-3h3.617l.346 3h-2.298Zm3.669 3.158L18.716 20h4.121c.085.872.146 1.871.161 2.992-1.492-.051-2.845-.331-4.033-.833ZM10.001 16a1 1 0 1 1-2 0 1 1 0 0 1 2 0Z"/></svg>