<svg xmlns="http://www.w3.org/2000/svg" width="512" height="512" data-name="Layer 1" viewBox="0 0 24 24"><path d="m23.623 10.544-4.721-8.163A2.762 2.762 0 0 0 16.519 1H7.48c-.978 0-1.891.529-2.383 1.381l-4.72 8.163a2.806 2.806 0 0 0 .007 2.821l4.841 8.268a2.768 2.768 0 0 0 2.376 1.368H16.4c.971 0 1.881-.524 2.376-1.368l4.841-8.267c.509-.869.512-1.95.007-2.821Zm-.865.501c.083.144.145.298.185.455h-3.269l-3.501-6.02 1.624-2.921c.091.097.172.204.24.322l4.721 8.163Zm-11.583.455H5.513l2.886-4.991 2.776 4.991ZM9.26 6h5.481l-2.74 4.927L9.26 6Zm1.866 6.5L8.41 17.383 5.55 12.5h5.576Zm.875.483L14.791 18h-5.58l2.79-5.017Zm.875-.483h5.585l-2.864 4.892-2.721-4.892Zm-.05-1 2.781-5 2.891 5h-5.672ZM16.52 2c.142 0 .281.018.417.052L15.298 5H8.705l-1.64-2.948C7.2 2.018 7.34 2 7.482 2h9.039Zm-10.557.882a1.74 1.74 0 0 1 .24-.322l1.63 2.931L4.359 11.5H1.057c.04-.158.102-.311.185-.455l4.721-8.163ZM1.247 12.86a1.831 1.831 0 0 1-.16-.36h3.304l3.454 5.898L6.22 21.32a1.741 1.741 0 0 1-.132-.194L1.247 12.86ZM7.601 22c-.193 0-.383-.033-.562-.095L8.655 19h6.692l1.616 2.905A1.72 1.72 0 0 1 16.4 22H7.601Zm10.312-.874c-.04.068-.084.133-.132.194l-1.621-2.914 3.458-5.907h3.295c-.04.124-.092.245-.16.36l-4.841 8.267Z"/></svg>