<svg xmlns="http://www.w3.org/2000/svg" width="512" height="512" data-name="Layer 1" viewBox="0 0 24 24"><path d="M23.27 11.73c-.97-.97-2.56-.98-3.54 0L11 20.46V24h3.54l8.73-8.73c.47-.47.73-1.1.73-1.77s-.26-1.3-.73-1.77Zm-.71 2.83L14.12 23H12v-2.12l8.44-8.44c.58-.58 1.54-.58 2.12 0a1.499 1.499 0 0 1 0 2.12ZM1 21h8v1H0V2.5A2.5 2.5 0 0 1 2.5 0h17A2.5 2.5 0 0 1 22 2.5V9h-1V2.5c0-.83-.67-1.5-1.5-1.5h-17C1.67 1 1 1.67 1 2.5V21Zm4-4V8.21L9.21 4H4v14h6.64l1-1H5ZM5 5h1.79L5 6.79V5Zm12 0h-3.79L9 9.21V13h5v1H8V8.79L12.79 4H18v6.64l-1 1V5Z"/></svg>