<svg xmlns="http://www.w3.org/2000/svg" width="512" height="512" data-name="Layer 1" viewBox="0 0 24 24"><path d="M24 23H14v-8H6.5a2.5 2.5 0 0 1-2.47-2.92C4.22 10.89 5.33 10 6.6 10h3.39c.56 0 1.1-.24 1.48-.66.38-.42.56-.97.51-1.55-.1-1-1.04-1.79-2.13-1.79H2.5c-.73 0-1.43-.32-1.91-.88-.47-.56-.68-1.3-.56-2.04C.23 1.9 1.33 1 2.61 1h10.07c3.18 0 6.14 1.58 7.9 4.23l1.82 2.73a9.52 9.52 0 0 1 1.6 5.27V23Zm-9-1h8v-8.77c0-1.68-.49-3.31-1.43-4.71l-1.82-2.73A8.481 8.481 0 0 0 12.68 2H2.61c-.79 0-1.47.54-1.59 1.24A1.513 1.513 0 0 0 2.5 5h7.36c1.6 0 2.98 1.18 3.13 2.69A3.002 3.002 0 0 1 10.01 11H6.62c-.79 0-1.47.54-1.59 1.24A1.513 1.513 0 0 0 6.51 14H15v8Z"/></svg>