<svg xmlns="http://www.w3.org/2000/svg" width="512" height="512" data-name="Layer 1" viewBox="0 0 24 24"><path d="M12.5 5C13.878 5 15 3.878 15 2.5S13.878 0 12.5 0 10 1.122 10 2.5 11.122 5 12.5 5Zm0-4c.827 0 1.5.673 1.5 1.5S13.327 4 12.5 4 11 3.327 11 2.5 11.673 1 12.5 1Zm8.371 12.099-5.725-6.318a2.497 2.497 0 0 0-1.815-.78H11.67c-.755 0-1.443.337-1.905.88L4.129 13.1l.741.672 4.129-4.556-1.955 10.786h2.955v4h1v-4h3v4h1v-4h2.966L16.001 9.217l4.127 4.555.741-.672Zm-6.063-4.868L16.768 19H8.242l1.952-10.768c.133-.8.883-1.232 1.476-1.232h1.661c.669 0 1.332.5 1.476 1.231Z"/></svg>