<svg xmlns="http://www.w3.org/2000/svg" width="512" height="512" data-name="Layer 1" viewBox="0 0 24 24"><path d="M23.74 7c-1.669.012-3.885.007-5.173-.859l3.787-3.787-.707-.707-3.786 3.786c-.864-1.289-.862-3.508-.859-5.173V0h-1v.259c-.002 1.328-.004 2.978.412 4.373-4.093-3.31-8.1-3.481-11.188-.393C1.388 8.076-1.271 21.324.703 23.297c.471.471 1.575.684 3.038.684 4.708 0 13.126-2.209 16.048-5.13 3.104-3.104 2.925-7.139-.418-11.264 1.302.388 2.826.412 4.103.412H24v-1h-.26Zm-4.659 11.145C15.28 21.946 2.649 23.831 1.41 22.591c-1.329-1.33.655-13.779 4.522-17.645 1.39-1.39 2.846-1.921 4.259-1.921 2.802 0 5.438 2.089 7.067 3.717 1.946 1.947 3.189 3.955 3.593 5.808.455 2.083-.141 3.965-1.771 5.594Zm-4.592-8.634a1.745 1.745 0 0 0-2.464 0c-.552.553-.918 2.359-1.017 2.9l-.13.712.712-.13c.541-.099 2.348-.464 2.899-1.017.329-.329.511-.767.511-1.232s-.182-.903-.511-1.232Zm-.707 1.757c-.168.168-.88.403-1.633.583.181-.753.415-1.465.583-1.634a.74.74 0 0 1 1.05 0 .74.74 0 0 1 0 1.05Zm-9.757 6.243c-.552.553-.918 2.359-1.017 2.9l-.13.712.712-.13c.541-.099 2.348-.464 2.899-1.017.329-.329.511-.767.511-1.232s-.182-.903-.511-1.232a1.745 1.745 0 0 0-2.464 0Zm1.757 1.757c-.168.168-.88.403-1.633.583.181-.753.415-1.465.583-1.634a.74.74 0 0 1 1.05 0 .74.74 0 0 1 0 1.05Zm10.243-5.757c-.553.553-.918 2.359-1.017 2.9l-.13.712.712-.13c.541-.099 2.347-.464 2.9-1.017a1.745 1.745 0 0 0 0-2.464 1.744 1.744 0 0 0-2.464 0Zm1.757.707c.289.29.29.761 0 1.05-.168.168-.88.402-1.634.583.181-.753.415-1.465.583-1.634a.74.74 0 0 1 1.05 0Zm-7.293-6.243a1.745 1.745 0 0 0 0-2.464 1.744 1.744 0 0 0-2.464 0c-.553.553-.918 2.359-1.017 2.9l-.13.712.712-.13c.541-.099 2.347-.464 2.9-1.017ZM8.732 6.218a.74.74 0 0 1 1.05 0c.289.29.29.761 0 1.05-.168.168-.88.402-1.634.583.181-.753.415-1.465.583-1.634Zm-.243 5.293a1.745 1.745 0 0 0-2.464 0c-.552.553-.918 2.359-1.017 2.9l-.13.712.712-.13c.541-.099 2.348-.464 2.899-1.017.329-.329.511-.767.511-1.232s-.182-.903-.511-1.232Zm-.707 1.757c-.168.168-.88.403-1.633.583.181-.753.415-1.465.583-1.634a.74.74 0 0 1 1.05 0 .74.74 0 0 1 0 1.05Zm2.243 2.243c-.552.553-.918 2.359-1.017 2.9l-.13.712.712-.13c.541-.099 2.348-.464 2.899-1.017.329-.329.511-.767.511-1.232s-.182-.903-.511-1.232a1.745 1.745 0 0 0-2.464 0Zm1.757 1.757c-.168.168-.88.403-1.633.583.181-.753.415-1.465.583-1.634a.74.74 0 0 1 1.05 0 .74.74 0 0 1 0 1.05Z"/></svg>