<svg xmlns="http://www.w3.org/2000/svg" width="512" height="512" data-name="Layer 1" viewBox="0 0 24 24"><path d="M5.994 9.007c0 3.309 2.691 6 6 6s6-2.691 6-6v-2.75l2-1.5V2.138L13.838.239l-.026-.008a7.523 7.523 0 0 0-3.664.008L3.994 2.138v2.619l2 1.5v2.75Zm6 5c-2.757 0-5-2.243-5-5v-.721c.848.315 2.437.721 5 .721s4.152-.406 5-.721v.721c0 2.757-2.243 5-5 5Zm-7-9.75V2.876l5.423-1.675a6.503 6.503 0 0 1 3.14-.004l5.438 1.679v1.381l-2 1.5v1.448c-.538.247-2.07.802-5 .802s-4.466-.556-5-.802V5.757l-2-1.5Zm7 1.833L8.723 4.127l.514-.857 2.758 1.654 2.758-1.654.514.857-3.271 1.963Zm4 9.901h-2.283l-1.717 2.861-1.717-2.861H8.006c-2.757 0-5 2.243-5 5v3h1v-3c0-2.206 1.794-4 4-4H9.71l1.236 2.06-1.646 4.94h5.387l-1.646-4.94 1.236-2.06h1.717c2.206 0 4 1.794 4 4v3h1v-3c0-2.757-2.243-5-5-5Zm-2.693 7h-2.613l1.307-3.919 1.307 3.919Z"/></svg>