<svg xmlns="http://www.w3.org/2000/svg" width="512" height="512" data-name="Layer 1" viewBox="0 0 24 24"><path d="M17 6.579V1h2V0H5v1h2v5.537c-4.264 1.867-7 5.911-7 10.392 0 2.495.838 4.875 2.423 6.881l.15.19h18.854l.15-.19C23.162 21.803 24 19.424 24 16.929c0-4.417-2.736-8.445-7-10.35Zm-9.312.753L8 7.205V1h8v6.241l.308.128c3.15 1.309 5.436 3.857 6.306 6.853C22.053 14.56 19.497 16 16.74 16c-1.834 0-3.151-.472-4.546-.971C10.78 14.523 9.318 14 7.31 14c-2.468 0-5.001 1.301-6.271 2.061.335-3.828 2.87-7.195 6.65-8.729ZM20.939 23H3.061c-1.28-1.697-1.986-3.669-2.055-5.738C1.804 16.741 4.669 15 7.31 15c1.834 0 3.151.472 4.546.971C13.27 16.477 14.732 17 16.74 17c2.703 0 5.155-1.217 6.112-1.758.098.552.148 1.116.148 1.686 0 2.19-.712 4.284-2.061 6.071Z"/></svg>