<svg xmlns="http://www.w3.org/2000/svg" width="512" height="512" data-name="Layer 1" viewBox="0 0 24 24"><path d="M23.379 1.684a2.182 2.182 0 0 0-1.979-.639c-.204.038-.421.15-.695.293-.54.279-1.278.662-2.205.662C17.229 2 15.867.66 15.853.646l-.354-.352-.353.353C15.132.661 13.772 2 12 2 10.24 2 8.866.659 8.853.646l-.354-.35-.352.351C8.133.66 6.772 2.001 5.5 2.001c-.927 0-1.665-.383-2.205-.662-.274-.143-.492-.255-.696-.293a2.17 2.17 0 0 0-1.979.639A2.213 2.213 0 0 0 .054 3.71L2 13.55v6.95C2 22.43 3.57 24 5.5 24a3.505 3.505 0 0 0 3.464-3h6.072a3.505 3.505 0 0 0 3.464 3c1.93 0 3.5-1.57 3.5-3.5v-6.95l1.942-9.824a2.225 2.225 0 0 0-.563-2.042ZM5.5 23C4.122 23 3 21.879 3 20.5S4.122 18 5.5 18 8 19.121 8 20.5 6.878 23 5.5 23Zm13 0c-1.378 0-2.5-1.121-2.5-2.5s1.122-2.5 2.5-2.5 2.5 1.121 2.5 2.5-1.122 2.5-2.5 2.5Zm0-6a3.505 3.505 0 0 0-3.464 3H8.964A3.505 3.505 0 0 0 5.5 17c-.978 0-1.864.404-2.5 1.053V14h18v4.053A3.488 3.488 0 0 0 18.5 17Zm4.464-13.483L21.089 13H2.911L1.032 3.501a1.224 1.224 0 0 1 .311-1.125 1.175 1.175 0 0 1 1.071-.349c.066.015.263.116.421.198.595.309 1.494.774 2.665.774.946 0 1.864-.496 2.5-.944v7.944h1V2.027c.691.456 1.75.973 3 .973s2.309-.518 3-.973V10h1V2.056c.636.448 1.554.944 2.5.944 1.17 0 2.069-.466 2.665-.774.158-.082.355-.184.419-.198.397-.072.79.053 1.073.349.288.3.404.721.308 1.141Z"/></svg>