<svg xmlns="http://www.w3.org/2000/svg" width="512" height="512" data-name="Layer 1" viewBox="0 0 24 24"><path d="M12 0C5.383 0 0 5.383 0 12v12h5V12c0-3.86 3.141-7 7-7s7 3.14 7 7v12h5V12c0-6.617-5.383-12-12-12Zm11 15h-3v-3h3v3Zm-3 1h3v3h-3v-3Zm-.069-5a7.934 7.934 0 0 0-.78-2.566l2.531-1.65A10.913 10.913 0 0 1 22.95 11h-3.019ZM11.5 4.025a7.922 7.922 0 0 0-3.112.846L6.942 2.242a10.917 10.917 0 0 1 4.559-1.217v3Zm1-3c1.638.074 3.183.501 4.559 1.217l-1.446 2.629a7.95 7.95 0 0 0-3.113-.847V1.025ZM4 15H1v-3h3v3Zm0 1v3H1v-3h3Zm-2.949-5a10.908 10.908 0 0 1 1.268-4.216l2.531 1.65A7.942 7.942 0 0 0 4.07 11H1.051ZM1 23v-3h3v3H1ZM5.348 7.564 2.837 5.927a11.074 11.074 0 0 1 3.24-3.181l1.445 2.629a8.051 8.051 0 0 0-2.175 2.19Zm11.131-2.19 1.445-2.629a11.074 11.074 0 0 1 3.24 3.181l-2.511 1.637a8.09 8.09 0 0 0-2.174-2.19Zm3.522 17.625v-3h3v3h-3ZM12 7c-2.757 0-5 2.243-5 5v12h10V12c0-2.757-2.243-5-5-5Zm1 1.142V23h-2V8.142c.322-.084.653-.142 1-.142s.678.058 1 .142ZM8 12c0-1.474.81-2.75 2-3.444V23H8V12Zm8 11h-2V8.556c1.19.694 2 1.97 2 3.444v11Z"/></svg>