<svg xmlns="http://www.w3.org/2000/svg" width="512" height="512" data-name="Layer 1" viewBox="0 0 24 24"><path d="m10.289 16.129-5.748 5.854.548.558c.579.59 1.529.601 2.122.021l.699.715a2.488 2.488 0 0 1-1.749.713c-.648 0-1.297-.25-1.786-.749l-3.12-3.177.713-.701 1.872 1.906 5.735-5.841.713.7ZM18 21.5h1c0 1.378-1.121 2.5-2.5 2.5H12v-1h3v-4.786l-5.224-4.988A2.484 2.484 0 0 1 9 11.445a2.48 2.48 0 0 1 .732-1.799L14.479 5H5V4h10.277l1.922 1.606a2.496 2.496 0 0 1 .069 3.6l-5.06 4.958L16 17.786V23h.5c.827 0 1.5-.673 1.5-1.5Zm-6.516-8.026L16.56 8.5c.288-.289.444-.672.439-1.079s-.17-.787-.466-1.068l-1.083-.904-5.016 4.909c-.284.285-.44.667-.436 1.075.005.408.171.788.467 1.069l1.018.972ZM22 2.5C22 3.878 20.879 5 19.5 5S17 3.878 17 2.5 18.121 0 19.5 0 22 1.122 22 2.5Zm-1 0c0-.827-.673-1.5-1.5-1.5S18 1.673 18 2.5 18.673 4 19.5 4 21 3.327 21 2.5Z"/></svg>