<svg xmlns="http://www.w3.org/2000/svg" width="512" height="512" data-name="Layer 1" viewBox="0 0 24 24"><path d="M21.5 0H18v1h3.5c.231 0 .451.053.646.147L17.923 5.37a12.592 12.592 0 0 0-8.608-3.369A12.593 12.593 0 0 0 .347 5.715l-.354.354 8.616 8.615L5.293 18H0v1h4.293L.647 22.646l.707.707 3.649-3.649.01 4.297 1-.002-.012-5.293 3.315-3.315 8.615 8.615.354-.354A12.6 12.6 0 0 0 22 14.683c0-3.221-1.193-6.258-3.369-8.608l4.222-4.221c.094.196.147.415.147.646V6h1V2.5C24 1.122 22.878 0 21.5 0ZM1.415 6.076c4.456-4.093 11.346-4.093 15.802 0l-7.9 7.9-7.902-7.9Zm16.509 16.509-7.901-7.901 7.9-7.9c4.094 4.456 4.095 11.346 0 15.802Z"/></svg>