<svg xmlns="http://www.w3.org/2000/svg" width="512" height="512" data-name="Layer 1" viewBox="0 0 24 24"><path d="M6 13h12v5h1V3.5C19 2.121 20.121 1 21.5 1H23V0h-1.5C19.57 0 18 1.57 18 3.5V6H6V3.5C6 2.121 7.121 1 8.5 1H10V0H8.5C6.57 0 5 1.57 5 3.5V18h1v-5Zm12-6v5H6V7h12Zm5.978 16.719A4.003 4.003 0 0 1 19 21.935C18.317 23.165 17.005 24 15.5 24s-2.817-.835-3.5-2.065C11.317 23.165 10.005 24 8.5 24s-2.817-.835-3.5-2.065a4.003 4.003 0 0 1-4.978 1.784l.371-.93A3.004 3.004 0 0 0 4.499 20h1c0 1.654 1.346 3 3 3s3-1.346 3-3h1c0 1.654 1.346 3 3 3s3-1.346 3-3h1a3.004 3.004 0 0 0 4.106 2.789l.371.93Z"/></svg>