<svg xmlns="http://www.w3.org/2000/svg" width="512" height="512" data-name="Layer 1" viewBox="0 0 24 24"><path d="m10.838 4.319-.727-.727C11.431 1.442 13.797 0 16.5 0 20.636 0 24 3.364 24 7.5c0 2.703-1.441 5.069-3.591 6.389l-.727-.727A6.5 6.5 0 0 0 23 7.5C23 3.916 20.084 1 16.5 1a6.502 6.502 0 0 0-5.662 3.319Zm6.69 9.518 5.679 5.679-2.879 2.879c-1.033 1.035-2.434 1.604-3.941 1.604C9.188 24 0 14.811 0 7.613c0-1.509.57-2.909 1.606-3.941L4.484.793l5.679 5.679-3.372 3.373c1.49 3.511 3.964 5.988 7.36 7.369l3.377-3.376Zm4.265 5.679-4.265-4.265-3.131 3.13-.303-.115c-3.921-1.497-6.732-4.307-8.357-8.353l-.123-.307 3.135-3.135-4.265-4.264-2.172 2.172C1.465 5.223 1 6.371 1 7.613c0 6.615 8.771 15.386 15.387 15.386 1.241 0 2.39-.466 3.234-1.312l2.172-2.172ZM16 4v3.707l2.146 2.146.707-.707-1.854-1.854V3.999h-1Z"/></svg>