<svg xmlns="http://www.w3.org/2000/svg" width="512" height="512" data-name="Layer 1" viewBox="0 0 24 24"><path d="M19.5 5a2.5 2.5 0 0 0 0-5 2.5 2.5 0 0 0 0 5Zm0-4c.83 0 1.5.67 1.5 1.5S20.33 4 19.5 4 18 3.33 18 2.5 18.67 1 19.5 1Zm2.27 14.71c-.28-.45-.75-.71-1.28-.71h-4.84l3.09-6.68c.34-.73.28-1.57-.15-2.24S17.42 5 16.62 5h-5.99l-2.59 5.28.9.44L11.25 6h3.1l-3.16 6.81c-.33.7-.27 1.5.14 2.15A2.24 2.24 0 0 0 13.22 16h3.76c0 3.86-3.14 7-7 7s-7-3.14-7-7c0-2.25 1.07-4.26 2.73-5.54l.82-1.67A7.993 7.993 0 0 0 1.98 16c0 4.41 3.59 8 8 8s8-3.59 8-8h2.5c.25 0 .38.17.42.24s.13.26.03.48l-2.89 5.55.89.46 2.9-5.56c.23-.47.21-1.01-.07-1.46Zm-9.59-1.29c-.23-.37-.26-.8-.08-1.2l3.36-7.23h1.16c.47 0 .88.23 1.13.62.25.39.28.86.09 1.28l-3.28 7.1h-1.32c-.43 0-.82-.21-1.05-.58Z"/></svg>