<svg xmlns="http://www.w3.org/2000/svg" width="512" height="512" data-name="Layer 1" viewBox="0 0 24 24"><path d="M13 10.1V13h4c0 1.654-1.346 3-3 3v1c2.206 0 4-1.794 4-4V8h-2.9c-1.158 0-2.1.941-2.1 2.1Zm4 1.9h-3v-1.9c0-.606.493-1.1 1.1-1.1H17v3ZM6 10.1V13h4c0 1.654-1.346 3-3 3v1c2.206 0 4-1.794 4-4V8H8.1C6.942 8 6 8.941 6 10.1Zm4 1.9H7v-1.9C7 9.494 7.493 9 8.1 9H10v3ZM21.5 0h-19A2.502 2.502 0 0 0 0 2.5V24h24V2.5C24 1.121 22.879 0 21.5 0ZM23 23H1V2.5C1 1.673 1.673 1 2.5 1h19c.827 0 1.5.673 1.5 1.5V23Z"/></svg>