<svg xmlns="http://www.w3.org/2000/svg" width="512" height="512" data-name="Layer 1" viewBox="0 0 24 24"><path d="m19.221 9.963 1.849-2.26 1.446 1.184.633-.773-3.666-3-.633.773 1.446 1.184-1.858 2.271a10.93 10.93 0 0 0-2.439-1.33V1h1V0H7v1h1v7.011A11.014 11.014 0 0 0 1 18.25c0 1.126.173 2.241.514 3.312C1.97 22.998 3.386 24 4.957 24h14.086c1.571 0 2.987-1.003 3.443-2.438.341-1.071.514-2.186.514-3.312 0-3.236-1.429-6.238-3.779-8.287Zm2.312 11.296c-.326 1.025-1.35 1.741-2.49 1.741H4.957c-1.141 0-2.164-.716-2.49-1.742A9.946 9.946 0 0 1 2.546 15h16.739a8.226 8.226 0 0 0-.539-1H2.954a10.015 10.015 0 0 1 5.713-5.171L9 8.711V1h6v7.711l.333.118c1.167.171 3.213 1.872 3.213 1.872A10.004 10.004 0 0 1 22 18.25a9.902 9.902 0 0 1-.467 3.009Z"/></svg>