<svg xmlns="http://www.w3.org/2000/svg" data-name="Layer 1" viewBox="0 0 24 24"><path d="M3.5 5C4.878 5 6 3.879 6 2.5S4.878 0 3.5 0 1 1.121 1 2.5 2.122 5 3.5 5Zm0-4C4.327 1 5 1.673 5 2.5S4.327 4 3.5 4 2 3.327 2 2.5 2.673 1 3.5 1Zm20.45 16.913-.226-.975-9.068 2.102-3.162-13.638-.975.227L11.764 11H7.808L6.275 7.935A3.482 3.482 0 0 0 3.145 6H1.999c-1.103 0-2 .897-2 2v6.161c0 .7.356 1.337.959 1.707l4.041 2.415V24h1v-6.283l-4.522-2.703a.996.996 0 0 1-.478-.853V8c0-.552.449-1 1-1h1.146c.297 0 .586.052.854.148v7.357l1 .598V7.822c.149.166.278.354.382.56L7.19 12h4.806l1.623 7.002a2.503 2.503 0 0 0-2.595 2.498c0 1.379 1.122 2.5 2.5 2.5s2.5-1.121 2.5-2.5a2.49 2.49 0 0 0-.592-1.613l8.516-1.974ZM13.526 23c-.827 0-1.5-.673-1.5-1.5s.673-1.5 1.5-1.5 1.5.673 1.5 1.5-.673 1.5-1.5 1.5ZM1 18l1 .598V24H1v-6Zm14.554-3.362c.135.574.485 1.062.987 1.372a2.185 2.185 0 0 0 1.668.268l3.108-.738a2.207 2.207 0 0 0 1.636-2.646l-.748-3.192a2.19 2.19 0 0 0-.988-1.372 2.181 2.181 0 0 0-1.667-.269l-3.107.738a2.206 2.206 0 0 0-1.636 2.646l.748 3.192Zm1.119-4.866 3.107-.738a1.2 1.2 0 0 1 .91.147c.274.17.466.436.54.75l.748 3.192a1.205 1.205 0 0 1-.894 1.445l-3.108.738a1.198 1.198 0 0 1-1.45-.896l-.748-3.192a1.205 1.205 0 0 1 .894-1.445Z"/></svg>