<svg xmlns="http://www.w3.org/2000/svg" width="512" height="512" data-name="Layer 1" viewBox="0 0 24 24"><path d="M16.5 7C15.121 7 14 8.122 14 9.5s1.121 2.5 2.5 2.5S19 10.878 19 9.5 17.879 7 16.5 7Zm0 4c-.827 0-1.5-.673-1.5-1.5S15.673 8 16.5 8s1.5.673 1.5 1.5-.673 1.5-1.5 1.5ZM10 9.5C10 8.122 8.878 7 7.5 7S5 8.122 5 9.5 6.122 12 7.5 12 10 10.878 10 9.5ZM7.5 11C6.673 11 6 10.327 6 9.5S6.673 8 7.5 8 9 8.673 9 9.5 8.327 11 7.5 11Zm.5 5h8v1H8v-1Zm4-16C5.383 0 0 5.383 0 12s5.383 12 12 12 12-5.383 12-12S18.617 0 12 0Zm0 23C5.935 23 1 18.065 1 12S5.935 1 12 1s11 4.935 11 11-4.935 11-11 11Z"/></svg>