<svg xmlns="http://www.w3.org/2000/svg" width="512" height="512" data-name="Layer 1" viewBox="0 0 24 24"><path d="M7 16c-.551 0-1-.449-1-1s.449-1 1-1 1 .449 1 1-.449 1-1 1Zm7-1c-.551 0-1-.449-1-1s.449-1 1-1 1 .449 1 1-.449 1-1 1Zm1-7c-.551 0-1-.449-1-1s.449-1 1-1 1 .449 1 1-.449 1-1 1Zm9 1.5v-1h-2.007a6.775 6.775 0 0 0-.673-2.669l1.675-.994-.511-.86-1.668.99a6.904 6.904 0 0 0-.809-.973 6.792 6.792 0 0 0-1.178-.945l.932-1.702-.877-.48-.937 1.711a6.77 6.77 0 0 0-2.447-.57V0h-1v2.035a6.73 6.73 0 0 0-2.576.801l-1.11-1.824-.854.521 1.126 1.85a6.804 6.804 0 0 0-.698.61L9.087 5.294 7.546 3.753l-.707.707L8.38 6.001 6.001 8.38 4.46 6.839l-.707.707 1.541 1.541-1.301 1.301a6.747 6.747 0 0 0-.609.698L1.533 9.959l-.521.854 1.826 1.112a6.785 6.785 0 0 0-.799 2.575H0v1h2.01a6.81 6.81 0 0 0 .57 2.445l-1.714.939.48.877 1.703-.933a6.858 6.858 0 0 0 1.917 1.987l-.99 1.669.86.511.996-1.678a6.814 6.814 0 0 0 2.668.673V24h1v-2.039a6.792 6.792 0 0 0 2.593-.809l1.154 1.896.854-.521-1.171-1.923c.237-.181.465-.38.682-.597l1.301-1.301 1.607 1.607.707-.707-1.607-1.607 2.379-2.379 1.607 1.607.707-.707-1.607-1.607 1.3-1.3c.216-.216.415-.444.598-.683l1.922 1.17.521-.854-1.894-1.153a6.744 6.744 0 0 0 .811-2.594h2.035Zm-4.7 3.407-6.394 6.394a5.808 5.808 0 0 1-8.207 0 5.81 5.81 0 0 1 0-8.207l6.394-6.395c1.096-1.096 2.553-1.7 4.104-1.7s3.007.604 4.103 1.7C20.396 5.795 21 7.252 21 8.803s-.604 3.007-1.7 4.103Z"/></svg>