<svg xmlns="http://www.w3.org/2000/svg" width="512" height="512" data-name="Layer 1" viewBox="0 0 24 24"><path d="M6.167 18.23a.44.44 0 0 0-.089.487.448.448 0 0 0 .422.282H19v1H6.5a1.435 1.435 0 0 1-1.346-.899 1.435 1.435 0 0 1 .316-1.587L17.874 5.769a.44.44 0 0 0 .089-.487.448.448 0 0 0-.422-.282H5V4h12.542c.601 0 1.116.345 1.346.899.23.555.108 1.163-.316 1.587L6.168 18.23ZM24 2.5V24H0V2.5C0 1.121 1.122 0 2.5 0h19C22.878 0 24 1.121 24 2.5Zm-1 0c0-.827-.673-1.5-1.5-1.5h-19C1.673 1 1 1.673 1 2.5V23h22V2.5Z"/></svg>