<svg xmlns="http://www.w3.org/2000/svg" width="512" height="512" data-name="Layer 1" viewBox="0 0 24 24"><path d="M21.698 11H24v-1H7.272L.841.046 0 .589 6.727 11h2.575l5.465 5.107-3.694 3.452A2.49 2.49 0 0 0 9.499 19c-1.379 0-2.5 1.121-2.5 2.5S8.12 24 9.499 24s2.5-1.121 2.5-2.5c0-.421-.105-.818-.29-1.166l3.79-3.542 3.79 3.542c-.185.348-.29.745-.29 1.166 0 1.379 1.121 2.5 2.5 2.5s2.5-1.121 2.5-2.5-1.121-2.5-2.5-2.5a2.49 2.49 0 0 0-1.574.559l-3.694-3.452L21.696 11ZM9.5 23c-.827 0-1.5-.673-1.5-1.5S8.673 20 9.5 20s1.5.673 1.5 1.5-.673 1.5-1.5 1.5ZM23 21.5c0 .827-.673 1.5-1.5 1.5s-1.5-.673-1.5-1.5.673-1.5 1.5-1.5 1.5.673 1.5 1.5ZM10.768 11h9.465l-4.732 4.423L10.769 11Z"/></svg>