<svg xmlns="http://www.w3.org/2000/svg" width="512" height="512" data-name="Layer 1" viewBox="0 0 24 24"><path d="M17.5 11c-3.584 0-6.5 2.916-6.5 6.5s2.916 6.5 6.5 6.5 6.5-2.916 6.5-6.5-2.916-6.5-6.5-6.5Zm0 12c-3.032 0-5.5-2.468-5.5-5.5s2.468-5.5 5.5-5.5 5.5 2.468 5.5 5.5-2.468 5.5-5.5 5.5Zm2.939-7.451.701.713-3.456 3.399c-.217.218-.51.339-.822.339s-.604-.121-.825-.343l-1.85-1.793.695-.719 1.856 1.8c.099.099.157.089.24.007l3.46-3.403ZM12.023 11H4v-1h9.497a8.532 8.532 0 0 0-1.474 1Zm0 13H0V2.5C0 1.121 1.121 0 2.5 0h13C16.879 0 18 1.121 18 2.5v6.515a8.297 8.297 0 0 0-1 0V2.5c0-.827-.673-1.5-1.5-1.5h-13C1.673 1 1 1.673 1 2.5V23h10.02c.306.36.642.695 1.004 1ZM14 6H4V5h10v1ZM4 15h5v1H4v-1Z"/></svg>