<svg xmlns="http://www.w3.org/2000/svg" width="512" height="512" data-name="Layer 1" viewBox="0 0 24 24"><path d="M10.5 14h-1V6h1v8ZM9 17a1 1 0 1 0 2 0 1 1 0 0 0-2 0Zm7.108-4.432-2.474-2.431-.701.713 2.475 2.432a2.488 2.488 0 0 0 1.748.709c.637 0 1.273-.239 1.758-.717l4.972-4.915-.703-.711-4.972 4.914a1.506 1.506 0 0 1-2.103.006ZM10 21c-4.963 0-9-4.037-9-9s4.037-9 9-9c4.045 0 7.474 2.683 8.604 6.362l.784-.775C17.989 4.751 14.314 2 10.001 2 4.486 2 0 6.486 0 12s4.486 10 10 10c4.328 0 8.012-2.769 9.401-6.624a4.44 4.44 0 0 1-1.295.51c-1.454 3.02-4.536 5.115-8.106 5.115Z"/></svg>