<svg xmlns="http://www.w3.org/2000/svg" width="512" height="512" data-name="Layer 1" viewBox="0 0 24 24"><path d="M23.051 21.581a2.478 2.478 0 0 1-1.424 1.277 2.485 2.485 0 0 1-1.912-.105L17 21.463v-6.181l-2.8-2.574a.497.497 0 0 1-.09-.713l2.437-3.325 6.684 4.253.537-.844L12.646 5H8.708L5.854 2.146l-.707.707 3.146 3.146h4.035L9.517 9.655a2.515 2.515 0 0 0-.518 1.523v3.011l-3.557 1.778-2.994-1.423a2.504 2.504 0 0 1-1.217-3.32l-.908-.42a3.504 3.504 0 0 0 1.7 4.645l17.26 8.203a3.486 3.486 0 0 0 2.675.146 3.477 3.477 0 0 0 1.994-1.788l-.902-.433ZM10 14.81v-3.629c0-.329.11-.653.311-.914l2.873-3.738 2.518 1.603-2.392 3.263a1.493 1.493 0 0 0-.297 1.119c.056.4.264.753.548.963l2.438 2.245v5.268l-9.41-4.473 3.41-1.705Zm7.5-9.809c1.379 0 2.5-1.122 2.5-2.5s-1.121-2.5-2.5-2.5-2.5 1.122-2.5 2.5 1.121 2.5 2.5 2.5Zm0-4c.827 0 1.5.673 1.5 1.5s-.673 1.5-1.5 1.5-1.5-.673-1.5-1.5.673-1.5 1.5-1.5Z"/></svg>