<svg xmlns="http://www.w3.org/2000/svg" width="512" height="512" data-name="Layer 1" viewBox="0 0 24 24"><path d="M21.5 0h-19A2.503 2.503 0 0 0 0 2.5V11h24V2.5C24 1.122 22.879 0 21.5 0ZM23 10H1V2.5C1 1.673 1.673 1 2.5 1h19c.827 0 1.5.673 1.5 1.5V10ZM3 6h18v1H3V6Zm4 7h1v7.5C8 22.43 6.43 24 4.5 24S1 22.43 1 20.5 2.57 17 4.5 17v1C3.121 18 2 19.122 2 20.5S3.121 23 4.5 23 7 21.878 7 20.5V13Zm16 7.5c0 1.93-1.57 3.5-3.5 3.5S16 22.43 16 20.5V13h1v7.5c0 1.378 1.121 2.5 2.5 2.5s2.5-1.122 2.5-2.5-1.121-2.5-2.5-2.5v-1c1.93 0 3.5 1.57 3.5 3.5ZM11.5 13h1v11h-1V13Z"/></svg>