<svg xmlns="http://www.w3.org/2000/svg" width="512" height="512" data-name="Layer 1" viewBox="0 0 24 24"><path d="M12 16c-2.206 0-4-1.794-4-4s1.794-4 4-4 4 1.794 4 4-1.794 4-4 4Zm0-7c-1.654 0-3 1.346-3 3s1.346 3 3 3 3-1.346 3-3-1.346-3-3-3ZM5 7a1 1 0 1 0 0 2 1 1 0 0 0 0-2Zm13 3a1 1 0 1 0 2 0 1 1 0 0 0-2 0ZM5 13a1 1 0 1 0 0 2 1 1 0 0 0 0-2Zm13 3a1 1 0 1 0 2 0 1 1 0 0 0-2 0Zm-.772 5c-1.635 0-3.527-.517-5.358-1.018C10.103 19.499 8.276 19 6.775 19 3.779 19 .733 20.328.702 20.341L0 20.65V6.802c0-.974.534-1.855 1.394-2.299C2.725 3.817 4.738 3 6.775 3c1.646 0 3.277.521 4.855 1.023 1.575.502 3.062.977 4.552.977 1.622 0 2.891-.376 3.91-.679.242-.072.468-.139.676-.194a2.545 2.545 0 0 1 2.218.448 2.581 2.581 0 0 1 1.015 2.061v12.765l-.294.133c-.132.06-3.271 1.466-6.479 1.466ZM6.775 18c1.635 0 3.528.518 5.359 1.018 1.767.483 3.593.982 5.094.982 2.447 0 4.937-.915 5.772-1.253V6.636c0-.5-.228-.963-.624-1.268a1.556 1.556 0 0 0-1.353-.274c-.199.053-.415.117-.647.186-1.024.304-2.427.72-4.194.72-1.646 0-3.278-.521-4.856-1.024C9.752 4.474 8.265 4 6.775 4c-1.836 0-3.69.757-4.922 1.392a1.579 1.579 0 0 0-.852 1.41v12.345C2.125 18.731 4.433 18 6.775 18Z"/></svg>