<svg xmlns="http://www.w3.org/2000/svg" width="512" height="512" data-name="Layer 1" viewBox="0 0 24 24"><path d="m9.902 6.01.196.98c-1.244.249-2.515.912-3.776 1.973l-.644-.766c1.392-1.17 2.813-1.905 4.224-2.188Zm4 .98c1.244.249 2.515.912 3.776 1.973l.644-.766c-1.392-1.17-2.813-1.905-4.224-2.188l-.196.98ZM23 12c0-.886-.106-1.748-.305-2.574L20 12.681v6.821c0 .821-.397 1.586-1.063 2.046C17.611 22.464 14.947 24 12 24s-5.611-1.536-6.937-2.452A2.482 2.482 0 0 1 4 19.502v-6.824L1.313 9.391A10.919 10.919 0 0 0 2 16.555v2.063a11.925 11.925 0 0 1-2-6.619C0 5.383 5.383 0 12 0s12 5.383 12 12c0 2.446-.739 4.72-2 6.619v-2.063c.636-1.39 1-2.93 1-4.556Zm-4 1H5v6.502c0 .492.236.95.632 1.224C6.862 21.576 9.325 23 12 23s5.138-1.425 6.368-2.274c.396-.273.632-.731.632-1.224V13Zm3.35-4.726C20.82 4.037 16.758 1 12 1S3.202 4.02 1.663 8.239L4.738 12h14.527l3.085-3.726Z"/></svg>