<svg xmlns="http://www.w3.org/2000/svg" width="512" height="512" data-name="Layer 1" viewBox="0 0 24 24"><path d="m23.981.726-.707-.707L19.5 3.793l-2.769-2.769-.707.707L18.793 4.5 16.5 6.793l-2.769-2.769-.707.707L15.793 7.5l-2.192 2.192-2.899-2.899-.354.354a4.606 4.606 0 0 0-.334 6.133l-1.538 1.538-2.769-2.769-.707.707 2.769 2.769-1.428 1.428c-.392.394-1.009.495-1.611.27a3.518 3.518 0 0 0-4.11 1.288c-.823 1.172-.823 2.809 0 3.98a3.515 3.515 0 0 0 2.882 1.51c.926 0 1.813-.365 2.474-1.025l-.707-.707a2.463 2.463 0 0 1-1.985.723 2.485 2.485 0 0 1-1.845-1.074 2.504 2.504 0 0 1 0-2.832 2.52 2.52 0 0 1 2.941-.926c.975.366 1.995.174 2.669-.499l1.428-1.428 2.782 2.782.707-.707-2.782-2.782 1.538-1.538a4.588 4.588 0 0 0 2.88 1.011 4.587 4.587 0 0 0 3.253-1.346l.354-.354L14.31 10.4l2.192-2.192 2.782 2.782.707-.707-2.782-2.782 2.293-2.293 2.782 2.782.707-.707-2.782-2.782L23.983.727ZM11.055 12.945A3.579 3.579 0 0 1 10 10.399c0-.793.255-1.547.726-2.168l5.043 5.043c-1.374 1.042-3.472.911-4.714-.329Z"/></svg>