<svg xmlns="http://www.w3.org/2000/svg" width="512" height="512" data-name="Layer 1" viewBox="0 0 24 24"><path d="M10.17 23.993a13.79 13.79 0 0 1-9.78-4.044l-.354-.354L19.596.036l.354.354c5.393 5.393 5.393 14.167 0 19.56a13.787 13.787 0 0 1-9.779 4.044Zm-8.712-4.404c5.026 4.651 12.901 4.536 17.785-.347 4.884-4.884 5-12.759.347-17.785L1.458 19.589Zm17.8-9.09c-.446 0-.893-.17-1.232-.51-.553-.553-.918-2.358-1.018-2.899l-.13-.712.712.13c.541.1 2.347.465 2.899 1.018a1.743 1.743 0 0 1-1.231 2.974Zm-1.108-2.85c.181.753.415 1.464.583 1.633a.742.742 0 1 0 1.05-1.05c-.169-.168-.88-.402-1.633-.583Zm.108 8.35c-.446 0-.893-.17-1.232-.51-.553-.553-.918-2.358-1.018-2.899l-.13-.712.712.13c.541.1 2.347.465 2.899 1.018A1.743 1.743 0 0 1 18.258 16Zm-1.108-2.85c.181.753.415 1.464.583 1.633.291.29.762.288 1.05 0s.289-.761 0-1.05c-.169-.168-.88-.402-1.633-.583Zm-8.392 7.85c-.446 0-.892-.17-1.232-.51-.553-.553-.918-2.358-1.017-2.899l-.13-.712.712.13c.541.1 2.347.465 2.9 1.018.679.68.679 1.784 0 2.464-.339.34-.786.51-1.232.51ZM7.65 18.148c.181.754.415 1.465.583 1.634a.743.743 0 0 0 1.05-1.05c-.168-.169-.88-.402-1.634-.584Zm6.609 1.851c-.446 0-.893-.17-1.232-.51-.553-.553-.918-2.358-1.017-2.899l-.13-.712.712.13c.541.1 2.347.465 2.899 1.018A1.743 1.743 0 0 1 14.26 20Zm-1.108-2.85c.181.753.415 1.464.583 1.633a.742.742 0 1 0 1.05-1.05c-.169-.168-.88-.402-1.633-.583Z"/></svg>