<svg xmlns="http://www.w3.org/2000/svg" width="512" height="512" data-name="Layer 1" viewBox="0 0 24 24"><path d="M8.5 5C9.879 5 11 3.878 11 2.5S9.879 0 8.5 0 6 1.122 6 2.5 7.121 5 8.5 5Zm0-4c.827 0 1.5.673 1.5 1.5S9.327 4 8.5 4 7 3.327 7 2.5 7.673 1 8.5 1Zm9.965 4a4.499 4.499 0 0 0-2.906 1.065L12 9.076V8.5C12 7.122 10.879 6 9.5 6h-2A2.503 2.503 0 0 0 5 8.5v6.499L3.816 16H0v8h5.535a4.499 4.499 0 0 0 2.906-1.065L20.183 13h3.816V5h-5.535ZM6 8.5C6 7.673 6.673 7 7.5 7h2c.827 0 1.5.673 1.5 1.5v1.422l-5 4.231V8.501ZM23 12h-3.184L7.795 22.172a3.501 3.501 0 0 1-2.26.828H1v-6h3.184L16.205 6.828A3.501 3.501 0 0 1 18.465 6H23v6Z"/></svg>