<svg xmlns="http://www.w3.org/2000/svg" width="512" height="512" data-name="Layer 1" viewBox="0 0 24 24"><path d="M13.694 5.236c1.426-.83 3.331-2.378 3.331-4.736V0h-10v.5c0 2.356 1.882 3.903 3.292 4.733C5.323 6.495 1 13.043 1 18.25 1 21.42 3.579 24 6.75 24h10.5c3.171 0 5.75-2.58 5.75-5.75 0-5.203-4.316-11.746-9.306-13.014ZM8.064 1h7.921c-.372 2.322-3.249 3.657-3.984 3.962C11.272 4.655 8.432 3.321 8.064 1Zm9.186 22H6.75A4.756 4.756 0 0 1 2 18.25C2 12.926 6.877 6.064 12 6c5.124.063 10 6.926 10 12.25A4.756 4.756 0 0 1 17.25 23Z"/></svg>