<svg xmlns="http://www.w3.org/2000/svg" width="512" height="512" data-name="Layer 1" viewBox="0 0 24 24"><path d="M16.5 5C17.879 5 19 3.878 19 2.5S17.879 0 16.5 0 14 1.122 14 2.5 15.121 5 16.5 5Zm0-4c.827 0 1.5.673 1.5 1.5S17.327 4 16.5 4 15 3.327 15 2.5 15.673 1 16.5 1Zm-4.015 5.188 4.741 4.669.701-.713-5.118-5.036c-.058-.045-1.429-1.107-3.387-1.107-1.218 0-4.423 1.076-4.423 3.5 0 1.378 1.121 2.5 2.5 2.5.181 0 .353-.026.518-.073-.002.043-.002.086-.002.129.011.715.328 1.393.912 1.892l2.071 1.43v4.738h1v-5.262l-2.461-1.697a1.504 1.504 0 0 1-.176-2.097c.201-.187 3.122-2.872 3.122-2.872ZM7.5 9C6.673 9 6 8.327 6 7.5 6 5.859 8.543 5 9.423 5c.968 0 1.773.324 2.252.573 0 0-2.979 2.73-3.041 2.801C8.208 8.765 7.861 9 7.5 9Zm.995 8.454a3.967 3.967 0 0 0-.136-.949l.495-.118a4.494 4.494 0 0 0-.374-1.016l-.474.244a3.979 3.979 0 0 0-.546-.781l.399-.362a4.176 4.176 0 0 0-.831-.706l-.279.429a3.967 3.967 0 0 0-.858-.432l.163-.471a4.746 4.746 0 0 0-1.052-.232l-.05.485c-.15-.017-.297-.046-.451-.046-.176 0-.345.03-.515.052l-.059-.484a4.789 4.789 0 0 0-1.046.248l.169.466a3.94 3.94 0 0 0-.847.454l-.288-.431a4.139 4.139 0 0 0-.821.723l.407.355c-.209.24-.388.503-.536.787l-.478-.233c-.155.317-.275.66-.356 1.016l.493.113a3.944 3.944 0 0 0-.121.934l.002.021-.502.019c.014.366.061.72.14 1.051l.494-.117c.08.315.2.611.35.892l-.474.241c.167.329.374.632.615.901l.401-.359c.212.238.444.458.707.64l-.283.431c.3.197.627.358.974.479l.164-.47c.297.113.612.183.939.222l-.052.485a4.873 4.873 0 0 0 1.074-.003l-.055-.484c.326-.041.64-.112.937-.226l.167.468c.346-.124.672-.286.971-.484l-.286-.431c.263-.184.494-.405.706-.645l.406.359c.24-.272.445-.577.609-.906l-.477-.238c.148-.281.268-.578.346-.893l.494.114a5.42 5.42 0 0 0 .133-1.033v-.111l-.504.031ZM7.5 17.5c0 1.654-1.346 3-3 3s-3-1.346-3-3 1.346-3 3-3 3 1.346 3 3Zm16.367 1.067A5.42 5.42 0 0 0 24 17.534v-.111l-.504.031a3.967 3.967 0 0 0-.136-.949l.495-.118a4.494 4.494 0 0 0-.374-1.016l-.474.244a3.979 3.979 0 0 0-.546-.781l.399-.362a4.176 4.176 0 0 0-.831-.706l-.279.429a3.967 3.967 0 0 0-.858-.432l.163-.471a4.746 4.746 0 0 0-1.052-.232l-.05.485c-.15-.017-.297-.046-.451-.046-.176 0-.345.03-.515.052l-.059-.484a4.789 4.789 0 0 0-1.046.248l.169.466a3.94 3.94 0 0 0-.847.454l-.288-.431a4.139 4.139 0 0 0-.821.723l.407.355c-.209.24-.388.503-.536.787l-.478-.233c-.155.317-.275.66-.356 1.016l.493.113a3.944 3.944 0 0 0-.121.934l.002.021-.502.019c.014.366.061.72.14 1.051l.494-.117c.08.315.2.611.35.892l-.474.241c.167.329.374.632.615.901l.401-.359c.212.238.444.458.707.64l-.283.431c.3.197.627.358.974.479l.164-.47c.297.113.612.183.939.222l-.052.485a4.873 4.873 0 0 0 1.074-.003l-.055-.484c.326-.041.64-.112.937-.226l.167.468c.346-.124.672-.286.971-.484l-.286-.431c.263-.184.494-.405.706-.645l.406.359c.24-.272.445-.577.609-.906l-.477-.238c.148-.281.268-.578.346-.893l.494.114ZM22.501 17.5c0 1.654-1.346 3-3 3s-3-1.346-3-3 1.346-3 3-3 3 1.346 3 3Z"/></svg>