<svg xmlns="http://www.w3.org/2000/svg" width="512" height="512" data-name="Layer 1" viewBox="0 0 24 24"><path d="M21.5 3h-19A2.5 2.5 0 0 0 0 5.5V21h24V5.5A2.5 2.5 0 0 0 21.5 3ZM5.93 20l1.33-2h9.46l1.33 2H5.93ZM23 20h-3.73l-2-3H6.73l-2 3H1V5.5C1 4.67 1.67 4 2.5 4h19c.83 0 1.5.67 1.5 1.5V20ZM17 8H7c-1.65 0-3 1.35-3 3s1.35 3 3 3h10c1.65 0 3-1.35 3-3s-1.35-3-3-3Zm-2.23 1c-.48.53-.77 1.23-.77 2s.29 1.47.77 2H9.24c.48-.53.77-1.23.77-2s-.29-1.47-.77-2h5.53ZM5 11c0-1.1.9-2 2-2s2 .9 2 2-.9 2-2 2-2-.9-2-2Zm12 2c-1.1 0-2-.9-2-2s.9-2 2-2 2 .9 2 2-.9 2-2 2Z"/></svg>