<svg xmlns="http://www.w3.org/2000/svg" viewBox="0 0 31.86 43.2"><defs><style>.cls-1{fill:#333;}</style></defs><g id="Layer_2" data-name="Layer 2"><g id="Design"><path class="cls-1" d="M27,4.17A15.69,15.69,0,0,0,16,0h-.09a15.9,15.9,0,0,0-11,4.18A15.14,15.14,0,0,0,0,15,15.34,15.34,0,0,0,4.84,26.14a8.56,8.56,0,0,1,2.6,3.63c.61,1.85,2.25,6.75,8.13,6.75h.72c5.88,0,7.52-4.9,8.13-6.74A8.53,8.53,0,0,1,27,26.14a15.3,15.3,0,0,0,4.84-11.2A15.17,15.17,0,0,0,27,4.17ZM25.65,24.68a10.45,10.45,0,0,0-3.12,4.46c-.89,2.66-2.33,5.38-6.24,5.38h-.72c-3.91,0-5.35-2.72-6.24-5.39a10.49,10.49,0,0,0-3.12-4.46A13.24,13.24,0,0,1,2,15,13.17,13.17,0,0,1,6.21,5.64,14,14,0,0,1,15.89,2H16a13.73,13.73,0,0,1,9.66,3.63A13.17,13.17,0,0,1,29.86,15,13.29,13.29,0,0,1,25.65,24.68Z"/><path class="cls-1" d="M15.92,38.13l-.74.81c-1.62,1.79-2.57,3.06-2.57,4.26h2a4.86,4.86,0,0,1,1.31-2.07C17,42.39,17.23,43,17.23,43.2h2c0-1.19-1-2.52-2.57-4.26Z"/><path class="cls-1" d="M5.89,15.78l1.49-.19A6.09,6.09,0,0,1,9.73,9.92l-.91-1.2A7.6,7.6,0,0,0,5.89,15.78Z"/></g></g></svg>