<svg xmlns="http://www.w3.org/2000/svg" viewBox="0 0 36.66 36.65"><defs><style>.cls-1{fill:#333;}</style></defs><g id="Layer_2" data-name="Layer 2"><g id="Design"><path class="cls-1" d="M15.66,34.65a13.66,13.66,0,1,1,0-27.31v-2A15.66,15.66,0,1,0,31.31,21h-2A13.68,13.68,0,0,1,15.66,34.65Z"/><polygon class="cls-1" points="30.99 17.34 19.33 17.34 19.33 5.71 17.33 5.71 17.33 19.34 30.99 19.34 30.99 17.34"/><path class="cls-1" d="M21.67,0V15h15A15,15,0,0,0,21.67,0Zm2,2.15A13,13,0,0,1,34.51,13H23.67Z"/></g></g></svg>