<svg xmlns="http://www.w3.org/2000/svg" viewBox="0 0 25.83 78.98"><defs><style>.cls-1{fill:#333;}</style></defs><g id="Layer_2" data-name="Layer 2"><g id="Design"><path class="cls-1" d="M23.22,36.25c0-9.57-8.44-22.65-8.51-22.75l-1.77-2.83-1.75,2.8c-.08.13-8.53,13.23-8.53,22.78,0,7.06,3.75,11.11,10.28,11.11S23.22,43.31,23.22,36.25Zm-18.56,0a22.25,22.25,0,0,1,.79-5.41h5.29v-2H6a70.89,70.89,0,0,1,6.83-14.28l.07-.12.09.14a74.75,74.75,0,0,1,5.83,11.49H15.15v2h4.44a27.64,27.64,0,0,1,1.61,7.46H16.8v2h4.37c-.3,3.83-2.08,7.83-8.23,7.83C6.1,45.36,4.66,40.41,4.66,36.25Z"/><polygon class="cls-1" points="12.66 62.37 6.56 68.47 7.98 69.89 12.66 65.2 12.66 72.42 7.52 77.56 8.94 78.98 14.66 73.25 14.66 63.2 14.71 63.16 14.66 63.12 14.66 63.1 19.68 68.11 21.09 66.7 14.66 60.27 14.66 55.08 21.94 62.44 23.36 61.04 12.66 50.21 12.66 62.37"/><rect class="cls-1" x="11.9" width="2" height="4.97"/><rect class="cls-1" x="1.35" y="5.47" width="2" height="4.66" transform="translate(-4.82 3.95) rotate(-45)"/><rect class="cls-1" x="21.15" y="6.73" width="4.66" height="2" transform="translate(1.41 18.86) rotate(-45)"/></g></g></svg>