<svg xmlns="http://www.w3.org/2000/svg" viewBox="0 0 36.68 20.04"><defs><style>.cls-1{fill:#333;}</style></defs><g id="Layer_2" data-name="Layer 2"><g id="Design"><path class="cls-1" d="M11.28,2a5,5,0,0,1,5,5h0v0l1,0h1V7h0c-.14-3.56,1.42-4.28,2.61-4.5A3.51,3.51,0,0,1,25,5.11L27,4.69A5.5,5.5,0,0,0,20.53.5,4.77,4.77,0,0,0,17,3,7,7,0,0,0,4.28,6.57,7,7,0,0,0,7,20V18A5,5,0,0,1,5.56,8.23L6.31,8l0-1A5,5,0,0,1,11.28,2Z"/><path class="cls-1" d="M33.38,11V11a4.61,4.61,0,0,0-9.22,0h2a2.61,2.61,0,0,1,5.22,0,2.87,2.87,0,0,1-.08.64L31,12.76l1.21.07A2.61,2.61,0,0,1,32.07,18H9.39v2H32.07a4.61,4.61,0,0,0,1.31-9Z"/></g></g></svg>