<svg xmlns="http://www.w3.org/2000/svg" viewBox="0 0 38.97 28.95"><defs><style>.cls-1{fill:#333;}</style></defs><g id="Layer_2" data-name="Layer 2"><g id="Design"><path class="cls-1" d="M34.74,10.55a6.45,6.45,0,0,0-5-5.56,6.6,6.6,0,0,0-7.32,3.32l1.76,1A4.62,4.62,0,0,1,29.39,7a4.43,4.43,0,0,1,3.39,4.31V12l.71.21a4.9,4.9,0,0,1,3.39,5.59A4.79,4.79,0,0,1,33,21.59l-.15,0a1.15,1.15,0,0,1-.29,0H30.18v2h2.39a3,3,0,0,0,.84-.09,6.77,6.77,0,0,0,5.43-5.33A6.92,6.92,0,0,0,34.74,10.55Z"/><path class="cls-1" d="M6.34,9.89l.75-.19V8.92a5.5,5.5,0,0,1,4.27-5.45,5.63,5.63,0,0,1,5.51,1.65L18,6.38l.52-1.64a4,4,0,0,1,2-2.35,3.89,3.89,0,0,1,3-.16,4.17,4.17,0,0,1,2.34,2.22l1.82-.82A6.09,6.09,0,0,0,24.27.35,5.82,5.82,0,0,0,19.7.6a6,6,0,0,0-2.43,2.2A7.62,7.62,0,0,0,10.9,1.52,7.45,7.45,0,0,0,5.13,8.17a7.83,7.83,0,0,0-5,9,8.1,8.1,0,0,0,5.7,6.25l3,0v-2H6.22a6.19,6.19,0,0,1-4.1-4.69A5.81,5.81,0,0,1,6.34,9.89Z"/><path class="cls-1" d="M31.88,15.65a2.92,2.92,0,1,0-5.84,0,2.73,2.73,0,0,0,.22,1.07l-1.94,2.11v8.28h2v-7.5l1.28-1.4a2.86,2.86,0,0,0,1.36.35A2.91,2.91,0,0,0,31.88,15.65Zm-3.84,0a.92.92,0,1,1,.92.91A.92.92,0,0,1,28,15.65Z"/><path class="cls-1" d="M20.37,16.79a2.91,2.91,0,1,0-2,0V19l2.32,3v1.39L14.55,27h-.66V20.62a2.92,2.92,0,1,0-2,0V29h3.18l7.62-4.32V21.39l-2.32-3ZM12.89,17a.92.92,0,1,1-.92.92A.92.92,0,0,1,12.89,17Zm6.48-3.84a.92.92,0,1,1-.91.92A.92.92,0,0,1,19.37,13.14Z"/></g></g></svg>