<svg xmlns="http://www.w3.org/2000/svg" viewBox="0 0 36.62 29.51"><defs><style>.cls-1{fill:#333;}</style></defs><g id="Layer_2" data-name="Layer 2"><g id="Design"><path class="cls-1" d="M32.65,9.9a6.06,6.06,0,0,0-4.57-5.2l-.16,0A6.23,6.23,0,0,0,21,7.81l1.76,1a4.2,4.2,0,0,1,4.61-2.18l.16,0a4.09,4.09,0,0,1,3.12,4v.74l.71.22a4.51,4.51,0,0,1,3.14,5.15A4.42,4.42,0,0,1,31,20.22l-.14,0a.9.9,0,0,1-.25,0H29.26v2h1.31a2.68,2.68,0,0,0,.79-.09,6.4,6.4,0,0,0,5.14-5A6.53,6.53,0,0,0,32.65,9.9Z"/><polygon class="cls-1" points="15.05 25.89 15.05 17.99 13.05 17.99 13.05 25.89 9.7 22.82 8.35 24.3 14.05 29.51 19.75 24.3 18.4 22.82 15.05 25.89"/><polygon class="cls-1" points="17.83 17.25 19.18 18.73 22.53 15.66 22.53 23.56 24.53 23.56 24.53 15.66 27.88 18.73 29.23 17.25 23.53 12.04 17.83 17.25"/><path class="cls-1" d="M8.39,20.08H5.9a5.76,5.76,0,0,1-3.79-4.34A5.38,5.38,0,0,1,6,9.39l.76-.19V8.42a5.08,5.08,0,0,1,3.94-5,5.2,5.2,0,0,1,5.1,1.53L17,6.16l.52-1.64a3.72,3.72,0,0,1,1.87-2.16,3.53,3.53,0,0,1,2.76-.14,3.73,3.73,0,0,1,2.15,2l1.83-.82A5.76,5.76,0,0,0,22.81.34a5.49,5.49,0,0,0-4.33.23,5.73,5.73,0,0,0-2.26,2,7.19,7.19,0,0,0-6-1.16A7,7,0,0,0,4.81,7.67,7.37,7.37,0,0,0,.16,16.14a7.64,7.64,0,0,0,5.37,5.91l2.86,0Z"/></g></g></svg>