<svg xmlns="http://www.w3.org/2000/svg" viewBox="0 0 36.62 28.21"><defs><style>.cls-1{fill:#333;}</style></defs><g id="Layer_2" data-name="Layer 2"><g id="Design"><path class="cls-1" d="M32.65,9.9A6.07,6.07,0,0,0,28,4.69l-.12,0A6.22,6.22,0,0,0,21,7.81l1.76,1A4.24,4.24,0,0,1,27.45,6.6l.12,0a4.09,4.09,0,0,1,3.12,4v.74l.72.22a4.52,4.52,0,0,1,3.13,5.15A4.42,4.42,0,0,1,31,20.22l-.15,0H29.26v2h1.31a3,3,0,0,0,.79-.08,6.4,6.4,0,0,0,5.14-5A6.53,6.53,0,0,0,32.65,9.9Z"/><path class="cls-1" d="M15.81,4.9,17,6.16l.52-1.64a3.72,3.72,0,0,1,1.87-2.16,3.53,3.53,0,0,1,2.76-.14,3.73,3.73,0,0,1,2.15,2l1.83-.82A5.76,5.76,0,0,0,22.81.34a5.49,5.49,0,0,0-4.33.23,5.73,5.73,0,0,0-2.26,2,7.19,7.19,0,0,0-6-1.16A7,7,0,0,0,4.81,7.67,7.37,7.37,0,0,0,.16,16.14a7.64,7.64,0,0,0,5.37,5.91l2.86,0v-2H5.9a5.74,5.74,0,0,1-3.79-4.34A5.38,5.38,0,0,1,6,9.39l.76-.19V8.42a5.08,5.08,0,0,1,3.94-5A5.21,5.21,0,0,1,15.81,4.9Z"/><path class="cls-1" d="M22.59,21.91c0,1.83-2.88,3.5-4.3,4.14C16.87,25.41,14,23.74,14,21.91V14.69H12v7.22c0,3.73,5.32,5.92,5.93,6.16l.36.14.37-.14c.6-.24,5.93-2.43,5.93-6.16V14.69h-2Z"/><polygon class="cls-1" points="23.08 11.75 18.29 9.97 13.43 11.82 14.14 13.69 18.3 12.11 22.38 13.62 23.08 11.75"/><polygon class="cls-1" points="16.38 18.66 15.34 19.74 17.8 22.1 21.61 18.37 20.56 17.3 17.79 20.01 16.38 18.66"/></g></g></svg>