<svg xmlns="http://www.w3.org/2000/svg" viewBox="0 0 36.71 23.32"><defs><style>.cls-1{fill:#272727;}</style></defs><g id="Layer_2" data-name="Layer 2"><g id="Design"><polygon class="cls-1" points="7.65 2 29.39 2 29.39 16.75 31.39 16.75 31.39 0 5.65 0 5.65 16.75 7.65 16.75 7.65 2"/><rect class="cls-1" x="14.23" y="17.42" width="8.52" height="1.5"/><polygon class="cls-1" points="31.25 17.85 29.84 19.26 31.89 21.31 4.83 21.32 6.78 19.37 5.36 17.96 0 23.32 36.71 23.31 31.25 17.85"/><polygon class="cls-1" points="15.83 5.5 11.46 9.79 15.83 14.09 16.88 13.02 13.6 9.79 16.88 6.57 15.83 5.5"/><polygon class="cls-1" points="21.09 5.5 20.02 6.56 23.25 9.79 20.02 13.02 21.09 14.08 25.38 9.79 21.09 5.5"/></g></g></svg>