<svg xmlns="http://www.w3.org/2000/svg" viewBox="0 0 36.7 43.68"><defs><style>.cls-1{fill:#333;}</style></defs><g id="Layer_2" data-name="Layer 2"><g id="Design"><path class="cls-1" d="M34,27.91V23.28l-2.89-2.61H27.19V16.32L29,14.45a3.54,3.54,0,1,0-1.57-1.26L25.19,15.5v5.17H23.81a5.44,5.44,0,0,0-4.33-4.34V8.83A4.47,4.47,0,0,0,19.64.15h0a4.48,4.48,0,1,0-2.32,8.66l.16,0v3.5H13l-2-2a3.94,3.94,0,0,0,.41-1.74,4.08,4.08,0,1,0-4.08,4.07,4,4,0,0,0,2.39-.78l2.47,2.43h5.3v2a5.44,5.44,0,0,0-4.33,4.34H5.93a3.05,3.05,0,1,0,0,2H9.42v4.54L7.35,29.48a3.59,3.59,0,0,0-2-.59A3.66,3.66,0,1,0,9,32.55,3.54,3.54,0,0,0,8.68,31l2.74-3V22.67h1.73A5.44,5.44,0,0,0,17.48,27v7.85a4.47,4.47,0,0,0-.16,8.68h0a4.68,4.68,0,0,0,1.16.15,4.48,4.48,0,0,0,1.16-8.81c-.05,0-.11,0-.16,0V27a5.44,5.44,0,0,0,4.33-4.33h6.48L32,24.17v3.74a3.75,3.75,0,1,0,2,0ZM30.39,9.62a1.55,1.55,0,1,1-1.55,1.55A1.55,1.55,0,0,1,30.39,9.62ZM7.32,10.69A2.08,2.08,0,1,1,9.4,8.62,2.07,2.07,0,0,1,7.32,10.69ZM5.39,34.21A1.66,1.66,0,1,1,7,32.55,1.66,1.66,0,0,1,5.39,34.21ZM3.06,22.72a1.06,1.06,0,1,1,1.05-1A1.05,1.05,0,0,1,3.06,22.72Zm13-18.88A2.49,2.49,0,0,1,18.48,2a2.8,2.8,0,0,1,.64.08,2.48,2.48,0,1,1-3,1.76Zm4.8,36a2.48,2.48,0,1,1-1.76-3A2.48,2.48,0,0,1,20.88,39.84ZM18.48,25.1a3.43,3.43,0,1,1,3.43-3.43A3.44,3.44,0,0,1,18.48,25.1ZM33,33.25a1.75,1.75,0,1,1,1.75-1.74A1.74,1.74,0,0,1,33,33.25Z"/></g></g></svg>