<svg xmlns="http://www.w3.org/2000/svg" viewBox="0 0 36.62 36.59"><defs><style>.cls-1{fill:#333;}</style></defs><g id="Layer_2" data-name="Layer 2"><g id="Design"><path class="cls-1" d="M3.63,15a10.39,10.39,0,0,1-1.25-5,10.6,10.6,0,0,1,.67-3.76l1.87.69A8.82,8.82,0,0,0,4.38,10a8.52,8.52,0,0,0,1,4.07Z"/><path class="cls-1" d="M31.68,6.92A8.78,8.78,0,0,1,32.22,10a8.4,8.4,0,0,1-1,4.07L33,15a10.5,10.5,0,0,0,1.24-5,10.6,10.6,0,0,0-.67-3.76Z"/><path class="cls-1" d="M18.27,11.26A18.68,18.68,0,0,0,2.48,19.65l1.69,1.07a16.67,16.67,0,0,1,14.1-7.46,16.67,16.67,0,0,1,14.11,7.46l1.69-1.06A18.68,18.68,0,0,0,18.27,11.26Z"/><path class="cls-1" d="M18.27,31.52a16.67,16.67,0,0,1-14.1-7.46L2.48,25.13a18.7,18.7,0,0,0,15.79,8.39,18.68,18.68,0,0,0,15.8-8.4l-1.69-1.06A16.67,16.67,0,0,1,18.27,31.52Z"/><path class="cls-1" d="M16.15,21.16a2,2,0,1,0-2,2.05A2.1,2.1,0,0,0,16.15,21.16Zm-2.6,0a.56.56,0,0,1,1.11-.06.62.62,0,0,1-.56.61A.56.56,0,0,1,13.55,21.16Z"/><path class="cls-1" d="M24.57,21.16a2.06,2.06,0,1,0-2.05,2.05A2.05,2.05,0,0,0,24.57,21.16Zm-2.61,0a.56.56,0,0,1,1.11,0,.56.56,0,0,1-1.11,0Z"/><rect class="cls-1" x="25.27" y="33.26" width="2" height="3.32"/><rect class="cls-1" x="8.22" y="33.26" width="2" height="3.32"/><path class="cls-1" d="M5.79,5.54a5.77,5.77,0,0,0,4.26-1.87L8.58,2.32a3.8,3.8,0,0,1-4.06,1A3.79,3.79,0,0,1,2,0L0,.13A5.79,5.79,0,0,0,3.86,5.21,5.6,5.6,0,0,0,5.79,5.54Z"/><path class="cls-1" d="M34.62,0a3.79,3.79,0,0,1-2.53,3.33,3.79,3.79,0,0,1-4.05-1L26.57,3.67a5.77,5.77,0,0,0,4.26,1.87,5.6,5.6,0,0,0,1.93-.33A5.79,5.79,0,0,0,36.62.13Z"/></g></g></svg>