<svg xmlns="http://www.w3.org/2000/svg" viewBox="0 0 36.65 25.66"><defs><style>.cls-1{fill:#333;}</style></defs><g id="Layer_2" data-name="Layer 2"><g id="Design"><path class="cls-1" d="M18.31,19.57a3,3,0,1,0,3,3.05A3.06,3.06,0,0,0,18.31,19.57Zm0,4.09a1,1,0,1,1,1-1A1,1,0,0,1,18.31,23.66Z"/><path class="cls-1" d="M29.42,13l5.47-5.46L33.48,6.12l-5.93,5.93a22.51,22.51,0,0,0-8.25-1.94V0h-2V10.11A22.69,22.69,0,0,0,9.11,12L3.19,6.12,1.78,7.54,7.24,13A20.5,20.5,0,0,0,0,19.81l1.69,1.06a19.65,19.65,0,0,1,16.63-8.79A19.63,19.63,0,0,1,35,20.88l1.7-1.06A20.47,20.47,0,0,0,29.42,13Z"/></g></g></svg>