<svg xmlns="http://www.w3.org/2000/svg" viewBox="0 0 32.78 36.68"><defs><style>.cls-1{fill:#333;}</style></defs><g id="Layer_2" data-name="Layer 2"><g id="Design"><path class="cls-1" d="M32.78,7.46,31.37,6.05l-4.5,4.5a15.13,15.13,0,0,0-9.51-4.16V0h-2V6.4a15.08,15.08,0,0,0-9.43,4.16L1.41,6.05,0,7.46,4.57,12a15.16,15.16,0,1,0,23.66,0ZM16.41,34.68A13.17,13.17,0,1,1,29.57,21.51,13.19,13.19,0,0,1,16.41,34.68Z"/><path class="cls-1" d="M16.41,18.47a3,3,0,1,0,3,3A3,3,0,0,0,16.41,18.47Zm0,4.09a1,1,0,1,1,1-1A1,1,0,0,1,16.41,22.56Z"/></g></g></svg>