<svg xmlns="http://www.w3.org/2000/svg" viewBox="0 0 36.68 29.79"><defs><style>.cls-1{fill:#333;}</style></defs><g id="Layer_2" data-name="Layer 2"><g id="Design"><rect class="cls-1" x="17.28" width="2" height="4.99"/><rect class="cls-1" x="7.39" y="2.52" width="2" height="4.7" transform="translate(-1.19 3.37) rotate(-21.22)"/><rect class="cls-1" x="25.99" y="3.87" width="4.7" height="2" transform="matrix(0.36, -0.93, 0.93, 0.36, 13.54, 29.52)"/><path class="cls-1" d="M16.37,17.8a6,6,0,1,0,6,6A6,6,0,0,0,16.37,17.8Zm0,10a4,4,0,1,1,4-4A4,4,0,0,1,16.37,27.79Z"/><path class="cls-1" d="M32.06,20a19.47,19.47,0,0,0-15.72-7.74A19.33,19.33,0,0,0,0,20.89L1.69,22a17.32,17.32,0,0,1,14.65-7.74A17.33,17.33,0,0,1,31,22h5.68V20Z"/></g></g></svg>