<svg xmlns="http://www.w3.org/2000/svg" viewBox="0 0 43.02 44.43"><defs><style>.cls-1{fill:#333;}</style></defs><g id="Layer_2" data-name="Layer 2"><g id="Design"><polygon class="cls-1" points="26.96 38.18 16.1 38.18 16.1 40.18 28.96 40.18 28.96 35.18 26.96 35.18 26.96 38.18"/><rect class="cls-1" x="20.03" y="42.43" width="3.04" height="2"/><path class="cls-1" d="M23.47,25.06a6.35,6.35,0,0,1-1.92.27,7.65,7.65,0,0,1-3.9-1.07,7.84,7.84,0,0,1-2.85-2.84l-1.72,1a9.86,9.86,0,0,0,8.47,4.9A8,8,0,0,0,24,27a9.65,9.65,0,0,0,6-4.54l-1.71-1A7.74,7.74,0,0,1,23.47,25.06Z"/><path class="cls-1" d="M41.05,5.58l1.43-2.06L40.83,2.38,39.41,4.44a9.4,9.4,0,0,0-1.94-.79,9.13,9.13,0,0,0-1.53-.28H36V0H34V3.37h.16a8.9,8.9,0,0,0-3.31,1l-1.39-2L27.82,3.52l1.39,2a10.23,10.23,0,0,0-2.06,2.39L28.85,9a8.29,8.29,0,0,1,2.7-2.7,6.89,6.89,0,0,1,5.38-.7A7.3,7.3,0,0,1,41.29,9l1.73-1A9.56,9.56,0,0,0,41.05,5.58Z"/><path class="cls-1" d="M35.17,7.76A2.14,2.14,0,1,0,37.31,9.9,2.14,2.14,0,0,0,35.17,7.76Zm0,2.78a.64.64,0,0,1-.64-.64.64.64,0,1,1,1.28,0A.64.64,0,0,1,35.17,10.54Z"/><path class="cls-1" d="M15.87,7.94A9.16,9.16,0,0,0,3.37,4.56,10.21,10.21,0,0,0,0,7.92L1.7,9a8.29,8.29,0,0,1,2.7-2.7A7.16,7.16,0,0,1,14.14,9Z"/></g></g></svg>