<svg xmlns="http://www.w3.org/2000/svg" viewBox="0 0 41.95 48.31"><defs><style>.cls-1{fill:#333;}</style></defs><g id="Layer_2" data-name="Layer 2"><g id="Design"><path class="cls-1" d="M22.94,27.29a3.1,3.1,0,0,1-4.06,0l-4.72-4.72L12.74,24l4.72,4.72a4.83,4.83,0,0,0,3.38,1.36,5.2,5.2,0,0,0,3.47-1.36L29,24l-1.42-1.41Z"/><path class="cls-1" d="M22.72,41.37a6.88,6.88,0,0,1-5.33-.69A8.23,8.23,0,0,1,14.7,38L13,39a10.28,10.28,0,0,0,3.36,3.36,9,9,0,0,0,3.53,1.16v4.75h2V43.55a9.14,9.14,0,0,0,1.35-.25A9,9,0,0,0,28.77,39L27,38A7,7,0,0,1,22.72,41.37Z"/><path class="cls-1" d="M7.08,2.46A7.08,7.08,0,0,0,0,9.54a7.17,7.17,0,0,0,7.08,7.07,7.17,7.17,0,0,0,7.07-7.07A7.08,7.08,0,0,0,7.08,2.46Zm0,12.15A5.14,5.14,0,0,1,2,9.54a5.08,5.08,0,1,1,10.15,0A5.14,5.14,0,0,1,7.08,14.61Z"/><path class="cls-1" d="M42,3.13,40.38,1.89,38.85,3.83a7.1,7.1,0,0,0-3.18-1.29V0h-2V2.54a7,7,0,0,0-3.14,1.27L29,1.79,27.4,3l1.69,2.21a7,7,0,0,0-1.5,4.33,7.08,7.08,0,0,0,14.16,0,7,7,0,0,0-1.47-4.3ZM34.67,14.61a5.14,5.14,0,0,1-5.08-5.07,5.08,5.08,0,1,1,10.16,0A5.14,5.14,0,0,1,34.67,14.61Z"/><path class="cls-1" d="M34.67,7.49a2,2,0,1,0,2,2A2,2,0,0,0,34.67,7.49Zm0,2.59a.54.54,0,0,1-.54-.54.54.54,0,1,1,1.08,0A.54.54,0,0,1,34.67,10.08Z"/><path class="cls-1" d="M7.08,7.49a2,2,0,1,0,2,2A2.05,2.05,0,0,0,7.08,7.49Zm0,2.59a.55.55,0,0,1-.55-.54A.55.55,0,0,1,7.08,9a.55.55,0,0,1,.54.55A.54.54,0,0,1,7.08,10.08Z"/></g></g></svg>