<svg xmlns="http://www.w3.org/2000/svg" viewBox="0 0 27 36.37"><defs><style>.cls-1{fill:#333;}</style></defs><g id="Layer_2" data-name="Layer 2"><g id="Design"><path class="cls-1" d="M3.21,19a1.22,1.22,0,0,1,1.21,1.22h2A3.2,3.2,0,0,0,6,18.64a1.56,1.56,0,0,1,.48-.93,1.48,1.48,0,0,1,1.13-.4,1.58,1.58,0,0,1,1.48,1.52l2-.15a3.71,3.71,0,0,0-1-2.28A1.68,1.68,0,0,1,13.3,17v.09h2V3.7A1.7,1.7,0,0,1,17,2a1.74,1.74,0,0,1,1.7,1.7v.93H17.25v2H18.7v8.88h2V3.7A3.74,3.74,0,0,0,17,0a3.7,3.7,0,0,0-3.7,3.7v10a3.52,3.52,0,0,0-1.68-.43,3.67,3.67,0,0,0-3.3,2.09,3.42,3.42,0,0,0-.63-.09,3.47,3.47,0,0,0-2.58.92,3.27,3.27,0,0,0-.78,1A3.19,3.19,0,0,0,3.21,17,3.22,3.22,0,0,0,0,20.26H2A1.22,1.22,0,0,1,3.21,19Z"/><path class="cls-1" d="M21.11,16.91v2A3.89,3.89,0,0,1,25,22.8a4,4,0,0,1-1.21,2.83,3.56,3.56,0,0,1-2.68,1.18v1.85a6.67,6.67,0,0,1-2,3.75,7.15,7.15,0,0,1-5.37,2l-5.55,0A6.2,6.2,0,0,1,2,28.13V22.34H0v5.79a8.2,8.2,0,0,0,8.19,8.2l5.5,0h.44a9.1,9.1,0,0,0,6.36-2.51,8.76,8.76,0,0,0,2.66-5.44A5.33,5.33,0,0,0,25.25,27a5.9,5.9,0,0,0-4.14-10.09Z"/><path class="cls-1" d="M23.8,22.86a2.7,2.7,0,0,0-2.69-2.69v2a.69.69,0,0,1,.69.69.75.75,0,0,1-.69.74v2A2.75,2.75,0,0,0,23.8,22.86Z"/></g></g></svg>