<svg xmlns="http://www.w3.org/2000/svg" viewBox="0 0 36.67 36.63"><defs><style>.cls-1{fill:#333;}</style></defs><g id="Layer_2" data-name="Layer 2"><g id="Design"><path class="cls-1" d="M14.53,8.47a9.54,9.54,0,0,0-.24,12.45l-3.89,3.9,1.41,1.41,3.9-3.91a9.51,9.51,0,0,0,6,2.14,9.38,9.38,0,0,0,6.42-2.55L32,18.06,18.5,4.59Zm2.07,12a7.53,7.53,0,0,1-1.29-9.72L25.78,21.21A7.43,7.43,0,0,1,16.6,20.46Zm10.69-.56L16.62,9.22l1.86-1.81L29.13,18.06Z"/><polygon class="cls-1" points="4.86 33.81 2.83 31.78 9.9 24.77 8.49 23.36 0 31.77 4.86 36.63 13.31 28.18 11.9 26.77 4.86 33.81"/><rect class="cls-1" x="30.11" y="3.82" width="3.38" height="2" transform="translate(5.91 23.9) rotate(-45)"/><rect class="cls-1" x="23.55" width="2" height="3.53"/><rect class="cls-1" x="33.14" y="11.05" width="3.53" height="2"/></g></g></svg>