<svg xmlns="http://www.w3.org/2000/svg" viewBox="0 0 29.44 38.86"><defs><style>.cls-1{fill:#333;}</style></defs><g id="Layer_2" data-name="Layer 2"><g id="Design"><path class="cls-1" d="M2,21.14a5.23,5.23,0,0,1,8.93-3.7l3.79,3.79,1.41-1.42L12.35,16A7.23,7.23,0,0,0,2.12,26.26l9.55,9.55,1.41-1.42L3.53,24.84A5.19,5.19,0,0,1,2,21.14Z"/><path class="cls-1" d="M27.32,16a7.24,7.24,0,0,0-10.23,0l-.71.7,1.42,1.42.71-.71a5.23,5.23,0,0,1,7.4,7.4L13.3,37.45l1.42,1.41,12.6-12.6A7.24,7.24,0,0,0,27.32,16Z"/><rect class="cls-1" x="13.67" width="2" height="4.96"/><rect class="cls-1" x="3.12" y="5.47" width="2" height="4.65" transform="translate(-4.3 5.2) rotate(-45)"/><rect class="cls-1" x="22.91" y="6.72" width="4.65" height="2" transform="translate(1.93 20.11) rotate(-45)"/></g></g></svg>