<svg xmlns="http://www.w3.org/2000/svg" viewBox="0 0 28.79 36.76"><defs><style>.cls-1{fill:#333;}</style></defs><g id="Layer_2" data-name="Layer 2"><g id="Design"><path class="cls-1" d="M27.55,26.21a3.71,3.71,0,0,0,1.23-2.66,3.83,3.83,0,0,0-1-2.73,2.85,2.85,0,0,0-.26-.23,3.89,3.89,0,0,0,.28-5.44,3.76,3.76,0,0,0-2.73-1.27H17.59l-.05-5.3A8.63,8.63,0,0,0,8.89,0H8.83l.06,2a6.62,6.62,0,0,1,6.65,6.59l.06,6.3h1v1H25a1.82,1.82,0,0,1,1.75,1.94,2,2,0,0,1-.63,1.32,1.8,1.8,0,0,1-1.2.46h-.2v2h.32a1.68,1.68,0,0,1,1.23.57,1.83,1.83,0,0,1,.47,1.32A1.76,1.76,0,0,1,25,25.2h-.15v2h.22a1.71,1.71,0,0,1,1.23.56,1.87,1.87,0,0,1,.47,1.32A1.73,1.73,0,0,1,26,30.51a3.28,3.28,0,0,0-.42-.56,3.74,3.74,0,0,0-2.68-1.23h-.24v2h.21a1.76,1.76,0,0,1,1.23.57,1.92,1.92,0,0,1,.48,1.32,1.76,1.76,0,0,1-1.78,1.71h-.14v2h.14a3.76,3.76,0,0,0,3.78-3.64,1.49,1.49,0,0,0,0-.21,3.74,3.74,0,0,0,2.25-3.32,3.83,3.83,0,0,0-1-2.73A2.41,2.41,0,0,0,27.55,26.21Z"/><path class="cls-1" d="M6.1,27.54V18.81A6.1,6.1,0,0,1,8,14.4a6.55,6.55,0,0,0,2-4.75v-1h2.05v-2H10V4.57H8V9.65A4.54,4.54,0,0,1,6.59,13,8.14,8.14,0,0,0,4.1,18.81v8.73a9.23,9.23,0,0,0,9.22,9.22H20.2v-2H13.32A7.23,7.23,0,0,1,6.1,27.54Z"/><rect class="cls-1" y="17.84" width="2" height="16.06"/></g></g></svg>