<svg xmlns="http://www.w3.org/2000/svg" viewBox="0 0 36.68 43.29"><defs><style>.cls-1{fill:#333;}</style></defs><g id="Layer_2" data-name="Layer 2"><g id="Design"><path class="cls-1" d="M12.57,24v1.5a6.4,6.4,0,0,0,6.29-6.27l-1.5,0A4.89,4.89,0,0,1,12.57,24Z"/><polygon class="cls-1" points="27.03 28.82 25.62 30.24 33.84 38.41 31.79 40.47 23.55 32.3 22.14 33.72 31.79 43.29 36.68 38.41 27.03 28.82"/><path class="cls-1" d="M23.62,31.65,25,30.24l-4.16-4.16a11.49,11.49,0,0,0,2.77-7.64,11.76,11.76,0,1,0-4.18,9ZM2,18.44a9.82,9.82,0,1,1,19.64,0,9.53,9.53,0,0,1-2.78,6.86A9.85,9.85,0,0,1,2,18.44Z"/><rect class="cls-1" x="10.66" width="2" height="3.38"/><rect class="cls-1" x="3.37" y="2.9" width="2" height="3.53" transform="translate(-2.02 4.45) rotate(-45.01)"/><rect class="cls-1" x="17.21" y="3.62" width="3.53" height="2" transform="translate(2.29 14.77) rotate(-45)"/></g></g></svg>