<svg xmlns="http://www.w3.org/2000/svg" viewBox="0 0 36.68 36.71"><defs><style>.cls-1{fill:#333;}</style></defs><g id="Layer_2" data-name="Layer 2"><g id="Design"><polygon class="cls-1" points="24.97 7.01 20.73 5.75 20.16 7.67 24.94 9.09 34.68 6.52 34.68 31.62 24.98 34.19 11.69 31.56 2 34.11 2 9.02 3.93 8.51 3.42 6.57 0 7.47 0 36.71 11.76 33.61 25.05 36.24 36.68 33.16 36.68 3.93 24.97 7.01"/><path class="cls-1" d="M10.57,12.9c-2.25-2.31-3.39-4.33-3.39-6A4.91,4.91,0,0,1,17,6.9c0,2.19-1.93,5-5.74,8.5-.23.2-.38.35-.46.43l1.44,1.39c.06-.06.18-.18.36-.33,1.58-1.44,6.4-5.81,6.4-10a6.91,6.91,0,0,0-13.81,0c0,2.24,1.3,4.66,4,7.39Z"/><path class="cls-1" d="M14.12,6.71a2,2,0,1,0-2,2A2,2,0,0,0,14.12,6.71Zm-2.56,0a.53.53,0,1,1,.53.53A.53.53,0,0,1,11.56,6.71Z"/></g></g></svg>