<svg xmlns="http://www.w3.org/2000/svg" viewBox="0 0 28.06 36.59"><defs><style>.cls-1{fill:#333;}</style></defs><g id="Layer_2" data-name="Layer 2"><g id="Design"><path class="cls-1" d="M4.24,32.39l-.85.16a9.47,9.47,0,0,0-3.33,1.1l1,1.72a5.83,5.83,0,0,1,1.8-.68,6.54,6.54,0,0,1,.33,1.9h2a10.38,10.38,0,0,0-.7-3.37Z"/><rect class="cls-1" x="4.82" y="30.78" width="6.26" height="2" transform="translate(-24.01 24.61) rotate(-63.31)"/><rect class="cls-1" x="-0.35" y="27.99" width="5.81" height="2" transform="translate(-24.56 18.42) rotate(-63.66)"/><path class="cls-1" d="M24.73,32.55l-.86-.16-.27.83a10.38,10.38,0,0,0-.71,3.37h2a6.54,6.54,0,0,1,.33-1.9,5.89,5.89,0,0,1,1.81.68l1-1.72A9.47,9.47,0,0,0,24.73,32.55Z"/><rect class="cls-1" x="19.16" y="28.64" width="2" height="6.26" transform="translate(-12.12 12.43) rotate(-26.67)"/><rect class="cls-1" x="24.56" y="26.09" width="2" height="5.81" transform="translate(-10.21 14.36) rotate(-26.35)"/><path class="cls-1" d="M28,14A14,14,0,1,0,14,28.05,14,14,0,0,0,28,14ZM14,26.05A12,12,0,1,1,26,14,12,12,0,0,1,14,26.05Z"/><rect class="cls-1" x="13.29" y="7.03" width="1.5" height="3.41"/><rect class="cls-1" x="7.52" y="9.87" width="1.5" height="2.99" transform="translate(-5.61 9.18) rotate(-45)"/><rect class="cls-1" x="18.34" y="10.6" width="2.93" height="1.5" transform="translate(-2.22 17.33) rotate(-45)"/></g></g></svg>