<svg xmlns="http://www.w3.org/2000/svg" viewBox="0 0 39.61 25.84"><defs><style>.cls-1{fill:#333;}</style></defs><g id="Layer_2" data-name="Layer 2"><g id="Design"><polygon class="cls-1" points="2 16.72 2 9.1 5.34 10.42 6.07 8.56 0 6.16 0 19.69 6.08 17.21 5.33 15.36 2 16.72"/><path class="cls-1" d="M8.38,17.33l4.23,2.05A4.76,4.76,0,0,1,8,23.63v2a6.76,6.76,0,0,0,6.53-5.34l11.07,5.34V.47L8.38,8.77Zm2-7.31L23.57,3.66V22.45L10.38,16.08Z"/><rect class="cls-1" x="34.64" y="11.9" width="4.97" height="2"/><rect class="cls-1" x="29.48" y="1.35" width="4.66" height="2" transform="translate(7.65 23.18) rotate(-45)"/><rect class="cls-1" x="30.88" y="21.15" width="2" height="4.66" transform="translate(-7.27 29.42) rotate(-45)"/></g></g></svg>