<svg xmlns="http://www.w3.org/2000/svg" viewBox="0 0 36.73 49.86"><defs><style>.cls-1{fill:#333;}</style></defs><g id="Layer_2" data-name="Layer 2"><g id="Design"><rect class="cls-1" x="30.29" y="32.03" width="2" height="11.39"/><rect class="cls-1" x="4.36" y="32.03" width="2" height="11.39"/><path class="cls-1" d="M18.29,47.86C12.44,48,7.42,44.91,6,44L4.92,45.65a25.21,25.21,0,0,0,13.15,4.21h.25A24.86,24.86,0,0,0,31.7,45.65L30.59,44A23,23,0,0,1,18.29,47.86Z"/><path class="cls-1" d="M29.74,20.31l-.44,2c3.45.78,5.43,1.89,5.43,3.07a1.43,1.43,0,0,1-.49,1C32.25,28.4,25.45,30,18.43,30,9.33,30,2,27.41,2,25.3c0-1.09,2-2.2,5.37-3l-.45-1.95C2.26,21.45,0,23.06,0,25.3,0,30.16,11.3,32,18.43,32c6.34,0,14.44-1.33,17.26-4.26a3.31,3.31,0,0,0,1-2.41C36.73,23,34.44,21.38,29.74,20.31Z"/><path class="cls-1" d="M16.23,24.39a3.27,3.27,0,0,0,1.1.62v1.44a16.56,16.56,0,0,1-7.95-2.08L8.27,26A18.75,18.75,0,0,0,18,28.47h.39c4.25-.08,8-1,10-2.46L27.2,24.4c-1.52,1.1-4.48,1.85-7.87,2V25a3.7,3.7,0,0,0,1.14-.66l2-1.95L21.05,21l-1.92,1.88a1.28,1.28,0,0,1-.84.34,1.22,1.22,0,0,1-.72-.28l-2-1.94-1.4,1.43Z"/><path class="cls-1" d="M27.31,9.57a5.8,5.8,0,0,1-1.39-.19l-.48,1.94a7.76,7.76,0,0,0,1.87.25,7.11,7.11,0,0,0,6.9-5.34,7,7,0,0,0,0-3.7L32.28,3a5.08,5.08,0,0,1,0,2.68A5.14,5.14,0,0,1,27.31,9.57Z"/><path class="cls-1" d="M25.16,8.54a5,5,0,0,1,0-2.66A5.24,5.24,0,0,1,31.51,2.2L32,.26a7.26,7.26,0,0,0-8.79,5.1,7,7,0,0,0,0,3.7Z"/><path class="cls-1" d="M5.78,10.57a6.81,6.81,0,0,0,3.56,1,6.6,6.6,0,0,0,1.84-.26l-.55-1.92a5,5,0,0,1-1.29.18,4.82,4.82,0,0,1-2.52-.71A5.15,5.15,0,0,1,4.37,5.71,5,5,0,0,1,4.37,3L2.44,2.53a7.11,7.11,0,0,0,3.34,8Z"/><path class="cls-1" d="M9.07,2.69a5.21,5.21,0,0,1,2.42,5.85l1.93.52a7.1,7.1,0,0,0,0-3.69A7.08,7.08,0,0,0,10.07,1,7,7,0,0,0,4.62.27l.54,1.92A5.06,5.06,0,0,1,9.07,2.69Z"/><path class="cls-1" d="M10.56,16.39a2.09,2.09,0,1,0,2.09-2.09A2.09,2.09,0,0,0,10.56,16.39Zm2.68,0a.58.58,0,0,1-.59.59.59.59,0,0,1-.59-.59.6.6,0,0,1,.59-.59A.59.59,0,0,1,13.24,16.39Z"/><path class="cls-1" d="M24,18.48a2.09,2.09,0,1,0-2.09-2.09A2.09,2.09,0,0,0,24,18.48Zm0-2.68a.6.6,0,0,1,.6.59.6.6,0,1,1-.6-.59Z"/></g></g></svg>