<svg xmlns="http://www.w3.org/2000/svg" viewBox="0 0 36.66 36.63"><defs><style>.cls-1{fill:#333;}</style></defs><g id="Layer_2" data-name="Layer 2"><g id="Design"><path class="cls-1" d="M13.47,16a2.26,2.26,0,0,0,0,4.52,2.33,2.33,0,0,0,2.26-2.26A2.27,2.27,0,0,0,13.47,16Zm0,3a.76.76,0,1,1,0-1.52.76.76,0,0,1,.76.7A.83.83,0,0,1,13.47,19Z"/><path class="cls-1" d="M25.46,18.23a2.26,2.26,0,1,0-2.25,2.26A2.26,2.26,0,0,0,25.46,18.23Zm-3,0a.76.76,0,1,1,.76.76A.77.77,0,0,1,22.45,18.23Z"/><path class="cls-1" d="M23,9.58a4.72,4.72,0,0,0-1.35-3,4.79,4.79,0,0,0-2.32-1.27V2H24V0H12.64V2h4.69V5.35a4.68,4.68,0,0,0-3.66,4.23H0V27.47H2V11.58H34.66V27.47h2V9.58ZM16.44,8A2.69,2.69,0,0,1,21,9.58H15.67A2.76,2.76,0,0,1,16.44,8Z"/><path class="cls-1" d="M1.33,32.23H4.24v4.4H32.43v-4.4h2.91v-2h-34Zm29.1,2.4H6.24v-2.4H30.43Z"/><rect class="cls-1" x="12.64" y="25.26" width="11.38" height="2"/></g></g></svg>