<svg xmlns="http://www.w3.org/2000/svg" viewBox="0 0 36.72 36.7"><defs><style>.cls-1{fill:#333;}</style></defs><g id="Layer_2" data-name="Layer 2"><g id="Design"><path class="cls-1" d="M21.11,1.05l1.72,2.79a17,17,0,0,0-14,4A15.29,15.29,0,0,0,3.9,22.72L1.1,20.87,0,22.54l5.79,3.83,3.83-5.79L8,19.48l-2,3.07A13.26,13.26,0,0,1,10.1,9.37a14.84,14.84,0,0,1,12.69-3.5l-3.31,2,1.05,1.7,5.95-3.67L22.81,0Z"/><path class="cls-1" d="M11,27.51a4.6,4.6,0,1,0,4.59,4.6A4.6,4.6,0,0,0,11,27.51Zm0,7.19a2.6,2.6,0,1,1,2.59-2.59A2.6,2.6,0,0,1,11,34.7Z"/><path class="cls-1" d="M32.13,6.58a4.6,4.6,0,1,0,4.59,4.6A4.6,4.6,0,0,0,32.13,6.58Zm0,7.19a2.6,2.6,0,1,1,2.59-2.59A2.6,2.6,0,0,1,32.13,13.77Z"/></g></g></svg>