<svg xmlns="http://www.w3.org/2000/svg" viewBox="0 0 36.36 40.14"><defs><style>.cls-1{fill:#333;}</style></defs><g id="Layer_2" data-name="Layer 2"><g id="Design"><path class="cls-1" d="M15,30.73a1.82,1.82,0,0,1-1.84,1.84H8.89v2h4.23a3.84,3.84,0,1,0,0-7.68H6.75v2h6.37A1.82,1.82,0,0,1,15,30.73Z"/><polygon class="cls-1" points="18.92 26.27 18.92 12.29 21.8 8.4 20.6 7.51 18.05 10.96 15.63 8.93 14.66 10.08 17.42 12.39 17.42 26.27 18.92 26.27"/><rect class="cls-1" x="14.08" y="14.02" width="1.5" height="3.29" transform="translate(-6.73 16.38) rotate(-48.47)"/><rect class="cls-1" x="19.92" y="14.49" width="3.59" height="1.5" transform="translate(-4.41 19.81) rotate(-45)"/><path class="cls-1" d="M15.12,22.85l.62-1.9a7.24,7.24,0,0,1-5.23-6.87c0-4.88,5.79-10,7.71-11.53C20.85,4.81,26,10.08,26,14.08A7.34,7.34,0,0,1,20.75,21l.62,1.9A9.33,9.33,0,0,0,28,14.08C28,7.9,19.24.78,18.87.48L18.27,0l-.62.46c-.37.27-9.14,6.78-9.14,13.62A9.32,9.32,0,0,0,15.12,22.85Z"/><path class="cls-1" d="M35.89,27.26a3.38,3.38,0,0,0-2.12-1.58,3.41,3.41,0,0,0-2.62.35l-7.41,4.38-2.87-.72-.48,1.94,3.66.92,8.11-4.8a1.47,1.47,0,0,1,1.11-.14,1.49,1.49,0,0,1,.9.66,1.47,1.47,0,0,1,.14,1.11,1.51,1.51,0,0,1-.67.91l-1.08.65-.68-1.17-1.3.76.69,1.18L20.78,38.06,8.9,36.43l-.27,2,12.58,1.72L34.66,32a3.38,3.38,0,0,0,1.58-2.12A3.41,3.41,0,0,0,35.89,27.26Z"/><rect class="cls-1" x="3.5" y="26.87" width="2" height="11.46"/><rect class="cls-1" y="29.95" width="2" height="5.01"/></g></g></svg>