<svg xmlns="http://www.w3.org/2000/svg" viewBox="0 0 36.66 36.68"><defs><style>.cls-1{fill:#333;}</style></defs><g id="Layer_2" data-name="Layer 2"><g id="Design"><rect class="cls-1" x="6.02" y="25.21" width="12.08" height="2"/><rect class="cls-1" x="6.02" y="12.65" width="7.2" height="2"/><rect class="cls-1" x="6.02" y="18.93" width="12.08" height="2"/><polygon class="cls-1" points="31.67 9.03 30.07 7.83 28.16 10.41 26.38 8.98 25.13 10.54 27.29 12.27 27.29 34.68 2 34.68 2 3.68 18.33 3.68 18.33 1.68 0 1.68 0 36.68 29.29 36.68 29.29 12.25 31.67 9.03"/><path class="cls-1" d="M28.87.43,28.29,0,27.7.43c-.32.23-7.79,5.71-7.79,11.45A7.85,7.85,0,0,0,24.72,19l.81-1.83a5.84,5.84,0,0,1-3.62-5.24c0-3.9,4.7-8,6.38-9.38C30,3.85,34.66,8,34.66,11.88A5.84,5.84,0,0,1,31,17.12L31.85,19a7.85,7.85,0,0,0,4.81-7.07C36.66,6.14,29.19.66,28.87.43Z"/></g></g></svg>