<svg xmlns="http://www.w3.org/2000/svg" viewBox="0 0 36.65 30.86"><defs><style>.cls-1{fill:#333;}</style></defs><g id="Layer_2" data-name="Layer 2"><g id="Design"><rect class="cls-1" x="9.13" y="20.93" width="2" height="9.93"/><path class="cls-1" d="M14.55,18.56V11.94a10.08,10.08,0,0,0,5.71-9.11A2.83,2.83,0,0,0,14.6,2.7h0a4.4,4.4,0,0,1-.82,2.57,3.65,3.65,0,0,0-7.29,0A4.47,4.47,0,0,1,5.66,2.7h0A2.83,2.83,0,0,0,0,2.83a10.09,10.09,0,0,0,6.33,9.39q.4.16.84.3l.58-1.91c-.23-.07-.45-.15-.67-.24A8.1,8.1,0,0,1,2,2.83a.83.83,0,0,1,1.66,0h0a6.47,6.47,0,0,0,12.93,0h0a.84.84,0,0,1,1.67,0,8.11,8.11,0,0,1-5.08,7.54l-.63.25v6.76H7.71V13.94h-2v4.44h0V30.86h2V19.38h4.85v7.39h5.77v-2H14.55ZM10.13,3.83a1.67,1.67,0,0,1,.33,3.3c-.11,0-.22,0-.33,0s-.23,0-.34,0a1.67,1.67,0,0,1,.34-3.3Z"/><path class="cls-1" d="M29.77,21.93l.75,1.85a9.77,9.77,0,0,0,6.13-9.09,2.77,2.77,0,0,0-2.76-2.77,2.64,2.64,0,0,0-2.77,2.64A4.27,4.27,0,0,1,30.39,17a3.56,3.56,0,0,0-7.1.08,4.18,4.18,0,0,1-.72-2.34,2.77,2.77,0,1,0-5.53,0,9.76,9.76,0,0,0,5.5,8.81v7.19h8.61V25.28h-2v3.41H24.54V22.18l-.63-.25A7.79,7.79,0,0,1,19,14.69a.77.77,0,1,1,1.53,0,6.15,6.15,0,0,0,6.27,6.14,6.28,6.28,0,0,0,6.28-6.27c0-.44.38-.64.77-.64a.76.76,0,0,1,.76.77A7.78,7.78,0,0,1,29.77,21.93Zm-2.93-6.24a1.57,1.57,0,0,1,.32,3.11c-.11,0-.21,0-.32,0a1.57,1.57,0,0,1,0-3.14Z"/></g></g></svg>