<svg xmlns="http://www.w3.org/2000/svg" viewBox="0 0 36.66 35.95"><defs><style>.cls-1{fill:#333;}</style></defs><g id="Layer_2" data-name="Layer 2"><g id="Design"><path class="cls-1" d="M14.63,31.4l.82-1.82a5,5,0,0,1-3-4.44c0-3.26,3.8-6.73,5.3-8,1.5,1.24,5.3,4.71,5.3,8a4.94,4.94,0,0,1-3,4.44l.82,1.82A7,7,0,0,0,25,25.14c0-5-6.43-9.85-6.7-10l-.6-.44-.59.44c-.28.2-6.71,5-6.71,10.05A6.94,6.94,0,0,0,14.63,31.4Z"/><polygon class="cls-1" points="30.36 9.48 32.09 11.06 33.44 9.58 29.36 5.86 25.29 9.58 26.64 11.06 28.36 9.48 28.36 33.95 18.73 33.95 18.73 24.13 20.45 25.71 21.8 24.23 17.73 20.5 13.66 24.23 15.01 25.71 16.73 24.13 16.73 33.95 7.05 33.95 7.05 8.48 10.76 11.87 12.11 10.39 6.05 4.86 0 10.39 1.35 11.87 5.05 8.48 5.05 35.95 34.49 35.95 34.49 33.95 30.36 33.95 30.36 9.48"/><path class="cls-1" d="M30,.44,29.36,0l-.59.44c-.27.2-6.71,5-6.71,10.05a6.94,6.94,0,0,0,4.2,6.26l.82-1.82a5,5,0,0,1-3-4.44c0-3.26,3.81-6.73,5.3-8,1.5,1.24,5.3,4.71,5.3,8a4.94,4.94,0,0,1-3,4.44l.82,1.82a6.93,6.93,0,0,0,4.19-6.26C36.66,5.45,30.23.64,30,.44Z"/></g></g></svg>