<svg xmlns="http://www.w3.org/2000/svg" viewBox="0 0 33.65 36.6"><defs><style>.cls-1{fill:#333;}</style></defs><g id="Layer_2" data-name="Layer 2"><g id="Design"><path class="cls-1" d="M28.17,12.9A6.39,6.39,0,0,0,24.32,16L22,20.1l1.73,1L26.08,17a4.43,4.43,0,0,1,2.68-2.15,5.17,5.17,0,0,1,3.94.35l.95-1.76A7.19,7.19,0,0,0,28.17,12.9Z"/><path class="cls-1" d="M31.51,17.29l-1.78-.91L28.91,18l-1.15-.66-1,1.73,1.24.71-.32.61a5.79,5.79,0,0,0-.3,4.63c1.16,3.84-2,6.85-5.61,8.12l-4.23,1.24a6.51,6.51,0,0,1-4.87-.48,6.29,6.29,0,0,1-3-3.6L7.92,24.66,6,25.25l1.74,5.62a8.26,8.26,0,0,0,7.87,5.73,9.92,9.92,0,0,0,2.44-.32L22.39,35c5.47-1.92,8.24-6.18,6.89-10.65a3.79,3.79,0,0,1,.18-3.08Z"/><path class="cls-1" d="M2.22,13.58a1.33,1.33,0,0,1,.32-1.81,1.31,1.31,0,0,1,1-.18l.57.94-.91.52,1,1.74,1-.54,3.41,5.68,1.71-1-6-10a1.54,1.54,0,0,1,.72-2,1.58,1.58,0,0,1,2,.64l.37.82L6,9.09l1,1.75,1.19-.67,3.17,6.94,1.87-.71L9.42,4.05a1.57,1.57,0,0,1,1-2,1.18,1.18,0,0,1,1.08.14,1.85,1.85,0,0,1,.81,1l.21.71-1.39.39.53,1.92,1.44-.39,3,9.92,2-.35-.7-11.2a1.42,1.42,0,0,1,.36-1.05,1.5,1.5,0,0,1,1.07-.49,1.38,1.38,0,0,1,1,.36,1.46,1.46,0,0,1,.5,1l.05.78H19.05v2h1.49l.53,8.68,2-.13L22.37,4a3.47,3.47,0,0,0-1.18-2.44A3.42,3.42,0,0,0,18.71.65a3.48,3.48,0,0,0-2.44,1.17,3.33,3.33,0,0,0-.85,2.51L15.58,7,14.25,2.59A3.82,3.82,0,0,0,12.59.52,3.12,3.12,0,0,0,9.82.18,3.56,3.56,0,0,0,7.51,4.62l.25.84a3.59,3.59,0,0,0-3.65-.4A3.52,3.52,0,0,0,2.4,9.69a3.67,3.67,0,0,0-1,.42,3.34,3.34,0,0,0-.89,4.53L5,21.85l1.7-1.06Z"/></g></g></svg>