<svg xmlns="http://www.w3.org/2000/svg" viewBox="0 0 36.64 28.56"><defs><style>.cls-1{fill:#333;}</style></defs><g id="Layer_2" data-name="Layer 2"><g id="Design"><path class="cls-1" d="M6.31,14.89,7.73,16.3a14.88,14.88,0,0,1,21,0l1.41-1.41A16.89,16.89,0,0,0,6.31,14.89Z"/><path class="cls-1" d="M18.24,0A25.56,25.56,0,0,0,0,7.6L1.42,9A23.58,23.58,0,0,1,18.24,2h.05A23.78,23.78,0,0,1,35.22,9L36.64,7.6A25.7,25.7,0,0,0,18.24,0Z"/><path class="cls-1" d="M15.31,21.27h0a4.27,4.27,0,1,0,6,0A4.25,4.25,0,0,0,15.31,21.27Zm4.63,4.63a2.28,2.28,0,0,1-3.22,0,2.26,2.26,0,0,1,0-3.21,2.29,2.29,0,0,1,3.22,0,2.25,2.25,0,0,1,.66,1.61A2.29,2.29,0,0,1,19.94,25.9Z"/></g></g></svg>