<svg xmlns="http://www.w3.org/2000/svg" fill="none" viewBox="0 0 24 24">
  <g clip-path="url(#a)">
  <path fill="#abd102" d="M19.821 4.532c-2.784-.14-8.443-.426-8.806-.454a739.754 739.754 0 0 0-4.577 2.376c-.252.14-1.876 3.413-2.657 5.032.361 2.131 1.09 6.43 1.119 6.57.028.14 5.905-.385 8.84-.665l4.928-5.066 1.153-7.793Z"/>
  <path fill="#5dab17" d="M21 3v2c0 9.627-5.373 14-12 14H5.243A17.056 17.056 0 0 0 5 22H3c0-1.363.116-2.6.346-3.732C3.116 16.974 3 15.218 3 13 3 7.477 7.477 3 13 3c2 0 4 1 8 0Zm-8 2a8 8 0 0 0-8 8c0 .362.003.711.01 1.046 1.254-1.978 3.091-3.541 5.494-4.914l.992 1.736C8.641 12.5 6.747 14.354 5.776 17H9c6.015 0 9.871-3.973 9.997-11.612-1.372.133-2.647.048-4.22-.188C13.627 5.027 13.401 5 13 5Z"/>
</g>
  <defs>
  <clipPath id="a">
  <rect width="24" height="24" fill="#000"/>
</clipPath>
</defs>
</svg>
